<?xml version="1.0" encoding="UTF-8" standalone="no"?>
<svg width="12px" height="12px" viewBox="0 0 12 12" version="1.1" xmlns="http://www.w3.org/2000/svg" xmlns:xlink="http://www.w3.org/1999/xlink">
    <!-- Generator: Sketch 50.2 (55047) - http://www.bohemiancoding.com/sketch -->
    <title>关注</title>
    <desc>Created with Sketch.</desc>
    <defs></defs>
    <g id="Page-1" stroke="none" stroke-width="1" fill="none" fill-rule="evenodd">
        <g id="工单-新增关注" transform="translate(-1823.000000, -347.000000)" fill="#F5A623" fill-rule="nonzero" stroke="#F5A623" stroke-width="0.5">
            <g id="Group-15" transform="translate(1814.000000, 309.000000)">
                <g id="关注" transform="translate(0.000000, 34.000000)">
                    <g id="Group-18" transform="translate(10.000000, 4.000000)">
                        <g id="加号-(1)" transform="translate(0.000000, 1.000000)">
                            <g id="关注">
                                <path d="M9.70580607,5.28400701 L0.294182243,5.28400701 C0.136682243,5.28400701 0.00898364486,5.15473131 0.00898364486,4.9971028 C0.00898364486,4.8394743 0.136682243,4.7101986 0.294182243,4.7101986 L9.70580607,4.7101986 C9.86330607,4.7101986 9.99100467,4.8394743 9.99100467,4.9971028 C9.99100467,5.15473131 9.86330607,5.28400701 9.70580607,5.28400701 Z" id="Shape"></path>
                                <path d="M5.2855257,0.291308411 L5.2855257,9.70293224 C5.2855257,9.86043224 5.15625,9.98813084 4.9986215,9.98813084 C4.84099299,9.98813084 4.71171729,9.86043224 4.71171729,9.70293224 L4.71171729,0.291308411 C4.71171729,0.133808411 4.84099299,0.00610981308 4.9986215,0.00610981308 C5.15625,0.00610981308 5.2855257,0.133808411 5.2855257,0.291308411 Z" id="Shape"></path>
                            </g>
                        </g>
                    </g>
                </g>
            </g>
        </g>
    </g>
</svg>