<?xml version="1.0" encoding="UTF-8" standalone="no"?>
<svg width="10px" height="7px" viewBox="0 0 10 7" version="1.1" xmlns="http://www.w3.org/2000/svg" xmlns:xlink="http://www.w3.org/1999/xlink">
    <!-- Generator: Sketch 50.2 (55047) - http://www.bohemiancoding.com/sketch -->
    <title>已关注</title>
    <desc>Created with Sketch.</desc>
    <defs></defs>
    <g id="Page-1" stroke="none" stroke-width="1" fill="none" fill-rule="evenodd">
        <g id="工单-新增关注" transform="translate(-1818.000000, -385.000000)" fill="#00BFA5" fill-rule="nonzero">
            <g id="Group-15" transform="translate(1814.000000, 309.000000)">
                <g id="已关注" transform="translate(0.000000, 70.000000)">
                    <g id="加号-(1)" transform="translate(4.000000, 4.000000)">
                        <g id="已关注" transform="translate(0.000000, 2.000000)">
                            <path d="M3.75013697,7.01674599 C3.63846377,7.01622447 3.53191179,6.96983449 3.45544629,6.88844528 L0.121632686,3.38022291 C-0.0409293345,3.20519686 -0.0404916475,2.93426862 0.122635035,2.75976872 C0.198694609,2.67776814 0.305481386,2.63116678 0.417325715,2.63116678 C0.529170044,2.63116678 0.635956821,2.67776814 0.712016394,2.75976872 L3.75013697,5.95726283 L9.28811658,0.128601942 C9.36417615,0.0466013615 9.47096293,0 9.58280726,0 C9.69465159,0 9.80143836,0.0466013615 9.87749794,0.128601942 C10.040834,0.303171036 10.040834,0.574487033 9.87749794,0.749056128 L4.04482765,6.88844528 C3.96836215,6.96983449 3.86181017,7.01622447 3.75013697,7.01674599 Z" id="Shape"></path>
                        </g>
                    </g>
                </g>
            </g>
        </g>
    </g>
</svg>