<?xml version="1.0" encoding="UTF-8" standalone="no"?>
<svg width="20px" height="20px" viewBox="0 0 20 20" version="1.1" xmlns="http://www.w3.org/2000/svg" xmlns:xlink="http://www.w3.org/1999/xlink">
    <!-- Generator: Sketch 48.2 (47327) - http://www.bohemiancoding.com/sketch -->
    <title>底座防拆报警</title>
    <desc>Created with Sketch.</desc>
    <defs></defs>
    <g id="Page-1" stroke="none" stroke-width="1" fill="none" fill-rule="evenodd">
        <g id="底座防拆报警" fill="#555555" fill-rule="nonzero" stroke="#555555" stroke-width="0.8">
            <g id="防拆报警" transform="translate(1.000000, 0.000000)">
                <path d="M16.7108918,17.6629697 C17.0999735,17.6629697 17.4183131,17.9778863 17.4183131,18.3627843 L17.4183131,18.7126916 C17.4183131,19.0975896 17.0999735,19.4125062 16.7108918,19.4125062 L1.28910821,19.4125062 C0.900026514,19.4125062 0.581686944,19.0975896 0.581686946,18.7126916 L0.581686946,18.3627843 C0.581686946,17.9778863 0.900026515,17.6629697 1.28910821,17.6629697 L16.7108918,17.6629697 Z M16.7108918,17.103118 L1.28910821,17.103118 C0.588761158,17.103118 0.0157499332,17.6699678 0.0157499332,18.3627843 L0.0157499332,18.7126916 C0.0157499332,19.405508 0.588761157,19.9723578 1.28910821,19.9723578 L16.7108918,19.9723578 C17.4112388,19.9723578 17.9842501,19.405508 17.9842501,18.7126916 L17.9842501,18.3627843 C17.9842501,17.6699679 17.4112388,17.103118 16.7108918,17.103118 Z M9,0.587493834 C10.8534437,0.587493834 12.6007742,1.30830286 13.923652,2.60995798 C15.2465298,3.91861126 15.9680995,5.64715328 15.9680995,7.48066749 L15.9680995,13.9119635 C15.9680995,14.2478745 15.6922052,14.5138041 15.3597172,14.5138041 L2.64028283,14.5138041 C2.30072062,14.5138041 2.03190054,14.2408764 2.03190054,13.9119635 L2.03190054,7.48066749 C2.03190054,5.64715328 2.76054444,3.91861126 4.076348,2.60995798 C5.39215155,1.30130471 7.14655628,0.587493835 9,0.587493834 Z M9,0.0276421661 C4.85451139,0.0276421661 1.46596353,3.37975403 1.46596353,7.48066749 L1.46596353,13.9119635 C1.46596353,14.5557929 1.99652948,15.0736557 2.64028283,15.0736557 L15.352643,15.0736557 C16.0034705,15.0736557 16.5269623,14.5487948 16.5269623,13.9119635 L16.5269623,7.48066749 C16.5340365,3.37975403 13.1454886,0.0276421661 9,0.0276421661 Z" id="Shape"></path>
                <path d="M8.78069941,5.79411434 L8.65336358,6.58490483 L8.58969567,6.97680099 L8.9434063,7.16575093 L10.0186866,7.74659704 L9.19807795,9.35617058 L9.35371063,8.36943202 L9.41737855,7.94954327 L9.02829685,7.77458962 L8.00961023,7.31971014 L8.78069941,5.79411434 Z M9.91964765,2.3370303 L7.23144684,7.58563968 L8.78777362,8.28545427 L8.08035236,12.7642676 L10.7685532,7.51565822 L9.21222638,6.67588072 L9.91964765,2.3370303 Z" id="Shape"></path>
            </g>
        </g>
    </g>
</svg>