<?xml version="1.0" encoding="UTF-8" standalone="no"?>
<svg width="20px" height="20px" viewBox="0 0 20 20" version="1.1" xmlns="http://www.w3.org/2000/svg" xmlns:xlink="http://www.w3.org/1999/xlink">
    <!-- Generator: Sketch 48.2 (47327) - http://www.bohemiancoding.com/sketch -->
    <title>烟感失效报警</title>
    <desc>Created with Sketch.</desc>
    <defs></defs>
    <g id="Page-1" stroke="none" stroke-width="1" fill="none" fill-rule="evenodd">
        <g id="烟感失效报警" fill="#555555" fill-rule="nonzero">
            <g id="烟感">
                <path d="M18.5714286,1.42857143 L18.5714286,5.71428571 C18.5714286,8.87019857 16.0130557,11.4285714 12.8571429,11.4285714 L7.14285714,11.4285714 C3.98694429,11.4285714 1.42857143,8.87019857 1.42857143,5.71428571 L1.42857143,1.42857143 L0,1.42857143 L0,2.23224106e-10 L20,2.23224106e-10 L20,1.42857143 L18.5714286,1.42857143 Z M17.1428571,1.42857143 L2.85714286,1.42857143 L2.85714286,5.71428571 C2.85714286,8.08122036 4.7759225,10 7.14285714,10 L12.8571429,10 C15.2240775,10 17.1428571,8.08122036 17.1428571,5.71428571 L17.1428571,1.42857143 Z M12.8571429,4.28571429 L15.7142857,4.28571429 L15.7142857,5.71428571 L12.8571429,5.71428571 L12.8571429,4.28571429 Z M8.57142857,4.28571429 L11.4285714,4.28571429 L11.4285714,5.71428571 L8.57142857,5.71428571 L8.57142857,4.28571429 Z M4.28571429,4.28571429 L7.14285714,4.28571429 L7.14285714,5.71428571 L4.28571429,5.71428571 L4.28571429,4.28571429 Z M7.15285714,17.2042857 C7.17857143,18.3228571 7.79857143,18.5714286 8.57142857,18.5714286 L8.57142857,20 C6.99428571,20 5.71428571,19.1157143 5.71428571,17.1428571 C5.71428571,16.8971429 5.67714286,15.9457143 5.71428571,15.7142857 C5.59571429,15 5.23857143,14.2857143 4.28571429,14.2857143 L4.28571429,12.8571429 C7.30857143,12.8571429 7.26571429,16.1814286 7.15285714,17.2042857 Z M8.57142857,14.2857143 L8.57142857,12.8571429 C11.5928571,12.8571429 11.5514286,16.1814286 11.4385714,17.2042857 C11.4642857,18.3228571 12.0842857,18.5714286 12.8571429,18.5714286 L12.8571429,20 C11.28,20 10,19.1157143 10,17.1428571 C10,16.8971429 9.96285714,15.9457143 10,15.7142857 C9.88142857,15 9.52428571,14.2857143 8.57142857,14.2857143 Z M12.8571429,14.2857143 L12.8571429,12.8571429 C15.8785714,12.8571429 15.8371429,16.1814286 15.7242857,17.2042857 C15.75,18.3228571 16.37,18.5714286 17.1428571,18.5714286 L17.1428571,20 C15.5657143,20 14.2857143,19.1157143 14.2857143,17.1428571 C14.2857143,16.8971429 14.2485714,15.9457143 14.2857143,15.7142857 C14.1657143,15 13.8085714,14.2857143 12.8571429,14.2857143 Z" id="Shape"></path>
            </g>
        </g>
    </g>
</svg>