<?xml version="1.0" encoding="UTF-8" standalone="no"?>
<svg width="20px" height="20px" viewBox="0 0 20 20" version="1.1" xmlns="http://www.w3.org/2000/svg" xmlns:xlink="http://www.w3.org/1999/xlink">
    <!-- Generator: Sketch 48.2 (47327) - http://www.bohemiancoding.com/sketch -->
    <title>低电压报警</title>
    <desc>Created with Sketch.</desc>
    <defs></defs>
    <g id="Page-1" stroke="none" stroke-width="1" fill="none" fill-rule="evenodd">
        <g id="低电压报警" fill="#555555" fill-rule="nonzero">
            <g id="低电压台区">
                <path d="M9.99898608,0 C4.48912525,0 0.00622266402,4.48574553 0.00622266402,9.99906561 C0.00622266402,15.5122863 4.48912525,19.9979324 9.99898608,19.9979324 C15.5098608,19.9979324 19.9937773,15.512167 19.9937773,9.99906561 C19.9937773,4.48564612 15.5098608,0 9.99898608,0 Z M9.99898608,18.6049304 C5.25671968,18.6049304 1.39799205,14.744493 1.39799205,9.99906561 C1.39799205,5.25393638 5.25662028,1.39298211 9.99898608,1.39298211 C14.7422664,1.39298211 18.6009742,5.25395626 18.6009742,9.99906561 C18.6009742,14.7444732 14.7422664,18.6049304 9.99898608,18.6049304 Z M13.6840755,5.62029821 C13.6342744,5.60238569 13.5663817,5.58761431 13.4795626,5.57457256 C13.3932406,5.56196819 13.2879125,5.5560835 13.1620676,5.5560835 C13.0315905,5.5560835 12.9226839,5.56196819 12.8363618,5.57457256 C12.7500398,5.58771372 12.6812326,5.60238569 12.6288072,5.62029821 C12.5758847,5.63749503 12.5394433,5.66163022 12.5183698,5.69145129 C12.4972962,5.72198807 12.4870179,5.75719682 12.4870179,5.79751491 L12.4870179,11.7694831 C12.4870179,12.2076938 12.4305169,12.5899006 12.3185487,12.9171571 C12.2060835,13.2441153 12.0442346,13.5185487 11.8321074,13.7399205 C11.6198807,13.9616103 11.3610338,14.1280517 11.0553678,14.2384891 C10.749165,14.3489264 10.400338,14.4043936 10.007336,14.4043936 C9.62562624,14.4043936 9.28137177,14.3475944 8.97568588,14.2346123 C8.66952286,14.121332 8.40801193,13.9528628 8.19069583,13.7283101 C7.97337972,13.5047913 7.80745527,13.2240557 7.69284294,12.8865209 C7.5772167,12.5497018 7.51970179,12.1546521 7.51970179,11.7012922 L7.51970179,5.79751491 C7.51970179,5.75719682 7.50890656,5.72196819 7.4883499,5.69145129 C7.46727634,5.66163022 7.43184891,5.63749503 7.38248509,5.62027833 C7.33210736,5.60238569 7.2633002,5.58761431 7.17393638,5.57459245 C7.0855666,5.56196819 6.97870775,5.55606362 6.85286282,5.55606362 C6.71677932,5.55606362 6.60673956,5.56196819 6.52308151,5.57459245 C6.43930417,5.58771372 6.37151093,5.60238569 6.31910537,5.62029821 C6.26667992,5.63749503 6.23023857,5.66163022 6.20916501,5.69145129 C6.18809145,5.72198807 6.17781312,5.75719682 6.17781312,5.79751491 L6.17781312,11.8603777 C6.17781312,12.4589066 6.26667992,12.9878131 6.44491054,13.4455467 C6.62212724,13.9037972 6.8759841,14.2852087 7.20578529,14.5893439 C7.53558648,14.8940159 7.93011928,15.1241551 8.3905169,15.2805964 C8.85079523,15.4362425 9.36149105,15.5146123 9.92141153,15.5146123 C10.5332803,15.5146123 11.0798807,15.4313519 11.5612525,15.2651292 C12.0420875,15.0992247 12.4500596,14.8549304 12.7854672,14.5327634 C13.1204573,14.2105964 13.3777734,13.8165606 13.5581511,13.3513917 C13.7384095,12.8853877 13.8289066,12.356004 13.8289066,11.7616501 L13.8289066,5.79751491 C13.8289066,5.75719682 13.8170974,5.72196819 13.793996,5.69145129 C13.7703777,5.66163022 13.733837,5.63749503 13.6840557,5.62027833 L13.6840755,5.62029821 Z" id="Shape"></path>
                <path d="M9.35435388,8.88170974 L10.6455467,8.88170974 L10.6455467,15.8033797 L9.35435388,15.8033797 L9.35435388,8.88170974 Z M11.9862227,15.8033797 L9.96326044,17.8263817 L7.94029821,15.8033797 L11.9862227,15.8033797 Z" id="Shape"></path>
            </g>
        </g>
    </g>
</svg>