<?xml version="1.0" encoding="UTF-8" standalone="no"?>
<svg width="20px" height="20px" viewBox="0 0 20 20" version="1.1" xmlns="http://www.w3.org/2000/svg" xmlns:xlink="http://www.w3.org/1999/xlink">
    <!-- Generator: Sketch 48.2 (47327) - http://www.bohemiancoding.com/sketch -->
    <title>温度超限报警</title>
    <desc>Created with Sketch.</desc>
    <defs></defs>
    <g id="Page-1" stroke="none" stroke-width="1" fill="none" fill-rule="evenodd">
        <g id="温度超限报警" fill="#555555" fill-rule="nonzero">
            <g id="高温">
                <path d="M15.1284054,14.5928693 C14.7442742,14.5928693 14.4325572,14.2947179 14.4325572,13.9275589 L14.4325572,8.88978143 L12.8584874,10.3934957 C12.5798749,10.6598152 12.1276276,10.6598152 11.849015,10.3934957 C11.5704594,10.1272336 11.5704594,9.69546268 11.849015,9.42920059 L14.5987057,6.8029509 C14.7410862,6.6669182 14.928327,6.60719025 15.114657,6.61058029 C15.3104942,6.60006541 15.5091778,6.66002321 15.6587598,6.8029509 L18.4084505,9.42920059 C18.6870061,9.69546268 18.6870061,10.1272336 18.4084505,10.3934957 C18.1292117,10.6598152 17.6775907,10.6598152 17.3989781,10.3934957 L15.8249083,8.89012619 L15.8249083,13.9275589 C15.8249083,14.2947466 15.5132198,14.5928693 15.1284054,14.5928693 Z M19.036325,2.8803255 C17.8509123,2.29209545 16.5173408,1.95306233 15.100937,1.95306233 C10.2405314,1.95306233 6.3009022,5.85123921 6.3009022,10.6603324 C6.3009022,15.4689371 10.2405314,19.3676024 15.100937,19.3676024 C16.4437595,19.3676024 17.711236,19.0612918 18.8499096,18.5291124 C18.8499096,18.5291124 19.6855765,18.3039043 19.8113335,19.37263 C19.8604352,19.7899501 19.5268573,20.0097284 19.5268573,20.0097284 C19.4845872,20.0293217 19.4391006,20.0430829 19.3964889,20.0621879 C19.3345213,20.0980132 19.2697641,20.1229788 19.19883,20.1417964 C17.9383274,20.6778543 16.5599525,20.9936742 15.100937,20.9936742 C9.33290581,20.9936742 4.65680921,16.367155 4.65680921,10.6603323 C4.65680921,4.95350959 9.33290579,0.32704788 15.100937,0.32704788 C16.5548288,0.32704788 17.92734,0.642810337 19.1839999,1.17590909 C19.2733506,1.197772 19.3536211,1.23167243 19.4287394,1.27990873 C19.5284513,1.32509975 19.6335145,1.36043663 19.731547,1.40852929 C19.731547,1.40852929 20.115422,1.74563755 19.9207519,2.20050673 C19.6740483,3.0671801 19.036325,2.8803255 19.036325,2.8803255 Z M2.5611521,5.18101607 C1.14756631,5.18101607 0.000723282337,4.02656252 0.000723282337,2.6017386 C0.000723282337,1.17740307 1.14756631,0.0223749385 2.5611521,0.0223749385 C3.97599035,0.0223749385 5.12220715,1.17740307 5.12220715,2.6017386 C5.12220715,4.02653377 3.97599035,5.18101607 2.5611521,5.18101607 Z M2.5611521,1.42252049 C1.91525944,1.42252049 1.39119574,1.95059163 1.39119574,2.6017386 C1.39119574,3.25288557 1.91525944,3.78087052 2.5611521,3.78087052 C3.20832567,3.78087052 3.73238937,3.25285682 3.73238937,2.6017386 C3.73238937,1.95062037 3.20832567,1.42252049 2.5611521,1.42252049 Z" id="Shape"></path>
            </g>
        </g>
    </g>
</svg>