<?xml version="1.0" encoding="UTF-8" standalone="no"?>
<svg width="60px" height="46px" viewBox="0 0 60 46" version="1.1" xmlns="http://www.w3.org/2000/svg" xmlns:xlink="http://www.w3.org/1999/xlink">
    <!-- Generator: Sketch 48.2 (47327) - http://www.bohemiancoding.com/sketch -->
    <title>16分屏绿</title>
    <desc>Created with Sketch.</desc>
    <defs></defs>
    <g id="Page-1" stroke="none" stroke-width="1" fill="none" fill-rule="evenodd">
        <g id="16分屏绿" fill="#00BFA5" fill-rule="nonzero">
            <g id="16分屏">
                <g id="icon_4分屏-copy-4">
                    <polygon id="Shape" points="0 0.00132470456 13.8889 0.00132470456 13.8889 10.060957 1.00756512e-15 10.060957"></polygon>
                    <polygon id="Shape-Copy-19" points="0 23.9632438 13.8889 23.9632438 13.8889 34.022876 1.00756512e-15 34.022876"></polygon>
                    <polygon id="Shape-Copy-10" points="0 11.9822842 13.8889 11.9822842 13.8889 22.0419165 1.00756512e-15 22.0419165"></polygon>
                    <polygon id="Shape-Copy-20" points="0 35.9442033 13.8889 35.9442033 13.8889 46.0038355 1.00756512e-15 46.0038355"></polygon>
                    <polygon id="Shape-Copy-7" points="15.3703827 0.00132470456 29.2592827 0.00132470456 29.2592827 10.060957 15.3703827 10.060957"></polygon>
                    <polygon id="Shape-Copy-21" points="15.3703827 23.9632438 29.2592827 23.9632438 29.2592827 34.022876 15.3703827 34.022876"></polygon>
                    <polygon id="Shape-Copy-11" points="15.3703827 11.9822842 29.2592827 11.9822842 29.2592827 22.0419165 15.3703827 22.0419165"></polygon>
                    <polygon id="Shape-Copy-22" points="15.3703827 35.9442033 29.2592827 35.9442033 29.2592827 46.0038355 15.3703827 46.0038355"></polygon>
                    <polygon id="Shape-Copy-8" points="30.7407654 0.00132470456 44.6296654 0.00132470456 44.6296654 10.060957 30.7407654 10.060957"></polygon>
                    <polygon id="Shape-Copy-23" points="30.7407654 23.9632438 44.6296654 23.9632438 44.6296654 34.022876 30.7407654 34.022876"></polygon>
                    <polygon id="Shape-Copy-12" points="30.7407654 11.9822842 44.6296654 11.9822842 44.6296654 22.0419165 30.7407654 22.0419165"></polygon>
                    <polygon id="Shape-Copy-24" points="30.7407654 35.9442033 44.6296654 35.9442033 44.6296654 46.0038355 30.7407654 46.0038355"></polygon>
                    <polygon id="Shape-Copy-9" points="46.1111481 0.00132470456 60.0000481 0.00132470456 60.0000481 10.060957 46.1111481 10.060957"></polygon>
                    <polygon id="Shape-Copy-25" points="46.1111481 23.9632438 60.0000481 23.9632438 60.0000481 34.022876 46.1111481 34.022876"></polygon>
                    <polygon id="Shape-Copy-18" points="46.1111481 11.9822842 60.0000481 11.9822842 60.0000481 22.0419165 46.1111481 22.0419165"></polygon>
                    <polygon id="Shape-Copy-26" points="46.1111481 35.9442033 60.0000481 35.9442033 60.0000481 46.0038355 46.1111481 46.0038355"></polygon>
                </g>
            </g>
        </g>
    </g>
</svg>