<?xml version="1.0" encoding="UTF-8" standalone="no"?>
<svg width="60px" height="46px" viewBox="0 0 60 46" version="1.1" xmlns="http://www.w3.org/2000/svg" xmlns:xlink="http://www.w3.org/1999/xlink">
    <!-- Generator: Sketch 48.2 (47327) - http://www.bohemiancoding.com/sketch -->
    <title>9分屏</title>
    <desc>Created with Sketch.</desc>
    <defs></defs>
    <g id="视频监控九宫格" stroke="none" stroke-width="1" fill="none" fill-rule="evenodd" transform="translate(-489.000000, -986.000000)">
        <g id="Group-28" transform="translate(482.000000, 976.000000)" fill="#9B9B9B" fill-rule="nonzero">
            <g id="Group-18" transform="translate(7.000000, 10.000000)">
                <g id="9分屏">
                    <g id="icon_4分屏-copy-3">
                        <polygon id="Shape" points="0 0 18.2488479 0 18.2488479 13.8832998 1.32385593e-15 13.8832998"></polygon>
                        <polygon id="Shape" points="20.6451613 0 38.8940092 0 38.8940092 13.8832998 20.6451613 13.8832998 20.6451613 0"></polygon>
                        <polygon id="Shape-Copy-13" points="41.2903226 0 59.5391705 0 59.5391705 13.8832998 41.2903226 13.8832998 41.2903226 0"></polygon>
                        <polygon id="Shape" points="0 15.8732394 18.2488479 15.8732394 18.2488479 29.7565392 1.32385593e-15 29.7565392"></polygon>
                        <polygon id="Shape-Copy-15" points="0 31.7464789 18.2488479 31.7464789 18.2488479 45.6297787 1.32385593e-15 45.6297787"></polygon>
                        <polygon id="Shape" points="20.6451613 15.8732394 38.8940092 15.8732394 38.8940092 29.7565392 20.6451613 29.7565392 20.6451613 15.8732394"></polygon>
                        <polygon id="Shape-Copy-16" points="20.6451613 31.7464789 38.8940092 31.7464789 38.8940092 45.6297787 20.6451613 45.6297787 20.6451613 31.7464789"></polygon>
                        <polygon id="Shape-Copy-14" points="41.2903226 15.8732394 59.5391705 15.8732394 59.5391705 29.7565392 41.2903226 29.7565392 41.2903226 15.8732394"></polygon>
                        <polygon id="Shape-Copy-17" points="41.2903226 31.7464789 59.5391705 31.7464789 59.5391705 45.6297787 41.2903226 45.6297787 41.2903226 31.7464789"></polygon>
                    </g>
                </g>
            </g>
        </g>
    </g>
</svg>