<?xml version="1.0" encoding="UTF-8" standalone="no"?>
<svg width="40px" height="40px" viewBox="0 0 40 40" version="1.1" xmlns="http://www.w3.org/2000/svg" xmlns:xlink="http://www.w3.org/1999/xlink">
    <!-- Generator: Sketch 48.2 (47327) - http://www.bohemiancoding.com/sketch -->
    <title>自动</title>
    <desc>Created with Sketch.</desc>
    <defs></defs>
    <g id="视频监控九宫格" stroke="none" stroke-width="1" fill="none" fill-rule="evenodd" transform="translate(-1745.000000, -579.000000)">
        <g id="Group" transform="translate(1695.000000, 529.000000)">
            <g id="自动" transform="translate(50.000000, 50.000000)">
                <rect id="Rectangle-15-Copy-4" fill="#00BFA5" x="0" y="0" width="40" height="40" rx="4"></rect>
                <g id="auto" transform="translate(8.000000, 14.000000)" fill="#FFFFFF" fill-rule="nonzero">
                    <path d="M21.1056364,9.11605416 C21.1056364,9.52514507 21.2172227,9.82688588 21.4376057,10.0183752 C21.6579888,10.212766 21.9202167,10.3085106 22.2242895,10.3085106 C22.5255727,10.3085106 22.7878006,10.212766 23.0109733,10.0183752 C23.2313563,9.82398453 23.3429427,9.52514507 23.3429427,9.11605416 L23.3429427,2.88394584 C23.3429427,2.47485493 23.2313563,2.17311412 23.0109733,1.98162476 C22.7905903,1.78723404 22.5283623,1.69148936 22.2242895,1.69148936 C21.9230064,1.69148936 21.6607785,1.78723404 21.4376057,1.98162476 C21.2172227,2.17601547 21.1056364,2.47485493 21.1056364,2.88394584 L21.1056364,9.11605416 Z M19.4541584,2.88394584 C19.4541584,2.40812379 19.5350585,1.99032882 19.6968587,1.62475822 C19.8586589,1.25918762 20.0734626,0.960348162 20.3384802,0.722437137 C20.6034978,0.484526112 20.8992016,0.304642166 21.231171,0.1827853 C21.5603507,0.0609284333 21.8923201,0 22.2270792,0 C22.5618382,0 22.8938076,0.0609284333 23.2229874,0.1827853 C23.5521671,0.304642166 23.8506606,0.484526112 24.1156782,0.722437137 C24.3806958,0.960348162 24.5927098,1.26208897 24.7572997,1.62475822 C24.9190999,1.99032882 25,2.40812379 25,2.88394584 L25,9.11605416 C25,9.60348162 24.9190999,10.0241779 24.7572997,10.3839458 C24.5954995,10.7437137 24.3806958,11.0425532 24.1156782,11.2775629 C23.8506606,11.5154739 23.5549568,11.6953578 23.2229874,11.8172147 C22.8938076,11.9390716 22.5618382,12 22.2270792,12 C21.8923201,12 21.5603507,11.9390716 21.231171,11.8172147 C20.9019913,11.6953578 20.6034978,11.5154739 20.3384802,11.2775629 C20.0734626,11.0396518 19.8614485,10.7408124 19.6968587,10.3839458 C19.5350585,10.0241779 19.4541584,9.60348162 19.4541584,9.11605416 L19.4541584,2.88394584 Z M15.2557219,1.69148936 L13.7493062,1.69148936 C13.5261335,1.69148936 13.3448057,1.49709865 13.3448057,1.27369439 L13.3448057,0.51934236 C13.3448057,0.287234043 13.5261335,0.101547389 13.7576752,0.101547389 L18.4136156,0.101547389 C18.6423677,0.101547389 18.8264851,0.295938104 18.8264851,0.51934236 L18.8264851,1.27369439 C18.8264851,1.50580271 18.6507366,1.69148936 18.4219846,1.69148936 L16.9155689,1.69148936 L16.9155689,11.4864603 C16.9155689,11.7156673 16.7398204,11.8984526 16.5166477,11.8984526 L15.6630121,11.8984526 C15.442629,11.8984526 15.2640909,11.7040619 15.2640909,11.4864603 L15.2640909,1.69148936 L15.2557219,1.69148936 Z M12.6139151,9.24951644 C12.6139151,9.63539652 12.5441736,9.99516441 12.401901,10.3259188 C12.2624181,10.6566731 12.0699316,10.9468085 11.8272313,11.196325 C11.584531,11.4458414 11.2999858,11.6402321 10.9763854,11.7852998 C10.6527849,11.9303675 10.3068673,12 9.93863229,12 C9.57039734,12 9.22447965,11.9274662 8.90087923,11.7852998 C8.57727881,11.6402321 8.29273362,11.4458414 8.05003331,11.196325 C7.80733299,10.9468085 7.61484654,10.6566731 7.4753636,10.3259188 C7.33588066,9.99516441 7.26334953,9.63539652 7.26334953,9.24951644 L7.26334953,0.516441006 C7.26334953,0.287234043 7.43909803,0.0986460348 7.66227074,0.0986460348 L8.51590632,0.0986460348 C8.73628936,0.0986460348 8.91482752,0.287234043 8.91482752,0.51934236 L8.91482752,9.08123791 C8.91482752,9.50193424 9.01246558,9.80947776 9.2077417,10.0096712 C9.40301781,10.2098646 9.64571812,10.3085106 9.93584263,10.3085106 C10.2287568,10.3085106 10.4714571,10.2098646 10.6639436,10.0096712 C10.8592197,9.80947776 10.9568577,9.50193424 10.9568577,9.08123791 L10.9568577,0.522243714 C10.9568577,0.290135397 11.1326062,0.101547389 11.3557789,0.101547389 L12.2094145,0.101547389 C12.4297976,0.101547389 12.6083357,0.29303675 12.6083357,0.51934236 L12.6083357,9.24951644 L12.6139151,9.24951644 Z M2.40655361,0.51934236 C2.45676747,0.287234043 2.67715051,0.0986460348 2.90311287,0.0986460348 L3.4694136,0.0986460348 C3.6925863,0.0986460348 3.91575901,0.284332689 3.96597286,0.51934236 L6.36228975,11.4806576 C6.41250361,11.712766 6.27581033,11.901354 6.05263763,11.901354 L5.19900204,11.901354 C4.978619,11.901354 4.76381527,11.7185687 4.71918073,11.483559 L4.31189055,9.3655706 L2.05784626,9.3655706 L1.65055608,11.483559 C1.60592154,11.7156673 1.39390748,11.901354 1.17073478,11.901354 L0.31988885,11.901354 C0.0995058074,11.901354 -0.0399771312,11.7156673 0.0102367267,11.4806576 L2.40655361,0.51934236 Z M3.19602704,3.49903288 L3.16255114,3.49903288 L2.35076044,7.77562863 L4.00502809,7.77562863 L3.19602704,3.49903288 Z" id="Shape"></path>
                </g>
            </g>
        </g>
    </g>
</svg>