<?xml version="1.0" encoding="UTF-8" standalone="no"?>
<svg width="12px" height="10px" viewBox="0 0 12 10" version="1.1" xmlns="http://www.w3.org/2000/svg" xmlns:xlink="http://www.w3.org/1999/xlink">
    <!-- Generator: Sketch 48.2 (47327) - http://www.bohemiancoding.com/sketch -->
    <title>摄像头</title>
    <desc>Created with Sketch.</desc>
    <defs></defs>
    <g id="视频监控九宫格" stroke="none" stroke-width="1" fill="none" fill-rule="evenodd" transform="translate(-1707.000000, -320.000000)">
        <g id="Group-19" transform="translate(1696.000000, 225.000000)" fill="#0EB593" fill-rule="nonzero">
            <g id="Group-25">
                <g id="楼层" transform="translate(0.000000, 56.000000)">
                    <g id="摄像头" transform="translate(11.000000, 39.000000)">
                        <path d="M0.0314784185,1.56083604 C0.0314784185,2.00825946 -0.00987253744,3.94278919 0.0314784185,4.62853093 C0.206505727,4.94587868 0.536862264,5.2171003 0.973528335,5.44557838 C1.05698208,7.97190631 3.27640059,9.9973045 6.00947313,9.9973045 C8.75126696,9.9973045 10.9773016,7.95822222 11.0464705,5.42020901 C11.4789263,5.1961898 11.8080799,4.93296336 11.9870167,4.62853093 L11.9870167,1.56083604 C10.041116,-0.532213811 1.9149768,-0.500233027 0.0314784185,1.56083604 Z M7.86801057,8.27141862 L7.75373157,8.27141862 C7.49630307,8.71715076 6.81228311,9.03834235 6,9.03834234 C5.18771689,9.03834232 4.50354656,8.71715074 4.24626843,8.27141862 L4.13183906,8.27141862 L4.13183906,5.77968528 L4.13183906,5.77907027 C4.13183906,4.72416577 4.96818091,3.86898739 5.99984963,3.86898739 C7.03151835,3.86898739 7.8678602,4.72401201 7.86786021,5.77891651 L7.86786021,8.27141862 L7.86801057,8.27141862 Z M11.0467712,3.55563724 C9.21560059,2.42923724 2.74981499,2.41416938 0.974129815,3.55563724 C0.939094282,3.20307989 0.959243471,2.17415977 0.959243471,1.94414415 C3.21550192,0.612790392 9.32942849,0.710424027 11.0466209,1.97827747 L11.0467712,3.55563724 Z" id="Shape"></path>
                        <path d="M4.85886402,6.40823064 C4.85886402,7.05265705 5.369768,7.57506788 6,7.57506788 C6.630232,7.57506788 7.14113598,7.05265705 7.14113598,6.40823064 C7.14113598,5.76380422 6.630232,5.24139339 6,5.24139339 C5.369768,5.24139339 4.85886402,5.76380422 4.85886402,6.40823064 Z" id="Shape"></path>
                    </g>
                </g>
            </g>
        </g>
    </g>
</svg>