<?xml version="1.0" encoding="UTF-8" standalone="no"?>
<svg width="57px" height="46px" viewBox="0 0 57 46" version="1.1" xmlns="http://www.w3.org/2000/svg" xmlns:xlink="http://www.w3.org/1999/xlink">
    <!-- Generator: Sketch 48.2 (47327) - http://www.bohemiancoding.com/sketch -->
    <title>抓图</title>
    <desc>Created with Sketch.</desc>
    <defs></defs>
    <g id="视频监控九宫格" stroke="none" stroke-width="1" fill="none" fill-rule="evenodd" transform="translate(-742.000000, -986.000000)">
        <g id="Group-20" transform="translate(742.000000, 986.000000)" fill="#00BFA5" fill-rule="nonzero">
            <g id="Group-4-Copy-2">
                <g id="Group-3">
                    <path d="M53.9614757,46 L2.65385053,46 C1.18816555,46 0,44.8119103 0,43.3462253 L0,7.96162745 C0,6.49594247 1.18816555,5.30770106 2.65385053,5.30770106 L13.9882836,5.30770106 L18.2381933,1.05786724 C18.7228088,0.41904894 19.4825154,4.2154408e-15 20.3461115,4.2154408e-15 L36.2692147,0 C37.0145785,0 37.6858766,0.309392001 38.1679878,0.804252315 L38.1703402,0.801899849 L42.6761415,5.30762519 L53.9614756,5.30762519 C55.4271606,5.30762519 56.6153262,6.4958666 56.6153262,7.96155158 L56.6153262,43.3461495 C56.6153262,44.8119103 55.4271607,46 53.9614757,46 Z M28.3076631,8.84624434 C19.5135533,8.84624434 12.3846358,15.9753136 12.3846358,24.7692716 C12.3846358,33.5634574 19.5136292,40.6922989 28.3076631,40.6922989 C37.1016971,40.6922989 44.2306904,33.5633814 44.2306904,24.7692716 C44.2306904,15.9753136 37.1016971,8.84624434 28.3076631,8.84624434 Z M28.3076631,34.2717124 C23.0596853,34.2717124 18.8053741,30.0172495 18.8053741,24.7693475 C18.8053741,19.5214455 23.0596853,15.2670585 28.3076631,15.2670585 C33.555641,15.2670585 37.8099521,19.5213697 37.8099521,24.7693475 C37.8099521,30.0173254 33.555641,34.2717124 28.3076631,34.2717124 Z" id="抓图"></path>
                </g>
            </g>
        </g>
    </g>
</svg>