<?xml version="1.0" encoding="UTF-8" standalone="no"?>
<svg width="56px" height="46px" viewBox="0 0 56 46" version="1.1" xmlns="http://www.w3.org/2000/svg" xmlns:xlink="http://www.w3.org/1999/xlink">
    <!-- Generator: Sketch 48.2 (47327) - http://www.bohemiancoding.com/sketch -->
    <title>抓图</title>
    <desc>Created with Sketch.</desc>
    <defs></defs>
    <g id="抓图灰" stroke="none" stroke-width="1" fill="none" fill-rule="evenodd">
        <path d="M53.374993,45.7500235 L2.62500704,45.7500235 C1.17525192,45.7500235 0,44.5748466 0,43.1250915 L0,8.12507266 C0,6.67531755 1.17525192,5.49999059 2.62500704,5.49999059 L13.8362514,5.49999059 L18.0399707,1.29634628 C18.5193191,0.664471004 19.2707688,0.249976516 20.1249789,0.249976516 L35.8750211,0.249976516 C36.612284,0.249976516 37.2762859,0.556005876 37.7531573,1.04548778 L37.7554842,1.04316088 L42.212314,5.49991555 L53.374993,5.49991555 C54.8247481,5.49991555 56,6.67524251 56,8.12499762 L56,43.1250164 C56.0000001,44.5748466 54.8247482,45.7500235 53.374993,45.7500235 Z M28,9.00007506 C19.3014694,9.00007506 12.2500329,16.0516617 12.2500329,24.7500422 C12.2500329,33.448648 19.3015444,40.5000094 28,40.5000094 C36.6984556,40.5000094 43.7499672,33.4485729 43.7499672,24.7500422 C43.7499672,16.0516617 36.6984556,9.00007506 28,9.00007506 Z M28,34.1492053 C22.8090601,34.1492053 18.6009871,29.9409822 18.6009871,24.7501173 C18.6009871,19.5592523 22.8090601,15.3511043 28,15.3511043 C33.19094,15.3511043 37.399013,19.5591773 37.399013,24.7501173 C37.399013,29.9410572 33.19094,34.1492053 28,34.1492053 Z" id="抓图" fill="#DBDDDC" fill-rule="nonzero"></path>
    </g>
</svg>