<?xml version="1.0" encoding="UTF-8" standalone="no"?>
<svg width="12px" height="12px" viewBox="0 0 12 12" version="1.1" xmlns="http://www.w3.org/2000/svg" xmlns:xlink="http://www.w3.org/1999/xlink">
    <!-- Generator: Sketch 48.2 (47327) - http://www.bohemiancoding.com/sketch -->
    <title>nvr</title>
    <desc>Created with Sketch.</desc>
    <defs></defs>
    <g id="视频监控九宫格" stroke="none" stroke-width="1" fill="none" fill-rule="evenodd" transform="translate(-1707.000000, -239.000000)">
        <g id="Group-19" transform="translate(1696.000000, 225.000000)" fill="#0EB593" fill-rule="nonzero">
            <g id="Group-25">
                <g id="Group-9-Copy-4">
                    <path d="M20.5067961,24.7900541 C20.2353672,24.7737408 20.026769,24.5422806 20.0374337,24.2692504 C20.0480985,23.9962203 20.2741091,23.7819023 20.5459754,23.787018 C20.8178418,23.7921338 21.0357091,24.0148044 21.0361942,24.2880443 C21.0343113,24.4258541 20.9769499,24.5570186 20.8771984,24.6516095 C20.7774469,24.7462004 20.6438157,24.7961475 20.5067961,24.7900541 Z M18.8067573,24.7900541 C18.5353283,24.7737408 18.3267301,24.5422806 18.3373949,24.2692504 C18.3480597,23.9962203 18.5740703,23.7819023 18.8459366,23.787018 C19.1178029,23.7921338 19.3356703,24.0148044 19.3361553,24.2880443 C19.3342725,24.4258541 19.2769111,24.5570186 19.1771596,24.6516095 C19.0774081,24.7462004 18.9437769,24.7961475 18.8067573,24.7900541 Z M12.7447767,23.7935272 L15.727301,23.7935272 L15.727301,24.7900541 L12.7447767,24.7900541 L12.7447767,23.7935272 Z M11.9394951,22.594698 L11.0447379,22.594698 L11.0447379,25.3894687 C11.0464656,25.5558319 11.1160816,25.7141881 11.2373058,25.8275049 C11.3585301,25.9408218 11.5207322,25.9991623 11.6859806,25.9888833 L22.3112233,25.9888833 C22.4753878,25.9949538 22.6352186,25.9351874 22.755499,25.8227529 C22.8757794,25.7103183 22.9466395,25.5544418 22.952466,25.3894687 L22.952466,22.594698 L11.9394951,22.594698 Z M20.529165,16.2034394 C20.2388803,16.2256051 19.9826277,16.0143209 19.9475728,15.7239077 C19.9586902,15.4460028 20.1782379,15.2221398 20.4546019,15.2069126 C20.7336782,15.2009381 20.9720178,15.4080751 21.0063689,15.6864443 C21.0035168,15.9565473 20.796984,16.1803017 20.529165,16.2034394 Z M18.8291262,16.2034394 C18.6355916,16.2108419 18.451088,16.1209492 18.3370097,15.9636736 C18.241121,15.8102081 18.241121,15.6151293 18.3370097,15.4616638 C18.4591466,15.2676543 18.6888493,15.1709318 18.912137,15.2194909 C19.1354247,15.2680501 19.3047753,15.4515562 19.3361553,15.6789516 C19.3446207,15.8178619 19.2944453,15.9539267 19.197944,16.0537508 C19.1014427,16.1535749 18.9675494,16.2079169 18.8291262,16.2034394 Z M12.7447767,15.1994199 L15.727301,15.1994199 L15.727301,16.2034394 L12.7447767,16.2034394 L12.7447767,15.1994199 Z M22.0577087,14.0005907 L11.9544078,14.0005907 C11.4781608,13.9878851 11.0798423,14.3614626 11.0596505,14.8397711 L11.0596505,17.4022687 L22.9897476,17.4022687 L22.9897476,14.8397711 C22.9539885,14.3537968 22.5423337,13.9831549 22.0577087,14.0005907 Z M12.7447767,19.5976248 L15.727301,19.5976248 L15.727301,20.5941516 L12.7447767,20.5941516 L12.7447767,19.5976248 Z M18.7843883,19.5976248 C18.9923557,19.5932868 19.1840998,19.7100622 19.2765049,19.8973321 C19.3626456,20.0807729 19.3203863,20.2991667 19.1721165,20.4368053 C19.0141778,20.5737089 18.7971204,20.6190318 18.5979806,20.5566882 C18.4036987,20.4859911 18.2692106,20.3067782 18.2549903,20.0996346 C18.2743935,19.8192763 18.5047356,19.6008509 18.7843883,19.5976248 Z M20.4844272,19.5976248 C20.7635035,19.5916503 21.001843,19.7987873 21.0361942,20.0771565 C21.0250768,20.3550614 20.8055291,20.5789245 20.529165,20.5941516 C20.2500887,20.6001262 20.0117492,20.3929892 19.9773981,20.1146199 C19.9812799,19.8336191 20.2048769,19.6056271 20.4844272,19.5976248 Z M11.0447379,21.7929809 L22.9300971,21.7929809 L22.9300971,18.3987955 L11,18.3987955 L11.0447379,21.7929809 Z" id="nvr"></path>
                </g>
            </g>
        </g>
    </g>
</svg>