<?xml version="1.0" encoding="UTF-8" standalone="no"?>
<svg width="46px" height="46px" viewBox="0 0 46 46" version="1.1" xmlns="http://www.w3.org/2000/svg" xmlns:xlink="http://www.w3.org/1999/xlink">
    <!-- Generator: Sketch 48.2 (47327) - http://www.bohemiancoding.com/sketch -->
    <title>开始录像</title>
    <desc>Created with Sketch.</desc>
    <defs></defs>
    <g id="视频监控九宫格" stroke="none" stroke-width="1" fill="none" fill-rule="evenodd" transform="translate(-839.000000, -986.000000)">
        <g id="Group-20" transform="translate(742.000000, 986.000000)">
            <g id="Group-4-Copy-3" transform="translate(92.000000, 0.000000)">
                <g id="Group-3">
                    <g id="开始录像" transform="translate(5.000000, 0.000000)">
                        <path d="M38.9156463,3.11596104e-05 L7.06040575,3.11596104e-05 C5.18617604,-0.00554408885 3.38710414,0.737250619 2.06181775,2.06383124 C0.73653135,3.39041186 -0.00553867998,5.19124066 3.11292108e-05,7.06730068 L3.11292108e-05,38.9536498 C0.0115435299,42.848627 3.16921151,46.0000273 7.06040575,46.0000103 L38.9156463,46.0000103 C42.7986855,45.9885277 45.9436608,42.8404811 45.9551322,38.9536498 L45.9551322,7.06730068 C45.960683,5.19486956 45.2214762,3.39722395 43.9007144,2.07124933 C42.5799525,0.745274717 40.7862588,2.29159841e-05 38.9156463,3.11596104e-05 Z" id="Shape" fill="#00BFA5" fill-rule="nonzero"></path>
                        <path d="M16.8,32.6890837 L16.8,13.5199977 C16.8,13.2438553 17.0238576,13.0199977 17.3,13.0199977 C17.3884396,13.0199977 17.4752969,13.0434554 17.5517122,13.087978 L34.0018924,22.6725211 C34.2404903,22.8115379 34.3212167,23.117655 34.1821999,23.3562529 C34.1386908,23.4309286 34.0765681,23.4930513 34.0018924,23.5365604 L17.5517122,33.1211034 C17.3131143,33.2601202 17.0069972,33.1793938 16.8679804,32.9407959 C16.8234577,32.8643806 16.8,32.7775234 16.8,32.6890837 Z" id="Path" fill="#FFFFFF"></path>
                    </g>
                </g>
            </g>
        </g>
    </g>
</svg>