<?xml version="1.0" encoding="UTF-8" standalone="no"?>
<svg width="46px" height="46px" viewBox="0 0 46 46" version="1.1" xmlns="http://www.w3.org/2000/svg" xmlns:xlink="http://www.w3.org/1999/xlink">
    <!-- Generator: Sketch 48.2 (47327) - http://www.bohemiancoding.com/sketch -->
    <title>关闭视频灰</title>
    <desc>Created with Sketch.</desc>
    <defs></defs>
    <g id="Page-1" stroke="none" stroke-width="1" fill="none" fill-rule="evenodd">
        <g id="关闭视频灰">
            <g id="关闭视频">
                <path d="M38.9536148,3.11596035e-05 L7.06729433,3.11596035e-05 C5.191236,-0.00554408761 3.39040881,0.737250454 2.06382938,2.06383078 C0.737249957,3.3904111 -0.00554408386,5.1912395 3.11595824e-05,7.0672991 L3.11595824e-05,38.9536411 C0.0115547925,42.8486174 3.17230359,46.000017 7.06729433,46 L38.9536148,46 C42.8404426,45.9885174 45.9884864,42.8404715 45.9999689,38.9536411 L45.9999689,7.0672991 C46.0055251,5.1948684 45.2655971,3.39722319 43.9435467,2.07124887 C42.6214962,0.745274551 40.8260525,2.2915979e-05 38.9536148,3.11596035e-05 Z" id="Shape" fill="#DBDDDC" fill-rule="nonzero"></path>
                <g id="Group-24" transform="translate(13.000000, 13.000000)" fill="#FFFFFF">
                    <rect id="Rectangle-17" transform="translate(10.302244, 10.499997) rotate(-45.000000) translate(-10.302244, -10.499997) " x="8" y="-1" width="4.60448805" height="22.9999949" rx="2"></rect>
                    <rect id="Rectangle-17" transform="translate(10.302244, 10.499997) rotate(45.000000) translate(-10.302244, -10.499997) " x="8" y="-1" width="4.60448805" height="22.9999949" rx="2"></rect>
                </g>
            </g>
        </g>
    </g>
</svg>