<?xml version="1.0" encoding="UTF-8" standalone="no"?>
<svg width="20px" height="20px" viewBox="0 0 20 20" version="1.1" xmlns="http://www.w3.org/2000/svg" xmlns:xlink="http://www.w3.org/1999/xlink">
    <!-- Generator: Sketch 48.2 (47327) - http://www.bohemiancoding.com/sketch -->
    <title>guanbi</title>
    <desc>Created with Sketch.</desc>
    <defs></defs>
    <g id="项目首页／消防报警弹窗查看状态" stroke="none" stroke-width="1" fill="none" fill-rule="evenodd" transform="translate(-1275.000000, -196.000000)">
        <g id="Group-18" transform="translate(609.000000, 178.000000)" fill="#B8EAFF" fill-rule="nonzero">
            <g id="guanbi" transform="translate(666.000000, 18.000000)">
                <path d="M19.2105473,19.9812935 C19.0074904,19.9811936 18.8127867,19.9004488 18.6692537,19.7568159 L0.230248756,1.31781095 C-0.0686994069,1.01886278 -0.0686994069,0.534172044 0.230248756,0.235223881 C0.529196919,-0.0637242825 1.01388766,-0.0637242825 1.31283582,0.235223881 L19.7534328,18.6758209 C19.969744,18.8957245 20.0333561,19.2237752 19.9149146,19.5085905 C19.7964731,19.7934057 19.5190036,19.9796164 19.2105473,19.9812935" id="Shape"></path>
                <path d="M0.771542289,19.9812935 C0.461174277,19.9827096 0.180778462,19.7962644 0.0620252007,19.5095102 C-0.0567280608,19.222756 0.00975262271,18.8926591 0.230248756,18.6742289 L18.6708458,0.235223881 C18.9734499,-0.0400409205 19.4389691,-0.0288637023 19.7280138,0.26060672 C20.0170585,0.550077143 20.0275506,1.01561222 19.7518408,1.31781095 L1.31283582,19.7568159 C1.16940226,19.9005973 0.974634069,19.9813688 0.771542289,19.9812935" id="Shape"></path>
            </g>
        </g>
    </g>
</svg>