<?xml version="1.0" encoding="UTF-8" standalone="no"?>
<svg width="17px" height="30px" viewBox="0 0 17 30" version="1.1" xmlns="http://www.w3.org/2000/svg" xmlns:xlink="http://www.w3.org/1999/xlink">
    <!-- Generator: Sketch 48.2 (47327) - http://www.bohemiancoding.com/sketch -->
    <title>you</title>
    <desc>Created with Sketch.</desc>
    <defs></defs>
    <g id="停车场车位停车纪录弹窗" stroke="none" stroke-width="1" fill="none" fill-rule="evenodd" transform="translate(-1325.000000, -782.000000)" opacity="0.5">
        <path d="M1319.34532,789.385571 L1319.37153,789.359303 C1319.83196,788.897744 1320.58437,788.897744 1321.04481,789.359303 L1333.76845,802.11409 L1346.50333,789.351798 C1346.97125,788.882734 1347.73489,788.882734 1348.20281,789.351798 C1348.67073,789.820862 1348.67073,790.586374 1348.20281,791.055438 L1334.63691,804.654541 C1334.63691,804.654541 1334.63317,804.658293 1334.63317,804.662046 L1334.60696,804.688314 C1334.14653,805.149872 1333.39412,805.149872 1332.93369,804.688314 L1319.34532,791.066696 C1318.88489,790.601384 1318.88489,789.84713 1319.34532,789.385571 Z" id="you" fill="#FAFBFB" fill-rule="nonzero" transform="translate(1333.776876, 797.017241) scale(-1, 1) rotate(90.000000) translate(-1333.776876, -797.017241) "></path>
    </g>
</svg>