<?xml version="1.0" encoding="UTF-8" standalone="no"?>
<svg width="100px" height="70px" viewBox="0 0 100 70" version="1.1" xmlns="http://www.w3.org/2000/svg" xmlns:xlink="http://www.w3.org/1999/xlink">
    <!-- Generator: Sketch 48.2 (47327) - http://www.bohemiancoding.com/sketch -->
    <title>VIP da</title>
    <desc>Created with Sketch.</desc>
    <defs></defs>
    <g id="项目首页－一楼大厅人脸抓拍-copy" stroke="none" stroke-width="1" fill="none" fill-rule="evenodd" transform="translate(-826.000000, -325.000000)">
        <g id="VIP-da" transform="translate(876.000000, 360.000000) scale(-1, 1) translate(-876.000000, -360.000000) translate(826.000000, 325.000000)">
            <polygon id="Shape" fill="#EFAC00" fill-rule="nonzero" points="100 0 99.6353197 69.8505069 0 0"></polygon>
            <path d="M82.8087265,31.0465848 L86.05464,31.0465848 L93.0896079,10.3684346 L90.2471705,10.3684346 L86.6779589,21.5700692 C85.9020433,23.9960986 85.3459705,25.9720969 84.5157408,28.3981263 L84.3890079,28.3981263 C83.5587782,25.9720969 83.0311556,23.9960986 82.25524,21.5700692 L78.6575782,10.3684346 L75.7168581,10.3684346 L82.8087265,31.0465848 Z" id="Path" fill="#6D4E00"></path>
            <polygon id="Path" fill="#6D4E00" points="69.5582454 31.0236913 72.3722325 31.0236913 72.3722325 10.3455411 69.5582454 10.3455411"></polygon>
            <path d="M63.7913741,31.0336529 L60.9748006,31.0336529 L60.9748006,22.8348116 L57.3073062,22.8348116 C52.4552475,22.8348116 49.1136377,20.7993264 49.1136377,16.4309216 C49.1136377,11.9202658 52.4552475,10.3684346 57.4599029,10.3684346 L63.7965469,10.3684346 L63.7965469,31.0465848 L63.7965469,31.0336529 L63.7913741,31.0336529 Z" id="Path" fill="#6D4E00"></path>
            <path d="M60.983426,20.7206866 L60.983426,12.4830496 L57.7892402,12.4830496 C53.8915576,12.4830496 51.9103864,13.4400121 51.9103865,16.4350462 C51.9103866,19.4300804 53.7674111,20.7284458 57.6625073,20.7284458 L60.983426,20.7284458 L60.983426,20.7206866 Z" id="Path" fill="#EFAC00"></path>
        </g>
    </g>
</svg>