<?xml version="1.0" encoding="UTF-8" standalone="no"?>
<svg width="38px" height="26px" viewBox="0 0 38 26" version="1.1" xmlns="http://www.w3.org/2000/svg" xmlns:xlink="http://www.w3.org/1999/xlink">
    <!-- Generator: Sketch 48.2 (47327) - http://www.bohemiancoding.com/sketch -->
    <title>VIP xiao</title>
    <desc>Created with Sketch.</desc>
    <defs></defs>
    <g id="项目首页－一楼大厅人脸抓拍-copy" stroke="none" stroke-width="1" fill="none" fill-rule="evenodd" transform="translate(-862.000000, -680.000000)">
        <g id="VIP-xiao" transform="translate(881.000000, 693.000000) scale(-1, 1) translate(-881.000000, -693.000000) translate(862.000000, 680.000000)">
            <polygon id="Shape" fill="#EFAC00" fill-rule="nonzero" points="38 0 37.8614215 26 0 0"></polygon>
            <path d="M31.4673161,11.7977022 L32.7007632,11.7977022 L35.374051,3.94000516 L34.2939248,3.94000516 L32.9376244,8.1966263 C32.6427764,9.11851747 32.4314688,9.86939684 32.1159815,10.791288 L32.067823,10.791288 C31.7523357,9.86939684 31.5518391,9.11851747 31.2569912,8.1966263 L29.8898797,3.94000516 L28.7724061,3.94000516 L31.4673161,11.7977022 Z" id="Path" fill="#6D4E00"></path>
            <polygon id="Path" fill="#6D4E00" points="26.4321332 11.7890027 27.5014484 11.7890027 27.5014484 3.9313056 26.4321332 3.9313056"></polygon>
            <path d="M24.2407222,11.7927881 L23.1704242,11.7927881 L23.1704242,8.67722842 L21.7767764,8.67722842 C19.932994,8.67722842 18.6631823,7.90374405 18.6631823,6.24375023 C18.6631823,4.52970099 19.932994,3.94000513 21.8347631,3.94000516 L24.2426878,3.94000516 L24.2426878,11.7977022 L24.2426878,11.7927881 L24.2407222,11.7927881 Z" id="Path" fill="#6D4E00"></path>
            <path d="M23.1737019,7.87386092 L23.1737019,4.74355884 L21.9599113,4.74355884 C20.4787919,4.74355884 19.7259468,5.1072046 19.7259469,6.24531757 C19.7259469,7.38343055 20.4316162,7.8768094 21.9117528,7.8768094 L23.1737019,7.8768094 L23.1737019,7.87386092 Z" id="Path" fill="#EFAC00"></path>
        </g>
    </g>
</svg>