<?xml version="1.0" encoding="UTF-8" standalone="no"?>
<svg width="19px" height="20px" viewBox="0 0 19 20" version="1.1" xmlns="http://www.w3.org/2000/svg" xmlns:xlink="http://www.w3.org/1999/xlink">
    <!-- Generator: Sketch 46 (44423) - http://www.bohemiancoding.com/sketch -->
    <title>lengqueta</title>
    <desc>Created with Sketch.</desc>
    <defs></defs>
    <g id="Page-1" stroke="none" stroke-width="1" fill="none" fill-rule="evenodd">
        <g id="供配电／概要信息监测-／弹窗-copy-2" transform="translate(-520.000000, -404.000000)" fill="#FFFFFF">
            <g id="right" transform="translate(241.000000, 140.000000)">
                <g id="Group-8" transform="translate(83.000000, 48.000000)">
                    <g id="冷冻-copy-17" transform="translate(190.000000, 211.000000)">
                        <path d="M21.8642029,25 L18.9313389,25 C18.8084089,25 18.7087866,24.9003379 18.7087866,24.7774161 L18.7087866,23.0445219 L11.3331685,23.0445219 L11.3331685,24.7774161 C11.3331685,24.9003379 11.2335205,25 11.1106162,25 L8.17767517,25 C8.05474521,25 7.95512291,24.9003379 7.95512291,24.7774161 L7.95512291,23.0445219 L6.22255226,23.0445219 C6.0996223,23.0445219 6,22.9448598 6,22.821938 L6,8.15571119 C6,8.03278941 6.0996223,7.93312727 6.22255226,7.93312727 L9.91032283,7.93312727 L9.91032283,5.22258392 C9.91032283,5.16353629 9.93375884,5.10692757 9.97549702,5.06518346 C10.0172352,5.02343935 10.0738359,5 10.1328751,5 L19.909003,5 C20.0319073,5 20.1315553,5.09966214 20.1315553,5.22258392 L20.1315553,7.93320428 L23.8194029,7.93320428 C23.9423072,7.93320428 24.0419551,8.03286643 24.0419551,8.15578821 L24.0419551,22.821938 C24.0419551,22.9448598 23.9423072,23.0445219 23.8194029,23.0445219 L22.0867552,23.0445219 L22.0867552,24.7774161 C22.0867552,24.9003379 21.9871072,25 21.8642029,25 Z M8.93990148,11.616673 L8.93990148,11.616673 C8.75580657,11.616673 8.60656815,11.7659114 8.60656815,11.9500063 L8.60656815,12.6200413 C8.60656815,12.8041362 8.75580657,12.9533746 8.93990148,12.9533746 L21.1055703,12.9533746 C21.2896652,12.9533746 21.4389037,12.8041362 21.4389037,12.6200413 L21.4389037,11.9500063 C21.4389037,11.7659114 21.2896652,11.616673 21.1055703,11.616673 L8.93990148,11.616673 Z M8.93990148,13.7553956 L8.93990148,13.7553956 C8.75580657,13.7553956 8.60656815,13.904634 8.60656815,14.0887289 L8.60656815,14.7587639 C8.60656815,14.9428588 8.75580657,15.0920972 8.93990148,15.0920972 L21.1055703,15.0920972 C21.2896652,15.0920972 21.4389037,14.9428588 21.4389037,14.7587639 L21.4389037,14.0887289 C21.4389037,13.904634 21.2896652,13.7553956 21.1055703,13.7553956 L8.93990148,13.7553956 Z M8.93990148,15.8941182 L8.93990148,15.8941182 C8.75580657,15.8941182 8.60656815,16.0433566 8.60656815,16.2274515 L8.60656815,16.8974865 C8.60656815,17.0815814 8.75580657,17.2308198 8.93990148,17.2308198 L21.1055703,17.2308198 C21.2896652,17.2308198 21.4389037,17.0815814 21.4389037,16.8974865 L21.4389037,16.2274515 C21.4389037,16.0433566 21.2896652,15.8941182 21.1055703,15.8941182 L8.93990148,15.8941182 Z M8.93990148,17.9660057 L8.93990148,17.9660057 C8.75580657,17.9660057 8.60656815,18.1152441 8.60656815,18.299339 L8.60656815,18.969374 C8.60656815,19.1534689 8.75580657,19.3027073 8.93990148,19.3027073 L21.1055703,19.3027073 C21.2896652,19.3027073 21.4389037,19.1534689 21.4389037,18.969374 L21.4389037,18.299339 C21.4389037,18.1152441 21.2896652,17.9660057 21.1055703,17.9660057 L8.93990148,17.9660057 Z M8.93990148,20.0378932 L8.93990148,20.0378932 C8.75580657,20.0378932 8.60656815,20.1871316 8.60656815,20.3712265 L8.60656815,21.0412615 C8.60656815,21.2253564 8.75580657,21.3745948 8.93990148,21.3745948 L21.1055703,21.3745948 C21.2896652,21.3745948 21.4389037,21.2253564 21.4389037,21.0412615 L21.4389037,20.3712265 C21.4389037,20.1871316 21.2896652,20.0378932 21.1055703,20.0378932 L8.93990148,20.0378932 Z" id="lengqueta"></path>
                    </g>
                </g>
            </g>
        </g>
    </g>
</svg>