<?xml version="1.0" encoding="UTF-8" standalone="no"?>
<svg width="19px" height="18px" viewBox="0 0 19 18" version="1.1" xmlns="http://www.w3.org/2000/svg" xmlns:xlink="http://www.w3.org/1999/xlink">
    <!-- Generator: Sketch 46 (44423) - http://www.bohemiancoding.com/sketch -->
    <title>lengdongbeng</title>
    <desc>Created with Sketch.</desc>
    <defs></defs>
    <g id="Page-1" stroke="none" stroke-width="1" fill="none" fill-rule="evenodd">
        <g id="供配电／概要信息监测-／弹窗-copy-2" transform="translate(-928.000000, -194.000000)" fill="#FFFFFF">
            <g id="right" transform="translate(241.000000, 140.000000)">
                <g id="Group-8" transform="translate(83.000000, 48.000000)">
                    <g id="冷冻" transform="translate(598.000000, 0.000000)">
                        <g id="lengdongbeng" transform="translate(6.000000, 6.000000)">
                            <polygon id="Rectangle-3" points="2.80600897 12.9835062 12.3617457 12.8006661 15.5575654 17.4425768 0 17.4643002"></polygon>
                            <path d="M16.9030476,6.52208245 L15.1476061,6.52208245 C15.2208833,6.94719902 15.2590828,7.38447822 15.2590828,7.83076745 C15.2590828,12.0162782 11.8992185,15.409305 7.75461584,15.409305 C3.61001319,15.409305 0.250148898,12.0162782 0.250148898,7.83076745 C0.250148898,3.64525672 3.61001319,0.252229873 7.75461584,0.252229873 C8.50143539,0.252229873 9.22277546,0.362397208 9.9035701,0.567517215 L16.8928451,0.567517215 C16.9421928,0.246129761 17.2198992,6.15739757e-17 17.5550923,0 C17.9251461,-6.79777817e-17 18.225134,0.299987884 18.225134,0.670041691 L18.225134,6.36717177 C18.225134,6.73722558 17.9251461,7.03721346 17.5550923,7.03721346 L17.5550923,7.03721346 C17.2383594,7.03721346 16.9729555,6.81744749 16.9030476,6.52208245 Z M6.27303897,7.36484315 C5.54651758,8.02510664 4.99808946,9.14341546 4.62775462,10.7197696 C6.83543309,10.6438132 8.25708851,10.3679775 8.89272089,9.89226268 C9.84616946,9.17869039 9.27814474,7.8902704 9.68916504,6.8753613 C9.93577723,6.26641584 10.2823627,5.69418955 10.7289214,5.15868241 L10.608698,5.0584282 C10.5823884,5.08997826 10.5487,5.11454859 10.5106201,5.12996035 C8.37307777,5.99507072 6.96055073,6.74003166 6.27303897,7.36484315 Z" id="Combined-Shape"></path>
                        </g>
                    </g>
                </g>
            </g>
        </g>
    </g>
</svg>