<?xml version="1.0" encoding="UTF-8" standalone="no"?>
<svg width="13px" height="20px" viewBox="0 0 13 20" version="1.1" xmlns="http://www.w3.org/2000/svg" xmlns:xlink="http://www.w3.org/1999/xlink">
    <!-- Generator: Sketch 46 (44423) - http://www.bohemiancoding.com/sketch -->
    <title>lengyuanzhuji</title>
    <desc>Created with Sketch.</desc>
    <defs></defs>
    <g id="Page-1" stroke="none" stroke-width="1" fill="none" fill-rule="evenodd">
        <g id="供配电／概要信息监测-／弹窗-copy-2" transform="translate(-889.000000, -270.000000)" fill="#FFFFFF">
            <g id="right" transform="translate(241.000000, 140.000000)">
                <g id="Group-8" transform="translate(83.000000, 48.000000)">
                    <g id="冷冻-copy-6" transform="translate(556.000000, 77.000000)">
                        <path d="M19.6246143,5 C20.6035664,5 21.4000303,5.8397522 21.4000303,6.87194824 L21.4000303,23.1282349 C21.4000303,24.1604004 20.6035967,25 19.6246143,25 L10.7754766,25 C9.79649414,25 9,24.1604004 9,23.1282349 L9,6.87194824 C9,5.8397522 9.79646387,5 10.7754766,5 L19.6246143,5 Z M10.5877486,7.26888021 C10.4036537,7.26888021 10.2544153,7.41811863 10.2544153,7.60221354 L10.2544153,8.27018229 C10.2544153,8.45427721 10.4036537,8.60351563 10.5877486,8.60351563 L19.8243607,8.60351563 C20.0084556,8.60351563 20.1576941,8.45427721 20.1576941,8.27018229 L20.1576941,7.60221354 C20.1576941,7.41811863 20.0084556,7.26888021 19.8243607,7.26888021 L10.5877486,7.26888021 Z M10.5877486,9.40429688 C10.4036537,9.40429688 10.2544153,9.55353529 10.2544153,9.73763021 L10.2544153,10.405599 C10.2544153,10.5896939 10.4036537,10.7389323 10.5877486,10.7389323 L19.8243607,10.7389323 C20.0084556,10.7389323 20.1576941,10.5896939 20.1576941,10.405599 L20.1576941,9.73763021 C20.1576941,9.55353529 20.0084556,9.40429688 19.8243607,9.40429688 L10.5877486,9.40429688 Z" id="lengyuanzhuji"></path>
                    </g>
                </g>
            </g>
        </g>
    </g>
</svg>