<?xml version="1.0" encoding="UTF-8" standalone="no"?>
<svg width="30px" height="30px" viewBox="0 0 30 30" version="1.1" xmlns="http://www.w3.org/2000/svg" xmlns:xlink="http://www.w3.org/1999/xlink">
    <!-- Generator: Sketch 50.2 (55047) - http://www.bohemiancoding.com/sketch -->
    <title>门禁系统</title>
    <desc>Created with Sketch.</desc>
    <defs></defs>
    <g id="门禁系统" stroke="none" stroke-width="1" fill="none" fill-rule="evenodd">
        <g id="门禁" transform="translate(3.000000, 0.000000)" fill="#FFFFFF" fill-rule="nonzero">
            <path d="M15.2494789,21.9881713 C13.518794,21.9881713 12.1157698,21.1861298 12.1157698,20.1967552 L12.1157698,13.0309652 C12.1157698,12.0415906 13.518794,11.2395491 15.2494789,11.2395491 L18.3794275,11.2395491 L18.3794275,8.61513038 L19.0550552,8.61513038 L19.0550552,11.2395491 L21.033115,11.2395491 L21.033115,0 L0.00210386719,0 L0.00210386719,29.9635863 L21.033115,30 L21.033115,21.9881713 L15.2494789,21.9881713 Z M11.5412355,8.87290931 C10.5875225,8.87284664 9.81167883,9.59228355 9.8116788,10.4769923 C9.8116788,10.9752521 9.37584255,11.3793125 8.83853678,11.3793125 C8.30116834,11.3793125 7.86545742,10.9752521 7.86545745,10.4769923 C7.86545745,8.59726825 9.51441519,7.06795553 11.5412982,7.06795553 C12.0786667,7.06795553 12.5143149,7.47214134 12.5143149,7.97046375 C12.5143149,8.46884886 12.0786667,8.87290931 11.5412355,8.87290931 Z M6.66242651,10.3139141 C6.66242651,10.8122365 6.22690362,11.2162343 5.68947252,11.2162343 C5.15204142,11.2162343 4.71639316,10.8122992 4.71639316,10.3137887 C4.7162678,8.66658589 5.4079401,7.11796951 6.6639307,5.95310719 C7.91973328,4.78855822 9.58931083,4.147276 11.3649957,4.14727597 L11.3659358,4.14727597 C11.9032416,4.14740133 12.3390152,4.55139908 12.3387645,5.04972152 C12.3387645,5.54810663 11.9030536,5.95204172 11.3657478,5.95204172 L11.3649957,5.95204172 C10.1090051,5.95204172 8.92828623,6.40567746 8.03994237,7.22952958 C7.15159852,8.0533817 6.66242651,9.14873839 6.66242651,10.3139141 Z M19.0551805,28.0188064 L1.97985035,27.9892242 L1.97985035,1.97787185 L19.0551805,1.97787185 L19.0551179,5.53858014 L18.3794902,5.53858014 L18.3794902,2.63770562 L2.6557914,2.63770562 L2.6557914,27.3606648 L18.3795529,27.3606648 L18.3795529,24.4599157 L19.0551805,24.4599157 L19.0551805,28.0188064 Z M5.90814272,14.9991852 C5.90814272,15.5725286 5.44322563,16.0374457 4.86975688,16.0374457 C4.29628811,16.0374457 3.83137104,15.5725286 3.83137104,14.9991852 C3.83137104,14.4257164 4.29628813,13.9607994 4.86975688,13.9607994 C5.44322566,13.9607994 5.90814272,14.4257165 5.90814272,14.9991852 Z" id="Shape"></path>
            <path d="M14.158196,20.5679116 L23.673641,20.5679116 C24.2468591,20.5679116 24.7132804,20.0333009 24.7132804,19.3759114 L24.7132804,16.0168259 L13.1185567,16.0168259 L13.1185567,19.3759114 C13.1185567,20.0332382 13.5847899,20.5679116 14.158196,20.5679116 Z M13.1185567,13.779671 L13.1185567,14.7844635 L24.7134057,14.7844635 L24.7134057,13.779671 C24.7134057,13.1224069 24.2470471,12.5876081 23.6737664,12.5876081 L14.158196,12.5876081 C13.5847899,12.5876707 13.1185567,13.1224069 13.1185567,13.779671 Z" id="Shape"></path>
        </g>
    </g>
</svg>