<?xml version="1.0" encoding="UTF-8" standalone="no"?>
<svg width="30px" height="30px" viewBox="0 0 30 30" version="1.1" xmlns="http://www.w3.org/2000/svg" xmlns:xlink="http://www.w3.org/1999/xlink">
    <!-- Generator: Sketch 50.2 (55047) - http://www.bohemiancoding.com/sketch -->
    <title>设备报警工单</title>
    <desc>Created with Sketch.</desc>
    <defs></defs>
    <g id="设备报警工单" stroke="none" stroke-width="1" fill="none" fill-rule="evenodd">
        <g id="报警主机" transform="translate(1.000000, 0.000000)" fill="#FFFFFF" fill-rule="nonzero">
            <path d="M20.625,0 L1.875,0 C0.839466094,-6.34081642e-17 2.08166817e-16,0.839466094 0,1.875 L0,26.25 C2.08166817e-16,27.2855339 0.839466094,28.125 1.875,28.125 L11.25,28.125 L11.25,24.375 L13.125,24.375 L13.125,20.625 C13.1325122,18.3096209 14.2090291,16.1275132 16.0418081,14.7126077 C17.8745872,13.2977022 20.2581352,12.80864 22.5,13.3875 L22.5,1.875 C22.5,0.839466094 21.6605339,6.34081642e-17 20.625,0 Z M5.625,15 L3.75,15 L3.75,13.125 L5.625,13.125 L5.625,15 Z M9.375,15 L7.5,15 L7.5,13.125 L9.375,13.125 L9.375,15 Z M18.75,11.25 L3.75,11.25 L3.75,9.375 L18.75,9.375 L18.75,11.25 Z M18.75,7.5 L3.75,7.5 L3.75,3.75 L18.75,3.75 L18.75,7.5 Z" id="Shape"></path>
            <path d="M20.625,15 C17.5183983,15 15,17.5183983 15,20.625 L15,26.25 L26.25,26.25 L26.25,20.625 C26.25,17.5183983 23.7316017,15 20.625,15 Z M16.875,22.5 L18.75,22.5 L18.75,18.75 L16.875,18.75 L16.875,22.5 Z M13.125,30 L28.125,30 L28.125,28.125 L13.125,28.125 L13.125,30 Z" id="Shape"></path>
        </g>
    </g>
</svg>