<?xml version="1.0" encoding="UTF-8" standalone="no"?>
<svg width="30px" height="30px" viewBox="0 0 30 30" version="1.1" xmlns="http://www.w3.org/2000/svg" xmlns:xlink="http://www.w3.org/1999/xlink">
    <!-- Generator: Sketch 46 (44423) - http://www.bohemiancoding.com/sketch -->
    <title>baojingshijian</title>
    <desc>Created with Sketch.</desc>
    <defs></defs>
    <g id="Page-1" stroke="none" stroke-width="1" fill="none" fill-rule="evenodd">
        <g id="baojingshijian" fill-rule="nonzero" fill="#FFFFFF">
            <g id="报警-(2)">
                <path d="M15,29.31 C14.15625,29.31 13.44,29.0175 12.85125,28.42875 C12.2625,27.84 11.97,27.15 11.97,26.35125 L17.955,26.35125 C17.955,27.195 17.67375,27.9 17.1075,28.4625 C16.54875,29.025 15.84375,29.31 15,29.31 L15,29.31 Z M24.015,12.8325 L24.015,20.29875 L27.045,23.32875 L27.045,24.80625 L2.95875,24.80625 L2.95875,23.325 L5.98875,20.295 L5.98875,12.8325 C5.98875,10.485 6.58875,8.44125 7.785,6.705 C8.98125,4.96875 10.635,3.84 12.75,3.32625 L12.75,2.26875 C12.75,1.6575 12.96,1.12875 13.38375,0.6825 C13.8075,0.23625 14.3475,0.01125 15.00375,0.015 C15.66,0.015 16.2,0.24 16.62375,0.6825 C17.0475,1.12875 17.2575,1.65375 17.2575,2.26875 L17.2575,3.32625 C19.36875,3.84375 21.02625,4.96875 22.2225,6.705 C23.41875,8.44125 24.01875,10.485 24.015,12.8325 Z M26.97375,12.05625 C26.74125,8.0175 24.97875,4.80375 21.69,2.4075 L23.80125,0.29625 C27.70125,3.3 29.7675,7.2225 30,12.05625 L26.97375,12.05625 L26.97375,12.05625 Z M8.38125,2.4075 C5.0475,4.755 3.2625,7.9725 3.03,12.05625 L0,12.05625 C0.2325,7.2225 2.29875,3.3 6.19875,0.29625 L8.38125,2.4075 Z" id="Shape"></path>
            </g>
        </g>
    </g>
</svg>