<?xml version="1.0" encoding="UTF-8" standalone="no"?>
<svg width="20px" height="20px" viewBox="0 0 20 20" version="1.1" xmlns="http://www.w3.org/2000/svg" xmlns:xlink="http://www.w3.org/1999/xlink">
    <!-- Generator: Sketch 46 (44423) - http://www.bohemiancoding.com/sketch -->
    <title>baojing</title>
    <desc>Created with Sketch.</desc>
    <defs></defs>
    <g id="Page-1" stroke="none" stroke-width="1" fill="none" fill-rule="evenodd">
        <g id="baojing" fill="#FFFFFF">
            <g id="报警管理">
                <path d="M18.1021616,16.3723523 L16.6127525,14.367893 C16.5525518,14.2876254 16.519107,14.187291 16.519107,14.0869565 L16.519107,7.76365663 C16.519107,4.68004459 14.3830981,2.10033445 11.5246811,1.44704571 L11.5246811,1.42697882 C11.5246811,0.639910814 10.8847703,0 10.0977023,0 C9.31063431,0 8.6707235,0.639910814 8.6707235,1.42697882 L8.6707235,1.44704571 C5.8100769,2.1025641 3.67629763,4.68004459 3.67629763,7.76365663 L3.67629763,14.0869565 C3.67629763,14.187291 3.64285282,14.2876254 3.58265215,14.367893 L2.09324301,16.3723523 C1.8635886,16.6822742 2.08432439,17.1237458 2.4700546,17.1237458 L17.72535,17.1237458 C18.1110802,17.1237458 18.3340457,16.6845039 18.1021616,16.3723523 L18.1021616,16.3723523 Z M8.75099106,6.18283166 C8.25154847,6.96989967 7.95946374,7.90412486 7.95946374,8.90746934 L7.95946374,13.7190635 C7.95946374,14.0245262 7.7119721,14.2720178 7.40650945,14.2720178 L7.08543922,14.2720178 C6.77997656,14.2720178 6.53248492,14.0245262 6.53248492,13.7190635 L6.53248492,8.90523969 C6.53248492,7.61426979 6.90706686,6.41471572 7.55143699,5.40691193 C7.69636452,5.18171683 7.99736787,5.11705686 8.22479262,5.25975474 C8.35634223,5.34225195 8.48343253,5.42697882 8.61275248,5.51393534 C8.83125861,5.66332219 8.89368894,5.95986622 8.75099106,6.18283166 L8.75099106,6.18283166 Z M7.33961982,17.8372352 C7.65623074,19.0680045 8.77105795,19.9777035 10.099932,19.9777035 C11.428806,19.9777035 12.5436332,19.0680045 12.8602441,17.8372352 L7.33961982,17.8372352 L7.33961982,17.8372352 Z" id="Shape"></path>
            </g>
        </g>
    </g>
</svg>