<?xml version="1.0" encoding="UTF-8" standalone="no"?>
<svg width="30px" height="30px" viewBox="0 0 30 30" version="1.1" xmlns="http://www.w3.org/2000/svg" xmlns:xlink="http://www.w3.org/1999/xlink">
    <!-- Generator: Sketch 46 (44423) - http://www.bohemiancoding.com/sketch -->
    <title>baojingguanli</title>
    <desc>Created with Sketch.</desc>
    <defs></defs>
    <g id="Page-1" stroke="none" stroke-width="1" fill="none" fill-rule="evenodd">
        <g id="baojingguanli" fill-rule="nonzero" fill="#FFFFFF">
            <g id="管理-(1)" transform="translate(0.000000, 1.000000)">
                <path d="M3.11896552,3.92353448 C3.5162069,3.43801724 3.91344828,2.98560345 4.31068966,2.5662931 C4.61965517,2.19112069 4.94517241,1.83801724 5.28724138,1.50698276 C5.62931034,1.17594828 5.88862069,0.933189655 6.06517241,0.778706897 C6.30793103,0.580086207 6.56724138,0.403534483 6.84310345,0.249051724 C7.11896552,0.0945689655 7.48862069,0.0173275862 7.95206897,0.0173275862 L22.2527586,0.0173275862 C22.5396552,0.0173275862 22.8706897,0.0780172414 23.2458621,0.199396552 C23.6210345,0.320775862 23.9851724,0.569051724 24.3382759,0.944224138 C24.5148276,1.16491379 24.7465517,1.44077586 25.0334483,1.77181034 C25.3203448,2.10284483 25.5962069,2.42284483 25.8610345,2.73181034 C26.17,3.10698276 26.4789655,3.50422414 26.787931,3.92353448 L3.11896552,3.92353448 L3.11896552,3.92353448 Z M29.9989655,13.8214655 C29.9989655,14.5276724 29.7672414,15.1235345 29.3037931,15.6090517 C28.8403448,16.094569 28.1782759,16.3373276 27.3175862,16.3373276 L2.85413793,16.3373276 C2.01551724,16.3373276 1.34793103,16.094569 0.85137931,15.6090517 C0.354827586,15.1235345 0.106551724,14.5276724 0.106551724,13.8214655 L0.106551724,9.08767241 C0.106551724,8.38146552 0.327241379,7.77456897 0.76862069,7.26698276 C1.21,6.75939655 1.92724138,6.50560345 2.92034483,6.50560345 L27.2844828,6.50560345 C28.2996552,6.50560345 29.0058621,6.75939655 29.4031034,7.26698276 C29.8003448,7.77456897 29.9989655,8.38146552 29.9989655,9.08767241 L29.9989655,13.8214655 L29.9989655,13.8214655 Z M17.5189655,11.4380172 C17.5189655,11.1511207 17.4472414,10.9469828 17.3037931,10.8256034 C17.1603448,10.7042241 16.9672414,10.6435345 16.7244828,10.6435345 L13.3810345,10.6435345 C13.1382759,10.6435345 12.9396552,10.7207759 12.7851724,10.8752586 C12.6306897,11.0297414 12.5534483,11.2173276 12.5534483,11.4380172 C12.5755172,11.7249138 12.6582759,11.934569 12.8017241,12.0669828 C12.9451724,12.1993966 13.1382759,12.2656034 13.3810345,12.2656034 L16.7244828,12.2656034 C17.232069,12.2656034 17.4968966,11.9897414 17.5189655,11.4380172 L17.5189655,11.4380172 Z M29.8996552,25.8049138 C29.8996552,26.5111207 29.6293103,27.1180172 29.0886207,27.6256034 C28.547931,28.1331897 27.8582759,28.3759483 27.0196552,28.3538793 L2.75482759,28.3538793 C2.04862069,28.3538793 1.41413793,28.1056034 0.85137931,27.6090517 C0.28862069,27.1125 0.00724137931,26.4228448 0.00724137931,25.5400862 L0.00724137931,21.1042241 C0.00724137931,20.3759483 0.233448276,19.7635345 0.685862069,19.2669828 C1.13827586,18.770431 1.86103448,18.5221552 2.85413793,18.5221552 L27.152069,18.5221552 C28.0789655,18.5221552 28.7686207,18.770431 29.2210345,19.2669828 C29.6734483,19.7635345 29.8996552,20.3649138 29.8996552,21.0711207 L29.8996552,25.8049138 L29.8996552,25.8049138 Z M17.4196552,23.454569 C17.4196552,23.2338793 17.347931,23.0462931 17.2044828,22.8918103 C17.0610345,22.7373276 16.867931,22.6600862 16.6251724,22.6600862 L13.2817241,22.6600862 C13.0389655,22.6600862 12.8403448,22.7373276 12.6858621,22.8918103 C12.5313793,23.0462931 12.4541379,23.2338793 12.4541379,23.454569 C12.4541379,23.6752586 12.5313793,23.8628448 12.6858621,24.0173276 C12.8403448,24.1718103 13.0389655,24.2490517 13.2817241,24.2490517 L16.6251724,24.2490517 C16.867931,24.2490517 17.0610345,24.1718103 17.2044828,24.0173276 C17.347931,23.8628448 17.4196552,23.6752586 17.4196552,23.454569 Z" id="Shape"></path>
            </g>
        </g>
    </g>
</svg>