<?xml version="1.0" encoding="UTF-8" standalone="no"?>
<svg width="20px" height="20px" viewBox="0 0 20 20" version="1.1" xmlns="http://www.w3.org/2000/svg" xmlns:xlink="http://www.w3.org/1999/xlink">
    <!-- Generator: Sketch 46 (44423) - http://www.bohemiancoding.com/sketch -->
    <title>baojingxitong</title>
    <desc>Created with Sketch.</desc>
    <defs></defs>
    <g id="Page-1" stroke="none" stroke-width="1" fill="none" fill-rule="evenodd">
        <g id="设施设备管理系统框架设计--copy-4" transform="translate(-1170.000000, -330.000000)" fill-rule="nonzero">
            <g id="Group-11" transform="translate(240.000000, 100.000000)">
                <g id="Group-35-Copy" transform="translate(930.000000, 142.000000)">
                    <g id="Group-6" transform="translate(0.000000, 88.000000)">
                        <g id="Group-3-Copy-6">
                            <g id="Group-45">
                                <g id="baojingxitong">
                                    <path d="M7.71366594,1.69249458 L7.94689805,1.62585683 L8.32451193,1.53700651 L8.32451193,1.25934924 L7.71366594,1.69249458 Z M1.68295011,11.8991757 L1.41639913,11.9658134 L2.01613883,12.9320607 C1.8831773,12.5952182 1.7718874,12.2502196 1.68295011,11.8991757 L1.68295011,11.8991757 Z" id="Shape" fill="#000000"></path>
                                    <path d="M18.4423427,11.7436876 C18.4423427,11.910282 18.3645987,12.0768764 18.3201735,12.254577 C18.2757484,12.4322777 18.1980043,12.6099783 18.1424729,12.7765727 L18.72,11.7992191 L18.4423427,11.7436876 Z" id="Shape" fill="#000000"></path>
                                    <path d="M3.82646421,15.8752278 C3.41118977,15.4624706 3.03905784,15.0084697 2.71583514,14.5202603 C2.41429591,14.0176148 2.164958,13.4854458 1.97171367,12.9320607 C1.84251802,12.5949581 1.73493914,12.2499638 1.64963124,11.8991757 L1.38308026,11.9658134 L1.11652928,12.0324512 C1.53934016,13.8113002 2.48282508,15.4237314 3.82646421,16.6637744 L4.23739696,17.030282 L4.59279826,16.6637744 L4.20407809,16.3194794 C4.0708026,16.152885 3.94863341,16.0085033 3.82646421,15.8752278 L3.82646421,15.8752278 Z M2.63809111,5.67965293 C3.73868187,3.73390087 5.56264625,2.30107108 7.71366594,1.69249458 L7.94689805,1.62585683 L8.32451193,1.53700651 L8.32451193,0.981691974 L7.85804772,1.11496746 C6.65239194,1.40469454 5.51860042,1.93757655 4.52616052,2.68095445 C3.35632715,3.55693932 2.41212002,4.69912538 1.77180043,6.01284165 L2.27158351,6.25718004 C2.41596529,6.03505423 2.5270282,5.85735358 2.63809111,5.67965293 L2.63809111,5.67965293 Z" id="Shape" fill="#000000"></path>
                                    <path d="M10.0015618,0.00433839479 C4.48111035,0.00433839479 0.00590021692,4.47954853 0.00590021692,10 C0.00590021692,15.5204515 4.48111035,19.9956616 10.0015618,19.9956616 C15.5220133,19.9956616 19.9972234,15.5204515 19.9972234,10 C19.9972234,4.47954853 15.5220133,0.00433839479 10.0015618,0.00433839479 Z M5.05926247,3.3362256 C5.94370096,2.69189477 6.94820423,2.23118274 8.01353579,1.98125813 L8.36893709,1.9035141 L8.36893709,2.39219089 L8.03574837,2.46993492 L7.82472885,2.53657267 C5.89650684,3.08514983 4.26110738,4.36953673 3.27114967,6.11279826 C3.17119306,6.27939262 3.07123644,6.43488069 2.99349241,6.61258134 L2.53813449,6.39045553 C3.11925739,5.18354564 3.98434573,4.13553112 5.05926247,3.3362256 L5.05926247,3.3362256 Z M4.75939262,16.341692 L4.38177874,16.0196095 C3.17787927,14.8917611 2.33859862,13.4297884 1.97171367,11.8214317 L2.46039046,11.8214317 C2.53665358,12.138247 2.63310504,12.4498594 2.74915401,12.7543601 C2.92628268,13.2499378 3.1532748,13.7262492 3.42663774,14.1759653 C3.70935332,14.5754113 4.02915285,14.9472712 4.38177874,15.2865944 C4.49284165,15.4087636 4.60390456,15.542039 4.72607375,15.653102 L5.08147505,15.9640781 L4.75939262,16.341692 Z M9.37960954,16.5860304 C8.11599603,16.4681454 6.91488423,15.9815214 5.92555315,15.1866377 L9.37960954,15.1866377 L9.37960954,16.5860304 Z M9.37960954,14.3647722 L5.12590022,14.3647722 C4.71651615,13.897379 4.37617108,13.3737712 4.11522777,12.8098915 L9.37960954,12.8098915 L9.37960954,14.3647722 Z M9.37960954,12.0768764 L3.82646421,12.0768764 C3.66326784,11.5728037 3.56255827,11.050606 3.52659436,10.5219957 L9.37960954,10.5219957 L9.37960954,12.0768764 Z M11.8118872,1.93683297 C14.2049894,2.4690802 16.2388522,4.0351546 17.3650325,6.21275488 L17.5205206,6.5459436 L17.0651627,6.75696312 L16.9096746,6.44598698 L16.7986117,6.25718004 C15.8322941,4.47753581 14.1981446,3.15503345 12.2561388,2.58099783 C12.0673319,2.52546638 11.8896312,2.45882863 11.7008243,2.42550976 L11.8118872,1.93683297 Z M10.6235141,10.533102 L16.4876356,10.533102 C16.4515606,11.0616978 16.3508536,11.5838821 16.1877657,12.0879826 L10.6346204,12.0879826 L10.6235141,10.533102 Z M10.6235141,16.5416052 L10.6235141,15.1866377 L14.0775705,15.1866377 C13.0882394,15.9815214 11.8871276,16.4681454 10.6235141,16.5860304 L10.6235141,16.5416052 Z M10.6235141,14.3203471 L10.6235141,12.7654664 L15.8990022,12.7654664 C15.6380589,13.3293461 15.2977138,13.8529539 14.8883297,14.3203471 L10.6235141,14.3203471 Z M17.0651627,14.087115 C16.6059582,14.8701022 16.0205484,15.5718434 15.3325813,16.1639913 L15.0104989,15.7863774 C15.2544986,15.5717882 15.4844997,15.3417871 15.6990889,15.0977874 C16.0363261,14.7313885 16.33758,14.3334358 16.5986985,13.9094143 C16.856733,13.4579114 17.0688147,12.9816577 17.231757,12.4878091 C17.231757,12.332321 17.3539262,12.176833 17.3983514,12.0102386 C17.4427766,11.8436443 17.4760954,11.7103688 17.5094143,11.5548807 L17.9980911,11.5548807 C17.9980911,11.7214751 17.9203471,11.8769631 17.8870282,12.0435575 C17.7116443,12.7850002 17.4350968,13.4987917 17.0651627,14.164859 L17.0651627,14.087115 Z" id="Shape" fill="#BA8254"></path>
                                </g>
                            </g>
                        </g>
                    </g>
                </g>
            </g>
        </g>
    </g>
</svg>