<?xml version="1.0" encoding="UTF-8" standalone="no"?>
<svg width="20px" height="20px" viewBox="0 0 20 20" version="1.1" xmlns="http://www.w3.org/2000/svg" xmlns:xlink="http://www.w3.org/1999/xlink">
    <!-- Generator: Sketch 47.1 (45422) - http://www.bohemiancoding.com/sketch -->
    <title>baojingzhongxin</title>
    <desc>Created with Sketch.</desc>
    <defs></defs>
    <g id="Page-1" stroke="none" stroke-width="1" fill="none" fill-rule="evenodd">
        <g id="baojingzhongxin" fill-rule="nonzero" fill="#FFFFFF">
            <g id="消息中心" transform="translate(2.000000, 0.000000)">
                <path d="M10.2224609,1.77592841 C10.2224609,0.790872483 9.38630872,0.000536912752 8.36689038,0.000536912752 C7.34747204,0.000536912752 6.51131991,0.802326622 6.51131991,1.77592841 C6.51131991,1.87901566 6.52277405,1.97064877 6.53422819,2.07373602 C3.96850112,2.93279642 1.87239374,5.55579418 1.87239374,8.67131991 L1.87239374,11.1225056 C1.87239374,11.1225056 1.87239374,14.6503803 0.967516779,14.6732886 C0.42917226,14.6732886 0.0168232662,15.0741834 0.0168232662,15.5667114 C0.0168232662,16.0592394 0.42917226,16.4601342 0.944608501,16.4601342 L15.7891723,16.4601342 C16.3046085,16.4601342 16.7169575,16.0592394 16.7169575,15.5667114 C16.7169575,15.0741834 16.3046085,14.6732886 15.7891723,14.6732886 C14.861387,14.6732886 14.861387,11.1454139 14.861387,11.1454139 L14.861387,8.65986577 C14.861387,5.54434004 12.8912752,2.92134228 10.1995526,2.06228188 C10.2110067,1.97064877 10.2224609,1.87901566 10.2224609,1.77592841 Z M11.1502461,17.3306488 C11.1502461,18.8082327 9.91319911,19.9994631 8.36689038,19.9994631 C6.83203579,19.9994631 5.58353468,18.8082327 5.58353468,17.3306488 L11.1502461,17.3306488 Z" id="Shape"></path>
            </g>
        </g>
    </g>
</svg>