<?xml version="1.0" encoding="UTF-8" standalone="no"?>
<svg width="30px" height="30px" viewBox="0 0 30 30" version="1.1" xmlns="http://www.w3.org/2000/svg" xmlns:xlink="http://www.w3.org/1999/xlink">
    <!-- Generator: Sketch 46 (44423) - http://www.bohemiancoding.com/sketch -->
    <title>菜单管理</title>
    <desc>Created with Sketch.</desc>
    <defs></defs>
    <g id="Page-1" stroke="none" stroke-width="1" fill="none" fill-rule="evenodd">
        <g id="菜单栏icon" transform="translate(-165.000000, -30.000000)" fill="#FFFFFF">
            <g id="菜单栏">
                <g id="电梯系统" transform="translate(120.000000, 0.000000)">
                    <path d="M56.2681435,30 L46.7350837,30 C45.7769107,30.000185 45.0001851,30.7767069 45,31.7346284 L45,41.2688404 C45,42.2249118 45.7752915,42.9999999 46.7350837,42.9999999 L56.2681435,42.9999999 C56.7273596,43.0001849 57.1679776,42.8177214 57.4927043,42.4930336 C57.8174774,42.1683921 57.9999887,41.7278897 57.9999887,41.2688404 L57.9999887,31.7312057 C58.0034122,30.775088 57.2281207,30 56.2681435,30 Z M73.261579,30.0000005 L63.7312059,30.0000005 C62.7749032,30.0000005 62.0000001,30.7750885 62.0000001,31.7346288 L62.0000001,41.2688405 C61.9998151,41.7278898 62.1822786,42.1683921 62.5069664,42.4930336 C62.8316079,42.8177214 63.2721103,43.0001849 63.7312059,42.9999999 L73.2651866,42.9999999 C74.2214893,42.9999999 75,42.2249118 75,41.2688405 L75,31.7312062 C74.9967624,30.7736547 74.2191305,29.9992605 73.261579,30.0000005 Z M56.2681435,47 L46.7350837,47 C45.77853,47 45,47.775077 45,48.7313199 L45,58.2652113 C45.0001851,59.2233042 45.7769107,59.999815 46.7350837,60 L56.2681435,60 C57.2246972,60 57.9999887,59.225108 57.9999887,58.2652113 L57.9999887,48.7313199 C58.0034122,47.775077 57.2281207,47 56.2681435,47 Z M73.7468067,53.4504048 C73.94514,53.7242055 74.2053295,53.9203591 74.5269913,54.0384778 C74.60214,54.0816636 74.6662517,54.124607 74.719854,54.167405 C74.8377598,54.2639551 74.9185712,54.3875992 74.9613282,54.5379497 C74.9826828,54.6670708 74.9774521,54.8225105 74.9452044,55.0053836 C74.9107012,55.1956724 74.856715,55.3819868 74.7841575,55.5610794 C74.7093926,55.7490902 74.6182639,55.9181496 74.5108674,56.0683063 C74.4038067,56.2188506 74.2859009,56.3265485 74.1569578,56.3909152 C74.0281587,56.4552818 73.9157235,56.4873198 73.8191722,56.4873198 C73.7224289,56.4873198 73.6154162,56.4658965 73.4975104,56.4229046 C73.3651602,56.3852443 73.2309385,56.3559206 73.0952292,56.3346913 C72.9328867,56.3076456 72.7679528,56.3021202 72.6044586,56.3184057 C72.4383731,56.3344974 72.2719516,56.3695404 72.105866,56.4229046 C71.9424198,56.4748148 71.7954334,56.5692807 71.679591,56.6968992 C71.4220408,56.9655623 71.2718872,57.2714979 71.2289382,57.6151423 C71.1848854,57.9500623 71.2351286,58.2907016 71.3740531,58.5981397 C71.4810657,58.8128569 71.4649418,59.0277679 71.3254895,59.2424366 C71.2611859,59.3284204 71.159212,59.4172154 71.0197596,59.5082885 C70.8803073,59.5997008 70.7275143,59.6828249 70.5612368,59.7581941 C70.3930878,59.8339025 70.2180285,59.8931799 70.0384584,59.9352024 C69.856057,59.9783882 69.695586,59.9999569 69.5557498,59.9999569 C69.4593904,59.9999569 69.3681177,59.9624904 69.2826516,59.8869274 C69.1966096,59.8117522 69.1375367,59.7312938 69.1054809,59.6453585 L69.089357,59.6453585 C68.9714511,59.3123288 68.7705265,59.0249083 68.4861511,58.7833394 C68.2019678,58.541722 67.8718601,58.4209375 67.496788,58.4209375 C67.1319852,58.4209375 66.8022615,58.5419158 66.5074249,58.7833394 C66.2125402,59.0249083 66.005953,59.3069972 65.8880472,59.6292668 C65.8342529,59.7581941 65.7538735,59.8520783 65.6466209,59.9111619 C65.5380726,59.9706332 65.4164237,60.001314 65.2929033,59.9999569 C65.1425577,59.9999569 64.9736888,59.9731051 64.7860568,59.9194985 C64.5942978,59.8641955 64.4062819,59.7970176 64.2229207,59.7180618 C64.0445023,59.6426927 63.8746257,59.548033 63.7162662,59.4359729 C63.5661126,59.3286143 63.4532454,59.2212557 63.3782886,59.1138972 C63.3237265,59.0357168 63.2929664,58.9432867 63.2899912,58.8478999 C63.2843766,58.7458244 63.3246863,58.6034713 63.4103444,58.4209375 C63.5282503,58.1738431 63.5741745,57.8919481 63.5469655,57.57501 C63.5203803,57.2582659 63.3835193,56.9655623 63.1370063,56.6970931 C62.9907876,56.5382121 62.7999884,56.428624 62.590042,56.3829663 C62.3896453,56.3358545 62.1840178,56.3169032 61.9785823,56.3265485 C61.7432985,56.3390535 61.5108939,56.3822392 61.2868871,56.4552818 C61.1367335,56.4982737 60.9865799,56.4874652 60.8364262,56.4230985 C60.7185204,56.3801551 60.6084845,56.2807454 60.5067025,56.1251118 C60.4006016,55.9617232 60.309137,55.7892224 60.2332204,55.6095483 C60.1531769,55.4227007 60.0913207,55.2284374 60.0483716,55.0294242 C60.0052787,54.8308471 59.9945774,54.6670708 60.0159319,54.5381435 C60.0483716,54.3016638 60.1555762,54.1513134 60.3377857,54.0871406 C60.6593035,53.9580194 60.9489095,53.7461619 61.2064597,53.4505987 C61.4640098,53.1550839 61.592617,52.8248654 61.592617,52.4596523 C61.592617,52.0836307 61.4636259,51.7558841 61.2064597,51.4768487 C60.9489095,51.197571 60.6596394,50.9936624 60.3377857,50.8645413 C60.2410904,50.8325518 60.1608549,50.754323 60.0965513,50.6310667 C60.0341193,50.5148383 60.0009598,50.3847478 60,50.2524277 C60,50.1126919 60.0214025,49.9568645 60.0643036,49.7851392 C60.1068687,49.6143833 60.1633023,49.4473595 60.2330284,49.2857158 C60.3029466,49.1247506 60.383374,48.9768721 60.4744547,48.8426617 C60.5657274,48.708209 60.6649181,48.6088478 60.7721227,48.5446265 C60.8577808,48.4906807 60.9408475,48.4694998 61.021419,48.480066 C61.1018464,48.4906807 61.1903358,48.5124432 61.2868871,48.5446265 C61.6057176,48.6730206 61.952525,48.7146554 62.2923741,48.6654595 C62.6408611,48.6169906 62.9491823,48.4641682 63.2172418,48.2063137 C63.3460408,48.0773865 63.4399528,47.9186994 63.4989777,47.7308824 C63.5578587,47.5429201 63.5955291,47.3577205 63.611461,47.1750412 C63.6275849,46.9925074 63.6275849,46.8260653 63.611461,46.6755694 C63.6007597,46.567823 63.5874671,46.4603191 63.5713433,46.3533482 C63.5475413,46.2794816 63.5286342,46.2041125 63.5149097,46.1278225 C63.4989777,46.0418872 63.5068477,45.9669058 63.5389035,45.9021514 C63.6033991,45.7518009 63.7186656,45.6202563 63.8849431,45.5073723 C64.053668,45.3934219 64.2343898,45.2987622 64.4238934,45.2254773 C64.6066307,45.1533556 64.7948386,45.0969378 64.9869814,45.0564178 C65.1689989,45.0189029 65.3141138,45 65.4213184,45 C65.5605789,45 65.6706147,45.0456092 65.7510422,45.13707 C65.8314696,45.228143 65.8879032,45.3222212 65.919959,45.418965 C66.0378649,45.7088575 66.2309195,45.9638523 66.499171,46.1842403 C66.7672305,46.4044344 67.0836616,46.5146527 67.4480325,46.5146527 C67.8236805,46.5146527 68.1560435,46.409766 68.4456495,46.200332 C68.7353035,45.9909464 68.9392513,45.725143 69.0569653,45.4028734 C69.1000582,45.316938 69.1670011,45.2283369 69.2578899,45.13707 C69.3491626,45.0456092 69.4431226,45.0001939 69.5396259,45.0001939 C69.6895876,45.0001939 69.8532258,45.0213748 70.0303965,45.0643667 C70.2093907,45.1080856 70.384306,45.1675569 70.5529829,45.2417628 C70.7233874,45.3161625 70.8830905,45.4136819 71.0276296,45.5316067 C71.1723606,45.6499678 71.2874352,45.7787011 71.3734772,45.918243 C71.4272715,46.0043722 71.4433953,46.0983049 71.4218489,46.200332 C71.4003024,46.3024074 71.3788998,46.374723 71.3573533,46.4177149 C71.2180929,46.7291275 71.1751439,47.057068 71.2286022,47.4007124 C71.2823965,47.7443568 71.4381647,48.0450093 71.6955229,48.3028637 C71.9524972,48.5607667 72.2689284,48.7029259 72.6443844,48.7296323 C73.0198884,48.7566779 73.3683274,48.6947832 73.6900372,48.5446265 C73.7758872,48.4906807 73.8802605,48.4694998 74.003637,48.480066 C74.1222627,48.4885965 74.2336422,48.5401189 74.3176208,48.6251334 C74.4784277,48.7756293 74.6203274,49.0035784 74.7438478,49.3097564 C74.8647769,49.6069676 74.9485635,49.9182348 74.9931921,50.2363361 C75.0147386,50.4188214 74.9851302,50.5610291 74.9045108,50.66325 C74.8242753,50.7653255 74.7410645,50.8323579 74.6554064,50.8647352 C74.3226595,50.98266 74.0386681,51.1894282 73.8024724,51.4847976 C73.5666607,51.7803124 73.4487548,52.1156202 73.4487548,52.4918357 C73.4489468,52.8570487 73.5482814,53.1764587 73.7468067,53.4504048 Z M69.9784466,50.0216059 C69.6619144,49.7049865 69.2887865,49.4553704 68.859735,49.2730963 C68.4307316,49.0907739 67.9750384,49 67.4922235,49 C67.0093606,49 66.5557796,49.0907739 66.1322005,49.2730963 C65.718174,49.4489315 65.3412538,49.7029048 65.0217454,50.0214123 C64.7041091,50.3396777 64.4500288,50.7167646 64.2735695,51.1318556 C64.0913018,51.5558545 64,52.0089494 64,52.4917698 C64,52.9743966 64.0913018,53.4278788 64.2735695,53.8516841 C64.4511329,54.2684695 64.7050211,54.6478318 65.0217454,54.9700671 C65.3395737,55.2926897 65.7166859,55.549713 66.1322005,55.7263227 C66.5559716,55.9088388 67.0093606,56 67.4922235,56 C67.9750384,56 68.4307316,55.9088388 68.859735,55.7263227 C69.2887865,55.5440487 69.6619144,55.2919635 69.9784466,54.9700671 C70.2951709,54.6478318 70.5488671,54.2684695 70.7266225,53.8516841 C70.9090822,53.4278788 71,52.9747839 71,52.4917698 C71,52.0091431 70.9090822,51.5558545 70.7266225,51.1318556 C70.5501632,50.7167646 70.2960829,50.3396777 69.9784466,50.0214123 L69.9784466,50.0216059 Z" id="菜单管理"></path>
                </g>
            </g>
        </g>
    </g>
</svg>