<?xml version="1.0" encoding="UTF-8" standalone="no"?>
<svg width="20px" height="20px" viewBox="0 0 20 20" version="1.1" xmlns="http://www.w3.org/2000/svg" xmlns:xlink="http://www.w3.org/1999/xlink">
    <!-- Generator: Sketch 46 (44423) - http://www.bohemiancoding.com/sketch -->
    <title>caidan</title>
    <desc>Created with Sketch.</desc>
    <defs></defs>
    <g id="Page-1" stroke="none" stroke-width="1" fill="none" fill-rule="evenodd">
        <g id="caidan" fill="#FFFFFF">
            <g id="抽屉菜单">
                <path d="M0.952109375,2.11240992 L19.0335694,2.11240992 C19.5591495,2.11240992 19.9852295,1.64172384 19.9852295,1.06116936 C19.9852295,0.480638619 19.5591495,0.00992880259 19.0335694,0.00992880259 L0.95210875,0.00992880259 C0.426589219,0.00992880259 0.000468125,0.480636462 0.000468125,1.06116936 C0.00046875,1.64172384 0.426568359,2.11240992 0.952109375,2.11240992 L0.952109375,2.11240992 Z M19.0335684,8.94548436 L0.95210875,8.94548436 C0.426589219,8.94548436 0.000468125,9.41614887 0.000468125,9.99670334 C0.000468125,10.5772578 0.426587266,11.0479439 0.95210875,11.0479439 L19.0335687,11.0479439 C19.5591488,11.0479439 19.9852289,10.5772578 19.9852289,9.99670334 C19.9852289,9.41614887 19.5591484,8.94548436 19.0335684,8.94548436 L19.0335684,8.94548436 Z M19.0335684,17.8809946 L0.95210875,17.8809946 C0.426589219,17.8809946 0.000468125,18.3516807 0.000468125,18.9322136 C0.000468125,19.5127012 0.426587266,19.9834326 0.95210875,19.9834326 L19.0335687,19.9834326 C19.5591488,19.9834326 19.9852289,19.5127012 19.9852289,18.9322136 C19.9852285,18.3516807 19.5591484,17.8809946 19.0335684,17.8809946 L19.0335684,17.8809946 Z" id="Shape"></path>
            </g>
        </g>
    </g>
</svg>