<?xml version="1.0" encoding="UTF-8" standalone="no"?>
<svg width="30px" height="30px" viewBox="0 0 30 30" version="1.1" xmlns="http://www.w3.org/2000/svg" xmlns:xlink="http://www.w3.org/1999/xlink">
    <!-- Generator: Sketch 46 (44423) - http://www.bohemiancoding.com/sketch -->
    <title>操作员管理</title>
    <desc>Created with Sketch.</desc>
    <defs></defs>
    <g id="Page-1" stroke="none" stroke-width="1" fill="none" fill-rule="evenodd">
        <g id="菜单栏icon" transform="translate(-405.000000, -30.000000)" fill="#FFFFFF">
            <g id="菜单栏">
                <g id="停车系统" transform="translate(360.000000, 0.000000)">
                    <path d="M67.7054304,55.3418717 C66.3042585,55.3418717 65.1716042,54.2310901 65.1716042,52.8615605 C65.1716042,51.4943567 66.3042585,50.380954 67.7054304,50.380954 C69.1043136,50.380954 70.2371155,51.4943567 70.2371155,52.8615605 C70.2371155,54.2312009 69.1043136,55.3418717 67.7054304,55.3418717 L67.7054304,55.3418717 Z M73.1177555,51.4405693 C72.9884063,50.971877 72.8005473,50.5274388 72.5588667,50.1197695 L73.6207185,48.5525519 L73.6184298,48.5502631 L72.1096884,47.071719 L72.1072151,47.0693932 L70.5033076,48.1082614 C70.085839,47.8714788 69.6342244,47.6881882 69.1580984,47.5614537 L68.7748128,45.7193556 L66.6336116,45.7193556 L66.2530578,47.5614537 C65.7822475,47.6854564 65.3294885,47.8693007 64.9052645,48.1082614 L63.3033504,47.0693932 L63.3007663,47.071719 L61.7909913,48.5502631 L61.7884073,48.5525519 L62.8504437,50.1197695 C62.6067328,50.5333824 62.4191322,50.9775252 62.2925147,51.4405693 L60.4078707,51.8142015 L60.4078707,53.9063354 L62.2925147,54.2801153 C62.4207195,54.7487707 62.607471,55.1906247 62.8504437,55.6007305 L61.7884073,57.1682434 L61.7909913,57.1705692 L63.3007663,58.6474889 L63.3033504,58.6499623 L64.9052645,57.6123862 C65.3226962,57.8468801 65.7767841,58.0347852 66.2530578,58.1593785 L66.6336116,60 L68.7746652,60 L69.1579507,58.1592309 C69.6340767,58.0323118 70.0857283,57.8490212 70.5031599,57.6123862 L72.1070674,58.6499623 L72.1095407,58.6474889 L73.6182821,57.1704215 L73.6205708,57.1680957 L72.558719,55.6005828 C72.8018393,55.1865639 72.9897352,54.7427164 73.1177555,54.2799676 L75,53.9063354 L75,51.8142015 L73.1177555,51.4405693 Z M48.6260219,37.4255394 C48.6260219,33.3252199 51.9699416,30 56.0982251,30 C60.2270255,30 63.5703914,33.3228942 63.5703914,37.4255394 C63.5703914,41.5260065 60.2270255,44.8487899 56.0982251,44.8487899 C51.9699416,44.8487899 48.6260219,41.5260065 48.6260219,37.4255394 Z M58.7573768,54.4753668 C58.7569338,55.6464331 58.9171437,56.8120727 59.2333552,57.9397621 C52.8609521,58.4671148 45,57.3733148 45,54.6119211 C45,50.2247602 47.5749492,46.4367915 51.3023389,44.6546827 C52.6785565,45.5579934 54.3258757,46.0842017 56.0982251,46.0842017 C57.8765916,46.0842017 59.5288206,45.5555569 60.9106861,44.6461919 C61.4306668,44.8927944 61.9262469,45.1795989 62.3975001,45.5019172 C60.140239,47.8468185 58.7573768,51.0036252 58.7573768,54.4753668 Z" id="操作员管理"></path>
                </g>
            </g>
        </g>
    </g>
</svg>