<?xml version="1.0" encoding="UTF-8" standalone="no"?>
<svg width="30px" height="30px" viewBox="0 0 30 30" version="1.1" xmlns="http://www.w3.org/2000/svg" xmlns:xlink="http://www.w3.org/1999/xlink">
    <!-- Generator: Sketch 46 (44423) - http://www.bohemiancoding.com/sketch -->
    <title>daintitouping</title>
    <desc>Created with Sketch.</desc>
    <defs></defs>
    <g id="Page-1" stroke="none" stroke-width="1" fill="none" fill-rule="evenodd">
        <g id="daintitouping" fill-rule="nonzero" fill="#FFFFFF">
            <g id="电梯意外含电动扶梯" transform="translate(15.000000, 15.000000) scale(-1, -1) translate(-15.000000, -15.000000) translate(1.000000, 0.000000)">
                <polygon id="Shape" points="0 0.967741935 3.86206897 0.967741935 3.86206897 30 0 30"></polygon>
                <polygon id="Shape" points="24.137931 0.967741935 28 0.967741935 28 30 24.137931 30"></polygon>
                <path d="M22.5233518,5.80645161 L14.5870492,5.80645161 C14.5849672,11.9189844 14.5339007,18.0810553 14.4827586,24.1935484 L22.5233518,24.1935484 C22.8812709,24.1935484 23.1724138,23.8898401 23.1724138,23.5149656 L23.1724138,6.48400069 C23.1724517,6.11012016 22.8813088,5.80645161 22.5233518,5.80645161 L22.5233518,5.80645161 Z" id="Shape"></path>
                <path d="M5.4703174,5.80645165 C5.11477359,5.80645165 4.82758621,6.11012024 4.82758621,6.48400073 L4.82758621,23.5149656 C4.82758621,23.8898798 5.11477359,24.1935484 5.4703174,24.1935484 L13.4136915,24.1935484 C13.464564,18.0810553 13.5153238,11.9189845 13.5172414,5.80645161 L5.4703174,5.80645165 L5.4703174,5.80645165 Z" id="Shape"></path>
                <polygon id="Shape" points="12 2.63832382 12 3.76889577 14.202526 2.63832382 14.202526 4.87096774 15.5883441 4.87096774 15.5883441 2.63832382 17.7931034 3.754253 17.7931034 2.54855049 14.8965303 1"></polygon>
                <polygon id="Shape" points="11.5862069 28.3582662 11.5883965 27.2273638 13.7878739 28.3615013 13.7946143 26.1290323 15.17979 26.1314821 15.175368 28.3639512 17.3793103 27.2509518 17.376949 28.4569838 14.4771559 30"></polygon>
            </g>
        </g>
    </g>
</svg>