<?xml version="1.0" encoding="UTF-8" standalone="no"?>
<svg width="30px" height="30px" viewBox="0 0 30 30" version="1.1" xmlns="http://www.w3.org/2000/svg" xmlns:xlink="http://www.w3.org/1999/xlink">
    <!-- Generator: Sketch 46 (44423) - http://www.bohemiancoding.com/sketch -->
    <title>dianti</title>
    <desc>Created with Sketch.</desc>
    <defs></defs>
    <g id="Page-1" stroke="none" stroke-width="1" fill="none" fill-rule="evenodd">
        <g id="dianti" fill="#FFFFFF">
            <g id="Group">
                <polygon id="Shape" points="0.024518455 0.980104927 3.97603772 0.980104927 3.97603772 29.0978152 0.024518455 29.0978152 0.024518455 0.980104927"></polygon>
                <polygon id="Shape" points="26.1007062 0.980104927 29.9728843 0.980104927 29.9728843 29.0978152 26.1007062 29.0978152 26.1007062 0.980104927"></polygon>
                <path d="M24.2022653,5.93327283 L15.4817567,5.93327283 C15.480089,12.113825 15.4243798,18.3453825 15.3676416,24.5256946 L24.2022653,24.5256946 C24.5947843,24.5256946 24.9134266,24.2185655 24.9134266,23.8400222 L24.9134266,6.61867073 C24.9134266,6.24005886 24.5947488,5.93327283 24.2022653,5.93327283 L24.2022653,5.93327283 Z" id="Shape"></path>
                <path d="M6.25035592,5.93327283 C5.85741107,5.93327283 5.53954941,6.24002457 5.53954941,6.61863644 L5.53954941,23.8399879 C5.53954941,24.2185312 5.85741107,24.5256603 6.25035592,24.5256603 L15.0371123,24.5256603 C15.0938505,18.3453482 15.1495952,12.1137907 15.1512274,5.93323854 L6.25035592,5.9332385 L6.25035592,5.93327283 Z" id="Shape"></path>
                <polygon id="Shape" points="12.5099738 2.12290358 12.5099738 3.57029303 14.643103 2.12290358 14.643103 4.98046612 15.9862618 4.98046612 15.9862618 2.12290358 18.1197813 3.5518735 18.1197813 2.00875063 15.3153388 0.0273325475"></polygon>
                <polygon id="Shape" points="12.4301358 27.8727976 12.4332938 26.4252367 14.5636198 27.8772567 14.5698294 25.019214 15.9127044 25.0223353 15.9069206 27.8803095 18.0431369 26.4554214 18.0400143 27.9989901 15.230746 29.974337"></polygon>
            </g>
        </g>
    </g>
</svg>