<?xml version="1.0" encoding="UTF-8" standalone="no"?>
<svg width="30px" height="30px" viewBox="0 0 30 30" version="1.1" xmlns="http://www.w3.org/2000/svg" xmlns:xlink="http://www.w3.org/1999/xlink">
    <!-- Generator: Sketch 46 (44423) - http://www.bohemiancoding.com/sketch -->
    <title>gongpeidian</title>
    <desc>Created with Sketch.</desc>
    <defs></defs>
    <g id="Page-1" stroke="none" stroke-width="1" fill="none" fill-rule="evenodd">
        <g id="gongpeidian" fill="#FFFFFF">
            <g id="配电房默认">
                <path d="M28.3386667,9.75515152 L28.3386667,8.38981818 L23.0014545,8.38981818 C23.870303,8.14157576 24.8012121,7.95539394 25.7321212,7.89333333 C25.918303,7.89333333 26.0424242,7.76921212 26.0424242,7.64509091 C26.1044848,7.5830303 26.1044848,7.5209697 26.1044848,7.39684848 C26.1044848,7.14860606 25.8562424,7.02448485 25.6700606,7.02448485 C25.0494545,7.08654545 24.3667879,7.02448485 23.6841212,6.83830303 C24.3667879,6.65212121 25.0494545,6.59006061 25.7321212,6.46593939 C25.7941818,6.46593939 25.8562424,6.40387879 25.918303,6.40387879 C26.0424242,6.34181818 26.1044848,6.15563636 26.1044848,6.03151515 C26.1044848,5.78327273 25.8562424,5.65915152 25.6700606,5.65915152 C24.9873939,5.72121212 24.3047273,5.65915152 23.6220606,5.41090909 C24.2426667,5.22472727 24.9253333,5.16266667 25.608,5.03854545 L25.7941818,5.03854545 C26.0424242,5.03854545 26.1665455,4.79030303 26.1665455,4.60412121 C26.1665455,4.41793939 25.9803636,4.23175758 25.7941818,4.23175758 L25.608,4.23175758 C24.9873939,4.29381818 24.3667879,4.16969697 23.6841212,3.98351515 C24.3667879,3.79733333 25.1115152,3.67321212 25.8562424,3.61115152 C26.1044848,3.61115152 26.2286061,3.36290909 26.2286061,3.17672727 C26.2286061,2.92848485 25.9803636,2.80436364 25.7941818,2.80436364 C25.1115152,2.86642424 24.4288485,2.80436364 23.7461818,2.55612121 C24.3667879,2.432 24.9253333,2.30787879 25.5459394,2.24581818 L25.918303,2.24581818 C26.1665455,2.24581818 26.2906667,1.99757576 26.2906667,1.81139394 C26.2906667,1.68727273 26.2286061,1.56315152 26.1044848,1.50109091 C26.0424242,1.4390303 25.918303,1.4390303 25.8562424,1.4390303 C25.7321212,1.4390303 25.6700606,1.4390303 25.5459394,1.50109091 C24.9873939,1.50109091 24.3667879,1.4390303 23.8082424,1.25284848 C24.4909091,1.06666667 25.2356364,0.942545455 25.9803636,0.880484848 C26.2286061,0.880484848 26.3527273,0.632242424 26.3527273,0.446060606 C26.3527273,0.259878788 26.1044848,0.0736969697 25.918303,0.0736969697 C24.7391515,0.197818182 23.6220606,0.446060606 22.5049697,0.818424242 C22.3187879,0.880484848 22.1946667,1.12872727 22.2567273,1.31490909 C22.3187879,1.4390303 22.3808485,1.56315152 22.5049697,1.56315152 C22.5670303,1.62521212 22.5670303,1.62521212 22.6290909,1.62521212 C22.8773333,1.74933333 23.0635152,1.81139394 23.3117576,1.93551515 C23.0014545,1.99757576 22.7532121,2.12169697 22.4429091,2.18375758 C22.2567273,2.24581818 22.1326061,2.49406061 22.1946667,2.68024242 C22.2567273,2.80436364 22.3808485,2.92848485 22.5049697,2.92848485 L22.5670303,2.99054545 C22.7532121,3.17672727 23.0014545,3.23878788 23.249697,3.36290909 C22.9393939,3.4249697 22.6911515,3.54909091 22.3808485,3.61115152 C22.1946667,3.67321212 22.0705455,3.92145455 22.1326061,4.10763636 C22.1946667,4.23175758 22.2567273,4.35587879 22.4429091,4.35587879 C22.4429091,4.35587879 22.5049697,4.41793939 22.5670303,4.41793939 C22.8152727,4.54206061 23.0635152,4.60412121 23.249697,4.72824242 C22.9393939,4.79030303 22.6911515,4.91442424 22.3808485,4.97648485 C22.0705455,5.10060606 22.0084848,5.28678788 22.0705455,5.5350303 C22.1326061,5.65915152 22.2567273,5.78327273 22.3808485,5.78327273 L22.4429091,5.84533333 C22.6911515,5.96945455 22.9393939,6.09357576 23.1876364,6.15563636 C22.8773333,6.21769697 22.5670303,6.34181818 22.3187879,6.40387879 C22.1326061,6.46593939 22.0084848,6.71418182 22.0705455,6.90036364 C22.1326061,7.08654545 22.2567273,7.14860606 22.4429091,7.14860606 C22.6911515,7.27272727 22.9393939,7.39684848 23.249697,7.45890909 C22.9393939,7.5209697 22.6290909,7.64509091 22.3187879,7.76921212 C22.1326061,7.83127273 22.0084848,8.07951515 22.0705455,8.26569697 C22.0705455,8.32775758 22.0705455,8.32775758 22.1326061,8.38981818 L17.416,8.38981818 C18.2848485,8.14157576 19.2157576,7.95539394 20.1466667,7.89333333 C20.3328485,7.89333333 20.4569697,7.76921212 20.4569697,7.64509091 C20.5190303,7.5830303 20.5190303,7.5209697 20.5190303,7.39684848 C20.5190303,7.14860606 20.2707879,7.02448485 20.0846061,7.02448485 C19.464,7.08654545 18.7813333,7.02448485 18.0986667,6.83830303 C18.7813333,6.65212121 19.464,6.59006061 20.1466667,6.46593939 C20.2087273,6.46593939 20.2707879,6.40387879 20.3328485,6.40387879 C20.4569697,6.34181818 20.5190303,6.15563636 20.5190303,6.03151515 C20.5190303,5.78327273 20.2707879,5.65915152 20.0846061,5.65915152 C19.4019394,5.72121212 18.7192727,5.65915152 18.0366061,5.41090909 C18.6572121,5.22472727 19.3398788,5.16266667 20.0225455,5.03854545 L20.2087273,5.03854545 C20.4569697,5.03854545 20.5810909,4.79030303 20.5810909,4.60412121 C20.5810909,4.41793939 20.3949091,4.23175758 20.2087273,4.23175758 L20.0225455,4.23175758 C19.4019394,4.29381818 18.7813333,4.16969697 18.0986667,3.98351515 C18.7813333,3.79733333 19.5260606,3.67321212 20.2707879,3.61115152 C20.5190303,3.61115152 20.6431515,3.36290909 20.6431515,3.17672727 C20.6431515,2.92848485 20.3949091,2.80436364 20.2087273,2.80436364 C19.5260606,2.86642424 18.8433939,2.80436364 18.1607273,2.55612121 C18.7813333,2.432 19.3398788,2.30787879 19.9604848,2.24581818 L20.3328485,2.24581818 C20.5810909,2.24581818 20.7052121,1.99757576 20.7052121,1.81139394 C20.7052121,1.68727273 20.6431515,1.56315152 20.5190303,1.50109091 C20.4569697,1.4390303 20.3328485,1.4390303 20.2707879,1.4390303 C20.1466667,1.4390303 20.0846061,1.4390303 19.9604848,1.50109091 C19.4019394,1.50109091 18.7813333,1.4390303 18.2227879,1.25284848 C18.9054545,1.06666667 19.6501818,0.942545455 20.3949091,0.880484848 C20.6431515,0.880484848 20.7672727,0.632242424 20.7672727,0.446060606 C20.7672727,0.197818182 20.5190303,0.0736969697 20.3328485,0.0736969697 C19.153697,0.197818182 18.0366061,0.446060606 16.9195152,0.818424242 C16.7333333,0.880484848 16.6092121,1.12872727 16.6712727,1.31490909 C16.7333333,1.4390303 16.7953939,1.56315152 16.9195152,1.56315152 C16.9815758,1.62521212 16.9815758,1.62521212 17.0436364,1.62521212 C17.2918788,1.74933333 17.4780606,1.81139394 17.726303,1.93551515 C17.2918788,1.99757576 17.0436364,2.12169697 16.7333333,2.18375758 C16.5471515,2.24581818 16.4230303,2.49406061 16.4850909,2.68024242 C16.5471515,2.80436364 16.6712727,2.92848485 16.7953939,2.92848485 L16.8574545,2.99054545 C17.105697,3.11466667 17.3539394,3.17672727 17.5401212,3.30084848 C17.2298182,3.36290909 16.9815758,3.4870303 16.6712727,3.54909091 C16.4850909,3.61115152 16.3609697,3.85939394 16.4230303,4.04557576 C16.4850909,4.16969697 16.5471515,4.29381818 16.7333333,4.29381818 C16.7333333,4.29381818 16.7953939,4.35587879 16.8574545,4.35587879 C17.105697,4.48 17.3539394,4.54206061 17.5401212,4.66618182 C17.2298182,4.72824242 16.9815758,4.85236364 16.6712727,4.91442424 C16.4230303,5.10060606 16.2989091,5.28678788 16.3609697,5.5350303 C16.4230303,5.65915152 16.5471515,5.78327273 16.6712727,5.78327273 L16.7333333,5.84533333 C16.9815758,5.96945455 17.2298182,6.09357576 17.4780606,6.15563636 C17.1677576,6.21769697 16.8574545,6.34181818 16.6092121,6.40387879 C16.4230303,6.46593939 16.2989091,6.71418182 16.3609697,6.90036364 C16.4230303,7.08654545 16.5471515,7.14860606 16.7333333,7.14860606 C16.9815758,7.27272727 17.2298182,7.39684848 17.5401212,7.45890909 C17.2298182,7.5209697 16.9195152,7.64509091 16.6092121,7.76921212 C16.4230303,7.83127273 16.2989091,8.07951515 16.3609697,8.26569697 C16.3609697,8.32775758 16.3609697,8.32775758 16.4230303,8.38981818 L11.7064242,8.38981818 C12.5752727,8.14157576 13.5061818,7.95539394 14.4370909,7.89333333 C14.6232727,7.89333333 14.7473939,7.76921212 14.7473939,7.64509091 C14.8094545,7.5830303 14.8094545,7.5209697 14.8094545,7.39684848 C14.8094545,7.14860606 14.5612121,7.02448485 14.3750303,7.02448485 C13.7544242,7.08654545 13.0717576,7.02448485 12.3890909,6.83830303 C13.0717576,6.65212121 13.7544242,6.59006061 14.4370909,6.46593939 C14.4991515,6.46593939 14.5612121,6.40387879 14.6232727,6.40387879 C14.7473939,6.34181818 14.8094545,6.15563636 14.8094545,6.03151515 C14.8094545,5.78327273 14.5612121,5.65915152 14.3750303,5.65915152 C13.6923636,5.72121212 13.009697,5.65915152 12.3270303,5.41090909 C12.9476364,5.22472727 13.630303,5.16266667 14.3129697,5.03854545 L14.4991515,5.03854545 C14.7473939,5.03854545 14.8715152,4.79030303 14.8715152,4.60412121 C14.8715152,4.41793939 14.6853333,4.23175758 14.4991515,4.23175758 L14.3129697,4.23175758 C13.6923636,4.29381818 13.0717576,4.16969697 12.3890909,3.98351515 C13.0717576,3.79733333 13.8164848,3.67321212 14.5612121,3.61115152 C14.8094545,3.61115152 14.9335758,3.36290909 14.9335758,3.17672727 C14.9335758,2.92848485 14.6853333,2.80436364 14.4991515,2.80436364 C13.8164848,2.86642424 13.1338182,2.80436364 12.4511515,2.55612121 C13.0717576,2.432 13.630303,2.30787879 14.2509091,2.24581818 L14.6232727,2.24581818 C14.8715152,2.24581818 14.9956364,1.99757576 14.9956364,1.81139394 C14.9956364,1.68727273 14.9335758,1.56315152 14.8094545,1.50109091 C14.7473939,1.4390303 14.6232727,1.4390303 14.5612121,1.4390303 C14.4370909,1.4390303 14.3750303,1.4390303 14.2509091,1.50109091 C13.6923636,1.50109091 13.0717576,1.4390303 12.5132121,1.25284848 C13.1958788,1.06666667 13.9406061,0.942545455 14.6853333,0.880484848 C14.9335758,0.880484848 15.057697,0.632242424 15.057697,0.446060606 C15.057697,0.197818182 14.8094545,0.0736969697 14.6232727,0.0736969697 C13.4441212,0.197818182 12.3270303,0.446060606 11.2099394,0.818424242 C11.0237576,0.880484848 10.8996364,1.12872727 10.961697,1.31490909 C11.0237576,1.4390303 11.0858182,1.56315152 11.2099394,1.56315152 C11.272,1.62521212 11.272,1.62521212 11.3340606,1.62521212 C11.582303,1.74933333 11.7684848,1.81139394 12.0167273,1.93551515 C11.7064242,1.99757576 11.4581818,2.12169697 11.1478788,2.18375758 C10.8375758,2.24581818 10.7755152,2.49406061 10.8375758,2.74230303 C10.8996364,2.86642424 11.0237576,2.99054545 11.1478788,2.99054545 L11.2099394,3.05260606 C11.4581818,3.17672727 11.6443636,3.23878788 11.8926061,3.36290909 C11.582303,3.4249697 11.3340606,3.54909091 11.0237576,3.61115152 C10.8375758,3.67321212 10.7134545,3.92145455 10.7755152,4.10763636 C10.8375758,4.23175758 10.8996364,4.35587879 11.0858182,4.35587879 C11.0858182,4.35587879 11.1478788,4.41793939 11.2099394,4.41793939 C11.4581818,4.54206061 11.7064242,4.60412121 11.8926061,4.72824242 C11.582303,4.79030303 11.3340606,4.91442424 11.0237576,4.97648485 C10.8375758,5.03854545 10.7134545,5.28678788 10.7755152,5.4729697 C10.8375758,5.59709091 10.961697,5.72121212 11.0858182,5.72121212 L11.1478788,5.78327273 C11.3961212,5.90739394 11.6443636,6.03151515 11.8926061,6.09357576 C11.582303,6.15563636 11.272,6.27975758 11.0237576,6.34181818 C10.8375758,6.40387879 10.7134545,6.65212121 10.7755152,6.83830303 C10.8375758,7.02448485 10.961697,7.08654545 11.1478788,7.08654545 C11.3961212,7.21066667 11.6443636,7.33478788 11.9546667,7.39684848 C11.6443636,7.45890909 11.3340606,7.5830303 11.0237576,7.70715152 C10.8375758,7.76921212 10.7134545,8.01745455 10.7755152,8.20363636 C10.7755152,8.26569697 10.7755152,8.26569697 10.8375758,8.32775758 L6.1209697,8.32775758 C6.98981818,8.07951515 7.92072727,7.89333333 8.85163636,7.83127273 C9.03781818,7.83127273 9.16193939,7.70715152 9.16193939,7.5830303 C9.224,7.5209697 9.224,7.45890909 9.224,7.33478788 C9.224,7.08654545 8.97575758,6.96242424 8.78957576,6.96242424 C8.1689697,7.02448485 7.48630303,6.96242424 6.80363636,6.77624242 C7.48630303,6.59006061 8.1689697,6.528 8.85163636,6.40387879 C8.91369697,6.40387879 8.97575758,6.34181818 9.03781818,6.34181818 C9.16193939,6.27975758 9.224,6.09357576 9.224,5.96945455 C9.224,5.72121212 8.97575758,5.59709091 8.78957576,5.59709091 C8.10690909,5.65915152 7.42424242,5.59709091 6.74157576,5.34884848 C7.36218182,5.16266667 8.04484848,5.10060606 8.72751515,4.97648485 L8.91369697,4.97648485 C9.16193939,4.97648485 9.28606061,4.72824242 9.28606061,4.54206061 C9.28606061,4.35587879 9.09987879,4.16969697 8.91369697,4.16969697 L8.72751515,4.16969697 C8.10690909,4.23175758 7.48630303,4.10763636 6.86569697,3.92145455 C7.54836364,3.73527273 8.29309091,3.61115152 9.03781818,3.54909091 C9.28606061,3.54909091 9.41018182,3.30084848 9.41018182,3.11466667 C9.41018182,2.86642424 9.16193939,2.74230303 8.97575758,2.74230303 C8.29309091,2.80436364 7.61042424,2.74230303 6.92775758,2.49406061 C7.54836364,2.36993939 8.10690909,2.24581818 8.72751515,2.18375758 L9.09987879,2.18375758 C9.34812121,2.18375758 9.47224242,1.93551515 9.47224242,1.74933333 C9.47224242,1.62521212 9.41018182,1.50109091 9.28606061,1.4390303 C9.224,1.3769697 9.09987879,1.3769697 9.03781818,1.3769697 C8.91369697,1.3769697 8.85163636,1.3769697 8.72751515,1.4390303 C8.1689697,1.4390303 7.54836364,1.3769697 6.98981818,1.19078788 C7.67248485,1.00460606 8.41721212,0.880484848 9.16193939,0.818424242 C9.41018182,0.818424242 9.53430303,0.570181818 9.53430303,0.384 C9.53430303,0.197818182 9.28606061,0.0116363636 9.09987879,0.0116363636 C7.73454545,0.197818182 6.55539394,0.446060606 5.43830303,0.818424242 C5.25212121,0.880484848 5.128,1.12872727 5.19006061,1.31490909 C5.25212121,1.4390303 5.37624242,1.56315152 5.50036364,1.56315152 C5.56242424,1.62521212 5.56242424,1.62521212 5.62448485,1.62521212 C5.87272727,1.74933333 6.05890909,1.81139394 6.30715152,1.93551515 C5.99684848,1.99757576 5.68654545,2.12169697 5.43830303,2.18375758 C5.19006061,2.24581818 5.06593939,2.49406061 5.19006061,2.74230303 C5.25212121,2.86642424 5.37624242,2.99054545 5.50036364,2.99054545 L5.56242424,3.05260606 C5.81066667,3.17672727 6.05890909,3.23878788 6.24509091,3.36290909 C5.93478788,3.4249697 5.68654545,3.54909091 5.37624242,3.61115152 C5.128,3.67321212 5.06593939,3.92145455 5.128,4.10763636 C5.19006061,4.23175758 5.25212121,4.35587879 5.37624242,4.41793939 C5.37624242,4.41793939 5.43830303,4.48 5.50036364,4.48 C5.74860606,4.60412121 5.99684848,4.66618182 6.1830303,4.79030303 C5.87272727,4.85236364 5.62448485,4.91442424 5.31418182,5.03854545 C5.128,5.10060606 5.00387879,5.28678788 5.06593939,5.5350303 C5.128,5.65915152 5.25212121,5.78327273 5.37624242,5.78327273 L5.43830303,5.84533333 C5.68654545,5.96945455 5.93478788,6.09357576 6.1830303,6.15563636 C5.87272727,6.21769697 5.56242424,6.34181818 5.25212121,6.40387879 C5.06593939,6.46593939 4.94181818,6.71418182 5.00387879,6.90036364 C5.06593939,7.08654545 5.19006061,7.14860606 5.37624242,7.14860606 C5.62448485,7.27272727 5.87272727,7.39684848 6.1830303,7.45890909 C5.87272727,7.5209697 5.56242424,7.64509091 5.25212121,7.76921212 C5.06593939,7.83127273 4.94181818,8.07951515 5.00387879,8.26569697 C5.00387879,8.32775758 5.00387879,8.32775758 5.06593939,8.38981818 L2.0249697,8.38981818 L2.0249697,9.75515152 L4.0729697,9.75515152 L4.0729697,27.2562424 L3.39030303,27.2562424 L3.39030303,28.6215758 L2.0249697,28.6215758 L2.0249697,29.9869091 L28.3386667,29.9869091 L28.3386667,28.6215758 L26.9733333,28.6215758 L26.9733333,27.2562424 L26.2906667,27.2562424 L26.2906667,9.75515152 L28.3386667,9.75515152 L28.3386667,9.75515152 Z M10.4652121,25.5185455 L14.2509091,19.3124848 L10.0307879,19.3124848 L19.8984242,11.8031515 L16.1127273,18.0092121 L20.3328485,18.0092121 L10.4652121,25.5185455 L10.4652121,25.5185455 Z" id="Shape"></path>
            </g>
        </g>
    </g>
</svg>