<?xml version="1.0" encoding="UTF-8" standalone="no"?>
<svg width="30px" height="28px" viewBox="0 0 30 28" version="1.1" xmlns="http://www.w3.org/2000/svg" xmlns:xlink="http://www.w3.org/1999/xlink">
    <!-- Generator: Sketch 46 (44423) - http://www.bohemiancoding.com/sketch -->
    <title>缓存管理</title>
    <desc>Created with Sketch.</desc>
    <defs></defs>
    <g id="Page-1" stroke="none" stroke-width="1" fill="none" fill-rule="evenodd">
        <g id="菜单栏icon" transform="translate(-525.000000, -30.000000)" fill="#FFFFFF">
            <g id="菜单栏">
                <g id="人行通道系统" transform="translate(480.000000, 0.000000)">
                    <path d="M73.2221536,34.100462 C74.2039297,34.100462 74.9998535,35.1410989 75,36.4248484 L75,55.6753231 C75,56.9590726 74.2040762,58 73.2221536,58 L46.7778464,58 C45.7959238,58 45,56.9590726 45,53.7863649 L45,34.100462 L45.0124512,34.100462 L45,32.3243449 C45.0001465,31.0405954 45.7960703,30 46.7778464,30 L56.0171033,30 C56.9086083,30 57.7411532,30.5824661 58.2358316,31.5523853 L59.799957,34.100462 L73.2221536,34.100462 Z M62.9009893,45.5915157 L66.4043534,45.5915157 L68,42.5954682 L66.9887469,41.9960474 L66.0989072,43.577623 C65.2698729,40.9216922 62.8441667,39 59.980954,39 C56.4333857,39 53.5574363,41.9514343 53.5574363,45.5915157 L55.3086451,45.5915157 C55.398749,42.899503 57.3448346,40.7983407 59.980954,40.7983407 C61.9562986,40.7983407 63.9268719,42.0379603 64.522977,44.3936524 L62.9009893,44.3936524 L62.9009893,45.5915157 Z M57.099129,46.4075451 L53.5956466,46.4075451 L52,49.4046883 L53.0112137,50.00407 L53.9010928,48.4224944 C54.7300877,51.0775251 57.1558333,53 60.0191643,53 C63.5665748,53 66.4425637,50.0487223 66.4425637,46.4075451 L64.6913154,46.4075451 C64.6012116,49.1004579 62.6553232,51.2018158 60.0191643,51.2018158 C58.0436619,51.2018158 56.0732858,49.9621962 55.477023,47.6063476 L57.099129,47.6063476 L57.099129,46.4075451 Z" id="缓存管理"></path>
                </g>
            </g>
        </g>
    </g>
</svg>