<?xml version="1.0" encoding="UTF-8" standalone="no"?>
<svg width="30px" height="30px" viewBox="0 0 30 30" version="1.1" xmlns="http://www.w3.org/2000/svg" xmlns:xlink="http://www.w3.org/1999/xlink">
    <!-- Generator: Sketch 46 (44423) - http://www.bohemiancoding.com/sketch -->
    <title>jiankong</title>
    <desc>Created with Sketch.</desc>
    <defs></defs>
    <g id="Page-1" stroke="none" stroke-width="1" fill="none" fill-rule="evenodd">
        <g id="jiankong" fill="#FFFFFF">
            <g id="监控-(4)" transform="translate(2.000000, 0.000000)">
                <g id="Group">
                    <path d="M25.9973047,12.9563672 C26.0069625,9.51261797 24.640745,6.20765466 22.2022616,3.77592682 C19.7637781,1.34419897 16.4550373,-0.0128444589 13.0113281,0.0063671875 C9.56761221,-0.0128549138 6.2588613,1.3441839 3.82036936,3.77591288 C1.38187742,6.20764187 0.0156545742,9.51261116 0.0253125,12.9563672 C0.0253125,18.5923828 3.6353125,23.3883984 8.68332031,25.1863672 C5.91929688,26.144375 4.11328125,27.9463672 4.11328125,29.984375 L21.5472656,29.984375 C21.5472656,27.944375 19.8652734,26.144375 17.2212891,25.1863672 C22.3933203,23.3903906 25.9972656,18.594375 25.9972656,12.9563672 L25.9973047,12.9563672 Z M13.2533203,22.0703906 C9.52332031,22.0703906 6.39730469,18.9503906 6.39730469,15.234375 C6.39730469,11.5183594 9.52332031,8.40039063 13.2533203,8.40039063 C15.0689645,8.39667838 16.8116324,9.11479078 18.0975502,10.3965837 C19.383468,11.6783766 20.1071757,13.4187283 20.1092969,15.234375 C20.1071854,17.050211 19.3835459,18.790777 18.0976846,20.0728946 C16.8118232,21.3550122 15.0691548,22.0735736 13.2533203,22.0703906 L13.2533203,22.0703906 Z" id="Shape"></path>
                    <path d="M13.0113281,12.2383594 C11.2073047,12.2383594 9.64730469,13.7983594 9.64730469,15.594375 C9.64730469,17.5123438 11.2073047,18.9503906 13.0113281,18.9503906 C14.8648044,18.9503906 16.3673437,17.4478512 16.3673437,15.594375 C16.3673437,13.7408988 14.8648044,12.2383594 13.0113281,12.2383594 L13.0113281,12.2383594 Z" id="Shape"></path>
                </g>
            </g>
        </g>
    </g>
</svg>