<?xml version="1.0" encoding="UTF-8" standalone="no"?>
<svg width="30px" height="27px" viewBox="0 0 30 27" version="1.1" xmlns="http://www.w3.org/2000/svg" xmlns:xlink="http://www.w3.org/1999/xlink">
    <!-- Generator: Sketch 46 (44423) - http://www.bohemiancoding.com/sketch -->
    <title>Page 1</title>
    <desc>Created with Sketch.</desc>
    <defs></defs>
    <g id="Page-1" stroke="none" stroke-width="1" fill="none" fill-rule="evenodd">
        <g id="菜单栏icon" transform="translate(-279.000000, -31.000000)" fill="#FFFFFF">
            <g id="菜单栏">
                <g id="供配电系统" transform="translate(240.000000, 0.000000)">
                    <path d="M56.1203262,45.5446105 C49.5104907,45.8058579 44.2295939,51.2832929 44.2295939,58 L69,58 C69,51.2832929 63.7191032,45.8058579 57.1091003,45.5446105 C60.8737568,45.2887961 63.848867,42.134833 63.848867,38.2808549 C63.848867,34.2597593 60.6100865,31 56.614776,31 C54.7446458,31 53.040225,31.7143345 51.7561032,32.8865153 C51.7624638,32.8447359 51.7657277,32.8019458 51.7657277,32.7583554 C51.7657277,32.2919595 51.3901199,31.9137131 50.9265523,31.9137131 C48.9725213,31.9137131 47.1355748,32.6795558 45.7538268,34.0702359 C44.3721207,35.460874 43.6111968,37.3097373 43.6111968,39.2763578 C43.6111968,41.2429783 44.3721207,43.0920101 45.7538268,44.4824796 C46.160526,44.8921448 46.6133393,45.2524076 47.103228,45.5559398 C46.8264599,45.6504067 46.5533325,45.7548551 46.284264,45.8693693 C44.8641435,46.4739487 43.5886419,47.3394808 42.4936213,48.4417485 C41.3984333,49.5438477 40.5385023,50.8275525 39.9377642,52.2568954 C39.3154754,53.7373675 39,55.3093161 39,56.929151 C39,57.3957575 39.3756497,57.7737934 39.8392173,57.7737934 C40.3026176,57.7737934 40.6782254,57.3957575 40.6782254,56.929151 C40.6782254,51.3922057 45.035753,46.8609133 50.4804761,46.6249778 C50.628401,46.6338643 50.777121,46.6389604 50.9265523,46.6389604 C51.3901199,46.6389604 51.7657277,46.260756 51.7657277,45.7943602 C51.7657277,45.7904012 51.7655604,45.7862738 51.7654348,45.7823149 C51.7655604,45.7782296 51.7657277,45.7742707 51.7657277,45.7701433 C51.7657277,45.3037474 51.3901199,44.9255431 50.9265523,44.9255431 C50.7848206,44.9255431 50.643591,44.9289966 50.5025289,44.9337557 C47.5916102,44.7149616 45.2896315,42.2611819 45.2896315,39.2763578 C45.2896315,36.1480856 47.8183307,33.6029977 50.9265523,33.6029977 C50.9794872,33.6028293 51.032464,33.5979017 51.0844364,33.5878359 C50.0216371,34.8551153 49.3805177,36.4925548 49.3805177,38.2808549 C49.3805177,42.134833 52.3556697,45.2887961 56.1203262,45.5446105" id="Page-1"></path>
                </g>
            </g>
        </g>
    </g>
</svg>