<?xml version="1.0" encoding="UTF-8" standalone="no"?>
<svg width="30px" height="28px" viewBox="0 0 30 28" version="1.1" xmlns="http://www.w3.org/2000/svg" xmlns:xlink="http://www.w3.org/1999/xlink">
    <!-- Generator: Sketch 46 (44423) - http://www.bohemiancoding.com/sketch -->
    <title>基础数据管理</title>
    <desc>Created with Sketch.</desc>
    <defs></defs>
    <g id="Page-1" stroke="none" stroke-width="1" fill="none" fill-rule="evenodd">
        <g id="菜单栏icon" transform="translate(-645.000000, -31.000000)" fill="#FFFFFF">
            <g id="菜单栏">
                <g id="视频监控" transform="translate(600.000000, 0.000000)">
                    <g id="基础数据管理" transform="translate(45.000000, 31.000000)">
                        <path d="M10.2701681,23.2116267 C10.2701681,23.0281956 10.4196639,22.8810607 10.6036555,22.8810607 L19.3011345,22.8810607 C19.4857983,22.8810607 19.6356303,23.0281956 19.6356303,23.2116267 L19.6356303,26.0184296 L25.3556723,26.0184296 L25.3556723,28 L4.48268908,28 L4.48268908,26.0184296 L10.2701681,26.0184296 L10.2701681,23.2116267 Z" id="数据管理"></path>
                        <path d="M28.2996218,21.8904 L1.67310924,21.8904 C0.74907563,21.8904 0,21.1508681 0,20.2393956 L0,1.71256296 C0,0.800302222 0.74907563,0.0615585185 1.67310924,0.0615585185 L28.2996218,0.0615585185 C29.2231933,0.0615585185 29.9719328,0.800302222 29.9719328,1.71256296 L29.9719328,20.2393956 C29.9719328,21.1508681 29.2231933,21.8904 28.2996218,21.8904 Z M21.3086134,18.1257896 L24.8539076,18.1257896 L24.8539076,7.95424 L21.3086134,7.95424 L21.3086134,18.1257896 Z M15.6547059,18.1257896 L19.2343277,18.1257896 L19.2343277,4.81687111 L15.6547059,4.81687111 L15.6547059,18.1257896 Z M10.0689496,18.1257896 L13.615084,18.1257896 L13.615084,11.1247941 L10.0689496,11.1247941 L10.0689496,18.1257896 Z M5.11831933,18.1257896 L8.66415966,18.1257896 L8.66415966,14.2283141 L5.11831933,14.2283141 L5.11831933,18.1257896 Z" id="Combined-Shape"></path>
                    </g>
                </g>
            </g>
        </g>
    </g>
</svg>