<?xml version="1.0" encoding="UTF-8" standalone="no"?>
<svg width="30px" height="30px" viewBox="0 0 30 30" version="1.1" xmlns="http://www.w3.org/2000/svg" xmlns:xlink="http://www.w3.org/1999/xlink">
    <!-- Generator: Sketch 46 (44423) - http://www.bohemiancoding.com/sketch -->
    <title>jishuipai</title>
    <desc>Created with Sketch.</desc>
    <defs></defs>
    <g id="Page-1" stroke="none" stroke-width="1" fill="none" fill-rule="evenodd">
        <g id="jishuipai" fill="#FFFFFF">
            <g id="给排水" transform="translate(0.000000, 1.000000)">
                <g id="Group">
                    <path d="M8.4728847,27.0968584 L8.4728847,24.829768 L21.7595471,24.829768 L21.7595471,27.0968584 L8.4728847,27.0968584 L8.4728847,27.0968584 Z" id="Shape"></path>
                    <path d="M0.0260276392,5.45461604 C0.123492428,4.98182121 0.299790535,4.55080193 0.706606036,4.25721104 C0.85705941,4.14866993 1.02744331,4.06778542 1.23953432,3.94481776 L1.23953432,4.93539638 L2.08789847,4.93539638 L2.08789847,3.55991559 L2.51255916,3.55991559 L2.51255916,7.75401241 L2.10946998,7.75401241 L2.10946998,6.46601405 L1.2550207,6.46601405 L1.2550207,7.21780226 C0.749817394,7.06871636 0.417903808,6.76880101 0.214325145,6.33207264 C0.126056425,6.1427838 0.0872893096,5.93045345 0.0260276726,5.72861826 C0.0260276392,5.63723856 0.0260276392,5.54592732 0.0260276392,5.45461604 L0.0260276392,5.45461604 Z" id="Shape"></path>
                    <path d="M23.5983189,9.93697066 L20.07075,9.93697066 L20.07075,23.7918415 L10.5329095,23.7918415 L10.5329095,9.93615017 L6.71068991,9.93615017 L6.71068991,1.05171003 C6.79020695,1.04791537 6.86418585,1.04135161 6.93813053,1.04128326 C8.77922703,1.04073628 10.6202893,1.0374886 12.4613517,1.04220628 C13.4789716,1.04483863 14.2702448,1.46720883 14.7658076,2.3689034 C14.9121586,2.63528208 14.9868554,2.94100904 15.0882516,3.21220797 C15.1796312,2.74231898 15.3597924,2.28258331 15.7050386,1.89689486 C16.2057293,1.33743808 16.8353361,1.05095793 17.5772103,1.04654793 C19.5170707,1.03512976 21.4570336,1.04251396 23.3969966,1.03889021 C23.5394504,1.03854835 23.6182837,1.05642772 23.6179418,1.23245235 C23.6129848,4.0853571 23.6143864,6.93819347 23.6136686,9.79113241 C23.6137027,9.82795096 23.6062501,9.86470109 23.5983189,9.93697066 L23.5983189,9.93697066 Z" id="Shape"></path>
                    <path d="M3.23583605,0.0304322272 L5.85877039,0.0304322272 L5.85877039,11.1800142 C5.77142472,11.1839456 5.69703558,11.1902359 5.62264647,11.1903042 C4.9150952,11.1910221 4.20744134,11.1836037 3.50009519,11.1952612 C3.29511488,11.1986798 3.22999022,11.1475715 3.23081068,10.932096 C3.23904955,8.75624846 3.23587022,6.58029839 3.23583605,4.40438248 L3.23583605,0.318826804 L3.23583605,0.0304322272 L3.23583605,0.0304322272 Z" id="Shape"></path>
                    <path d="M24.3010841,0.0300903675 L26.9047717,0.0300903675 L26.9047717,11.1700318 L24.3010841,11.1700318 L24.3010841,0.0300903675 L24.3010841,0.0300903675 Z" id="Shape"></path>
                    <path d="M28.7728069,7.31895912 L28.7728069,6.37986488 L27.9256051,6.37986488 L27.9256051,7.74946563 L27.4989958,7.74946563 L27.4989958,3.55406977 L27.9105974,3.55406977 L27.9105974,4.85013608 L28.7715079,4.85013608 L28.7715079,4.11263769 C29.4324976,4.25577521 29.9506232,4.93943035 29.9731178,5.66092961 C29.9964327,6.41029056 29.5049722,7.10902183 28.7728069,7.31895912 L28.7728069,7.31895912 Z" id="Shape"></path>
                </g>
            </g>
        </g>
    </g>
</svg>