<?xml version="1.0" encoding="UTF-8" standalone="no"?>
<svg width="30px" height="30px" viewBox="0 0 30 30" version="1.1" xmlns="http://www.w3.org/2000/svg" xmlns:xlink="http://www.w3.org/1999/xlink">
    <!-- Generator: Sketch 46 (44423) - http://www.bohemiancoding.com/sketch -->
    <title>kongtiao</title>
    <desc>Created with Sketch.</desc>
    <defs></defs>
    <g id="Page-1" stroke="none" stroke-width="1" fill="none" fill-rule="evenodd">
        <g id="kongtiao" fill="#FFFFFF">
            <g id="空调" transform="translate(0.000000, 4.000000)">
                <g id="Group">
                    <path d="M28.4529714,0.0205122485 L15.0091802,0.0205122485 L1.56535882,0.0205122485 C1.56535882,0.0205122485 0.0257673964,0.250483669 0.0257673964,8.04877322 C0.0257673964,15.8470628 0.860700473,15.5651995 1.56535882,15.8940198 L3.86728308,15.8940198 L3.86728308,13.2632752 L15.0092105,13.2632752 L26.1510774,13.2632752 L26.1510774,15.8940198 L28.4530016,15.8940198 C29.15766,15.5651692 29.992593,15.8470628 29.992593,8.04877322 C29.992593,0.250483669 28.4529714,0.0205122485 28.4529714,0.0205122485 L28.4529714,0.0205122485 Z M22.9871539,8.09576053 L2.73982973,8.09576053 L2.73982973,5.57449148 L22.9871842,5.57449148 L22.9871539,8.09576053 L22.9871539,8.09576053 L22.9871539,8.09576053 Z M26.3316697,7.66606275 C25.8536222,7.66606275 25.466098,7.27853852 25.466098,6.80049104 C25.466098,6.32244355 25.8536222,5.93491932 26.3316697,5.93491932 C26.8097172,5.93491932 27.1972414,6.32244355 27.1972414,6.80049104 C27.1972414,7.27853852 26.8096869,7.66606275 26.3316697,7.66606275 L26.3316697,7.66606275 Z" id="Shape"></path>
                    <polygon id="Shape" points="4.59825068 14.657878 25.5051532 14.657878 25.5051532 15.8479105 4.59825068 15.8479105 4.59825068 14.657878"></polygon>
                    <path d="M5.55095479,17.4424517 L5.55095479,21.4588377 C5.55095479,21.4588377 6.88976021,20.5075867 7.03069189,17.4424517 L5.55095479,17.4424517 L5.55095479,17.4424517 Z" id="Shape"></path>
                    <path d="M4.79149811,20.7648059 C4.79149811,20.7648059 5.07175683,22.3756958 5.19185908,22.8713938 C5.19185908,22.8713938 5.99258104,22.0059129 6.55306825,21.3653172 C6.55306825,21.3653474 5.47208754,21.4854497 4.79149811,20.7648059 L4.79149811,20.7648059 Z" id="Shape"></path>
                    <path d="M10.6416609,17.4382434 L10.6416609,21.4546294 C10.6416609,21.4546294 11.9804663,20.5033785 12.121398,17.4382434 L10.6416609,17.4382434 L10.6416609,17.4382434 Z" id="Shape"></path>
                    <path d="M9.88220423,20.7605977 C9.88220423,20.7605977 10.162463,22.3714875 10.2825652,22.8671855 C10.2825652,22.8671855 11.0832872,22.0017046 11.6437744,21.3611089 C11.6437744,21.3611089 10.5627937,21.4812111 9.88220423,20.7605977 L9.88220423,20.7605977 Z" id="Shape"></path>
                    <path d="M18.8832116,17.4382434 L18.8832116,21.4546294 C18.8832116,21.4546294 17.5444062,20.5033785 17.4034745,17.4382434 L18.8832116,17.4382434 L18.8832116,17.4382434 Z" id="Shape"></path>
                    <path d="M19.6426986,20.7605977 C19.6426986,20.7605977 19.3624399,22.3714875 19.2423376,22.8671855 C19.2423376,22.8671855 18.4416157,22.0017046 17.8811284,21.3611089 C17.8810982,21.3611089 18.9620788,21.4812111 19.6426986,20.7605977 L19.6426986,20.7605977 Z" id="Shape"></path>
                    <path d="M23.6938407,17.4382434 L23.6938407,21.4546294 C23.6938407,21.4546294 22.3550352,20.5033785 22.2141036,17.4382434 L23.6938407,17.4382434 L23.6938407,17.4382434 Z" id="Shape"></path>
                    <path d="M24.4532973,20.7605977 C24.4532973,20.7605977 24.1730386,22.3714875 24.0529364,22.8671855 C24.0529364,22.8671855 23.2522144,22.0017046 22.6917272,21.3611089 C22.6917272,21.3611089 23.7726776,21.4812111 24.4532973,20.7605977 L24.4532973,20.7605977 Z" id="Shape"></path>
                </g>
            </g>
        </g>
    </g>
</svg>