<?xml version="1.0" encoding="UTF-8" standalone="no"?>
<svg width="20px" height="20px" viewBox="0 0 20 20" version="1.1" xmlns="http://www.w3.org/2000/svg" xmlns:xlink="http://www.w3.org/1999/xlink">
    <!-- Generator: Sketch 46 (44423) - http://www.bohemiancoding.com/sketch -->
    <title>kunren</title>
    <desc>Created with Sketch.</desc>
    <defs></defs>
    <g id="Page-1" stroke="none" stroke-width="1" fill="none" fill-rule="evenodd">
        <g id="设施设备管理系统框架设计--copy-4" transform="translate(-830.000000, -460.000000)" fill-rule="nonzero" fill="#F37B7B">
            <g id="Group-11" transform="translate(240.000000, 100.000000)">
                <g id="kunren" transform="translate(590.000000, 360.000000)">
                    <path d="M7.32308375,1.16378054 L12.6189443,1.16378054 L12.6189443,2.35717867 L7.32308375,2.35717867 L7.32308375,1.16378054 Z M7.32308375,17.667218 L12.6189443,17.667218 L12.6189443,18.8612243 L7.32308375,18.8612243 L7.32308375,17.667218 Z M9.35690377,6.77741206 C9.16643939,7.62564981 9.67505768,8.47370737 10.4932932,8.67117677 C11.3120243,8.8684885 12.1290436,8.34137787 12.3197332,7.4926671 C12.5104454,6.64442935 12.0016018,5.79666461 11.1833663,5.59887986 C10.3653559,5.40111765 9.54736816,5.92917429 9.35690377,6.77741206 L9.35690377,6.77741206 Z M11.215283,9.87417021 C11.3894174,9.87417021 11.572201,9.86216483 11.7596472,9.84009113 L11.6777943,9.63509866 C11.5570873,9.33604526 11.2899281,9.12961122 10.9798153,9.09647815 C10.6697025,9.06336762 10.3665497,9.20930172 10.1912216,9.47668616 L10.0590948,9.67685846 C10.3972727,9.8069806 10.7839451,9.87322417 11.215283,9.87417021 L11.215283,9.87417021 Z" id="Shape"></path>
                    <path d="M8.24643962,14.3558721 C8.5056703,14.3526286 8.70464883,14.3380104 8.84456898,14.2512247 C9.01762219,14.1939683 9.17580943,14.0793653 9.28644816,13.9109971 L9.28620038,13.9109971 L10.6833747,11.7879364 L11.4761579,13.7650405 C11.6115507,14.1017994 11.9254701,14.3053503 12.2567106,14.3053503 C12.365187,14.3053503 12.4749022,14.2834794 12.5812163,14.2377778 C13.0115631,14.0518633 13.2160826,13.5391681 13.0365424,13.0917705 L12.2742344,11.1909332 C11.8976302,11.2567038 11.5308692,11.2902874 11.1852357,11.2902874 L11.1756405,11.2902874 C10.3480348,11.2902874 9.71053325,11.0997103 9.2412872,10.8688151 L9.21729896,10.905597 C9.21993429,10.8909113 9.22281738,10.8760228 9.22497969,10.8611118 C9.01255423,10.7550455 8.83495115,10.6412534 8.69021082,10.533723 C8.17560108,10.1519158 7.94303903,9.75751753 7.90139184,9.68212913 C7.81055186,9.51506735 7.78750964,9.32210278 7.83647719,9.13823797 C7.88544475,8.95437315 8.00124151,8.80075831 8.16195145,8.70667485 C8.26456888,8.64596892 8.38162117,8.61397131 8.50085012,8.61403294 C8.74568785,8.61403294 8.97381267,8.74989874 9.09706492,8.96908146 L9.10307888,8.97838393 C9.12268912,9.00742606 9.14375352,9.03545931 9.16619161,9.06237657 C9.22727715,9.13774245 9.3341994,9.25248056 9.49263442,9.37010178 C9.49574275,9.37248933 9.49934662,9.37442643 9.50247749,9.37634098 C9.5521658,8.76717478 9.29509745,8.15012513 8.80738156,8.02405734 C8.23013212,7.87476715 7.39353936,8.19974587 7.053064,9.22657777 C6.59280509,10.6412759 6.4935636,11.5613432 6.66902688,13.11925 C6.88023603,14.2483417 7.62646182,14.364161 8.24643962,14.3558721" id="Shape"></path>
                    <path d="M12.1156192,9.94570697 C11.7821038,10.0047653 11.4829152,10.0294293 11.2150578,10.0294293 C10.3170191,10.0273346 9.76844288,9.75850858 9.42702151,9.50887321 C9.25743704,9.38262524 9.14150513,9.25973335 9.07118467,9.17283509 C9.03591181,9.13012925 9.01262183,9.09602767 8.99917489,9.07634156 C8.99268793,9.06721927 8.9895796,9.06145309 8.98789027,9.05841231 C8.98764251,9.05762396 8.98764251,9.05762396 8.98764251,9.05715096 L8.98692173,9.05715096 C8.83715852,8.79073506 8.50880115,8.69809315 8.24957047,8.85024392 C7.98817748,9.00433178 7.89600857,9.3477578 8.04410499,9.61879116 C8.07194485,9.66967327 8.28869496,10.0503543 8.79490318,10.4257421 C9.2977553,10.8006569 10.0938946,11.1573272 11.2054625,11.1573272 L11.2150578,11.1573272 C11.5472442,11.1573272 11.9084869,11.1261087 12.2982902,11.056982 C12.5939875,11.0051539 12.793439,10.7137587 12.7428047,10.4070245 C12.6926208,10.0997948 12.4115417,9.8933833 12.1156192,9.94570697" id="Shape"></path>
                    <path d="M15.813142,3.52656605 C15.929682,3.64080865 15.9878845,3.7848282 15.9878845,3.95957071 L15.9878845,15.954435 C15.9878845,16.1288171 15.9296821,16.2731745 15.813142,16.3870792 C15.6967371,16.5013218 15.5546321,16.558353 15.3859035,16.558353 L4.30335828,16.558353 C4.13535049,16.558353 3.99252471,16.5013444 3.87611981,16.3870792 C3.75994014,16.2731745 3.7013773,16.1288171 3.70137728,15.954435 L3.70137728,3.95954819 C3.70137728,3.78480568 3.75994012,3.64080865 3.87611981,3.52654354 C3.99252471,3.41277394 4.13535049,3.35565265 4.30335828,3.35565263 L15.3859035,3.35565263 C15.5546321,3.35565263 15.6967371,3.41277394 15.813142,3.52656605 L15.813142,3.52656605 Z M15.0172279,4.36182989 L4.67203391,4.36182989 L4.67203391,15.5521533 L15.0172279,15.5521533 L15.0172279,4.36182989 L15.0172279,4.36182989 Z" id="Shape"></path>
                    <path d="M0.0133146032,0.12447024 L2.57579942,0.12447024 L2.57579942,19.6824555 L0.0133146032,19.6824555 L0.0133146032,0.12447024 Z M17.1649526,0.0198229332 L19.6759247,0.0198229332 L19.6759247,19.5781686 L17.1649526,19.5781686 L17.1649526,0.0198229332 Z" id="Shape"></path>
                </g>
            </g>
        </g>
    </g>
</svg>