<?xml version="1.0" encoding="UTF-8" standalone="no"?>
<svg width="20px" height="20px" viewBox="0 0 20 20" version="1.1" xmlns="http://www.w3.org/2000/svg" xmlns:xlink="http://www.w3.org/1999/xlink">
    <!-- Generator: Sketch 46 (44423) - http://www.bohemiancoding.com/sketch -->
    <title>lengji</title>
    <desc>Created with Sketch.</desc>
    <defs></defs>
    <g id="Page-1" stroke="none" stroke-width="1" fill="none" fill-rule="evenodd">
        <g id="设施设备管理系统框架设计--copy-4" transform="translate(-541.000000, -930.000000)" fill-rule="nonzero" fill="#4386D2">
            <g id="Group-11" transform="translate(240.000000, 100.000000)">
                <g id="Group-12" transform="translate(301.000000, 830.000000)">
                    <g id="lengji">
                        <path d="M16.560543,15.1322172 L16.560543,8.60039216 L15.6233183,8.60039216 L15.6233183,9.06650075 L12.3355354,9.06650075 L12.3355354,8.34048265 L11.946908,8.34048265 C11.946908,8.34048265 12.3580392,4.65405732 9.6288537,4.79277526 C9.42889894,4.80276018 9.19022624,4.76778281 9.00653092,4.83650075 L8.59414781,3.93425339 L7.18832579,3.93425339 L7.18832579,4.40036199 L6.25110106,4.40036199 L6.25110106,4.86647059 L3.43942685,4.86647059 L3.43942685,4.40036199 L2.50220211,4.40036199 L2.50220211,7.66690799 L3.43942685,7.66690799 L3.43942685,7.2007994 L6.25110106,7.2007994 L6.25110106,7.66690799 L7.18832579,7.66690799 L7.18832579,8.13301659 L8.59414781,8.13301659 L9.0415083,7.24328808 C9.0415083,7.36075415 9.04527903,7.47072398 9.06776772,7.56319759 L9.53137255,7.56319759 L9.53137255,8.34048265 L9.11024133,8.34048265 L9.11024133,9.06650075 L4.3766365,9.06650075 L4.3766365,8.60039216 L3.43941176,8.60039216 L3.43941176,10.4673303 L2.50218703,10.4673303 L2.50218703,12.8003922 L3.43941176,12.8003922 L3.43941176,15.133454 L2.50218703,15.133454 L2.50218703,16.0669231 L17.4977376,16.0669231 L17.4977376,15.133454 L16.5605128,15.133454 L16.560543,15.1322172 Z M4.37666667,14.2 L15.6233333,14.2 L15.6233333,15.1334691 L4.37666667,15.1334691 L4.37666667,14.2 Z" id="Shape"></path>
                        <path d="M17.7301357,0.00297134238 L2.27012066,0.00297134238 C1.0180543,0.00297134238 0.00295625943,1.01536953 0.00295625943,2.26402715 L0.00295625943,17.7362293 C0.00295625943,18.9848869 1.01803922,19.9972851 2.27012066,19.9972851 L17.7301357,19.9972851 C18.9822021,19.9972851 19.9973002,18.9848869 19.9973002,17.7362293 L19.9973002,2.26399698 C19.9970437,1.01533937 18.9822172,0.00294117647 17.7301357,0.00294117647 L17.7301357,0.00297134238 Z M18.3346757,17.7359729 C18.3346757,18.0683861 18.0634992,18.3388235 17.7301207,18.3388235 L2.27010558,18.3388235 C1.936727,18.3388235 1.66553544,18.0683861 1.66553544,17.7359729 L1.66553544,2.26374057 C1.66553544,1.9313273 1.93671192,1.66088989 2.27010558,1.66088989 L17.7301508,1.66088989 C18.0635294,1.66088989 18.3347059,1.9313273 18.3347059,2.05552036 L18.3347059,17.7359578 L18.3346757,17.7359729 Z" id="Shape"></path>
                    </g>
                </g>
            </g>
        </g>
    </g>
</svg>