<?xml version="1.0" encoding="UTF-8" standalone="no"?>
<svg width="30px" height="30px" viewBox="0 0 30 30" version="1.1" xmlns="http://www.w3.org/2000/svg" xmlns:xlink="http://www.w3.org/1999/xlink">
    <!-- Generator: Sketch 48.2 (47327) - http://www.bohemiancoding.com/sketch -->
    <title>LORA</title>
    <desc>Created with Sketch.</desc>
    <defs></defs>
    <g id="政府首页-copy" stroke="none" stroke-width="1" fill="none" fill-rule="evenodd" transform="translate(-1005.000000, -26.000000)">
        <g id="菜单栏" transform="translate(240.000000, 0.000000)" fill="#FFFFFF" fill-rule="nonzero">
            <g id="暖通空调" transform="translate(720.000000, 0.000000)">
                <g id="LORA" transform="translate(45.000000, 26.000000)">
                    <path d="M-1.10359418e-13,27.4731512 C-1.10359418e-13,28.8530341 1.11763902,29.9707317 2.49758049,29.9707317 L27.4732098,29.9707317 C28.8530927,29.9707317 29.9707902,28.8530927 29.9707902,27.4731512 L29.9707317,20.604878 C29.9707317,19.2249951 28.8530927,18.1072976 27.4731512,18.1072976 L19.9804683,18.1072976 L19.9804683,11.5512 C19.9804683,10.6895415 19.2811317,9.99020488 18.4194732,9.99020488 C17.5578146,9.99020488 16.8585366,10.6895415 16.8585366,11.5512 L16.8585366,18.1072976 L2.49758049,18.1072976 C1.11769756,18.1072976 -1.13686838e-13,19.2249366 -1.13686838e-13,20.604878 L-1.10359418e-13,27.4731512 Z M3.12193171,24.0390439 C3.12193171,23.1773854 3.82126829,22.4780488 4.68292683,22.4780488 C5.54458537,22.4780488 6.24392195,23.1773854 6.24392195,24.0390439 C6.24392195,24.9007024 5.54458537,25.5999805 4.68292683,25.5999805 C3.82126829,25.5999805 3.12193171,24.9007024 3.12193171,24.0390439 Z M8.7414439,24.0390439 C8.7414439,23.1773854 9.44078049,22.4780488 10.302439,22.4780488 C11.1640976,22.4780488 11.8634341,23.1773854 11.8634341,24.0390439 C11.8634341,24.9007024 11.1640976,25.5999805 10.302439,25.5999805 C9.44078049,25.5999805 8.7414439,24.9007024 8.7414439,24.0390439 Z M18.4195317,4.99510244 C14.7980488,4.99510244 11.8634341,7.92977561 11.8634341,11.5512 C11.8634341,12.4128585 12.5627707,13.1121951 13.4244293,13.1121951 C14.2860878,13.1121951 14.9854244,12.4128585 14.9854244,11.5512 C14.9854244,9.65303415 16.5214244,8.11703415 18.4195902,8.11703415 C20.3177561,8.11703415 21.8537561,9.65303415 21.8537561,11.5512 C21.8537561,12.4128585 22.5530927,13.1121951 23.4147512,13.1121951 C24.2764098,13.1121951 24.9757463,12.4128585 24.9757463,11.5512 C24.9756293,7.92977561 22.0409561,4.99510244 18.4195317,4.99510244 Z M18.4195317,0 C12.0382244,0 6.86827317,5.16995122 6.86827317,11.5512 C6.86827317,12.4128585 7.56760976,13.1121951 8.42926829,13.1121951 C9.29092683,13.1121951 9.99026341,12.4128585 9.99026341,11.5512 C9.99026341,6.89326829 13.7615415,3.12193171 18.4195317,3.12193171 C23.077522,3.12193171 26.8488,6.89326829 26.8488,11.5512 C26.8488,12.4128585 27.5481366,13.1121951 28.4097951,13.1121951 C29.2714537,13.1121951 29.9707902,12.4128585 29.9707902,11.5512 C29.9707317,5.16995122 24.8014244,0 18.4195317,0 Z" id="Shape"></path>
                </g>
            </g>
        </g>
    </g>
</svg>