<?xml version="1.0" encoding="UTF-8" standalone="no"?>
<svg width="20px" height="20px" viewBox="0 0 20 20" version="1.1" xmlns="http://www.w3.org/2000/svg" xmlns:xlink="http://www.w3.org/1999/xlink">
    <!-- Generator: Sketch 46 (44423) - http://www.bohemiancoding.com/sketch -->
    <title>nuanlu</title>
    <desc>Created with Sketch.</desc>
    <defs></defs>
    <g id="Page-1" stroke="none" stroke-width="1" fill="none" fill-rule="evenodd" opacity="0.701201026">
        <g id="设施设备管理系统框架设计--copy-4" transform="translate(-728.000000, -930.000000)" fill-rule="nonzero" fill="#E8C168">
            <g id="Group-11" transform="translate(240.000000, 100.000000)">
                <g id="Group-31" transform="translate(488.000000, 830.000000)">
                    <g id="nuanlu">
                        <path d="M18.4150136,9.79512262 L18.4150136,9.15967302 C18.4150136,8.23555858 17.6632153,7.48250681 16.7379837,7.48250681 L14.989891,7.48250681 C14.0646594,7.48250681 13.3127248,8.23558583 13.3127248,9.15967302 L13.3127248,9.46029973 L12.1562943,9.46029973 L12.1562943,9.15967302 C12.1562943,8.23558583 11.4047139,7.48250681 10.4790191,7.48250681 L8.73128065,7.48250681 C7.80591281,7.48250681 7.05411444,8.23558583 7.05411444,9.15967302 L7.05411444,9.46029973 L5.89653951,9.46029973 L5.89653951,9.15967302 C5.89653951,8.23558583 5.14474114,7.48250681 4.2193733,7.48250681 L2.47141689,7.48250681 C1.54618529,7.48250681 0.794359673,8.23558583 0.794359673,9.15967302 L0.794359673,9.7853406 C0.327438692,10.1131608 0.020599455,10.6505722 0.020599455,11.2620163 L0.020599455,12.4404905 C0.020599455,13.0514714 0.327384196,13.5920708 0.794359673,13.9171662 L0.794359673,18.3153678 C0.794359673,19.2393733 1.54615804,19.9909809 2.47141689,19.9909809 L4.2193733,19.9909809 C5.14474114,19.9909809 5.89653951,19.2392916 5.89653951,18.3153678 L5.89653951,14.2422616 L7.05411444,14.2422616 L7.05411444,18.3153678 C7.05411444,19.2393733 7.80591281,19.9909809 8.73128065,19.9909809 L10.4792371,19.9909809 C11.4047956,19.9909809 12.1565123,19.2392916 12.1565123,18.3153678 L12.1565123,14.2422616 L13.3126975,14.2422616 L13.3126975,18.3153678 C13.3126975,19.2393733 14.0646049,19.9909809 14.9898638,19.9909809 L16.7379564,19.9909809 C17.663188,19.9909809 18.4150136,19.2392916 18.4150136,18.3153678 L18.4150136,13.9098093 C18.8758583,13.5820708 19.1789918,13.0468392 19.1789918,12.4405995 L19.1789918,11.2623433 C19.1789918,10.6555313 18.8758856,10.1201635 18.4150136,9.79506812 L18.4150136,9.79512262 Z M7.05441417,12.9905722 L5.89683924,12.9905722 L5.89683924,10.7119619 L7.05441417,10.7119619 L7.05441417,12.9905722 Z M13.312752,12.9905722 L12.1563215,12.9905722 L12.1563215,10.7119619 L13.312752,10.7119619 L13.312752,12.9905722 Z M15.4044414,6.88722071 C15.4044687,6.88722071 15.4044959,6.88722071 15.4045232,6.88722071 C15.5642507,6.88722071 15.7100545,6.82735695 15.8206267,6.72882834 C16.0791008,6.49975477 16.1010627,6.10378747 15.8725613,5.84449591 C15.4753951,5.39975477 15.2994278,4.99119891 15.3469755,4.63324251 C15.41297,4.13803815 15.8946322,3.82040872 15.9911717,3.7446594 C16.7745777,3.01117166 17.1059946,2.27776567 16.9764305,1.56389646 C16.7920436,0.552997275 15.7614986,0.0995095368 15.6439237,0.050626703 C15.573297,0.0205177112 15.4911444,0.0029972752 15.4048774,0.0029972752 C15.1475477,0.0029972752 14.9265668,0.158910082 14.8313896,0.381444142 C14.7992098,0.456975477 14.7813624,0.540163488 14.7813624,0.627493188 C14.7813624,0.884577657 14.9358038,1.10561308 15.1569755,1.20283379 C15.2957493,1.26316076 15.6941689,1.49659401 15.7454223,1.79114441 C15.7908447,2.05149864 15.5744959,2.42073569 15.2319074,2.7580109 C15.1329428,2.82040872 14.260218,3.3926703 14.1086921,4.44711172 C14.0021526,5.18915531 14.2811444,5.93961853 14.936158,6.67809264 C15.0518256,6.8066485 15.2187738,6.88716621 15.4045232,6.88716621 L15.4044414,6.88722071 Z M9.64095368,6.88722071 C9.80079019,6.88719346 9.94659401,6.82735695 10.057248,6.72880109 C10.3157766,6.49972752 10.3376294,6.10381471 10.1091281,5.84449591 C9.71185286,5.39975477 9.53588556,4.99119891 9.58343324,4.63326975 C9.6493188,4.1380654 10.1311717,3.82043597 10.2276294,3.74468665 C11.0109264,3.01114441 11.3422071,2.27779292 11.2126431,1.56392371 C11.0282561,0.553024523 9.99771117,0.0995640327 9.88021798,0.050653951 C9.56365123,-0.0813351499 9.20188011,0.0689100817 9.06613079,0.385531335 C9.03542234,0.457029973 9.01760218,0.540245232 9.01760218,0.627629428 C9.01760218,0.884713896 9.17209809,1.10569482 9.393297,1.20291553 C9.53179837,1.26324251 9.93035422,1.49667575 9.98160763,1.79122616 C10.027139,2.05160763 9.8106812,2.42081744 9.46822888,2.75809264 C9.3693733,2.82049046 8.49643052,3.39275204 8.34490463,4.44719346 C8.23855586,5.18923706 8.51719346,5.93975477 9.17242507,6.67820163 C9.28820163,6.80673025 9.45520436,6.88722071 9.64100817,6.8872752 L9.64095368,6.88722071 Z M3.68057221,6.88722071 C3.68057221,6.88722071 3.68057221,6.88722071 3.68057221,6.88722071 C3.84038147,6.88722071 3.98618529,6.82735695 4.09686649,6.72882834 C4.3553406,6.49975477 4.3772752,6.10378747 4.14877384,5.84449591 C3.75149864,5.39975477 3.57553134,4.99119891 3.62324251,4.63324251 C3.68923706,4.13803815 4.17089918,3.82040872 4.26743869,3.7446594 C5.05095368,3.01117166 5.38226158,2.27776567 5.25269755,1.56389646 C5.06809264,0.552997275 4.03765668,0.0995095368 3.92027248,0.050626703 C3.60370572,-0.0813623978 3.24070845,0.0688828338 3.10618529,0.385504087 C3.07547684,0.457002725 3.05765668,0.540217984 3.05765668,0.62760218 C3.05765668,0.884686649 3.21215259,1.10566757 3.4333515,1.20288828 C3.57188011,1.26321526 3.97029973,1.4966485 4.02171662,1.79119891 C4.06700272,2.05155313 3.85065395,2.42079019 3.50833787,2.7580654 C3.40926431,2.82046322 2.53653951,3.3927248 2.38512262,4.44716621 C2.27877384,5.18918256 2.55741144,5.93972752 3.21264305,6.67814714 C3.32817439,6.806703 3.49504087,6.88722071 3.6806812,6.88722071 L3.68057221,6.88722071 Z" id="Shape"></path>
                    </g>
                </g>
            </g>
        </g>
    </g>
</svg>