<?xml version="1.0" encoding="UTF-8" standalone="no"?>
<svg width="30px" height="30px" viewBox="0 0 30 30" version="1.1" xmlns="http://www.w3.org/2000/svg" xmlns:xlink="http://www.w3.org/1999/xlink">
    <!-- Generator: Sketch 46 (44423) - http://www.bohemiancoding.com/sketch -->
    <title>renxing</title>
    <desc>Created with Sketch.</desc>
    <defs></defs>
    <g id="Page-1" stroke="none" stroke-width="1" fill="none" fill-rule="evenodd">
        <g id="renxing" fill-rule="nonzero" fill="#FFFFFF">
            <path d="M16.2331637,8.36160477 C15.66143,8.36160477 15.120963,8.24993805 14.6117627,8.02660459 C14.1025624,7.80327113 13.6603622,7.50400429 13.285162,7.12880408 C12.9099618,6.75360386 12.6106949,6.31140361 12.3873615,5.80220331 C12.164028,5.29300302 12.0523613,4.75253604 12.0523613,4.18080239 C12.0523613,3.60906873 12.164028,3.06860176 12.3873615,2.55940146 C12.6106949,2.05020117 12.9099618,1.60800091 13.285162,1.2328007 C13.6603622,0.857600481 14.1025624,0.558333644 14.6117627,0.335000187 C15.120963,0.111666729 15.66143,-9.07372847e-16 16.2331637,0 C16.8048973,9.07372847e-16 17.3453643,0.111666729 17.8545646,0.335000187 C18.3637649,0.558333644 18.8059651,0.857600481 19.1811653,1.2328007 C19.5563656,1.60800091 19.8511657,2.05020117 20.0655658,2.55940146 C20.279966,3.06860176 20.387166,3.60906873 20.387166,4.18080239 C20.387166,4.75253604 20.279966,5.29300302 20.0655658,5.80220331 C19.8511657,6.31140361 19.5563656,6.75360386 19.1811653,7.12880408 C18.8059651,7.50400429 18.3637649,7.80327113 17.8545646,8.02660459 C17.3453643,8.24993805 16.8048973,8.36160477 16.2331637,8.36160477 L16.2331637,8.36160477 Z M22.182767,12.1136069 C22.6651673,12.4709404 23.0627009,12.8863407 23.3753677,13.3598076 C23.6880346,13.8332745 23.844368,14.3112082 23.844368,14.7936084 L23.844368,17.44681 C23.844368,17.7505435 23.6701679,17.9828103 23.3217677,18.1436104 C22.9733675,18.3044104 22.589234,18.3848105 22.169367,18.3848105 C21.7495001,18.3848105 21.3653666,18.3088771 21.0169664,18.1570104 C20.6685662,18.0051436 20.4943661,17.7594768 20.4943661,17.4200099 L20.4943661,16.2944093 C20.4943661,16.0264091 20.413966,15.825409 20.2531659,15.6914089 C20.0923658,15.5574089 19.9315657,15.4457421 19.7707657,15.3564088 C19.5920989,15.2670754 19.3866321,15.3072754 19.1543653,15.4770088 C18.9220985,15.6467422 18.8059651,15.9370757 18.8059651,16.3480093 L18.8059651,23.4232134 C18.8059651,23.8520136 18.9488985,24.2450805 19.2347654,24.6024141 C19.5206322,24.9597476 19.8690324,25.2902811 20.2799659,25.5940146 C20.6372995,25.8441481 20.941033,26.0942816 21.1911665,26.3444151 L22.075567,27.2288156 C22.182767,27.3360156 22.222967,27.5012824 22.196167,27.7246158 C22.169367,27.9479493 22.0934336,28.1846828 21.9683669,28.4348162 C21.8433002,28.6849497 21.6869667,28.9350832 21.4993666,29.1852167 C21.3117665,29.4353502 21.1018331,29.6318836 20.8695663,29.774817 C20.6372994,29.9177504 20.400566,29.9892172 20.1593659,29.9892172 C19.9181657,29.9892172 19.6903656,29.8730838 19.4759655,29.640817 C19.1543653,29.3013501 18.8952985,29.0288833 18.698765,28.8234165 C18.5022316,28.6179497 18.3280315,28.4348162 18.1761647,28.2740162 C18.024298,28.1132161 17.8679646,27.9613493 17.7071645,27.8184159 C17.5463644,27.6754824 17.3498309,27.478949 17.1175641,27.2288155 C16.6530305,26.7642819 16.255497,26.1702149 15.9249634,25.4466145 C15.5944299,24.7230141 15.4291631,24.0038804 15.4291632,23.2892133 L15.4291632,21.1184121 C15.214763,21.3864122 15.0316296,21.6008123 14.8797628,21.7616124 C14.7278961,21.9224125 14.553696,22.1904127 14.3571625,22.5656129 C14.2856958,22.7085463 14.2142291,22.8961464 14.1427624,23.1284132 C14.0712957,23.36068 14.0042957,23.6018802 13.9417623,23.8520137 C13.8792289,24.1021471 13.8300956,24.3522806 13.7943622,24.6024141 C13.7586289,24.8525476 13.7407622,25.0669477 13.7407622,25.2456145 L13.7407622,27.4700157 C13.7407622,27.8094826 13.5665621,28.0640828 13.2181619,28.2338162 C12.8697617,28.4035496 12.4856281,28.4839497 12.0657612,28.4750163 C11.6458943,28.466083 11.2617608,28.3678163 10.9133606,28.1802162 C10.5649604,27.9926161 10.3907603,27.7112159 10.3907603,27.3360157 L10.3907603,25.3796146 C10.3907603,24.6828142 10.4979603,24.0664139 10.7123604,23.5304135 C10.9267606,22.9944132 11.1679607,22.4226796 11.4359608,21.8152125 C11.7932944,20.9933454 12.0568279,20.3322784 12.2265613,19.8320114 C12.3962947,19.3317445 12.5258282,18.9833443 12.6151615,18.7868108 C12.7938283,18.3758772 12.8831617,18.0096104 12.8831617,17.6880102 L12.8831617,16.8304097 C12.6866283,16.9554765 12.5213615,17.0716099 12.3873614,17.1788099 C12.2533613,17.28601 12.0702279,17.4825434 11.8379611,17.7684103 C11.6056943,18.0364104 11.3689608,18.2106105 11.1277607,18.2910106 C10.8865606,18.3714106 10.5068937,18.4116106 9.98876005,18.4116106 L8.24675904,18.4116106 C7.81795879,18.4116106 7.50082527,18.2374105 7.29535849,17.8890103 C7.08989171,17.5406101 6.99162499,17.1609432 7.00055833,16.7500097 C7.00949167,16.3390761 7.1211584,15.9594092 7.33555852,15.611009 C7.54995864,15.2626088 7.86262549,15.0884087 8.27355906,15.0884087 L9.88155997,15.0884087 C10.0959601,15.0884087 10.2701602,15.0616087 10.4041603,15.0080086 C10.5381603,14.9544086 10.6632271,14.8740086 10.7793605,14.7668085 C10.8954939,14.6596084 11.0205606,14.5345417 11.1545607,14.3916083 C11.2885608,14.2486749 11.4538275,14.0878748 11.650361,13.909208 C11.9004945,13.6948079 12.1550946,13.3776744 12.4141614,12.9578075 C12.6732282,12.5379406 12.918895,12.113607 13.1511618,11.6848067 C13.419162,11.1845398 13.6782288,10.6485395 13.9283623,10.0768058 C14.3035625,10.0946725 14.6519627,10.1125392 14.9735629,10.1304059 C15.2594297,10.1482725 15.5497632,10.1616726 15.8445634,10.1706059 C16.1393635,10.1795392 16.3850303,10.1840059 16.5815638,10.1840059 C16.7780973,10.1840059 17.0014307,10.1795392 17.2515642,10.1706059 C17.5016976,10.1616726 17.7428978,10.1482725 17.9751646,10.1304059 C18.2431647,10.1125392 18.5200982,10.0946725 18.805965,10.0768058 C19.2883653,10.3805393 19.7528989,10.6574728 20.1995658,10.9076063 C20.574766,11.1398731 20.9499663,11.3632065 21.3251665,11.5776067 C21.7003667,11.7920068 21.9862335,11.9706735 22.182767,12.113607 L22.182767,12.1136069 Z" id="Shape"></path>
        </g>
    </g>
</svg>