<?xml version="1.0" encoding="UTF-8" standalone="no"?>
<svg width="30px" height="30px" viewBox="0 0 30 30" version="1.1" xmlns="http://www.w3.org/2000/svg" xmlns:xlink="http://www.w3.org/1999/xlink">
    <!-- Generator: Sketch 50.2 (55047) - http://www.bohemiancoding.com/sketch -->
    <title>报事报修工单</title>
    <desc>Created with Sketch.</desc>
    <defs></defs>
    <g id="报事报修工单" stroke="none" stroke-width="1" fill="none" fill-rule="evenodd">
        <g id="工单-(1)" transform="translate(2.000000, 0.000000)" fill="#FFFFFF" fill-rule="nonzero">
            <path d="M9.9898452,3.17531477 L16.7108359,3.17531477 C17.5405716,3.12426655 18.1782634,2.42093003 18.1480289,1.59017545 C18.1622866,1.18371817 18.0143702,0.788266737 17.7368664,0.490941242 C17.4593626,0.193615747 17.0750395,0.0188105322 16.6685655,0.00503613003 L9.9898452,0.00503613003 C9.58337125,0.0188105242 9.19904815,0.193615735 8.92154435,0.490941231 C8.64404055,0.788266727 8.49612411,1.18371816 8.51038183,1.59017545 C8.49612411,1.99663274 8.64404055,2.39208417 8.92154435,2.68940967 C9.19904815,2.98673516 9.58337125,3.16154037 9.9898452,3.17531477 Z" id="Shape"></path>
            <path d="M23.1887719,1.4633643 L21.3711455,1.4633643 C21.3711455,1.4633643 20.1030341,1.81209495 20.1030341,1.99174406 C20.1030341,3.32326108 19.162518,4.64421053 18.0529205,4.64421053 L8.41527347,4.64421053 C7.1282248,4.44414724 6.20935671,3.29096777 6.3017544,1.99174406 C6.3017544,1.81209492 5.16045409,1.46336427 5.16045409,1.4633643 L3.18431372,1.4633643 C0.63752322,1.4633643 0.0140350774,2.95339526 0.0140350774,5.10918474 L0.0140350774,26.392322 C0.0140350774,28.7066254 0.912280681,29.995872 3.38509805,29.995872 L22.9879876,29.995872 C25.460805,29.995872 26.6655108,28.9391125 26.6655108,26.392322 L26.6655108,5.06691433 C26.6655108,2.91112486 25.5453457,1.46336427 23.1887719,1.4633643 Z M12.6211765,26.3817544 L4.30447885,26.3817544 C3.79723427,26.3817544 3.48020641,25.8216718 3.48020641,25.3249948 C3.476324,24.7874998 3.87652815,24.3327224 4.4101548,24.2682353 L12.7162848,24.2682353 C13.2624855,24.3175891 13.6801612,24.7765734 13.677936,25.3249948 C13.612676,25.8598635 13.1883955,26.27977 12.6528793,26.339484 L12.6211765,26.3817544 Z M12.6211765,18.7308153 L4.30447885,18.7308153 C3.79723427,18.7308153 3.48020641,18.1707327 3.48020641,17.6740557 C3.476324,17.1365607 3.87652815,16.6817833 4.4101548,16.6172962 L12.7162848,16.6172962 C13.2624855,16.66665 13.6801612,17.1256343 13.677936,17.6740557 C13.612676,18.2089244 13.1883955,18.6288309 12.6528793,18.6885449 L12.6211765,18.7308153 Z M20.9167389,20.358225 L20.9167389,26.0224561 C20.9227423,26.1783677 20.8634371,26.3297165 20.7531093,26.4400442 C20.6427815,26.550372 20.4914327,26.6096773 20.3355211,26.6036739 L18.4227864,26.6036739 C18.2677675,26.6065722 18.1182425,26.5462681 18.0086085,26.436634 C17.8989744,26.327 17.8386703,26.177475 17.8415686,26.0224561 L17.8415686,20.3159546 C16.4221327,19.6905605 15.530133,18.2601062 15.5931528,16.7102853 C15.6561726,15.1604645 16.6613676,13.8071551 18.1268937,13.2990712 L18.1268937,16.8920537 L20.6419814,16.8920537 L20.6419814,13.2990712 C22.1075076,13.8071551 23.1127025,15.1604645 23.1757224,16.7102853 C23.2387422,18.2601062 22.3467424,19.6905605 20.9273065,20.3159546 L20.9167389,20.358225 Z M22.1320124,11.0693086 L4.30447885,11.0693086 C3.79723427,11.0693086 3.48020641,10.509226 3.48020641,10.012549 C3.476324,9.47505398 3.87652815,9.02027654 4.4101548,8.95578947 L22.2271207,8.95578947 C22.7733214,9.00514329 23.1909972,9.46412759 23.1887719,10.012549 C23.1235119,10.5474177 22.6992314,10.9673242 22.1637152,11.0270382 L22.1320124,11.0693086 Z" id="Shape"></path>
        </g>
    </g>
</svg>