<?xml version="1.0" encoding="UTF-8" standalone="no"?>
<svg width="20px" height="20px" viewBox="0 0 20 20" version="1.1" xmlns="http://www.w3.org/2000/svg" xmlns:xlink="http://www.w3.org/1999/xlink">
    <!-- Generator: Sketch 46 (44423) - http://www.bohemiancoding.com/sketch -->
    <title>设备管理</title>
    <desc>Created with Sketch.</desc>
    <defs></defs>
    <g id="Page-1" stroke="none" stroke-width="1" fill="none" fill-rule="evenodd">
        <g id="电梯系统／垂直电梯系统" transform="translate(-40.000000, -240.000000)" fill-rule="nonzero" fill="#FFFFFF">
            <g id="侧边栏" transform="translate(0.000000, 100.000000)">
                <g id="窗口管理" transform="translate(0.000000, 120.000000)">
                    <g id="设备管理" transform="translate(40.000000, 20.000000)">
                        <path d="M19.0499778,19.9999778 L15.2399778,19.9999778 L15.2379556,19.9999778 C14.7143778,19.9999778 14.2899556,19.5755333 14.2899556,19.0519778 L14.2899556,19.0477778 L14.2899556,15.2379778 L14.2899556,15.2339778 C14.2899556,14.7104 14.7144,14.2859778 15.2379556,14.2859778 L15.2400667,14.2859778 L19.0499333,14.2859778 C19.5744,14.2882444 19.9988,14.7133556 19.9999333,15.2378667 L19.9999333,19.0479778 C19.9988,19.5725778 19.5744,19.9977111 19.0501333,19.9999778 L19.0499778,19.9999778 Z M19.0499778,12.857 L15.2399778,12.857 L15.2379556,12.857 C14.7143778,12.857 14.2899556,12.4325556 14.2899556,11.909 L14.2899556,11.9048 L14.2899556,8.1 L14.2899556,8.096 C14.2899556,7.57242222 14.7144,7.148 15.2379556,7.148 L15.2400667,7.148 L19.0499333,7.148 C19.5744,7.15026667 19.9988,7.57537778 19.9999333,8.09988889 L19.9999333,11.9 L19.9999333,11.903 C19.9999333,12.4284667 19.5750889,12.8547333 19.0501333,12.8569778 L19.0499778,12.857 Z M19.0499778,5.714 L15.2399778,5.714 L15.2379556,5.714 C14.7143778,5.714 14.2899556,5.28955556 14.2899556,4.766 L14.2899556,4.7618 L14.2899556,0.952 L14.2899556,0.948 C14.2899556,0.424422222 14.7144,0 15.2379556,0 L15.2400667,0 L19.0499333,0 C19.5744,0.00226666667 19.9988,0.427377778 19.9999333,0.951888889 L19.9999333,4.762 C19.9988,5.2866 19.5744,5.71173333 19.0501333,5.714 L19.0499778,5.714 Z M11.8999778,19.9999778 L8.09997778,19.9999778 L8.09597778,19.9999778 C7.5694,19.9999778 7.14224444,19.5742222 7.13997778,19.0481778 L7.13997778,15.2379778 C7.14224444,14.7117111 7.5694,14.2859556 8.09597778,14.2859556 L8.1002,14.2859556 L11.9,14.2859556 L11.904,14.2859556 C12.4305778,14.2859556 12.8577333,14.7117111 12.86,15.2377556 L12.86,19.0479556 C12.8577333,19.5742222 12.4305778,19.9999778 11.904,19.9999778 L11.8997778,19.9999778 L11.8999778,19.9999778 Z M11.8999778,12.857 L0.95,12.857 C0.424844444,12.8547333 0,12.4284889 0,11.9030222 L0,11.8998667 L0,0.952022222 C0.00113333333,0.427422222 0.425533333,0.00228888889 0.9498,2.22222222e-05 L11.8999778,2.22222222e-05 L11.9039778,2.22222222e-05 C12.4305556,2.22222222e-05 12.8577111,0.425777778 12.8599778,0.951822222 L12.8599778,11.9000222 L12.8599778,11.9010444 C12.8599778,12.4290222 12.4319778,12.8570444 11.9039778,12.8570444 L11.8997556,12.8570444 L11.8999778,12.857 Z M0.95,14.286 L4.76,14.286 L4.76202222,14.286 C5.2856,14.286 5.71002222,14.7104444 5.71002222,15.234 L5.71002222,15.2382 L5.71002222,19.048 L5.71002222,19.052 C5.71002222,19.5755778 5.28557778,20 4.76202222,20 L4.75991111,20 L0.950044444,20 C0.425577778,19.9977333 0.00117777778,19.5726222 4.44444444e-05,19.0481111 L4.44444444e-05,15.238 C0.00117777778,14.7134 0.425577778,14.2882667 0.949844444,14.286 L0.95,14.286 Z" id="Shape"></path>
                    </g>
                </g>
            </g>
        </g>
    </g>
</svg>