<?xml version="1.0" encoding="UTF-8" standalone="no"?>
<svg width="20px" height="20px" viewBox="0 0 20 20" version="1.1" xmlns="http://www.w3.org/2000/svg" xmlns:xlink="http://www.w3.org/1999/xlink">
    <!-- Generator: Sketch 50.2 (55047) - http://www.bohemiancoding.com/sketch -->
    <title>安全事件中心</title>
    <desc>Created with Sketch.</desc>
    <defs></defs>
    <g id="安全事件中心" stroke="none" stroke-width="1" fill="none" fill-rule="evenodd">
        <g id="报警管理"></g>
        <g id="安全中心" transform="translate(1.000000, 0.000000)" fill="#FFFFFF" fill-rule="nonzero">
            <path d="M8.96961512,2.11874623e-15 C13.3207292,1.38676845 17.4044564,2.07379135 17.4652262,2.03562341 C17.756921,2.07379135 18,2.4173028 18,2.72264631 L18,10.4834606 C18,10.5725191 17.9149223,12.2519084 16.7967589,14.2493639 C16.1769075,15.4198473 14.8521269,16.4631043 13.8190412,17.3664122 C12.5428764,18.4860051 11.0114787,19.351145 9.18838623,19.9618321 L9.01823093,20 L8.84807562,19.9618321 C7.03713707,19.3638677 5.45712357,18.4860051 4.18095881,17.3664122 C3.14787306,16.4631043 1.82309251,15.4198473 1.20324105,14.2493639 C0.1215395,12.2900763 0,10.610687 0,10.5216285 L0,2.7735369 C0,2.43002545 0.243079001,2.12468193 0.534773801,2.07379135 C0.534773801,2.07379135 5.25050641,1.38676845 8.96961512,2.11874623e-15 Z M7.46908237,5.85300184 C7.46908237,5.85300184 6.0476132,9.99615364 6.03514417,9.99615364 C5.89798486,10.4835833 6.17230347,10.8491555 6.68353362,10.8491555 L8.29203821,10.8491555 L6.54637431,14.9070071 C6.82069292,15.0897932 7.46908237,15.004493 7.79327709,14.6389208 L11.4841093,10.495769 C12.4442245,9.37468087 12.0327466,8.47293607 10.5115252,8.47293607 L9.45165779,8.47293607 L10.5988084,5.81644462 C10.7858438,5.36557222 10.5614013,5 10.0501711,5 L8.66610904,5 C8.1548789,5 7.60624168,5.35338648 7.46908237,5.85300184 Z" id="Combined-Shape"></path>
        </g>
    </g>
</svg>