<?xml version="1.0" encoding="UTF-8" standalone="no"?>
<svg width="30px" height="30px" viewBox="0 0 30 30" version="1.1" xmlns="http://www.w3.org/2000/svg" xmlns:xlink="http://www.w3.org/1999/xlink">
    <!-- Generator: Sketch 50.2 (55047) - http://www.bohemiancoding.com/sketch -->
    <title>事件管理</title>
    <desc>Created with Sketch.</desc>
    <defs></defs>
    <g id="事件管理" stroke="none" stroke-width="1" fill="none" fill-rule="evenodd">
        <g id="巡护事件管理" fill="#FFFFFF" fill-rule="nonzero">
            <path d="M9.37582656,5.68015448 L14.71854,5.68015448 C15.3863324,5.68015448 16.0541928,4.67929943 16.0541928,3.96449094 L16.0541928,3.24964823 C16.0541928,2.82071522 15.7870895,2.39178224 15.5199521,2.10583833 L12.8485784,0.247219933 C12.4479233,-0.0387239799 11.7800289,-0.0387239799 11.3793739,0.247219933 L8.70800016,2.10583833 C8.30724306,2.39178224 8.04013969,2.82071525 8.04013969,3.24964823 L8.04013969,3.96449094 C8.04010567,4.6792994 8.57434636,5.68015448 9.37582656,5.68015448 Z" id="Shape"></path>
            <path d="M15.2147641,24.2664068 L8.04010567,24.2664068 L8.04010567,22.8366529 L15.1786194,22.8366529 C15.2731674,21.2445048 15.8136024,19.7731001 16.6767873,18.5475283 L8.04010567,18.5475283 L8.04010567,17.1178429 L17.9540027,17.1178429 C19.4095594,15.8243702 21.3219962,15.0389571 23.4171645,15.038957 C23.6363132,15.038957 23.8534197,15.0477184 24.06828,15.064591 L24.06828,7.10983987 C24.06828,5.53716542 22.8661788,4.25040064 21.3969063,4.25040064 L17.3898797,4.25040064 C17.3898797,6.39496294 15.7870895,7.10983987 14.71854,7.10983987 L9.37582656,7.10983987 C8.307209,7.10983987 6.70445282,6.10901903 6.70445282,4.25040064 L2.69742625,4.25040064 C1.22815367,4.25040064 0.0260525055,5.53716538 0.0260525388,7.10983987 L0.0260525388,27.1258118 C0.0260525388,28.6984862 1.2281537,29.985251 2.69742625,29.985251 L18.4726897,29.985251 C16.695166,28.6459862 15.4731546,26.602454 15.2147641,24.2664068 Z M8.04010567,11.3989303 L20.0612194,11.3989303 L20.0612194,12.8286841 L8.04010567,12.8286841 L8.04010567,11.3989303 Z M5.36876598,24.2664068 L4.03311313,24.2664068 L4.03311313,22.8366529 L5.36876598,22.8366529 L5.36876598,24.2664068 Z M5.36876598,18.5474941 L4.03311313,18.5474941 L4.03311313,17.1178087 L5.36876598,17.1178087 L5.36876598,18.5474941 Z M5.36876598,12.8287183 L4.03311313,12.8287183 L4.03311313,11.3989645 L5.36876598,11.3989645 L5.36876598,12.8287183 Z" id="Shape"></path>
            <path d="M29.9827742,24.6369874 L29.9891728,22.032656 C29.9891728,22.032656 28.2801607,21.690858 28.2498699,21.5753168 C28.2179455,21.4485159 28.1844214,21.3218517 28.1476981,21.2013822 C28.3471407,20.8291589 29.3109998,20.0075364 29.3109998,20.0075364 L27.3817159,17.4273332 C27.3817159,17.4273332 26.1322387,18.4622756 25.8210946,18.6099534 C25.675835,18.5521828 25.5242791,18.5023865 25.364759,18.4542671 C25.1971387,18.4125477 24.7328391,16.7549628 24.7328391,16.7549628 L22.1365456,16.7325117 C22.1365456,16.7325117 21.8556923,18.3370832 21.4376116,18.4461902 C21.2956194,18.4863353 21.1551927,18.5410257 21.014698,18.6067364 C20.7035879,18.4542672 19.4541106,17.4032735 19.4541106,17.4032735 L17.5247927,20.0284132 C17.5247927,20.0284132 18.4918511,21.0072621 18.555666,21.3345832 C18.5157774,21.4373245 18.4758209,21.5432144 18.4407652,21.6490702 C18.0259178,21.7951394 16.8450202,22.030979 16.8450202,22.030979 L16.8514187,24.6353788 C16.8514187,24.6353788 18.2220931,24.9226575 18.483819,25.1520971 C18.5379098,25.3015273 18.5991644,25.448236 18.6673674,25.5917081 C18.3514585,25.9897023 17.5040657,26.6524557 17.5040657,26.6524557 L19.4923655,29.2567186 C19.4923655,29.2567186 21.0545865,28.2393674 21.3114795,28.1816653 C21.4391432,28.2361846 21.5684745,28.2891295 21.700835,28.3356746 C21.9354693,28.4190449 22.1030556,29.9354889 22.1030556,29.9354889 L24.6977154,29.9451059 C24.6977154,29.9451059 24.7870221,28.4559729 24.9769691,28.3966622 C25.1639517,28.3374122 25.3477082,28.2683208 25.5274783,28.1896737 C25.7460483,28.2762954 26.7689915,29.3016551 26.7689915,29.3016551 L29.3317609,26.6764126 C29.3317609,26.6764126 28.3790651,26.0153021 28.1173392,25.6591984 C28.1880681,25.5103944 28.2530211,25.3588833 28.312051,25.2050079 C28.3997581,24.9691683 29.9827742,24.6369874 29.9827742,24.6369874 Z M23.3875885,26.6106336 C21.5811694,26.6106336 20.1163554,25.1376545 20.1163554,23.3211662 C20.1163554,21.5047806 21.5811694,20.0332731 23.3875885,20.0332731 C25.1939395,20.0332731 26.657256,21.5047805 26.657256,23.3211662 C26.657256,25.1376545 25.1923399,26.6106336 23.3875885,26.6106336 Z" id="Shape"></path>
        </g>
    </g>
</svg>