<?xml version="1.0" encoding="UTF-8" standalone="no"?>
<svg width="30px" height="30px" viewBox="0 0 30 30" version="1.1" xmlns="http://www.w3.org/2000/svg" xmlns:xlink="http://www.w3.org/1999/xlink">
    <!-- Generator: Sketch 50.2 (55047) - http://www.bohemiancoding.com/sketch -->
    <title>安全事件</title>
    <desc>Created with Sketch.</desc>
    <defs></defs>
    <g id="安全事件" stroke="none" stroke-width="1" fill="none" fill-rule="evenodd">
        <g id="事件" fill="#FFFFFF" fill-rule="nonzero">
            <path d="M28.3269231,3.75721154 L24.3677885,3.75721154 L24.3677885,1.88221154 C24.3677885,0.847355769 23.5276442,0.00721153846 22.4927885,0.00721153846 C21.4579327,0.00721153846 20.6177885,0.847355769 20.6177885,1.88221154 L20.6177885,3.75721154 L9.37860577,3.75721154 L9.37860577,1.88221154 C9.37860577,0.847355769 8.53846154,0.00721153846 7.50360577,0.00721153846 C6.46875,0.00721153846 5.62860577,0.847355769 5.62860577,1.88221154 L5.62860577,3.75721154 L1.67307692,3.75721154 C0.753605769,3.75721154 0.00721153846,4.53605769 0.00721153846,5.49879808 L0.00721153846,28.2475962 C0.00721153846,29.2103365 0.753605769,29.9891827 1.67307692,29.9891827 L28.3233173,29.9891827 C29.2427885,29.9891827 29.9891827,29.2103365 29.9891827,28.2475962 L29.9891827,5.49879808 C29.9891827,4.53605769 29.2463942,3.75721154 28.3269231,3.75721154 Z M6.99158654,9.64903846 L14.53125,9.64903846 C15.2271635,9.64903846 15.7896635,10.2115385 15.7896635,10.9074519 C15.7896635,11.6033654 15.2271635,12.1658654 14.53125,12.1658654 L6.99158654,12.1658654 C6.29567308,12.1658654 5.73317308,11.6033654 5.73317308,10.9074519 C5.73317308,10.2115385 6.29567308,9.64903846 6.99158654,9.64903846 Z M17.8846154,24.3786058 L6.99158654,24.3786058 C6.29567308,24.3786058 5.73317308,23.8161058 5.73317308,23.1201923 C5.73317308,22.4242788 6.29567308,21.8617788 6.99158654,21.8617788 L17.8846154,21.8617788 C18.5805288,21.8617788 19.1430288,22.4242788 19.1430288,23.1201923 C19.1394231,23.8161058 18.5769231,24.3786058 17.8846154,24.3786058 Z M21.234375,18.2704327 L6.99158654,18.2704327 C6.29567308,18.2704327 5.73317308,17.7079327 5.73317308,17.0120192 C5.73317308,16.3161058 6.29567308,15.7536058 6.99158654,15.7536058 L21.2379808,15.7536058 C21.9338942,15.7536058 22.4963942,16.3161058 22.4963942,17.0120192 C22.4927885,17.7079327 21.9302885,18.2704327 21.234375,18.2704327 Z" id="Shape"></path>
        </g>
    </g>
</svg>