<?xml version="1.0" encoding="UTF-8" standalone="no"?>
<svg width="30px" height="26px" viewBox="0 0 30 26" version="1.1" xmlns="http://www.w3.org/2000/svg" xmlns:xlink="http://www.w3.org/1999/xlink">
    <!-- Generator: Sketch 46 (44423) - http://www.bohemiancoding.com/sketch -->
    <title>设备管理</title>
    <desc>Created with Sketch.</desc>
    <defs></defs>
    <g id="Page-1" stroke="none" stroke-width="1" fill="none" fill-rule="evenodd">
        <g id="菜单栏icon" transform="translate(-165.000000, -154.000000)" fill="#FFFFFF">
            <g id="菜单栏" transform="translate(0.000000, 122.000000)">
                <g id="电梯系统" transform="translate(120.000000, 0.000000)">
                    <g id="设备管理" transform="translate(45.000000, 32.000000)">
                        <path d="M28.2653027,25.9636727 L1.7001937,25.9636727 C0.850096852,25.9636727 0,25.3253091 0,24.2613818 C0,23.4102545 0.637590799,22.5591273 1.7001937,22.5591273 L28.2653027,22.5591273 C29.1154358,22.5591273 29.9655327,23.1974545 29.9655327,24.2613818 C29.9655327,25.3253091 29.1154358,25.9636727 28.2653027,25.9636727 Z" id="Fill-1"></path>
                        <path d="M5,2 L25,2 L25,2 C26.1045695,2 27,2.8954305 27,4 L27,18 L27,18 C27,19.1045695 26.1045695,20 25,20 L5,20 L5,20 C3.8954305,20 3,19.1045695 3,18 L3,4 L3,4 C3,2.8954305 3.8954305,2 5,2 Z M25.2900726,0.00458181818 L4.67542373,0.00458181818 C2.9753753,0.00458181818 1.48768765,1.49407273 1.48768765,3.19618182 L1.48768765,21.7081091 L28.477845,21.7081091 L28.477845,3.19618182 C28.477845,1.49407273 26.9903027,0.00458181818 25.2900726,0.00458181818 Z" id="Path"></path>
                        <path d="M24.2274334,2.98356364 C25.0775666,2.98356364 25.7151211,3.86014153 25.9276634,4.73686925 L25.9276634,17.2300707 C25.9276634,18.3259991 25.0775666,18.9835636 24.2274334,18.9835636 L5.73806295,18.9835636 C4.67542373,18.9835636 4.03786925,18.1068359 4.03786925,17.2300707 L4.03786925,4.73686925 C4.03786925,3.64094087 4.8879661,2.98356364 5.73806295,2.98356364 L24.2274334,2.98356364 Z M18.8607476,14.8172649 L20.1748309,12.3738802 L19.2361954,11.6220424 C19.4239353,11.434107 19.4239353,11.2461395 19.4239353,11.0582041 C19.4239353,10.8702366 19.2361954,10.6822691 19.2361954,10.4943338 L20.1748309,9.74252804 L18.8607476,7.29923972 L17.5466644,7.67514259 C17.3589244,7.48720722 16.9834767,7.29923972 16.6080289,7.11130435 L16.420321,5.98356364 L13.6045429,5.98356364 L13.4168351,7.11130435 C13.0413552,7.11130435 12.8536474,7.48720722 12.4781996,7.67514259 L11.3518242,7.29923972 L10.0378692,9.74252804 L10.9763764,10.6822691 C10.7886686,10.8702366 10.7886686,11.0582041 10.7886686,11.2461395 C10.7886686,11.434107 10.9763764,11.6220424 10.9763764,11.8100099 L10.0378692,12.5618156 L11.5395641,14.8172649 L12.6659074,14.441362 C13.0413552,14.6292974 13.2290951,14.8172649 13.6045429,15.0052003 L13.7922829,16.1328125 L16.6080289,16.1328125 L16.7957688,15.0052003 C17.1712166,14.8172649 17.3589244,14.6292974 17.7344043,14.2533945 L18.8607476,14.8172649 Z" id="Combined-Shape"></path>
                        <path d="M13,11.1104655 C13,12.2761288 13.9437784,13.2210511 15.1080305,13.2210511 C16.2721225,13.2210511 17.2159009,12.2761288 17.2159009,11.1104655 C17.2159009,9.9449624 16.2721225,9 15.1080305,9 C13.9437784,9 13,9.9449624 13,11.1104655 Z" id="Fill-4"></path>
                    </g>
                </g>
            </g>
        </g>
    </g>
</svg>