<?xml version="1.0" encoding="UTF-8" standalone="no"?>
<svg width="30px" height="26px" viewBox="0 0 30 26" version="1.1" xmlns="http://www.w3.org/2000/svg" xmlns:xlink="http://www.w3.org/1999/xlink">
    <!-- Generator: Sketch 46 (44423) - http://www.bohemiancoding.com/sketch -->
    <title>设备关系管理</title>
    <desc>Created with Sketch.</desc>
    <defs></defs>
    <g id="Page-1" stroke="none" stroke-width="1" fill="none" fill-rule="evenodd">
        <g id="菜单栏icon" transform="translate(-285.000000, -154.000000)" fill="#FFFFFF">
            <g id="菜单栏" transform="translate(0.000000, 122.000000)">
                <g id="供配电系统" transform="translate(240.000000, 0.000000)">
                    <path d="M54.8814545,42.9944774 C54.8861958,42.9107742 54.8861958,42.8243032 54.8861958,42.7406 C54.8861958,40.6798484 53.6064755,38.9111774 51.7986713,38.1779774 C52.7274965,37.5558226 53.2845734,36.5118387 53.2842378,35.3943419 C53.2842378,33.5521161 51.7885175,32.0496516 49.9507133,32.0496516 C48.1122797,32.0496516 46.617021,33.5521161 46.617021,35.3943419 C46.6171888,36.5095742 47.1718322,37.5520484 48.0971748,38.1753355 C46.282028,38.903629 45,40.6751097 45,42.7406 C45,42.8243032 45.0026014,42.9107742 45.0047413,42.9944774 L45.0478741,43.8168323 L54.8378601,43.8168323 L54.8814545,42.9944774 Z M55.1735245,38.2875548 L64.8268112,38.2875548 C65.0564476,38.2870516 65.2765594,38.1953387 65.4384755,38.0325032 C65.6004336,37.8696677 65.6908951,37.649171 65.6897203,37.4195323 C65.6903916,36.9425161 65.3040839,36.5551161 64.8268112,36.5542774 L55.1735245,36.5542774 C54.6962517,36.5551161 54.3099441,36.9425161 54.3105734,37.4195323 C54.3096084,37.649171 54.3999021,37.8696677 54.5618601,38.0325032 C54.7237762,38.1953387 54.9438881,38.2870516 55.1735245,38.2875548 Z M61.8735105,52.3632839 C62.8026713,51.7416323 63.3599161,50.6971871 63.358951,49.5796484 C63.358951,47.7346548 61.866,46.2328613 60.0253846,46.2328613 C58.1871189,46.2328613 56.6918601,47.7353258 56.6918601,49.5796484 C56.6918601,50.6950484 57.247972,51.7370613 58.1746573,52.3585452 C56.3594685,53.0889774 55.0746713,54.8604161 55.0746713,56.9237677 C55.0746713,57.0101129 55.0774825,57.0939839 55.0822238,57.1776871 L55.123049,58 L64.915972,58 L64.9567972,57.1776871 C64.9615385,57.0939839 64.9641399,57.0101129 64.9641399,56.9237677 C64.9636783,54.8625548 63.683958,53.0938839 61.8735105,52.3632839 Z M71.8998462,38.1786065 C72.829972,37.5574581 73.3882238,36.5128452 73.3875524,35.3948452 C73.3875524,33.5526194 71.8918322,32.0501548 70.0512587,32.0501548 C68.2155944,32.0501548 66.7205035,33.5526194 66.7205035,35.3948452 C66.7192028,36.5105387 67.2743077,37.5533484 68.2004895,38.1758387 C66.3853427,38.9043 65.1006713,40.675571 65.1006713,42.7410613 C65.1006713,42.8247645 65.1033147,42.9112774 65.1082238,42.9949806 L65.149049,43.8172935 L74.9413427,43.8172935 L74.9821259,42.9949806 C74.9872028,42.9104387 74.9898462,42.825771 74.9896783,42.7410613 C74.9896783,40.6805194 73.7097902,38.9118484 71.8998462,38.1786065 Z M56.034,52.7643129 C56.2547413,52.7643129 56.476028,52.6806097 56.6435245,52.5108968 C56.9813287,52.1719742 56.9813287,51.6238774 56.6435245,51.2849548 L49.8163217,44.4281677 C49.6555385,44.2651645 49.4360979,44.1734097 49.2071329,44.1734097 C48.978,44.1734097 48.7585175,44.2651645 48.5977343,44.4281677 C48.2599301,44.7669226 48.2599301,45.3148516 48.5977343,45.6536065 L55.4222937,52.5103935 C55.5924336,52.6806097 55.8132168,52.7643129 56.034,52.7643129 Z M70.284965,44.4281677 L63.4577622,51.2849548 C63.1226014,51.6250097 63.1226014,52.1709677 63.4577622,52.5108968 C63.619049,52.673229 63.8384895,52.7643129 64.0673287,52.7643129 C64.2880699,52.7643129 64.5114545,52.6806097 64.6791608,52.5108968 L71.5061538,45.6541097 C71.8413566,45.3143903 71.8413566,44.7685581 71.5061538,44.4287968 C71.3450769,44.2655 71.1250909,44.1735774 70.8956643,44.1734097 C70.6661958,44.1732839 70.4462517,44.2651645 70.284965,44.4281677 Z" id="设备关系管理"></path>
                </g>
            </g>
        </g>
    </g>
</svg>