<?xml version="1.0" encoding="UTF-8" standalone="no"?>
<svg width="19px" height="20px" viewBox="0 0 19 20" version="1.1" xmlns="http://www.w3.org/2000/svg" xmlns:xlink="http://www.w3.org/1999/xlink">
    <!-- Generator: Sketch 46 (44423) - http://www.bohemiancoding.com/sketch -->
    <title>shichang</title>
    <desc>Created with Sketch.</desc>
    <defs></defs>
    <g id="Page-1" stroke="none" stroke-width="1" fill="none" fill-rule="evenodd" opacity="0.7">
        <g id="设施设备管理系统框架设计--copy-4" transform="translate(-1537.000000, -330.000000)" fill-rule="nonzero" fill="#E8C168">
            <g id="Group-11" transform="translate(240.000000, 100.000000)">
                <g id="Group-46" transform="translate(1297.000000, 142.000000)">
                    <g id="Group-36" transform="translate(0.000000, 88.000000)">
                        <g id="shichang">
                            <path d="M2.80420413,10.571789 L4.61139067,10.571789 L4.61139067,11.193578 L2.80420489,11.193578 L2.80420489,10.571789 L2.80420413,10.571789 Z M9.31674312,10.0046628 C9.48799771,10.0046628 9.64915826,10.0442661 9.79311927,10.1139908 C10.3501537,9.43891514 10.9727064,8.83295183 11.6750757,8.3097867 C11.847094,8.47308945 12.0184243,8.63577982 12.1904427,8.79916055 C11.6614679,9.6016078 11.0532867,10.2845573 10.3847844,10.8762248 C10.3991583,10.9467133 10.406344,11.0194197 10.406344,11.0942683 C10.406344,11.6959495 9.91842431,12.1838716 9.31674083,12.1838716 C8.71498165,12.1838716 8.22706193,11.6959518 8.22706193,11.0942683 C8.22706193,10.8639931 8.29908028,10.650156 8.42140367,10.4739312 C7.61605275,9.38784633 6.92805505,8.21987844 6.36666284,6.96544495 C6.54877294,6.86544495 6.73088303,6.76468119 6.91291743,6.66460321 C7.71826835,7.7477844 8.4228555,8.87331881 9.00144954,10.0514541 C9.10076376,10.0211766 9.20726376,10.0046628 9.31674312,10.0046628 L9.31674312,10.0046628 Z M7.75787385,4.0679656 L7.75496789,5.92836239 L12.8920482,2.9755344 L7.76643578,0.00321100917 L7.76215367,1.91100917 C5.83623624,2.19602523 4.05718349,3.09495413 2.6761445,4.47522936 C0.966206422,6.18593349 0.0126123853,8.4853211 0.0126123853,10.9042041 C0.0126123853,13.3237752 0.96612844,15.6231651 2.6761445,17.3331032 C4.38684862,19.0438073 6.68623624,19.996711 9.10504358,19.996711 C11.5246147,19.996711 13.8240803,19.043805 15.5347844,17.3331032 C16.5538211,16.3140665 17.3195711,15.0668188 17.7613899,13.6951055 L17.8665115,13.3675826 L15.8298142,12.7630711 L15.7276743,13.0732385 C15.3879197,14.1124587 14.8049679,15.0574128 14.031344,15.8303486 C12.7207936,17.1415872 10.9597087,17.8714037 9.10504358,17.8714037 C7.2511445,17.8714037 5.49013532,17.1415872 4.17950917,15.8303486 C2.86834633,14.5191101 2.13852982,12.758789 2.13852982,10.9041261 C2.13852982,9.05015138 2.86834633,7.2891422 4.17950917,5.97859174 C5.1597867,4.99778211 6.40336468,4.33356193 7.75787385,4.0679656 L7.75787385,4.0679656 Z M15.993883,9.85925 C15.9269862,9.41299541 15.8168945,8.97477064 15.6642202,8.55083945 L15.5519885,8.23852982 L17.5433486,7.4951055 L17.65925,7.81391284 C17.8808853,8.42782798 18.0348624,9.06475459 18.1198761,9.71246101 L18.168117,10.0780573 L16.0385298,10.1557339 L15.993883,9.85925 L15.993883,9.85925 Z M15.9550459,12.1802752 C16.0334862,11.75925 16.0723234,11.3324931 16.0723234,10.9042821 C16.0723234,10.8624633 16.0716353,10.8200321 16.0709472,10.7783647 L16.0659014,10.4487018 L18.1889128,10.3717133 L18.1960986,10.712844 C18.1974748,10.7769106 18.1974748,10.8402913 18.1974748,10.9042821 C18.1974748,11.5152913 18.137078,12.1255367 18.0154404,12.7243119 L17.9426583,13.0834106 L15.9001514,12.4774472 L15.9550459,12.1802752 L15.9550459,12.1802752 Z M15.2957959,7.70519954 C15.1087156,7.34396101 14.8892202,6.99916055 14.6423555,6.67614679 L14.4401376,6.41200229 L16.1133784,5.10213991 L16.3199541,5.3706422 C16.6847867,5.84487844 17.0015298,6.35443349 17.2655963,6.89059633 L17.4296628,7.22377752 L15.4325688,7.9701078 L15.2957959,7.70519954 L15.2957959,7.70519954 Z M14.2451078,6.19174312 L14.0313463,5.97874541 C13.7211789,5.66857798 13.3822638,5.38784404 13.0201835,5.14105505 L12.7207959,4.93738532 L14.0493119,3.26697248 L14.3084106,3.44763073 C14.7459495,3.75344037 15.1569587,4.09824312 15.5347867,4.47530734 C15.5786697,4.51995642 15.622555,4.56452752 15.66575,4.60994037 L15.9233945,4.87836468 L14.2451078,6.19174312 L14.2451078,6.19174312 Z M9.10940367,17.0870803 L9.10940367,15.2806583 L9.73126911,15.2806583 L9.73126911,17.0870803 L9.10940367,17.0870803 L9.10940367,17.0870803 Z M13.6729358,15.28425 L12.3954885,14.006117 L12.8352431,13.5663624 L14.1126904,14.8444977 L13.6729358,15.28425 L13.6729358,15.28425 Z M4.6070344,15.1353211 L5.88524541,13.8578739 L6.325,14.2976284 L5.04755275,15.5750757 L4.6070344,15.1353211 L4.6070344,15.1353211 Z M4.75603899,6.06941972 L6.03348624,7.34763073 L5.59449541,7.78738532 L4.3162844,6.50993807 L4.75603899,6.06941972 L4.75603899,6.06941972 Z M13.8218647,6.21842431 L13.3814977,5.77866972 L12.1040505,7.05611697 L12.543805,7.49648394 L13.8218647,6.21842431 L13.8218647,6.21842431 Z M15.624695,10.7826445 L13.8175849,10.7826445 L13.8175849,10.1601674 L15.624695,10.1601674 L15.624695,10.7826453 L15.624695,10.7826445 Z" id="Shape"></path>
                        </g>
                    </g>
                </g>
            </g>
        </g>
    </g>
</svg>