<?xml version="1.0" encoding="UTF-8" standalone="no"?>
<svg width="19px" height="20px" viewBox="0 0 19 20" version="1.1" xmlns="http://www.w3.org/2000/svg" xmlns:xlink="http://www.w3.org/1999/xlink">
    <!-- Generator: Sketch 46 (44423) - http://www.bohemiancoding.com/sketch -->
    <title>shishihuojing</title>
    <desc>Created with Sketch.</desc>
    <defs></defs>
    <g id="Page-1" stroke="none" stroke-width="1" fill="none" fill-rule="evenodd">
        <g id="设施设备管理系统框架设计--copy-4" transform="translate(-1368.000000, -330.000000)" fill-rule="nonzero" fill="#F37B7B">
            <g id="Group-11" transform="translate(240.000000, 100.000000)">
                <g id="Group-13-Copy-2" transform="translate(1128.000000, 132.000000)">
                    <g id="Group-32" transform="translate(0.000000, 98.000000)">
                        <g id="Group-33">
                            <g id="shishihuojing">
                                <path d="M16.0288183,10.050014 C16.0360844,9.92249144 16.0399312,9.79406378 16.0399312,9.66473098 C16.0399312,5.97932485 13.0523036,2.99169726 9.36689749,2.99169728 C5.74945143,2.99169728 2.80461629,5.87020662 2.69720773,9.4616051 L2.6970066,9.4616051 L2.6970066,9.46673415 C2.69499188,9.53271427 2.69393579,9.59872018 2.69383864,9.66473098 C2.69383864,9.7319619 2.69502033,9.79894139 2.6970066,9.86569463 L2.6970066,15.3457189 L1.28867714,15.3457189 L1.28867714,19.4690814 L17.430133,19.4690814 L17.430133,15.3457189 L16.0287931,15.3457189 L16.0287931,10.050014 L16.0288183,10.050014 Z M4.94725626,9.3923125 C5.08802886,7.0735999 7.01275919,5.23651618 9.36687236,5.23651618 C11.7444183,5.23651618 13.6840581,7.11028275 13.7902598,9.4616051 L13.7785434,9.4616051 L13.7785434,15.3457189 L4.94725626,15.3457189 L4.94725626,9.4616051 L4.9440129,9.4616051 C4.94509402,9.4384992 4.94587345,9.415343 4.94725626,9.3923125 L4.94725626,9.3923125 Z M3.46769824,18.907575 L4.75833588,16.6279841 L5.34498476,16.6279841 L4.03757713,18.907575 L3.46769824,18.907575 Z M4.80024834,18.907575 L6.09088596,16.6279841 L6.67753486,16.6279841 L5.37012721,18.907575 L4.80024834,18.907575 Z M6.13279844,18.907575 L7.42343606,16.6279841 L8.01008494,16.6279841 L6.70267731,18.907575 L6.13279844,18.907575 Z M7.46534852,18.907575 L8.75598613,16.6279841 L9.34263504,16.6279841 L8.03522739,18.907575 L7.46534852,18.907575 Z M8.79789862,18.907575 L10.0885362,16.6279841 L10.6751851,16.6279841 L9.36777749,18.907575 L8.79789862,18.907575 Z M10.1304487,18.907575 L11.4210863,16.6279841 L12.0077352,16.6279841 L10.7003276,18.907575 L10.1304487,18.907575 Z M11.4629988,18.907575 L12.7536364,16.6279841 L13.3402853,16.6279841 L12.0328777,18.907575 L11.4629988,18.907575 Z M13.315168,18.907575 L12.745264,18.907575 L14.0359016,16.6279841 L14.6225505,16.6279841 L13.315168,18.907575 L13.315168,18.907575 Z M8.9435237,0.017219197 L9.78159715,0.017219197 L9.78159715,2.39737994 L8.9435237,2.39737994 L8.9435237,0.017219197 Z M13.1694926,0.795981579 L13.8821052,1.23705567 L12.6294327,3.26092267 L11.9168201,2.81982344 L13.1694926,0.795981579 Z M16.6741999,3.37836309 L17.1941459,4.03568742 L15.327394,5.5123289 L14.8074481,4.85502971 L16.6741999,3.37836309 Z M5.50471476,0.796182707 L6.75738728,2.8200246 L6.04477471,3.26109869 L4.79210219,1.2372568 L5.50471476,0.796182707 Z M2.00030918,3.37851395 L3.86706099,4.8551303 L3.34711504,5.51245463 L1.48036323,4.03581312 L2.00030918,3.37851395 Z M0.0242379607,7.29176098 L2.40439871,7.29176098 L2.40439871,8.12983443 L0.0242379607,8.12983443 L0.0242379607,7.29176098 Z M16.3207473,7.29176098 L18.700908,7.29176098 L18.700908,8.12983443 L16.3207473,8.12983443 L16.3207473,7.29176098 Z" id="Shape"></path>
                                <path d="M8.95400812,13.9628839 C8.04887976,13.4097499 8.50144392,12.2909107 8.50144392,12.2909106 C8.6271562,12.7183324 9.15514774,12.8063309 9.15514774,12.806331 C8.6774411,11.6120644 9.42188403,11.0337879 9.42188405,11.0337879 C9.42188405,11.8383465 10.5379827,12.3914805 10.5379827,12.8566159 C10.5379827,13.3217513 10.2111308,13.9628839 10.2111308,13.9628839 C11.8453904,13.5983183 12.0591013,12.3537668 12.0591012,12.3537668 C11.6442507,12.8189022 11.3048276,12.9320432 11.3048276,12.9320432 C11.8453904,12.5549064 12.0591012,12.0143437 12.0591012,11.5617795 C12.0591012,11.1092153 11.7573918,10.9332181 11.5939658,10.6943648 C11.4305399,10.4555115 11.5939658,10.0155185 11.5939658,10.0155185 C11.3299701,10.1286596 11.2419715,10.4177978 11.2419715,10.6315086 C11.2419715,10.8452195 11.0156894,11.2852125 11.0156894,11.2852125 C11.0156894,9.61323926 10.2111308,8.68296842 10.2111308,8.2555467 C10.2111308,7.82812499 10.5128403,7.41747326 10.5128403,7.41747326 C7.84774011,7.93709236 8.03630851,10.3675129 8.03630851,10.3675129 C7.75974151,10.2166581 7.72202784,9.61323923 7.72202784,9.61323923 C6.43976266,11.1972139 7.21917875,12.4543366 7.21917875,12.4543366 C7.03061035,12.3789092 6.66604476,12.1526272 6.66604476,12.1526271 C7.31974857,14.189166 8.95400812,13.9628839 8.95400812,13.9628839 L8.95400812,13.9628839 Z" id="Shape"></path>
                            </g>
                        </g>
                    </g>
                </g>
            </g>
        </g>
    </g>
</svg>