<?xml version="1.0" encoding="UTF-8" standalone="no"?>
<svg width="20px" height="20px" viewBox="0 0 20 20" version="1.1" xmlns="http://www.w3.org/2000/svg" xmlns:xlink="http://www.w3.org/1999/xlink">
    <!-- Generator: Sketch 46 (44423) - http://www.bohemiancoding.com/sketch -->
    <title>shouye</title>
    <desc>Created with Sketch.</desc>
    <defs></defs>
    <g id="Page-1" stroke="none" stroke-width="1" fill="none" fill-rule="evenodd">
        <g id="shouye" fill="#FFFFFF">
            <g id="扶뒬못-扶뒬못">
                <path d="M19.5168276,9.31798041 C19.5076237,8.99088315 19.4426599,8.74959252 19.2106179,8.41782628 C19.1665195,8.35058391 12.0838207,0.78130506 12.0838207,0.78130506 C11.5919684,0.257015658 10.9430684,0.0058732372 10.2912419,0.00527006647 L10.2912419,6.49264631e-05 C10.2818816,-0.00051590461 10.270265,0.00299142149 10.2586707,0.00299142149 C10.2470764,0.00299142149 10.2355045,-0.00051590461 10.2238879,6.49264631e-05 L10.2238879,0.00527006647 C9.57434001,0.00585089754 8.92481449,0.257015658 8.43063894,0.78130506 C8.43063894,0.78130506 1.35030816,8.35056157 1.30623201,8.41782628 C1.07425702,8.74959252 1.00931564,8.99088315 1,9.31798041 L1,9.44093788 C1,10.4732534 1.83749139,11.3120182 2.8698516,11.3120182 L3.317583,11.3120182 L3.317583,18.0222925 C3.317583,19.1149698 4.29885242,20 5.50760657,20 C6.71629369,20 7.69526212,19.1149922 7.69526212,18.0222702 L7.69526212,11.3120182 L12.8192645,11.3120182 L12.8192645,18.0222925 C12.8192645,19.1149698 13.8006456,20 15.0093327,20 C16.2180199,20 17.1969213,19.1149922 17.1969213,18.0222702 L17.1969213,11.3120182 L17.644742,11.3120182 C18.6793809,11.3120182 19.5168499,10.4732981 19.5168499,9.44093788 C19.5168499,9.43164458 19.5145713,9.42239596 19.5145713,9.413125 L19.5168276,9.31800274 L19.5168276,9.31798041 Z M16.7283246,2.5536664 L16.7399636,2.56818718 L18.1481662,4.05641043 C18.3476593,4.26635852 18.6771693,4.27565182 18.8858887,4.07727567 C18.8881897,4.07613634 18.8881897,4.07379068 18.8929033,4.07146736 L18.9114006,4.0540871 C18.9740186,3.98916806 19.0111918,3.93117431 19.0344027,3.81976644 C19.039027,3.7989012 19.041328,3.77566796 19.0436067,3.75364106 C19.048231,3.72929083 19.0528553,3.70610227 19.0552233,3.67708306 L19.2176773,0.915231302 C19.2292715,0.713950995 19.1550145,0.534786949 19.0321241,0.402536181 L19.0321241,0.401374519 C19.0297337,0.399632026 19.0273881,0.397331041 19.0250647,0.395588548 C19.0226077,0.393198461 19.020281,0.390677882 19.0180948,0.388037744 L19.0180948,0.388596235 C18.8928587,0.257574149 18.7188104,0.174001493 18.5170163,0.174627004 L15.7493785,0.181574637 C15.7238148,0.182590187 15.6982851,0.184333387 15.6728205,0.186802117 C15.6495426,0.18852227 15.628655,0.189147781 15.6078568,0.193168919 C15.4941703,0.209968341 15.4338756,0.243053372 15.3642429,0.303951276 L15.3456563,0.322537871 C15.3456563,0.323654853 15.3410096,0.325419686 15.3410096,0.326559009 C15.1323572,0.525538331 15.1229299,0.854958908 15.3200997,1.06488466 L16.7283246,2.5536664 L16.7283246,2.5536664 Z" id="Shape"></path>
            </g>
        </g>
    </g>
</svg>