<?xml version="1.0" encoding="UTF-8" standalone="no"?>
<svg width="18px" height="20px" viewBox="0 0 18 20" version="1.1" xmlns="http://www.w3.org/2000/svg" xmlns:xlink="http://www.w3.org/1999/xlink">
    <!-- Generator: Sketch 46 (44423) - http://www.bohemiancoding.com/sketch -->
    <title>shuixitong</title>
    <desc>Created with Sketch.</desc>
    <defs></defs>
    <g id="Page-1" stroke="none" stroke-width="1" fill="none" fill-rule="evenodd">
        <g id="设施设备管理系统框架设计--copy-4" transform="translate(-1747.000000, -330.000000)" fill-rule="nonzero" fill="#4DA1FF">
            <g id="Group-11" transform="translate(240.000000, 100.000000)">
                <g id="Group-35" transform="translate(1506.000000, 142.000000)">
                    <g id="Group-6" transform="translate(0.000000, 88.000000)">
                        <g id="Group-3-Copy-6">
                            <g id="Group-47">
                                <g id="Group-7">
                                    <g id="shuixitong" transform="translate(1.500000, 0.000000)">
                                        <path d="M12.9626906,18.7777354 L3.94264574,18.7777354 C3.56663677,18.7777354 3.26197309,19.0482063 3.26197309,19.3819955 C3.26197309,19.715583 3.56661435,19.9865022 3.94264574,19.9865022 L12.9629372,19.9865022 C13.3389462,19.9865022 13.6441031,19.715583 13.6441031,19.3819955 C13.6441031,19.0479596 13.3389462,18.7774888 12.962713,18.7777354 L12.9626906,18.7777354 Z M4.41201794,7.76441704 L12.4935202,7.76441704 C12.8366368,7.76441704 13.1152242,7.51710762 13.1152242,7.21226457 L13.1149552,7.21226457 L13.1149552,5.41876682 C13.1149552,5.11439462 12.8363453,4.86704036 12.4932511,4.86704036 L4.41195067,4.86704036 C4.06883408,4.86704036 3.79026906,5.11434978 3.79026906,5.41876682 L3.79026906,7.21226457 C3.79026906,7.51710762 4.06881166,7.76441704 4.41195067,7.76441704 L4.41201794,7.76441704 Z M9.02957399,1.05852018 L9.02957399,0.374730942 C9.02957399,0.175246637 8.77123318,0.0135201794 8.4529148,0.0135201794 C8.13459641,0.0135201794 7.87600897,0.175246637 7.87600897,0.374730942 L7.87600897,1.05829596 C6.05190583,1.30560538 4.65340807,2.70020179 4.65340807,4.38829596 L12.2526682,4.38829596 C12.2526682,2.70038117 10.8534081,1.3058296 9.02957399,1.05847534 L9.02957399,1.05852018 Z M4.11446188,10.6002466 L2.5294843,10.6002466 C2.29491031,10.6002466 2.10439462,10.769417 2.10439462,10.9776457 L2.10439462,14.1196637 C2.10439462,14.3281166 2.29491031,14.4968386 2.5294843,14.4968386 L4.11446188,14.4968386 L4.11446188,10.6002691 L4.11446188,10.6002466 Z M14.3761211,10.6002466 L12.7911435,10.6002466 L12.7911435,14.4968161 L14.3761211,14.4968161 C14.6106951,14.4968161 14.8012108,14.3281166 14.8012108,14.1196413 L14.8012108,10.9776233 C14.8012108,10.7693946 14.6106951,10.6002242 14.3761211,10.6002242 L14.3761211,10.6002466 Z M12.2524215,18.2992377 L12.2524215,8.24219731 L4.65316143,8.24219731 L4.65316143,18.2992377 L12.2524215,18.2992377 L12.2524215,18.2992377 Z M8.4529148,10.6002466 C9.6646861,10.6002466 10.6474664,11.4727354 10.6474664,12.5485202 C10.6474664,13.6247758 9.66466368,14.4967937 8.4529148,14.4967937 C7.2409417,14.4967937 6.25836323,13.6247534 6.25836323,12.5485202 C6.25836323,11.4727354 7.24089686,10.6002466 8.4529148,10.6002466 L8.4529148,10.6002466 Z" id="Shape"></path>
                                        <path d="M6.96103139,12.5485202 C6.96103139,13.2798879 7.6288565,13.8727354 8.45262332,13.8727354 C9.27641256,13.8727354 9.94421525,13.279843 9.94421525,12.5485202 C9.94421525,11.8171525 9.27639013,11.2243049 8.45262332,11.2243049 C7.62883408,11.2243049 6.96103139,11.8171973 6.96103139,12.5485202 Z M0.0156278027,11.6825336 L1.56618834,11.6825336 L1.56618834,13.4144843 L0.0156278027,13.4144843 L0.0156278027,11.6825336 Z M15.339148,11.6825336 L16.8902242,11.6825336 L16.8902242,13.4144843 L15.339148,13.4144843 L15.339148,11.6825336 Z" id="Shape"></path>
                                    </g>
                                </g>
                            </g>
                        </g>
                    </g>
                </g>
            </g>
        </g>
    </g>
</svg>