<?xml version="1.0" encoding="UTF-8" standalone="no"?>
<svg width="30px" height="30px" viewBox="0 0 30 30" version="1.1" xmlns="http://www.w3.org/2000/svg" xmlns:xlink="http://www.w3.org/1999/xlink">
    <!-- Generator: Sketch 46 (44423) - http://www.bohemiancoding.com/sketch -->
    <title>tingche</title>
    <desc>Created with Sketch.</desc>
    <defs></defs>
    <g id="Page-1" stroke="none" stroke-width="1" fill="none" fill-rule="evenodd">
        <g id="tingche" fill-rule="nonzero" fill="#FFFFFF">
            <g id="停车" transform="translate(0.000000, 3.000000)">
                <path d="M11.7512913,0.243566783 C14.0954829,-0.0868823184 16.0313212,-0.0754451926 18.173956,0.243566783 C19.6401236,0.554255406 21.1260518,0.797399119 22.5682973,1.197459 C23.635453,1.49359672 24.4075188,2.21889612 24.7888362,3.32605181 C25.3946446,5.07536319 26.0295248,6.81431529 26.6976685,8.53973445 C26.810932,8.82859672 27.1808721,9.25359672 27.3876386,9.23021349 C28.7925188,9.07177038 29.4533572,9.85314762 29.8825188,11.0096746 C29.9853931,11.3639859 29.9282374,11.7183273 29.8825188,11.9531776 C29.2975188,12.1155428 28.7114709,12.2765907 28.1731775,12.4251835 C28.2490458,13.0341057 28.3862015,13.6523692 28.3893452,14.2706626 C28.4132374,17.0907524 28.4298841,19.9119201 28.3737464,22.7320099 C28.3643751,23.234974 28.073447,24.018447 27.8708123,24.1452135 C27.6796146,24.4746147 23.4151536,24.4589859 23.0836566,24.2304231 C21.9759919,23.5103333 22.6576386,22.3018602 22.3022494,21.32195 L7.81620147,21.32195 C7.53563261,22.3589859 7.36835716,24.1005428 7.03063261,24.2304231 C6.29287812,24.5141057 2.34012363,24.5244949 2.11982423,24.2304231 C1.82057273,24.018447 1.61692004,23.1632674 1.57742902,22.6145847 C1.49533321,21.4269201 1.54311764,20.2299141 1.55455477,19.03698 C1.57638112,16.8216506 1.60961465,14.6062614 1.63871645,12.3763512 C1.2230877,12.2672195 0.632878122,12.1103632 0.0416206367,11.9531776 C0.00940506781,11.7412015 -0.0331997226,11.481441 0.0416206367,11.1982973 C0.452069738,9.97787816 1.05266854,9.03539313 2.59156076,9.23180032 C2.77754878,9.25569253 3.12045297,8.85823744 3.22227932,8.5917105 C3.74805776,7.21332726 4.31227932,5.83706978 4.68739908,4.41452487 C5.31709968,2.02251888 7.04305776,1.06030331 9.24697992,0.636351215 C10.0762614,0.476321274 10.9168901,0.372399119 11.7512913,0.243566783 Z M5.13638112,9.69000391 C11.794944,11.0688961 18.1770697,11.1016207 24.723417,9.69000391 C24.1737164,7.99419553 23.62195,6.48853684 23.2063212,4.94757876 C22.8488661,3.62374642 21.9936865,2.97224942 20.7197344,2.91560271 C17.614914,2.77584223 14.5090458,2.66467457 11.4032075,2.64129133 C10.3807224,2.63347696 9.34266854,2.87560271 8.33889609,3.11512367 C7.92533321,3.21434523 7.38084219,3.52973445 7.23952483,3.88458475 C6.49865656,5.73727936 5.8668901,7.63572247 5.13638112,9.69000391 Z M6.41449489,16.897459 C6.41656076,16.8611117 6.41239908,16.9327883 6.41449489,16.897459 C6.94754878,16.897459 7.50760866,16.8787464 8.01365656,16.7602734 C8.38150088,16.6740758 8.84805776,16.3758422 8.96443501,16.0588961 C9.04653082,15.834465 8.6932374,15.2577584 8.40123142,15.1226686 C7.18443501,14.5584171 5.93545297,14.0461716 4.66048291,13.6274291 C4.02560267,13.4185368 3.31796794,13.4580279 3.11326734,14.3641057 C2.81503381,15.688956 3.09350686,16.4277584 4.08377633,16.6345249 C4.84542303,16.7935668 5.63620147,16.8153632 6.41449489,16.897459 L6.41449489,16.897459 Z M23.6676685,16.8933273 C24.3555727,16.8101835 25.2076386,16.7800638 26.0243452,16.5898841 C27.1403332,16.3332374 26.9044649,15.3907524 26.8784769,14.5927285 C26.8566506,13.9100638 26.4326985,13.3967704 25.8175488,13.5879081 C24.2807224,14.0649141 22.7553332,14.6270398 21.309914,15.329465 C20.645932,15.6526087 20.8838961,16.5441356 21.6393152,16.7094051 C22.2451236,16.8413213 22.8821296,16.8288662 23.6676685,16.8933273 L23.6676685,16.8933273 Z" id="Shape"></path>
            </g>
        </g>
    </g>
</svg>