<?xml version="1.0" encoding="UTF-8" standalone="no"?>
<svg width="30px" height="25px" viewBox="0 0 30 25" version="1.1" xmlns="http://www.w3.org/2000/svg" xmlns:xlink="http://www.w3.org/1999/xlink">
    <!-- Generator: Sketch 46 (44423) - http://www.bohemiancoding.com/sketch -->
    <title>图片维护</title>
    <desc>Created with Sketch.</desc>
    <defs></defs>
    <g id="Page-1" stroke="none" stroke-width="1" fill="none" fill-rule="evenodd">
        <g id="菜单栏icon" transform="translate(-45.000000, -155.000000)" fill="#FFFFFF">
            <g id="菜单栏" transform="translate(0.000000, 122.000000)">
                <g id="消防系统">
                    <path d="M48.0000769,37.5454176 L72.0000696,37.5454176 L72.0000696,36.030377 L48.0000769,36.030377 L48.0000769,37.5454176 Z M51.7500082,34.5151885 L68.2499918,34.5151885 L68.2499918,33 L51.7500082,33 L51.7500082,34.5151885 Z M45,58 L45,39.0606061 L75,39.0606061 L75,58 L45,58 Z M65.3428548,46.0416711 L64.729113,46.6579513 C64.0750914,47.3145947 63.0105022,47.3145947 62.3564638,46.6579513 C61.7024421,46.0013748 61.7024421,44.9325609 62.3564638,44.2759844 L62.9702223,43.6596205 C63.308768,43.3193706 63.0825072,42.9190865 62.4722142,43.014244 C61.8287899,43.1143569 61.2342004,43.4174076 60.774999,43.8790988 C60.039865,44.6190469 59.7269504,45.6795069 59.9426976,46.7000054 L54.79542,51.8686095 C54.1415155,52.5276637 54.1415155,53.5907353 54.79542,54.2498062 C55.1095734,54.5650781 55.5362964,54.7422846 55.9813177,54.7422846 C56.426406,54.7422846 56.8531123,54.5650781 57.1672154,54.2498062 L62.3153301,49.0811854 C63.1414874,49.25645 64.0033542,49.083479 64.6979237,48.6030208 C65.3924262,48.1225459 65.8583074,47.3771067 65.9857099,46.542269 C66.0808516,45.9293873 65.682271,45.7014045 65.3428548,46.0416711 Z M55.8180216,46.1445296 L57.7560961,48.091156 L58.5472638,47.2973847 L56.6091893,45.3508252 L56.1746313,44.5176784 L54.7911677,43.5251043 L54,44.3188087 L54.9883318,45.7082684 L55.8180216,46.1445296 Z M62.3042137,50.2734831 C62.2518967,50.2208317 62.1808125,50.1912833 62.1065976,50.1912833 C62.0324329,50.1912833 61.9613487,50.2208317 61.9090317,50.2734831 L60.7227322,51.4649269 C60.6139127,51.5747832 60.6139127,51.7518725 60.7227322,51.8617456 L63.5213677,54.671536 C63.9584871,55.109488 64.6673873,55.109488 65.1037031,54.671536 C65.5408058,54.233517 65.5408058,53.5220793 65.1037031,53.0832065 L62.3042137,50.2734831 Z" id="图片维护"></path>
                </g>
            </g>
        </g>
    </g>
</svg>