<?xml version="1.0" encoding="UTF-8" standalone="no"?>
<svg width="20px" height="20px" viewBox="0 0 20 20" version="1.1" xmlns="http://www.w3.org/2000/svg" xmlns:xlink="http://www.w3.org/1999/xlink">
    <!-- Generator: Sketch 50.2 (55047) - http://www.bohemiancoding.com/sketch -->
    <title>工单中心</title>
    <desc>Created with Sketch.</desc>
    <defs></defs>
    <g id="工单中心" stroke="none" stroke-width="1" fill="none" fill-rule="evenodd">
        <g id="工单" transform="translate(1.000000, 0.000000)" fill="#FFFFFF" fill-rule="nonzero">
            <path d="M15.916808,0 C16.5908482,0 17.1428571,0.563504464 17.1428571,1.25 L17.1428571,18.75 C17.1428571,19.4364955 16.5908482,20 15.916808,20 L1.22604911,20 C0.552008929,20 0,19.4364955 0,18.75 L0,1.25 C0,0.563504464 0.552008929,0 1.22604911,0 L3.67816964,0 L3.67816964,2.5 C3.67348214,3.18649554 4.22549107,3.75 4.90421875,3.75 L12.2386161,3.75 C12.9173661,3.75 13.469375,3.18649554 13.4646652,2.5 L13.4646652,0 L15.9167857,0 L15.916808,0 Z M5,7.14285714 C4.60551339,7.14285714 4.28571429,7.46265625 4.28571429,7.85714286 C4.28571429,8.25162946 4.60551339,8.57142857 5,8.57142857 L12.1428571,8.57142857 C12.5373438,8.57142857 12.8571429,8.25162946 12.8571429,7.85714286 C12.8571429,7.46265625 12.5373438,7.14285714 12.1428571,7.14285714 L5,7.14285714 Z M5,11.4285714 C4.60551339,11.4285714 4.28571429,11.7483705 4.28571429,12.1428571 C4.28571429,12.5373437 4.60551339,12.8571429 5,12.8571429 L12.1428571,12.8571429 C12.5373438,12.8571429 12.8571429,12.5373437 12.8571429,12.1428571 C12.8571429,11.7483705 12.5373438,11.4285714 12.1428571,11.4285714 L5,11.4285714 Z M5,15.7142857 C4.60551339,15.7142857 4.28571429,16.0340848 4.28571429,16.4285714 C4.28571429,16.823058 4.60551339,17.1428571 5,17.1428571 L12.1428571,17.1428571 C12.5373438,17.1428571 12.8571429,16.823058 12.8571429,16.4285714 C12.8571429,16.0340848 12.5373438,15.7142857 12.1428571,15.7142857 L5,15.7142857 Z M6.13026786,2.5 C5.45691964,2.5 4.90421875,1.93872768 4.90421875,1.25 L4.90421875,0 L12.2605357,0 L12.2605357,1.25 C12.2605357,1.93649554 11.7078348,2.5 11.0344866,2.5 L6.13026786,2.5 Z" id="Shape"></path>
        </g>
    </g>
</svg>