<?xml version="1.0" encoding="UTF-8" standalone="no"?>
<svg width="30px" height="30px" viewBox="0 0 30 30" version="1.1" xmlns="http://www.w3.org/2000/svg" xmlns:xlink="http://www.w3.org/1999/xlink">
    <!-- Generator: Sketch 46 (44423) - http://www.bohemiancoding.com/sketch -->
    <title>xiaofang</title>
    <desc>Created with Sketch.</desc>
    <defs></defs>
    <g id="Page-1" stroke="none" stroke-width="1" fill="none" fill-rule="evenodd">
        <g id="xiaofang" fill="#FFFFFF">
            <path d="M28.6928771,12.9989398 L25.4035855,12.9989398 L25.4035855,14.0354313 L20.4048,14.0354313 L20.4048,11.0736964 L16.4696482,11.0736964 L16.4696482,9.1904 C18.7995566,9.0870747 20.9019952,8.76584096 22.5223518,8.30149398 C25.1264578,7.55554699 26.7367904,6.26629398 26.7367904,4.61386024 C26.7367904,2.96142651 25.1264578,1.67217349 22.5223518,0.92406747 C20.5312578,0.354236145 17.8105639,0 14.8338699,0 C11.8568675,0 9.13632771,0.354236145 7.14615904,0.92406747 C4.54097349,1.67217349 2.93048675,2.96127229 2.93048675,4.61386024 C2.93048675,6.26629398 4.54097349,7.55554699 7.14615904,8.30149398 C8.63126747,8.72836627 10.5235084,9.03417831 12.624559,9.16171566 L12.624559,11.0736964 L9.48933012,11.0736964 L9.48933012,14.0354313 L4.60065542,14.0354313 L4.60065542,12.9989398 L1,12.9989398 L1,29.9780627 L4.60065542,29.9780627 L4.60065542,28.7941398 L25.4037398,28.7941398 L25.4037398,29.9780627 L28.6930313,29.9780627 L28.6930313,12.9989398 L28.6928771,12.9989398 L28.6928771,12.9989398 Z M20.8248867,15.9867373 L25.378294,15.9867373 L25.378294,17.9428241 L20.8248867,17.9428241 L20.8248867,15.9867373 L20.8248867,15.9867373 Z M4.60065542,15.9867373 L9.15406265,15.9867373 L9.15406265,17.9428241 L4.60065542,17.9428241 L4.60065542,15.9867373 L4.60065542,15.9867373 Z M12.6247133,5.79546988 C10.8536867,5.67888193 9.28483855,5.4234988 8.0637494,5.07373494 C6.96803855,4.75913253 6.29025542,4.64686265 6.29025542,4.61401446 C6.29025542,4.58116627 6.96788434,4.46889639 8.0637494,4.15429398 C9.77216386,3.6635759 12.1648386,3.36007711 14.8338699,3.36007711 C17.5025928,3.36007711 19.8954217,3.66373012 21.6038361,4.15429398 C22.699547,4.46889639 23.3773301,4.58116627 23.3773301,4.61401446 C23.3773301,4.64686265 22.699547,4.75928675 21.6038361,5.07373494 C20.2528964,5.46097349 18.4740048,5.73177831 16.4696482,5.82847229 L16.4696482,4.52379759 L12.6247133,4.52379759 L12.6247133,5.79546988 L12.6247133,5.79546988 Z" id="Shape"></path>
        </g>
    </g>
</svg>