<?xml version="1.0" encoding="UTF-8" standalone="no"?>
<svg width="20px" height="20px" viewBox="0 0 20 20" version="1.1" xmlns="http://www.w3.org/2000/svg" xmlns:xlink="http://www.w3.org/1999/xlink">
    <!-- Generator: Sketch 47.1 (45422) - http://www.bohemiancoding.com/sketch -->
    <title>xaingmushouye</title>
    <desc>Created with Sketch.</desc>
    <defs></defs>
    <g id="Page-1" stroke="none" stroke-width="1" fill="none" fill-rule="evenodd">
        <g id="xaingmushouye" fill-rule="nonzero" fill="#FFFFFF">
            <g id="首页">
                <path d="M19.9905904,9.31792935 C19.9811809,8.98911353 19.9106093,8.74916685 19.6612562,8.41590758 C19.6142084,8.34925572 11.9642437,0.782048434 11.9642437,0.782048434 C11.4326041,0.257720507 10.7315926,0.00888691402 10.030581,0.00444345701 C9.98353329,0.00444345701 9.97412374,0 9.96000941,0 C9.25899788,0.00444345701 8.55798636,0.257720507 8.02164197,0.782048434 C8.02164197,0.782048434 0.376382028,8.34925572 0.329334274,8.41590758 C0.0799811809,8.74916685 0.00940955069,8.98911353 0,9.31792935 L0,9.44234615 C0,10.4732282 0.903316867,11.3130415 2.01834862,11.3130415 L2.50294048,11.3130415 L2.50294048,18.0226616 C2.50294048,19.1157521 3.56151494,20 4.86944248,20 C6.17266526,20 7.23123971,19.1157521 7.23123971,18.0226616 L7.23123971,11.3130415 L12.7640555,11.3130415 L12.7640555,18.0226616 C12.7640555,19.1157521 13.82263,20 15.1305575,20 C16.4337803,20 17.4923547,19.1157521 17.4923547,18.0226616 L17.4923547,11.3130415 L17.9769466,11.3130415 C19.0966831,11.3130415 20,10.4732282 20,9.44234615 C20,9.43642154 19.9968635,9.39494927 19.9905904,9.31792935 Z M17.0001338,2.57683924 L18.5455237,4.03864921 C18.7655552,4.24368284 19.1185147,4.24641017 19.3408974,4.04698658 C19.3440334,4.04693184 19.3533123,4.03936299 19.368734,4.02428002 C19.4334276,3.95648878 19.474756,3.89799365 19.4963375,3.7865136 C19.5006538,3.76421758 19.5049702,3.74192157 19.5045824,3.71970767 C19.5088987,3.69741166 19.5131375,3.67067287 19.5173763,3.64393408 L19.6432685,0.881929488 C19.653891,0.681758047 19.5707424,0.500999921 19.4320758,0.374540474 C19.4289398,0.374595214 19.4225902,0.370261913 19.4130269,0.361540572 C19.2742828,0.230638344 19.0847245,0.153952686 18.8683378,0.15772973 L15.8859646,0.209787249 C15.8577402,0.210279907 15.8295934,0.215215345 15.801369,0.215708003 C15.7778488,0.216118551 15.754406,0.220971879 15.7308857,0.221382428 C15.6088904,0.2412884 15.5435764,0.273537397 15.4693971,0.337050074 L15.4508911,0.355149634 C15.2239595,0.563540898 15.22029,0.892470856 15.4356174,1.09758659 L16.985789,2.56375723 L17.0001338,2.57683924 Z" id="Shape"></path>
            </g>
        </g>
    </g>
</svg>