<?xml version="1.0" encoding="UTF-8" standalone="no"?>
<svg width="20px" height="20px" viewBox="0 0 20 20" version="1.1" xmlns="http://www.w3.org/2000/svg" xmlns:xlink="http://www.w3.org/1999/xlink">
    <!-- Generator: Sketch 46 (44423) - http://www.bohemiancoding.com/sketch -->
    <title>系统管理</title>
    <desc>Created with Sketch.</desc>
    <defs></defs>
    <g id="Page-1" stroke="none" stroke-width="1" fill="none" fill-rule="evenodd">
        <g id="电梯系统／垂直电梯系统" transform="translate(-40.000000, -300.000000)" fill="#FFFFFF">
            <g id="侧边栏" transform="translate(0.000000, 100.000000)">
                <g id="窗口管理" transform="translate(0.000000, 180.000000)">
                    <path d="M58.6207338,33.5746754 L41.3792662,33.5746754 C40.6175391,33.5746754 40,32.9346509 40,32.1459065 L40,21.4287689 C40,20.6395722 40.6175391,20 41.3792662,20 L58.6207338,20 C59.3824894,20 60,20.6400245 60,21.4287689 L60,32.1459065 C60,32.9352163 59.3824894,33.5746754 58.6207338,33.5746754 Z M58.6352577,21.8128231 L58.183167,21.8128231 L58.183167,21.360529 L41.811717,21.360529 L41.811717,21.8128231 L41.3647423,21.8128231 L41.3647423,31.763294 L41.811717,31.763294 L41.811717,32.2147118 L58.183167,32.2147118 L58.183167,31.763294 L58.6352577,31.763294 L58.6352577,21.8128231 Z M42.721242,22.2651173 L42.721242,22.7174114 L42.2742673,22.7174114 L42.2742673,30.8587057 L42.721242,30.8587057 L42.721242,31.3109998 L57.273642,31.3109998 L57.273642,30.8587057 L57.7257327,30.8587057 L57.7257327,22.7174114 L57.273642,22.7174114 L57.273642,22.2651173 L42.721242,22.2651173 Z M44.540292,38.1908235 L48.178392,38.1908235 L48.178392,34.4770587 L52.2712545,34.4770587 L52.2712545,38.1908235 L55.454592,38.1908235 C55.9566498,38.1908235 56.364117,38.596079 56.364117,39.0954117 C56.364117,39.5947445 55.9566498,40 55.454592,40 L44.540292,40 C44.0382342,40 43.630767,39.5947445 43.630767,39.0954117 C43.630767,38.596079 44.0382342,38.1908235 44.540292,38.1908235 Z" id="系统管理"></path>
                </g>
            </g>
        </g>
    </g>
</svg>