<?xml version="1.0" encoding="UTF-8" standalone="no"?>
<svg width="50px" height="50px" viewBox="0 0 50 50" version="1.1" xmlns="http://www.w3.org/2000/svg" xmlns:xlink="http://www.w3.org/1999/xlink">
    <!-- Generator: Sketch 46 (44423) - http://www.bohemiancoding.com/sketch -->
    <title>yonghu</title>
    <desc>Created with Sketch.</desc>
    <defs></defs>
    <g id="Page-1" stroke="none" stroke-width="1" fill="none" fill-rule="evenodd">
        <g id="设备管理" transform="translate(-40.000000, -990.000000)">
            <g id="侧边栏" transform="translate(0.000000, 100.000000)">
                <g id="admin" transform="translate(40.000000, 890.000000)">
                    <g id="yonghu">
                        <circle id="Oval-3" fill="#FFFFFF" cx="25" cy="25" r="25"></circle>
                        <g id="用户" transform="translate(9.000000, 9.000000)" fill="#CCCCCC">
                            <path d="M8.64379824,11.6676952 C8.64379824,12.4134556 9.21127993,13.0177992 9.90944491,13.0177992 C9.91739356,13.0177992 9.92431736,13.017263 9.93177409,13.017263 C10.1937187,16.577904 12.9816356,20.1411807 16.3869726,20.1411807 C19.7912438,20.1411807 22.5791608,16.577904 22.8416383,13.017263 C22.849095,13.017263 22.8560188,13.0177992 22.8639674,13.0177992 C23.5627063,13.0177992 24.1296551,12.4134143 24.1296551,11.6676952 C24.1296551,11.1162787 23.8214985,10.6447809 23.3799121,10.4344046 C23.6360397,9.63386515 23.7763113,8.77850123 23.7763113,7.88629206 C23.7763113,3.53125312 20.4687644,0 16.3870136,0 C12.3052628,0 8.99767492,3.53125312 8.99767492,7.88629206 C8.99767492,8.77850123 9.13847951,9.63386515 9.3940332,10.4344046 C8.95195483,10.6447809 8.64379824,11.1162787 8.64379824,11.6676952 L8.64379824,11.6676952 Z M32.5646036,28.3814147 C29.5476393,25.4336924 25.8633946,23.3519631 21.9017221,22.3587255 C21.8018455,22.3036577 21.6891829,22.2731973 21.5723022,22.2731973 L21.2130997,22.2731973 C21.0994164,22.2731973 20.9878197,22.3020491 20.8879021,22.3565807 C19.6913254,23.0013167 18.0505797,23.3723223 16.3869719,23.3723223 C14.7227943,23.3723223 13.0825774,23.0013167 11.884939,22.3555083 C11.7839555,22.3020491 11.6723998,22.2731973 11.5592084,22.2731973 L11.2983278,22.2731973 C11.2441671,22.2731973 11.1915683,22.2801638 11.1400313,22.2919108 C7.0742132,23.2600418 3.29533494,25.3652649 0.209341681,28.3814147 C0.0754199042,28.5118724 0,28.6904272 0,28.8775159 L0,31.3542803 C0,31.7354241 0.308156595,32.0465814 0.688621686,32.0465814 L32.0853287,32.0465814 C32.4657938,32.0465814 32.7739914,31.7354241 32.7739914,31.3542803 L32.7739914,28.8775159 C32.7739494,28.6904272 32.6979965,28.5107546 32.5646036,28.3814147 L32.5646036,28.3814147 Z" id="Shape"></path>
                        </g>
                    </g>
                </g>
            </g>
        </g>
    </g>
</svg>