<?xml version="1.0" encoding="UTF-8" standalone="no"?>
<svg width="30px" height="30px" viewBox="0 0 30 30" version="1.1" xmlns="http://www.w3.org/2000/svg" xmlns:xlink="http://www.w3.org/1999/xlink">
    <!-- Generator: Sketch 46 (44423) - http://www.bohemiancoding.com/sketch -->
    <title>zhaoming</title>
    <desc>Created with Sketch.</desc>
    <defs></defs>
    <g id="Page-1" stroke="none" stroke-width="1" fill="none" fill-rule="evenodd">
        <g id="zhaoming" fill="#FFFFFF">
            <g id="照明" transform="translate(0.000000, 1.000000)">
                <path d="M29.5419459,13.3739282 L26.1089348,13.3739282 C25.8716892,13.3739282 25.6799447,13.1335833 25.6799447,12.8374521 C25.6799447,12.5406737 25.8716892,12.3003289 26.1089348,12.3003289 L29.5419459,12.3003289 C29.7787147,12.3003289 29.970902,12.5406737 29.970902,12.8374521 C29.970902,13.1335833 29.7787147,13.3739282 29.5419459,13.3739282 L29.5419459,13.3739282 Z M25.5127897,23.3694396 C25.3133822,23.5688131 25.0232451,23.6007592 24.8646726,23.4421527 L22.5655088,21.143023 C22.4069364,20.9844165 22.4392231,20.69462 22.6385965,20.4952465 C22.83797,20.295873 23.1277666,20.2635863 23.286339,20.4221928 L25.5854687,22.7213226 C25.7440752,22.879929 25.7121632,23.1700662 25.5127897,23.3694396 L25.5127897,23.3694396 Z M14.985468,21.3958329 C10.261059,21.3958329 6.43127627,17.4948016 6.43127627,12.6821832 C6.43127627,9.2977043 8.3257671,6.36367184 11.0935642,4.92068328 L11.0935642,3.96434448 C11.0935642,1.77474412 12.8358854,0 14.985468,0 C17.1350506,0 18.8773719,1.77474412 18.8773719,3.96434448 L18.8773719,4.92064922 C21.645169,6.36367184 23.5396938,9.2977043 23.5396938,12.6821832 C23.5396938,17.4948016 19.7099111,21.3958329 14.985468,21.3958329 L14.985468,21.3958329 Z M6.869462,20.4203196 C7.07922306,20.6300807 7.11321259,20.9349648 6.94633011,21.1018132 L4.52745366,23.5207237 C4.36057118,23.6875722 4.05534652,23.6539573 3.84558545,23.4442302 C3.63582439,23.2344692 3.60224355,22.9292105 3.76909197,22.762328 L6.18796843,20.3434515 C6.35481685,20.1766031 6.65973499,20.2105586 6.869462,20.4203196 L6.869462,20.4203196 Z M3.86196718,13.3739282 L0.429024213,13.3746093 C0.192221375,13.3746093 0,13.1335833 0,12.8374521 C0,12.5406737 0.192766297,12.3003289 0.429024213,12.300976 L3.86196718,12.3003289 C4.0982251,12.300976 4.2909914,12.5413549 4.2909914,12.8374521 C4.2909914,13.1335833 4.0982251,13.3746093 3.86196718,13.3739282 L3.86196718,13.3739282 Z M14.9858086,23.536833 C15.2824507,23.536833 15.5220804,23.7284073 15.5220804,23.9643927 L15.5220804,27.3852112 C15.5220804,27.6211966 15.2824507,27.8132818 14.9858086,27.8132818 C14.6892005,27.8132818 14.449605,27.6211966 14.449605,27.3852112 L14.449605,23.9643927 C14.449605,23.7284073 14.6892005,23.536833 14.9858086,23.536833 L14.9858086,23.536833 Z" id="Shape"></path>
            </g>
        </g>
    </g>
</svg>