<?xml version="1.0" encoding="UTF-8" standalone="no"?>
<svg width="30px" height="28px" viewBox="0 0 30 28" version="1.1" xmlns="http://www.w3.org/2000/svg" xmlns:xlink="http://www.w3.org/1999/xlink">
    <!-- Generator: Sketch 48.2 (47327) - http://www.bohemiancoding.com/sketch -->
    <title>zhihuifuwu </title>
    <desc>Created with Sketch.</desc>
    <defs></defs>
    <g id="Page-1" stroke="none" stroke-width="1" fill="none" fill-rule="evenodd">
        <g id="zhihuifuwu-" fill="#FFFFFF">
            <g id="智慧服务-(1)" transform="translate(3.000000, 0.000000)">
                <path d="M12.3650794,27.952381 C12.3650794,27.984127 12.3333333,28 12.2857143,28 L0.365079365,21.4285714 C0.142857143,21.3492063 0,21.1428571 0,20.9206349 L0,7.55555556 C0,7.17460317 0.396825397,6.92063492 0.777777778,7.04761905 L11.6190476,13.0952381 C12.0793651,13.3492063 12.3650794,13.8253968 12.3650794,14.3492063 L12.3650794,27.952381 Z M13.8095238,27.4126984 C13.7777778,27.4126984 13.7460317,27.3968254 13.7301587,27.3650794 L13.7460317,13.8412698 C13.7460317,13.2539683 14.0634921,12.7301587 14.5714286,12.4444444 L24.1269841,7.12698413 C24.5079365,7 24.9047619,7.25396825 24.9047619,7.63492063 L24.9047619,21 C24.9047619,21.2222222 24.7619048,21.4285714 24.5396825,21.5079365 L13.8095238,27.4126984 Z M13.8412698,11.2063492 C13.0952381,11.6190476 12.1904762,11.6190476 11.4444444,11.2063492 L2.71428571,6.41269841 C2.28571429,6.17460317 2.28571429,5.57142857 2.6984127,5.33333333 L11.3968254,0.333333333 C12.1746032,-0.111111111 13.1269841,-0.111111111 13.8888889,0.333333333 L22.5873016,5.33333333 C23,5.57142857 23,6.17460317 22.5714286,6.41269841 L13.8412698,11.2063492 Z" id="fueu"></path>
            </g>
        </g>
    </g>
</svg>