<?xml version="1.0" encoding="UTF-8" standalone="no"?>
<svg width="30px" height="27px" viewBox="0 0 30 27" version="1.1" xmlns="http://www.w3.org/2000/svg" xmlns:xlink="http://www.w3.org/1999/xlink">
    <!-- Generator: Sketch 46 (44423) - http://www.bohemiancoding.com/sketch -->
    <title>组织管理</title>
    <desc>Created with Sketch.</desc>
    <defs></defs>
    <g id="Page-1" stroke="none" stroke-width="1" fill="none" fill-rule="evenodd">
        <g id="菜单栏icon" transform="translate(-45.000000, -30.000000)" fill="#FFFFFF">
            <g id="菜单栏">
                <g id="消防系统">
                    <path d="M73.3333354,40.1249815 C74.2538443,40.1249815 75,39.369502 75,38.4374537 L75,31.6875278 C75,30.7554794 74.2538443,30 73.3333354,30 L46.6667013,30 C45.7461557,30 45,30.7554794 45,31.6875278 L45,38.4374537 C45,38.8849941 45.1755251,39.3142918 45.4880865,39.6307589 C45.800648,39.947263 46.2246475,40.1249815 46.6667013,40.1249815 L59.1666677,40.1249815 L59.1666677,42.6561619 L49.1666433,42.6561619 C48.706462,42.6561619 48.3333659,43.0339202 48.3333659,43.5 L48.3333659,48.562398 L46.6667013,48.562398 C45.7461557,48.562398 45,49.3180258 45,50.2499258 L45,55.3124722 C45,56.2443723 45.7461557,57 46.6667013,57 L51.6666219,57 C52.5871675,57 53.3333232,56.2443723 53.3333232,55.3124722 L53.3333232,50.2499258 C53.3333232,49.3180258 52.5871675,48.562398 51.6666219,48.562398 L50.0000671,48.562398 L50.0000671,44.3436897 L59.1666677,44.3436897 L59.1666677,48.562398 L57.4999664,48.562398 C56.5795674,48.562398 55.8332652,49.3180258 55.8332652,50.2499258 L55.8332652,55.3124722 C55.8332652,56.2443723 56.5795674,57 57.4999664,57 L62.5000336,57 C63.4204326,57 64.1667348,56.2443723 64.1667348,55.3124722 L64.1667348,50.2499258 C64.1667348,49.3180258 63.4204326,48.562398 62.5000336,48.562398 L60.8333323,48.562398 L60.8333323,44.3436897 L70.0000793,44.3436897 L70.0000793,48.562398 L68.3333781,48.562398 C67.4128692,48.562398 66.6667135,49.3180258 66.6667135,50.2499258 L66.6667135,55.3124722 C66.6667135,56.2443723 67.4128692,57 68.3333781,57 L73.3333354,57 C74.2538443,57 75,56.2443723 75,55.3124722 L75,50.2499258 C75,49.3180258 74.2538443,48.562398 73.3333354,48.562398 L71.6667806,48.562398 L71.6667806,43.5 C71.6667806,43.0339202 71.293538,42.6561619 70.8333567,42.6561619 L60.8333323,42.6561619 L60.8333323,40.1249815 L73.3333354,40.1249815 Z" id="组织管理"></path>
                </g>
            </g>
        </g>
    </g>
</svg>