<?xml version="1.0" encoding="UTF-8" standalone="no"?>
<svg width="38px" height="41px" viewBox="0 0 38 41" version="1.1" xmlns="http://www.w3.org/2000/svg" xmlns:xlink="http://www.w3.org/1999/xlink">
    <!-- Generator: Sketch 48.2 (47327) - http://www.bohemiancoding.com/sketch -->
    <title>diantixitong</title>
    <desc>Created with Sketch.</desc>
    <defs>
        <rect id="path-1" x="0" y="0" width="42" height="42"></rect>
    </defs>
    <g id="火炬小区项目首页" stroke="none" stroke-width="1" fill="none" fill-rule="evenodd" transform="translate(-292.000000, -716.000000)">
        <g id="Group-40-Copy-9" transform="translate(260.000000, 600.000000)">
            <g id="Group-9" transform="translate(30.000000, 93.000000)">
                <g id="diantixitong" transform="translate(0.000000, 22.000000)">
                    <g id="Rectangle-16" opacity="0">
                        <use fill="#D8D8D8" fill-rule="evenodd" xlink:href="#path-1"></use>
                        <rect stroke="#979797" stroke-width="1" x="0.5" y="0.5" width="41" height="41"></rect>
                    </g>
                    <path d="M5.14274398,1 L3.01061392,1 C2.4524849,1 2,1.45139502 2,2.0082872 L2,40.1225539 C2,40.679398 2.45243666,41.1308411 3.01061392,41.1308411 L5.14274398,41.1308411 C5.700873,41.1308411 6.1533579,40.6794461 6.1533579,40.1225539 L6.1533579,2.0082872 C6.1533579,1.45144315 5.700873,1 5.14274398,1 Z M38.9893861,1 L36.857256,1 C36.299127,1 35.8466421,1.45139502 35.8466421,2.0082872 L35.8466421,40.1225539 C35.8466421,40.679398 36.2990788,41.1308411 36.857256,41.1308411 L38.9893861,41.1308411 C39.5475151,41.1308411 40,40.6794461 40,40.1225539 L40,2.0082872 C40,1.45144315 39.5475633,1 38.9893861,1 Z M33.0066888,9 L9.04327195,9 C8.46714965,9 8,9.31421283 8,9.70181985 L8,32.2981802 C8,32.6857872 8.46710141,33 9.04327195,33 L33.0066888,33 C33.5828111,33 34.0499607,32.6857872 34.0499607,32.2981802 L34.0499607,9.70181985 C34.0499607,9.31421283 33.5828593,9 33.0066888,9 Z M26.8095346,10.4145628 C28.0050981,10.4145628 28.9742745,11.3787646 28.9742745,12.5681584 C28.9742745,13.7575523 28.0050981,14.721754 26.8095346,14.721754 C25.6139711,14.721754 24.6447948,13.7575523 24.6447948,12.5681584 C24.6447948,11.3787646 25.6140194,10.4145628 26.8095346,10.4145628 Z M15.4187339,10.4145628 C16.6142974,10.4145628 17.5834737,11.3787646 17.5834737,12.5681584 C17.5834737,13.7575523 16.6142974,14.721754 15.4187339,14.721754 C14.2231704,14.721754 13.253994,13.7575523 13.253994,12.5681584 C13.253994,11.3787646 14.2231704,10.4145628 15.4187339,10.4145628 Z M19.6307508,22.396095 C19.6307508,22.7858858 19.3140596,23.1019441 18.9232728,23.1019441 L18.7471993,23.1019441 C18.3565089,23.1019441 18.0397213,22.785982 18.0397213,22.396095 L18.0397213,17.2136913 L17.583329,17.2136913 L17.583329,30.6819537 C17.583329,31.1275252 17.2213411,31.4886316 16.7747896,31.4886316 L16.5661545,31.4886316 C16.1196031,31.4886316 15.7576151,31.1275252 15.7576151,30.6819537 L15.7576151,24.2405145 L15.0730026,24.2405145 L15.0730026,30.6819537 C15.0730026,31.1275252 14.7110629,31.4886316 14.2644632,31.4886316 L14.0623404,31.4886316 C13.615789,31.4886316 13.2538011,31.1275252 13.2538011,30.6819537 L13.2538011,17.2136913 L12.7974088,17.2136913 L12.7974088,22.396095 C12.7974088,22.7858858 12.4807176,23.1019441 12.0899308,23.1019441 L11.9072967,23.1019441 C11.5166064,23.1019441 11.1998187,22.785982 11.1998187,22.396095 L11.1998187,16.6083339 C11.1998187,15.9401211 11.7427524,15.3983412 12.4126037,15.3983412 L18.4177247,15.3983412 C19.0874795,15.3983412 19.6305096,15.9400248 19.6305096,16.6083339 L19.6305096,22.396095 L19.6307508,22.396095 Z M31.021648,22.396095 C31.021648,22.7858858 30.7049568,23.1019441 30.31417,23.1019441 L30.1381447,23.1019441 C29.7474544,23.1019441 29.4306668,22.785982 29.4306668,22.396095 L29.4306668,17.2136913 L28.9742745,17.2136913 L28.9742745,30.6819537 C28.9742745,31.1275252 28.6123348,31.4886316 28.1657351,31.4886316 L27.9571482,31.4886316 C27.5105485,31.4886316 27.1486089,31.1275252 27.1486089,30.6819537 L27.1486089,24.2405145 L26.4704604,24.2405145 L26.4704604,30.6819537 C26.4704604,31.1275252 26.1085207,31.4886316 25.661921,31.4886316 L25.4533342,31.4886316 C25.0067345,31.4886316 24.6447948,31.1275252 24.6447948,30.6819537 L24.6447948,17.2136913 L24.1884025,17.2136913 L24.1884025,22.396095 C24.1884025,22.7858858 23.8717113,23.1019441 23.4809245,23.1019441 L23.304851,23.1019441 C22.9141607,23.1019441 22.597373,22.785982 22.597373,22.396095 L22.597373,16.6083339 C22.597373,15.9401211 23.1403066,15.3983412 23.8101579,15.3983412 L29.8087666,15.3983412 C30.4785697,15.3983412 31.0215516,15.9400248 31.0215516,16.6083339 L31.0215516,22.396095 L31.021648,22.396095 Z M17.1013271,3.79904815 L17.1013271,5.73229776 L19.8079446,3.79904815 L19.8079446,7.61585059 L21.5122025,7.61585059 L21.5122025,3.79904815 L24.219304,5.707718 L24.219304,3.64659991 L20.6608875,1 L17.1013271,3.79904815 Z M17,38.1930272 L17.0040038,36.2595538 L19.7071455,38.1989371 L19.7150211,34.3815079 L21.418927,34.3856717 L21.4115793,38.2030561 L24.1221126,36.2998037 L24.1181528,38.3615486 L20.5536207,41 L17,38.1930272 Z" id="Shape" fill="#20608D" fill-rule="nonzero"></path>
                </g>
            </g>
        </g>
    </g>
</svg>