<?xml version="1.0" encoding="UTF-8" standalone="no"?>
<svg width="40px" height="40px" viewBox="0 0 40 40" version="1.1" xmlns="http://www.w3.org/2000/svg" xmlns:xlink="http://www.w3.org/1999/xlink">
    <!-- Generator: Sketch 48.2 (47327) - http://www.bohemiancoding.com/sketch -->
    <title>gongdanzongrenwu</title>
    <desc>Created with Sketch.</desc>
    <defs>
        <rect id="path-1" x="0" y="0" width="42" height="42"></rect>
    </defs>
    <g id="火炬小区项目首页" stroke="none" stroke-width="1" fill="none" fill-rule="evenodd" transform="translate(-291.000000, -474.000000)">
        <g id="Group-40-Copy-9" transform="translate(260.000000, 360.000000)">
            <g id="Group-18" transform="translate(30.000000, 90.000000)">
                <g id="Group-9" transform="translate(0.000000, 1.000000)">
                    <g id="YLH电梯">
                        <g id="gongdanzongrenwu" transform="translate(0.000000, 22.000000)">
                            <g id="Rectangle-13" opacity="0">
                                <use fill="#D8D8D8" fill-rule="evenodd" xlink:href="#path-1"></use>
                                <rect stroke="#979797" stroke-width="1" x="0.5" y="0.5" width="41" height="41"></rect>
                            </g>
                            <path d="M34.75,1 L33.3225,1 L33.3225,4.695 C33.3225,5.81061519 32.4181152,6.715 31.3025,6.715 L30.6975,6.715 C29.5824559,6.71362255 28.6788774,5.81004414 28.6775,4.695 L28.6775,1 L7.25,1 C3.79822031,1 1,3.79822031 1,7.25 L1,34.75 C1,38.2017797 3.79822031,41 7.25,41 L34.75,41 C38.2017797,41 41,38.2017797 41,34.75 L41,7.25 C41,3.79822031 38.2017797,1 34.75,1 Z M9.4825,33.8575 C8.2,33.8575 7.1625,32.8975 7.1625,31.715 C7.1625,30.5325 8.2025,29.5725 9.4825,29.5725 C10.765,29.5725 11.805,30.535 11.805,31.715 C11.8025,32.8975 10.765,33.8575 9.4825,33.8575 Z M9.4825,23.8575 C8.2,23.8575 7.1625,22.8975 7.1625,21.715 C7.1625,20.5325 8.2025,19.5725 9.4825,19.5725 C10.765,19.5725 11.805,20.5325 11.805,21.715 C11.8025,22.8975 10.765,23.8575 9.4825,23.8575 Z M9.4825,13.8575 C8.2,13.8575 7.1625,12.8975 7.1625,11.715 C7.1625,10.53 8.2025,9.5725 9.4825,9.5725 C10.765,9.5725 11.805,10.5325 11.805,11.715 C11.8025,12.8975 10.765,13.8575 9.4825,13.8575 Z M34.8375,31.9825 C34.8375,33.0180339 33.9980339,33.8575 32.9625,33.8575 L16.7125,33.8575 C15.6769661,33.8575 14.8375,33.0180339 14.8375,31.9825 L14.8375,31.445 C14.8375,30.4094661 15.6769661,29.57 16.7125,29.57 L32.9625,29.57 C33.9980339,29.57 34.8375,30.4094661 34.8375,31.445 L34.8375,31.9825 Z M34.8375,21.9825 C34.8375,23.0180339 33.9980339,23.8575 32.9625,23.8575 L16.7125,23.8575 C15.6769661,23.8575 14.8375,23.0180339 14.8375,21.9825 L14.8375,21.445 C14.8375,20.4094661 15.6769661,19.57 16.7125,19.57 L32.9625,19.57 C33.9980339,19.57 34.8375,20.4094661 34.8375,21.445 L34.8375,21.9825 Z M34.8375,11.9825 C34.8375,13.0180339 33.9980339,13.8575 32.9625,13.8575 L16.7125,13.8575 C15.6769661,13.8575 14.8375,13.0180339 14.8375,11.9825 L14.8375,11.445 C14.8375,10.4094661 15.6769661,9.57 16.7125,9.57 L32.9625,9.57 C33.9980339,9.57 34.8375,10.4094661 34.8375,11.445 L34.8375,11.9825 Z" id="Shape" fill="#20608D" fill-rule="nonzero"></path>
                        </g>
                    </g>
                </g>
            </g>
        </g>
    </g>
</svg>