<?xml version="1.0" encoding="UTF-8" standalone="no"?>
<svg width="264px" height="200px" viewBox="0 0 264 200" version="1.1" xmlns="http://www.w3.org/2000/svg" xmlns:xlink="http://www.w3.org/1999/xlink">
    <!-- Generator: Sketch 50.2 (55047) - http://www.bohemiancoding.com/sketch -->
    <title>Ic卡出入</title>
    <desc>Created with Sketch.</desc>
    <defs></defs>
    <g id="Page-1" stroke="none" stroke-width="1" fill="none" fill-rule="evenodd">
        <g id="Ic卡出入" transform="translate(0.000000, -0.589041)">
            <rect id="Rectangle-33" fill="#E3E3E3" x="0" y="0.589041096" width="264" height="200"></rect>
            <path d="M118.165186,98.3572446 C121.67016,93.5747632 129.077789,88.0252094 141.124016,91.7448454 L142.850348,92.7936125 L131.819307,50.2551272 C131.043065,47.2586497 128.06144,45.480137 125.16209,46.2835029 L81.6679609,58.3252094 L106.282215,150.840548 L144.42182,140.280806 L121.982853,126.649933 C112.50081,119.3982 111.198117,107.862407 118.165186,98.3571155 L118.165186,98.3572446 Z M70.0303914,61.5473268 C67.1310411,62.3499178 65.4102622,65.4303483 66.1866341,68.4266967 L87.4060861,150.252748 C88.183362,153.249225 91.1638239,155.026834 94.0633033,154.224372 L99.7201879,152.658454 L75.1049002,60.1420822 L70.0302622,61.5473268 L70.0303914,61.5473268 Z M182.407468,82.5773033 L142.231679,63.3250646 L153.636892,107.30638 L140.304634,99.1896712 C134.408935,95.6006145 126.897851,97.6798082 123.52901,103.834082 C120.160297,109.988227 122.208622,117.887562 128.10445,121.476618 L160.130724,140.973354 C160.949977,141.472552 161.802939,141.85047 162.669851,142.135135 L165.098031,151.498481 L197.924959,142.410372 L182.407339,82.5773033 L182.407468,82.5773033 Z" id="Shape" fill="#FFFFFF" fill-rule="nonzero"></path>
        </g>
    </g>
</svg>