<?xml version="1.0" encoding="UTF-8" standalone="no"?>
<svg width="160px" height="90px" viewBox="0 0 160 90" version="1.1" xmlns="http://www.w3.org/2000/svg" xmlns:xlink="http://www.w3.org/1999/xlink">
    <!-- Generator: Sketch 50.2 (55047) - http://www.bohemiancoding.com/sketch -->
    <title>加载</title>
    <desc>Created with Sketch.</desc>
    <defs></defs>
    <g id="Page-1" stroke="none" stroke-width="1" fill="none" fill-rule="evenodd">
        <g id="政府首页" transform="translate(-917.000000, -616.000000)">
            <g id="Group-16" transform="translate(917.000000, 616.000000)">
                <g id="加载">
                    <rect id="Rectangle-29-Copy" fill="#576065" x="0" y="0" width="160" height="90"></rect>
                    <g id="图片" transform="translate(62.000000, 20.000000)" fill="#CECECE" fill-rule="nonzero">
                        <path d="M33.2314667,0 L2.76858078,0 C1.23928892,0 0,1.2810163 0,2.86304891 L0,28.6370401 C0,30.2168415 1.23924147,31.500089 2.76858078,31.500089 L33.2314667,31.500089 C34.7607585,31.500089 36,30.216889 36,28.6370401 L36,2.86304887 C36.0000475,1.2810163 34.7607585,0 33.2314667,0 Z M33.7619342,28.8849462 L2.23811318,28.8849462 L2.23811318,2.6150953 L33.7619342,2.6150953 L33.7619342,28.8849462 Z M9.69214519,12.8869718 C11.221437,12.8869718 12.4606785,11.6037719 12.4606785,10.0217392 C12.4606785,8.43970664 11.221437,7.15869033 9.69214519,7.15869033 C8.16503706,7.15869033 6.92356442,8.43970664 6.92356442,10.0217392 C6.92361187,11.6037719 8.16503702,12.8869718 9.69214519,12.8869718 Z M22.5000296,9.00001184 L15.8313393,20.700483 L12.37504,14.7261097 L6.75000888,24.7500326 L29.2500385,24.7500326 L22.5000296,9.00001184 Z" id="Shape"></path>
                    </g>
                    <text id="正在加载…" font-family="PingFangSC-Regular, PingFang SC" font-size="12" font-weight="normal" line-spacing="12" fill="#FFFFFF">
                        <tspan x="50" y="75">正在加载…</tspan>
                    </text>
                </g>
            </g>
        </g>
    </g>
</svg>