<?xml version="1.0" encoding="UTF-8" standalone="no"?>
<svg width="18px" height="20px" viewBox="0 0 18 20" version="1.1" xmlns="http://www.w3.org/2000/svg" xmlns:xlink="http://www.w3.org/1999/xlink">
    <!-- Generator: Sketch 48.2 (47327) - http://www.bohemiancoding.com/sketch -->
    <title>lixian</title>
    <desc>Created with Sketch.</desc>
    <defs>
        <rect id="path-1" x="0" y="0" width="21" height="21"></rect>
    </defs>
    <g id="火炬小区项目首页" stroke="none" stroke-width="1" fill="none" fill-rule="evenodd" transform="translate(-1657.000000, -982.000000)">
        <g id="Group-40-Copy-8" transform="translate(1370.000000, 840.000000)">
            <g id="Group-72" transform="translate(285.000000, 99.000000)">
                <g id="Group-4">
                    <g id="正常设备">
                        <g id="监控">
                            <g id="Group-77">
                                <g id="Group-61">
                                    <g id="Group-30-Copy" transform="translate(1.000000, 38.000000)">
                                        <g id="lixian" transform="translate(0.000000, 4.000000)">
                                            <g id="Rectangle-19" opacity="0">
                                                <use fill="#D8D8D8" fill-rule="evenodd" xlink:href="#path-1"></use>
                                                <rect stroke="#979797" stroke-width="1" x="0.5" y="0.5" width="20" height="20"></rect>
                                            </g>
                                            <path d="M13.6,9.41810345 C10.618,9.41810345 8.2,11.8413147 8.2,14.8297414 C8.2,17.8181681 10.618,20.2413793 13.6,20.2413793 C16.582,20.2413793 19,17.8181681 19,14.8297414 C19,11.8413147 16.582,9.41810345 13.6,9.41810345 Z M9.4,14.8297414 C9.4,12.50875 11.284,10.6206897 13.6,10.6206897 C14.542,10.6206897 15.4024,10.9441853 16.1044,11.4709181 L10.2484,17.3395388 C9.7228,16.6360259 9.4,15.7737716 9.4,14.8297414 Z M13.6,19.0387931 C12.658,19.0387931 11.7976,18.7152974 11.0968,18.1897672 L16.9528,12.3211466 C17.4772,13.0234569 17.8,13.8857112 17.8,14.8297414 C17.8,17.1507328 15.916,19.0387931 13.6,19.0387931 Z M7.726,17.8362069 C7.9456,18.2655302 8.2048,18.6708017 8.5084,19.0387931 L3.4,19.0387931 L2.2,19.0387931 C1.8688,19.0387931 1.6,18.7694138 1.6,18.4375 C1.6,18.1055862 1.8688,17.8362069 2.2,17.8362069 L2.9764,17.8362069 L4.2508,14.2452845 C2.2936,12.9549095 1,10.7385431 1,8.21551724 C1,4.23014655 4.2232,1 8.2,1 C12.1768,1 15.4,4.23014655 15.4,8.21551724 C15.4,8.30090086 15.3868,8.38267672 15.3844,8.46685776 C15.0016,8.35982759 14.6068,8.28286207 14.1988,8.2455819 C14.1988,8.23596121 14.2,8.22634052 14.2,8.21551724 C14.2,4.89998707 11.5084,2.20258621 8.2,2.20258621 C4.8916,2.20258621 2.2,4.89998707 2.2,8.21551724 C2.2,10.2057974 3.1816,11.9603707 4.6732,13.0559267 C5.002,13.2976466 5.3512,13.5068966 5.7256,13.6776638 C6.142,13.8676724 6.5836,14.0107802 7.042,14.1045819 C7.0156,14.342694 7,14.5844138 7,14.8297414 C7,14.9969009 7.0132,15.1604526 7.0252,15.3240043 C6.4288,15.2241897 5.8552,15.0606379 5.3176,14.824931 L4.2496,17.8362069 L7.726,17.8362069 Z M6.1276,9.41810345 C6.1276,10.4691638 6.9124,11.3302155 7.924,11.4673103 C7.7152,11.8196681 7.54,12.1924698 7.3984,12.5833103 C6.8668,12.4462155 6.3832,12.1864569 5.9896,11.8232759 C5.3404,11.2243879 4.9276,10.3729569 4.9276,9.41810345 C4.9276,7.60700862 6.3928,6.13865086 8.2,6.13865086 C9.7288,6.13865086 11.002,7.19452155 11.362,8.61477586 C10.9708,8.75547845 10.5976,8.93225862 10.2448,9.14150862 C10.108,8.12772845 9.2488,7.34123707 8.2,7.34123707 C7.0576,7.34123707 6.1276,8.27324138 6.1276,9.41810345 Z M8.2,5.48203879 C7.7176,5.48203879 7.3276,5.09119828 7.3276,4.60775862 C7.3276,4.12431897 7.7176,3.73347845 8.2,3.73347845 C8.6824,3.73347845 9.0724,4.12431897 9.0724,4.60775862 C9.0724,5.09119828 8.6824,5.48203879 8.2,5.48203879 Z" id="Shape" fill="#999999" fill-rule="nonzero"></path>
                                        </g>
                                    </g>
                                </g>
                            </g>
                        </g>
                    </g>
                </g>
            </g>
        </g>
    </g>
</svg>