<?xml version="1.0" encoding="UTF-8" standalone="no"?>
<svg width="19px" height="20px" viewBox="0 0 19 20" version="1.1" xmlns="http://www.w3.org/2000/svg" xmlns:xlink="http://www.w3.org/1999/xlink">
    <!-- Generator: Sketch 48.2 (47327) - http://www.bohemiancoding.com/sketch -->
    <title>zuixinshijian</title>
    <desc>Created with Sketch.</desc>
    <defs></defs>
    <g id="火炬小区项目首页-" stroke="none" stroke-width="1" fill="none" fill-rule="evenodd" transform="translate(-561.000000, -164.000000)">
        <g id="Group-6" transform="translate(262.000000, 121.000000)">
            <g id="Group-3" transform="translate(298.000000, 43.000000)">
                <g id="zuixinshijian" transform="translate(1.000000, 0.000000)">
                    <path d="M15.2479871,12.0077521 C17.452651,12.1439711 19.1286332,14.0393792 18.9922308,16.2471829 C18.8560738,18.4529739 16.9581435,20.128468 14.7547308,19.992249 C12.5509257,19.8561527 10.8716806,17.9594929 11.0077149,15.7537018 C11.1441418,13.5467572 13.0442065,11.8715331 15.2479871,12.0077521 Z M14.9388954,14.7409233 C14.1087348,14.7409233 13.4356895,15.4138218 13.4356895,16.2439824 L13.4356895,18.0908346 L16.4634891,18.0908346 L16.4634891,16.2439824 C16.4634891,15.4138151 15.7905973,14.7409233 14.96043,14.7409233 L14.9388954,14.7409233 Z M13.193797,15.6411465 C13.2204901,15.5086021 13.1344984,15.3795412 13.0019541,15.3528482 L12.2931201,15.2106009 C12.1605757,15.1840613 12.0313613,15.2700463 12.0048218,15.4025907 C11.9992051,15.4306167 11.9984893,15.4594043 12.0027063,15.4876748 C12.0177212,15.5865525 12.0929422,15.6699683 12.1966714,15.690889 L12.9055054,15.8331363 C13.0381966,15.8596825 13.1672575,15.7738443 13.193797,15.6411465 Z M13.0313698,13.9988698 L13.4828561,14.5634812 C13.5673196,14.6690322 13.7214052,14.6861759 13.8271097,14.6017057 C13.9326607,14.5172289 13.9497977,14.3631432 13.8653275,14.2574454 L13.4137011,13.6929741 C13.3293844,13.5874298 13.1752988,13.5702862 13.0695943,13.6546095 C12.9986174,13.7113322 12.9676802,13.7992925 12.9804194,13.8830019 C12.9868377,13.9254576 13.0044235,13.965445 13.0313765,13.9988698 Z M14.9802963,14.2124075 C15.11557,14.2155907 15.2276475,14.1085182 15.2308239,13.973398 L15.2291556,13.2506035 C15.2323454,13.1154766 15.1252729,13.0032523 14.9901527,13.0000692 C14.8548723,12.996886 14.742648,13.1039585 14.7394582,13.2390788 L14.7411265,13.9618599 C14.7408262,13.9764276 14.7417338,13.9908352 14.7438626,14.004789 C14.7614533,14.1200362 14.8597304,14.2096715 14.9802963,14.2124075 Z M16.1139169,14.6555389 C16.2153838,14.7448672 16.3702169,14.7350175 16.4595452,14.6335505 L16.9371106,14.0907807 C17.0264389,13.9891669 17.0165758,13.8344806 16.9151222,13.7451523 C16.8135084,13.655824 16.6588222,13.6656871 16.5694939,13.7671407 L16.0917883,14.3099239 C16.0420391,14.3664865 16.0230804,14.4395854 16.0335507,14.5087338 C16.041879,14.5636347 16.0690258,14.6159598 16.1139169,14.6555456 Z M17.8964789,15.5412144 C17.8761521,15.4074488 17.751202,15.3155446 17.6175832,15.3360115 L16.9028367,15.4447524 C16.7690711,15.4650725 16.6771736,15.5898825 16.697487,15.7236481 C16.7178138,15.8574003 16.8427773,15.9493044 16.9765362,15.9289844 L17.6911359,15.8201034 C17.8248948,15.7997833 17.9167923,15.6749599 17.8964722,15.5412077 Z M16.9982176,18.6511885 C16.9982176,18.458438 16.8420166,18.3023771 16.6492527,18.3023771 L13.1731767,18.3023771 C12.9804128,18.3023771 12.8242117,18.458438 12.8242117,18.6511885 C12.8242117,18.8439391 12.9804128,19 13.1731767,19 L16.649246,19 C16.8420099,19 16.998211,18.8439391 16.998211,18.6511885 Z" id="Shape" fill="#20608D" fill-rule="nonzero"></path>
                    <g id="Group-16" transform="translate(12.000000, 18.000000)"></g>
                    <path d="M12.2004944,3.43736648 C11.9065125,3.14439611 11.7415311,2.74626574 11.7421212,2.33122759 L11.7421196,0.0157954331 L14.8832468,0.0157954331 C15.0834922,0.0157954331 15.283712,0.0922249481 15.4365965,0.244982072 C15.589481,0.397739196 15.6658851,0.597831666 15.6658851,0.798026043 L15.6658851,3.89571571 L13.307525,3.89571429 C12.8922358,3.8962749 12.4938422,3.73132655 12.2004944,3.43736648 Z M15.6655029,5.20976694 L15.6655029,10.4932629 C15.4492719,10.4657315 15.2315354,10.4517007 15.0135592,10.4512521 C13.0941593,10.4512521 11.418111,11.4884006 10.5118353,13.0320221 L3.91561144,13.0320221 C3.55392149,13.0320221 3.24777033,13.1573665 2.99733629,13.4075458 C2.74690225,13.6579798 2.62165975,13.9637233 2.62165975,14.3254642 C2.62165975,14.6868994 2.74687677,14.9965663 2.99733629,15.2535224 C3.24777033,15.510886 3.55392149,15.6392366 3.91561144,15.6392366 L9.79660785,15.6392366 C9.79635309,15.649147 9.79584356,15.6588026 9.79584356,15.6688403 C9.79584356,17.2274674 10.4801425,18.6258983 11.563964,19.5817768 L0.795631251,19.5817768 C0.58804478,19.581997 0.388906376,19.499588 0.242179657,19.352743 C0.0951943848,19.2062435 0.0127053327,19.0071731 0.0129930176,18.799648 L0.0129930176,0.798026043 C0.0129930176,0.597933572 0.0894225326,0.39771372 0.242179657,0.244982072 C0.388839839,0.0980189896 0.588008293,0.0155424932 0.795631251,0.0157954331 L10.4274316,0.0157954331 L10.4274316,2.62316286 C10.4274316,2.9013663 10.4691621,3.18991319 10.5525212,3.48887998 C10.6358816,3.78767833 10.7700647,4.06989364 10.9491904,4.32315909 C11.1298443,4.58052274 11.359566,4.79261464 11.6377694,4.95946028 C11.9159728,5.12630591 12.2431421,5.20976694 12.6186913,5.20976694 L15.6655029,5.20976694 Z M3.91573882,7.81700698 C3.55392149,7.81700698 3.24789772,7.94573976 2.99731081,8.20297603 C2.74687677,8.46033969 2.62178713,8.76985375 2.62178713,9.1313144 C2.62178713,9.49277505 2.74687677,9.79877335 2.99731081,10.0492329 C3.24777033,10.2994122 3.55392149,10.4245018 3.91573882,10.4245018 L11.7421212,10.4245018 C12.1035818,10.4245018 12.4098604,10.2994122 12.6602944,10.0492329 C12.9107284,9.79877335 13.0360728,9.49274958 13.0360728,9.1313144 C13.0360728,8.76987922 12.9107284,8.46018683 12.6602944,8.20295056 C12.4098604,7.94573976 12.1035818,7.81698151 11.7421212,7.81698151 L3.91573882,7.81698151 L3.91573882,7.81700698 Z" id="Shape" fill="#20608D" fill-rule="nonzero"></path>
                </g>
            </g>
        </g>
    </g>
</svg>