<?xml version="1.0" encoding="UTF-8" standalone="no"?>
<svg width="140px" height="40px" viewBox="0 0 140 40" version="1.1" xmlns="http://www.w3.org/2000/svg" xmlns:xlink="http://www.w3.org/1999/xlink">
    <!-- Generator: Sketch 48.2 (47327) - http://www.bohemiancoding.com/sketch -->
    <title>001</title>
    <desc>Created with Sketch.</desc>
    <defs>
        <rect id="path-1" x="0" y="0" width="140" height="40" rx="4"></rect>
    </defs>
    <g id="Page-1" stroke="none" stroke-width="1" fill="none" fill-rule="evenodd">
        <g id="001">
            <g id="Rectangle">
                <use fill-opacity="0" fill="#00BFA5" fill-rule="evenodd" xlink:href="#path-1"></use>
                <rect stroke="#00BFA5" stroke-width="1" x="0.5" y="0.5" width="139" height="39" rx="4"></rect>
            </g>
            <g id="新增汇总" transform="translate(14.000000, 11.000000)" fill="#00BFA5" fill-rule="nonzero">
                <path d="M18,15.8858182 L18,6.09381818 C18,4.98109091 17.0953437,4.09090909 15.9645233,4.09090909 L6.12638581,4.09090909 C4.99556541,4.09090909 4.09090909,4.98109091 4.09090909,6.09381818 L4.09090909,15.9970909 C4.09090909,17.1098182 4.99556541,18 6.12638581,18 L16.1906874,18 C17.2084257,17.7774545 18,16.9985455 18,15.8858182 Z M10.0842572,14.8843636 L10.0842572,11.9912727 L7.03104213,11.9912727 L7.03104213,9.98836364 L9.97117517,9.98836364 L9.97117517,6.984 L12.0066519,6.984 L12.0066519,9.87709091 L14.9467849,9.87709091 L14.9467849,11.88 L12.0066519,11.88 L12.0066519,14.7730909 L10.0842572,14.7730909 L10.0842572,14.8843636 Z" id="Shape"></path>
                <path d="M2.46774194,12.4625455 C1.79472141,12.4625455 1.34604106,12.0174545 1.34604106,11.3498182 L1.34604106,2.448 C1.34604106,1.78036364 1.79472141,1.33527273 2.46774194,1.33527273 L11.441349,1.33527273 C12.1143695,1.33527273 12.5630499,1.78036364 12.5630499,2.448 L12.5630499,2.55927273 L13.9090909,2.55927273 L13.9090909,2.00290909 C13.9090909,0.890181818 13.0117302,0 11.8900293,0 L2.01906158,0 C0.897360704,-8.33878421e-16 0,0.890181818 0,2.00290909 L0,11.9061818 C0,13.0189091 0.897360704,13.9090909 2.01906158,13.9090909 L2.57991202,13.9090909 L2.46774194,12.4625455 Z" id="Shape"></path>
            </g>
            <text id="新增关联设备" font-family="PingFangSC-Regular, PingFang SC" font-size="14" font-weight="normal" fill="#00BFA5">
                <tspan x="44" y="25">新增关联设备</tspan>
            </text>
        </g>
    </g>
</svg>