<?xml version="1.0" encoding="UTF-8" standalone="no"?>
<svg width="156px" height="129px" viewBox="0 0 156 129" version="1.1" xmlns="http://www.w3.org/2000/svg" xmlns:xlink="http://www.w3.org/1999/xlink">
    <!-- Generator: Sketch 48.2 (47327) - http://www.bohemiancoding.com/sketch -->
    <title>wushuju</title>
    <desc>Created with Sketch.</desc>
    <defs></defs>
    <g id="消防系统／统计分析-暂无数据" stroke="none" stroke-width="1" fill="none" fill-rule="evenodd" transform="translate(-1410.000000, -815.000000)">
        <g id="内容区域" transform="translate(240.000000, 100.000000)">
            <g id="Group-7-Copy" transform="translate(850.000000, 140.000000)">
                <g id="wushuju" transform="translate(320.000000, 575.000000)">
                    <text id="暂无相关数据" font-family="PingFangSC-Regular, PingFang SC" font-size="14" font-weight="normal" fill="#888888">
                        <tspan x="36" y="127">暂无相关数据</tspan>
                    </text>
                    <path d="M15.0000001,69.9999512 L17.02,69.9999512 C17.5644587,70.0108423 18.0001089,70.4553761 18,70.9999349 C18,71.5519259 17.57,71.9999186 17.02,71.9999186 L15.0000001,71.9999186 L15.0000001,74.0198856 C14.9891087,74.5643354 14.5445677,74.9999785 14,74.9998696 C13.736958,75.0041493 13.4831555,74.9029218 13.2952627,74.7187899 C13.1073699,74.5346579 13.0010346,74.2829561 13,74.0198856 L13,71.9999186 L10.98,71.9999186 C10.4355413,71.9890274 9.9998911,71.5444936 10,70.9999349 C10,70.4479438 10.43,69.9999512 10.98,69.9999512 L13,69.9999512 L13,67.9799841 C13.0108914,67.4355342 13.4554324,66.9998911 14,67 C14.5520001,67 15.0000001,67.429993 15.0000001,67.9799841 L15.0000001,69.9999512 Z M153.000049,61.0000815 L153.000049,58.9801144 C152.999014,58.7170439 152.892681,58.4653421 152.704791,58.2812101 C152.516901,58.0970782 152.263103,57.9958507 152.000065,58.0001304 C151.455506,58.0000215 151.010973,58.4356646 151.000081,58.9801144 L151.000081,61.0000815 L148.980114,61.0000815 C148.717044,61.001116 148.465342,61.1074495 148.28121,61.2953393 C148.097078,61.4832291 147.995851,61.7370275 148.00013,62.0000652 C148.00013,62.5360564 148.440123,63.0000489 148.980114,63.0000489 L151.000081,63.0000489 L151.000081,65.020016 C151.000081,65.5700071 151.448074,66.0000001 152.000065,66 C152.544624,66.0001089 152.989158,65.5644658 153.000049,65.020016 L153.000049,63.0000489 L155.020016,63.0000489 C155.570007,63.0000489 156,62.5520562 156,62.0000652 C156.000109,61.4555065 155.564466,61.0109727 155.020016,61.0000815 L153.000049,61.0000815 Z M77.437768,95.6891945 L25.0737764,95.6891945 C24.5225279,95.6897545 23.9937877,95.4697655 23.6045819,95.0779176 C23.2153761,94.6860696 22.9978026,94.1546786 23.0000167,93.601357 C23.0000167,92.4488707 23.9422566,91.5135195 25.0737764,91.5135196 L34.5065749,91.5135196 C33.7785632,90.247218 33.3968255,88.8103071 33.4000151,87.3482838 L33.4000151,26.7801191 C33.401116,24.5650537 34.279513,22.4413039 35.8416757,20.8767793 C37.4038385,19.3122546 39.5215869,18.4353289 41.7283338,18.4392085 L47.9600127,18.4392085 L47.9600127,16.3409318 C47.9611135,14.1258664 48.8395106,12.0021167 50.4016733,10.437592 C51.9638361,8.87306736 54.0815845,7.99614165 56.2883314,8.0000212 L106.191683,8.0000212 C108.398768,7.99503029 110.517159,8.87159849 112.079562,10.4363639 C113.641965,12.0011294 114.520008,14.1255253 114.520002,16.3409318 L114.520002,76.9090965 C114.520002,78.4269543 114.116482,79.8487717 113.411362,81.0743322 L124.91792,81.0743322 C126.06816,81.0743322 127,82.0013321 127,83.1621697 C127,84.314656 126.0744,85.2500072 124.92,85.2500072 L99.9600043,85.2500072 L99.9600043,87.3482838 C99.9600043,88.8661417 99.5564844,90.287959 98.8513645,91.5135196 L99.9662443,91.5135196 C101.110244,91.5135196 102.040004,92.4405194 102.040004,93.601357 C102.040004,94.7538433 101.097764,95.6891945 99.9662443,95.6891945 L89.0233662,95.6891945 C89.973926,97.288478 89.7680061,99.3846667 88.3848062,100.773079 C87.6060504,101.558463 86.5476194,102 85.4436867,102 C84.339754,102 83.281323,101.558463 82.5025672,100.773079 L77.437768,95.6891945 Z M85.1018571,92 L91.8025714,92 C94.1204286,92 96,90.1390909 96,87.8077273 L96,27.0730909 C96,24.8149091 94.1794286,23 91.9332143,23 L41.0667857,23 C38.8205714,23 37,24.8232727 37,27.0730909 L37,87.8077273 C37,90.1223636 38.8964285,92 41.1953215,92 L73.18175,92 L72.0986785,90.9231818 C71.0298369,89.8681747 70.6118049,88.3261933 71.0029642,86.8814545 L69.0138214,84.9055454 C62.816187,89.4834958 54.1089914,88.5417043 49.0508542,82.7463022 C43.992717,76.9509 44.2968827,68.2648512 49.7482143,62.8318181 C55.2160974,57.3866781 63.997222,57.0665897 69.8529835,62.0989619 C75.708745,67.131334 76.6435766,75.8012001 71.9933214,81.949 L73.9845714,83.9249091 C75.4401488,83.5348816 76.9947268,83.9490616 78.0576786,85.0100908 L85.1018571,92 Z M100.464286,81 L106.804679,81 C109.124273,80.9884973 110.99887,79.1199343 111,76.8181819 L111,16.1818181 C111,13.8650909 109.120429,12 106.804679,12 L56.1932143,12 C53.8744434,12.0126486 52.0011238,13.880877 52,16.1818181 L52,18.2727273 L92.0272856,18.2727273 C94.2631715,18.267729 96.409207,19.1455868 97.991999,20.7126544 C99.5747909,22.2797219 100.464291,24.4072432 100.464286,26.6259091 L100.464286,81 Z M26.5,4.49999998 L29.48,4.49999998 C30.32,4.49999998 31,5.16599996 31,6 C31,6.82800003 30.32,7.50000002 29.48,7.50000002 L26.5,7.50000002 L26.5,10.48 C26.5,11.32 25.834,12 25,12 C24.5995203,11.9973566 24.2164944,11.835727 23.9351879,11.5506698 C23.6538814,11.2656126 23.497339,10.8804795 23.5,10.48 L23.5,7.50000002 L20.52,7.50000002 C20.1192017,7.50372918 19.7334512,7.34753319 19.448161,7.06599684 C19.1628709,6.78446049 19.0015795,6.40081255 19,6 C19,5.17199997 19.68,4.49999998 20.52,4.49999998 L23.5,4.49999998 L23.5,1.52000002 C23.5,0.679999976 24.166,0 25,0 C25.828,0 26.5,0.679999976 26.5,1.52000002 L26.5,4.49999998 Z M2.0000171,93.9999994 C2.0000171,92.8959997 2.96264118,91.9999999 4.11863989,92 L16.8813771,92 C18.0501259,92 19,92.8879998 19,93.9999994 C19,95.1039992 18.0373759,95.999999 16.8813771,95.999999 L4.11863989,95.999999 C3.55546577,96.0005354 3.01528703,95.7898016 2.61766128,95.4144392 C2.22003553,95.0390768 1.99775504,94.5300421 2.0000171,93.9999994 Z M67.0708733,79.0711013 C69.5970938,76.5448808 70.5836952,72.8628343 69.6590344,69.411953 C68.7343735,65.9610716 66.0389284,63.2656265 62.588047,62.3409656 C59.1371657,61.4163048 55.4551192,62.4029062 52.9288987,64.9291267 C49.0237004,68.8343252 49.0237004,75.1659028 52.9288988,79.0711012 C56.8340972,82.9762996 63.1656748,82.9762996 67.0708733,79.0711013 Z M46.0000094,30.9999955 C46.0000088,29.8962091 46.9286134,29.0011038 48.0748548,29 L70.9230776,29 C72.0701302,29 73,29.8954285 73,30.9999955 C73,32.1045625 72.0701302,32.9999909 70.9230776,32.9999909 L48.0769317,32.9999909 C47.52559,33.0015909 46.9963507,32.7913915 46.6064915,32.4159722 C46.2166323,32.0405529 45.9983479,31.5309161 46.0000094,30.9999955 Z M46.0000373,42 C46.0000373,40.8959999 46.9147586,39.9999999 48.0412018,40 L80.9588353,40 C82.0852786,40 83,40.888 83,42 C83,43.104 82.0852787,44 80.9588353,44 L48.0412018,44 C47.4975188,43.9994774 46.9764693,43.7881469 46.5933798,43.4127832 C46.2102903,43.0374196 45.9967552,42.52898 46.0000373,42 Z M46.000017,51.999998 C46.000017,50.8959991 46.9415717,50 48.106904,50 L62.893113,50 C64.0563342,50 65,50.8879991 65,51.999998 C65,53.1039969 64.0584453,53.999996 62.893113,53.9999959 L48.106904,53.9999959 C47.5470451,54.0010653 47.0098531,53.7905668 46.6143687,53.4151467 C46.2188844,53.0397265 45.9977674,52.5303874 46.000017,51.999998 Z M6.00000018,39 C3.8564066,39.0000001 1.87564442,37.8564065 0.803847607,36.0000001 C-0.267949202,34.1435936 -0.267949202,31.8564064 0.803847607,29.9999999 C1.87564442,28.1435935 3.8564066,26.9999999 6.00000018,27 C9.31370861,27.0000001 12,29.6862916 12,33 C12,36.3137084 9.31370861,38.9999999 6.00000018,39 Z M6.49937473,37 C7.7499532,37.0001915 8.90563096,36.4284366 9.5309847,35.5001547 C10.1563384,34.5718729 10.1563384,33.4281271 9.5309847,32.4998453 C8.90563096,31.5715634 7.7499532,30.9998085 6.49937473,31 C4.56662231,31.000296 3,32.343355 3,34 C3,35.656645 4.56662231,36.999704 6.49937473,37 Z M135,27 C131.686292,27 129,24.3137085 129,21 C129,17.6862915 131.686292,15 135,15 C138.313708,15 141,17.6862915 141,21 C141,24.3137085 138.313708,27 135,27 Z M134.999464,24 C136.071388,24.0001915 137.061969,23.4284366 137.597987,22.5001547 C138.134004,21.5718729 138.134004,20.4281271 137.597987,19.4998453 C137.061969,18.5715634 136.071388,17.9998085 134.999464,18 C133.342819,18.000296 132,19.343355 132,21 C132,22.656645 133.342819,23.999704 134.999464,24 Z" id="Shape" fill="#E2E2E2" fill-rule="nonzero"></path>
                </g>
            </g>
        </g>
    </g>
</svg>