<?xml version="1.0" encoding="UTF-8" standalone="no"?>
<svg width="18px" height="18px" viewBox="0 0 18 18" version="1.1" xmlns="http://www.w3.org/2000/svg" xmlns:xlink="http://www.w3.org/1999/xlink">
    <!-- Generator: Sketch 50.2 (55047) - http://www.bohemiancoding.com/sketch -->
    <title>回放</title>
    <desc>Created with Sketch.</desc>
    <defs></defs>
    <g id="Page-1" stroke="none" stroke-width="1" fill="none" fill-rule="evenodd">
        <g id="滨江小区智慧云平台" transform="translate(-381.000000, -259.000000)" fill="#5FAEDA" fill-rule="nonzero">
            <g id="回放" transform="translate(381.000000, 259.000000)">
                <path d="M7.0835,12.6974297 L12.947381,9.36682031 C13.2155238,9.21154687 13.2155238,8.83889063 12.947381,8.68750781 L7.0835,5.35692188 C6.81535714,5.20164844 6.48409524,5.39573438 6.48409524,5.69852344 L6.48409524,12.3597188 C6.49197619,12.6586172 6.82321429,12.8449453 7.0835,12.6974297 Z M8.83042857,0 C6.20409524,0 3.83014286,1.0985625 2.16602381,2.84925 C2.04771429,2.96957812 1.92942857,3.0976875 1.819,3.23355469 L0.00502380952,1.44792187 L0.00502380952,6.33902344 L4.9737619,6.33902344 L3.12035714,4.51457812 C4.45719048,2.8648125 6.52354762,1.8050625 8.83833333,1.8050625 C12.8803571,1.8050625 16.1534048,5.02696875 16.1534048,9.00583594 C16.1534048,12.9847031 12.8803333,16.1949609 8.83830952,16.1949609 C5.62440476,16.1949609 2.8995,14.1608906 1.91364286,11.3232656 L0.00895238095,11.3232656 C1.05397619,15.1623984 4.60702381,18 8.83830952,18 C13.8977381,18 17.9949762,13.9706719 17.9949762,9.00194531 C17.9949762,4.03321875 13.8898571,0 8.83042857,0 Z" id="Shape"></path>
            </g>
        </g>
    </g>
</svg>