<?xml version="1.0" encoding="UTF-8" standalone="no"?>
<svg width="39px" height="40px" viewBox="0 0 39 40" version="1.1" xmlns="http://www.w3.org/2000/svg" xmlns:xlink="http://www.w3.org/1999/xlink">
    <!-- Generator: Sketch 48.2 (47327) - http://www.bohemiancoding.com/sketch -->
    <title>shipinjiankong</title>
    <desc>Created with Sketch.</desc>
    <defs>
        <rect id="path-1" x="0" y="0" width="42" height="42"></rect>
    </defs>
    <g id="火炬小区项目首页" stroke="none" stroke-width="1" fill="none" fill-rule="evenodd" transform="translate(-1399.000000, -956.000000)">
        <g id="Group-40-Copy-8" transform="translate(1370.000000, 840.000000)">
            <g id="Group-15" transform="translate(27.000000, 94.000000)">
                <g id="Group-9">
                    <g id="Group">
                        <g id="shipinjiankong" transform="translate(0.000000, 21.000000)">
                            <g id="Rectangle-17" opacity="0">
                                <use fill="#D8D8D8" fill-rule="evenodd" xlink:href="#path-1"></use>
                                <rect stroke="#979797" stroke-width="1" x="0.5" y="0.5" width="41" height="41"></rect>
                            </g>
                            <path d="M2.00004377,21.2157795 L8.26308443,21.8198727 L8.26308443,29.4726141 L18.2140878,26.9627331 L18.2140878,24.1853346 L17.0052089,24.1853346 L17.0052089,20.6802083 L11.2909941,19.7454394 L8.03800367,16.6017857 L9.07450451,9.99068606 L28.4303555,13.1564653 C28.5659205,12.6585298 28.7356722,12.2008671 28.9312062,11.7976913 L7.27727273,8.25694076 L10.7974535,1.92404137 L13.1665795,1 L33.4121605,4.31091357 L35.3265288,4.62406763 L37.5028348,4.97955067 L40.8603989,5.52920175 L40.7393227,8.68090111 L36.9948053,12.8822432 L35.3048174,12.640293 L36.12346,7.42220596 L39.2882478,7.93962979 L39.3323272,6.80868147 L34.7381759,6.0573978 L34.4749689,6.16020315 L31.2457035,10.1014477 C32.2578665,10.5200889 32.7771018,12.555635 32.4151867,14.8659843 C32.0268764,17.3429676 30.7705476,19.1976656 29.610388,19.0074757 C29.058892,18.917454 28.6278593,18.3812123 28.3698174,17.5767828 L28.0618306,19.5390241 L31.2634753,23.0119232 L22.8774004,21.6403656 L22.8774004,24.1852005 L21.7368949,24.1852005 L21.7368949,29.182256 L8.26304066,32.5811799 L8.26304066,39.942267 L2,41 L2,21.2157795 L2.00004377,21.2157795 Z M30.6185677,12.5792356 C30.1164039,12.4972595 29.5728308,13.3003034 29.4043485,14.3735466 C29.2358662,15.4459853 29.5069962,16.3828103 30.00916,16.4647864 C30.5119367,16.5468072 31.0555098,15.7437632 31.2239921,14.6705647 C31.391774,13.5980366 31.1213444,12.6612563 30.6185677,12.5792356 Z M30.4612476,22.1417876 L31.5754017,23.1807028 L35.3390041,20.796423 L36.4551718,13.6820241 L34.9935038,13.4434263 L33.9840109,19.881813 L30.4612476,22.1417876 Z" id="Shape" fill="#20608D" fill-rule="nonzero"></path>
                        </g>
                    </g>
                </g>
            </g>
        </g>
    </g>
</svg>