<?xml version="1.0" encoding="UTF-8" standalone="no"?>
<svg width="38px" height="32px" viewBox="0 0 38 32" version="1.1" xmlns="http://www.w3.org/2000/svg" xmlns:xlink="http://www.w3.org/1999/xlink">
    <!-- Generator: Sketch 48.2 (47327) - http://www.bohemiancoding.com/sketch -->
    <title>tingchexitong</title>
    <desc>Created with Sketch.</desc>
    <defs>
        <rect id="path-1" x="0" y="0" width="42" height="42"></rect>
    </defs>
    <g id="火炬小区项目首页" stroke="none" stroke-width="1" fill="none" fill-rule="evenodd" transform="translate(-847.000000, -716.000000)">
        <g id="Group-40-Copy-5" transform="translate(815.000000, 600.000000)">
            <g id="Group-23" transform="translate(30.000000, 95.000000)">
                <g id="tingchexitong" transform="translate(0.000000, 16.000000)">
                    <g id="Rectangle-17" opacity="0">
                        <use fill="#D8D8D8" fill-rule="evenodd" xlink:href="#path-1"></use>
                        <rect stroke="#979797" stroke-width="1" x="0.5" y="0.5" width="41" height="41"></rect>
                    </g>
                    <path d="M6.80822664,32.8906069 C7.19640425,33.1489509 7.63633887,33.2860314 8.102152,33.2860314 C8.56278943,33.2860314 9.00789975,33.1436786 9.39090166,32.8906069 C10.1517298,32.4002806 10.7262326,31.5039851 10.9643149,30.4126135 L5.24516481,30.4126135 C5.47807137,31.5039851 6.05257423,32.4055529 6.80822664,32.8906069 Z M31.0356851,30.4126135 C31.2737674,31.5039851 31.8534459,32.4002806 32.6090983,32.8906069 C32.9921002,33.1489509 33.4372106,33.2860314 33.9030237,33.2860314 C34.3688368,33.2860314 34.8087715,33.1436786 35.1969491,32.8906069 C35.9526015,32.4002806 36.5271043,31.5039851 36.7600109,30.4126135 L31.0356851,30.4126135 Z M37.2879324,15.7871799 L34.0686461,7.97886445 C33.3388722,6.1757288 31.6205394,5 29.6951784,5 L12.2996459,5 C10.3742849,5 8.66630346,6.16518415 7.93652956,7.96304747 L4.70171615,15.7819076 C3.10760011,16.5200333 2,18.1597268 2,20.068309 L2,30.0382783 L40,30.0382783 L40,20.0788537 C40,18.1649992 38.8923999,16.5253056 37.2879324,15.7871799 Z M10.6796513,9.38130328 C10.9539635,8.69062852 11.6112776,8.23193612 12.3462272,8.23193612 L29.6485971,8.23193612 C30.3835467,8.23193612 31.0356851,8.68008386 31.3203487,9.38130328 L33.8512667,15.5815592 L8.13838191,15.5815592 L10.6796513,9.38130328 C10.6796513,9.37603096 10.6796513,9.38130328 10.6796513,9.38130328 Z M8.02451648,23.5164105 C6.96867339,23.5164105 6.10950695,22.6464766 6.10950695,21.5551051 C6.10950695,20.4690058 6.96867339,19.5937996 8.02451648,19.5937996 C9.08553528,19.5937996 9.93952601,20.4690058 9.93952601,21.5551051 C9.93952601,22.6464766 9.08035958,23.5164105 8.02451648,23.5164105 Z M33.9703078,23.5216828 C32.909289,23.5216828 32.0501226,22.6464766 32.0501226,21.5551051 C32.0501226,20.4637335 32.9041133,19.5937996 33.9703078,19.5937996 C35.0313266,19.5937996 35.8853174,20.4690058 35.8853174,21.5551051 C35.8853174,22.6464766 35.0313266,23.5216828 33.9703078,23.5216828 Z M38.8509943,36.0909091 L3.38708799,36.0909091 C2.83328793,36.0909091 2.37782621,35.6322167 2.37782621,35.0628054 C2.37782621,34.4986665 2.82811223,34.0347018 3.38708799,34.0347018 L38.8509943,34.0347018 C39.4047943,34.0347018 39.8602561,34.4933942 39.8602561,35.0628054 C39.8550804,35.6322167 39.4047943,36.0909091 38.8509943,36.0909091 Z" id="Shape" fill="#20608D" fill-rule="nonzero"></path>
                </g>
            </g>
        </g>
    </g>
</svg>