<?xml version="1.0" encoding="UTF-8" standalone="no"?>
<svg width="40px" height="39px" viewBox="0 0 40 39" version="1.1" xmlns="http://www.w3.org/2000/svg" xmlns:xlink="http://www.w3.org/1999/xlink">
    <!-- Generator: Sketch 48.2 (47327) - http://www.bohemiancoding.com/sketch -->
    <title>xiaofangxitong</title>
    <desc>Created with Sketch.</desc>
    <defs></defs>
    <g id="火炬小区项目首页" stroke="none" stroke-width="1" fill="none" fill-rule="evenodd" transform="translate(-846.000000, -471.000000)">
        <g id="Group-40-Copy-4" transform="translate(815.000000, 360.000000)">
            <g id="YLH电梯" transform="translate(30.000000, 98.000000)">
                <g id="xiaofangxitong" transform="translate(0.000000, 11.000000)">
                    <rect id="Path" fill="#D8D8D8" opacity="0" x="0" y="0" width="42" height="42"></rect>
                    <g id="Group-25" transform="translate(1.000000, 2.000000)" fill="#20608D" fill-rule="nonzero">
                        <path d="M33.7481838,38.9736306 L6.56325645,38.9736306 C5.7410919,38.9736306 5.07459585,38.3071345 5.07459585,37.48497 C5.07459585,36.6628054 5.7410919,35.9963094 6.56325645,35.9963094 L33.7481838,35.9963094 C34.5703483,35.9963094 35.2368444,36.6628054 35.2368444,37.48497 C35.2368444,38.3071345 34.5703483,38.9736306 33.7481838,38.9736306 Z M20.1557201,6.4712076 C19.7609028,6.47120761 19.3822561,6.31436705 19.1030781,6.03518903 C18.8239001,5.75601102 18.6670595,5.37736437 18.6670595,4.98254703 L18.6670595,1.50900564 C18.6670595,0.686841099 19.3335555,0.0203450475 20.1557201,0.0203450475 C20.9778846,0.0203450475 21.6443807,0.686841099 21.6443807,1.50900564 L21.6443807,4.98254703 C21.6443807,5.37736436 21.4875401,5.756011 21.2083621,6.03518901 C20.9291841,6.31436702 20.5505374,6.4712076 20.1557201,6.4712076 Z M9.01954643,9.73832136 C8.63844934,9.73832136 8.25735218,9.59342507 7.96656716,9.30264005 L5.51027718,6.84635007 C5.12329063,6.47258528 4.96808925,5.91909646 5.10432475,5.39861726 C5.24056025,4.87813806 5.64703125,4.47166706 6.16751045,4.33543156 C6.68798965,4.19919606 7.24147847,4.35439744 7.61524326,4.74138399 L10.0715332,7.19767398 C10.496735,7.62340474 10.6238426,8.2632415 10.3936535,8.81916975 C10.1634645,9.37509801 9.62124647,9.73779213 9.01954643,9.73832136 Z M4.97932157,19.7867804 L1.50578019,19.7867804 C0.683615645,19.7867804 0.0171195929,19.1202844 0.0171195929,18.2981198 C0.0171195929,17.4759553 0.683615645,16.8094592 1.50578019,16.8094592 L4.97932157,16.8094592 C5.80148612,16.8094592 6.46798217,17.4759553 6.46798217,18.2981198 C6.46798217,19.1202844 5.80148612,19.7867804 4.97932157,19.7867804 Z M30.9624036,9.73832136 C30.3605229,9.73819301 29.817938,9.37564587 29.5874945,8.81962776 C29.3570511,8.26360965 29.4840953,7.62353258 29.9094243,7.19767398 L32.3667067,4.74138399 C32.7404715,4.35439744 33.2939603,4.19919606 33.8144395,4.33543156 C34.3349187,4.47166706 34.7413897,4.87813806 34.8776252,5.39861726 C35.0138607,5.91909646 34.8586593,6.47258528 34.4716728,6.84635007 L32.0143904,9.30264005 C31.735877,9.58237004 31.3571412,9.73922381 30.9624036,9.73832136 Z M38.4761698,19.7867804 L35.0026284,19.7867804 C34.1804639,19.7867804 33.5139678,19.1202844 33.5139678,18.2981198 C33.5139678,17.4759553 34.1804639,16.8094592 35.0026284,16.8094592 L38.4761698,16.8094592 C39.2983344,16.8094592 39.9648304,17.4759553 39.9648304,18.2981198 C39.9648304,19.1202844 39.2983344,19.7867804 38.4761698,19.7867804 Z" id="Shape"></path>
                        <path d="M20.1557201,8.24966079 C14.2119946,8.24966079 9.34903664,12.9359643 9.34903664,18.6643303 L9.34903664,36.8240047 L30.963396,36.8240047 L30.963396,18.6643303 C30.9624035,12.9359643 26.0994456,8.24966079 20.1557201,8.24966079 Z M24.6375809,25.5042295 L18.958837,31.181981 C18.7099206,31.4326485 18.3712648,31.5736201 18.0180035,31.5736201 C17.6647422,31.5736201 17.3260864,31.4326485 17.07717,31.181981 C16.8275415,30.9327131 16.6872714,30.5944168 16.6872714,30.2416437 C16.6872714,29.8888706 16.8275415,29.5505743 17.07717,29.3013064 L21.173964,25.205505 L16.8558558,25.205505 C16.1720586,25.2067517 15.555298,24.7946632 15.294747,24.1624501 C15.0316365,23.5308715 15.1767633,22.8028837 15.66195,22.3204807 L20.5914014,17.3910293 C21.1117808,16.8778622 21.9487511,16.8807825 22.465537,17.3975683 C22.9823228,17.9143541 22.985243,18.7513244 22.472076,19.2717038 L19.1990075,22.5447723 L23.411917,22.5447723 C24.1145648,22.5447723 24.743772,22.9645745 25.0127234,23.614623 C25.2816748,24.2646715 25.1347936,25.0070169 24.6375809,25.5042295 Z" id="Shape"></path>
                    </g>
                </g>
            </g>
        </g>
    </g>
</svg>