<?xml version="1.0" encoding="UTF-8" standalone="no"?>
<svg width="16px" height="20px" viewBox="0 0 16 20" version="1.1" xmlns="http://www.w3.org/2000/svg" xmlns:xlink="http://www.w3.org/1999/xlink">
    <!-- Generator: Sketch 48.2 (47327) - http://www.bohemiancoding.com/sketch -->
    <title>zaixian</title>
    <desc>Created with Sketch.</desc>
    <defs>
        <rect id="path-1" x="0" y="0" width="21" height="21"></rect>
    </defs>
    <g id="火炬小区项目首页" stroke="none" stroke-width="1" fill="none" fill-rule="evenodd" transform="translate(-1658.000000, -943.000000)">
        <g id="Group-40-Copy-8" transform="translate(1370.000000, 840.000000)">
            <g id="Group-72" transform="translate(285.000000, 99.000000)">
                <g id="Group-4">
                    <g id="正常设备">
                        <g id="监控">
                            <g id="Group-77">
                                <g id="Group-61">
                                    <g id="Group-30">
                                        <g id="zaixian" transform="translate(0.000000, 3.000000)">
                                            <g id="Rectangle-19" opacity="0">
                                                <use fill="#D8D8D8" fill-rule="evenodd" xlink:href="#path-1"></use>
                                                <rect stroke="#979797" stroke-width="1" x="0.5" y="0.5" width="20" height="20"></rect>
                                            </g>
                                            <g id="监控-(1)" transform="translate(3.000000, 1.000000)" fill="#999999" fill-rule="nonzero">
                                                <path d="M12.4,9.39979352 C12.4,7.08433214 10.5154826,5.2 8.2002065,5.2 C5.88410443,5.2 4,7.08433214 4,9.39979352 C4,11.7156679 5.88410443,13.6 8.2002065,13.6 C10.5154826,13.6 12.4,11.7152549 12.4,9.39979352 Z M5.25675796,9.39979352 C5.25675796,7.77727742 6.57711787,6.4574603 8.1997935,6.4574603 C9.82205614,6.4574603 11.142416,7.77727742 11.142416,9.39979352 C11.142416,11.0218967 9.82205614,12.3425397 8.1997935,12.3425397 C6.57711785,12.3425397 5.25675796,11.0218967 5.25675796,9.39979352 Z" id="Shape"></path>
                                                <path d="M13.3589063,18.3533193 L11.8685982,18.3533193 L10.7545399,15.5564787 C13.8102428,14.4269302 16,11.4834695 16,8.02888607 C16,3.60161313 12.4109365,0 8,0 C3.58865539,0 0,3.60161313 0,8.02888607 C0,11.4310467 2.12283207,14.3388763 5.10589676,15.5052845 C5.10385635,15.5106087 5.09895939,15.5142947 5.09732708,15.5192093 L3.97021016,18.3533193 L2.88879821,18.3533193 C2.54600078,18.3533193 2.26810855,18.6322149 2.26810855,18.9762501 C2.26810855,19.3202853 2.54600078,19.5991809 2.88879821,19.5991809 L4.38890022,19.5991809 L4.39053255,19.6 L4.39257294,19.5991809 L11.4470516,19.5991809 L11.449092,19.6 L11.4507243,19.5991809 L13.3593144,19.5991809 C13.5810655,19.5991078 13.785933,19.4803102 13.8967454,19.2875382 C14.0075578,19.0947661 14.0074801,18.8573062 13.8965414,18.6646073 C13.7856027,18.4719084 13.5806574,18.3532461 13.3589063,18.3533193 Z M1.2417874,8.02888607 C1.2417874,4.2892534 4.27341359,1.24668074 7.99959193,1.24668074 C11.7257703,1.24668074 14.7573965,4.2892534 14.7573965,8.02888607 C14.7573965,11.7685187 11.7257702,14.8110914 8,14.8110914 C4.27341359,14.8110914 1.2417874,11.7685187 1.2417874,8.02888607 Z M6.25056111,15.9815952 C6.26566006,15.942278 6.26443582,15.9033705 6.27218936,15.8640533 C6.82921853,15.9877385 7.40624362,16.0581817 8,16.0581817 C8.5382575,16.0581817 9.06345644,16.002892 9.57274026,15.9005036 C9.57967763,15.9295819 9.57722915,15.9598888 9.58865538,15.9877385 L10.5313201,18.3533193 L5.30708018,18.3533193 L6.25056111,15.9815952 Z" id="Shape"></path>
                                                <path d="M7.2,3.40021201 C7.2,3.66224296 7.30776411,3.92215391 7.49274502,4.10744117 C7.6781502,4.29272844 7.93822656,4.4 8.20000001,4.4 C8.46177346,4.4 8.72184982,4.29230442 8.90767927,4.10744117 C9.09424536,3.91919123 9.19924262,3.66516505 9.2,3.40021201 C9.2,3.13860505 9.09308443,2.8782701 8.90767927,2.69298284 C8.7222741,2.50769558 8.46219772,2.40000002 8.20042427,2.4 C7.93865082,2.39999998 7.67857446,2.50769558 7.49316928,2.69298284 C7.30652419,2.88124967 7.20125637,3.1351933 7.2,3.40021201 Z" id="Shape"></path>
                                            </g>
                                        </g>
                                    </g>
                                </g>
                            </g>
                        </g>
                    </g>
                </g>
            </g>
        </g>
    </g>
</svg>