<?xml version="1.0" encoding="UTF-8" standalone="no"?>
<svg width="40px" height="40px" viewBox="0 0 40 40" version="1.1" xmlns="http://www.w3.org/2000/svg" xmlns:xlink="http://www.w3.org/1999/xlink">
    <!-- Generator: Sketch 48.2 (47327) - http://www.bohemiancoding.com/sketch -->
    <title>zhongyaobaojing</title>
    <desc>Created with Sketch.</desc>
    <defs>
        <rect id="path-1" x="0" y="0" width="42" height="42"></rect>
    </defs>
    <g id="火炬小区项目首页" stroke="none" stroke-width="1" fill="none" fill-rule="evenodd" transform="translate(-292.000000, -220.000000)">
        <g id="Group-6" transform="translate(260.000000, 120.000000)">
            <g id="报警" transform="translate(30.000000, 90.000000)">
                <g id="zhongyaobaojing" transform="translate(0.000000, 9.000000)">
                    <g id="Rectangle-13" opacity="0">
                        <use fill="#D8D8D8" fill-rule="evenodd" xlink:href="#path-1"></use>
                        <rect stroke="#979797" stroke-width="1" x="0.5" y="0.5" width="41" height="41"></rect>
                    </g>
                    <path d="M21.5732688,12.5946829 C16.0443355,12.5946829 11.5618021,17.0762385 11.5618021,22.6051718 L11.5618021,34.9053496 L31.7271799,34.9053496 L31.7271799,22.6051718 C31.7271799,17.076194 27.2456688,12.5946829 21.716691,12.5946829 L21.5732688,12.5946829 Z M9.95077993,18.5902385 C10.1285577,17.7074829 9.55584659,16.8479274 8.67309104,16.6701496 L3.95220215,15.7227718 C3.06944659,15.5460163 2.20886882,16.1186829 2.03211326,17.0014385 C1.99470564,17.1880939 1.98993877,17.3798214 2.01802437,17.5681051 C2.11802437,18.2266385 2.61900215,18.782194 3.30984659,18.9215274 L8.03073548,19.8689051 C8.91446882,20.0457051 9.77402437,19.4740163 9.95077993,18.5902385 Z M8.86900215,7.65254959 L11.8759355,11.4129051 C12.4384688,12.1158829 13.464691,12.2300607 14.168691,11.6674829 C14.8716688,11.1048607 14.9858021,10.0786385 14.4232244,9.37468293 L11.4153577,5.6152607 C10.8538021,4.91232737 9.82757993,4.79814959 9.12357993,5.35974959 C8.65086882,5.73752737 8.44482437,6.32334959 8.52966882,6.8808607 C8.57241463,7.16361892 8.68953786,7.42993775 8.86904659,7.65254959 L8.86900215,7.65254959 Z M21.8490021,9.07472737 C22.7499355,9.09592737 23.4963799,8.38281626 23.5175355,7.48290515 L23.5064244,2.66903848 C23.5276688,1.76908293 22.8145577,1.0216607 21.9146466,1.0004607 C21.0136688,0.979260703 20.2662466,1.69237181 20.2450021,2.59228293 L20.2561133,7.4060607 C20.2541133,7.50308293 20.2601577,7.59903848 20.2743355,7.69197181 C20.391491,8.45952737 21.0460244,9.05650515 21.8490021,9.07472737 Z M29.3990021,12.0260163 C30.0747799,12.6209496 31.1059799,12.5553496 31.7009133,11.8795718 L34.8815355,8.26468293 C35.4764688,7.58792737 35.4107799,6.55770515 34.735091,5.96277181 C34.0583355,5.36783848 33.0281133,5.43352737 32.4331799,6.10921626 L29.2516244,9.72419404 C28.920291,10.1009051 28.7940244,10.5877496 28.8637577,11.0482829 C28.9192244,11.4139274 29.1000244,11.7624163 29.3990021,12.0260607 L29.3990021,12.0260163 Z M41.2710021,17.9246829 C41.1356244,17.033794 40.3034466,16.4217051 39.4135355,16.5580163 L34.6532688,17.2822385 C33.7623799,17.4175718 33.1503355,18.2488163 33.2856244,19.1397051 C33.4210021,20.0305051 34.2532688,20.642594 35.1441133,20.5072607 L39.9034021,19.7821051 C40.7942466,19.6467718 41.406291,18.8154385 41.2709577,17.9246385 L41.2710021,17.9246829 Z M35.2884688,38.6373496 C35.2884688,39.9210829 34.2481577,40.9604607 32.9643355,40.9604607 L9.81344659,40.9604607 C8.52962437,40.9604607 7.48931326,39.9210829 7.48931326,38.6373496 C7.48931326,37.3536163 8.52962437,36.3142385 9.81344659,36.3142385 L32.9643799,36.3142385 C34.2482021,36.3142385 35.2885133,37.3536163 35.2885133,38.6373496 L35.2884688,38.6373496 Z" id="Shape" fill="#FF7171" fill-rule="nonzero"></path>
                </g>
            </g>
        </g>
    </g>
</svg>