<?xml version="1.0" encoding="UTF-8" standalone="no"?>
<svg width="20px" height="20px" viewBox="0 0 20 20" version="1.1" xmlns="http://www.w3.org/2000/svg" xmlns:xlink="http://www.w3.org/1999/xlink">
    <!-- Generator: Sketch 48.2 (47327) - http://www.bohemiancoding.com/sketch -->
    <title>baojing copy</title>
    <desc>Created with Sketch.</desc>
    <defs></defs>
    <g id="Page-1-" stroke="none" stroke-width="1" fill="none" fill-rule="evenodd">
        <g id="baojing-copy" fill="#00BFA5" fill-rule="nonzero" stroke="#00BFA5" stroke-width="0.5">
            <path d="M17.5940095,11.6807701 L15.5385557,11.685036 L15.5385557,11.329874 C15.5385557,11.1298593 15.527632,10.9325189 15.5077422,10.7378529 L17.5384967,10.7378529 C17.7932192,10.7378529 18,10.9498117 18,11.211336 C18,11.4728965 17.848732,11.6807701 17.5940095,11.6807701 Z M14.2919317,7.69354066 C14.0908312,7.45023071 13.8142233,7.22938295 13.5760697,7.02376662 L15.0546981,5.5064449 C15.2366428,5.31981993 15.531547,5.31981993 15.7132296,5.5064449 C15.8951742,5.69306987 15.8951742,5.99568493 15.7132296,6.18227376 L14.3047446,7.69320327 L14.2919317,7.69354066 Z M15.6921338,17.0526361 C15.947136,17.0526361 16.153672,17.2647395 16.153672,17.5263181 C16.153672,17.7878424 15.947136,18 15.6921512,18 L4.30762156,18 C4.0528815,18 3.84608326,17.7878605 3.84608326,17.5263181 C3.84608326,17.2647576 4.0528815,17.0526361 4.30762156,17.0526361 L5.38452094,17.0526361 L5.38452094,11.3693204 C5.38452094,8.75349892 7.45093031,6.63316966 9.99999126,6.63316966 C12.54879,6.63316966 14.6154791,8.75349892 14.6154791,11.3693204 L14.6154791,17.0526361 L15.6921338,17.0526361 Z M13.6921927,11.685036 C13.6921927,9.59249814 12.0393449,7.89601428 9.99999126,7.89601428 C7.96091728,7.89601428 6.30754509,9.59251621 6.30754509,11.685036 L6.30754509,17.0526361 L13.6921927,17.0526361 L13.6921927,11.685036 Z M10.7350758,9.6676324 C10.9155524,9.85257687 10.9155524,10.1525176 10.7350758,10.3374621 L9.73153107,11.3672243 L11.3893601,11.3672243 C11.6443099,11.3672243 11.8508809,11.579165 11.8508809,11.8409062 C11.8508561,11.9048642 11.8381566,11.9681387 11.8135657,12.0268264 C11.8647759,12.1958333 11.8310785,12.386524 11.7005362,12.5204936 L9.89110409,14.3774192 C9.7036189,14.5698627 9.39995827,14.5698627 9.21247309,14.3774192 C9.02500538,14.1852107 9.02500538,13.8734523 9.21247309,13.681045 L10.5441824,12.3143713 L8.92788082,12.3143713 C8.84912551,12.3143713 8.77849741,12.288929 8.71361953,12.2532592 C8.58061288,12.266938 8.44376111,12.2281964 8.34190004,12.1236264 C8.16168565,11.9386819 8.16168565,11.6387593 8.34190004,11.4538148 L10.0823121,9.6676324 C10.2627711,9.48268792 10.5548964,9.48268792 10.7350758,9.6676324 Z M9.54325938,3.4737 C9.54325938,3.21195884 9.74979545,3 10.0047977,3 C10.2597824,3 10.4663185,3.21195884 10.4663185,3.4737 L10.4663185,5.70978444 C10.3122161,5.69666576 10.1574495,5.68578774 10.0000087,5.68578774 C9.84580143,5.68578774 9.69426824,5.69668383 9.54325938,5.70927848 L9.54325938,3.4737 Z M5.8400818,7.6122641 L4.34327642,6.07624013 C4.16307951,5.89129565 4.16307951,5.59157176 4.34327642,5.40662728 C4.52345586,5.22146597 4.81559857,5.22146597 4.99576052,5.40662728 L6.50392651,6.954234 C6.26409509,7.15345362 6.0440661,7.375387 5.8400818,7.6122641 Z M4.46174147,11.329874 L4.46174147,11.685036 L2.46152082,11.685036 C2.20657103,11.685036 2,11.4728965 2,11.211318 C2,10.9497756 2.20657103,10.7378348 2.46152082,10.7378348 L4.49255497,10.7378348 C4.47263019,10.9325008 4.46174147,11.1298593 4.46174147,11.329874 Z" id="Shape"></path>
        </g>
    </g>
</svg>