<?xml version="1.0" encoding="UTF-8" standalone="no"?>
<svg width="20px" height="20px" viewBox="0 0 20 20" version="1.1" xmlns="http://www.w3.org/2000/svg" xmlns:xlink="http://www.w3.org/1999/xlink">
    <!-- Generator: Sketch 48.2 (47327) - http://www.bohemiancoding.com/sketch -->
    <title>daiqueren  copy</title>
    <desc>Created with Sketch.</desc>
    <defs></defs>
    <g id="Page-1-" stroke="none" stroke-width="1" fill="none" fill-rule="evenodd">
        <g id="daiqueren--copy" fill="#00BFA5" fill-rule="nonzero">
            <g id="待确认" transform="translate(2.000000, 2.000000)">
                <path d="M5.56149247,15.0588235 L1.66845486,15.0588235 C0.749069849,15.0588235 0,14.2787272 0,13.3212613 L0,1.73756228 C0,0.780096342 0.749069849,1.81174828e-08 1.66845486,0 L10.5668392,0 C11.4862243,0 12.2352941,0.780096324 12.2352941,1.73756228 L12.2352941,5.21266827 C12.2352941,5.53303484 11.9867732,5.79184951 11.6791484,5.7918495 C11.3715237,5.7918495 11.1230027,5.53303482 11.1230027,5.21266827 L11.1230027,1.73756228 C11.1230027,1.4190126 10.8727372,1.15838103 10.5668571,1.15838103 L1.66845486,1.15838103 C1.36257473,1.15838103 1.11230916,1.4190126 1.11230918,1.73756228 L1.11230918,13.3212613 C1.11230918,13.639811 1.36257475,13.9004425 1.66845486,13.9004425 L5.56149247,13.9004425 C5.86911722,13.9004425 6.11763816,14.1592572 6.11763816,14.4796237 C6.11763816,14.8000089 5.86911722,15.0588235 5.56149247,15.0588235 Z" id="Shape"></path>
                <path d="M11.2941176,16 C10.0363306,16 8.85467635,15.5103821 7.96713314,14.6211021 C7.07785319,13.7335589 6.58823528,12.5519047 6.58823529,11.2941177 C6.58823531,10.0363306 7.0778532,8.85467637 7.96713314,7.96713315 C8.85467635,7.0778532 10.0363306,6.58823529 11.2941176,6.58823529 C12.5519047,6.58823529 13.7335589,7.0778532 14.6211021,7.96713315 C15.5103821,8.8564131 16,10.0380673 16,11.2941177 C16,12.550168 15.5103821,13.7335589 14.6211021,14.6211021 C13.7318399,15.5086631 12.5519047,16 11.2941176,16 Z M11.2941176,7.69551112 C9.30968358,7.69551112 7.6955111,9.30970132 7.6955111,11.2941177 C7.6955111,13.278534 9.3097013,14.8927242 11.2941176,14.8927242 C13.278534,14.8927242 14.8927242,13.278534 14.8927242,11.2941177 C14.8927242,9.30970132 13.2785517,7.69551112 11.2941176,7.69551112 Z" id="Shape"></path>
                <path d="M12.6117683,13.1764706 L10.3529412,13.1764706 C10.0405834,13.1764706 9.78823889,12.9136116 9.78823891,12.5882388 L9.78823891,9.64706118 C9.78823891,9.32168843 10.0405835,9.05882941 10.3529412,9.05882941 C10.6652989,9.05882941 10.9176434,9.32168843 10.9176434,9.64706118 L10.9176434,12.0000071 L12.6117683,12.0000071 C12.924126,12.0000071 13.1764706,12.2628661 13.1764706,12.5882388 C13.1764706,12.9136116 12.924126,13.1764706 12.6117683,13.1764706 Z M9.22353664,4.9411694 L2.4470552,4.9411694 C2.13469748,4.9411694 1.88235292,4.67831039 1.88235294,4.35293763 C1.88235296,4.02756488 2.1346975,3.76470586 2.4470552,3.76470588 L9.22351857,3.76470588 C9.53587629,3.76470588 9.78822084,4.0275649 9.78822082,4.35293763 C9.78822081,4.67831037 9.53587627,4.9411694 9.22353664,4.9411694 Z M5.27058462,8.47059766 L2.4470552,8.47059766 C2.13469748,8.47059766 1.88235292,8.20773864 1.88235294,7.88236589 C1.88235294,7.55699313 2.1346975,7.29413412 2.4470552,7.29413412 L5.27058462,7.29413412 C5.58294234,7.29413412 5.83528689,7.55699313 5.83528689,7.88236589 C5.83528689,8.20771982 5.58294234,8.47059766 5.27058462,8.47059766 Z M4.14118009,12.0000071 L2.4470552,12.0000071 C2.13469748,12.0000071 1.88235292,11.737148 1.88235294,11.4117753 C1.88235294,11.0864025 2.1346975,10.8235435 2.4470552,10.8235435 L4.14118009,10.8235435 C4.45353781,10.8235435 4.70588236,11.0864025 4.70588234,11.4117753 C4.70588234,11.7371292 4.45353779,12.0000071 4.14118009,12.0000071 Z" id="Shape"></path>
            </g>
        </g>
    </g>
</svg>