<?xml version="1.0" encoding="UTF-8" standalone="no"?>
<svg width="16px" height="16px" viewBox="0 0 16 16" version="1.1" xmlns="http://www.w3.org/2000/svg" xmlns:xlink="http://www.w3.org/1999/xlink">
    <!-- Generator: Sketch 48.2 (47327) - http://www.bohemiancoding.com/sketch -->
    <title>daochu</title>
    <desc>Created with Sketch.</desc>
    <defs></defs>
    <g id="Page-1-" stroke="none" stroke-width="1" fill="none" fill-rule="evenodd">
        <g id="daochu" fill="#00BFA5" fill-rule="nonzero" stroke="#00BFA5" stroke-width="0.5">
            <path d="M12.1172857,14 L3.686,14 C2.75471429,14 2,13.2452857 2,12.314 L2,3.88271429 C2,2.95185714 2.783,2 3.71428571,2 L8.42857143,2 L8.42857143,2.85714286 L3.71428571,2.85714286 C3.24842857,2.85714286 2.85714286,3.24842857 2.85714286,3.71428571 L2.843,12.314 C2.843,12.7794286 3.22057143,13.157 3.686,13.157 L12.2857143,13.1428571 C12.7511429,13.1428571 13.1428571,12.7511429 13.1428571,12.2857143 L13.1428571,7.57142857 L14,7.57142857 L14,12.2857143 C14,13.217 13.0481429,14 12.1172857,14 Z M13.5714279,5.85714336 C13.3284279,5.85757193 13.1424279,5.66042908 13.1428565,5.42857196 L13.1299993,3.3808578 L6.60799973,9.60114313 C6.43699974,9.76400026 6.15971404,9.76400026 5.98871405,9.60114313 C5.81771406,9.43785742 5.81771406,9.17342887 5.98871405,9.01057174 L12.4545708,2.84342926 L10.5714281,2.85714354 C10.3284281,2.85757211 10.1424281,2.66042927 10.1428567,2.42857214 C10.1432852,2.19671501 10.3284281,2.00042931 10.5714281,2.00000074 L13.5619993,2.00000074 C13.8049993,1.99957217 14.0004279,2.18600073 13.9999993,2.41785785 L13.9999993,5.42857196 C13.9995707,5.66042908 13.8144279,5.85671479 13.5714279,5.85714336 Z" id="Shape"></path>
        </g>
    </g>
</svg>