<?xml version="1.0" encoding="UTF-8" standalone="no"?>
<svg width="20px" height="20px" viewBox="0 0 20 20" version="1.1" xmlns="http://www.w3.org/2000/svg" xmlns:xlink="http://www.w3.org/1999/xlink">
    <!-- Generator: Sketch 48.2 (47327) - http://www.bohemiancoding.com/sketch -->
    <title>diandongfa  copy</title>
    <desc>Created with Sketch.</desc>
    <defs></defs>
    <g id="Page-1-" stroke="none" stroke-width="1" fill="none" fill-rule="evenodd">
        <g id="diandongfa--copy" fill="#00BFA5" fill-rule="nonzero" stroke="#00BFA5" stroke-width="0.5">
            <path d="M16.3795853,7.35485317 C15.4864434,7.35485317 14.7555252,8.07218113 14.7555252,8.95270119 L14.7555252,9.21811253 L13.5798587,9.21811253 C13.138756,8.77516252 12.6101618,8.41829186 12.0250627,8.16543376 L12.0250627,7.37278637 C12.0250627,6.42412015 11.3579403,5.62429948 10.4647984,5.40372114 L10.4647984,3.01860569 L14.4037366,3.01860569 C14.6899066,3.01860569 14.9213944,2.78726743 14.9213944,2.50930285 C14.9213944,2.22954495 14.6862611,2 14.4037366,2 L5.51241741,2 C5.22807018,2 4.99475963,2.22775163 4.99475963,2.50930285 C4.99475963,2.79085407 5.22624744,3.01860569 5.51241741,3.01860569 L9.45135566,3.01860569 L9.45135566,5.40372114 C8.55456824,5.62788612 7.89109136,6.42412015 7.89109136,7.37278637 L7.89109136,8.1869536 C7.89109136,8.20668012 7.8929141,8.22461332 7.8929141,8.24433983 C7.37707906,8.49002466 6.91045796,8.81999552 6.5112782,9.21811253 L5.2481203,9.21631921 L5.2481203,8.95270119 C5.2481203,8.07576777 4.51902483,7.35485317 3.62406015,7.35485317 C2.7309182,7.35485317 2,8.07218113 2,8.95270119 L2,16.402152 C2,17.2790854 2.72909547,18 3.62406015,18 C4.5172021,18 5.2481203,17.282672 5.2481203,16.402152 L5.2481203,16.133154 L6.58783322,16.1349473 C7.48097517,16.9885676 8.69856459,17.5158036 10.041923,17.5158036 C11.3871041,17.5158036 12.6046936,16.9885676 13.4978355,16.1349473 L14.7518797,16.1349473 L14.7518797,16.4003587 C14.7518797,17.2772921 15.4809752,17.9982067 16.3759398,17.9982067 C17.2672591,17.9982067 18,17.2808787 18,16.4003587 L18,8.95090787 C18,8.07397445 17.2709045,7.35485317 16.3795853,7.35485317 Z M4.23650034,16.4003587 C4.23650034,16.7231562 3.95944406,16.9957409 3.63135111,16.9957409 C3.30325815,16.9957409 3.02620187,16.7231562 3.02620187,16.4003587 L3.02620187,8.95090787 C3.02620187,8.62811029 3.30325815,8.35552567 3.63135111,8.35552567 C3.95944406,8.35552567 4.23650034,8.62811029 4.23650034,8.95090787 L4.23650034,16.4003587 Z M8.86261107,7.37099305 C8.86261107,6.77740417 9.35475051,6.2932078 9.95807701,6.2932078 C10.5614035,6.2932078 11.0535429,6.77740417 11.0535429,7.37099305 L11.0535429,7.86056938 C10.7272727,7.79421654 10.3918888,7.75835015 10.0455685,7.75835015 C9.63727501,7.75835015 9.23991798,7.8085631 8.86078833,7.90002242 L8.86078833,7.37099305 L8.86261107,7.37099305 Z M14.7555252,15.1360681 L13.501481,15.1360681 C13.2371839,15.1360681 12.9838232,15.2382874 12.7924356,15.4194127 C12.0524037,16.127774 11.0754158,16.5169245 10.0455685,16.5169245 C9.01572112,16.5169245 8.04055594,16.1259807 7.2987013,15.4194127 C7.10913648,15.2382874 6.85395306,15.1360681 6.5914787,15.1360681 L5.25358852,15.1342748 L5.25358852,10.2151984 L6.5112782,10.2169917 L6.51310093,10.2169917 C6.78651173,10.2169917 7.04534062,10.1093925 7.23855092,9.91930061 C7.98587378,9.17148621 8.98291183,8.76260928 10.0455685,8.76260928 C11.1082251,8.76260928 12.1089086,9.17507285 12.852586,9.91930061 C13.0439736,10.1111858 13.3046252,10.2169917 13.5762133,10.2169917 L14.7518797,10.2169917 L14.7518797,12.6881865 L14.7555252,15.1360681 Z M16.9847346,16.4003587 C16.9847346,16.7231562 16.7076783,16.9957409 16.3795853,16.9957409 C16.0514924,16.9957409 15.7744361,16.7231562 15.7744361,16.4003587 L15.7744361,8.95090787 C15.7744361,8.62811029 16.0514924,8.35552567 16.3795853,8.35552567 C16.7076783,8.35552567 16.9847346,8.62811029 16.9847346,8.95090787 L16.9847346,16.4003587 Z" id="Shape"></path>
        </g>
    </g>
</svg>