<?xml version="1.0" encoding="UTF-8" standalone="no"?>
<svg width="20px" height="20px" viewBox="0 0 20 20" version="1.1" xmlns="http://www.w3.org/2000/svg" xmlns:xlink="http://www.w3.org/1999/xlink">
    <!-- Generator: Sketch 48.2 (47327) - http://www.bohemiancoding.com/sketch -->
    <title>guzhang</title>
    <desc>Created with Sketch.</desc>
    <defs></defs>
    <g id="Page-1-" stroke="none" stroke-width="1" fill="none" fill-rule="evenodd">
        <g id="guzhang" fill="#555555" fill-rule="nonzero" stroke="#555555" stroke-width="0.5">
            <path d="M17.8004431,15.43622 C18.3676061,16.4519431 17.6582618,17.72 16.523936,17.72 L3.47606403,17.72 C2.3417382,17.72 1.63239395,16.4503461 2.19955686,15.43622 C4.37602502,11.5442118 6.54936832,7.65380059 8.72427405,3.76179234 C9.29143696,2.74606922 10.7101255,2.74606922 11.2772884,3.76179234 C13.4521941,7.65380059 15.6255374,11.5442118 17.8004431,15.43622 Z M16.523936,16.7617706 C16.9442303,16.7617706 17.2067189,16.2922383 16.9973529,15.9169318 C14.8224472,12.0249235 12.6475415,8.13291527 10.4741982,4.24250407 C10.2632698,3.86719757 9.73985503,3.86719757 9.52892667,4.24250407 C7.35402094,8.13451231 5.17911521,12.0249235 3.00577192,15.9169318 C2.79640599,16.2922383 3.05733218,16.7617706 3.4791889,16.7617706 L16.523936,16.7617706 Z M10.0007812,14.0755343 C10.4632612,14.0755343 10.8366825,14.4620202 10.8366825,14.9395378 C10.8366825,15.4170554 10.4632612,15.8035413 10.0007812,15.8035413 C9.53830126,15.8035413 9.16487995,15.4170554 9.16487995,14.9395378 C9.16487995,14.4620202 9.53830126,14.0755343 10.0007812,14.0755343 Z M10.8366825,8.02591299 C10.733562,9.58622979 10.628879,11.1449495 10.524196,12.7052664 C10.4757606,13.4239384 9.52423937,13.4239384 9.47580397,12.7052664 C9.37112101,11.1449495 9.26800048,9.58622979 9.16331752,8.02591299 C9.16331752,7.54839536 9.53673883,7.16190952 9.99921878,7.16190952 C10.4632612,7.16190952 10.8366825,7.54839536 10.8366825,8.02591299 Z" id="Shape"></path>
        </g>
    </g>
</svg>