<?xml version="1.0" encoding="UTF-8" standalone="no"?>
<svg width="20px" height="20px" viewBox="0 0 20 20" version="1.1" xmlns="http://www.w3.org/2000/svg" xmlns:xlink="http://www.w3.org/1999/xlink">
    <!-- Generator: Sketch 48.2 (47327) - http://www.bohemiancoding.com/sketch -->
    <title>huida copy</title>
    <desc>Created with Sketch.</desc>
    <defs></defs>
    <g id="Page-1-" stroke="none" stroke-width="1" fill="none" fill-rule="evenodd">
        <g id="huida-copy" fill="#00BFA5" fill-rule="nonzero" stroke="#00BFA5">
            <g id="回答" transform="translate(2.000000, 2.000000)">
                <path d="M14.4281456,6.41419624 C14.4281456,6.41419624 13.9227804,6.4022001 13.8193048,6.90203951 L13.8193048,13.3868637 C13.8194411,13.7650235 13.6693033,14.1277416 13.4019343,14.3951893 C13.1345653,14.6626369 12.7718773,14.8128955 12.3936923,14.8128955 L2.47533695,14.8128955 C2.09714916,14.8128997 1.73445701,14.662643 1.46708455,14.3951949 C1.1997121,14.1277469 1.04957205,13.7650263 1.04970838,13.3868637 L1.04970838,3.52616027 C1.04957205,3.1479976 1.1997121,2.78527708 1.46708455,2.51782899 C1.73445701,2.25038091 2.09714916,2.10012419 2.47533695,2.10012847 L8.65368175,2.10012847 C9.13355942,2.055163 9.15854904,1.61779348 9.15854904,1.61779348 C9.15854904,1.61779348 9.2080304,1.06748033 8.64719344,1 L2.37635817,1 C1.74601976,0.999999985 1.14150588,1.25041949 0.695837506,1.69615467 C0.250169136,2.14188984 -0.00013626505,2.74641774 5.56527825e-08,3.37671431 L5.56527825e-08,13.6232857 C-0.00013626505,14.2535823 0.250169136,14.8581102 0.695837506,15.3038453 C1.14150588,15.7495805 1.74601976,16 2.37635817,16 L12.6241395,16 C13.2544322,16.0000001 13.8588949,15.7495647 14.3044843,15.3038152 C14.7500736,14.8580657 15.0002682,14.2535365 14.9999998,13.6232857 L14.9999998,6.92203308 C14.9999998,6.92203308 14.9255288,6.41419624 14.4281616,6.41419624 L14.4281456,6.41419624 Z" id="Shape" stroke-width="0.5"></path>
                <path d="M4.0089695,12.3428551 C3.95706147,12.578443 4.1473962,12.8066206 4.1473962,12.8066206 C4.39756493,13.085271 4.6546272,12.9808268 4.6546272,12.9808268 L8.02329611,11.6672593 L13.8964797,5.17707095 C14.2870288,4.71627914 13.8964797,4.38318027 13.8964797,4.38318027 L11.6460729,2.35341914 C11.1759304,2.0005223 10.8229463,2.51030813 10.8229463,2.51030813 L4.94828558,9.24451238 L4.00898538,12.3428551 L4.0089695,12.3428551 Z M5.91776487,9.7919064 L11.351938,3.51949578 L12.7697991,4.79149553 L7.37171378,10.7624999 L5.39569846,11.5271787 L5.91776487,9.7919064 Z M15.8220641,2.1222679 L13.610239,0.136555271 C13.3907077,-0.0605044893 13.0531837,-0.0421085234 12.8563178,0.177645999 L11.9293592,1.23186807 C11.7335776,1.45266589 11.7521139,1.7901734 11.9708952,1.98815056 L14.1832127,3.97287726 C14.402744,4.16993702 14.740268,4.15154105 14.9371339,3.93178653 L15.8631077,2.87805742 C15.9579421,2.77246261 16.006912,2.63342986 15.9992119,2.49163744 C15.9915118,2.34984502 15.9277745,2.21694696 15.8220641,2.1222679 Z M14.4101277,2.91566562 L12.9784319,1.63771852 L13.3768911,1.19030028 L14.8096035,2.46773851 L14.4101277,2.91566562 Z" id="Shape" stroke-width="0.3"></path>
            </g>
        </g>
    </g>
</svg>