<?xml version="1.0" encoding="UTF-8" standalone="no"?>
<svg width="20px" height="20px" viewBox="0 0 20 20" version="1.1" xmlns="http://www.w3.org/2000/svg" xmlns:xlink="http://www.w3.org/1999/xlink">
    <!-- Generator: Sketch 48.2 (47327) - http://www.bohemiancoding.com/sketch -->
    <title>Offline</title>
    <desc>Created with Sketch.</desc>
    <defs></defs>
    <g id="Page-1-" stroke="none" stroke-width="1" fill="none" fill-rule="evenodd">
        <g id="Offline" fill="#555555" fill-rule="nonzero">
            <g id="离线-(2)" transform="translate(2.000000, 3.000000)">
                <path d="M4.14814815,12.4563292 L11.8518519,12.4563292 L11.8518519,13.6296296 L4.14814815,13.6296296 L4.14814815,12.4563292 Z M5.26452453,2.37037037 L11.4268421,8.34186965 L10.7352158,9.01207542 L4.57289829,3.04055817 L5.26452453,2.37037037 Z" id="Shape"></path>
                <polygon id="Shape" points="10.6014841 2.37037037 11.2592593 3.02814911 5.39849828 8.88888889 4.74074074 8.23112779"></polygon>
                <path d="M14.5832372,11.2592593 L1.41676283,11.2592593 C0.635492721,11.2592593 0,10.6151065 0,9.8232302 L0,1.43602906 C0,0.644134637 0.635492721,0 1.41676283,0 L14.5832372,0 C15.3645073,0 16,0.644134637 16,1.43602906 L16,9.8232302 C16,10.6150883 15.3645073,11.2592593 14.5832372,11.2592593 Z M1.90918427,1.30683636 C1.66810231,1.30683636 1.47225428,1.50578434 1.47225428,1.74970807 L1.47225428,9.50956935 C1.47225428,9.75349307 1.66810231,9.95244105 1.90918427,9.95244105 L14.0908157,9.95244105 C14.3318977,9.95244105 14.5277457,9.75350986 14.5277457,9.50956935 L14.5277457,1.74972486 C14.5277457,1.50580114 14.3318977,1.30685316 14.0908157,1.30685316 L1.90918427,1.30685316 L1.90918427,1.30683636 Z" id="Shape"></path>
                <polygon id="Shape" points="5.92592593 10.6666667 10.0740741 10.6666667 10.0740741 12.4444444 5.92592593 12.4444444"></polygon>
            </g>
        </g>
    </g>
</svg>