<?xml version="1.0" encoding="UTF-8" standalone="no"?>
<svg width="28px" height="28px" viewBox="0 0 28 28" version="1.1" xmlns="http://www.w3.org/2000/svg" xmlns:xlink="http://www.w3.org/1999/xlink">
    <!-- Generator: Sketch 48.2 (47327) - http://www.bohemiancoding.com/sketch -->
    <title>shipin</title>
    <desc>Created with Sketch.</desc>
    <defs></defs>
    <g id="Page-1-" stroke="none" stroke-width="1" fill="none" fill-rule="evenodd">
        <g id="shipin" fill="#33A9D6" fill-rule="nonzero">
            <path d="M13.6764356,10.5842644 C12.2847062,10.5839975 11.0298639,11.4048747 10.4970832,12.6640938 C9.96430255,13.923313 10.2585153,15.3728695 11.2425202,16.3367871 C12.2265251,17.3007047 13.7065215,17.5891389 14.9923379,17.0675832 C16.2781543,16.5460275 17.1165479,15.3172028 17.1165479,13.9541509 C17.1143207,12.0941759 15.5755426,10.5868101 13.6764356,10.5842644 Z M22.3478099,12.4942628 C22.3500594,11.358365 22.1181054,10.2337167 21.6658523,9.1877349 C20.1028196,5.56799681 16.2090449,3.47050045 12.2507216,4.11599768 C8.2923983,4.7614949 5.3026405,7.98151228 5.02150004,11.9019859 C4.74035957,15.8224596 7.2412135,19.4201541 11.0685541,20.6011959 L9.87209588,23.5051326 L8.32994169,23.5051326 C7.90846055,23.5051326 7.56678258,23.8397701 7.56678258,24.2525663 C7.56678258,24.6653625 7.90846055,25 8.32994169,25 L19.0161908,25 C19.4376719,25 19.7793498,24.6653625 19.7793498,24.2525663 C19.7793498,23.8397701 19.4376719,23.5051326 19.0161908,23.5051326 L17.6098216,23.5051326 L16.4227976,20.553017 C19.961316,19.3935706 22.34705,16.1486755 22.3478099,12.4942628 Z M13.7037274,6.37223631 C14.2856877,6.38445482 14.7497562,6.85213924 14.7455974,7.42222423 C14.7414386,7.99230922 14.2705942,8.45345158 13.6885151,8.45752469 C13.1064359,8.4615978 12.6289118,8.00709168 12.6164362,7.43712309 C12.6173654,6.84922887 13.1041375,6.37307761 13.7044012,6.3728963 L13.7037274,6.37223631 Z M13.6764356,18.4592127 C11.8156826,18.4597466 10.1378546,17.362346 9.42542894,15.6787983 C8.71300331,13.9952506 9.10630434,12.0571589 10.4219109,10.7683782 C11.7375174,9.47959743 13.7162985,9.0939747 15.4354232,9.79135031 C17.1545479,10.4887259 18.2754056,12.13174 18.2752694,13.9541509 C18.2726704,16.4407863 16.2153871,18.4561207 13.6764356,18.4592127 Z" id="Shape"></path>
        </g>
    </g>
</svg>