<?xml version="1.0" encoding="UTF-8" standalone="no"?>
<svg width="20px" height="20px" viewBox="0 0 20 20" version="1.1" xmlns="http://www.w3.org/2000/svg" xmlns:xlink="http://www.w3.org/1999/xlink">
    <!-- Generator: Sketch 48.2 (47327) - http://www.bohemiancoding.com/sketch -->
    <title>shuiya</title>
    <desc>Created with Sketch.</desc>
    <defs></defs>
    <g id="Page-1-" stroke="none" stroke-width="1" fill="none" fill-rule="evenodd">
        <g id="shuiya" fill="#555555" fill-rule="nonzero">
            <path d="M10.4104034,8.4536 L13.2400022,5.624 C13.4345978,5.39273559 13.7429158,5.29088327 14.0369796,5.36071989 C14.3310434,5.43055651 14.5606451,5.66015831 14.6304816,5.95422221 C14.7003182,6.24828611 14.598466,6.55660426 14.3672016,6.7512 L11.5424029,9.576 C11.7344579,10.2748921 11.4327133,11.0155943 10.8069547,11.3813281 C10.1811962,11.747062 9.38774217,11.6464649 8.8730535,11.1361408 C8.35836482,10.6258168 8.25101393,9.83324786 8.61140505,9.20439697 C8.97179616,8.57554608 9.70990136,8.26750403 10.4104034,8.4536 Z M17.2000004,14.8 L15.6000011,14.8 C15.1581735,14.8 14.8000015,14.4418278 14.8000015,14 C14.8000015,13.5581722 15.1581735,13.2 15.6000011,13.2 L17.2000004,13.2 C17.641828,13.2 18,13.5581722 18,14 C18,14.4418278 17.641828,14.8 17.2000004,14.8 Z M15.3714298,14.8 L3.02857822,14.8 C2.46051416,14.8 2.00000725,14.4418278 2.00000725,14 C2.00000725,13.5581722 2.46051416,13.2 3.02857822,13.2 L15.3714298,13.2 C15.9394938,13.2 16.4000007,13.5581722 16.4000007,14 C16.4000007,14.4418278 15.9394938,14.8 15.3714298,14.8 Z M16.9333333,18 L3.06666667,18 C2.47756293,18 2,17.6418278 2,17.2 C2,16.7581722 2.47756293,16.4 3.06666667,16.4 L16.9333333,16.4 C17.5224371,16.4 18,16.7581722 18,17.2 C18,17.6418278 17.5224371,18 16.9333333,18 Z M4.40000617,18 L2.80000689,18 C2.35817929,18 2.00000725,17.6418278 2.00000725,17.2 C2.00000725,16.7581722 2.35817929,16.4 2.80000689,16.4 L4.40000617,16.4 C4.84183377,16.4 5.2000058,16.7581722 5.2000058,17.2 C5.2000058,17.6418278 4.84183377,18 4.40000617,18 Z M6.06880541,4.9488 C6.97577239,4.24041854 8.0579507,3.79140005 9.20000399,3.6496 L9.20000399,4.4 C9.20000399,4.8418278 9.55817603,5.2 10.0000036,5.2 C10.4418312,5.2 10.8000033,4.8418278 10.8000033,4.4 L10.8000033,3.6496 C13.7003185,4.01561694 15.984384,6.29968348 16.3504007,9.2 L15.6000011,9.2 C15.1581735,9.2 14.8000015,9.5581722 14.8000015,10 C14.8000015,10.4418278 15.1581735,10.8 15.6000011,10.8 L17.2000004,10.8 C17.412369,10.80064 17.6162241,10.71656 17.7663921,10.566392 C17.9165601,10.4162239 18.00064,10.2123687 18,10 C18,5.5816 14.4184016,2 10.0000036,2 C5.58160563,2 2.00000725,5.5816 2.00000725,10 C1.99936726,10.2123687 2.08344717,10.4162239 2.23361516,10.566392 C2.38378315,10.71656 2.58763825,10.80064 2.80000689,10.8 L4.40000617,10.8 C4.84183377,10.8 5.2000058,10.4418278 5.2000058,10 C5.2000058,9.5581722 4.84183377,9.2 4.40000617,9.2 L3.64960651,9.2 C3.79160131,8.06204119 4.23825686,6.98354443 4.94240592,6.0784 L5.2000058,6.336 C5.35093105,6.48582437 5.55534615,6.5693179 5.76800555,6.568 C6.08733193,6.56203367 6.37264793,6.36707471 6.49425261,6.07174893 C6.61585728,5.77642314 6.55054478,5.43708768 6.32800529,5.208 L6.06880541,4.9488 Z" id="Shape"></path>
        </g>
    </g>
</svg>