<?xml version="1.0" encoding="UTF-8" standalone="no"?>
<svg width="28px" height="28px" viewBox="0 0 28 28" version="1.1" xmlns="http://www.w3.org/2000/svg" xmlns:xlink="http://www.w3.org/1999/xlink">
    <!-- Generator: Sketch 48.2 (47327) - http://www.bohemiancoding.com/sketch -->
    <title>tupian</title>
    <desc>Created with Sketch.</desc>
    <defs></defs>
    <g id="Page-1-" stroke="none" stroke-width="1" fill="none" fill-rule="evenodd">
        <g id="tupian" fill="#00BFA5" fill-rule="nonzero">
            <path d="M24.7885752,4 L3.46133289,4 C2.10148944,4 1,5.08452487 1,6.4225641 L1,22.5764102 C1,23.9144495 2.10148944,25 3.46133289,25 L24.7885752,25 C26.1474689,25 27.2499387,23.9144796 27.2499387,22.5764102 L27.25,6.4225641 C27.248989,5.08458522 26.1465192,4 24.7885752,4 Z M25.1985165,20.1041629 L20.0496646,13.3443741 C20.0496646,13.3443741 19.7507484,12.797647 18.6998697,12.797647 C17.507483,12.797647 17.1491329,13.3274811 17.1491329,13.3274811 L12.6393801,20.1816591 C12.6393801,20.1816591 12.3940771,20.6409653 11.7923233,20.6409653 C11.1623843,20.6409653 10.8615074,20.1816591 10.8615074,20.1816591 L8.49003016,17.5126093 C8.49003016,17.5126093 7.88227171,16.7203318 7.09278005,16.7203318 C6.3062601,16.7203318 5.6531909,17.5970437 5.6531909,17.5970437 L3.05047247,20.7900754 L3.05047247,6.8560181 C3.05047247,6.4107089 3.41795219,6.04787331 3.8712742,6.04787331 L24.378787,6.04787331 C24.832109,6.04787331 25.1994662,6.41064856 25.1994662,6.8560181 L25.1994662,20.1041629 L25.1985165,20.1041629 Z M12.8917601,11.2697134 C12.8917601,12.8502866 11.5915038,14.1306787 9.9872764,14.1306787 C8.38304896,14.1306787 7.08172042,12.8492911 7.08172042,11.2697134 C7.08172042,9.69113123 8.38307962,8.40974359 9.9872764,8.40974359 C11.5915038,8.41073906 12.8917601,9.69119154 12.8917601,11.2697134 Z" id="Shape"></path>
        </g>
    </g>
</svg>