<?xml version="1.0" encoding="UTF-8" standalone="no"?>
<svg width="20px" height="20px" viewBox="0 0 20 20" version="1.1" xmlns="http://www.w3.org/2000/svg" xmlns:xlink="http://www.w3.org/1999/xlink">
    <!-- Generator: Sketch 48.2 (47327) - http://www.bohemiancoding.com/sketch -->
    <title>weihuifu copy</title>
    <desc>Created with Sketch.</desc>
    <defs></defs>
    <g id="Page-1-" stroke="none" stroke-width="1" fill="none" fill-rule="evenodd">
        <g id="weihuifu-copy" fill="#00BFA5" fill-rule="nonzero">
            <path d="M16.6273583,10.2977106 C16.0631522,12.0885075 11.4000068,13.442208 8.10422628,9.39105322 C9.64422767,10.6191321 14.1705332,11.1923112 15.1831591,9.07436587 C13.8189495,8.36453655 13.3684261,8.16561625 13.3684261,8.16561625 L18,7.84525865 L17.6778843,12.3565242 C17.6778843,12.3565064 16.9705098,11.0174868 16.6273583,10.2977106 Z M5.91054524,15.2607357 C5.76001423,15.2607357 5.63789943,15.1392983 5.63789943,14.9906267 L5.63789943,12.6444346 C5.63789943,12.4947169 5.7599964,12.3732619 5.91054524,12.3732619 L6.40002059,12.3732619 C6.5505516,12.3732619 6.67266641,12.4946992 6.67266641,12.6444346 L6.67266641,14.9906267 C6.67266641,15.1392983 6.55056943,15.2607357 6.40002059,15.2607357 L5.91054524,15.2607357 Z M8.27368954,15.2607357 C8.12315853,15.2607357 8.00104373,15.1392983 8.00104373,14.9906267 L8.00104373,12.6444346 C8.00104373,12.4947169 8.1231407,12.3732619 8.27368954,12.3732619 L8.7631649,12.3732619 C8.9136959,12.3732619 9.03581071,12.4946992 9.03581071,12.6444346 L9.03581071,14.9906267 C9.03581071,15.1392983 8.91371373,15.2607357 8.7631649,15.2607357 L8.27368954,15.2607357 Z M10.6368517,15.2607357 C10.4863207,15.2607357 10.3642059,15.1392983 10.3642059,14.9906267 L10.3642059,12.6444346 C10.3642059,12.4947169 10.4863028,12.3732619 10.6368517,12.3732619 L11.126327,12.3732619 C11.2779098,12.3732619 11.4000068,12.4946992 11.4000068,12.6444346 L11.4000068,14.9906267 C11.4000068,15.1392983 11.2779098,15.2607357 11.126327,15.2607357 L10.6368517,15.2607357 Z M15.0357835,6.87001906 L4.37106084,6.86216437 L4.37106084,15.8145706 C4.37106084,16.3579445 4.81368689,16.7976649 5.36001248,16.7976649 L12.2484105,16.7976649 C12.7947361,16.7976649 13.2378792,16.3579445 13.2378792,15.8145706 L13.2378792,14.2012222 C13.2378792,13.9122656 13.4757802,13.6787883 13.7705136,13.6787883 C14.0652471,13.6787883 14.3031481,13.9122656 14.3031481,14.2012222 C14.3031481,14.2493787 14.2873534,14.2933507 14.2757837,14.3373228 L14.3031481,14.3404788 L14.3031481,16.8751124 C14.3031481,17.4174224 13.861039,17.8571429 13.3147135,17.8571429 L4.30948645,17.8571429 C3.76369567,17.8571429 3.32105179,17.4174224 3.32105179,16.8751124 L3.32105179,6.86111826 L2.35105022,6.86060407 C2.15684312,6.86060407 1.99946655,6.70304941 2.00000136,6.50935966 L2.00107098,6.15809752 C2.0021406,5.96389358 2.16003415,5.80685311 2.35475824,5.80685311 L4.82160207,5.80894533 L4.82844763,3.70144339 C4.82951725,3.3135497 5.14633832,2.99946875 5.53528734,3.00000067 L11.5263288,3.00418511 C11.9147608,3.00418511 12.2294783,3.3193299 12.2273747,3.70720586 L12.221064,5.81417587 L11.2800134,5.81366168 L15.0400085,5.81626809 C15.2336986,5.81678228 15.3915921,5.97382275 15.3915921,6.16804442 L15.3894885,6.51928883 C15.3894707,6.71297858 15.2315593,6.87001906 15.0357835,6.87001906 Z M10.465267,4.05687224 L6.58896874,4.05426583 C6.20001972,4.05375164 5.88318083,4.36783259 5.88212904,4.75570855 L5.87843885,5.80945951 L11.1642272,5.81364395 L11.1674004,4.75989298 C11.1684165,4.37201702 10.854733,4.05740416 10.465267,4.05687224 Z" id="Shape"></path>
        </g>
    </g>
</svg>