<?xml version="1.0" encoding="UTF-8" standalone="no"?>
<svg width="30px" height="30px" viewBox="0 0 30 30" version="1.1" xmlns="http://www.w3.org/2000/svg" xmlns:xlink="http://www.w3.org/1999/xlink">
    <!-- Generator: Sketch 48.2 (47327) - http://www.bohemiancoding.com/sketch -->
    <title>冷却泵</title>
    <desc>Created with Sketch.</desc>
    <defs></defs>
    <g id="暖通空调／冷源-copy" stroke="none" stroke-width="1" fill="none" fill-rule="evenodd" transform="translate(-698.000000, -273.000000)">
        <g id="right" transform="translate(241.000000, 140.000000)">
            <g id="Group-8" transform="translate(83.000000, 48.000000)">
                <g id="冷却泵" transform="translate(374.000000, 85.000000)">
                    <rect id="Rectangle-3" fill="#00BFA5" x="0" y="0" width="30" height="30"></rect>
                    <g transform="translate(6.000000, 5.000000)" fill="#FFFFFF">
                        <polygon id="Rectangle-3" points="3.07324792 14.2200306 13.5390549 14.0197771 17.0392383 19.1037746 0 19.1275668"></polygon>
                        <path d="M18.5128617,7.14323316 L16.5902352,7.14323316 C16.6704912,7.60883702 16.7123288,8.08776186 16.7123288,8.57655482 C16.7123288,13.1606856 13.0324774,16.8768579 8.49315068,16.8768579 C3.95382397,16.8768579 0.273972603,13.1606856 0.273972603,8.57655482 C0.273972603,3.99242403 3.95382397,0.276251766 8.49315068,0.276251766 C9.3110959,0.276251766 10.101135,0.396911228 10.8467672,0.621566473 L18.5016875,0.621566473 C18.5557349,0.26957069 18.8598896,6.74381639e-17 19.2270059,0 C19.6323029,-7.44518562e-17 19.9608611,0.328558158 19.9608611,0.733855186 L19.9608611,6.97356908 C19.9608611,7.37886611 19.6323029,7.70742427 19.2270059,7.70742427 C18.8801079,7.70742427 18.5894275,7.46672821 18.5128617,7.14323316 Z M10.5007511,8.47513403 L11.2430861,7.72736772 C11.2903951,7.67972228 11.2911035,7.60104607 11.243335,7.55290884 C11.1952028,7.50448233 11.1180362,7.50490662 11.0701433,7.55309206 L10.2057259,8.42388216 C10.1910987,8.43861647 10.1809419,8.45631114 10.1752652,8.47513403 L8.70499272,8.47513403 L9.43998536,7.1927475 C9.45897787,7.19713501 9.47928185,7.19700965 9.49941352,7.1916 L10.6802896,6.87288373 C10.7448488,6.85543977 10.7844995,6.78764072 10.7670578,6.72188596 C10.7494438,6.65570692 10.6823765,6.61721256 10.616927,6.63483974 L9.602915,6.90855272 L10.250546,5.77865859 C10.2838594,5.72048314 10.2640341,5.64480586 10.2055153,5.61081473 C10.1466233,5.57652467 10.0723381,5.59673613 10.0387087,5.65545159 L9.39102989,6.78535536 L9.11934328,5.76392428 C9.10202602,5.69882524 9.03471942,5.65888446 8.96944227,5.67651163 C8.9037439,5.69419666 8.86552915,5.76181249 8.88302829,5.82769261 L9.19942961,7.01714112 C9.20480954,7.03722723 9.21495675,7.05497976 9.22827256,7.06929943 L8.49316504,8.35192703 L7.7581724,7.06953086 C7.77143077,7.05521119 7.7814631,7.03741044 7.78690047,7.01713148 L8.10330179,5.82768297 C8.12056161,5.76258392 8.08210754,5.69406166 8.01688782,5.67650199 C7.95118946,5.6587591 7.88454338,5.69797667 7.86698681,5.76391464 L7.59531934,6.78533607 L6.94763095,5.65545159 C6.91430791,5.59728578 6.83936219,5.57676574 6.78082431,5.61081473 C6.72194181,5.64504693 6.7021739,5.71994313 6.7357937,5.77865859 L7.38341508,6.90855272 L6.36941261,6.63483974 C6.30478641,6.61745364 6.23677142,6.65618906 6.21927228,6.72188596 C6.20172527,6.78811322 6.24065799,6.85525655 6.30605002,6.87288373 L7.48692614,7.1916 C7.50686635,7.19695179 7.52717991,7.19700965 7.54617241,7.19249678 L8.28134694,8.47513403 L6.81135208,8.47513403 C6.80561795,8.45635936 6.7953463,8.43873218 6.78059456,8.42387251 L5.91618677,7.55309206 C5.8688874,7.50550448 5.79078264,7.5047909 5.74299505,7.55290884 C5.69492028,7.601345 5.69534149,7.67912442 5.74323437,7.72736772 L6.48556938,8.47513403 L5.19026918,8.47513403 C5.1236231,8.47513403 5.06849315,8.53030091 5.06849315,8.59834103 C5.06849315,8.6668633 5.12302959,8.72154803 5.19026918,8.72154803 L6.48556938,8.72154803 L5.74323437,9.46931434 C5.695935,9.51690193 5.69521704,9.59564564 5.74299505,9.64377322 C5.79112726,9.69219973 5.86829388,9.69177545 5.91618677,9.64353215 L6.78060413,8.77279991 C6.79523143,8.7580656 6.8053882,8.74037092 6.81106489,8.72154803 L8.28133736,8.72154803 L7.54634472,10.0038767 C7.52735222,9.9994892 7.50704824,9.99960491 7.48691657,10.0050724 L6.30604045,10.3237983 C6.24148125,10.3411844 6.20183057,10.409051 6.21927228,10.4747382 C6.23688629,10.5409076 6.30395357,10.5794116 6.36940304,10.5617845 L7.38341508,10.2880618 L6.7357937,11.4180138 C6.70247066,11.4761893 6.722296,11.5518666 6.78081474,11.5858577 C6.83970681,11.6201478 6.91399201,11.5999363 6.94762137,11.5412208 L7.5953002,10.4112688 L7.86696766,11.4327578 C7.88428492,11.4977893 7.95159152,11.537788 8.01686867,11.5201608 C8.08256703,11.5024179 8.12078179,11.4348599 8.10328265,11.3689895 L7.78690047,10.1794831 C7.78152054,10.1593873 7.77137334,10.1417023 7.75805752,10.1273248 L8.49316504,8.84474539 L9.22815768,10.1270837 C9.21489931,10.1414516 9.20486698,10.1592041 9.19942961,10.1794831 L8.88302829,11.3689895 C8.86576847,11.434021 8.90422255,11.5025433 8.96944227,11.5201704 C9.03514063,11.537923 9.1017867,11.4986379 9.11934328,11.4327578 L9.39101074,10.4112785 L10.0386896,11.5412305 C10.0720126,11.5993963 10.1469583,11.6199163 10.2054962,11.5858673 C10.2643787,11.5516351 10.2841466,11.4767389 10.2505268,11.4180235 L9.60290543,10.2880715 L10.6169079,10.5617941 C10.6815341,10.5792381 10.7495587,10.540493 10.7670482,10.4747382 C10.7846048,10.4085688 10.7456625,10.3414352 10.6802705,10.323808 L9.49939437,10.0050917 C9.47945416,9.99967241 9.45915018,9.99967241 9.4401481,10.0041274 L8.70497357,8.72154803 L10.1750163,8.72154803 C10.180693,8.74026485 10.1909646,8.75794988 10.2057164,8.77280955 L11.0701242,9.64354179 C11.1174235,9.69118723 11.1955379,9.69184295 11.2433159,9.64378286 C11.2913907,9.59529849 11.2909695,9.51750943 11.2430766,9.46932399 L10.5007416,8.72154803 L11.7960322,8.72154803 C11.8626878,8.72154803 11.9178082,8.66639079 11.9178082,8.59835068 C11.9178274,8.52981877 11.8633005,8.47513403 11.7960513,8.47513403 L10.5007511,8.47513403 Z" id="Combined-Shape" stroke="#00B8D3" stroke-width="0.5"></path>
                    </g>
                </g>
            </g>
        </g>
    </g>
</svg>