<?xml version="1.0" encoding="UTF-8" standalone="no"?>
<svg width="61px" height="54px" viewBox="0 0 61 54" version="1.1" xmlns="http://www.w3.org/2000/svg" xmlns:xlink="http://www.w3.org/1999/xlink">
    <!-- Generator: Sketch 46 (44423) - http://www.bohemiancoding.com/sketch -->
    <title>chexing</title>
    <desc>Created with Sketch.</desc>
    <defs></defs>
    <g id="Page-1" stroke="none" stroke-width="1" fill="none" fill-rule="evenodd">
        <g id="Artboard" transform="translate(-54.000000, -893.000000)" fill-rule="nonzero" fill="#03EDFF">
            <g id="chexing" transform="translate(54.000000, 893.000000)">
                <path d="M0,44.6813404 C0,50.1639656 13.5764472,54 30.5004393,54 C47.4235528,54 61.0000001,50.1639656 61,44.6813404 L61,43.8613666 L61,41.9490437 C61,41.4249013 60.6066281,41 60.1213793,41 C59.6361305,41 59.2427586,41.4249013 59.2427586,41.9490437 L59.2427586,44.6813404 C59.2427586,48.4433494 46.2954038,52.1019127 30.5004393,52.1019127 C14.7045962,52.1019127 1.75724145,48.4433494 1.75724145,44.6813404 L1.75724145,41.9490437 C1.75724145,41.4249013 1.36386955,41 0.878620723,41 C0.393371897,41 5.92709264e-15,41.4249013 5.86317302e-15,41.9490437 L5.86317302e-15,44.6822894 L0,44.6813404 Z" id="Shape"></path>
                <path d="M0,41.9635449 C0,47.2806768 13.5764472,50.9999999 30.5004393,51 C47.4235528,51 61.0000001,47.2806768 61,41.9635449 C61,40.5332483 60.0862344,39.2575784 58.4458496,38.14758 C58.0382406,37.8715617 57.4942073,37.9939482 57.2307172,38.4209379 C56.9672271,38.8479276 57.0840586,39.4178282 57.4916675,39.6938465 C58.6830772,40.4991937 59.2427586,41.2815309 59.2427586,41.9635449 C59.2427586,45.6119975 46.2954038,49.1592065 30.5004393,49.1592065 C14.7045962,49.1592065 1.75724145,45.6119975 1.75724145,41.9635449 C1.75724145,41.3680482 2.18161527,40.697079 3.09713803,39.9902143 C3.34982829,39.795056 3.48393373,39.4735039 3.44893815,39.1466835 C3.41394256,38.8198631 3.2151626,38.5374262 2.92747675,38.4057641 C2.6397909,38.274102 2.30690549,38.3132173 2.05421523,38.5083755 C0.732769709,39.5300159 0,40.6869546 0,41.9635449 Z" id="Shape"></path>
                <path d="M43.0447369,1.74468082 C43.0421053,1.74729786 43.1850877,1.76736167 43.3780702,1.80748935 C43.7026316,1.87640425 44.0245614,1.9784681 44.3184211,2.11717019 C44.6526316,2.27506379 44.9236843,2.46959574 45.1149123,2.69727658 C45.1675439,2.7618298 45.222807,2.82812766 45.2780702,2.8979149 C46.0359649,3.85748938 46.2894737,4.2849362 48.2324562,7.73504252 C49.2061404,9.46227658 49.8552632,10.534383 50.5614035,11.5122766 C53.1754386,15.131617 54.2456141,17.6675106 54.2456141,20.0568511 L54.2456141,40.1276595 L55.122807,39.2553191 L48.5307018,39.2553191 L49.3026316,39.7141702 L46.5605263,34.6484893 C46.4073927,34.3663631 46.1109831,34.190506 45.7885965,34.1905106 L29.6842105,34.1905106 L29.6842105,35.0628511 L30.5614035,35.0890213 C30.5763158,34.5621276 30.1798246,34.155617 29.6850877,34.155617 L16.0842105,34.155617 C15.7585494,34.1555473 15.4596528,34.3349008 15.3078948,34.6214468 L12.6026316,39.7202766 L13.3789474,39.2553191 L6.87719302,39.2553191 L7.75438599,40.1276595 L7.75438599,20.0376596 C7.75438599,17.6483191 8.81052635,15.1132979 11.3885965,11.4974468 C12.0850878,10.5204256 12.7263158,9.45006383 13.6859649,7.72370213 C15.6017544,4.27795743 15.8526316,3.85051066 16.6,2.89268082 C16.654386,2.82289358 16.7078948,2.75572338 16.7605264,2.69204256 C16.9491228,2.46523406 17.2140351,2.27157446 17.5429825,2.1145532 C17.8307017,1.9767234 18.1482456,1.8755319 18.4657895,1.80748935 C18.654386,1.76648933 18.7956141,1.74642552 18.8605263,1.74206384 L31.0701755,1.74468082 L43.0447369,1.74468082 Z M18.7894737,0 C18.0919545,0.0560630293 17.4108936,0.240026561 16.7807018,0.542595764 C16.2385965,0.802553221 15.7710526,1.14451067 15.4070176,1.58242554 C15.3429825,1.66006385 15.2789474,1.7394468 15.2140351,1.82231913 C14.3824562,2.88831914 14.1350877,3.31053189 12.1508772,6.88014894 C11.2210527,8.55242553 10.6052632,9.57917021 9.95789478,10.4881489 C7.18859652,14.3726808 6,17.2243617 6,20.0376596 L6,40.1276595 C5.99999999,40.3590186 6.09241827,40.5809018 6.25692387,40.7444974 C6.42142948,40.908093 6.64454696,41 6.87719302,41 L13.3789474,41 C13.7041035,40.9999168 14.0025381,40.8209737 14.154386,40.5350425 L16.8596492,35.4353404 L16.0842105,35.9002978 L29.6842105,35.9002978 L29.6842105,35.0279574 L28.8070176,35.0017872 C28.7921053,35.5286809 29.1885965,35.9351915 29.6833333,35.9351915 L45.7868422,35.9351915 L45.0149123,35.4763404 L47.7578948,40.5411489 C47.910795,40.8236125 48.2072502,40.9998316 48.5298246,41 L55.122807,41 C55.3554531,41 55.5785706,40.908093 55.7430761,40.7444974 C55.9075817,40.5809018 56,40.3590186 56,40.1276595 L56,20.0568511 C56,17.2391915 54.7947369,14.3831489 51.985965,10.4942553 C51.3298246,9.58440429 50.7052632,8.55591492 49.7631579,6.88276597 C47.7508772,3.30878725 47.5,2.8865745 46.6570176,1.81970215 C46.5929857,1.73879885 46.5277741,1.65882585 46.4614035,1.5798085 C46.0929825,1.14102128 45.6192982,0.800808476 45.0710526,0.541723418 C44.4563113,0.248907709 43.7943842,0.066400757 43.1157895,0.00261703916 L31.0701755,0 L18.7894737,0 Z" id="Shape"></path>
                <path d="M18.1516488,26.8246278 C18.1505016,26.2147796 17.9113918,25.6303864 17.4869457,25.2000683 C17.0624996,24.7697503 16.4875036,24.5287753 15.8885098,24.5301799 C15.2895161,24.5287753 14.7145201,24.7697503 14.290074,25.2000683 C13.8656278,25.6303863 13.626518,26.2147796 13.6253708,26.8246278 C13.6267474,27.4343231 13.8659584,28.0184899 14.2903796,28.4486173 C14.7148009,28.8787447 15.2896658,29.1195988 15.8885098,29.1181939 C16.4873539,29.1195988 17.0622188,28.8787447 17.48664,28.4486173 C17.9110612,28.0184899 18.1502722,27.4343231 18.1516488,26.8246278 L18.1516488,26.8246278 Z M12.7592633,26.8246278 C12.7604109,25.9809115 13.0907711,25.1722288 13.6776438,24.5765409 C14.2645165,23.980853 15.0598101,23.646974 15.8885098,23.6483783 C16.7172096,23.646974 17.5125032,23.980853 18.0993759,24.5765409 C18.6862486,25.1722288 19.0166088,25.9809115 19.0177564,26.8246278 C19.0163793,27.6681913 18.6859178,28.4766475 18.09907,29.0721447 C17.5122222,29.6676419 16.7170597,30.0014 15.8885098,29.9999956 C15.0599599,30.0014 14.2647974,29.667642 13.6779496,29.0721447 C13.0911018,28.4766475 12.7606404,27.6681913 12.7592633,26.8246278 L12.7592633,26.8246278 Z M46.3140016,26.8246278 C46.3128544,26.2147796 46.0737446,25.6303864 45.6492985,25.2000683 C45.2248523,24.7697503 44.6498564,24.5287753 44.0508626,24.5301799 C43.4518689,24.5287753 42.8768729,24.7697503 42.4524268,25.2000683 C42.0279806,25.6303864 41.7888709,26.2147796 41.7877236,26.8246278 C41.7891003,27.4343231 42.0283112,28.0184899 42.4527325,28.4486173 C42.8771537,28.8787447 43.4520186,29.1195988 44.0508626,29.1181939 C44.6497067,29.1195988 45.2245716,28.8787447 45.6489928,28.4486173 C46.073414,28.0184899 46.312625,27.4343231 46.3140016,26.8246278 L46.3140016,26.8246278 Z M40.9216161,26.8246278 C40.9227637,25.9809115 41.2531239,25.1722288 41.8399966,24.5765409 C42.4268693,23.980853 43.2221629,23.646974 44.0508626,23.6483783 C44.8795624,23.646974 45.674856,23.980853 46.2617287,24.5765409 C46.8486014,25.1722288 47.1789616,25.9809115 47.1801092,26.8246278 C47.1787321,27.6681913 46.8482707,28.4766475 46.2614228,29.0721447 C45.674575,29.667642 44.8794125,30.0014 44.0508626,29.9999956 C43.2223127,30.0014 42.4271502,29.6676419 41.8403024,29.0721447 C41.2534546,28.4766475 40.9229932,27.6681913 40.9216161,26.8246278 L40.9216161,26.8246278 Z M20.5784821,6.7936215 L39.3669531,6.7936215 C40.0840901,6.7936215 40.9865741,7.34122034 41.3330172,7.98581734 L47.0086199,18.5797824 L47.3507324,17.9925025 L12.5947028,17.9925025 L12.9368153,18.5797824 L18.6132842,7.98581734 C18.957995,7.34210215 19.8648096,6.7936215 20.5784821,6.7936215 Z M12.2525903,18.1988441 C12.1865025,18.3218176 12.1890457,18.4711675 12.2592807,18.5917348 C12.3295156,18.712302 12.4570199,18.7861954 12.5947028,18.786124 L47.3515985,18.786124 C47.4891269,18.7858842 47.6163509,18.7118673 47.6863756,18.5913558 C47.7564003,18.4708444 47.7588588,18.3216797 47.6928449,18.1988441 L42.016376,7.60576081 C41.5348203,6.70632312 40.3699056,6 39.3669531,6 L20.5784821,6 C19.5798601,6 18.4097488,6.70808673 17.9281931,7.60576081 L12.2525903,18.1988441 Z M50.7025686,13.9776596 C50.9632669,13.9732506 51.253413,13.9661961 51.5660778,13.9556145 C52.4444578,13.9281511 53.321718,13.8713914 54.1964464,13.7854268 C55.7519755,13.6267025 56.9376768,13.3859706 57.6842615,13.0050324 C59.0180671,12.3260451 59.3991544,10.8305095 58.5434401,9.61009595 C57.7440229,8.47080826 56.0646404,7.8076934 53.8326812,7.8076934 C52.3256541,7.8076934 52.1004661,8.26534843 52.1004661,10.4530984 L52.1004661,12.2167016 L53.8326812,12.2167016 L53.8326812,10.4530984 C53.8326812,9.59775075 53.8482711,9.30675621 53.8500034,9.30411079 C53.7824078,9.4382144 53.6627268,9.53735714 53.5200164,9.57746933 C53.5347402,9.57482391 53.6118238,9.57129673 53.8326812,9.57129668 C56.9428734,9.57129668 57.8947256,10.9266258 56.9099613,11.428371 C56.4093512,11.6823299 55.376951,11.8930805 54.0232249,12.0306415 C53.1870911,12.112895 52.34854,12.1673018 51.5089147,12.1937748 C51.128807,12.2064444 50.7485537,12.2140874 50.368251,12.2167016 L50.368251,13.980305 C50.4306108,13.980305 50.5440709,13.980305 50.7025686,13.9776596 L50.7025686,13.9776596 Z M9.32254857,12.2140563 C9.07137737,12.210529 8.79249075,12.2034746 8.49108533,12.1937748 C7.65117097,12.167321 6.81233071,12.1129142 5.97590901,12.0306415 C4.62218291,11.8930804 3.59064884,11.6823298 3.09003867,11.428371 C2.10527442,10.9266258 3.0562605,9.57129668 6.1673188,9.57129668 C6.38817624,9.57129668 6.46525982,9.57482391 6.47911748,9.57746933 C6.33673113,9.53713919 6.21739757,9.43802409 6.14999663,9.30411079 C6.15086275,9.30587441 6.1673188,9.59686894 6.1673188,10.4530984 L6.1673188,12.2167016 L7.89953386,12.2167016 L7.89953386,10.4530984 C7.89953386,8.26534849 7.6743459,7.8076934 6.1673188,7.8076934 C3.93535968,7.8076934 2.25597713,8.47080826 1.45655987,9.61009595 C0.600845603,10.8305094 0.981932947,12.3260451 2.31573855,13.0050324 C3.06232324,13.3859706 4.24715836,13.6267025 5.80355362,13.7854268 C6.64367795,13.8709616 7.53836702,13.9256333 8.43305609,13.9556145 C8.83249699,13.969187 9.23209574,13.9774178 9.63174897,13.980305 L9.63174897,12.2167016 C9.57718418,12.2167016 9.47151906,12.2167016 9.32254857,12.2140563 L9.32254857,12.2140563 Z" id="Shape"></path>
            </g>
        </g>
    </g>
</svg>