<?xml version="1.0" encoding="UTF-8" standalone="no"?>
<svg width="90px" height="100px" viewBox="0 0 90 100" version="1.1" xmlns="http://www.w3.org/2000/svg" xmlns:xlink="http://www.w3.org/1999/xlink">
    <!-- Generator: Sketch 46 (44423) - http://www.bohemiancoding.com/sketch -->
    <title>daintiguzhang</title>
    <desc>Created with Sketch.</desc>
    <defs></defs>
    <g id="Page-1" stroke="none" stroke-width="1" fill="none" fill-rule="evenodd">
        <g id="Group-16-Copy-5">
            <g id="daintiguzhang">
                <path d="M15,85 L75,85 L75,15 L15,15 L15,85 Z M20,20 L70,20 L70,80 L20,80 L20,20 Z M80,0 L90,0 L90,100 L80,100 L80,0 Z M0,0 L10,0 L10,100 L0,100 L0,0 Z" id="Shape" fill="#56E4FF" fill-rule="nonzero" opacity="0.5"></path>
                <g id="故障" transform="translate(32.000000, 39.000000)" fill-rule="nonzero" fill="#F37B7B">
                    <path d="M25.3295716,22 L0.670348145,22 C-0.223449382,21.1163114 -0.223449382,19.6831931 0.670348145,18.7994138 L11.3817114,0.662859427 C12.2755089,-0.220953142 13.7244356,-0.220953142 14.6182393,0.662859427 L25.3296025,18.7994138 C26.223471,19.6832112 26.223471,21.1163235 25.3295716,22 Z M14.5802837,7.17361051 C14.5802837,6.47274259 14.0056707,5.90446697 13.2968864,5.90446697 C12.5879756,5.90446697 12.0134891,6.47274259 12.0134891,7.17361051 L12.0134891,13.096605 C12.0134891,13.7975969 12.5879756,14.3658725 13.2968864,14.3658725 C14.0057047,14.3658725 14.5802837,13.7975969 14.5802837,13.096605 L14.5802837,7.17361051 Z M13.3044528,16.0656635 C12.5956346,16.0656635 12.0211481,16.6339392 12.0211481,17.3349311 C12.0211481,18.035923 12.5956346,18.6040746 13.3044528,18.6040746 C14.0133637,18.6040746 14.5879767,18.0358897 14.5879767,17.3349311 C14.5879674,16.6339119 14.0133575,16.0656635 13.3044528,16.0656635 Z" id="Shape"></path>
                </g>
                <g id="Group-18" transform="translate(39.000000, 0.000000)" fill="#56E4FF" opacity="0.5">
                    <polygon id="Path" points="3.45032162 13.6019071 6.66360193 13.6019071 6.66360193 6.791268 10.1139234 10.0517588 10.1139234 5.39670435 5.05696171 0 0 5.39670435 0 10.0517588 3.45032162 6.791268"></polygon>
                    <polygon id="Path-Copy-2" transform="translate(5.056962, 92.800954) scale(1, -1) translate(-5.056962, -92.800954) " points="3.45032162 99.6019071 6.66360193 99.6019071 6.66360193 92.791268 10.1139234 96.0517588 10.1139234 91.3967043 5.05696171 86 0 91.3967043 0 96.0517588 3.45032162 92.791268"></polygon>
                </g>
            </g>
        </g>
    </g>
</svg>