<?xml version="1.0" encoding="UTF-8" standalone="no"?>
<svg width="90px" height="100px" viewBox="0 0 90 100" version="1.1" xmlns="http://www.w3.org/2000/svg" xmlns:xlink="http://www.w3.org/1999/xlink">
    <!-- Generator: Sketch 46 (44423) - http://www.bohemiancoding.com/sketch -->
    <title>daintijianxiu</title>
    <desc>Created with Sketch.</desc>
    <defs></defs>
    <g id="Page-1" stroke="none" stroke-width="1" fill="none" fill-rule="evenodd">
        <g id="Group-16-Copy-4">
            <g id="daintijianxiu">
                <path d="M15,85 L75,85 L75,15 L15,15 L15,85 Z M20,20 L70,20 L70,80 L20,80 L20,20 Z M80,0 L90,0 L90,100 L80,100 L80,0 Z M0,0 L10,0 L10,100 L0,100 L0,0 Z" id="Shape" fill="#56E4FF" fill-rule="nonzero" opacity="0.5"></path>
                <g id="检修" transform="translate(33.000000, 37.000000)" fill-rule="nonzero" fill="#19FFD0">
                    <path d="M16.5988195,13.8078862 L15.2153921,15.1979286 L12.9843268,13.1255312 L15.1784139,10.7912478 C18.2216857,11.9872768 20.2876771,11.2202187 21.91819,9.94340402 C23.5487028,8.66658929 23.6071032,5.61980134 23.6071032,5.61980134 L22.2542915,5.09536161 L19.6545536,7.71184375 L15.8634295,3.97483705 L18.4809999,1.34187277 L17.9465237,0 C15.0557176,0.116071429 13.5807057,1.72360268 13.5807057,1.72360268 C10.6873313,4.941625 12.5869939,8.33775893 12.5869939,8.33775893 L10.3099904,10.5464821 L7.03291267,7.38527679 L6.83839054,5.17147545 L3.77051528,3.2049933 L1.1746298,5.78978795 L3.14865735,8.84574554 L5.23685902,9.02646875 L8.59621103,12.2092344 L0.0112327604,20.5355603 C-0.214663911,24.2020826 3.04148776,23.7037589 3.04148776,23.7037589 L11.3738645,14.8390357 L13.4786436,16.8714754 L11.7584726,18.6280714 L19.160908,26 C22.9567893,25.0230558 24,21.1798437 24,21.1798437 L16.5988195,13.8078862 L16.5988195,13.8078862 Z M2.5136367,22.1889978 C1.94947874,22.1889978 1.49214013,21.7342879 1.49214013,21.1733728 C1.49214013,20.6124576 1.94947874,20.1577478 2.5136367,20.1577478 C3.07779467,20.1577478 3.53513328,20.6124576 3.53513328,21.1733728 C3.53513328,21.7342879 3.07779467,22.1889978 2.5136367,22.1889978 Z M19.3809676,24.1089643 L13.7675812,18.5189643 L14.5999258,17.6907656 L20.4129418,23.4818013 C20.046925,23.9669509 19.3809676,24.1089643 19.3809676,24.1089643 L19.3809676,24.1089643 Z M21.3588185,22.5381987 L15.5458025,16.7490781 L16.3781471,15.9189933 L21.9908913,21.5089933 C21.9908913,21.5089643 21.9386783,22.0652366 21.3588185,22.5381987 L21.3588185,22.5381987 Z" id="Shape"></path>
                </g>
                <g id="Group-18" transform="translate(39.000000, 0.000000)" fill="#56E4FF" opacity="0.5">
                    <polygon id="Path" points="3.45032162 13.6019071 6.66360193 13.6019071 6.66360193 6.791268 10.1139234 10.0517588 10.1139234 5.39670435 5.05696171 0 0 5.39670435 0 10.0517588 3.45032162 6.791268"></polygon>
                    <polygon id="Path-Copy-2" transform="translate(5.056962, 92.800954) scale(1, -1) translate(-5.056962, -92.800954) " points="3.45032162 99.6019071 6.66360193 99.6019071 6.66360193 92.791268 10.1139234 96.0517588 10.1139234 91.3967043 5.05696171 86 0 91.3967043 0 96.0517588 3.45032162 92.791268"></polygon>
                </g>
            </g>
        </g>
    </g>
</svg>