<?xml version="1.0" encoding="UTF-8" standalone="no"?>
<svg width="90px" height="100px" viewBox="0 0 90 100" version="1.1" xmlns="http://www.w3.org/2000/svg" xmlns:xlink="http://www.w3.org/1999/xlink">
    <!-- Generator: Sketch 46 (44423) - http://www.bohemiancoding.com/sketch -->
    <title>daintizhuting</title>
    <desc>Created with Sketch.</desc>
    <defs></defs>
    <g id="Page-1" stroke="none" stroke-width="1" fill="none" fill-rule="evenodd">
        <g id="Group-16-Copy-6">
            <g id="daintizhuting">
                <path d="M15,85 L75,85 L75,15 L15,15 L15,85 Z M20,20 L70,20 L70,80 L20,80 L20,20 Z M80,0 L90,0 L90,100 L80,100 L80,0 Z M0,0 L10,0 L10,100 L0,100 L0,0 Z" id="Shape" fill="#56E4FF" fill-rule="nonzero" opacity="0.5"></path>
                <g id="停止" transform="translate(32.000000, 37.000000)" fill-rule="nonzero" fill="#F37B7B">
                    <path d="M8.66666667,8.55087622 C8.66666667,8.43259088 8.7117532,8.31433178 8.80192626,8.22415462 C8.89209932,8.13395122 9.01035304,8.08888889 9.1286855,8.08888889 L17.4484362,8.08888889 C17.5667162,8.08888889 17.6849961,8.13397747 17.7751954,8.22415462 C17.8653947,8.31433178 17.9111111,8.43259088 17.9111111,8.55087622 L17.9111111,16.8706899 C17.9111111,16.9889752 17.8653947,17.1072343 17.7751954,17.1974115 C17.6850224,17.2875886 17.5667686,17.3333333 17.4484362,17.3333333 L9.12871174,17.3333333 C9.01043177,17.3333333 8.8921518,17.2882448 8.8019525,17.1974115 C8.7117532,17.1072343 8.66669291,16.9889752 8.66669291,16.8706899 L8.66669291,8.55087622 L8.66666667,8.55087622 Z" id="Shape"></path>
                    <path d="M13,0 C5.82015248,0 0,5.82031946 0,12.9996813 C0,20.179706 5.82015248,26 13,26 C20.1798475,26 26,20.1796805 26,13.0003187 C26,5.82031946 20.1798475,1.74344047e-15 13,0 Z M13,23.0114374 C7.47121075,23.0114374 2.9884741,18.5292818 2.9884741,13.0003187 C2.9884741,7.47074367 7.47118526,2.98858809 13,2.98858809 C18.529452,2.98858809 23.0115769,7.47074367 23.0115769,13.0003187 C23.0115514,18.5292563 18.5294775,23.0114374 13,23.0114374 Z" id="Shape"></path>
                </g>
                <g id="Group-18" transform="translate(39.000000, 0.000000)" fill="#56E4FF" opacity="0.5">
                    <polygon id="Path" points="3.45032162 13.6019071 6.66360193 13.6019071 6.66360193 6.791268 10.1139234 10.0517588 10.1139234 5.39670435 5.05696171 0 0 5.39670435 0 10.0517588 3.45032162 6.791268"></polygon>
                    <polygon id="Path-Copy-2" transform="translate(5.056962, 92.800954) scale(1, -1) translate(-5.056962, -92.800954) " points="3.45032162 99.6019071 6.66360193 99.6019071 6.66360193 92.791268 10.1139234 96.0517588 10.1139234 91.3967043 5.05696171 86 0 91.3967043 0 96.0517588 3.45032162 92.791268"></polygon>
                </g>
            </g>
        </g>
    </g>
</svg>