<?xml version="1.0" encoding="UTF-8" standalone="no"?>
<svg width="90px" height="100px" viewBox="0 0 90 100" version="1.1" xmlns="http://www.w3.org/2000/svg" xmlns:xlink="http://www.w3.org/1999/xlink">
    <!-- Generator: Sketch 46 (44423) - http://www.bohemiancoding.com/sketch -->
    <title>daintixia</title>
    <desc>Created with Sketch.</desc>
    <defs></defs>
    <g id="Page-1" stroke="none" stroke-width="1" fill="none" fill-rule="evenodd">
        <g id="Artboard" transform="translate(-1225.000000, -880.000000)">
            <g id="Group-16-Copy" transform="translate(1225.000000, 851.000000)">
                <g id="daintixia" transform="translate(0.000000, 29.000000)">
                    <path d="M15,85 L75,85 L75,15 L15,15 L15,85 Z M20,20 L70,20 L70,80 L20,80 L20,20 Z M80,0 L90,0 L90,100 L80,100 L80,0 Z M0,0 L10,0 L10,100 L0,100 L0,0 Z" id="Shape" fill="#56E4FF" fill-rule="nonzero" opacity="0.5"></path>
                    <g id="Group-18" transform="translate(39.000000, 0.000000)">
                        <polygon id="Path" fill="#56E4FF" opacity="0.5" points="3.45032162 13.6019071 6.66360193 13.6019071 6.66360193 6.791268 10.1139234 10.0517588 10.1139234 5.39670435 5.05696171 0 0 5.39670435 0 10.0517588 3.45032162 6.791268"></polygon>
                        <polygon id="Path-Copy-2" fill="#19FFD0" transform="translate(5.056962, 92.800954) scale(1, -1) translate(-5.056962, -92.800954) " points="3.45032162 99.6019071 6.66360193 99.6019071 6.66360193 92.791268 10.1139234 96.0517588 10.1139234 91.3967043 5.05696171 86 0 91.3967043 0 96.0517588 3.45032162 92.791268"></polygon>
                    </g>
                    <path d="M58.4184471,31.9843731 C58.4184471,32.8375681 59.1100984,33.5292194 59.9632934,33.5292194 C60.8164885,33.5292194 61.5081397,32.8375681 61.5081397,31.9843731 C61.5081397,31.131178 60.8164885,30.4395268 59.9632934,30.4395268 C59.1100984,30.4395268 58.4184471,31.131178 58.4184471,31.9843731 Z" id="Shape" fill="#56E4FF" fill-rule="nonzero" opacity="0.5"></path>
                    <path d="M58.4184471,37.5458198 C58.4184471,38.3990149 59.1100984,39.0906661 59.9632934,39.0906661 C60.8164885,39.0906661 61.5081397,38.3990149 61.5081397,37.5458198 C61.5081397,36.6926247 60.8164885,36.0009735 59.9632934,36.0009735 C59.1100984,36.0009735 58.4184471,36.6926247 58.4184471,37.5458198 Z" id="Shape" fill="#56E4FF" fill-rule="nonzero" opacity="0.5"></path>
                    <path d="M58.4184471,43.1072665 C58.4184471,43.9604616 59.1100984,44.6521129 59.9632934,44.6521129 C60.8164885,44.6521129 61.5081397,43.9604616 61.5081397,43.1072665 C61.5081397,42.2540715 60.8164885,41.5624202 59.9632934,41.5624202 C59.1100984,41.5624202 58.4184471,42.2540715 58.4184471,43.1072665 Z" id="Shape" fill="#56E4FF" fill-rule="nonzero" opacity="0.5"></path>
                    <path d="M58.4184471,48.6687133 C58.4184471,49.5219083 59.1100984,50.2135596 59.9632934,50.2135596 C60.8164885,50.2135596 61.5081397,49.5219083 61.5081397,48.6687133 C61.5081397,47.8155182 60.8164885,47.123867 59.9632934,47.123867 C59.1100984,47.123867 58.4184471,47.8155182 58.4184471,48.6687133 Z" id="Shape" fill="#56E4FF" fill-rule="nonzero" opacity="0.5"></path>
                    <path d="M34.9367831,29.6980005 C34.9367831,31.506774 36.4030838,32.9730747 38.2118573,32.9730747 C40.0206309,32.9730747 41.4869315,31.506774 41.4869315,29.6980005 C41.4869315,27.8892269 40.0206309,26.4229263 38.2118573,26.4229263 C36.4030838,26.4229263 34.9367831,27.8892269 34.9367831,29.6980005 Z" id="Shape" fill="#56E4FF" fill-rule="nonzero" opacity="0.5"></path>
                    <path d="M53.6728028,38.4173603 C53.3391159,38.1247046 52.7583773,38.2412478 52.3756262,38.677636 L49.2803722,42.2069301 L44.5441205,36.4593603 C44.5168076,36.4262388 44.488506,36.394971 44.4598337,36.3640742 C43.941754,35.4515025 42.9982855,34.8134192 41.8989729,34.717268 L41.8989729,34.703179 L33.6392359,34.703179 C31.8305298,34.703179 30.3641617,36.1694236 30.3641616,37.9782531 L30.3641616,53.1795409 C30.3641616,53.8962261 30.9451473,54.4772118 31.6618325,54.4772118 C32.3785176,54.4772118 32.9595034,53.8962261 32.9595034,53.1795409 L32.9595034,41.1822644 L32.9661772,41.1835002 L32.9661772,40.267221 C32.9661772,39.9600708 33.2151716,39.7110763 33.5223219,39.7110763 C33.8294721,39.7110763 34.0784665,39.9600708 34.0784665,40.267221 L34.0784665,42.2137274 L34.0717928,42.2137274 L34.0717928,72.2738413 C34.0717928,73.1953112 34.8187569,73.9422754 35.7402268,73.9422754 C36.6616967,73.9422754 37.4086609,73.1953112 37.4086609,72.2738413 L37.4153345,72.2738413 L37.4153345,54.2499341 C37.4153345,53.7455934 37.8241834,53.3367445 38.3285241,53.3367445 C38.8328648,53.3367445 39.2417136,53.7455934 39.2417136,54.2499341 L39.2417136,57.4460356 L39.2120527,57.4460356 L39.2120527,72.3332871 L39.2037722,72.3332871 C39.2352871,73.2270733 39.9677914,73.942399 40.8692401,73.9423989 C41.79071,73.9423989 42.5376742,73.1954348 42.5376742,72.273965 L42.5376742,41.1179988 L42.5443479,41.1157743 L42.5443479,39.5772309 C42.5443479,39.5772309 43.0149699,39.6007126 43.7071847,40.4407382 C43.8215033,40.5795272 43.8966446,40.6960704 43.9434843,40.7948169 L47.5618851,45.1857645 C48.0841668,45.8195222 48.8646232,46.0388905 49.3050897,45.6759134 L49.8564145,45.221605 C49.9962214,45.1466588 50.1212934,45.0470032 50.225571,44.9274662 L54.2587321,40.3288913 C54.6414832,39.8925031 54.681155,39.3015068 54.3475917,39.0088511 L53.6728028,38.4173603 L53.6728028,38.4173603 Z" id="Shape" fill="#56E4FF" fill-rule="nonzero" opacity="0.5"></path>
                </g>
            </g>
        </g>
    </g>
</svg>