<?xml version="1.0" encoding="UTF-8" standalone="no"?>
<svg width="480px" height="260px" viewBox="0 0 480 260" version="1.1" xmlns="http://www.w3.org/2000/svg" xmlns:xlink="http://www.w3.org/1999/xlink">
    <!-- Generator: Sketch 46 (44423) - http://www.bohemiancoding.com/sketch -->
    <title>dikuang</title>
    <desc>Created with Sketch.</desc>
    <defs></defs>
    <g id="Page-1" stroke="none" stroke-width="1" fill="none" fill-rule="evenodd">
        <g id="Artboard" transform="translate(-30.000000, -790.000000)">
            <g id="model01" transform="translate(30.000000, 790.000000)">
                <g id="dikuang">
                    <rect id="Rectangle-3-Copy-7" fill="#000731" opacity="0.4" x="0" y="0" width="480" height="260"></rect>
                    <path d="M0,260 L480,260 L480,0 L0,0 L0,260 Z M1.337,259.077 L478.664,259.077 L478.664,0.922 L1.337,0.922 L1.337,259.077 Z" id="Fill-1" fill="#97FFFA" opacity="0.3"></path>
                    <path d="M0,46.018 L480,46.018 L480,0 L0,0 L0,46.018 Z M1.337,45.018 L478.664,45.018 L478.664,1 L1.337,1 L1.337,45.018 Z" id="Fill-2" fill="#97FFFA" opacity="0.2"></path>
                    <polygon id="Fill-3" fill="#97FFFA" opacity="0.276702425" points="318.2445 45.1331 318.8845 45.9021 372.9185 0.8851 372.2785 0.1161"></polygon>
                    <polygon id="Fill-4" fill="#97FFFA" opacity="0.276702425" points="331.038 45.1331 331.678 45.9021 385.712 0.8851 385.072 0.1161"></polygon>
                    <polygon id="Fill-5" fill="#97FFFA" opacity="0.276702425" points="343.8315 45.1331 344.4715 45.9021 398.5055 0.8851 397.8655 0.1161"></polygon>
                    <polygon id="Fill-6" fill="#97FFFA" opacity="0.276702425" points="356.625 45.1331 357.265 45.9021 411.299 0.8851 410.659 0.1161"></polygon>
                    <polygon id="Fill-7" fill="#97FFFA" opacity="0.276702425" points="369.4185 45.1331 370.0585 45.9021 424.0925 0.8851 423.4525 0.1161"></polygon>
                    <polygon id="Fill-8" fill="#97FFFA" opacity="0.276702425" points="382.212 45.1331 382.852 45.9021 436.886 0.8851 436.246 0.1161"></polygon>
                    <polygon id="Fill-9" fill="#97FFFA" opacity="0.276702425" points="395.0064 45.1331 395.6464 45.9021 449.6794 0.8851 449.0404 0.1161"></polygon>
                    <polygon id="Fill-10" fill="#97FFFA" opacity="0.276702425" points="407.799 45.1331 408.439 45.9021 462.473 0.8851 461.833 0.1161"></polygon>
                    <polygon id="Fill-11" fill="#97FFFA" opacity="0.276702425" points="420.5934 45.1331 421.2324 45.9021 475.2664 0.8851 474.6274 0.1161"></polygon>
                    <polygon id="Fill-12" fill="#97FFFA" opacity="0.276702425" points="433.386 45.1331 434.026 45.9021 479.367 8.1281 478.727 7.3591"></polygon>
                    <polygon id="Fill-13" fill="#97FFFA" opacity="0.276702425" points="446.1804 45.1331 446.8194 45.9021 479.3674 18.7851 478.7274 18.0171"></polygon>
                    <polygon id="Fill-14" fill="#97FFFA" opacity="0.276702425" points="458.973 45.1331 459.613 45.9021 479.368 29.4431 478.728 28.6761"></polygon>
                    <polygon id="Fill-15" fill="#97FFFA" opacity="0.276702425" points="471.7674 45.1331 472.4064 45.9021 479.3674 40.1031 478.7274 39.3341"></polygon>
                </g>
            </g>
        </g>
    </g>
</svg>