<?xml version="1.0" encoding="UTF-8" standalone="no"?>
<svg width="360px" height="260px" viewBox="0 0 360 260" version="1.1" xmlns="http://www.w3.org/2000/svg" xmlns:xlink="http://www.w3.org/1999/xlink">
    <!-- Generator: Sketch 46 (44423) - http://www.bohemiancoding.com/sketch -->
    <title>dikuang02</title>
    <desc>Created with Sketch.</desc>
    <defs></defs>
    <g id="Page-1" stroke="none" stroke-width="1" fill="none" fill-rule="evenodd">
        <g id="Artboard" transform="translate(-1530.000000, -790.000000)">
            <g id="dikuang02" transform="translate(1530.000000, 790.000000)">
                <rect id="Rectangle-3-Copy-7" fill="#000731" opacity="0.4" x="0" y="0" width="360" height="260"></rect>
                <path d="M0,260 L360,260 L360,0 L0,0 L0,260 Z M1,259 L359,259 L359,1 L1,1 L1,259 Z" id="Fill-1" fill="#97FFFA" opacity="0.3"></path>
                <path d="M0,46.018 L360,46.018 L360,0 L0,0 L0,46.018 Z M1.00275,45.018 L358.998,45.018 L358.998,1 L1.00275,1 L1.00275,45.018 Z" id="Fill-2" fill="#97FFFA" opacity="0.2"></path>
                <polygon id="Fill-3" fill="#97FFFA" opacity="0.276702425" points="198.2445 45.1331 198.8845 45.9021 252.9185 0.8851 252.2785 0.1161"></polygon>
                <polygon id="Fill-4" fill="#97FFFA" opacity="0.276702425" points="211.038 45.1331 211.678 45.9021 265.712 0.8851 265.072 0.1161"></polygon>
                <polygon id="Fill-5" fill="#97FFFA" opacity="0.276702425" points="223.8315 45.1331 224.4715 45.9021 278.5055 0.8851 277.8655 0.1161"></polygon>
                <polygon id="Fill-6" fill="#97FFFA" opacity="0.276702425" points="236.625 45.1331 237.265 45.9021 291.299 0.8851 290.659 0.1161"></polygon>
                <polygon id="Fill-7" fill="#97FFFA" opacity="0.276702425" points="249.4185 45.1331 250.0585 45.9021 304.0925 0.8851 303.4525 0.1161"></polygon>
                <polygon id="Fill-8" fill="#97FFFA" opacity="0.276702425" points="262.212 45.1331 262.852 45.9021 316.886 0.8851 316.246 0.1161"></polygon>
                <polygon id="Fill-9" fill="#97FFFA" opacity="0.276702425" points="275.0064 45.1331 275.6464 45.9021 329.6794 0.8851 329.0404 0.1161"></polygon>
                <polygon id="Fill-10" fill="#97FFFA" opacity="0.276702425" points="287.799 45.1331 288.439 45.9021 342.473 0.8851 341.833 0.1161"></polygon>
                <polygon id="Fill-11" fill="#97FFFA" opacity="0.276702425" points="300.5934 45.1331 301.2324 45.9021 355.2664 0.8851 354.6274 0.1161"></polygon>
                <polygon id="Fill-12" fill="#97FFFA" opacity="0.276702425" points="313.386 45.1331 314.026 45.9021 359.367 8.1281 358.727 7.3591"></polygon>
                <polygon id="Fill-13" fill="#97FFFA" opacity="0.276702425" points="326.1804 45.1331 326.8194 45.9021 359.3674 18.7851 358.7274 18.0171"></polygon>
                <polygon id="Fill-14" fill="#97FFFA" opacity="0.276702425" points="338.973 45.1331 339.613 45.9021 359.368 29.4431 358.728 28.6761"></polygon>
                <polygon id="Fill-15" fill="#97FFFA" opacity="0.276702425" points="351.7674 45.1331 352.4064 45.9021 359.3674 40.1031 358.7274 39.3341"></polygon>
            </g>
        </g>
    </g>
</svg>