<?xml version="1.0" encoding="UTF-8" standalone="no"?>
<svg width="32px" height="24px" viewBox="0 0 32 24" version="1.1" xmlns="http://www.w3.org/2000/svg" xmlns:xlink="http://www.w3.org/1999/xlink">
    <!-- Generator: Sketch 46 (44423) - http://www.bohemiancoding.com/sketch -->
    <title>lengji</title>
    <desc>Created with Sketch.</desc>
    <defs></defs>
    <g id="Page-1" stroke="none" stroke-width="1" fill="none" fill-rule="evenodd">
        <g id="Artboard" transform="translate(-1559.000000, -342.000000)" fill-rule="nonzero" fill="#56E4FF">
            <g id="底框-copy-5" transform="translate(1530.000000, 230.000000)">
                <g id="Group-13-Copy" transform="translate(30.000000, 104.000000)">
                    <g id="lengji" transform="translate(0.000000, 9.000000)">
                        <path d="M29.4952889,22.2182456 L22.5367298,22.2182456 C22.3713674,22.2182456 22.2373146,22.0841929 22.2373146,21.9188304 L22.2373146,21.0428912 C22.2371952,20.9634448 22.2687023,20.887218 22.3248794,20.8310408 C22.3810566,20.7748637 22.4572834,20.7433566 22.5367298,20.743476 L22.5374784,20.743476 L24.2865123,20.7473684 L24.2868117,20.3259415 L7.42000468,20.3259415 L7.42000468,20.6307462 L9.06124912,20.6307462 C9.22661157,20.6307462 9.36066433,20.764799 9.36066433,20.9301614 L9.36066433,21.9188304 C9.36066433,22.0841929 9.22661157,22.2182456 9.06124912,22.2182456 L2.2690152,22.2182456 C2.10365275,22.2182456 1.9696,22.0841929 1.9696,21.9188304 L1.9696,20.9301614 C1.9696,20.764799 2.10365275,20.6307462 2.2690152,20.6307462 L3.91010994,20.6307462 L3.91010994,20.3259415 L1.29876023,20.3259415 C1.13339778,20.3259415 0.999345029,20.1918888 0.999345029,20.0265263 L0.999345029,18.1307789 L0.33494269,18.1264374 C0.170340782,18.1253675 0.0374702069,17.9916276 0.0374736842,17.8270222 L0.0374736842,14.9454503 C0.0374702069,14.7808449 0.170340782,14.647105 0.33494269,14.6460351 L0.999345029,14.6416936 L0.999345029,12.3814082 L0.328505263,12.3814082 C0.16322807,12.3814082 0.0290900585,12.2480187 0.0290900585,12.0834901 L0.0290900585,8.66626433 C0.0290900585,8.50090188 0.163142812,8.36684912 0.328505263,8.36684912 L0.999345029,8.36684912 L0.999345029,7.06484211 C0.999345029,6.89947965 1.13339778,6.7654269 1.29876023,6.7654269 L7.3436538,6.7654269 L7.3436538,1.35574269 C7.3436538,1.19038024 7.47770655,1.05632749 7.64306901,1.05632749 L14.9844304,1.05632749 L14.9844304,0.303148538 C14.9844304,0.137786087 15.1184832,0.00373333333 15.2838456,0.00373333333 L25.9573988,0.00373333333 C26.1227613,0.00373333333 26.256814,0.137786087 26.256814,0.303148538 L26.256814,6.7654269 L28.4676959,6.7654269 C28.6330584,6.7654269 28.7671111,6.89947965 28.7671111,7.06484211 L28.7671111,8.36669942 L29.6791298,8.36669942 C29.7588766,8.36661763 29.8353544,8.39838387 29.8915751,8.45494181 C29.9477957,8.51149975 29.9791039,8.58816623 29.978545,8.66791111 L29.9584842,12.018517 C29.9580351,12.0975626 29.925848,12.1733146 29.8692585,12.2288561 C29.812669,12.2843977 29.7306292,12.3132912 29.6566737,12.3146386 L28.7457029,12.3076023 L28.7353731,14.6201357 L29.6638596,14.629717 C29.827993,14.6314405 29.96014,14.7649897 29.960131,14.9291322 L29.9599813,17.7705825 C29.9599813,17.9358865 29.8260198,18.069915 29.6607158,18.0699977 L28.7433076,18.0702971 L28.7669614,20.0250292 C28.7679622,20.1050856 28.7368591,20.182208 28.680599,20.2391714 C28.6243389,20.2961347 28.5476088,20.3281934 28.4675462,20.3281871 L27.7983532,20.3281871 L27.8011977,20.7764117 L29.5003789,20.8087485 C29.6636818,20.8116855 29.7945673,20.9448345 29.7947041,21.1081637 L29.7947041,21.918531 C29.7947836,21.9979927 29.7632732,22.0742271 29.7071133,22.1304431 C29.6509535,22.1866591 29.5747506,22.2182457 29.4952889,22.2182456 Z M22.8359953,21.6194152 L29.195724,21.6194152 L29.195724,21.4027883 L27.4983392,21.3704515 C27.3356645,21.3676884 27.2049668,21.2355281 27.204014,21.0728327 L27.1977263,20.0308678 C27.1973282,19.9511714 27.2286882,19.8745981 27.284874,19.8180752 C27.3410598,19.7615523 27.4174441,19.7297348 27.4971415,19.7296561 L28.1643883,19.7296561 L28.1407345,17.7750737 C28.1398152,17.6950673 28.1709242,17.6180147 28.2271342,17.5610736 C28.2833443,17.5041324 28.3599884,17.4720304 28.44,17.4719158 L29.3610012,17.4716164 L29.3611509,15.2257029 L28.431317,15.2161216 C28.2666571,15.2143943 28.1342955,15.0800263 28.1350456,14.9153591 L28.1480702,12.0062409 C28.1484706,11.9268245 28.1805316,11.8508481 28.2371462,11.7951532 C28.2937357,11.7391626 28.3733801,11.7078737 28.4498807,11.7087719 L29.3613006,11.7158082 L29.3777684,8.96552982 L28.4675462,8.96552982 C28.3021837,8.96552982 28.168131,8.83147707 28.168131,8.66611462 L28.168131,7.36425731 L25.9572491,7.36425731 C25.7918867,7.36425731 25.6578339,7.23020456 25.6578339,7.06484211 L25.6578339,0.602563743 L15.5831111,0.602563743 L15.5831111,1.35574269 C15.5831111,1.43515254 15.5515657,1.51130997 15.4954144,1.56746121 C15.4392632,1.62361245 15.3631058,1.65515789 15.2836959,1.65515789 L7.94248421,1.65515789 L7.94248421,7.06484211 C7.94248421,7.23020456 7.80843146,7.36425731 7.64306901,7.36425731 L1.59817544,7.36425731 L1.59817544,8.66626433 C1.59817544,8.83162678 1.46412269,8.96567953 1.29876023,8.96567953 L0.627920468,8.96567953 L0.627920468,11.7851228 L1.29876023,11.7851228 C1.46403743,11.7851228 1.59817544,11.9189614 1.59817544,12.0833404 L1.59817544,14.9388632 C1.59817892,15.1034685 1.46530834,15.2372084 1.30070643,15.2382784 L0.636304094,15.2426199 L0.636304094,17.5294035 L1.30070643,17.533745 C1.46530834,17.534815 1.59817892,17.6685548 1.59817544,17.8331602 L1.59817544,19.7268117 L4.20967485,19.7268117 C4.2890847,19.7268117 4.36524213,19.7583571 4.42139338,19.8145084 C4.47754462,19.8706596 4.50909006,19.9468171 4.50909006,20.0262269 L4.50909006,20.929862 C4.50909006,21.0092718 4.47754462,21.0854293 4.42139338,21.1415805 C4.36524213,21.1977318 4.2890847,21.2292772 4.20967485,21.2292772 L2.56858012,21.2292772 L2.56858012,21.6191158 L8.76198363,21.6191158 L8.76198363,21.2292772 L7.12058947,21.2292772 C7.04117962,21.2292772 6.9650222,21.1977318 6.90887095,21.1415805 C6.85271971,21.0854293 6.82117427,21.0092718 6.82117427,20.929862 L6.82117427,20.0262269 C6.82117427,19.9468171 6.85271971,19.8706596 6.90887095,19.8145084 C6.9650222,19.7583571 7.04117962,19.7268117 7.12058947,19.7268117 L24.5863766,19.7268117 C24.7517533,19.7270594 24.8857094,19.8611495 24.8857918,20.0265263 L24.8848936,21.0475322 C24.8849334,21.1269267 24.8533912,21.2030765 24.7972227,21.2591889 C24.7410542,21.3153012 24.6648728,21.3467672 24.5854784,21.346648 L24.5847298,21.346648 L22.8359953,21.3427556 L22.8359953,21.6194152 L22.8359953,21.6194152 Z M15.2838456,7.36425731 L10.5873684,7.36425731 C10.422006,7.36425731 10.2879532,7.23020456 10.2879532,7.06484211 L10.2879532,3.78744327 C10.2879532,3.70764912 10.3198409,3.63114854 10.3764304,3.57500819 C10.4330199,3.51886784 10.5062269,3.48757895 10.589614,3.48802807 L15.3313029,3.48428538 C15.4958316,3.48548304 15.5834105,3.65674854 15.5834105,3.82127719 L15.5834105,7.06484211 C15.5834105,7.1442779 15.5518445,7.22045803 15.4956609,7.27661357 C15.4394773,7.33276912 15.3632814,7.36429703 15.2838456,7.36425731 L15.2838456,7.36425731 Z M10.8867836,6.7654269 L14.9844304,6.7654269 L15.0037427,4.0970386 L10.8867836,4.08895439 L10.8867836,6.7654269 L10.8867836,6.7654269 Z" id="Shape" stroke="#56E4FF"></path>
                        <path d="M18.6920889,13.5431392 C18.6920889,13.6172444 18.6281637,13.6780257 18.5494175,13.6780257 L17.7230316,13.6780257 L18.0824795,14.0205567 C18.1088369,14.0453933 18.1237791,14.0800043 18.1237791,14.1162199 C18.1237791,14.1524354 18.1088369,14.1870464 18.0824795,14.211883 C18.0262741,14.2650003 17.9383762,14.2650003 17.8821708,14.211883 L17.3222643,13.6780257 L16.078793,13.6780257 L15.8644117,14.1729591 L16.7424468,15.012669 L17.5352982,15.012669 C17.6132959,15.012669 17.6775205,15.0733006 17.6775205,15.1477053 C17.6775205,15.2228585 17.6131462,15.2836398 17.5352982,15.2836398 L17.0265918,15.2836398 L17.6112,15.8430971 C17.6374936,15.8680306 17.652385,15.9026741 17.652385,15.9389099 C17.652385,15.9751458 17.6374936,16.0097892 17.6112,16.0347228 C17.5550148,16.0877459 17.4672261,16.0877459 17.4110409,16.0347228 L16.8261333,15.4757146 L16.8261333,15.9621146 C16.8261333,16.0371181 16.7622082,16.0976 16.6840608,16.0976 C16.6051649,16.0976 16.5422877,16.0371181 16.5422877,15.9621146 L16.5422877,15.2042947 L15.6638035,14.363986 L15.1453661,14.5690854 L15.1453661,15.7564164 L15.7067696,16.2932678 C15.7328827,16.318362 15.7476417,16.3530142 15.7476417,16.3892304 C15.7476417,16.4254466 15.7328827,16.4600988 15.7067696,16.485193 C15.6501172,16.5380563 15.562215,16.5380563 15.5055626,16.485193 L15.1453661,16.1404164 L15.1453661,16.9316211 C15.1453661,17.0070737 15.0812912,17.0674058 15.0031439,17.0674058 C14.9251462,17.0674058 14.8616702,17.0070737 14.8616702,16.9316211 L14.8616702,16.1404164 L14.5008749,16.485193 C14.4445012,16.5380317 14.3567901,16.5380317 14.3004164,16.485193 C14.2739705,16.4602203 14.2589831,16.4254541 14.2589831,16.3890807 C14.2589831,16.3527074 14.2739705,16.3179412 14.3004164,16.2929684 L14.8616702,15.7564164 L14.8616702,14.5690854 L14.3423345,14.363986 L13.4657965,15.2030971 L13.4657965,15.9622643 C13.4657965,16.0369684 13.4009731,16.0980491 13.3228257,16.0980491 C13.2440795,16.0980491 13.1809029,16.0369684 13.1809029,15.9622643 L13.1809029,15.474517 L12.596145,16.0345731 C12.5396632,16.0872841 12.4520186,16.0872841 12.3955368,16.0345731 C12.3687734,16.0098083 12.3535579,15.974999 12.3535579,15.9385357 C12.3535579,15.9020724 12.3687734,15.867263 12.3955368,15.8424982 L12.9802947,15.2828912 L12.4702409,15.2822924 C12.3920936,15.2822924 12.3287673,15.2218105 12.3287673,15.1471064 C12.3287673,15.0719532 12.3920936,15.0113216 12.4702409,15.0113216 L13.2645895,15.0113216 L14.1420257,14.1722105 L13.9280936,13.6780257 L12.6861193,13.6780257 L12.1248655,14.2132304 C12.0683212,14.2662214 11.9803525,14.2662214 11.9238082,14.2132304 C11.8976392,14.1881054 11.8828466,14.153396 11.8828466,14.1171181 C11.8828466,14.0808403 11.8976392,14.0461309 11.9238082,14.0210058 L12.2840047,13.6780257 L11.4571696,13.6780257 C11.3782737,13.6780257 11.3149474,13.6172444 11.3149474,13.5429895 C11.3149474,13.4685848 11.3782737,13.4076538 11.4571696,13.4076538 L12.2841544,13.4076538 L11.9239579,13.0648234 C11.8977997,13.0398769 11.8829979,13.0053069 11.8829979,12.9691602 C11.8829979,12.9330136 11.8977997,12.8984436 11.9239579,12.8734971 C11.9806181,12.8208 12.068355,12.8208 12.1250152,12.8734971 L12.686269,13.4076538 L13.9274947,13.4076538 L14.1421754,12.9142175 L13.2647392,12.0791485 L12.4703906,12.0791485 C12.3922433,12.0791485 12.3290667,12.0188164 12.3290667,11.9441123 C12.3290667,11.8694082 12.3922433,11.8084772 12.4703906,11.8084772 L12.9805942,11.8084772 L12.3956865,11.2490199 C12.3689308,11.2242818 12.3537178,11.1894968 12.3537178,11.1530573 C12.3537178,11.1166178 12.3689308,11.0818328 12.3956865,11.0570947 C12.4519923,11.0039388 12.539989,11.0039388 12.5962947,11.0570947 L13.1810526,11.6167018 L13.1810526,11.1294035 C13.1810526,11.0541006 13.2448281,10.9931696 13.3229754,10.9931696 C13.4011228,10.9931696 13.4659462,11.0539509 13.4659462,11.1291041 L13.4659462,11.8884211 L14.3418854,12.7233404 L14.8619696,12.5183906 L14.8619696,11.3336047 L14.3014643,10.7982503 C14.274946,10.7733486 14.2599045,10.7385902 14.2599045,10.7022129 C14.2599045,10.6658355 14.274946,10.6310771 14.3014643,10.6061754 C14.3574684,10.5526987 14.4456193,10.5526987 14.5016234,10.6061754 L14.8618199,10.9499041 L14.8618199,10.159448 C14.8618199,10.0845942 14.9251462,10.0238129 15.0032936,10.0238129 C15.0812912,10.0238129 15.1455158,10.0844444 15.1455158,10.159448 L15.1455158,10.9499041 L15.5049637,10.6061754 C15.5609678,10.5526987 15.6491187,10.5526987 15.7051228,10.6061754 C15.7319691,10.6308935 15.7472438,10.6657203 15.7472438,10.7022129 C15.7472438,10.7387055 15.7319691,10.7735322 15.7051228,10.7982503 L15.1455158,11.3336047 L15.1455158,12.5183906 L15.6641029,12.7233404 L16.5422877,11.8870737 L16.5422877,11.1294035 C16.5422877,11.0544 16.6054643,10.9940678 16.6842105,10.9940678 C16.7625076,10.9940678 16.826283,11.0544 16.826283,11.1294035 L16.826283,11.6158035 L17.4101427,11.0566456 C17.46686,11.004094 17.5544827,11.004094 17.6112,11.0566456 C17.6375263,11.0816843 17.6524295,11.1164259 17.6524295,11.1527579 C17.6524295,11.1890899 17.6375263,11.2238315 17.6112,11.2488702 L17.0265918,11.8081778 L17.5352982,11.8081778 C17.6132959,11.8081778 17.6775205,11.8688094 17.6775205,11.9433637 C17.6775205,12.0179181 17.6131462,12.0782503 17.5352982,12.0782503 L16.7424468,12.0782503 L15.8644117,12.914517 L16.078793,13.4078035 L17.3222643,13.4078035 L17.8821708,12.8746947 C17.9386105,12.8221698 18.0260398,12.8221698 18.0824795,12.8746947 C18.1378713,12.9275415 18.1378713,13.013324 18.0824795,13.0658713 L17.7231813,13.4076538 L18.5494175,13.4076538 C18.6281637,13.4078035 18.6920889,13.4687345 18.6920889,13.5431392 L18.6920889,13.5431392 Z M15.8178526,13.675331 L15.8178526,13.4046596 L15.6862596,13.1016515 L15.4861006,12.9113731 L15.1676725,12.7851696 L14.884276,12.7851696 L14.5659977,12.9113731 L14.3649404,13.1019509 L14.2334971,13.4045099 L14.2334971,13.6751813 L14.3649404,13.9771415 L14.5659977,14.1693661 L14.884276,14.2952702 L15.1676725,14.2952702 L15.485352,14.1693661 L15.6862596,13.9777404 L15.8178526,13.675331 Z" id="Shape"></path>
                        <path d="M15.003593,18.1812304 C12.4446409,18.1812304 10.362807,16.0993965 10.362807,13.5426901 C10.362807,10.9919719 12.4446409,8.91013801 15.003593,8.91013801 C17.562545,8.91013801 19.6443789,10.9919719 19.6443789,13.5426901 C19.6443789,16.0993965 17.562545,18.1812304 15.003593,18.1812304 Z M15.003593,9.35926082 C12.692407,9.35926082 10.8119298,11.239738 10.8119298,13.5426901 C10.8119298,15.8517801 12.692407,17.7321076 15.003593,17.7321076 C17.3147789,17.7321076 19.1952561,15.8516304 19.1952561,13.5426901 C19.1952561,11.239738 17.3149287,9.35926082 15.003593,9.35926082 L15.003593,9.35926082 Z" id="Shape"></path>
                    </g>
                </g>
            </g>
        </g>
    </g>
</svg>