<?xml version="1.0" encoding="UTF-8" standalone="no"?>
<svg width="26px" height="30px" viewBox="0 0 26 30" version="1.1" xmlns="http://www.w3.org/2000/svg" xmlns:xlink="http://www.w3.org/1999/xlink">
    <!-- Generator: Sketch 46 (44423) - http://www.bohemiancoding.com/sketch -->
    <title>paifeng</title>
    <desc>Created with Sketch.</desc>
    <defs></defs>
    <g id="Page-1" stroke="none" stroke-width="1" fill="none" fill-rule="evenodd">
        <g id="Artboard" transform="translate(-1562.000000, -290.000000)" fill-rule="nonzero" fill="#56E4FF">
            <g id="底框-copy-5" transform="translate(1530.000000, 230.000000)">
                <g id="Group-13" transform="translate(30.000000, 55.000000)">
                    <g id="paifeng" transform="translate(2.000000, 5.000000)">
                        <path d="M12.1930549,17.5782857 C12.1403077,16.8609231 11.5263297,16.4748132 10.808967,16.5275604 L8.63156044,16.3756484 C7.91208791,16.4262857 7.36984615,17.0508132 7.42259341,17.7681758 L7.45213187,18.1500659 C7.50065934,18.8695385 8.12518681,19.4075604 8.84465934,19.3548132 L10.9798681,18.8948571 C11.6972308,18.8421099 12.2479121,18.3694945 12.1951648,17.6521319 L12.1930549,17.5782857 L12.1930549,17.5782857 L12.1930549,17.5782857 L12.1930549,17.5782857 Z M14.0413187,17.8061538 C14.1953407,17.4348132 14.0181099,17.0065055 13.6467692,16.8545934 C13.2733187,16.7005714 12.8471209,16.8756923 12.690989,17.2491429 C12.5390769,17.6204835 12.7141978,18.0466813 13.0876484,18.2007033 C13.458989,18.3547253 13.8851868,18.1774945 14.0413187,17.8061538 L14.0413187,17.8061538 L14.0413187,17.8061538 L14.0413187,17.8061538 Z M13.7923516,16.4811429 L13.8598681,16.5085714 C14.5244835,16.7828571 15.1469011,16.4094066 15.4232967,15.7469011 L16.5330989,13.866989 C16.8073846,13.2023736 16.493011,12.4385934 15.8283956,12.1643077 L15.4781538,12.0208352 C14.8135385,11.7465495 14.0497582,12.063033 13.7733626,12.7255385 L13.2269011,14.8354286 C12.9526154,15.5021538 13.1277363,16.2068571 13.7923516,16.4811429 L13.7923516,16.4811429 L13.7923516,16.4811429 L13.7923516,16.4811429 Z M13.0517802,8.4930989 C8.2138022,8.4930989 4.29151648,12.4132747 4.29151648,17.247033 C4.29151648,22.0807912 8.2138022,26.0030769 13.0517802,26.0030769 C17.8897582,26.0030769 21.812044,22.0829011 21.812044,17.247033 C21.812044,12.4132747 17.8918681,8.4930989 13.0517802,8.4930989 L13.0517802,8.4930989 L13.0517802,8.4930989 L13.0517802,8.4930989 Z M13.0391209,25.002989 C8.74549451,25.002989 5.26417582,21.5237802 5.26417582,17.2322637 C5.26417582,12.9407473 8.74549451,9.46153846 13.0391209,9.46153846 C17.3327473,9.46153846 20.8140659,12.9407473 20.8140659,17.2322637 C20.811956,21.5258901 17.3327473,25.002989 13.0391209,25.002989 L13.0391209,25.002989 L13.0391209,25.002989 L13.0391209,25.002989 Z M15.5730989,19.0467692 C15.2038681,18.4264615 14.5371429,18.1437363 13.9168352,18.5108571 L13.8535385,18.5509451 C13.2353407,18.9180659 13.1614945,19.6417582 13.5286154,20.2578462 L14.3683516,22.2706813 C14.7354725,22.8888791 15.5351209,23.0935385 16.1533187,22.7264176 L16.4803516,22.5323077 C17.0985495,22.1651868 17.3032088,21.3655385 16.9360879,20.7473407 L15.5730989,19.0467692 L15.5730989,19.0467692 L15.5730989,19.0467692 L15.5730989,19.0467692 Z" id="Shape"></path>
                        <path d="M12.9230769,4.58347253 C12.039033,4.58347253 11.1760879,4.67208791 10.3426813,4.83876923 L10.3426813,0.00923076923 L0.0210989011,0.00923076923 L0.0210989011,17.2871209 C0.0210989011,24.3025055 5.79797802,29.9928791 12.9230769,29.9928791 C20.0481758,29.9928791 25.8271648,24.3046154 25.8271648,17.2871209 C25.8250549,10.2696264 20.0502857,4.58347253 12.9230769,4.58347253 L12.9230769,4.58347253 Z M12.9230769,28.4674286 C6.57652747,28.4674286 1.43472527,23.2960879 1.43472527,17.0465934 L1.56764835,1.53257143 L8.79402198,1.53257143 L8.79402198,6.10681319 C9.5367033,5.95701099 12.1360879,5.73547253 12.9230769,5.73547253 C19.2696264,5.73547253 24.4114286,10.7992088 24.4114286,17.0487033 C24.4135385,23.2960879 19.2696264,28.4674286 12.9230769,28.4674286 L12.9230769,28.4674286 Z" id="Shape"></path>
                    </g>
                </g>
            </g>
        </g>
    </g>
</svg>