<?xml version="1.0" encoding="UTF-8" standalone="no"?>
<svg width="14px" height="30px" viewBox="0 0 14 30" version="1.1" xmlns="http://www.w3.org/2000/svg" xmlns:xlink="http://www.w3.org/1999/xlink">
    <!-- Generator: Sketch 46 (44423) - http://www.bohemiancoding.com/sketch -->
    <title>paishui</title>
    <desc>Created with Sketch.</desc>
    <defs></defs>
    <g id="Page-1" stroke="none" stroke-width="1" fill="none" fill-rule="evenodd">
        <g id="Artboard" transform="translate(-1569.000000, -388.000000)" fill-rule="nonzero" fill="#56E4FF">
            <g id="底框-copy-5" transform="translate(1530.000000, 230.000000)">
                <g id="Group-13-Copy-2" transform="translate(30.000000, 153.000000)">
                    <g id="paishui" transform="translate(9.000000, 5.000000)">
                        <path d="M6.97087013,29.9723377 C3.50290909,29.9723377 0.786350649,28.4870649 0.786350649,26.5907532 C0.786350649,25.4123766 1.84632468,24.3435974 3.62220779,23.7322597 L3.92668831,24.6162857 C2.56655844,25.0849091 1.72141558,25.8413766 1.72141558,26.5909481 C1.72141558,27.7722857 3.83076623,29.0374286 6.97087013,29.0374286 C10.1108182,29.0374286 12.2201299,27.7722857 12.2201299,26.5909481 C12.2201299,25.8634675 11.4505714,25.1451429 10.1617013,24.6688052 L10.4855844,23.7919091 C12.1819481,24.4187922 13.155,25.4389481 13.155,26.5911429 C13.1551948,28.4868701 10.4388312,29.9723377 6.97087013,29.9723377 L6.97087013,29.9723377 Z M6.99911688,14.1272727 C3.07764935,14.1272727 0.00557142857,12.1369091 0.00557142857,9.5961039 C0.00557142857,7.99379221 1.10294805,6.6128961 3.01648052,5.808 L3.37909091,6.66974026 C1.82933766,7.32187013 0.940441558,8.38838961 0.940441558,9.5961039 C0.940441558,11.5453636 3.71477922,13.1922078 6.99888312,13.1922078 C10.2828701,13.1922078 13.0572078,11.5453636 13.0572078,9.5961039 C13.0572078,8.48715584 12.1513247,7.41592208 10.6340649,6.73051948 L11.0191558,5.87832468 C12.8808701,6.7192987 13.9922727,8.10919481 13.9922727,9.59594805 C13.9924675,12.1369091 10.9205844,14.1272727 6.99911688,14.1272727 L6.99911688,14.1272727 Z" id="Shape"></path>
                        <path d="M6.97067532,27.7745455 C4.73774026,27.7745455 2.98862338,26.7134416 2.98862338,25.3587273 L3.92368831,25.3587273 C3.92368831,26.0590909 5.175,26.8394805 6.97067532,26.8394805 C8.76635065,26.8394805 10.0177013,26.0590909 10.0177013,25.3587273 L10.9527662,25.3587273 C10.9527662,26.7134026 9.20380519,27.7745455 6.97067532,27.7745455 Z" id="Shape"></path>
                        <path d="M10.0176623,13.1546104 L10.9527273,13.1546104 L10.9527273,25.6158701 L10.0176623,25.6158701 L10.0176623,13.1546104 Z M2.98842857,13.1546104 L3.92349351,13.1546104 L3.92349351,25.6158701 L2.98842857,25.6158701 L2.98842857,13.1546104 Z M6.97909091,7.49431169 C5.68535065,7.49431169 4.78168831,6.9945974 4.78168831,6.27927273 L5.71675325,6.27927273 C5.71722574,6.26115307 5.71330923,6.2431879 5.70533766,6.22690909 C5.76518182,6.3247013 6.21701299,6.55924675 6.97909091,6.55924675 C7.74116883,6.55924675 8.19280519,6.3247013 8.25284416,6.22690909 C8.24484453,6.24317811 8.24092649,6.26115028 8.24142857,6.27927273 L9.17649351,6.27927273 C9.17649351,6.9945974 8.27287013,7.49431169 6.97909091,7.49431169 L6.97909091,7.49431169 Z" id="Shape"></path>
                        <path d="M8.24142857,1.19961039 L9.17649351,1.19961039 L9.17649351,6.378 L8.24142857,6.378 L8.24142857,1.19961039 Z M4.78168831,1.19961039 L5.71675325,1.19961039 L5.71675325,6.378 L4.78168831,6.378 L4.78168831,1.19961039 Z" id="Shape"></path>
                        <path d="M6.93179221,11.2012987 C3.62933766,11.2012987 1.04236364,9.85102597 1.04236364,8.12750649 C1.04236364,6.70920779 2.78080519,5.51645455 5.36855844,5.15906494 L5.49646753,6.08532468 C3.49016883,6.36233766 1.97742857,7.24012987 1.97742857,8.12735065 C1.97742857,9.1388961 4.01212987,10.266 6.93179221,10.266 C9.85161039,10.266 11.8863117,9.13885714 11.8863117,8.12735065 C11.8863117,7.25061039 10.4554675,6.39896104 8.48419481,6.10215584 L8.62328571,5.17761039 C11.1735974,5.56133766 12.8213766,6.71914286 12.8213766,8.12735065 C12.8213766,9.85102597 10.2344416,11.2012597 6.93179221,11.2012597 L6.93179221,11.2012987 Z" id="Shape"></path>
                        <path d="M6.99911688,14.1272727 C3.07764935,14.1272727 0.00557142857,12.1369091 0.00557142857,9.5961039 C0.00557142857,7.99379221 1.10294805,6.6128961 3.01648052,5.808 L3.37909091,6.66974026 C1.82933766,7.32187013 0.940441558,8.38838961 0.940441558,9.5961039 C0.940441558,11.5453636 3.71477922,13.1922078 6.99888312,13.1922078 C10.2828701,13.1922078 13.0572078,11.5453636 13.0572078,9.5961039 C13.0572078,8.48715584 12.1513247,7.41592208 10.6340649,6.73051948 L11.0191558,5.87832468 C12.8808701,6.7192987 13.9922727,8.10919481 13.9922727,9.59594805 C13.9924675,12.1369091 10.9205844,14.1272727 6.99911688,14.1272727 Z" id="Shape"></path>
                        <path d="M6.93179221,11.2012987 C3.62933766,11.2012987 1.04236364,9.85102597 1.04236364,8.12750649 C1.04236364,6.7192987 2.69014286,5.56153247 5.24025974,5.17776623 L5.37935065,6.10235065 C3.40807792,6.39896104 1.97742857,7.25061039 1.97742857,8.12754545 C1.97742857,9.13909091 4.01212987,10.2661948 6.93179221,10.2661948 C9.85161039,10.2661948 11.8863117,9.13905195 11.8863117,8.12750649 C11.8863117,7.26650649 10.4867143,6.41972727 8.55825974,6.11376623 L8.70467532,5.19031169 C11.2053896,5.58693506 12.8213766,6.73987013 12.8213766,8.12750649 C12.8213766,9.85102597 10.2344416,11.2012597 6.93179221,11.2012597 L6.93179221,11.2012987 Z" id="Shape"></path>
                        <path d="M6.90167532,8.62441558 C4.36316883,8.62441558 2.4488961,7.57768831 2.4488961,6.1898961 L3.38396104,6.1898961 C3.38396104,6.89774026 4.88828571,7.68935065 6.90167532,7.68935065 C8.91467532,7.68935065 10.4188442,6.89774026 10.4188442,6.1898961 L11.3539091,6.1898961 C11.3539091,7.57788312 9.43983117,8.62441558 6.90167532,8.62441558 L6.90167532,8.62441558 Z M6.34453247,11.1547013 L7.2795974,11.1547013 L7.2795974,14.1115714 L6.34453247,14.1115714 L6.34453247,11.1547013 Z M6.48109091,27.0469091 L7.41615584,27.0469091 L7.41615584,29.2562338 L6.48109091,29.2562338 L6.48109091,27.0469091 Z" id="Shape"></path>
                        <path d="M6.4088961,13.3967922 L7.34396104,13.3967922 L7.34396104,27.2726104 L6.4088961,27.2726104 L6.4088961,13.3967922 Z M3.41555844,7.66690909 L4.35062338,7.66690909 L4.35062338,10.2828312 L3.41555844,10.2828312 L3.41555844,7.66690909 Z M9.26419481,7.85244156 L10.1992597,7.85244156 L10.1992597,10.0621558 L9.26419481,10.0621558 L9.26419481,7.85244156 Z M6.93194805,3.04636364 C5.59909091,3.04636364 4.5938961,2.39427273 4.5938961,1.52933766 C4.5938961,0.664402597 5.59909091,0.0122727273 6.93194805,0.0122727273 C8.26480519,0.0122727273 9.27,0.664402597 9.27,1.52933766 C9.27,2.39427273 8.26480519,3.04636364 6.93194805,3.04636364 L6.93194805,3.04636364 Z M6.93194805,1.13435065 C6.17232468,1.13435065 5.74819481,1.42609091 5.71507792,1.53701299 C5.74819481,1.63254545 6.17212987,1.92428571 6.93198701,1.92428571 C7.69184416,1.92428571 8.11577922,1.63254545 8.14885714,1.52166234 C8.11574026,1.42609091 7.69161039,1.13438961 6.93198701,1.13438961 L6.93194805,1.13435065 Z" id="Shape"></path>
                    </g>
                </g>
            </g>
        </g>
    </g>
</svg>