<?xml version="1.0" encoding="UTF-8" standalone="no"?>
<svg width="31px" height="50px" viewBox="0 0 31 50" version="1.1" xmlns="http://www.w3.org/2000/svg" xmlns:xlink="http://www.w3.org/1999/xlink">
    <!-- Generator: Sketch 46 (44423) - http://www.bohemiancoding.com/sketch -->
    <title>renxing</title>
    <desc>Created with Sketch.</desc>
    <defs></defs>
    <g id="Page-1" stroke="none" stroke-width="1" fill="none" fill-rule="evenodd">
        <g id="Artboard" transform="translate(-552.000000, -895.000000)" fill-rule="nonzero" fill="#03EDFF">
            <g id="renxing" transform="translate(552.000000, 895.000000)">
                <path d="M9.89684207,28.820656 L9.89684207,20.760642 C9.29078001,21.2840195 8.79167004,21.9120726 8.75601931,22.3307746 L8.75601931,25.7501744 C8.75601931,27.8087927 7.18738805,29.5184927 5.2979004,29.5184927 C3.44406348,29.5184927 2.16063788,28.0879274 2.16063788,25.9595255 L2.16063788,20.8653175 C2.16063788,18.004187 8.11430651,13.3984648 11.2872198,11.1304954 C10.1107463,9.94417303 9.39773211,8.33914861 9.39773211,6.55966505 C9.39773211,2.93091417 12.3923918,0 16.1000657,0 C19.8077396,0 22.8023993,2.93091417 22.8023993,6.55966505 C22.8023993,9.52547103 20.7703088,12.0376832 18.0252041,12.8401954 C20.984213,15.4221912 21.483323,17.8646197 21.483323,18.004187 L21.483323,29.0648988 C21.5902751,29.2742498 22.1606865,29.7627355 22.6241457,30.1465457 C23.8006191,31.1235171 25.3692504,32.4494068 26.7596281,34.6824843 C28.8986707,38.1716678 30.1107948,42.2191207 30.1820963,42.4284717 L30.8594598,45.2198186 C31.1090148,46.6852756 30.8951105,47.8367062 30.1820963,48.6741102 C29.4334314,49.5464061 28.2213072,50 26.5813746,50 C24.4066812,50 23.1589064,48.8834613 22.4458921,46.3014655 C21.7328779,43.8939288 19.2729789,37.2644801 16.5635249,35.7641312 C10.7881098,32.5540824 10.0037942,29.65806 9.89684207,28.820656 M20.4851031,6.55966505 C20.4851031,4.18702026 18.524314,2.23307746 16.1000657,2.23307746 C13.6758174,2.23307746 11.7150283,4.1521284 11.7150283,6.55966505 C11.7150283,8.93230985 13.6758174,10.8862526 16.1000657,10.8862526 C18.524314,10.8513607 20.4851031,8.9323098 20.4851031,6.55966505 M17.7399984,33.8101884 C21.7328779,36.008374 24.4066812,44.696441 24.6918869,45.6734124 C25.2622983,47.7320307 25.9040111,47.7320307 26.6170252,47.6971389 C27.508293,47.6971389 28.1500058,47.5226797 28.4352115,47.1737614 C28.7560679,46.7899512 28.7204172,46.0921145 28.6491157,45.6036287 L28.007403,42.9169574 C28.007403,42.8820656 26.8309295,39.0090719 24.8344897,35.7641312 C23.6580163,33.8450803 22.3032893,32.6936497 21.1981173,31.786462 C20.1998974,30.9490579 19.4155818,30.2861131 19.2729789,29.3440335 L19.2373282,29.3440335 L19.2373282,18.2484299 C19.0947254,17.7599442 18.2391083,15.1081647 14.1036259,12.7355199 C13.8184202,12.6657362 13.5688652,12.5610607 13.2836596,12.4214933 C8.93427288,15.457083 4.47793409,19.3998604 4.47793409,20.760642 L4.47793409,25.85485 C4.47793409,26.7271459 4.76313975,27.1807397 5.2979004,27.1807397 C5.93961319,27.1807397 6.47437384,26.482903 6.47437389,25.6803908 L6.47437389,22.5052338 C6.26046964,20.1674808 9.14817717,18.3531054 9.89684207,17.8995115 L9.89684207,17.8646197 L12.2141382,17.8646197 L12.2141382,28.5415213 C12.1784875,28.6461968 12.4993439,30.9141661 17.7399984,33.8101884 M27.7221973,28.1577111 L27.6508959,28.1577111 C26.6883267,28.1577111 25.7614082,27.7739009 25.048394,27.1109561 L22.5171935,24.8778786 L22.5171935,21.8771808 L26.5813746,25.4361479 C26.902231,25.7152826 27.2943888,25.8897418 27.6865466,25.8897418 C27.8648002,25.8897418 28.2213072,25.8548499 28.4708622,25.5757153 C28.7204172,25.2965806 28.7204172,24.9476623 28.6847665,24.7732031 C28.6491157,24.3893929 28.4352115,24.0055827 28.1143551,23.726448 L24.7631883,20.760642 C24.3353798,20.4117237 23.1945571,19.3649686 22.6597964,18.8764829 L22.6597964,16.0851361 C23.0519542,16.4340544 24.7631883,17.794836 25.7970589,18.6671319 L29.6473357,22.0516399 C30.3960006,22.7145848 30.8594598,23.5519888 30.9664119,24.4940684 C31.1090148,25.4710398 30.7881584,26.4131193 30.1820963,27.1109561 C29.5760342,27.7739009 28.6847665,28.1577111 27.7221973,28.1577111 M0.841561609,43.2658758 L9.14817712,31.9260293 L9.29078001,32.0307048 L10.7881098,33.8101884 L2.83800141,44.6615492 C2.23193935,45.4989532 2.33889145,46.6503838 3.12320708,47.1737614 C3.47971416,47.4180042 3.94317344,47.5226797 4.40663267,47.452896 C4.90574263,47.3482205 5.33355113,47.0690858 5.65440753,46.6503838 L13.0697553,36.5317516 L14.6740373,38.4508025 L7.65084733,48.0460572 C6.97348385,48.9532449 6.01091466,49.581298 4.90574258,49.790649 C4.62053692,49.8604327 4.37098194,49.8604327 4.08577627,49.8604327 C3.23015923,49.8604327 2.41019287,49.6161898 1.73282939,49.1277041 C-0.192309001,47.8018143 -0.548816082,45.1849267 0.841561609,43.2658758" id="Shape"></path>
            </g>
        </g>
    </g>
</svg>