<?xml version="1.0" encoding="UTF-8" standalone="no"?>
<svg width="32px" height="33px" viewBox="0 0 32 33" version="1.1" xmlns="http://www.w3.org/2000/svg" xmlns:xlink="http://www.w3.org/1999/xlink">
    <!-- Generator: Sketch 46 (44423) - http://www.bohemiancoding.com/sketch -->
    <title>shinei</title>
    <desc>Created with Sketch.</desc>
    <defs></defs>
    <g id="Page-1" stroke="none" stroke-width="1" fill="none" fill-rule="evenodd">
        <g id="Artboard" transform="translate(-1561.000000, -602.000000)" fill-rule="nonzero" fill="#56E4FF">
            <g id="shinei" transform="translate(1561.000000, 602.000000)">
                <path d="M31.0043245,14.0635002 L17.9046166,0.651096414 C17.4875837,0.233353704 16.9327358,0.0032679278 16.3422415,0.0032679278 C15.7651935,0.0032679278 15.2190996,0.224363206 14.8040777,0.626333112 L9.53075616,5.76799114 L9.53075616,5.56641471 C9.53075616,4.7186265 8.8413269,4.02888179 7.99385415,4.02888179 L5.31377875,4.02888179 C4.46634543,4.02888179 3.77687675,4.7186265 3.77687675,5.56641471 L3.77687675,11.3752623 L1.08520834,13.9984374 C-0.792583394,15.919486 0.192546503,17.8235394 1.04013755,18.6962881 C1.45807742,19.125821 2.01840628,19.3623342 2.61785169,19.3622948 C2.78358442,19.3622948 2.94746386,19.3439589 3.10767611,19.307642 L3.10767611,29.9172974 C3.10767611,31.5041992 4.39812806,32.7952032 5.98428065,32.7952032 L12.6828721,32.7952032 C13.5303055,32.7952032 14.2197347,32.1057739 14.2197347,31.2583012 L14.2197347,25.2282005 C14.2197347,24.9682647 14.431524,24.7568303 14.6918147,24.7568303 L17.3718507,24.7568303 C17.6321808,24.7568303 17.8439702,24.9682647 17.8439702,25.2282005 L17.8439702,31.2582617 C17.8439702,32.105695 18.5333994,32.7951637 19.3808722,32.7951637 L26.0800551,32.7951637 C27.6658923,32.7951637 28.9560682,31.5041597 28.9560682,29.9172579 L28.9560682,19.3461276 C29.1192773,19.3847316 29.2809091,19.4041716 29.4391892,19.4041716 C30.0275542,19.4041716 30.5811007,19.1753476 30.9978182,18.7598919 C31.4152455,18.3438448 31.9755349,17.615023 31.975456,15.9983106 C31.9754166,15.408526 31.975456,15.1308064 31.0043245,14.0635002 Z M5.5109388,10.0796054 L5.5109388,6.62989601 C5.5109388,6.36960531 5.72328017,6.15785542 5.98428065,6.15785542 L7.3240226,6.15785542 C7.58462876,6.15785542 7.7966941,6.36960531 7.7966941,6.62989601 L7.7966941,7.8524066 L5.5109388,10.0796054 Z M18.0411302,23.0228076 L14.0225747,23.0228076 C13.1751414,23.0228076 12.4857121,23.7122369 12.4857121,24.5597097 L12.4857121,30.5883907 C12.4857121,30.8490758 12.2736862,31.0611411 12.0130406,31.0611411 L5.98428065,31.0611411 C5.35427543,31.0611411 4.84173817,30.5479729 4.84173817,29.9172579 L4.84173817,18.0779153 L16.1052946,7.0811165 C16.2061222,6.98399546 16.2767449,6.93474488 16.3152306,6.93474488 C16.3394418,6.93474488 16.4011924,6.95544668 16.5425167,7.09377417 L27.2219667,18.0833964 L27.2219667,29.9172185 C27.2219667,30.5479335 26.7097055,31.0611017 26.0800551,31.0611017 L20.0513346,31.0611017 C19.7903342,31.0611017 19.5779928,30.8490363 19.5779928,30.5883513 L19.5779928,24.5596702 C19.5779928,23.7122369 18.8885635,23.0228076 18.0411302,23.0228076 Z M14.9989901,5.67946628 C14.7085339,5.93415763 3.07013684,17.3821375 2.95345752,17.4964115 C2.25685164,17.9568196 0.98185704,16.7081262 1.92822527,15.6106151 C2.51651142,15.0232753 16.0127871,1.8710045 16.0127871,1.8710045 C16.1017457,1.78433294 16.2185039,1.73662021 16.3415712,1.73662021 C16.415033,1.73662021 16.5561207,1.75468007 16.6747716,1.87475054 L29.4589052,15.0892056 C30.9501844,16.3992947 29.461626,17.8418359 28.7919916,17.3363964 C24.9042715,13.3440237 17.845784,5.88877139 17.5976778,5.65880391 C16.9897545,5.09535992 16.7787933,4.86133095 16.3727619,4.86133095 C15.9639702,4.86129151 15.6312035,5.12513109 14.9989901,5.67946628 Z" id="Shape"></path>
            </g>
        </g>
    </g>
</svg>