<?xml version="1.0" encoding="UTF-8" standalone="no"?>
<svg width="40px" height="33px" viewBox="0 0 40 33" version="1.1" xmlns="http://www.w3.org/2000/svg" xmlns:xlink="http://www.w3.org/1999/xlink">
    <!-- Generator: Sketch 46 (44423) - http://www.bohemiancoding.com/sketch -->
    <title>shiwai</title>
    <desc>Created with Sketch.</desc>
    <defs></defs>
    <g id="Page-1" stroke="none" stroke-width="1" fill="none" fill-rule="evenodd">
        <g id="Artboard" transform="translate(-1557.000000, -688.000000)" fill-rule="nonzero" fill="#56E4FF">
            <g id="shiwai" transform="translate(1557.000000, 688.000000)">
                <path d="M27.9144037,19.9822006 C27.4863857,19.4961747 26.7550522,19.4570142 26.2793804,19.8943409 L21.6191509,24.1646556 L16.0008489,16.5115185 C15.7981926,16.2348589 15.4891318,16.0625201 15.1516992,16.0394987 C14.8131255,16.0209447 14.4857666,16.1436988 14.2482062,16.3900523 L0.33402036,30.8041251 C-0.115443802,31.2701482 -0.110957817,32.0199546 0.345392724,32.4791758 C0.570636365,32.7071765 0.865019257,32.8205128 1.1594415,32.8205128 C1.45831038,32.8205128 1.75835978,32.7025079 1.98486264,32.4675444 L10.809463,23.3262247 L16.9666341,31.7156451 C17.1943175,32.0269576 17.5419419,32.1900395 17.8951542,32.1900395 C18.137476,32.1900395 18.380821,32.1123623 18.5891045,31.9527819 C19.1021201,31.5606529 19.2062422,30.8180507 18.8213526,30.2949571 L12.4554652,21.621391 L14.9536076,19.0336935 L20.5231541,26.6207848 C20.7178615,26.8867789 21.0133462,27.0569846 21.3372028,27.0893031 C21.6588164,27.1170737 21.9826337,27.0141213 22.2249162,26.7919161 L26.9667592,22.4466611 L35.0827314,31.639296 C35.5106314,32.1253219 36.2432241,32.1635166 36.7198796,31.7250629 C37.1954727,31.2877765 37.2328953,30.5380103 36.8037361,30.0522661 L27.9144037,19.9823214 L27.9144037,19.9822006 Z M27.8261007,5.43853162 C28.4669668,5.43853162 28.9855702,4.9087972 28.9855702,4.2538938 L28.9855702,1.18463782 C28.9855702,0.529774671 28.4669275,0 27.8261007,0 C27.1853525,0 26.6667491,0.529734423 26.6667491,1.18463782 L26.6667491,4.2538938 C26.6667491,4.9087972 27.1853525,5.43853162 27.8261007,5.43853162 Z M27.8261007,17.0435873 C30.3114541,17.0435873 32.3335313,14.9786212 32.3335313,12.4391399 C32.3335313,9.89973905 30.3114541,7.83348502 27.8261007,7.83348502 C25.3408259,7.83348502 23.31867,9.89973905 23.31867,12.4391399 C23.3186307,14.9786614 25.3408259,17.0435873 27.8261007,17.0435873 Z M27.8261007,10.2028009 C29.0330666,10.2028009 30.0147495,11.2058431 30.0147495,12.4391399 C30.0147495,13.6711487 29.0330666,14.6743116 27.8261007,14.6743116 C26.6191347,14.6743116 25.6375305,13.6711889 25.6375305,12.4391399 C25.6375305,11.2058833 26.6191347,10.2028009 27.8261007,10.2028009 Z M16.8116315,13.2732241 L19.815431,13.2732241 C20.4563759,13.2732241 20.9749006,12.7432079 20.9749006,12.0885862 C20.9749006,11.4338036 20.4563759,10.9038679 19.815431,10.9038679 L16.8116315,10.9038679 C16.1707654,10.9038679 15.652162,11.4338841 15.652162,12.0885862 C15.652162,12.7432481 16.1708047,13.2732241 16.8116315,13.2732241 L16.8116315,13.2732241 Z M38.8405304,10.9038277 L35.836731,10.9038277 C35.1958648,10.9038277 34.6773794,11.4338438 34.6773794,12.088546 C34.6773794,12.7432079 35.1959042,13.2731838 35.836731,13.2731838 L38.8405304,13.2731838 C39.4813966,13.2731838 40,12.7431677 40,12.088546 C40.0000394,11.4338036 39.4813966,10.9038277 38.8405304,10.9038277 L38.8405304,10.9038277 Z M21.3416888,7.48872699 C21.5681917,7.72002799 21.8648963,7.83581936 22.1616009,7.83581936 C22.4581874,7.83581936 22.7548526,7.71998774 22.9813161,7.48872699 C23.4341645,7.02596401 23.4341645,6.27631856 22.9813161,5.81343484 L20.6354217,3.41626784 C20.1823766,2.9536256 19.4487214,2.9536256 18.9958731,3.41626784 C18.5430248,3.87915157 18.5430248,4.62867627 18.9958731,5.09164049 L21.3417282,7.48868675 L21.3416888,7.48872699 Z M32.6709639,17.3883453 C32.2181942,17.8513095 32.2181942,18.6008745 32.6709639,19.0636375 L35.0169763,21.4606435 C35.2434792,21.6920652 35.5400657,21.8078163 35.8367703,21.8078163 C36.1333569,21.8078163 36.4300221,21.6919847 36.6564856,21.4606435 C37.1093339,20.9980012 37.1093339,20.2483155 36.6564856,19.7855928 L34.3105912,17.3883453 C33.8575068,16.9255421 33.1238515,16.9255421 32.6710032,17.3883453 L32.6709639,17.3883453 Z M21.1707886,17.3883453 L20.0363067,18.5476273 C19.5832616,19.0103903 19.5832616,19.7601565 20.0363067,20.2227585 C20.2626915,20.4541803 20.5593174,20.5699314 20.8561007,20.5699314 C21.1526872,20.5699314 21.4492737,20.4540998 21.6757373,20.2227585 L22.8102191,19.063557 C23.2630674,18.600794 23.2630674,17.851229 22.8102191,17.3882648 C22.3574101,16.9255018 21.6236369,16.9255018 21.1707886,17.3883051 L21.1707886,17.3883453 Z M33.4907579,7.83577911 C33.7873444,7.83577911 34.0842064,7.7199475 34.3105518,7.48868675 L36.6564463,5.09168074 C37.1092946,4.62871652 37.1092946,3.87915157 36.6564463,3.41630809 C36.2036766,2.95366585 35.469864,2.95366585 35.0169763,3.41630809 L32.6709639,5.81347508 C32.2181942,6.27635881 32.2181942,7.02600426 32.6709639,7.48876724 C32.8975061,7.72006824 33.1941713,7.83581936 33.4907972,7.83581936 L33.4907579,7.83577911 Z" id="Shape"></path>
            </g>
        </g>
    </g>
</svg>