<?xml version="1.0" encoding="UTF-8" standalone="no"?>
<svg width="30px" height="30px" viewBox="0 0 30 30" version="1.1" xmlns="http://www.w3.org/2000/svg" xmlns:xlink="http://www.w3.org/1999/xlink">
    <!-- Generator: Sketch 46 (44423) - http://www.bohemiancoding.com/sketch -->
    <title>tanceqi</title>
    <desc>Created with Sketch.</desc>
    <defs></defs>
    <g id="Page-1" stroke="none" stroke-width="1" fill="none" fill-rule="evenodd">
        <g id="Artboard" transform="translate(-1563.000000, -437.000000)" fill-rule="nonzero" fill="#56E4FF">
            <g id="tanceqi" transform="translate(1563.000000, 437.000000)">
                <path d="M12.8819856,12.8432316 C11.7110833,14.0141339 11.7110833,15.9123543 12.8819856,17.0812584 C14.0528879,18.2521607 15.9511083,18.2521607 17.1200125,17.0812584 C18.2909148,15.9103562 18.2909148,14.0121358 17.1200125,12.8432316 C15.9511083,11.6723293 14.0528879,11.6723293 12.8819856,12.8432316 Z M16.4146738,16.3759197 C15.6334062,17.1571873 14.3685919,17.1571873 13.5893225,16.3759197 C12.808055,15.5946521 12.808055,14.3298379 13.5893225,13.5505685 C14.3705901,12.7712991 15.6354043,12.7693009 16.4146738,13.5505685 C17.1959413,14.3298379 17.1959413,15.5946521 16.4146738,16.3759197 Z" id="Shape"></path>
                <path d="M7.88467062,7.96180795 L7.17533562,7.25247295 C2.94330316,11.5484455 2.95928816,18.4599659 7.23128319,22.7319609 L7.93862006,22.024624 C4.05625975,18.14626 4.044271,11.8681458 7.88467062,7.96180795 Z" id="Shape"></path>
                <path d="M22.8286606,7.25247295 L22.1193256,7.96180795 C25.9597252,11.8681458 25.9477365,18.1442619 22.0673743,22.0266222 L22.7747112,22.7339591 C27.0447081,18.461964 27.0606931,11.5504436 22.8286606,7.25247295 Z" id="Shape"></path>
                <path d="M9.29734625,9.3764817 L8.5920075,8.66914482 C5.14124259,12.1858479 5.15323134,17.8285579 8.64395878,21.3212834 L9.35129566,20.6139466 C6.25020294,17.5128538 6.23621606,12.5015519 9.29734625,9.3764817 Z" id="Shape"></path>
                <path d="M21.4139869,8.66914482 L20.70665,9.3764817 C23.7677802,12.5015519 23.7557914,17.5128539 20.6546987,20.6139466 L21.3620356,21.3212834 C24.8507649,17.8285579 24.8647518,12.1858479 21.4139869,8.66914482 Z" id="Shape"></path>
                <path d="M10.7100218,10.7891573 L10.0046831,10.0818204 C7.33318766,12.8172559 7.34717453,17.1971498 10.0566344,19.9066097 L10.7639713,19.1992728 C8.442148,16.8794477 8.43015922,13.13296 10.7100218,10.7891573 Z" id="Shape"></path>
                <path d="M19.9993132,10.0818204 L19.2919763,10.7891573 C21.5718389,13.1349581 21.5598502,16.8814458 19.240025,19.2012709 L19.9473619,19.9086078 C22.6588198,17.1971498 22.6708086,12.8172559 19.9993132,10.0818204 Z" id="Shape"></path>
                <path d="M15.0019981,0.00726532292 C6.72575709,0.00726532292 0.0160474688,6.71697498 0.0160474688,14.993216 C0.0160474688,23.269457 6.72575713,29.9791666 15.0019981,29.9791666 C23.2782391,29.9791666 29.9879488,23.269457 29.9879488,14.993216 C29.9879488,6.71697498 23.2782392,0.00726532292 15.0019981,0.00726532292 Z M15.0019981,28.9801033 C7.27724009,28.9801033 1.01511084,22.717974 1.01511084,14.993216 C1.01511084,7.26845798 7.27724009,1.00632873 15.0019981,1.00632873 C22.7267562,1.00632873 28.9888854,7.26845798 28.9888854,14.993216 C28.9888854,22.717974 22.7267562,28.9801033 15.0019981,28.9801033 Z" id="Shape"></path>
            </g>
        </g>
    </g>
</svg>