<?xml version="1.0" encoding="UTF-8" standalone="no"?>
<svg width="162px" height="46px" viewBox="0 0 162 46" version="1.1" xmlns="http://www.w3.org/2000/svg" xmlns:xlink="http://www.w3.org/1999/xlink">
    <!-- Generator: Sketch 46 (44423) - http://www.bohemiancoding.com/sketch -->
    <title>xiexian</title>
    <desc>Created with Sketch.</desc>
    <defs></defs>
    <g id="Page-1" stroke="none" stroke-width="1" fill="none" fill-rule="evenodd" opacity="0.276702425">
        <g id="Artboard" transform="translate(-1728.000000, -30.000000)" fill="#97FFFA">
            <g id="底框-copy-6" transform="translate(1530.000000, 30.000000)">
                <g id="xiexian" transform="translate(198.000000, 0.000000)">
                    <polygon id="Fill-3" points="0.2445 45.1331 0.8845 45.9021 54.9185 0.8851 54.2785 0.1161"></polygon>
                    <polygon id="Fill-4" points="13.038 45.1331 13.678 45.9021 67.712 0.8851 67.072 0.1161"></polygon>
                    <polygon id="Fill-5" points="25.8315 45.1331 26.4715 45.9021 80.5055 0.8851 79.8655 0.1161"></polygon>
                    <polygon id="Fill-6" points="38.625 45.1331 39.265 45.9021 93.299 0.8851 92.659 0.1161"></polygon>
                    <polygon id="Fill-7" points="51.4185 45.1331 52.0585 45.9021 106.0925 0.8851 105.4525 0.1161"></polygon>
                    <polygon id="Fill-8" points="64.212 45.1331 64.852 45.9021 118.886 0.8851 118.246 0.1161"></polygon>
                    <polygon id="Fill-9" points="77.0064 45.1331 77.6464 45.9021 131.6794 0.8851 131.0404 0.1161"></polygon>
                    <polygon id="Fill-10" points="89.799 45.1331 90.439 45.9021 144.473 0.8851 143.833 0.1161"></polygon>
                    <polygon id="Fill-11" points="102.5934 45.1331 103.2324 45.9021 157.2664 0.8851 156.6274 0.1161"></polygon>
                    <polygon id="Fill-12" points="115.386 45.1331 116.026 45.9021 161.367 8.1281 160.727 7.3591"></polygon>
                    <polygon id="Fill-13" points="128.1804 45.1331 128.8194 45.9021 161.3674 18.7851 160.7274 18.0171"></polygon>
                    <polygon id="Fill-14" points="140.973 45.1331 141.613 45.9021 161.368 29.4431 160.728 28.6761"></polygon>
                    <polygon id="Fill-15" points="153.7674 45.1331 154.4064 45.9021 161.3674 40.1031 160.7274 39.3341"></polygon>
                </g>
            </g>
        </g>
    </g>
</svg>