<?xml version="1.0" encoding="UTF-8" standalone="no"?>
<svg width="304px" height="19px" viewBox="0 0 304 19" version="1.1" xmlns="http://www.w3.org/2000/svg" xmlns:xlink="http://www.w3.org/1999/xlink">
    <!-- Generator: Sketch 48.2 (47327) - http://www.bohemiancoding.com/sketch -->
    <title>baifenbi xiexian</title>
    <desc>Created with Sketch.</desc>
    <defs>
        <polygon id="path-1" points="0 0.6761 304 0.6761 304 20 0 20"></polygon>
    </defs>
    <g id="滨江小区智慧云平台／安全事件报警" stroke="none" stroke-width="1" fill="none" fill-rule="evenodd" transform="translate(-123.000000, -863.000000)">
        <g id="Group-Copy-9" transform="translate(20.000000, 794.000000)">
            <g id="Group" transform="translate(30.000000, 68.000000)">
                <g id="Page-1" transform="translate(73.000000, 0.000000)">
                    <g id="baifenbi-xiexian">
                        <mask id="mask-2" fill="white">
                            <use xlink:href="#path-1"></use>
                        </mask>
                        <g id="Clip-2"></g>
                        <polygon id="Page-1" fill="#377594" mask="url(#mask-2)" points="-9 5 9.9616347 23.9616347 16 23.9616347 -2.9616347 5"></polygon>
                        <polygon id="Page-1-Copy" fill="#377594" mask="url(#mask-2)" points="-3 1 15.9616347 19.9616347 22 19.9616347 3.0383653 1"></polygon>
                        <polygon id="Page-1-Copy-2" fill="#377594" mask="url(#mask-2)" points="7 1 25.9616347 19.9616347 32 19.9616347 13.0383653 1"></polygon>
                        <polygon id="Page-1-Copy-3" fill="#377594" mask="url(#mask-2)" points="16 1 34.9616347 19.9616347 41 19.9616347 22.0383653 1"></polygon>
                        <polygon id="Page-1-Copy-4" fill="#377594" mask="url(#mask-2)" points="25 1 43.9616347 19.9616347 50 19.9616347 31.0383653 1"></polygon>
                        <polygon id="Page-1-Copy-5" fill="#377594" mask="url(#mask-2)" points="34 1 52.9616347 19.9616347 59 19.9616347 40.0383653 1"></polygon>
                        <polygon id="Page-1-Copy-6" fill="#377594" mask="url(#mask-2)" points="43 1 61.9616347 19.9616347 68 19.9616347 49.0383653 1"></polygon>
                        <polygon id="Page-1-Copy-7" fill="#377594" mask="url(#mask-2)" points="52 1 70.9616347 19.9616347 77 19.9616347 58.0383653 1"></polygon>
                        <polygon id="Page-1-Copy-8" fill="#377594" mask="url(#mask-2)" points="61 1 79.9616347 19.9616347 86 19.9616347 67.0383653 1"></polygon>
                        <polygon id="Page-1-Copy-9" fill="#377594" mask="url(#mask-2)" points="70 1 88.9616347 19.9616347 95 19.9616347 76.0383653 1"></polygon>
                        <polygon id="Page-1-Copy-10" fill="#377594" mask="url(#mask-2)" points="79 1 97.9616347 19.9616347 104 19.9616347 85.0383653 1"></polygon>
                        <polygon id="Page-1-Copy-11" fill="#377594" mask="url(#mask-2)" points="88 1 106.961635 19.9616347 113 19.9616347 94.0383653 1"></polygon>
                        <polygon id="Page-1-Copy-12" fill="#377594" mask="url(#mask-2)" points="97 1 115.961635 19.9616347 122 19.9616347 103.038365 1"></polygon>
                        <polygon id="Page-1-Copy-21" fill="#377594" mask="url(#mask-2)" points="179 1 197.961635 19.9616347 204 19.9616347 185.038365 1"></polygon>
                        <polygon id="Page-1-Copy-13" fill="#377594" mask="url(#mask-2)" points="106 1 124.961635 19.9616347 131 19.9616347 112.038365 1"></polygon>
                        <polygon id="Page-1-Copy-22" fill="#377594" mask="url(#mask-2)" points="188 1 206.961635 19.9616347 213 19.9616347 194.038365 1"></polygon>
                        <polygon id="Page-1-Copy-14" fill="#377594" mask="url(#mask-2)" points="115 1 133.961635 19.9616347 140 19.9616347 121.038365 1"></polygon>
                        <polygon id="Page-1-Copy-23" fill="#377594" mask="url(#mask-2)" points="197 1 215.961635 19.9616347 222 19.9616347 203.038365 1"></polygon>
                        <polygon id="Page-1-Copy-15" fill="#377594" mask="url(#mask-2)" points="124 1 142.961635 19.9616347 149 19.9616347 130.038365 1"></polygon>
                        <polygon id="Page-1-Copy-24" fill="#377594" mask="url(#mask-2)" points="206 1 224.961635 19.9616347 231 19.9616347 212.038365 1"></polygon>
                        <polygon id="Page-1-Copy-16" fill="#377594" mask="url(#mask-2)" points="133 1 151.961635 19.9616347 158 19.9616347 139.038365 1"></polygon>
                        <polygon id="Page-1-Copy-25" fill="#377594" mask="url(#mask-2)" points="215 1 233.961635 19.9616347 240 19.9616347 221.038365 1"></polygon>
                        <polygon id="Page-1-Copy-30" fill="#377594" mask="url(#mask-2)" points="261 1 279.961635 19.9616347 286 19.9616347 267.038365 1"></polygon>
                        <polygon id="Page-1-Copy-17" fill="#377594" mask="url(#mask-2)" points="142 1 160.961635 19.9616347 167 19.9616347 148.038365 1"></polygon>
                        <polygon id="Page-1-Copy-26" fill="#377594" mask="url(#mask-2)" points="224 1 242.961635 19.9616347 249 19.9616347 230.038365 1"></polygon>
                        <polygon id="Page-1-Copy-31" fill="#377594" mask="url(#mask-2)" points="270 1 288.961635 19.9616347 295 19.9616347 276.038365 1"></polygon>
                        <polygon id="Page-1-Copy-18" fill="#377594" mask="url(#mask-2)" points="151 1 169.961635 19.9616347 176 19.9616347 157.038365 1"></polygon>
                        <polygon id="Page-1-Copy-27" fill="#377594" mask="url(#mask-2)" points="233 1 251.961635 19.9616347 258 19.9616347 239.038365 1"></polygon>
                        <polygon id="Page-1-Copy-32" fill="#377594" mask="url(#mask-2)" points="279 1 297.961635 19.9616347 304 19.9616347 285.038365 1"></polygon>
                        <polygon id="Page-1-Copy-19" fill="#377594" mask="url(#mask-2)" points="160 1 178.961635 19.9616347 185 19.9616347 166.038365 1"></polygon>
                        <polygon id="Page-1-Copy-28" fill="#377594" mask="url(#mask-2)" points="242 1 260.961635 19.9616347 267 19.9616347 248.038365 1"></polygon>
                        <polygon id="Page-1-Copy-33" fill="#377594" mask="url(#mask-2)" points="288 1 306.961635 19.9616347 313 19.9616347 294.038365 1"></polygon>
                        <polygon id="Page-1-Copy-20" fill="#377594" mask="url(#mask-2)" points="169 1 187.961635 19.9616347 194 19.9616347 175.038365 1"></polygon>
                        <polygon id="Page-1-Copy-29" fill="#377594" mask="url(#mask-2)" points="251 1 269.961635 19.9616347 276 19.9616347 257.038365 1"></polygon>
                        <polygon id="Page-1-Copy-34" fill="#377594" mask="url(#mask-2)" points="297 1 315.961635 19.9616347 322 19.9616347 303.038365 1"></polygon>
                    </g>
                </g>
            </g>
        </g>
    </g>
</svg>