<?xml version="1.0" encoding="UTF-8" standalone="no"?>
<svg width="140px" height="140px" viewBox="0 0 140 140" version="1.1" xmlns="http://www.w3.org/2000/svg" xmlns:xlink="http://www.w3.org/1999/xlink">
    <!-- Generator: Sketch 48.2 (47327) - http://www.bohemiancoding.com/sketch -->
    <title>fangwudengji </title>
    <desc>Created with Sketch.</desc>
    <defs>
        <polygon id="path-1" points="0 0.0310077519 46.6427907 0.0310077519 46.6427907 123.806202 0 123.806202"></polygon>
        <polygon id="path-3" points="0.923565891 0.0500277706 124.567442 0.0500277706 124.567442 123.61349 0.923565891 123.61349"></polygon>
        <polygon id="path-5" points="0.228992248 0.538294574 10.6139535 0.538294574 10.6139535 16.2530233 0.228992248 16.2530233"></polygon>
        <polygon id="path-7" points="0.224651163 0.0581395349 10.6139535 0.0581395349 10.6139535 15.7728682 0.224651163 15.7728682"></polygon>
    </defs>
    <g id="滨江小区智慧云平台／设备重要报警" stroke="none" stroke-width="1" fill="none" fill-rule="evenodd" transform="translate(-1109.000000, -630.000000)">
        <g id="Group-11-Copy-2" transform="translate(1092.000000, 615.000000)">
            <g id="fangwudengji-">
                <circle id="Oval-9" fill-opacity="0.4" fill="#000000" cx="87" cy="85" r="70"></circle>
                <g id="Page-1" opacity="0.5" transform="translate(87.102566, 85.803637) rotate(-28.000000) translate(-87.102566, -85.803637) translate(22.602566, 23.303637)">
                    <g id="Group-3" transform="translate(0.000000, 0.054264)">
                        <mask id="mask-2" fill="white">
                            <use xlink:href="#path-1"></use>
                        </mask>
                        <g id="Clip-2"></g>
                        <path d="M46.6427907,4.22232558 C46.6427907,4.22232558 44.3637209,4.96031008 40.5110078,6.57736434 C36.7017054,8.28124031 31.383876,11.1246512 25.8706977,15.7262016 C20.3792248,20.3168992 14.8443411,26.8068217 10.8505426,34.8486822 C6.82418605,42.8579845 4.43658915,52.3541085 4.40403101,61.9153488 C4.43658915,71.4874419 6.82418605,80.9835659 10.8505426,88.9928682 C14.8443411,97.023876 20.3792248,103.513798 25.8706977,108.104496 C31.383876,112.716899 36.7017054,115.549457 40.5110078,117.264186 C44.3637209,118.870388 46.6427907,119.608372 46.6427907,119.608372 L45.3187597,123.808372 C45.3187597,123.808372 42.8660465,123.016124 38.7311628,121.290543 C34.6505426,119.456434 28.9311628,116.417674 23.0272868,111.468837 C17.1342636,106.552558 11.1978295,99.5851163 6.91100775,90.9572093 C2.59162791,82.3727132 0.0303875969,72.1711628 -0.00217054264,61.9153488 C0.0303875969,51.6703876 2.59162791,41.4579845 6.91100775,32.8843411 C11.1978295,24.2564341 17.1342636,17.2889922 23.0272868,12.3618605 C28.9311628,7.42387597 34.6505426,4.38511628 38.7311628,2.55100775 C42.8660465,0.814573643 45.3187597,0.0223255814 45.3187597,0.0223255814 L46.6427907,4.22232558 Z" id="Fill-1" fill-opacity="0.6" fill="#57B1DF" mask="url(#mask-2)"></path>
                    </g>
                    <g id="Group-6" transform="translate(2.170543, 0.139535)">
                        <mask id="mask-4" fill="white">
                            <use xlink:href="#path-3"></use>
                        </mask>
                        <g id="Clip-5"></g>
                        <path d="M123.255349,61.8344186 C123.255349,61.8344186 123.17938,60.3475969 123.038295,57.5693023 C123.027442,56.180155 122.799535,54.4762791 122.463101,52.4902326 C122.235194,50.4716279 121.714264,48.2142636 121.01969,45.7072868 C118.45845,35.8096124 111.295659,21.6034109 96.3623256,11.5212403 C88.9499225,6.60496124 79.7468217,2.93674419 69.5995349,1.73209302 C59.4739535,0.59255814 48.4258915,2.02511628 38.2351938,6.52899225 C28.0336434,11.0328682 18.8522481,18.6514729 12.3406202,28.3755039 C9.10651163,33.2592248 6.64294574,38.6530233 4.83054264,44.2964341 C3.13751938,49.9724031 2.36697674,55.8979845 2.23674419,61.8344186 C2.36697674,67.7708527 3.13751938,73.6964341 4.83054264,79.3724031 C6.64294574,85.015814 9.10651163,90.4096124 12.3406202,95.2933333 C18.8522481,105.017364 28.0336434,112.635969 38.2351938,117.128992 C48.4258915,121.643721 59.4739535,123.065426 69.5995349,121.925891 C79.7468217,120.72124 88.9499225,117.063876 96.3623256,112.147597 C111.295659,102.065426 118.45845,87.8592248 121.01969,77.9615504 C121.714264,75.4545736 122.235194,73.1972093 122.463101,71.1786047 C122.799535,69.1925581 123.027442,67.4886822 123.038295,66.0995349 C123.17938,63.3212403 123.255349,61.8344186 123.255349,61.8344186 L124.568527,61.8344186 C124.568527,61.8344186 124.492558,63.3537984 124.351473,66.1863566 C124.34062,67.608062 124.091008,69.3444961 123.754574,71.3848062 C123.526667,73.435969 122.994884,75.7475969 122.278605,78.3088372 C119.663101,88.4235659 112.348372,102.933643 97.0894574,113.232868 C89.5251163,118.257674 80.115814,122.00186 69.7406202,123.228217 C59.4088372,124.40031 48.1220155,122.935194 37.7034109,118.322791 C27.2848062,113.72124 17.8972093,105.950698 11.2444961,96.0096124 C7.94527132,91.0173643 5.42744186,85.5150388 3.58248062,79.7522481 C1.84604651,73.9460465 1.05379845,67.9010853 0.923565891,61.8344186 C1.05379845,55.7677519 1.84604651,49.711938 3.58248062,43.9165891 C5.42744186,38.1537984 7.94527132,32.6406202 11.2444961,27.6483721 C17.8972093,17.7072868 27.2848062,9.93674419 37.7034109,5.3351938 C48.1220155,0.733643411 59.4088372,-0.731472868 69.7406202,0.429767442 C80.115814,1.66697674 89.5251163,5.41116279 97.0894574,10.435969 C112.348372,20.7243411 119.663101,35.2344186 122.278605,45.3491473 C122.994884,47.9212403 123.526667,50.2328682 123.754574,52.284031 C124.091008,54.3243411 124.34062,56.0499225 124.351473,57.4824806 C124.492558,60.3150388 124.568527,61.8344186 124.568527,61.8344186 L123.255349,61.8344186 Z" id="Fill-4" fill-opacity="0.6" fill="#57B1DF" mask="url(#mask-4)"></path>
                    </g>
                    <path d="M21.2072868,92.7413953 C21.2072868,92.7413953 21.7607752,93.4685271 22.5855814,94.5755039 C23.356124,95.7258915 24.6150388,97.0607752 25.8631008,98.4282171 C28.3483721,101.130543 31.2026357,103.474729 31.2026357,103.474729 L28.4243411,106.893333 C28.4243411,106.893333 25.3313178,104.364651 22.639845,101.434419 C21.2941085,99.9693023 19.9375194,98.504186 19.1018605,97.2669767 C18.211938,96.0731783 17.6150388,95.2700775 17.6150388,95.2700775 L21.2072868,92.7413953 Z" id="Fill-7" fill-opacity="0.6" fill="#57B1DF"></path>
                    <path d="M31.2058915,20.4710078 C31.2058915,20.4710078 28.3407752,22.8043411 25.8555039,25.5175194 C24.6182946,26.8741085 23.3593798,28.219845 22.5888372,29.3593798 C21.764031,30.4772093 21.2105426,31.2043411 21.2105426,31.2043411 L17.6182946,28.6756589 C17.6182946,28.6756589 18.2043411,27.8725581 19.1051163,26.6787597 C19.9407752,25.4306977 21.2973643,23.9764341 22.6431008,22.5004651 C25.3345736,19.5810853 28.4275969,17.0632558 28.4275969,17.0632558 L31.2058915,20.4710078 Z" id="Fill-9" fill-opacity="0.6" fill="#57B1DF"></path>
                    <path d="M11.9965891,54.6407752 C11.9965891,54.6407752 11.812093,55.5415504 11.6818605,56.919845 C11.6167442,58.2981395 11.5190698,60.1322481 11.4322481,61.9772093 C11.5190698,63.8113178 11.6167442,65.6562791 11.6818605,67.0345736 C11.812093,68.4020155 11.9965891,69.3136434 11.9965891,69.3136434 L7.63379845,69.8996899 C7.63379845,69.8996899 7.43844961,68.9229457 7.29736434,67.4469767 C7.23224806,65.9493023 7.12372093,63.9524031 7.02604651,61.9772093 C7.12372093,59.9803101 7.23224806,58.0051163 7.29736434,56.5074419 C7.43844961,55.0206202 7.63379845,54.0330233 7.63379845,54.0330233 L11.9965891,54.6407752 Z" id="Fill-11" fill-opacity="0.6" fill="#57B1DF"></path>
                    <g id="Group-15" transform="translate(116.124031, 45.720930)">
                        <mask id="mask-6" fill="white">
                            <use xlink:href="#path-5"></use>
                        </mask>
                        <g id="Clip-14"></g>
                        <path d="M2.28015504,16.2530233 C2.28015504,16.2530233 2.22589147,15.3305426 2.14992248,13.9522481 C2.06310078,12.5739535 2.07395349,10.7181395 1.71581395,8.91658915 C1.31426357,5.24837209 0.228992248,1.73209302 0.228992248,1.73209302 L4.46155039,0.538294574 C4.46155039,0.538294574 5.64449612,4.3475969 6.07860465,8.31968992 C6.45844961,10.2731783 6.45844961,12.2809302 6.55612403,13.7677519 C6.63209302,15.2545736 6.67550388,16.2530233 6.67550388,16.2530233 L2.28015504,16.2530233 Z" id="Fill-13" fill-opacity="0.6" fill="#57B1DF" mask="url(#mask-6)"></path>
                    </g>
                    <g id="Group-18" transform="translate(116.124031, 61.914729)">
                        <mask id="mask-8" fill="white">
                            <use xlink:href="#path-7"></use>
                        </mask>
                        <g id="Clip-17"></g>
                        <path d="M0.224651163,14.5790698 C0.224651163,14.5790698 1.32077519,11.0627907 1.71147287,7.39457364 C2.08046512,5.58217054 2.0696124,3.72635659 2.15643411,2.35891473 C2.2324031,0.980620155 2.27581395,0.0581395349 2.27581395,0.0581395349 L6.6820155,0.0581395349 C6.6820155,0.0581395349 6.62775194,1.05658915 6.55178295,2.54341085 C6.46496124,4.03023256 6.46496124,6.02713178 6.07426357,7.99147287 C5.64015504,11.9635659 4.46806202,15.7728682 4.46806202,15.7728682 L0.224651163,14.5790698 Z" id="Fill-16" fill-opacity="0.6" fill="#57B1DF" mask="url(#mask-8)"></path>
                    </g>
                    <path d="M92.592093,107.674729 C92.592093,107.674729 93.3843411,107.197209 94.5564341,106.48093 C95.6742636,105.656124 97.1502326,104.570853 98.6262016,103.474729 C100.037054,102.291783 101.361085,101.011163 102.392093,100.099535 C103.390543,99.1444961 103.965736,98.4282171 103.965736,98.4282171 L107.188992,101.434419 C107.188992,101.434419 106.548682,102.204961 105.474264,103.246822 C104.356434,104.234419 102.934729,105.623566 101.404496,106.893333 C99.7982946,108.065426 98.2355039,109.302636 97.0091473,110.149147 C95.7285271,110.91969 94.8711628,111.44062 94.8711628,111.44062 L92.592093,107.674729 Z" id="Fill-19" fill-opacity="0.6" fill="#57B1DF"></path>
                </g>
            </g>
        </g>
    </g>
</svg>