<?xml version="1.0" encoding="UTF-8" standalone="no"?>
<svg width="30px" height="31px" viewBox="0 0 30 31" version="1.1" xmlns="http://www.w3.org/2000/svg" xmlns:xlink="http://www.w3.org/1999/xlink">
    <!-- Generator: Sketch 48.2 (47327) - http://www.bohemiancoding.com/sketch -->
    <title>华数</title>
    <desc>Created with Sketch.</desc>
    <defs></defs>
    <g id="滨江小区智慧云平台／设备重要报警" stroke="none" stroke-width="1" fill="none" fill-rule="evenodd" transform="translate(-1055.000000, -674.000000)">
        <g id="小区点位" transform="translate(686.000000, 149.000000)" fill="#00BFA5" fill-rule="nonzero">
            <g id="华数" transform="translate(369.000000, 525.000000)">
                <path d="M17.630854,8.30890208 L28.738292,11.4497992 C29.4435262,11.6242935 29.9724518,12.3222706 29.9724518,13.194742 L29.9724518,30.9931589 L0,30.9931589 L0,6.04047643 C0,5.34249928 0.52892562,4.64452217 1.23415979,4.29553358 L15.338843,0.107670783 C16.2203857,-0.24131777 17.2782369,0.28216508 17.4545455,1.32913078 L17.4545455,8.30890208 L17.630854,8.30890208 Z M5.2892562,10.0538449 L5.2892562,13.5437306 L12.3415978,13.5437306 L12.3415978,10.0538449 L5.2892562,10.0538449 Z M5.2892562,17.0336163 L5.2892562,20.5235019 L12.3415978,20.5235019 L12.3415978,17.0336163 L5.2892562,17.0336163 Z M5.2892562,24.0133876 L5.2892562,27.5032733 L12.3415978,27.5032733 L12.3415978,24.0133876 L5.2892562,24.0133876 Z M21.1570248,18.7785591 L21.1570248,24.0133876 L24.6831956,24.0133876 L24.6831956,18.7785591 L21.1570248,18.7785591 Z" id="Shape"></path>
            </g>
        </g>
    </g>
</svg>