<?xml version="1.0" encoding="UTF-8" standalone="no"?>
<svg width="452px" height="258px" viewBox="0 0 452 258" version="1.1" xmlns="http://www.w3.org/2000/svg" xmlns:xlink="http://www.w3.org/1999/xlink">
    <!-- Generator: Sketch 48.2 (47327) - http://www.bohemiancoding.com/sketch -->
    <title>kuang wanhaolv</title>
    <desc>Created with Sketch.</desc>
    <defs>
        <path d="M351.251883,0 L338.204021,4.64180161 L113.655116,4.64180161 L99.2513617,0 L3.08219178,4.4408921e-16 C1.37994426,7.56787006e-16 -2.87300046e-15,1.37994426 -2.66453526e-15,3.08219178 L0,252.917808 C2.08465197e-16,254.620056 1.37994426,256 3.08219178,256 L446.917808,256 C448.620056,256 450,254.620056 450,252.917808 L450,3.08219178 C450,1.37994426 448.620056,2.87726566e-14 446.917808,-2.66453526e-15 L351.251883,0 Z" id="path-1"></path>
        <filter x="-0.4%" y="-0.7%" width="100.8%" height="101.5%" filterUnits="objectBoundingBox" id="filter-2">
            <feMorphology radius="1" operator="erode" in="SourceAlpha" result="shadowSpreadInner1"></feMorphology>
            <feGaussianBlur stdDeviation="1" in="shadowSpreadInner1" result="shadowBlurInner1"></feGaussianBlur>
            <feOffset dx="0" dy="0" in="shadowBlurInner1" result="shadowOffsetInner1"></feOffset>
            <feComposite in="shadowOffsetInner1" in2="SourceAlpha" operator="arithmetic" k2="-1" k3="1" result="shadowInnerInner1"></feComposite>
            <feColorMatrix values="0 0 0 0 0.0844689938   0 0 0 0 0.178911208   0 0 0 0 0.313828656  0 0 0 1 0" type="matrix" in="shadowInnerInner1"></feColorMatrix>
        </filter>
    </defs>
    <g id="滨江小区智慧云平台／安全事件报警" stroke="none" stroke-width="1" fill="none" fill-rule="evenodd" transform="translate(-19.000000, -793.000000)">
        <g id="Group-Copy-9" transform="translate(20.000000, 794.000000)">
            <g id="kuang-wanhaolv">
                <g id="Fill-1">
                    <use fill-opacity="0.8" fill="#07212D" fill-rule="evenodd" xlink:href="#path-1"></use>
                    <use fill="black" fill-opacity="1" filter="url(#filter-2)" xlink:href="#path-1"></use>
                    <use stroke="#00BFA5" stroke-width="0.770547945" xlink:href="#path-1"></use>
                </g>
                <g id="Group-6" transform="translate(30.000000, 68.000000)"></g>
                <g id="Group-2" transform="translate(138.000000, 16.000000)"></g>
                <polygon id="Fill-2" fill="#00BFA5" points="166.438356 5.40114972 282.791096 5.40114972 282.791096 3.08825397 166.438356 3.08825397"></polygon>
                <path d="M129.452055,4.63018447 L161.044521,4.63018447" id="Stroke-3" stroke="#00BFA5" stroke-width="0.770547945"></path>
                <path d="M288.184932,4.63018447 L319.777397,4.63018447" id="Stroke-4" stroke="#00BFA5" stroke-width="0.770547945"></path>
            </g>
        </g>
    </g>
</svg>