<?xml version="1.0" encoding="UTF-8" standalone="no"?>
<svg width="187px" height="239px" viewBox="0 0 187 239" version="1.1" xmlns="http://www.w3.org/2000/svg" xmlns:xlink="http://www.w3.org/1999/xlink">
    <!-- Generator: Sketch 50.2 (55047) - http://www.bohemiancoding.com/sketch -->
    <title>火警弹窗底框</title>
    <desc>Created with Sketch.</desc>
    <defs>
        <rect id="path-1" x="0" y="0" width="183.089638" height="235.400963"></rect>
        <filter x="-1.4%" y="-1.1%" width="102.8%" height="102.2%" filterUnits="objectBoundingBox" id="filter-2">
            <feMorphology radius="1" operator="erode" in="SourceAlpha" result="shadowSpreadInner1"></feMorphology>
            <feGaussianBlur stdDeviation="1.5" in="shadowSpreadInner1" result="shadowBlurInner1"></feGaussianBlur>
            <feOffset dx="0" dy="0" in="shadowBlurInner1" result="shadowOffsetInner1"></feOffset>
            <feComposite in="shadowOffsetInner1" in2="SourceAlpha" operator="arithmetic" k2="-1" k3="1" result="shadowInnerInner1"></feComposite>
            <feColorMatrix values="0 0 0 0 0.0844689938   0 0 0 0 0.178911208   0 0 0 0 0.313828656  0 0 0 1 0" type="matrix" in="shadowInnerInner1"></feColorMatrix>
        </filter>
    </defs>
    <g id="Page-1" stroke="none" stroke-width="1" fill="none" fill-rule="evenodd">
        <g id="滨江小区智慧云平台" transform="translate(-772.000000, -366.000000)">
            <g id="Group-6-Copy-2" transform="translate(772.000000, 366.000000)">
                <g id="火警弹窗底框">
                    <g id="Group-2-Copy-3" transform="translate(1.569340, 1.569340)">
                        <g id="Group-2-Copy-2">
                            <g id="Rectangle">
                                <use fill-opacity="0.8" fill="#07212D" fill-rule="evenodd" xlink:href="#path-1"></use>
                                <use fill="black" fill-opacity="1" filter="url(#filter-2)" xlink:href="#path-1"></use>
                                <use stroke="#4DA1FF" stroke-width="1.20925152" xlink:href="#path-1"></use>
                            </g>
                        </g>
                    </g>
                    <polygon id="Combined-Shape" fill="#4DA1FF" points="20.4014168 3.92334938 3.92334938 3.92334938 3.92334938 20.4014168 0 20.4014168 0 0 20.4014168 0"></polygon>
                    <polygon id="Combined-Shape" fill="#4DA1FF" transform="translate(176.289165, 10.200708) scale(-1, 1) translate(-176.289165, -10.200708) " points="186.489874 3.92334938 170.011806 3.92334938 170.011806 20.4014168 166.088457 20.4014168 166.088457 0 186.489874 0"></polygon>
                    <polygon id="Combined-Shape" fill="#4DA1FF" transform="translate(10.200708, 228.600490) scale(1, -1) translate(-10.200708, -228.600490) " points="20.4014168 222.323131 3.92334938 222.323131 3.92334938 238.801199 0 238.801199 0 218.399782 20.4014168 218.399782"></polygon>
                    <polygon id="Combined-Shape" fill="#4DA1FF" transform="translate(176.289165, 228.600490) scale(-1, -1) translate(-176.289165, -228.600490) " points="186.489874 222.323131 170.011806 222.323131 170.011806 238.801199 166.088457 238.801199 166.088457 218.399782 186.489874 218.399782"></polygon>
                </g>
            </g>
        </g>
    </g>
</svg>