<?xml version="1.0" encoding="UTF-8" standalone="no"?>
<svg width="1882px" height="123px" viewBox="0 0 1882 123" version="1.1" xmlns="http://www.w3.org/2000/svg" xmlns:xlink="http://www.w3.org/1999/xlink">
    <!-- Generator: Sketch 48.2 (47327) - http://www.bohemiancoding.com/sketch -->
    <title>zhongjiankuang</title>
    <desc>Created with Sketch.</desc>
    <defs>
        <path d="M1467.45231,0 L1412.94124,2.19397654 L474.82582,2.19397654 L414.650133,0 L3.08219178,0 C1.37994426,3.12697796e-16 -2.87300046e-15,1.37994426 -2.66453526e-15,3.08219178 L0,117.917808 C7.76796274e-15,119.620056 1.37994426,121 3.08219178,121 L155.910886,121 L259.133155,121 L1876.91781,121 C1878.62006,121 1880,119.620056 1880,117.917808 L1880,3.08219178 C1880,1.37994426 1878.62006,4.1281943e-15 1876.91781,4.4408921e-15 L1467.45231,0 Z" id="path-1"></path>
        <filter x="-0.1%" y="-1.6%" width="100.2%" height="103.1%" filterUnits="objectBoundingBox" id="filter-2">
            <feMorphology radius="1" operator="erode" in="SourceAlpha" result="shadowSpreadInner1"></feMorphology>
            <feGaussianBlur stdDeviation="1" in="shadowSpreadInner1" result="shadowBlurInner1"></feGaussianBlur>
            <feOffset dx="0" dy="0" in="shadowBlurInner1" result="shadowOffsetInner1"></feOffset>
            <feComposite in="shadowOffsetInner1" in2="SourceAlpha" operator="arithmetic" k2="-1" k3="1" result="shadowInnerInner1"></feComposite>
            <feColorMatrix values="0 0 0 0 0.0844689938   0 0 0 0 0.178911208   0 0 0 0 0.313828656  0 0 0 1 0" type="matrix" in="shadowInnerInner1"></feColorMatrix>
        </filter>
    </defs>
    <g id="滨江小区智慧云平台／安全事件报警" stroke="none" stroke-width="1" fill="none" fill-rule="evenodd" transform="translate(-19.000000, -26.000000)">
        <g id="zhongjiankuang" transform="translate(20.000000, 27.000000)">
            <g id="Group-Copy-8">
                <g id="kuang-renwu-copy-4">
                    <g id="Fill-1">
                        <use fill-opacity="0.8" fill="#07212D" fill-rule="evenodd" xlink:href="#path-1"></use>
                        <use fill="black" fill-opacity="1" filter="url(#filter-2)" xlink:href="#path-1"></use>
                        <use stroke="#00BFA5" stroke-width="0.770547945" xlink:href="#path-1"></use>
                    </g>
                    <g id="Group-2" transform="translate(1761.000000, 30.000000)"></g>
                    <polygon id="Fill-2" fill="#00BFA5" points="881.438356 17.088254 997.791096 17.088254 997.791096 12.088254 881.438356 12.088254"></polygon>
                    <path d="M844.452055,13.6301845 L876.044521,13.6301845" id="Stroke-3" stroke="#00BFA5" stroke-width="0.770547945"></path>
                    <path d="M1003.18493,13.6301845 L1034.7774,13.6301845" id="Stroke-4" stroke="#00BFA5" stroke-width="0.770547945"></path>
                </g>
            </g>
            <rect id="Rectangle-23" fill-opacity="0.6" fill="#57B1DF" x="17" y="14" width="20" height="20"></rect>
            <rect id="Rectangle-23-Copy" fill-opacity="0.6" fill="#57B1DF" x="17" y="99" width="47" height="8"></rect>
            <rect id="Rectangle-23-Copy-2" fill-opacity="0.6" fill="#57B1DF" x="17" y="86" width="32" height="8"></rect>
        </g>
    </g>
</svg>