<?xml version="1.0" encoding="UTF-8" standalone="no"?>
<svg width="28px" height="28px" viewBox="0 0 28 28" version="1.1" xmlns="http://www.w3.org/2000/svg" xmlns:xlink="http://www.w3.org/1999/xlink">
    <!-- Generator: Sketch 48.2 (47327) - http://www.bohemiancoding.com/sketch -->
    <title>baojing</title>
    <desc>Created with Sketch.</desc>
    <defs>
        <path d="M11.9576171,9.03517588 C8.66746304,9.03517588 6,11.659615 6,14.897408 L6,22.1005025 L18,22.1005025 L18,14.897408 C18,11.659589 15.3331453,9.03517588 12.0429647,9.03517588 L11.9576171,9.03517588 Z M4.97973403,11.4244754 C5.09107984,11.0030309 4.73237931,10.5926624 4.17949168,10.5077879 L1.22270363,10.0554915 C0.669815999,9.97110494 0.130818758,10.2445071 0.0201131837,10.6659516 C-0.00331596528,10.7550645 -0.00630155248,10.8465989 0.011289028,10.9364892 C0.0739210475,11.2508857 0.387693547,11.5161187 0.820383373,11.5826391 L3.77717142,12.0349356 C4.33067145,12.1193433 4.86902846,11.846408 4.97973403,11.4244754 Z M4.22838621,5.52688545 L6.14682487,7.6798114 C6.50572398,8.08228906 7.16045894,8.14765956 7.6096145,7.82556547 C8.05811787,7.50344593 8.13093552,6.9159003 7.77200805,6.51286284 L5.85297392,4.36047124 C5.49469864,3.95801903 4.83996368,3.89264853 4.39080812,4.21418281 C4.08921604,4.43047289 3.95775865,4.76587518 4.01188983,5.08506844 C4.03916188,5.24695672 4.11388709,5.39943292 4.22841457,5.52688545 L4.22838621,5.52688545 Z M11.4901402,7.02483894 C11.7654417,7.03803153 11.9935354,6.59426813 12,6.03426057 L11.9966047,3.03862944 C12.0030965,2.47859422 11.7851885,2.01347928 11.5101994,2.00028669 C11.2348843,1.9870941 11.0064917,2.4308575 11,2.99086506 L11.0033953,5.98644088 C11.0027841,6.04681704 11.0046311,6.10652942 11.0089635,6.1643611 C11.0447631,6.64200485 11.2447713,7.01349939 11.4901402,7.02483894 Z M16.3438204,7.79243945 C16.7633684,8.14024953 17.4035758,8.10189844 17.7729326,7.70682505 L19.7475814,5.59348772 C20.1169382,5.19784271 20.0761561,4.59555391 19.6566632,4.24774382 C19.2365082,3.89993373 18.5969078,3.93833679 18.227551,4.33335821 L16.2523228,6.44674751 C16.0466187,6.66698046 15.9682276,6.95159959 16.0115207,7.22083672 C16.0459565,7.43459987 16.1582038,7.63833354 16.3438204,7.79246543 L16.3438204,7.79243945 Z M23.9883467,12.7488361 C23.9039762,12.299691 23.3853436,11.991104 22.8307304,12.0598258 L19.8640217,12.4249452 C19.308799,12.4931741 18.9273587,12.9122492 19.0116739,13.3613943 C19.0960445,13.8104946 19.6147324,14.1190816 20.1699273,14.0508528 L23.1360267,13.6852628 C23.6912216,13.6170339 24.0726619,13.197914 23.988319,12.7488137 L23.9883467,12.7488361 Z M20.9999728,25.1155779 C20.9999728,25.670947 20.363793,26.120603 19.5786993,26.120603 L5.42127351,26.120603 C4.63617978,26.120603 4,25.670947 4,25.1155779 C4,24.5602087 4.63617978,24.1105528 5.42127351,24.1105528 L19.5787265,24.1105528 C20.3638202,24.1105528 21,24.5602087 21,25.1155779 L20.9999728,25.1155779 Z" id="path-1"></path>
        <filter x="-12.5%" y="-12.4%" width="125.0%" height="124.9%" filterUnits="objectBoundingBox" id="filter-2">
            <feOffset dx="0" dy="0" in="SourceAlpha" result="shadowOffsetOuter1"></feOffset>
            <feGaussianBlur stdDeviation="1" in="shadowOffsetOuter1" result="shadowBlurOuter1"></feGaussianBlur>
            <feColorMatrix values="0 0 0 0 0.726349915   0 0 0 0 0.726349915   0 0 0 0 0.726349915  0 0 0 0.416779891 0" type="matrix" in="shadowBlurOuter1"></feColorMatrix>
        </filter>
    </defs>
    <g id="实时概况" stroke="none" stroke-width="1" fill="none" fill-rule="evenodd" transform="translate(-544.000000, -553.000000)">
        <g id="弹窗" transform="translate(440.000000, 253.000000)" fill-rule="nonzero">
            <g id="Group-14" transform="translate(106.000000, 299.497487)">
                <g id="Group-19" transform="translate(0.000000, 0.000000)">
                    <g id="baojing">
                        <use fill="black" fill-opacity="1" filter="url(#filter-2)" xlink:href="#path-1"></use>
                        <use fill="#ED5E5E" fill-rule="evenodd" xlink:href="#path-1"></use>
                    </g>
                </g>
            </g>
        </g>
    </g>
</svg>