<?xml version="1.0" encoding="UTF-8" standalone="no"?>
<svg width="12px" height="12px" viewBox="0 0 12 12" version="1.1" xmlns="http://www.w3.org/2000/svg" xmlns:xlink="http://www.w3.org/1999/xlink">
    <!-- Generator: Sketch 48.2 (47327) - http://www.bohemiancoding.com/sketch -->
    <title>chaobiao</title>
    <desc>Created with Sketch.</desc>
    <defs></defs>
    <g id="总表数据维护" stroke="none" stroke-width="1" fill="none" fill-rule="evenodd" transform="translate(-1164.000000, -184.000000)">
        <g id="筛选项目" transform="translate(260.000000, 160.000000)" fill="#00BFA5" fill-rule="nonzero">
            <g id="Group-7-Copy" transform="translate(896.000000, 15.000000)">
                <g id="chaobiao">
                    <path d="M9.66670598,9.03434669 L15.4258858,9.03434669 C15.6099986,9.03434669 15.7585809,9.18278791 15.7585809,9.36672595 C15.7585809,9.55066398 15.6099986,9.69910521 15.4258858,9.69910521 L9.66670598,9.69910521 C9.3921517,9.69910521 9.14020778,9.81204962 8.95932496,9.99276067 C8.77844214,10.1734717 8.66539037,10.4219494 8.66539037,10.69947 L8.66539037,19.3381037 C8.66539037,19.6123973 8.77844214,19.864102 8.95932496,20.044813 C9.14020778,20.2255241 9.38892165,20.3384685 9.66670598,20.3384685 L18.3103207,20.3384685 C18.584875,20.3384685 18.8368189,20.2255241 19.0177018,20.044813 C19.1985846,19.864102 19.3116363,19.6156243 19.3116363,19.3381037 L19.3116363,13.5908468 C19.3116363,13.4069088 19.4602187,13.2584676 19.6443315,13.2584676 C19.8252143,13.2584676 19.9737967,13.4036818 19.9770267,13.5843929 L19.9770267,19.3348767 C19.9770267,19.7931083 19.7896838,20.2093891 19.4860591,20.5094986 C19.1824343,20.812835 18.7657578,21 18.3103207,21 L9.66670598,21 C9.20803883,21 8.79136234,20.812835 8.49096765,20.5094986 C8.18734292,20.2061622 8,19.7898813 8,19.3348767 L8,10.69947 C8,10.2412384 8.18734292,9.82495755 8.49096765,9.52484812 C8.79459239,9.22151171 9.21126888,9.03434669 9.66670598,9.03434669 Z M11.7920791,15.1301178 L17.6675407,9.26023551 C17.6804609,9.24732757 17.6933811,9.23441964 17.7095314,9.22473869 C18.1229778,8.88267848 18.6785465,8.96335306 19.1372136,9.25055456 C19.292256,9.34413707 19.4343783,9.46353544 19.5603502,9.59906873 C19.6863222,9.73460202 19.7929138,9.88627023 19.870435,10.0411654 C20.0674681,10.4509923 20.061008,10.889862 19.7024724,11.2254682 L13.8883818,17.0340378 C13.8431611,17.0792155 13.7882502,17.1082584 13.7301093,17.1211663 L11.5853559,17.7310661 C11.4077031,17.7826979 11.2235903,17.6794344 11.1719094,17.5019503 C11.1525291,17.4341837 11.1557592,17.366417 11.1751395,17.3051044 L11.6984077,15.2850129 C11.721018,15.2237003 11.7500885,15.1720685 11.7920791,15.1301178 Z M18.7819081,11.1996523 L19.227655,10.7543287 L19.2405752,10.7414207 C19.353627,10.6413843 19.3439368,10.4832621 19.2664156,10.3251399 C19.2211949,10.2283304 19.1533639,10.1347479 19.0726126,10.0476194 C18.9886313,9.95726385 18.8917298,9.87658928 18.7851381,9.81204962 C18.5525745,9.66683538 18.2941705,9.60874968 18.132668,9.73137504 L17.7127614,10.1573368 L18.7819081,11.1996523 Z M18.3135508,11.6707919 L17.2444041,10.6284763 L12.6577326,15.2075653 L13.7268793,16.2498809 L18.3135508,11.6707919 Z M12.2701266,15.7593795 L11.9665018,16.9307743 L13.13255,16.5983951 L12.2701266,15.7593795 Z"></path>
                </g>
            </g>
        </g>
    </g>
</svg>