<?xml version="1.0" encoding="UTF-8" standalone="no"?>
<svg width="16px" height="21px" viewBox="0 0 16 21" version="1.1" xmlns="http://www.w3.org/2000/svg" xmlns:xlink="http://www.w3.org/1999/xlink">
    <!-- Generator: Sketch 48.2 (47327) - http://www.bohemiancoding.com/sketch -->
    <title>dingdian</title>
    <desc>Created with Sketch.</desc>
    <defs></defs>
    <g id="实时概况" stroke="none" stroke-width="1" fill="none" fill-rule="evenodd" transform="translate(-476.000000, -600.000000)">
        <g id="弹窗" transform="translate(440.000000, 253.000000)" fill="#666666" fill-rule="nonzero">
            <g id="1号" transform="translate(36.000000, 127.638191)">
                <g id="Group-15" transform="translate(0.000000, 220.100503)">
                    <path d="M15.3164548,7.34471527 C15.3164548,3.28848787 11.6657347,0 7.6081522,0 C3.55054324,0 0,3.28846132 0,7.34471527 C0,11.1058318 7.52316572,20.1115578 7.52316572,20.1115578 C7.52316572,20.1115578 15.3164548,11.2315228 15.3164548,7.34471527 Z M5.1832505,7.60446059 C5.1832505,6.21670953 6.32735817,5.09040303 7.73654333,5.09040303 C9.14744567,5.09040303 10.2898098,6.21495718 10.2898098,7.60446059 C10.2898098,8.99393745 9.14578134,10.1186509 7.73654333,10.1186509 C6.32735817,10.1169782 5.1832505,8.99231786 5.1832505,7.60446059 Z" id="dingdian"></path>
                </g>
            </g>
        </g>
    </g>
</svg>