<?xml version="1.0" encoding="UTF-8" standalone="no"?>
<svg width="27px" height="26px" viewBox="0 0 27 26" version="1.1" xmlns="http://www.w3.org/2000/svg" xmlns:xlink="http://www.w3.org/1999/xlink">
    <!-- Generator: Sketch 48.2 (47327) - http://www.bohemiancoding.com/sketch -->
    <title>Group Copy 5</title>
    <desc>Created with Sketch.</desc>
    <defs></defs>
    <g id="电表结构图" stroke="none" stroke-width="1" fill="none" fill-rule="evenodd" transform="translate(-1374.000000, -292.000000)">
        <g id="Group-Copy-5" transform="translate(1374.000000, 292.000000)">
            <ellipse id="Oval-2" fill="#00BFA5" opacity="0.3" cx="13.5786164" cy="13" rx="12.7798742" ry="13"></ellipse>
            <path d="M22.4102793,9.20484188 C21.9275119,8.04380874 21.2364171,7.00110693 20.3561455,6.10571236 C19.4759124,5.21029821 18.4508664,4.50728014 17.3094928,4.01621687 C16.1277971,3.50778765 14.8725594,3.25 13.5786164,3.25 C12.2846733,3.25 11.0294164,3.50778765 9.8477207,4.01621687 C8.70634705,4.5072997 7.68130106,5.21029818 6.80106798,6.10571236 C5.9208349,7.00112653 5.22970162,8.04382832 4.7469534,9.20484188 C4.24713329,10.4068916 3.99371069,11.6837696 3.99371069,13 C3.99371069,14.3162304 4.24713329,15.5930889 4.7469534,16.7951581 C5.22972085,17.9561913 5.92081563,18.9988931 6.80106798,19.8942876 C7.68132031,20.7897018 8.7063663,21.4927199 9.8477207,21.9838027 C11.0294164,22.4922123 12.2846733,22.75 13.5786164,22.75 C14.8725594,22.75 16.1277971,22.4922123 17.309512,21.9837831 C18.4508857,21.4927003 19.4759316,20.7897018 20.3561647,19.8942681 C21.2364171,18.9988735 21.9275311,17.9561717 22.4102986,16.7951386 C22.9100994,15.5930889 23.163522,14.3162304 23.163522,13 C23.163522,11.6837696 22.9100994,10.4068916 22.4102793,9.20484188 Z" id="Shape" fill="#00BFA5" fill-rule="nonzero"></path>
            <path d="M10.3250568,17.4302632 C10.3250568,17.0053684 10.6819581,16.6605263 11.1217116,16.6605263 L19.0882599,16.6605263 C19.5280134,16.6605263 19.8849148,17.0053684 19.8849148,17.4302632 C19.8849148,17.8551579 19.5280134,18.2 19.0882599,18.2 L11.1217116,18.2 C10.6819581,18.2 10.3250568,17.8551579 10.3250568,17.4302632 Z M12.8408089,13.325 C12.8408089,12.9001053 13.1914488,12.5552632 13.6234873,12.5552632 L19.1022363,12.5552632 C19.5342748,12.5552632 19.8849148,12.9001053 19.8849148,13.325 C19.8849148,13.7498947 19.5342748,14.0947368 19.1022363,14.0947368 L13.6234873,14.0947368 C13.1914488,14.0947368 12.8408089,13.7498947 12.8408089,13.325 Z M10.3250568,9.21973684 C10.3250568,8.79484211 10.6819581,8.45 11.1217116,8.45 L19.0882599,8.45 C19.5280134,8.45 19.8849148,8.79484211 19.8849148,9.21973684 C19.8849148,9.64463158 19.5280134,9.98947368 19.0882599,9.98947368 L11.1217116,9.98947368 C10.6819581,9.98947368 10.3250568,9.64463158 10.3250568,9.21973684 Z M10.8282072,11.0157895 L10.8282072,16.1473684 L7.80930467,13.5815789 L10.8282072,11.0157895 Z" id="Combined-Shape" fill="#FFFFFF" fill-rule="nonzero" transform="translate(13.847110, 13.325000) scale(-1, 1) translate(-13.847110, -13.325000) "></path>
        </g>
    </g>
</svg>