<?xml version="1.0" encoding="utf-8"?>
<!-- Generator: Adobe Illustrator 19.0.0, SVG Export Plug-In . SVG Version: 6.00 Build 0)  -->
<svg version="1.1" id="图层_1" xmlns="http://www.w3.org/2000/svg" xmlns:xlink="http://www.w3.org/1999/xlink" x="0px" y="0px"
	 viewBox="0 0 15 15" style="enable-background:new 0 0 15 15;" xml:space="preserve">
<style type="text/css">
	.st0{clip-path:url(#XMLID_7_);}
	.st1{clip-path:url(#XMLID_8_);fill:#F20000;}
</style>
<g id="XMLID_2_">
	<defs>
		<path id="XMLID_3_" d="M12.8,4.9L8,0.2C7.7-0.1,7.3-0.1,7,0.2L2.2,4.9c-0.3,0.2-0.3,0.6,0,0.9C2.4,6,2.9,6,3.1,5.8l3.7-3.6v12.2
			c0,0.4,0.3,0.6,0.7,0.6c0.4,0,0.7-0.3,0.7-0.6V2.2l3.7,3.6c0.3,0.2,0.7,0.2,0.9,0C13.1,5.6,13.1,5.2,12.8,4.9"/>
	</defs>
	<clipPath id="XMLID_7_">
		<use xlink:href="#XMLID_3_"  style="overflow:visible;"/>
	</clipPath>
	<g id="XMLID_4_" class="st0">
		<defs>
			<rect id="XMLID_5_" x="-652" y="-248" width="1920" height="1080"/>
		</defs>
		<clipPath id="XMLID_8_">
			<use xlink:href="#XMLID_5_"  style="overflow:visible;"/>
		</clipPath>
		<rect id="XMLID_6_" x="-3" y="-5" class="st1" width="21" height="25"/>
	</g>
</g>
</svg>
