<?xml version="1.0" encoding="utf-8"?>
<!-- Generator: Adobe Illustrator 19.0.0, SVG Export Plug-In . SVG Version: 6.00 Build 0)  -->
<svg version="1.1" id="图层_1" xmlns="http://www.w3.org/2000/svg" xmlns:xlink="http://www.w3.org/1999/xlink" x="0px" y="0px"
	 viewBox="0 0 15 15" style="enable-background:new 0 0 15 15;" xml:space="preserve">
<style type="text/css">
	.st0{clip-path:url(#XMLID_7_);}
	.st1{clip-path:url(#XMLID_8_);fill:#069B1A;}
</style>
<g id="XMLID_2_">
	<defs>
		<path id="XMLID_3_" d="M2.2,10.1L7,14.8c0.3,0.2,0.7,0.2,0.9,0l4.9-4.7c0.3-0.2,0.3-0.6,0-0.9c-0.3-0.2-0.7-0.2-0.9,0l-3.7,3.6
			V0.6C8.2,0.3,7.9,0,7.5,0C7.1,0,6.8,0.3,6.8,0.6v12.2L3.1,9.2C2.9,9,2.4,9,2.2,9.2C1.9,9.4,1.9,9.8,2.2,10.1"/>
	</defs>
	<clipPath id="XMLID_7_">
		<use xlink:href="#XMLID_3_"  style="overflow:visible;"/>
	</clipPath>
	<g id="XMLID_4_" class="st0">
		<defs>
			<rect id="XMLID_5_" x="-1620" y="-497" width="1920" height="1080"/>
		</defs>
		<clipPath id="XMLID_8_">
			<use xlink:href="#XMLID_5_"  style="overflow:visible;"/>
		</clipPath>
		<rect id="XMLID_6_" x="-3" y="-5" class="st1" width="21" height="25"/>
	</g>
</g>
</svg>
