<?xml version="1.0" encoding="UTF-8" standalone="no"?>
<svg width="18px" height="18px" viewBox="0 0 18 18" version="1.1" xmlns="http://www.w3.org/2000/svg" xmlns:xlink="http://www.w3.org/1999/xlink">
    <!-- Generator: Sketch 46 (44423) - http://www.bohemiancoding.com/sketch -->
    <title>chukouzongliuliang</title>
    <desc>Created with Sketch.</desc>
    <defs></defs>
    <g id="Page-1" stroke="none" stroke-width="1" fill="none" fill-rule="evenodd">
        <g id="停车场系统／统计分析" transform="translate(-824.000000, -310.000000)" fill-rule="nonzero" fill="#FFFFFF">
            <g id="内容区域" transform="translate(240.000000, 100.000000)">
                <g id="Group-3" transform="translate(60.000000, 110.000000)">
                    <g id="今日-copy" transform="translate(395.000000, 0.000000)">
                        <g id="Group-6" transform="translate(129.000000, 96.000000)">
                            <g id="出入口_出" transform="translate(0.000000, 4.000000)">
                                <path d="M13.4932814,13.4932913 L10.123303,13.4932913 L12.3700081,10.1233129 L7.87665737,10.1233129 L7.87665737,7.87666726 L12.3699883,7.87666726 L10.123303,4.50666908 L13.4932814,4.50666908 L17.9866321,8.99996038 L13.4932814,13.4932913 Z M5.69085552,6.47690323 C5.55156045,6.20922614 5.63438882,5.86478127 5.8746149,5.70900765 L9.3575861,3.46234219 C9.59838656,3.30876705 9.90607163,3.40090421 10.0448319,3.6685813 C10.1836319,3.93625839 10.1013581,4.28068345 9.86053781,4.43647688 L6.37760621,6.68314235 C6.13676615,6.8367175 5.82961585,6.74456052 5.69085552,6.47690323 Z M10.0448517,14.3292202 C9.90609143,14.599076 9.59840636,14.691233 9.3576059,14.5354395 L5.8746149,12.2887939 C5.63438882,12.1330401 5.55154063,11.7907541 5.69085552,11.5208983 C5.82961583,11.2532212 6.13678595,11.161084 6.37760621,11.3168577 L9.86055759,13.5635231 C10.101358,13.7170983 10.1836517,14.0615629 10.0448517,14.3292202 Z M11.2466159,3.38335616 C10.6262943,3.38335616 10.1232832,2.87872095 10.1232832,2.26002343 L2.26001354,2.26002343 L2.26001354,15.7399766 L10.123303,15.7399766 C10.123303,15.1190608 10.6262943,14.6166438 11.2466358,14.6166438 C11.866997,14.6166438 12.3700081,15.1190607 12.3700081,15.7399766 C12.3700081,15.9483745 12.3700081,16.6526931 12.3700081,16.8632895 C12.3700081,17.4820266 11.8670168,17.986642 11.2466358,17.986642 L1.1366808,17.986642 C0.516339387,17.986642 0.0133480645,17.4820266 0.0133480645,16.8632895 L0.0133480645,1.13669071 C0.0133480645,0.515794723 0.516339368,0.0133579742 1.1366808,0.0133579742 L11.2466357,0.0133579742 C11.866997,0.0133579742 12.3700081,0.515794723 12.3700081,1.13669071 L12.3700081,2.26004325 C12.3699883,2.87874077 11.866997,3.38335616 11.2466159,3.38335616 Z" id="chukouzongliuliang"></path>
                            </g>
                        </g>
                    </g>
                </g>
            </g>
        </g>
    </g>
</svg>