<?xml version="1.0" encoding="UTF-8" standalone="no"?>
<svg width="20px" height="14px" viewBox="0 0 20 14" version="1.1" xmlns="http://www.w3.org/2000/svg" xmlns:xlink="http://www.w3.org/1999/xlink">
    <!-- Generator: Sketch 46 (44423) - http://www.bohemiancoding.com/sketch -->
    <title>fangkecheliuliang</title>
    <desc>Created with Sketch.</desc>
    <defs></defs>
    <g id="Page-1" stroke="none" stroke-width="1" fill="none" fill-rule="evenodd">
        <g id="停车场系统／统计分析" transform="translate(-1217.000000, -313.000000)" fill-rule="nonzero" fill="#FFFFFF">
            <g id="内容区域" transform="translate(240.000000, 100.000000)">
                <g id="Group-3" transform="translate(60.000000, 110.000000)">
                    <g id="今日-copy-2" transform="translate(790.000000, 0.000000)">
                        <path d="M145.760646,107.2054 C145.747191,107.189829 145.73576,107.174626 145.71989,107.159355 L145.019025,106.478821 C145.600247,106.346136 146.226019,105.856177 146.226019,105.353476 C146.226019,104.767723 145.418619,104.559922 144.728794,104.559922 C144.008401,104.559922 143.924683,105.056988 143.91569,105.408053 L142.107442,103.653877 C141.740047,103.287977 141.043736,103 140.522865,103 L137.000575,103 L136.99977,103 L133.477181,103 C132.956678,103 132.260343,103.287977 131.892603,103.653877 L130.084746,105.408054 C130.075271,105.056965 129.991575,104.559922 129.27162,104.559922 C128.581357,104.559922 127.773958,104.767723 127.773958,105.353476 C127.773958,105.856177 128.400075,106.346136 128.981412,106.478821 L128.280523,107.159355 C128.264654,107.174626 128.253545,107.189829 128.239653,107.2054 C127.489891,107.85056 127,109.046215 127,109.914379 L127,112.493343 C127,113.119644 127.245336,113.687595 127.641757,114.111016 L127.641757,115.110922 C127.641757,115.69564 128.128243,116.172628 128.726692,116.172628 L130.038632,116.172628 C130.636989,116.172628 131.12313,115.69656 131.12313,115.110922 L131.12313,114.855006 L136.999793,114.855006 L137.000598,114.855006 L142.876892,114.855006 L142.876892,115.110922 C142.876892,115.69656 143.363011,116.172628 143.961873,116.172628 L145.2734,116.172628 C145.872101,116.172628 146.358404,115.69564 146.358404,115.110922 L146.358404,114.111016 C146.754663,113.687595 147,113.119644 147,112.493343 L147,109.914379 C147.00046,109.046215 146.510523,107.85056 145.760646,107.2054 Z M132.556716,104.433447 C132.810976,104.220356 133.255419,104.058509 133.477181,104.058509 L136.99977,104.058509 L137.000575,104.058509 L140.523256,104.058509 C140.744971,104.058509 141.189438,104.220379 141.443721,104.433447 L143.81486,106.7458 L137.000575,106.7458 L136.99977,106.7458 L130.185875,106.7458 L132.556716,104.433447 Z M127.813563,109.523778 C127.813563,108.888921 128.307456,108.373478 128.917243,108.373478 C129.526685,108.373478 131.51824,109.549767 131.51824,110.184808 C131.51824,110.819642 129.526685,110.672997 128.917243,110.672997 C128.307456,110.672974 127.813563,110.159279 127.813563,109.523778 Z M131.123567,113.723911 L130.913259,113.723911 L130.703066,113.723911 L129.456123,113.725981 C129.109956,113.617745 128.865885,113.490948 128.693273,113.354929 C128.605806,113.286413 128.5389,113.215023 128.486622,113.144023 C128.433976,113.07231 128.395613,113.001771 128.370728,112.931254 C128.215573,112.490123 128.536048,112.084618 128.536048,112.084618 L130.664289,112.084618 L132.083201,113.723428 L131.12359,113.723428 L131.12359,113.723911 L131.123567,113.723911 Z M140.06039,113.724555 L137.000575,113.724555 L136.99977,113.724555 L133.940001,113.724555 C133.302039,113.724555 132.78402,113.20396 132.78402,112.561835 L136.999747,112.561835 L137.000552,112.561835 L141.216324,112.561835 C141.216324,113.204213 140.698397,113.724555 140.06039,113.724555 Z M140.32891,111.768949 L137.000575,111.768949 L136.99977,111.768949 L133.671458,111.768949 C132.977562,111.768949 132.414233,110.908098 132.414233,109.846347 L136.99977,109.846347 L137.000575,109.846347 L141.58618,109.846347 C141.58618,110.908282 141.022829,111.768949 140.32891,111.768949 Z M145.630054,112.931461 C145.604847,113.002231 145.566437,113.072816 145.513722,113.144253 C145.461858,113.215483 145.394976,113.286919 145.307209,113.355389 C145.135035,113.491385 144.890503,113.618688 144.544337,113.726211 L143.297324,113.724118 L143.087016,113.724118 L142.876846,113.724118 L141.916799,113.724118 L143.336078,112.085538 L145.463951,112.085538 C145.463951,112.085101 145.784864,112.490123 145.630054,112.931461 Z M145.083171,110.672974 C144.474073,110.672974 142.482519,110.819366 142.482519,110.184785 C142.482519,109.550159 144.474073,108.373455 145.083171,108.373455 C145.692981,108.373455 146.186827,108.888898 146.186827,109.523755 C146.18685,110.158842 145.692981,110.672974 145.083171,110.672974 Z" id="fangkecheliuliang"></path>
                    </g>
                </g>
            </g>
        </g>
    </g>
</svg>