<?xml version="1.0" encoding="UTF-8" standalone="no"?>
<svg width="20px" height="20px" viewBox="0 0 20 20" version="1.1" xmlns="http://www.w3.org/2000/svg" xmlns:xlink="http://www.w3.org/1999/xlink">
    <!-- Generator: Sketch 48.2 (47327) - http://www.bohemiancoding.com/sketch -->
    <title>lixian</title>
    <desc>Created with Sketch.</desc>
    <defs></defs>
    <g id="Page-1" stroke="none" stroke-width="1" fill="none" fill-rule="evenodd">
        <g id="lixian" fill="#E20000" fill-rule="nonzero">
            <g id="监控设备" transform="translate(0.000000, 2.000000)">
                <path d="M18.4297919,8.84819277 C18.3176342,12.9910186 14.5953998,16.320701 10.0179628,16.320701 C5.44052574,16.320701 1.77437021,13.0120482 1.62015334,8.89025192 C0.980004248,8.61291551 0.432682705,8.1580305 0.0429353779,7.57940854 C-0.0271631982,6.45783133 0.0429353779,3.3033954 0.0429353779,2.57437021 C3.17634173,-0.832420591 16.7544359,-0.86746988 20,2.54633078 L20,7.57940854 C19.6047323,8.14515969 19.0615366,8.59135618 18.4297919,8.86922234 L18.4297919,8.84819277 Z M6.90558598,13.5027382 L7.09485214,13.5027382 C7.52245345,14.203724 8.66506024,14.7575027 10.0249726,14.7575027 C11.384885,14.7575027 12.5204819,14.2317634 12.9550931,13.5027382 L13.1443593,13.5027382 L13.1443593,9.43702081 L13.0812705,9.43702081 C12.7846836,7.98481098 11.5071593,6.94182647 10.0249726,6.94182647 C8.54278598,6.94182647 7.26526169,7.98481098 6.9686747,9.43702081 L6.90558598,9.43702081 L6.90558598,13.5027382 Z M18.4438116,3.22628697 C15.5767798,1.12332968 5.37042716,0.997152245 1.62015334,3.17020811 L1.62015334,5.79890471 C4.58532311,3.93428258 15.373494,3.96232202 18.4438116,5.79890471 L18.4438116,3.22628697 Z M10.0319825,10.0538883 C10.9395329,10.102912 11.6359045,10.877704 11.5881709,11.7853231 C11.631909,12.6902709 10.9366572,13.4606851 10.0319825,13.5097481 C9.59491795,13.4897696 9.183755,13.2967414 8.88918488,12.9732403 C8.59461475,12.6497392 8.44083829,12.2223428 8.46177437,11.7853231 C8.41803623,10.8803753 9.11328804,10.1099612 10.0179628,10.0608981 L10.0319825,10.0538883 Z" id="Shape"></path>
            </g>
        </g>
    </g>
</svg>