<?xml version="1.0" encoding="UTF-8" standalone="no"?>
<svg width="100px" height="102px" viewBox="0 0 100 102" version="1.1" xmlns="http://www.w3.org/2000/svg" xmlns:xlink="http://www.w3.org/1999/xlink">
    <!-- Generator: Sketch 46 (44423) - http://www.bohemiancoding.com/sketch -->
    <title>nodate</title>
    <desc>Created with Sketch.</desc>
    <defs></defs>
    <g id="Page-1" stroke="none" stroke-width="1" fill="none" fill-rule="evenodd">
        <g id="停车场系统／统计分析" transform="translate(-1440.000000, -639.000000)" fill-rule="nonzero">
            <g id="内容区域" transform="translate(240.000000, 100.000000)">
                <g id="Group-13" transform="translate(850.000000, 360.000000)">
                    <g id="nodate" transform="translate(350.000000, 179.000000)">
                        <path d="M13.7802429,19.4285714 C13.7802429,19.4285714 6.06893191,23.7930103 1.89491952,32.0291287 C-3.62326633,43.0810142 3.45133096,66.6630627 16.1148599,72.9985384 C28.7783888,79.3340141 43.8472809,76.9406121 52.5490355,80.10835 C61.2507901,83.2760879 63.6561531,92.7089073 77.0978877,88.7668335 C90.5396224,84.8247598 108.721337,54.9072356 95.2796026,35.9712026 C81.8378679,17.0351696 86.577848,19.4285715 73.914319,22.5963093 C61.25079,25.764047 13.7802429,19.4285714 13.7802429,19.4285714" id="Shape" fill-opacity="0.700000048" fill="#F3F6FA" opacity="0.520230877"></path>
                        <path d="M29.0989011,101.142857 L13.6263737,101.142857 C13.0637363,101.142857 12.5714286,100.609524 12.5714286,100 C12.5714286,99.3904763 13.0637363,98.8571429 13.6263737,98.8571429 L29.0989011,98.8571429 C29.6615385,98.8571429 30.1538462,99.3904762 30.1538462,100 C30.1538462,100.609524 29.6615385,101.142857 29.0989011,101.142857 Z M67.076923,101.142857 L36.8351648,101.142857 C36.2725274,101.142857 35.7802197,100.609524 35.7802198,100 C35.7802199,99.3904763 36.2725275,98.8571429 36.8351648,98.8571429 L67.076923,98.8571429 C67.6395604,98.8571429 68.1318681,99.3904762 68.1318681,100 C68.1318681,100.609524 67.6395604,101.142857 67.076923,101.142857 Z M84.6593406,101.142857 L75.5164834,101.142857 C74.9538461,101.142857 74.4615383,100.609524 74.4615384,100 C74.4615385,99.3904763 74.9538462,98.8571429 75.5164834,98.8571429 L84.6593406,98.8571429 C85.221978,98.8571429 85.7142857,99.3904762 85.7142857,100 C85.7142857,100.609524 85.221978,101.142857 84.6593406,101.142857 Z" id="Shape" fill="#C1C1C1"></path>
                        <path d="M85.1488722,29.0343756 C85.1488722,27.5543273 83.8766917,26.2857144 82.3924812,26.2857143 L79.0706766,26.2857143 L79.0706766,58.9172569 L57.8676692,80.060805 L32,80.060805 L32,81.8227674 C32,83.3028157 33.2721804,84.5714286 34.756391,84.5714286 L78.8586466,83.9371221 C82.675188,83.8666436 85.7142857,80.7655899 85.7142857,76.9597513 L85.5022557,62.934531 L85.1488722,29.0343756 Z" id="Shape" fill-opacity="0.700000048" fill="#F3F6FA"></path>
                        <path d="M70.8571429,18.2020906 L70.8571429,67.5407665 C70.8571429,69.0188152 69.5849624,70.2857142 68.1007519,70.2857143 L19.8992481,70.2857143 C18.4150376,70.2857143 17.1428571,69.0188153 17.1428571,67.5407665 L17.1428571,15.3163764 C17.1428571,13.8383276 18.4150376,12.5714287 19.8992481,12.5714286 L60.2556391,12.5714286" id="Shape" fill="#FFFFFF"></path>
                        <path d="M67.639783,71.4285714 L19.7887884,71.4285714 C17.683906,71.4285714 16,69.7344537 16,67.6168067 L16,15.2403361 C16,13.1226891 17.683906,11.4285714 19.7887884,11.4285714 L59.8517178,11.4285714 C60.4130198,11.4285714 60.9041591,11.9226891 60.9041591,12.4873949 C60.9041591,13.0521007 60.4130198,13.5462185 59.8517178,13.5462185 L19.7887884,13.5462185 C18.8766727,13.5462185 18.1048824,14.322689 18.1048824,15.2403361 L18.1048824,67.6168067 C18.1048824,68.5344537 18.8766726,69.3109244 19.7887884,69.3109244 L67.639783,69.3109244 C68.5518987,69.3109244 69.323689,68.5344538 69.3236889,67.6168067 L69.3236889,18.1344537 C69.3236889,17.5697478 69.8148282,17.0756302 70.3761302,17.0756303 C70.9374322,17.0756304 71.4285714,17.5697479 71.4285714,18.1344537 L71.4285714,67.6168067 C71.4285714,69.7344537 69.7446654,71.4285714 67.639783,71.4285714 Z" id="Shape" fill="#C1C1C1"></path>
                        <path d="M59.9398496,81.1428571 L30.1849625,81.1428571 C28.700752,81.1428571 27.4285715,79.8759582 27.4285714,78.3979094 L27.4285714,26.1735191 C27.4285714,24.6954704 28.7007519,23.4285714 30.1849625,23.4285714 L78.3864661,23.4285714 C79.8706766,23.4285714 81.142857,24.6954704 81.1428571,26.1735191 L81.1428571,76.1456446 C81.1428571,78.7498258 79.0932331,80.7909407 76.4781954,80.8613241 L59.9398496,81.1428571 Z" id="Shape" fill="#FFFFFF"></path>
                        <path d="M59.9398496,81.1428571 L30.1849625,81.1428571 C28.700752,81.1428571 27.4285715,79.8759582 27.4285714,78.3979094 L27.4285714,26.1735191 C27.4285714,24.6954704 28.7007519,23.4285714 30.1849625,23.4285714 L78.3864661,23.4285714 C79.8706766,23.4285714 81.142857,24.6954704 81.1428571,26.1735191 L81.1428571,76.1456446 C81.1428571,78.7498258 79.0932331,80.7909407 76.4781954,80.8613241 L59.9398496,81.1428571 Z" id="Shape" fill-opacity="0.700000048" fill="#F3F6FA"></path>
                        <path d="M60.1844484,81.7142857 L30.6459313,81.7142857 C28.5410489,81.7142857 26.8571429,80.020168 26.8571429,77.902521 L26.8571429,25.5260504 C26.8571429,23.4084034 28.5410489,21.7142857 30.6459313,21.7142857 L78.4969259,21.7142857 C80.6018083,21.7142857 82.2857143,23.4084034 82.2857143,25.5260504 L82.2857143,75.6436974 C82.2857143,78.7495798 79.7598553,81.3613445 76.6025316,81.4319327 L60.1844484,81.7142857 Z M30.6459313,23.8319328 C29.7338156,23.8319328 28.9620253,24.6084034 28.9620253,25.5260504 L28.9620253,77.902521 C28.9620253,78.820168 29.7338155,79.5966387 30.6459313,79.5966387 L60.1844484,79.5966387 L76.6025316,79.3142857 C78.5670886,79.3142857 80.1808319,77.620168 80.1808319,75.6436974 L80.1808319,25.5260504 C80.1808319,24.6084034 79.4090416,23.8319327 78.4969259,23.8319328 L30.6459313,23.8319328 Z" id="Shape" fill="#C1C1C1"></path>
                        <path d="M60.2374592,37.5804878 L36.2671604,37.5804878 C35.4916508,37.5804878 34.8571429,36.9482926 34.8571429,36.1756097 C34.8571429,35.4029268 35.4916508,34.7707317 36.2671604,34.7707317 L60.2374592,34.7707317 C61.0129689,34.7707317 61.6474768,35.4029268 61.6474768,36.1756097 C61.6474768,36.9482926 61.0129689,37.5804878 60.2374592,37.5804878 Z M60.2374592,36.1756097 L60.2374592,36.8780487 L60.2374592,36.1756097 Z M45.4322746,46.7121951 L36.2671604,46.7121951 C35.4916508,46.7121951 34.8571429,46.08 34.8571429,45.3073171 C34.8571429,44.5346342 35.4916508,43.9024391 36.2671604,43.902439 L45.4322746,43.902439 C46.2077843,43.902439 46.8422922,44.5346341 46.8422922,45.3073171 C46.8422922,46.0800001 46.2077843,46.7121951 45.4322746,46.7121951 L45.4322746,46.7121951 Z M45.4322746,45.3073171 L45.4322746,46.0097561 L45.4322746,45.3073171 Z M60.2374592,72 L36.2671604,72 C35.4916508,72 34.8571429,71.3678049 34.8571429,70.595122 C34.8571429,69.8224391 35.4916508,69.1902439 36.2671604,69.1902438 L60.2374592,69.1902438 C61.0129689,69.1902438 61.6474768,69.822439 61.6474768,70.595122 C61.6474768,71.367805 61.0129689,72 60.2374592,72 Z M36.2671604,70.595122 L60.2374592,70.595122 L36.2671604,70.595122 Z M45.4322746,62.8682926 L36.2671604,62.8682926 C35.4916508,62.8682926 34.8571429,62.2360975 34.8571429,61.4634146 C34.8571429,60.6907317 35.4916508,60.0585366 36.2671604,60.0585366 L45.4322746,60.0585366 C46.2077843,60.0585366 46.8422922,60.6907317 46.8422922,61.4634146 C46.8422922,62.2360975 46.2077843,62.8682926 45.4322746,62.8682926 L45.4322746,62.8682926 Z M36.2671604,61.4634146 L45.4322746,61.4634146 L36.2671604,61.4634146 Z M64.4675119,9.13170727 C63.9035049,9.13170727 63.4099987,8.63999993 63.4099988,8.0780488 L63.4099988,1.05365857 C63.4099988,0.491707339 63.903505,0 64.4675119,0 C65.0315188,0 65.5250251,0.491707339 65.5250251,1.05365857 L65.5250251,8.0780488 C65.5250251,8.64000003 65.0315189,9.13170737 64.4675119,9.13170727 Z M73.3506226,9.48292683 C73.13912,9.48292683 72.9276173,9.41268294 72.7161147,9.27219515 C72.2226085,8.9209756 72.1521077,8.28878048 72.5046121,7.79707314 L76.6641639,2.10731704 C77.0166683,1.6156097 77.6511763,1.54536581 78.1446824,1.89658537 C78.6381886,2.24780492 78.7086895,2.88000004 78.356185,3.37170728 L74.1966332,9.06146338 C73.9851306,9.34243895 73.6326262,9.48292683 73.3506226,9.48292683 Z M77.1576701,15.5239025 C76.7346648,15.5239025 76.3821604,15.3131708 76.1706578,14.8917074 C75.9591552,14.3297561 76.1706578,13.7678049 76.6641639,13.4868292 L83.079744,10.5365854 C83.643751,10.3258537 84.2077581,10.5365854 84.4897615,11.0282926 C84.7012641,11.5902439 84.4897615,12.1521951 83.9962553,12.4331708 L77.5806754,15.3834146 C77.4396737,15.4536585 77.2986719,15.5239024 77.1576701,15.5239025 Z" id="Shape" fill="#C1C1C1"></path>
                        <path d="M95.5686275,83.9159664 L85.2268907,73.5742297 C84.3529412,72.7002801 84.3529412,71.2436974 85.2268907,70.3697479 C86.1008403,69.4957983 87.557423,69.4957983 88.4313725,70.3697479 L98.7731093,80.7114846 C99.6470588,81.5854342 99.6470588,83.0420169 98.7731093,83.9159664 C97.8991597,84.789916 96.442577,84.789916 95.5686275,83.9159664" id="Shape" fill="#FFFFFF"></path>
                        <path d="M96.7639485,85.1428571 C95.9104844,85.1428571 95.1281422,84.8583691 94.4880442,84.2182709 L84.3887186,74.1189454 C83.1085224,72.8387492 83.1085224,70.7762109 84.3887186,69.4960147 C85.0288167,68.8559166 85.8111588,68.5714286 86.6646229,68.5714286 C87.518087,68.5714286 88.3715512,68.9270387 88.9405273,69.4960147 L99.0398529,79.5953403 C100.320049,80.8755365 100.320049,82.9380747 99.0398529,84.2182709 C98.4708768,84.787247 97.6174127,85.142857 96.7639485,85.1428571 Z M86.7357449,70.6339669 C86.4512569,70.6339669 86.1667688,70.7762109 85.9534028,70.989577 C85.5266707,71.4163091 85.5266707,72.1275292 85.9534028,72.5542612 L96.0527284,82.6535867 C96.4794605,83.0803188 97.1906806,83.0803188 97.6174126,82.6535867 C98.0441447,82.2268546 98.0441447,81.5156345 97.6174126,81.0889024 L87.5180871,70.989577 C87.3047211,70.776211 87.020233,70.6339669 86.7357449,70.6339669 L86.7357449,70.6339669 Z" id="Shape" fill="#C1C1C1"></path>
                        <path d="M84.3174603,70.2857143 C83.9365079,70.2857143 83.6190477,70.1602241 83.3650794,69.9092437 L82.0952381,68.6543418 C81.5873016,68.0896359 81.5873016,67.2739497 82.0952381,66.7092437 C82.6666667,66.1445378 83.4920635,66.1445378 84.063492,66.7092437 L85.3333333,67.9641457 C85.5873015,68.2151261 85.7142857,68.5915967 85.7142857,68.9053221 C85.7142857,69.2817927 85.5873016,69.5955181 85.3333333,69.8464986 C85.0158729,70.1602241 84.6984127,70.2857143 84.3174603,70.2857143 L84.3174603,70.2857143 Z" id="Shape" fill="#C1C1C1"></path>
                        <path d="M86.8571429,57.7142858 C86.8571429,65.5960591 80.453202,72.0000001 72.5714285,72 C64.6896551,71.9999999 58.2857143,65.5960591 58.2857143,57.7142858 C58.2857143,49.8325124 64.6896552,43.4285714 72.5714285,43.4285714 C80.4532019,43.4285714 86.8571429,49.8325123 86.8571429,57.7142858" id="Shape" fill="#FFFFFF"></path>
                        <path d="M72.2854508,72.5714286 C63.9500782,72.5714286 57.1428571,65.7640891 57.1428571,57.4285714 C57.1428571,49.0930538 63.9500782,42.2857143 72.2854508,42.2857143 C80.6208235,42.2857143 87.4280445,49.0930538 87.4280445,57.4285714 C87.497506,65.7640891 80.6902849,72.5714286 72.2854508,72.5714286 L72.2854508,72.5714286 Z M72.2854508,44.300131 C65.0614611,44.300131 59.2267003,50.204456 59.2267003,57.3591088 C59.2267003,64.5832242 65.1309226,70.4180865 72.2854508,70.4180865 C79.5094405,70.4180865 85.3442014,64.5137615 85.3442014,57.3591088 C85.4136628,50.2044561 79.5094405,44.300131 72.2854508,44.300131 Z" id="Shape" fill="#C1C1C1"></path>
                    </g>
                </g>
            </g>
        </g>
    </g>
</svg>