<?xml version="1.0" encoding="UTF-8" standalone="no"?>
<svg width="20px" height="20px" viewBox="0 0 20 20" version="1.1" xmlns="http://www.w3.org/2000/svg" xmlns:xlink="http://www.w3.org/1999/xlink">
    <!-- Generator: Sketch 50.2 (55047) - http://www.bohemiancoding.com/sketch -->
    <title>Shape</title>
    <desc>Created with Sketch.</desc>
    <defs></defs>
    <g id="Page-1" stroke="none" stroke-width="1" fill="none" fill-rule="evenodd">
        <path d="M7.86497354,14.1082552 L14.3803968,10.4075781 C14.6783333,10.2350521 14.6783333,9.82098958 14.3803968,9.65278646 L7.86497354,5.95213542 C7.56703704,5.77960937 7.19896825,5.99526042 7.19896825,6.33169271 L7.19896825,13.7330208 C7.20772487,14.0651302 7.5757672,14.2721615 7.86497354,14.1082552 Z M9.80600529,0 C6.88785714,0 4.25013228,1.220625 2.40111111,3.16583333 C2.26965608,3.29953125 2.13822751,3.441875 2.0155291,3.59283854 L0,1.60880208 L0,7.04335937 L5.52082011,7.04335937 L3.46148148,5.01619792 C4.94685185,3.183125 7.24280423,2.005625 9.81478836,2.005625 C14.3059259,2.005625 17.9426455,5.58552083 17.9426455,10.0064844 C17.9426455,14.4274479 14.3058995,17.994401 9.8147619,17.994401 C6.24375661,17.994401 3.21608466,15.7343229 2.12068783,12.5814063 L0.00436507937,12.5814063 C1.16550265,16.8471094 5.11333333,20 9.8147619,20 C15.4363492,20 19.988836,15.5229687 19.988836,10.0021615 C19.988836,4.48135417 15.4275926,0 9.80600529,0 Z" id="Shape" fill="#3BBCE6" fill-rule="nonzero"></path>
    </g>
</svg>