<?xml version="1.0" encoding="UTF-8" standalone="no"?>
<svg width="18px" height="18px" viewBox="0 0 18 18" version="1.1" xmlns="http://www.w3.org/2000/svg" xmlns:xlink="http://www.w3.org/1999/xlink">
    <!-- Generator: Sketch 46 (44423) - http://www.bohemiancoding.com/sketch -->
    <title>rukouzongliuliang</title>
    <desc>Created with Sketch.</desc>
    <defs></defs>
    <g id="Page-1" stroke="none" stroke-width="1" fill="none" fill-rule="evenodd">
        <g id="停车场系统／统计分析" transform="translate(-429.000000, -309.000000)" fill-rule="nonzero" fill="#FFFFFF">
            <g id="内容区域" transform="translate(240.000000, 100.000000)">
                <g id="Group-3" transform="translate(60.000000, 110.000000)">
                    <g id="今日">
                        <g id="Group" transform="translate(129.000000, 96.000000)">
                            <g id="出入口_入" transform="translate(0.000000, 3.000000)">
                                <path d="M18,10.1250024 L13.5000143,10.1250024 L15.7500072,13.4999904 L12.3749892,13.4999904 L7.87500359,8.99996175 L12.3749893,4.49999042 L15.7499881,4.49999042 L13.5000143,7.87497848 L18,7.87497848 L18,10.1250024 Z M5.68598156,6.47313243 C5.54702396,6.20504529 5.6293699,5.86009962 5.86998376,5.70406916 L9.3581294,3.4540835 C9.59927858,3.30028997 9.90745933,3.39255845 10.0464169,3.66064558 C10.1854319,3.9287136 10.1024932,4.27367839 9.8618794,4.42968974 L6.37371464,6.67965628 C6.13258457,6.83350718 5.82492004,6.74118134 5.68598156,6.47313243 Z M10.0464169,14.3371557 C9.90745933,14.6073842 9.59927858,14.6996718 9.3581294,14.5436605 L5.86998376,12.2936557 C5.6293699,12.1376826 5.54702396,11.7948973 5.68598156,11.5246115 C5.82493916,11.2565626 6.13258457,11.1642559 6.37373377,11.3202864 L9.8618794,13.5702911 C10.1024932,13.7241038 10.1854319,14.0690686 10.0464169,14.3371557 Z M11.2500024,3.37498804 C10.6287082,3.37498804 10.1250155,2.86963366 10.1250155,2.24998566 L2.25001196,2.24998566 L2.25001196,15.7499761 L10.1250155,15.7499761 C10.1250155,15.1281868 10.6287082,14.6249737 11.2500024,14.6249737 C11.8712584,14.6249737 12.3749893,15.1281677 12.3749893,15.7499761 C12.3749893,15.9587369 12.3749893,16.6640764 12.3749893,16.8750167 C12.3749893,17.4945691 11.8712584,18 11.2500024,18 L1.12496774,18 C0.503711758,18 0,17.4945691 0,16.8750167 L1.32755341e-16,1.12500238 C1.32755341e-16,0.503193945 0.503730872,0 1.12496774,0 L11.2500215,0 C11.8712775,0 12.3750084,0.503193945 12.3750084,1.12500238 L12.3750084,2.24998566 C12.3749892,2.86963366 11.8712584,3.37498804 11.2500024,3.37498804 Z" id="rukouzongliuliang"></path>
                            </g>
                        </g>
                    </g>
                </g>
            </g>
        </g>
    </g>
</svg>