<?xml version="1.0" encoding="UTF-8" standalone="no"?>
<svg width="15px" height="18px" viewBox="0 0 15 18" version="1.1" xmlns="http://www.w3.org/2000/svg" xmlns:xlink="http://www.w3.org/1999/xlink">
    <!-- Generator: Sketch 46 (44423) - http://www.bohemiancoding.com/sketch -->
    <title>shengyuchewei</title>
    <desc>Created with Sketch.</desc>
    <defs></defs>
    <g id="Page-1" stroke="none" stroke-width="1" fill="none" fill-rule="evenodd">
        <g id="停车场系统／统计分析" transform="translate(-1626.000000, -310.000000)" fill-rule="nonzero" fill="#FFFFFF">
            <g id="内容区域" transform="translate(240.000000, 100.000000)">
                <g id="Group-3" transform="translate(60.000000, 110.000000)">
                    <g id="今日-copy-3" transform="translate(1185.000000, 0.000000)">
                        <g id="Group-15" transform="translate(141.000000, 96.000000)">
                            <g id="shengyuchewei" transform="translate(0.000000, 4.000000)">
                                <path d="M7.11127273,0.00945454545 C3.18545455,0.00945454545 0.00436363636,3.18327273 0.00436363636,7.09454545 C0.00436363636,8.89527273 0.705454545,10.5738182 1.81527273,11.8247273 L6.42763636,17.64 C6.78981818,18.0967273 7.38472727,18.0952727 7.74836364,17.64 L12.3418182,11.8247273 C13.5070545,10.5636364 14.2181818,8.94472727 14.2181818,7.09454545 C14.2181818,3.18327273 11.0370909,0.00945454545 7.11127273,0.00945454545 Z M7.09236364,12.3992727 C4.08,12.3992727 1.63781818,9.95709091 1.63781818,6.94472727 C1.63781818,3.93236364 4.08,1.49018182 7.09236364,1.49018182 C10.1047273,1.49018182 12.5483636,3.93236364 12.5483636,6.94472727 C12.5483636,9.95709091 10.1047273,12.3992727 7.09236364,12.3992727 Z" id="Shape"></path>
                                <path d="M10.2437818,6.00058182 C10.2437818,6.71883636 10.0341818,7.28756364 9.61541818,7.70618182 C9.19607273,8.12567273 8.61250909,8.33454545 7.86487273,8.33454545 L6.5632,8.33454545 L6.5632,11.3418182 L5.53090909,11.3418182 L5.53090909,3.66661818 L7.86472727,3.66661818 C8.61250909,3.66661818 9.19592727,3.87621818 9.61527273,4.29483636 C10.0340364,4.71447273 10.2437818,5.28247273 10.2437818,6.00058182 Z M9.21134545,6.00058182 C9.21134545,5.43258182 9.07665455,5.04334545 8.80741818,4.8336 C8.53803636,4.62458182 8.13410909,4.51941818 7.59549091,4.51941818 L6.5632,4.51941818 L6.5632,7.48174545 L7.59549091,7.48174545 C8.13410909,7.48174545 8.53803636,7.37730909 8.80741818,7.16770909 C9.07665455,6.95854545 9.21134545,6.56945455 9.21134545,6.00058182 Z" id="Shape"></path>
                            </g>
                        </g>
                    </g>
                </g>
            </g>
        </g>
    </g>
</svg>