<?xml version="1.0" encoding="UTF-8" standalone="no"?>
<svg width="16px" height="18px" viewBox="0 0 16 18" version="1.1" xmlns="http://www.w3.org/2000/svg" xmlns:xlink="http://www.w3.org/1999/xlink">
    <!-- Generator: Sketch 50.2 (55047) - http://www.bohemiancoding.com/sketch -->
    <title>消防门堵塞</title>
    <desc>Created with Sketch.</desc>
    <defs></defs>
    <g id="Page-1" stroke="none" stroke-width="1" fill="none" fill-rule="evenodd">
        <g id="消防报警视频弹窗" transform="translate(-700.000000, -158.000000)" fill="#FC4D4D" fill-rule="nonzero">
            <g id="消防门堵塞" transform="translate(700.000000, 158.000000)">
                <path d="M15.4845638,18 L0.515436232,18 C0.236241608,18 0,17.7710479 0,17.4766808 L0,0.523319211 C0,0.239854651 0.225503354,2.06550953e-08 0.515436232,0 L15.4845638,0 C15.7637584,0 16,0.228952149 16,0.523319211 L16,17.4766808 C16,17.7710479 15.7637584,18 15.4845638,18 Z M1.03087249,16.9533616 L14.9798658,16.9533616 L14.9798658,1.0466384 L1.03087249,1.0466384 L1.03087249,16.9533616 Z" id="Shape"></path>
                <path d="M6.66666668,17.1 C6.42592594,17.1 6.22222224,16.8096226 6.22222222,16.4654717 L6.22222222,0.634528301 C6.22222222,0.279622635 6.41666667,0 6.66666668,0 C6.90740741,0 7.11111111,0.29037735 7.11111111,0.634528301 L7.11111111,16.4654717 C7.11111111,16.8203774 6.90740741,17.1 6.66666668,17.1" id="Shape"></path>
                <path d="M14.0997465,17.0174317 C13.8917514,17.1999888 13.486161,17.0711249 13.2053676,16.7167492 L0.26807227,1.04904755 C-0.0231208638,0.705410498 -0.0855194078,0.265125532 0.122475693,0.082568347 C0.330470794,-0.0999888377 0.736061242,0.0288750634 1.01685464,0.383250776 L13.95415,16.0509525 C14.2453431,16.4053282 14.3077416,16.8348745 14.0997465,17.0174317" id="Shape"></path>
                <path d="M8.95305164,0 C9.23787167,0 9.47887323,0.301863346 9.47887325,0.670807451 L9.47887325,17.3291925 C9.47887325,17.6981367 9.2488263,18 8.95305164,18 C8.66823162,18 8.42723006,17.6981367 8.42723006,17.3291925 L8.42723006,0.670807451 C8.42723006,0.301863346 8.66823162,0 8.95305164,0 Z M2.1173709,9.74906832 L4.11111111,9.74906832 L2.93896715,10.9565217 C2.84037561,11.0571428 2.78560251,11.2024845 2.78560251,11.336646 C2.78560251,11.4708075 2.84037559,11.6049689 2.93896715,11.7167702 C3.14710486,11.9291925 3.47574337,11.9291925 3.68388106,11.7167702 L5.60093896,9.76024845 C5.7543036,9.7378882 5.87480437,9.54782609 5.89671362,9.30186336 C5.89671362,9.25714286 5.90766824,9.22360249 5.89671362,9.17888198 C5.90766824,9.02236024 5.86384978,8.86583851 5.74334899,8.75403726 L3.67292645,6.62981365 C3.46478873,6.41739129 3.13615023,6.41739129 2.92801253,6.62981365 C2.82942099,6.73043476 2.77464789,6.87577638 2.77464789,7.00993788 C2.77464789,7.14409938 2.82942097,7.27826086 2.92801253,7.39006211 L4.19874805,8.68695652 L2.1173709,8.68695652 C1.93114242,8.68695652 1.77777778,8.92173913 1.77777778,9.22360247 C1.77777778,9.52546582 1.93114242,9.7490683 2.1173709,9.74906832 Z M13.8826291,8.58633539 L11.8888889,8.58633539 L13.0610329,7.37888199 C13.1596244,7.27826088 13.2143975,7.13291926 13.2143975,6.99875776 C13.2143975,6.86459626 13.1596244,6.73043478 13.0610329,6.61863353 C12.8528951,6.40621117 12.5242566,6.40621117 12.3161189,6.61863353 L10.399061,8.58633539 C10.2456964,8.60869564 10.1251956,8.79875775 10.1032864,9.04472048 C10.1032864,9.08944097 10.0923318,9.12298134 10.1032864,9.16770186 C10.0923318,9.3242236 10.1361502,9.48074533 10.256651,9.59254658 L12.3270736,11.7055901 C12.5352113,11.9180124 12.8638498,11.9180124 13.0719875,11.7055901 C13.170579,11.604969 13.2253521,11.4596273 13.2253521,11.3254658 C13.2253521,11.1913043 13.170579,11.0571429 13.0719875,10.9453416 L11.8012519,9.64844719 L13.8826291,9.64844719 C14.0688576,9.64844719 14.2222222,9.41366459 14.2222222,9.11180124 C14.2222222,8.8099379 14.0688576,8.58633541 13.8826291,8.58633539 Z" id="Shape"></path>
            </g>
        </g>
    </g>
</svg>