<?xml version="1.0" encoding="UTF-8" standalone="no"?>
<svg width="16px" height="16px" viewBox="0 0 16 16" version="1.1" xmlns="http://www.w3.org/2000/svg" xmlns:xlink="http://www.w3.org/1999/xlink">
    <!-- Generator: Sketch 48.2 (47327) - http://www.bohemiancoding.com/sketch -->
    <title>edit 4/5000 Biānjí edit 4/5000 Biānjí edit</title>
    <desc>Created with Sketch.</desc>
    <defs></defs>
    <g id="Page-1" stroke="none" stroke-width="1" fill="none" fill-rule="evenodd">
        <g id="edit-4/5000-Biānjí-edit-4/5000-Biānjí-edit" fill="#00BFA5" fill-rule="nonzero">
            <path d="M3.66670598,2.03434669 L9.42588576,2.03434669 C9.60999863,2.03434669 9.75858095,2.18278791 9.75858095,2.36672595 C9.75858095,2.55066398 9.60999863,2.69910521 9.42588576,2.69910521 L3.66670598,2.69910521 C3.3921517,2.69910521 3.14020778,2.81204962 2.95932496,2.99276067 C2.77844214,3.17347172 2.66539037,3.42194942 2.66539037,3.69946997 L2.66539037,12.3381037 C2.66539037,12.6123973 2.77844214,12.864102 2.95932496,13.044813 C3.14020778,13.2255241 3.38892165,13.3384685 3.66670598,13.3384685 L12.3103207,13.3384685 C12.584875,13.3384685 12.8368189,13.2255241 13.0177018,13.044813 C13.1985846,12.864102 13.3116363,12.6156243 13.3116363,12.3381037 L13.3116363,6.59084682 C13.3116363,6.40690878 13.4602187,6.25846756 13.6443315,6.25846756 C13.8252143,6.25846756 13.9737967,6.4036818 13.9770267,6.58439285 L13.9770267,12.3348767 C13.9770267,12.7931083 13.7896838,13.2093891 13.4860591,13.5094986 C13.1824343,13.812835 12.7657578,14 12.3103207,14 L3.66670598,14 C3.20803883,14 2.79136234,13.812835 2.49096765,13.5094986 C2.18734292,13.2061622 2,12.7898813 2,12.3348767 L2,3.69946997 C2,3.24123837 2.18734292,2.82495755 2.49096765,2.52484812 C2.79459239,2.22151171 3.21126888,2.03434669 3.66670598,2.03434669 Z M5.79207912,8.13011775 L11.6675407,2.26023551 C11.6804609,2.24732757 11.6933811,2.23441964 11.7095314,2.22473869 C12.1229778,1.88267848 12.6785465,1.96335306 13.1372136,2.25055456 C13.292256,2.34413707 13.4343783,2.46353544 13.5603502,2.59906873 C13.6863222,2.73460202 13.7929138,2.88627023 13.870435,3.04116541 C14.0674681,3.45099227 14.061008,3.88986197 13.7024724,4.22546821 L7.88838179,10.0340378 C7.84316109,10.0792155 7.78825023,10.1082584 7.73010933,10.1211663 L5.58535589,10.7310661 C5.40770312,10.7826979 5.22359025,10.6794344 5.17190945,10.5019503 C5.15252914,10.4341837 5.1557592,10.366417 5.1751395,10.3051044 L5.69840765,8.28501294 C5.72101801,8.22370026 5.75008846,8.17206853 5.79207912,8.13011775 Z M12.7819081,4.19965235 L13.227655,3.75432868 L13.2405752,3.74142075 C13.353627,3.64138427 13.3439368,3.4832621 13.2664156,3.32513993 C13.2211949,3.22833043 13.1533639,3.13474792 13.0726126,3.04761938 C12.9886313,2.95726385 12.8917298,2.87658928 12.7851381,2.81204962 C12.5525745,2.66683538 12.2941705,2.60874968 12.132668,2.73137504 L11.7127614,3.15733681 L12.7819081,4.19965235 Z M12.3135508,4.67079188 L11.2444041,3.62847634 L6.65773261,8.20756535 L7.72687928,9.24988089 L12.3135508,4.67079188 Z M6.27012657,8.75937946 L5.96650183,9.93077432 L7.13255001,9.59839506 L6.27012657,8.75937946 Z" id="chaobiao"></path>
        </g>
    </g>
</svg>