<?xml version="1.0" encoding="UTF-8" standalone="no"?>
<svg width="16px" height="16px" viewBox="0 0 16 16" version="1.1" xmlns="http://www.w3.org/2000/svg" xmlns:xlink="http://www.w3.org/1999/xlink">
    <!-- Generator: Sketch 48.2 (47327) - http://www.bohemiancoding.com/sketch -->
    <title>chongzai</title>
    <desc>Created with Sketch.</desc>
    <defs></defs>
    <g id="Page-1" stroke="none" stroke-width="1" fill="none" fill-rule="evenodd">
        <g id="chongzai" fill="#00BFA5" fill-rule="nonzero">
            <path d="M14.5000562,9.60335595 C14.4133264,9.60343172 14.328133,9.62625256 14.2529774,9.66954113 L13.4976224,10.1001861 C13.674813,9.51141116 13.7646012,8.89980909 13.7641145,8.284947 C13.7663842,6.61779974 13.1042651,5.01847022 11.9242601,3.84083222 C10.74633,2.66118673 9.14738733,1.99884268 7.48037218,2.00000152 C6.73119409,2.00000152 5.99789963,2.13060696 5.30166699,2.38740549 C5.07634356,2.47294285 4.94379833,2.70674594 4.98611359,2.94402575 C5.02842885,3.18130555 5.23362225,3.35487193 5.47462212,3.35723911 C5.53363929,3.35717071 5.59218394,3.34671577 5.64757725,3.32635269 C7.58289923,2.61507688 9.75511882,3.09311989 11.2130854,4.55116084 C12.6710519,6.00920178 13.1490705,8.18153224 12.437831,10.116953 L11.9127886,9.05004777 C11.8554005,8.93033257 11.75226,8.83874393 11.6266034,8.79591558 C11.5009468,8.75308723 11.3633434,8.7626216 11.2447936,8.82237072 C10.9977735,8.94418617 10.8953178,9.24250531 11.0153633,9.49039989 L11.9507329,11.3965333 C12.0083833,11.6165174 12.2069001,11.7701222 12.4343013,11.7707002 L12.4493025,11.7689353 L12.4598916,11.7689353 C12.5461528,11.7691618 12.6309918,11.7469627 12.7060879,11.7045151 L14.747135,10.5378908 C14.863153,10.4729662 14.9478577,10.363736 14.9818598,10.2352039 C15.0235545,10.0848633 14.9924766,9.92367226 14.8978769,9.79961217 C14.8032772,9.67555208 14.6560634,9.60292732 14.5000562,9.60335595 Z M3.50769872,5.33485254 L3.76536656,6.49353457 C3.826395,6.76236422 4.09242188,6.93198469 4.36188528,6.87387878 C4.49133158,6.84564505 4.60393868,6.76643431 4.67426342,6.65414396 C4.74583028,6.54244625 4.76966662,6.40673108 4.74044523,6.27732962 L4.28158468,4.20529199 C4.27672252,3.97218089 4.11177207,3.7732061 3.8836114,3.72522876 C3.79690599,3.70298816 3.70584603,3.70420642 3.61976658,3.72875864 L1.36164321,4.38178583 C1.09628147,4.45830359 0.943190005,4.73546266 1.01970386,5.00083795 C1.09621772,5.26621324 1.37336265,5.41931252 1.63872439,5.34279476 L2.47526247,5.10188067 C2.16343964,5.63271837 1.93151938,6.20660163 1.78697165,6.80504619 C1.39228553,8.42426203 1.65971145,10.134033 2.52997277,11.5553778 C2.95032235,12.2483724 3.5018476,12.8526831 4.15363318,13.3344356 C4.82803212,13.8361793 5.59755892,14.1952901 6.41528625,14.3898688 C6.90106397,14.5089587 7.39936295,14.5693976 7.89952365,14.5698925 C8.38662177,14.5698925 8.87813201,14.510767 9.36081802,14.396046 C10.2954412,14.1684785 11.166405,13.7322201 11.9083765,13.1199956 C12.0695741,12.9846436 12.1290371,12.7629924 12.0572328,12.565126 C11.9854285,12.3672596 11.7976563,12.2353373 11.5871741,12.234879 C11.471452,12.2351244 11.3594324,12.2756907 11.2703839,12.3496 C10.7980867,12.7430072 10.2609055,13.051178 9.68290283,13.2603082 C9.11482485,13.466113 8.51520023,13.5712318 7.91099516,13.5709374 C5.95626699,13.5736737 4.15927835,12.4983972 3.23762277,10.7744993 C2.31596718,9.05060135 2.41981583,6.95896762 3.50769872,5.33485254 Z" id="Shape"></path>
        </g>
    </g>
</svg>