<?xml version="1.0" encoding="UTF-8" standalone="no"?>
<svg width="17px" height="16px" viewBox="0 0 17 16" version="1.1" xmlns="http://www.w3.org/2000/svg" xmlns:xlink="http://www.w3.org/1999/xlink">
    <!-- Generator: Sketch 48.2 (47327) - http://www.bohemiancoding.com/sketch -->
    <title>img</title>
    <desc>Created with Sketch.</desc>
    <defs></defs>
    <g id="滨江小区智慧云平台" stroke="none" stroke-width="1" fill="none" fill-rule="evenodd" transform="translate(-385.000000, -259.000000)">
        <g id="Group-16" transform="translate(36.000000, 252.000000)" fill="#5FAEDA" fill-rule="nonzero">
            <g id="img" transform="translate(349.000000, 7.000000)">
                <path d="M15.5838831,0.0118376416 L1.37352444,0.0118376416 C0.627059762,0.0118376416 0.0164495373,0.575530689 0.0164495373,1.33519501 L0.0164495373,14.6041015 C0.0164495373,15.3637485 0.627042679,15.9853978 1.37352444,15.9853978 L15.6971293,15.9853978 C16.443594,15.9853978 16.9979827,15.3637485 16.9979827,14.6041015 L16.9979827,1.33519501 C16.9979656,0.575530689 16.3303648,0.0118376416 15.5838831,0.0118376416 Z M5.48718016,1.97570006 C6.63679933,1.97570006 7.56888049,2.92190778 7.56888049,4.08914097 C7.56888049,5.25637416 6.63681642,6.20258189 5.48718016,6.20258189 C4.3375439,6.20258189 3.40547983,5.25637416 3.40547983,4.08914097 C3.40547983,2.92189041 4.3375439,1.97570006 5.48718016,1.97570006 Z M1.92791312,14.3103443 C1.77182575,14.3103443 1.6145251,14.2557043 1.48675355,14.1439241 C1.20207439,13.8957783 1.16892249,13.4598911 1.4131529,13.1702141 L4.53366987,8.39118532 C4.76539142,8.11591922 5.16651237,8.06989105 5.453208,8.28560356 L8.20655908,10.3632602 L13.1398871,4.66925899 C13.373608,4.37138683 14.6130108,2.96833527 15.3384394,4.55957967 C15.3392425,4.5571142 15.3400628,6.66355799 15.3408659,8.81436313 C15.3416691,11.0576587 15.3420792,14.3082955 15.3420792,14.3082955 C15.3271267,14.3045626 1.93437262,14.3103443 1.92791312,14.3103443 Z" id="Shape"></path>
            </g>
        </g>
    </g>
</svg>