<?xml version="1.0" encoding="UTF-8" standalone="no"?>
<svg width="14px" height="14px" viewBox="0 0 14 14" version="1.1" xmlns="http://www.w3.org/2000/svg" xmlns:xlink="http://www.w3.org/1999/xlink">
    <!-- Generator: Sketch 48.2 (47327) - http://www.bohemiancoding.com/sketch -->
    <title>seach</title>
    <desc>Created with Sketch.</desc>
    <defs></defs>
    <g id="消防水系统-实时信息-copy" stroke="none" stroke-width="1" fill="none" fill-rule="evenodd" transform="translate(-1425.000000, -411.000000)">
        <g id="Group-7" transform="translate(1418.000000, 403.000000)">
            <g id="Group" transform="translate(6.000000, 7.000000)">
                <g id="Group-15">
                    <g id="Group-16">
                        <g id="seach">
                            <rect id="Rectangle-13" fill="#D8D8D8" opacity="0" x="0" y="0" width="16" height="16"></rect>
                            <path d="M2.80169343,7.3997864 C2.80169343,4.86307961 4.86626863,2.79971186 7.40248208,2.79971186 C9.9395607,2.79971186 12.0032877,4.86307961 12.0032877,7.3997864 C12.0032877,9.9364765 9.9395607,11.9989932 7.40248208,11.9989932 C4.86626863,11.9989932 2.80169343,9.9364765 2.80169343,7.3997864 M13.8828515,13.3173338 L11.2980017,11.1292275 C12.2273676,10.1586196 12.8023686,8.8462698 12.8023686,7.3997864 C12.8023686,4.42221431 10.379934,2 7.40075173,2 C4.42243467,2 2,4.42221431 2,7.3997864 C2,10.3773585 4.42243467,12.7995728 7.40075173,12.7995728 C8.64453182,12.7995728 9.78756161,12.3723745 10.7013035,11.6649275 L13.3174182,13.8829377 C13.394724,13.9615522 13.4972216,14 13.5997023,14 C13.7021999,14 13.8038153,13.9615522 13.8819863,13.8829377 C14.0391934,13.7257253 14.0391934,13.4728273 13.8828515,13.3173338" id="Fill-1" stroke="#00BFA5" stroke-width="0.5" fill="#00BFA5"></path>
                        </g>
                    </g>
                </g>
            </g>
        </g>
    </g>
</svg>