<?xml version="1.0" encoding="utf-8"?>
<!-- Generator: Adobe Illustrator 19.0.0, SVG Export Plug-In . SVG Version: 6.00 Build 0)  -->
<svg version="1.1" id="图层_1" xmlns="http://www.w3.org/2000/svg" xmlns:xlink="http://www.w3.org/1999/xlink" x="0px" y="0px"
	 viewBox="0 0 120 120" style="enable-background:new 0 0 120 120;" xml:space="preserve">
<style type="text/css">
	.st0{clip-path:url(#XMLID_2_);}
	.st1{clip-path:url(#XMLID_12_);fill:#FBB203;}
</style>
<g id="XMLID_3_">
	<defs>
		<path id="XMLID_4_" d="M21.9,29.2c-2.3,0-3.9-1.1-3.9-4.8c0.4-2.7,1.8-5.1,3.9-6.7c2.1,1.6,3.5,4.1,3.9,6.7
			C25.7,28.2,24,29.2,21.9,29.2z M41.9,29.2c-2.3,0-3.9-1.1-3.9-4.8c0.4-2.7,1.8-5.1,3.9-6.7c2.1,1.6,3.5,4.1,3.9,6.7
			C45.8,28.2,44.1,29.2,41.9,29.2z M31.9,29.2c-2.1,0-3.9-1.1-3.9-4.8c0.4-2.7,1.8-5.1,3.9-6.7c2.1,1.6,3.5,4.1,3.9,6.7
			C35.8,28.2,34.1,29.2,31.9,29.2z M115.8,13c2.3,0,4.2,3,4.2,6.7v80.6c0,1.8-0.7,3.5-2,4.7c-1.3,1.3-2.9,2-4.7,2H6.7
			c-1.8,0-3.5-0.7-4.7-2c-1.3-1.3-2-3-2-4.7V19.7C0,16,1.9,13,4.2,13h4.3v27.8c0,3.7,2.1,7,5.3,8.6l1.7,1.2c1.6,1.5,3.8,2.3,5.9,2.2
			c2.2,0,4.3-0.8,5.9-2.2c5.5-4.4,13.4-4.4,18.9,0c3.4,2.9,8.5,2.9,11.9,0c5.5-4.4,13.4-4.4,18.9,0c3.4,2.9,8.5,2.9,11.9,0
			c5.5-4.4,13.4-4.4,18.9,0l1.2,0.9c1.3,0.5,2.4-2,2.4-5.7v-21c0-1.1-3-2.1-6.7-2.1H66.3c-3.7,0-6.7-2.1-6.7-4.8
			c0-2.7,3-4.8,6.7-4.8H115.8z"/>
	</defs>
	<clipPath id="XMLID_2_">
		<use xlink:href="#XMLID_4_"  style="overflow:visible;"/>
	</clipPath>
	<g id="XMLID_9_" class="st0">
		<defs>
			<rect id="XMLID_10_" x="-971" y="-320" width="1920" height="1080"/>
		</defs>
		<clipPath id="XMLID_12_">
			<use xlink:href="#XMLID_10_"  style="overflow:visible;"/>
		</clipPath>
		<rect id="XMLID_11_" x="-5" y="8" class="st1" width="130" height="104"/>
	</g>
</g>
</svg>
