<?xml version="1.0" encoding="utf-8"?>
<!-- Generator: Adobe Illustrator 19.0.0, SVG Export Plug-In . SVG Version: 6.00 Build 0)  -->
<svg version="1.1" id="图层_1" xmlns="http://www.w3.org/2000/svg" xmlns:xlink="http://www.w3.org/1999/xlink" x="0px" y="0px"
	 viewBox="0 0 20 20" style="enable-background:new 0 0 20 20;" xml:space="preserve">
<style type="text/css">
	.st0{clip-path:url(#XMLID_13_);}
	.st1{clip-path:url(#XMLID_14_);fill:#FFFFFF;}
</style>
<g id="XMLID_2_">
	<defs>
		<path id="XMLID_3_" d="M1.5,4.3L1.5,4.3L1.4,3.9c0-0.2,0.1-0.5,0.1-0.5c0.1,0,0.1,0.3,0.1,0.7v1.5c0,0.4-0.1,0.7-0.1,0.7
			C1.5,6.2,1.4,6,1.4,5.8c0-0.2-0.1-0.4-0.3-0.4C1.1,5.3,1,5.4,1,5.4C0.9,5.5,0.9,5.6,0.9,5.6c0,0.1-0.2,0.1-0.5-0.1
			C0.2,5.3,0.1,5.1,0.1,4.8c0-0.5,0.3-1,0.8-1.1c0,0.4,0.1,0.6,0.3,0.6H1.5z M19.1,3.8L19.1,3.8c0.5,0.2,0.8,0.6,0.8,1.1
			c0,0.5-0.3,0.9-0.8,1.1c0-0.4-0.1-0.6-0.3-0.6c-0.2,0-0.3,0.2-0.3,0.5c0,0.2-0.1,0.5-0.1,0.5c-0.1,0-0.1-0.3-0.1-0.7V4.1
			c0-0.4,0.1-0.7,0.1-0.7c0.1,0,0.1,0.2,0.1,0.4c0,0.2,0.1,0.4,0.3,0.4c0.1,0,0.3-0.1,0.3-0.3V3.8z M5.7,19v-1.5h8.8V19H5.7z
			 M16.2,8.5V1.1h1.7v7.4H16.2z M2.2,8.5V1.1H4v7.4H2.2z M11.8,1.8L11.8,1.8l3.2,0c0.2,0,0.3,0.1,0.5,0.2c0.1,0.1,0.2,0.3,0.2,0.5V7
			c0,0.2-0.1,0.3-0.2,0.5c-0.1,0.1-0.3,0.2-0.5,0.2h-1c-0.2,0-0.3,0.1-0.5,0.2c-0.1,0.1-0.2,0.3-0.2,0.5v7.8c0,0.2-0.1,0.3-0.2,0.5
			c-0.1,0.1-0.3,0.2-0.5,0.2h-5c-0.2,0-0.3-0.1-0.5-0.2c-0.1-0.1-0.2-0.3-0.2-0.5V8.3c0-0.4-0.3-0.7-0.7-0.7H5.2
			C5,7.6,4.8,7.6,4.7,7.4C4.6,7.3,4.5,7.1,4.5,7V2.4c0-0.4,0.3-0.7,0.7-0.7h2.6C8.2,1.8,8.6,1.9,9,2c0,0,1,0.4,1,1.3
			c0.1-0.9,0.8-1.5,1.6-1.5H11.8z"/>
	</defs>
	<clipPath id="XMLID_13_">
		<use xlink:href="#XMLID_3_"  style="overflow:visible;"/>
	</clipPath>
	<g id="XMLID_10_" class="st0">
		<defs>
			<rect id="XMLID_11_" x="-758.6" y="-612.6" width="1906.7" height="1072.5"/>
		</defs>
		<clipPath id="XMLID_14_">
			<use xlink:href="#XMLID_11_"  style="overflow:visible;"/>
		</clipPath>
		<rect id="XMLID_12_" x="-4.9" y="-3.9" class="st1" width="29.8" height="27.8"/>
	</g>
</g>
</svg>
