<?xml version="1.0" encoding="UTF-8" standalone="no"?>
<svg width="80px" height="80px" viewBox="0 0 80 80" version="1.1" xmlns="http://www.w3.org/2000/svg" xmlns:xlink="http://www.w3.org/1999/xlink">
    <!-- Generator: Sketch 46 (44423) - http://www.bohemiancoding.com/sketch -->
    <title>one_mai</title>
    <desc>Created with Sketch.</desc>
    <defs></defs>
    <g id="Page-1" stroke="none" stroke-width="1" fill="none" fill-rule="evenodd">
        <g id="Weather" transform="translate(-890.000000, -210.000000)">
            <g id="Day-Time-icons" transform="translate(52.000000, 76.000000)">
                <g id="one_mai" transform="translate(838.000000, 134.000000)">
                    <g id="Fill-1-+-Rectangle-1-Copy-6" stroke="#2B2B2B" stroke-width="0.5" opacity="0.0229127799">
                        <rect id="Rectangle-1" x="0.25" y="0.25" width="79.5" height="79.5"></rect>
                    </g>
                    <g id="Imported-Layers" transform="translate(8.800000, 8.000000)" fill="#FFFFFF">
                        <path d="M1.98351837,46.0190477 L16.6445734,46.0190477 C16.8555085,46.0190477 17.0280918,45.3850554 17.0280918,44.6088716 C17.0280918,43.8339922 16.8555085,43.2 16.6445734,43.2 L1.98351837,43.2 C1.77258327,43.2 1.6,43.8339922 1.6,44.6088716 C1.6,45.3850554 1.77258327,46.0190477 1.98351837,46.0190477" id="Fill-1"></path>
                        <path d="M1.98351837,54.0190477 L16.6445734,54.0190477 C16.8555085,54.0190477 17.0280918,53.3850554 17.0280918,52.6088716 C17.0280918,51.8339922 16.8555085,51.2 16.6445734,51.2 L1.98351837,51.2 C1.77258327,51.2 1.6,51.8339922 1.6,52.6088716 C1.6,53.3850554 1.77258327,54.0190477 1.98351837,54.0190477" id="Fill-1-Copy-3"></path>
                        <path d="M24.3835184,46.0190477 L39.0445734,46.0190477 C39.2555085,46.0190477 39.4280918,45.3850554 39.4280918,44.6088716 C39.4280918,43.8339922 39.2555085,43.2 39.0445734,43.2 L24.3835184,43.2 C24.1725833,43.2 24,43.8339922 24,44.6088716 C24,45.3850554 24.1725833,46.0190477 24.3835184,46.0190477" id="Fill-1-Copy"></path>
                        <path d="M24.3835184,54.0190477 L39.0445734,54.0190477 C39.2555085,54.0190477 39.4280918,53.3850554 39.4280918,52.6088716 C39.4280918,51.8339922 39.2555085,51.2 39.0445734,51.2 L24.3835184,51.2 C24.1725833,51.2 24,51.8339922 24,52.6088716 C24,53.3850554 24.1725833,54.0190477 24.3835184,54.0190477" id="Fill-1-Copy-4"></path>
                        <path d="M45.1835184,46.0190477 L59.8445734,46.0190477 C60.0555085,46.0190477 60.2280918,45.3850554 60.2280918,44.6088716 C60.2280918,43.8339922 60.0555085,43.2 59.8445734,43.2 L45.1835184,43.2 C44.9725833,43.2 44.8,43.8339922 44.8,44.6088716 C44.8,45.3850554 44.9725833,46.0190477 45.1835184,46.0190477" id="Fill-1-Copy-2"></path>
                        <path d="M45.1835184,54.0190477 L59.8445734,54.0190477 C60.0555085,54.0190477 60.2280918,53.3850554 60.2280918,52.6088716 C60.2280918,51.8339922 60.0555085,51.2 59.8445734,51.2 L45.1835184,51.2 C44.9725833,51.2 44.8,51.8339922 44.8,52.6088716 C44.8,53.3850554 44.9725833,54.0190477 45.1835184,54.0190477" id="Fill-1-Copy-5"></path>
                        <path d="M5.06419783,62.0190477 L15.1638939,62.0190477 C15.3092028,62.0190477 15.4280918,61.3850554 15.4280918,60.6088716 C15.4280918,59.8339922 15.3092028,59.2 15.1638939,59.2 L5.06419783,59.2 C4.91888903,59.2 4.8,59.8339922 4.8,60.6088716 C4.8,61.3850554 4.91888903,62.0190477 5.06419783,62.0190477" id="Fill-1-Copy-8"></path>
                        <path d="M27.4641978,62.0190477 L37.5638939,62.0190477 C37.7092028,62.0190477 37.8280918,61.3850554 37.8280918,60.6088716 C37.8280918,59.8339922 37.7092028,59.2 37.5638939,59.2 L27.4641978,59.2 C27.318889,59.2 27.2,59.8339922 27.2,60.6088716 C27.2,61.3850554 27.318889,62.0190477 27.4641978,62.0190477" id="Fill-1-Copy-9"></path>
                        <path d="M48.2641978,62.0190477 L58.3638939,62.0190477 C58.5092028,62.0190477 58.6280918,61.3850554 58.6280918,60.6088716 C58.6280918,59.8339922 58.5092028,59.2 58.3638939,59.2 L48.2641978,59.2 C48.118889,59.2 48,59.8339922 48,60.6088716 C48,61.3850554 48.118889,62.0190477 48.2641978,62.0190477" id="Fill-1-Copy-10"></path>
                        <path d="M49.3990931,10.944 C48.4605284,10.944 47.5247447,11.0413333 46.6098179,11.232 C43.684277,4.67466667 36.8570879,0.3 29.4709314,0.3 C20.2535309,0.3 12.5878906,6.58533333 11.0625492,15.3133333 L10.9971973,15.3133333 C4.97091671,15.3133333 0.0667423782,20.06 0.0667423782,25.8946667 C0.0667423782,31.7293333 4.97091671,36.4746667 10.9971973,36.4746667 L49.3990931,36.4746667 C56.6684505,36.4746667 62.5821033,30.748 62.5821033,23.7093333 C62.5821033,16.6706667 56.6684505,10.944 49.3990931,10.944 L49.3990931,10.944 Z M59.9304842,23.7093333 C59.9304842,29.3386667 55.2070705,33.9173333 49.3990931,33.9173333 L10.9971973,33.9173333 C6.4322967,33.9173333 2.71836145,30.3186667 2.71836145,25.8946667 C2.71836145,21.4706667 6.4322967,17.8706667 10.9971973,17.8706667 C11.3017094,17.8706667 11.6354213,17.8933333 12.0456088,17.9426667 L13.3929706,18.104 L13.5278458,16.8013333 C14.3593446,8.852 21.214343,2.85733333 29.4709314,2.85733333 C36.2258162,2.85733333 42.2882489,7.00933333 44.5574898,13.1893333 L44.9871438,14.356 L46.2079732,13.98 C47.245261,13.6626667 48.3187009,13.5013333 49.3990931,13.5013333 C55.2070705,13.5013333 59.9304842,18.08 59.9304842,23.7093333 L59.9304842,23.7093333 Z" id="Fill-3"></path>
                    </g>
                </g>
            </g>
        </g>
    </g>
</svg>