<?xml version="1.0" encoding="UTF-8" standalone="no"?>
<svg width="80px" height="80px" viewBox="0 0 80 80" version="1.1" xmlns="http://www.w3.org/2000/svg" xmlns:xlink="http://www.w3.org/1999/xlink">
    <!-- Generator: Sketch 46 (44423) - http://www.bohemiancoding.com/sketch -->
    <title>one_qingtian</title>
    <desc>Created with Sketch.</desc>
    <defs></defs>
    <g id="Page-1" stroke="none" stroke-width="1" fill="none" fill-rule="evenodd">
        <g id="Weather" transform="translate(-52.000000, -76.000000)">
            <g id="Day-Time-icons" transform="translate(52.000000, 76.000000)">
                <g id="one_qingtian">
                    <rect id="Rectangle-1" stroke="#2B2B2B" stroke-width="0.5" opacity="0.0229127799" x="0.25" y="0.25" width="79.5" height="79.5"></rect>
                    <g id="Imported-Layers" transform="translate(9.600000, 9.600000)" fill="#FFFFFE">
                        <path d="M50.3605106,50.2892 L41.6260085,42.2382667 C41.083983,41.7392 41.056817,40.8943333 41.5677957,40.3623333 C42.0787745,39.8316 42.941617,39.8062667 43.4849362,40.3066 L52.2194383,48.3562667 C52.7614638,48.8566 52.7873362,49.7002 52.2763574,50.2322 C51.7666723,50.7642 50.9038298,50.7895333 50.3605106,50.2892" id="Fill-1"></path>
                        <path d="M16.990366,19.7321333 L8.25586383,11.6824667 C7.71254468,11.1821333 7.68667234,10.3385333 8.19765106,9.80653333 C8.70862979,9.27453333 9.57017872,9.2492 10.1134979,9.74953333 L18.848,17.8004667 C19.3913191,18.3008 19.4171915,19.1444 18.9062128,19.6764 C18.395234,20.2071333 17.5323915,20.2324667 16.990366,19.7321333" id="Fill-2"></path>
                        <path d="M10.0087149,50.1891333 L18.0252596,41.4516667 C18.5233021,40.9095333 19.3848511,40.8639333 19.9398128,41.3516 C20.4947745,41.8392667 20.5400511,42.6828667 20.0420085,43.2262667 L12.0254638,51.9637333 C11.5274213,52.5058667 10.6658723,52.5514667 10.1122043,52.0638 C9.55724255,51.5761333 9.51067234,50.7325333 10.0087149,50.1891333" id="Fill-3"></path>
                        <path d="M40.432,16.8124667 L48.4485447,8.075 C48.9465872,7.53286667 49.8081362,7.48726667 50.3630979,7.97493333 C50.916766,8.4626 50.9633362,9.3062 50.4652936,9.8496 L42.4487489,18.5870667 C41.9507064,19.1292 41.0891574,19.1748 40.5341957,18.6871333 C39.9805277,18.1994667 39.9339574,17.3558667 40.432,16.8124667" id="Fill-4"></path>
                        <path d="M29.4621277,58.3654667 L29.3250043,46.6209333 C29.3172426,45.8913333 29.9200681,45.2871333 30.6651915,45.2795333 C31.4103149,45.2706667 32.0273702,45.8609333 32.0364255,46.5905333 L32.1735489,58.3350667 C32.1813106,59.0659333 31.5784851,59.6688667 30.8333617,59.6777333 C30.0882383,59.6866 29.471183,59.0963333 29.4621277,58.3654667" id="Fill-5"></path>
                        <path d="M28.792034,13.6344 L28.6549106,1.88986667 C28.6458553,1.159 29.2486809,0.556066667 29.9938043,0.5472 C30.7389277,0.538333333 31.355983,1.1286 31.3650383,1.85946667 L31.5021617,13.604 C31.511217,14.3336 30.9070979,14.9378 30.1619745,14.9454 C29.4168511,14.9542667 28.7997957,14.364 28.792034,13.6344" id="Fill-6"></path>
                        <path d="M1.57562553,28.7672667 L13.5713362,28.8052667 C14.3164596,28.8078 14.9244596,29.4069333 14.9218723,30.1365333 C14.9205787,30.8661333 14.3086979,31.4614667 13.5622809,31.4589333 L1.56786383,31.4222 C0.821446809,31.4196667 0.213446809,30.8205333 0.216034043,30.0909333 C0.218621277,29.3600667 0.830502128,28.7647333 1.57562553,28.7672667" id="Fill-7"></path>
                        <path d="M47.2648851,28.766 L59.2605957,28.8027333 C60.0057191,28.8052667 60.6137191,29.4044 60.6111319,30.134 C60.6085447,30.8648667 59.9966638,31.4602 59.2515404,31.4576667 L47.2558298,31.4196667 C46.5107064,31.4171333 45.9027064,30.818 45.9052936,30.0884 C45.9078809,29.3588 46.5197617,28.7634667 47.2648851,28.766" id="Fill-8"></path>
                        <path d="M30.0778894,17.8068 C23.1492766,17.8068 17.5116936,23.3269333 17.5116936,30.1112 C17.5116936,36.8967333 23.1492766,42.4168667 30.0778894,42.4168667 C37.0077957,42.4168667 42.6453787,36.8967333 42.6453787,30.1112 C42.6453787,23.3269333 37.0077957,17.8068 30.0778894,17.8068 L30.0778894,17.8068 Z M40.0775489,30.1112 C40.0775489,35.5097333 35.5912851,39.9025333 30.0778894,39.9025333 C24.5644936,39.9025333 20.0795234,35.5097333 20.0795234,30.1112 C20.0795234,24.7126667 24.5644936,20.3198667 30.0778894,20.3198667 C35.5912851,20.3198667 40.0775489,24.7126667 40.0775489,30.1112 L40.0775489,30.1112 Z" id="Fill-9"></path>
                    </g>
                </g>
            </g>
        </g>
    </g>
</svg>