<?xml version="1.0" encoding="UTF-8" standalone="no"?>
<svg width="80px" height="80px" viewBox="0 0 80 80" version="1.1" xmlns="http://www.w3.org/2000/svg" xmlns:xlink="http://www.w3.org/1999/xlink">
    <!-- Generator: Sketch 46 (44423) - http://www.bohemiancoding.com/sketch -->
    <title>one_zhenyu</title>
    <desc>Created with Sketch.</desc>
    <defs></defs>
    <g id="Page-1" stroke="none" stroke-width="1" fill="none" fill-rule="evenodd">
        <g id="Weather" transform="translate(-614.000000, -76.000000)">
            <g id="Day-Time-icons" transform="translate(52.000000, 76.000000)">
                <g id="one_zhenyu" transform="translate(562.000000, 0.000000)">
                    <g id="Fill-1-+-Rectangle-1-Copy-12" stroke="#2B2B2B" stroke-width="0.5" opacity="0.0229127799">
                        <rect id="Rectangle-1" x="0.25" y="0.25" width="79.5" height="79.5"></rect>
                    </g>
                    <g id="Imported-Layers" transform="translate(8.000000, 10.400000)" fill="#FFFFFF">
                        <path d="M49.8756923,11.757551 C48.928,11.757551 47.9827692,11.8579592 47.0572308,12.0587755 C44.1021538,5.18571429 37.2061538,0.60122449 29.744,0.60122449 C20.4332308,0.60122449 12.6892308,7.1877551 11.1483077,16.3371429 C11.1261538,16.3359184 11.104,16.3359184 11.0830769,16.3359184 C4.99446154,16.3359184 0.0406153846,21.3122449 0.0406153846,27.4273469 C0.0406153846,33.5412245 4.99446154,38.515102 11.0830769,38.515102 L49.8756923,38.515102 C57.2184615,38.515102 63.1938462,32.5126531 63.1938462,25.1363265 C63.1938462,17.7587755 57.2184615,11.757551 49.8756923,11.757551 L49.8756923,11.757551 Z M60.5144615,25.1363265 C60.5144615,31.0359184 55.7427692,35.8346939 49.8756923,35.8346939 L11.0830769,35.8346939 C6.47138462,35.8346939 2.71876923,32.0632653 2.71876923,27.4273469 C2.71876923,22.7889796 6.47138462,19.0163265 11.0830769,19.0163265 C11.3907692,19.0163265 11.7267692,19.0408163 12.1415385,19.0910204 L13.5015385,19.2612245 L13.6393846,17.8959184 C14.4787692,9.5644898 21.4030769,3.28163265 29.744,3.28163265 C36.5686154,3.28163265 42.6929231,7.63346939 44.9846154,14.1097959 L45.4178462,15.3318367 L46.6523077,14.9387755 C47.6996923,14.6057143 48.784,14.4379592 49.8756923,14.4379592 C55.7427692,14.4379592 60.5144615,19.2367347 60.5144615,25.1363265 L60.5144615,25.1363265 Z" id="Fill-1"></path>
                        <circle id="Oval-2" cx="15.2" cy="51.2" r="2.4"></circle>
                        <circle id="Oval-2-Copy" cx="40.8" cy="51.2" r="2.4"></circle>
                        <path d="M24.1676845,48.2980152 C25.2950691,50.3465866 26.4236845,52.3951581 27.5510691,54.4437295 C28.3362999,55.8690356 30.5295307,54.5967907 29.7430691,53.1690356 C28.6144538,51.1204642 27.4870691,49.0718928 26.3584538,47.0233213 C25.573223,45.5980152 23.381223,46.8714846 24.1676845,48.2980152" id="Fill-2"></path>
                        <path d="M49.7676845,48.2980152 C50.8950691,50.3465866 52.0236845,52.3951581 53.1510691,54.4437295 C53.9362999,55.8690356 56.1295307,54.5967907 55.3430691,53.1690356 C54.2144538,51.1204642 53.0870691,49.0718928 51.9584538,47.0233213 C51.173223,45.5980152 48.981223,46.8714846 49.7676845,48.2980152" id="Fill-2-Copy"></path>
                    </g>
                </g>
            </g>
        </g>
    </g>
</svg>