<?xml version="1.0" encoding="UTF-8" standalone="no"?>
<svg width="80px" height="80px" viewBox="0 0 80 80" version="1.1" xmlns="http://www.w3.org/2000/svg" xmlns:xlink="http://www.w3.org/1999/xlink">
    <!-- Generator: Sketch 46 (44423) - http://www.bohemiancoding.com/sketch -->
    <title>one_yintian</title>
    <desc>Created with Sketch.</desc>
    <defs></defs>
    <g id="Page-1" stroke="none" stroke-width="1" fill="none" fill-rule="evenodd">
        <g id="Weather" transform="translate(-237.000000, -76.000000)">
            <g id="Day-Time-icons" transform="translate(52.000000, 76.000000)">
                <g id="one_yintian" transform="translate(185.000000, 0.000000)">
                    <g id="Fill-1-+-Rectangle-1-Copy-6" stroke="#2B2B2B" stroke-width="0.5" opacity="0.0229127799">
                        <rect id="Rectangle-1" x="0.25" y="0.25" width="79.5" height="79.5"></rect>
                    </g>
                    <g id="Imported-Layers-Copy-2" transform="translate(1.600000, 21.600000)" fill="#FFFFFF">
                        <path d="M13.6408615,26.5832 L8.33575385,26.5832 C4.87739077,26.5832 2.06414769,23.75615 2.06414769,20.2805 C2.06414769,16.803675 4.87739077,13.97545 8.33575385,13.97545 C8.56615385,13.97545 8.81900308,13.99425 9.12974769,14.03185 L10.1505969,14.15875 L10.2522092,13.1365 C10.8831508,6.8902 16.0748308,2.1808 22.3310769,2.1808 C25.0474338,2.1808 27.6113723,3.107875 29.6814277,4.696475 C30.1280492,4.191225 30.5959385,3.713 31.0898215,3.267675 C28.6322215,1.317175 25.5543138,0.17155 22.3310769,0.17155 C15.3470031,0.17155 9.54092308,5.1089 8.38537846,11.967375 L8.33575385,11.967375 C3.77028923,11.967375 0.0555323077,15.696825 0.0555323077,20.2805 C0.0555323077,24.863 3.77028923,28.59245 8.33575385,28.59245 L13.6881231,28.59245 C13.6408615,28.1765 13.6077785,27.754675 13.6077785,27.324625 C13.6077785,27.07435 13.62432,26.828775 13.6408615,26.5832" id="Fill-1"></path>
                        <path d="M63.14496,11.98735 C62.25408,11.98735 61.3655631,12.082525 60.4971323,12.2717 C57.7193354,5.8139 51.2374154,1.50635 44.2238031,1.50635 C35.4721477,1.50635 28.1938708,7.695075 26.7453046,16.2902 L26.6838646,16.2902 C20.9604923,16.2902 16.3052308,20.96435 16.3052308,26.708925 C16.3052308,32.4535 20.9604923,37.126475 26.6838646,37.126475 L63.14496,37.126475 C70.0475077,37.126475 75.66336,31.48765 75.66336,24.5575 C75.66336,17.626175 70.0475077,11.98735 63.14496,11.98735 L63.14496,11.98735 Z M73.1455015,24.5575 C73.1455015,30.099975 68.6592,34.60845 63.14496,34.60845 L26.6838646,34.60845 C22.3488,34.60845 18.8219077,31.065825 18.8219077,26.708925 C18.8219077,22.352025 22.3488,18.808225 26.6838646,18.808225 C26.97216,18.808225 27.2888123,18.83055 27.67872,18.878725 L28.9571446,19.03735 L29.0859323,17.755425 C29.8763815,9.927575 36.3842954,4.024375 44.2238031,4.024375 C50.6371938,4.024375 56.3936492,8.113375 58.5487754,14.197525 L58.9552246,15.346675 L60.1154954,14.97655 C61.1008985,14.664 62.1193846,14.50655 63.14496,14.50655 C68.6592,14.50655 73.1455015,19.015025 73.1455015,24.5575 L73.1455015,24.5575 Z" id="Fill-2"></path>
                    </g>
                </g>
            </g>
        </g>
    </g>
</svg>