<?xml version="1.0" encoding="UTF-8" standalone="no"?>
<svg width="80px" height="80px" viewBox="0 0 80 80" version="1.1" xmlns="http://www.w3.org/2000/svg" xmlns:xlink="http://www.w3.org/1999/xlink">
    <!-- Generator: Sketch 46 (44423) - http://www.bohemiancoding.com/sketch -->
    <title>one_baoyu</title>
    <desc>Created with Sketch.</desc>
    <defs></defs>
    <g id="Page-1" stroke="none" stroke-width="1" fill="none" fill-rule="evenodd">
        <g id="Weather" transform="translate(-798.000000, -76.000000)">
            <g id="Day-Time-icons" transform="translate(52.000000, 76.000000)">
                <g id="one_baoyu" transform="translate(746.000000, 0.000000)">
                    <g id="Fill-1-+-Rectangle-1-Copy-12" stroke="#2B2B2B" stroke-width="0.5" opacity="0.0229127799">
                        <rect id="Rectangle-1" x="0.25" y="0.25" width="79.5" height="79.5"></rect>
                    </g>
                    <g id="Imported-Layers" transform="translate(8.000000, 10.400000)" fill="#FFFFFF">
                        <path d="M49.8756923,11.757551 C48.928,11.757551 47.9827692,11.8579592 47.0572308,12.0587755 C44.1021538,5.18571429 37.2061538,0.60122449 29.744,0.60122449 C20.4332308,0.60122449 12.6892308,7.1877551 11.1483077,16.3371429 C11.1261538,16.3359184 11.104,16.3359184 11.0830769,16.3359184 C4.99446154,16.3359184 0.0406153846,21.3122449 0.0406153846,27.4273469 C0.0406153846,33.5412245 4.99446154,38.515102 11.0830769,38.515102 L49.8756923,38.515102 C57.2184615,38.515102 63.1938462,32.5126531 63.1938462,25.1363265 C63.1938462,17.7587755 57.2184615,11.757551 49.8756923,11.757551 L49.8756923,11.757551 Z M60.5144615,25.1363265 C60.5144615,31.0359184 55.7427692,35.8346939 49.8756923,35.8346939 L11.0830769,35.8346939 C6.47138462,35.8346939 2.71876923,32.0632653 2.71876923,27.4273469 C2.71876923,22.7889796 6.47138462,19.0163265 11.0830769,19.0163265 C11.3907692,19.0163265 11.7267692,19.0408163 12.1415385,19.0910204 L13.5015385,19.2612245 L13.6393846,17.8959184 C14.4787692,9.5644898 21.4030769,3.28163265 29.744,3.28163265 C36.5686154,3.28163265 42.6929231,7.63346939 44.9846154,14.1097959 L45.4178462,15.3318367 L46.6523077,14.9387755 C47.6996923,14.6057143 48.784,14.4379592 49.8756923,14.4379592 C55.7427692,14.4379592 60.5144615,19.2367347 60.5144615,25.1363265 L60.5144615,25.1363265 Z" id="Fill-1"></path>
                        <path d="M11.3676845,41.8980152 C12.4950691,43.9465866 13.6236845,45.9951581 14.7510691,48.0437295 C15.5362999,49.4690356 17.7295307,48.1967907 16.9430691,46.7690356 C15.8144538,44.7204642 14.6870691,42.6718928 13.5584538,40.6233213 C12.773223,39.1980152 10.581223,40.4714846 11.3676845,41.8980152" id="Fill-2"></path>
                        <path d="M24.1672147,41.8980152 C25.2958301,43.9465866 26.4244455,45.9951581 27.5518301,48.0437295 C28.3370608,49.4690356 30.5302916,48.1967907 29.7438301,46.7690356 C28.6152147,44.7204642 27.4878301,42.6718928 26.3592147,40.6233213 C25.5739839,39.1980152 23.3819839,40.4714846 24.1672147,41.8980152" id="Fill-3"></path>
                        <path d="M36.9676115,41.8980152 C38.0962269,43.9465866 39.2236115,45.9951581 40.3522269,48.0437295 C41.1374576,49.4690356 43.3294576,48.1967907 42.5442269,46.7690356 C41.4156115,44.7204642 40.2869961,42.6718928 39.1596115,40.6233213 C38.3743807,39.1980152 36.1811499,40.4714846 36.9676115,41.8980152" id="Fill-4"></path>
                        <path d="M32.1676115,61.0980152 C33.2962269,63.1465866 34.4236115,65.1951581 35.5522269,67.2437295 C36.3374576,68.6690356 38.5294576,67.3967907 37.7442269,65.9690356 C36.6156115,63.9204642 35.4869961,61.8718928 34.3596115,59.8233213 C33.5743807,58.3980152 31.3811499,59.6714846 32.1676115,61.0980152" id="Fill-4-Copy"></path>
                        <path d="M49.7676115,41.8980152 C50.8962269,43.9465866 52.0236115,45.9951581 53.1522269,48.0437295 C53.9374576,49.4690356 56.1294576,48.1967907 55.3442269,46.7690356 C54.2156115,44.7204642 53.0869961,42.6718928 51.9596115,40.6233213 C51.1743807,39.1980152 48.9811499,40.4714846 49.7676115,41.8980152" id="Fill-5"></path>
                        <path d="M43.3676115,61.0980152 C44.4962269,63.1465866 45.6236115,65.1951581 46.7522269,67.2437295 C47.5374576,68.6690356 49.7294576,67.3967907 48.9442269,65.9690356 C47.8156115,63.9204642 46.6869961,61.8718928 45.5596115,59.8233213 C44.7743807,58.3980152 42.5811499,59.6714846 43.3676115,61.0980152" id="Fill-5-Copy"></path>
                        <path d="M20.9676155,49.8982578 C22.0950001,51.9468292 23.2236155,53.9954007 24.3510001,56.0439721 C25.1362309,57.4692782 27.3294616,56.1970333 26.5430001,54.7692782 C25.4156155,52.7207068 24.2870001,50.6721354 23.1583847,48.6235639 C22.3743847,47.1982578 20.1811539,48.4705027 20.9676155,49.8982578" id="Fill-6"></path>
                        <path d="M33.7676115,49.8980152 C34.8962269,51.9465866 36.0236115,53.9951581 37.1522269,56.0437295 C37.9374576,57.4702601 40.1294576,56.1967907 39.3442269,54.7690356 C38.2156115,52.7204642 37.0869961,50.6718928 35.9596115,48.6233213 C35.1743807,47.1980152 32.9811499,48.4714846 33.7676115,49.8980152" id="Fill-7"></path>
                        <path d="M46.5676845,49.8982578 C47.6950691,51.9468292 48.8236845,53.9954007 49.9510691,56.0439721 C50.7362999,57.4692782 52.9295307,56.1970333 52.1430691,54.7692782 C51.0144538,52.7207068 49.8870691,50.6721354 48.7584538,48.6235639 C47.973223,47.1982578 45.781223,48.4705027 46.5676845,49.8982578" id="Fill-8"></path>
                    </g>
                </g>
            </g>
        </g>
    </g>
</svg>