<?xml version="1.0" encoding="UTF-8" standalone="no"?>
<svg width="80px" height="80px" viewBox="0 0 80 80" version="1.1" xmlns="http://www.w3.org/2000/svg" xmlns:xlink="http://www.w3.org/1999/xlink">
    <!-- Generator: Sketch 46 (44423) - http://www.bohemiancoding.com/sketch -->
    <title>one_dayu</title>
    <desc>Created with Sketch.</desc>
    <defs></defs>
    <g id="Page-1" stroke="none" stroke-width="1" fill="none" fill-rule="evenodd">
        <g id="Weather" transform="translate(-520.000000, -76.000000)">
            <g id="Day-Time-icons" transform="translate(52.000000, 76.000000)">
                <g id="one_dayu" transform="translate(468.000000, 0.000000)">
                    <g id="Fill-1-+-Rectangle-1-Copy-12" stroke="#2B2B2B" stroke-width="0.5" opacity="0.0229127799">
                        <rect id="Rectangle-1" x="0.25" y="0.25" width="79.5" height="79.5"></rect>
                    </g>
                    <g id="Imported-Layers" transform="translate(8.000000, 10.400000)" fill="#FFFFFF">
                        <path d="M49.8756923,11.757551 C48.928,11.757551 47.9827692,11.8579592 47.0572308,12.0587755 C44.1021538,5.18571429 37.2061538,0.60122449 29.744,0.60122449 C20.4332308,0.60122449 12.6892308,7.1877551 11.1483077,16.3371429 C11.1261538,16.3359184 11.104,16.3359184 11.0830769,16.3359184 C4.99446154,16.3359184 0.0406153846,21.3122449 0.0406153846,27.4273469 C0.0406153846,33.5412245 4.99446154,38.515102 11.0830769,38.515102 L49.8756923,38.515102 C57.2184615,38.515102 63.1938462,32.5126531 63.1938462,25.1363265 C63.1938462,17.7587755 57.2184615,11.757551 49.8756923,11.757551 L49.8756923,11.757551 Z M60.5144615,25.1363265 C60.5144615,31.0359184 55.7427692,35.8346939 49.8756923,35.8346939 L11.0830769,35.8346939 C6.47138462,35.8346939 2.71876923,32.0632653 2.71876923,27.4273469 C2.71876923,22.7889796 6.47138462,19.0163265 11.0830769,19.0163265 C11.3907692,19.0163265 11.7267692,19.0408163 12.1415385,19.0910204 L13.5015385,19.2612245 L13.6393846,17.8959184 C14.4787692,9.5644898 21.4030769,3.28163265 29.744,3.28163265 C36.5686154,3.28163265 42.6929231,7.63346939 44.9846154,14.1097959 L45.4178462,15.3318367 L46.6523077,14.9387755 C47.6996923,14.6057143 48.784,14.4379592 49.8756923,14.4379592 C55.7427692,14.4379592 60.5144615,19.2367347 60.5144615,25.1363265 L60.5144615,25.1363265 Z" id="Fill-1"></path>
                        <path d="M11.2701538,45.8938776 C12.3975385,47.942449 13.5261538,49.9910204 14.6535385,52.0395918 C15.4387692,53.464898 17.632,52.1926531 16.8455385,50.764898 C15.7169231,48.7163265 14.5895385,46.6677551 13.4609231,44.6191837 C12.6756923,43.1938776 10.4836923,44.4673469 11.2701538,45.8938776" id="Fill-2"></path>
                        <path d="M23.8424615,45.8938776 C24.9710769,47.942449 26.0996923,49.9910204 27.2270769,52.0395918 C28.0123077,53.464898 30.2055385,52.1926531 29.4190769,50.764898 C28.2904615,48.7163265 27.1630769,46.6677551 26.0344615,44.6191837 C25.2492308,43.1938776 23.0572308,44.4673469 23.8424615,45.8938776" id="Fill-3"></path>
                        <path d="M37.0584615,45.8938776 C38.1870769,47.942449 39.3144615,49.9910204 40.4430769,52.0395918 C41.2283077,53.464898 43.4203077,52.1926531 42.6350769,50.764898 C41.5064615,48.7163265 40.3778462,46.6677551 39.2504615,44.6191837 C38.4652308,43.1938776 36.272,44.4673469 37.0584615,45.8938776" id="Fill-4"></path>
                        <path d="M49.8301538,45.8938776 C50.9587692,47.942449 52.0861538,49.9910204 53.2147692,52.0395918 C54,53.464898 56.192,52.1926531 55.4067692,50.764898 C54.2781538,48.7163265 53.1495385,46.6677551 52.0221538,44.6191837 C51.2369231,43.1938776 49.0436923,44.4673469 49.8301538,45.8938776" id="Fill-5"></path>
                        <path d="M21.6024615,53.1526531 C22.7298462,55.2012245 23.8584615,57.2497959 24.9858462,59.2983673 C25.7710769,60.7236735 27.9643077,59.4514286 27.1778462,58.0236735 C26.0504615,55.975102 24.9218462,53.9265306 23.7932308,51.8779592 C23.0092308,50.4526531 20.816,51.724898 21.6024615,53.1526531" id="Fill-6"></path>
                        <path d="M34.1735385,53.1489796 C35.3021538,55.197551 36.4295385,57.2461224 37.5581538,59.2946939 C38.3433846,60.7212245 40.5353846,59.4477551 39.7501538,58.02 C38.6215385,55.9714286 37.4929231,53.9228571 36.3655385,51.8742857 C35.5803077,50.4489796 33.3870769,51.722449 34.1735385,53.1489796" id="Fill-7"></path>
                        <path d="M46.9981538,52.6420408 C48.1255385,54.6906122 49.2541538,56.7391837 50.3815385,58.7877551 C51.1667692,60.2130612 53.36,58.9408163 52.5735385,57.5130612 C51.4449231,55.4644898 50.3175385,53.4159184 49.1889231,51.3673469 C48.4036923,49.9420408 46.2116923,51.2142857 46.9981538,52.6420408" id="Fill-8"></path>
                    </g>
                </g>
            </g>
        </g>
    </g>
</svg>