<?xml version="1.0" encoding="UTF-8" standalone="no"?>
<svg width="80px" height="80px" viewBox="0 0 80 80" version="1.1" xmlns="http://www.w3.org/2000/svg" xmlns:xlink="http://www.w3.org/1999/xlink">
    <!-- Generator: Sketch 46 (44423) - http://www.bohemiancoding.com/sketch -->
    <title>one_leizhenyu</title>
    <desc>Created with Sketch.</desc>
    <defs></defs>
    <g id="Page-1" stroke="none" stroke-width="1" fill="none" fill-rule="evenodd">
        <g id="Weather" transform="translate(-706.000000, -78.000000)">
            <g id="Day-Time-icons" transform="translate(52.000000, 76.000000)">
                <g id="one_leizhenyu" transform="translate(654.000000, 2.000000)">
                    <rect id="Rectangle-1" stroke="#2B2B2B" stroke-width="0.5" opacity="0.0229127799" x="0.25" y="0.25" width="79.5" height="79.5"></rect>
                    <g id="Imported-Layers-Copy" transform="translate(9.600000, 6.400000)" fill="#FFFFFF">
                        <path d="M48.0286222,11.4128 C47.1211259,11.4128 46.2147556,11.50912 45.3286519,11.70176 C42.4958222,5.11504 35.886637,0.72128 28.7347556,0.72128 C19.8106667,0.72128 12.388563,7.03472 10.9113481,15.80096 L10.8482963,15.80096 C5.01374815,15.80096 0.265718519,20.5688 0.265718519,26.42864 C0.265718519,32.28736 5.01374815,37.05408 10.8482963,37.05408 L48.0286222,37.05408 C55.0667852,37.05408 60.7932444,31.30288 60.7932444,24.23344 C60.7932444,17.164 55.0667852,11.4128 48.0286222,11.4128 L48.0286222,11.4128 Z M58.2261333,24.23344 C58.2261333,29.8872 53.6514963,34.48592 48.0286222,34.48592 L10.8482963,34.48592 C6.42903704,34.48592 2.83282963,30.87168 2.83282963,26.42864 C2.83282963,21.98448 6.42903704,18.36912 10.8482963,18.36912 C11.1432889,18.36912 11.4664296,18.39152 11.8627556,18.4408 L13.1677037,18.6032 L13.2983111,17.29504 C14.1044741,9.31168 20.7406815,3.29056 28.7347556,3.29056 C35.2741333,3.29056 41.1447111,7.46032 43.3413926,13.66736 L43.7568593,14.83888 L44.9402074,14.46144 C45.9445333,14.14224 46.982637,13.98096 48.0286222,13.98096 C53.6514963,13.98096 58.2261333,18.57968 58.2261333,24.23344 L58.2261333,24.23344 Z" id="Fill-1"></path>
                        <path d="M11.0284444,44.12464 C12.1093333,46.088 13.1902222,48.05136 14.2711111,50.01472 C15.0243556,51.38112 17.1253333,50.16144 16.3720889,48.7928 C15.2912,46.82944 14.2091852,44.8672 13.1282963,42.90384 C12.3761778,41.53744 10.2740741,42.75712 11.0284444,44.12464" id="Fill-2"></path>
                        <path d="M47.985837,44.12464 C49.0667259,46.088 50.1476148,48.05136 51.2296296,50.01472 C51.9817481,51.38112 54.0827259,50.16144 53.3294815,48.7928 C52.2485926,46.82944 51.1677037,44.8672 50.0856889,42.90384 C49.3335704,41.53744 47.2325926,42.75712 47.985837,44.12464" id="Fill-3"></path>
                        <path d="M45.2701037,50.59152 C46.3521185,52.55488 47.4330074,54.51824 48.5138963,56.48048 C49.2671407,57.84688 51.3681185,56.6272 50.6148741,55.25968 C49.5339852,53.29632 48.4530963,51.33296 47.3710815,49.37072 C46.618963,48.00432 44.5168593,49.224 45.2701037,50.59152" id="Fill-4"></path>
                        <path d="M2.54459259,43.24768 C3.62660741,45.20992 4.7074963,47.17328 5.78838519,49.13664 C6.54162963,50.50304 8.64260741,49.28336 7.88936296,47.91472 C6.80847407,45.95248 5.72645926,43.98912 4.64557037,42.02576 C3.89345185,40.65936 1.79134815,41.87904 2.54459259,43.24768" id="Fill-5"></path>
                        <path d="M11.0284444,52.43168 C12.1093333,54.39392 13.1902222,56.35728 14.2711111,58.32064 C15.0243556,59.68704 17.1253333,58.46736 16.3720889,57.09872 C15.2912,55.13648 14.2091852,53.17312 13.1282963,51.20976 C12.3761778,49.84336 10.2740741,51.06304 11.0284444,52.43168" id="Fill-6"></path>
                        <polyline id="Fill-7" points="34.4983704 36.93312 34.2394074 37.05408 34.5557926 37.05408 34.4983704 36.93312"></polyline>
                        <polyline id="Fill-8" points="22.7617185 36.8256 22.3991704 37.05408 22.9080889 37.05408 22.7617185 36.8256"></polyline>
                        <path d="M39.625837,52.35328 L35.7087407,52.35328 C35.1896889,52.35328 34.7077926,52.60976 34.4195556,53.03984 C34.1313185,53.46992 34.0784,54.012 34.2788148,54.49024 L37.9560889,63.2408 L22.9790222,47.44208 L26.7283556,47.44208 C27.2935704,47.44208 27.8137481,47.1352 28.0862222,46.6424 C28.3586963,46.14848 28.3395556,45.54704 28.0355556,45.07216 L24.3312593,39.28064 L22.025363,39.28064 L26.0055111,45.5056 L22.0613926,45.5056 C21.4410074,45.5056 20.8825481,45.87072 20.6370963,46.43632 C20.3927704,47.00192 20.5087407,47.65712 20.9332148,48.10512 L38.0337778,66.14384 C38.3400296,66.46752 38.744237,66.6344 39.1552,66.6344 C39.4468148,66.6344 39.7406815,66.5504 40.0041481,66.38016 C40.6436741,65.968 40.8857481,65.19184 40.5918815,64.49184 L36.3043556,54.28864 L40.2507259,54.28864 C40.7844148,54.28864 41.2741926,54.02096 41.5601778,53.57296 C41.845037,53.12384 41.8799407,52.56944 41.6536296,52.09232 L35.6062815,39.28064 L33.455763,39.28064 L39.625837,52.35328" id="Fill-9"></path>
                    </g>
                </g>
            </g>
        </g>
    </g>
</svg>