<?xml version="1.0" encoding="UTF-8" standalone="no"?>
<svg width="80px" height="80px" viewBox="0 0 80 80" version="1.1" xmlns="http://www.w3.org/2000/svg" xmlns:xlink="http://www.w3.org/1999/xlink">
    <!-- Generator: Sketch 46 (44423) - http://www.bohemiancoding.com/sketch -->
    <title>one_zhongyu</title>
    <desc>Created with Sketch.</desc>
    <defs></defs>
    <g id="Page-1" stroke="none" stroke-width="1" fill="none" fill-rule="evenodd">
        <g id="Weather" transform="translate(-428.000000, -76.000000)">
            <g id="Day-Time-icons" transform="translate(52.000000, 76.000000)">
                <g id="one_zhongyu" transform="translate(376.000000, 0.000000)">
                    <rect id="Rectangle-1" stroke="#2B2B2B" stroke-width="0.5" opacity="0.0229127799" x="0.25" y="0.25" width="79.5" height="79.5"></rect>
                    <g id="Imported-Layers" transform="translate(7.400000, 14.400000)" fill="#FFFFFF">
                        <path d="M48.8762909,11.1832178 C47.9501236,11.1832178 47.0251055,11.2822044 46.1207709,11.4767644 C43.2296582,4.78663111 36.4844945,0.323128889 29.1854691,0.323128889 C20.0777745,0.323128889 12.5041164,6.73564444 10.99536,15.6410311 L10.93216,15.6410311 C4.97642182,15.6410311 0.130705455,20.4845511 0.130705455,26.4374044 C0.130705455,32.3902578 4.97642182,37.23264 10.93216,37.23264 L48.8762909,37.23264 C56.0592582,37.23264 61.9035345,31.3890133 61.9035345,24.20736 C61.9035345,17.0257067 56.0592582,11.1832178 48.8762909,11.1832178 L48.8762909,11.1832178 Z M59.2836073,24.20736 C59.2836073,29.9508622 54.616,34.6225778 48.8762909,34.6225778 L10.93216,34.6225778 C6.42082909,34.6225778 2.75063273,30.9509689 2.75063273,26.4374044 C2.75063273,21.9227022 6.42082909,18.2499556 10.93216,18.2499556 C11.2332218,18.2499556 11.5618618,18.2738489 11.9663418,18.3227733 L13.2981382,18.4888889 L13.4314327,17.1599644 C14.2541818,9.04874667 21.0269236,2.93205333 29.1854691,2.93205333 C35.8605382,2.93205333 41.8507491,7.168 44.0926255,13.4735644 L44.51664,14.66368 L45.7243345,14.2802489 C46.7493236,13.95712 47.8099345,13.79328 48.8762909,13.79328 C54.616,13.79328 59.2836073,18.4649956 59.2836073,24.20736 L59.2836073,24.20736 Z" id="Fill-1"></path>
                        <path d="M11.1148655,44.4154311 C12.2179927,46.4099556 13.32112,48.4033422 14.4253964,50.3978667 C15.1929891,51.7859556 17.3371927,50.5469156 16.5684509,49.1576889 C15.4653236,47.1631644 14.3621964,45.16864 13.25792,43.1741156 C12.4903273,41.7860267 10.3461236,43.0250667 11.1148655,44.4154311" id="Fill-2"></path>
                        <path d="M23.4135855,44.4154311 C24.5167127,46.4099556 25.61984,48.4033422 26.7229673,50.3978667 C27.4917091,51.7859556 29.6359127,50.5469156 28.8671709,49.1576889 C27.7640436,47.1631644 26.6609164,45.16864 25.55664,43.1741156 C24.7890473,41.7860267 22.6436945,43.0250667 23.4135855,44.4154311" id="Fill-3"></path>
                        <path d="M36.3397091,44.4154311 C37.4439855,46.4099556 38.5471127,48.4033422 39.65024,50.3978667 C40.4178327,51.7859556 42.5631855,50.5469156 41.7944436,49.1576889 C40.6913164,47.1631644 39.58704,45.16864 38.4839127,43.1741156 C37.71632,41.7860267 35.5709673,43.0250667 36.3397091,44.4154311" id="Fill-4"></path>
                        <path d="M48.8326255,44.4154311 C49.9357527,46.4099556 51.0400291,48.4033422 52.1431564,50.3978667 C52.9107491,51.7859556 55.0561018,50.5469156 54.28736,49.1576889 C53.1830836,47.1631644 52.0799564,45.16864 50.9768291,43.1741156 C50.2080873,41.7860267 48.0638836,43.0250667 48.8326255,44.4154311" id="Fill-5"></path>
                    </g>
                </g>
            </g>
        </g>
    </g>
</svg>