<?xml version="1.0" encoding="UTF-8" standalone="no"?>
<svg width="80px" height="80px" viewBox="0 0 80 80" version="1.1" xmlns="http://www.w3.org/2000/svg" xmlns:xlink="http://www.w3.org/1999/xlink">
    <!-- Generator: Sketch 46 (44423) - http://www.bohemiancoding.com/sketch -->
    <title>one_zhongxue</title>
    <desc>Created with Sketch.</desc>
    <defs></defs>
    <g id="Page-1" stroke="none" stroke-width="1" fill="none" fill-rule="evenodd">
        <g id="Weather" transform="translate(-336.000000, -210.000000)">
            <g id="Day-Time-icons" transform="translate(52.000000, 76.000000)">
                <g id="one_zhongxue" transform="translate(284.000000, 134.000000)">
                    <g id="Fill-1-+-Rectangle-1-Copy-12" stroke="#2B2B2B" stroke-width="0.5" opacity="0.0229127799">
                        <rect id="Rectangle-1" x="0.25" y="0.25" width="79.5" height="79.5"></rect>
                    </g>
                    <g id="Imported-Layers-Copy-4" transform="translate(8.000000, 6.600000)" fill="#FFFFFF">
                        <path d="M49.9141818,11.2549481 C48.9762909,11.2549481 48.0395636,11.3567704 47.1237818,11.5580741 C44.1960727,4.67512593 37.3655273,0.083762963 29.9741091,0.083762963 C20.7499636,0.083762963 13.0804364,6.67997037 11.5537455,15.8416296 C11.5316364,15.8404593 11.5106909,15.8404593 11.4885818,15.8404593 C5.45745455,15.8404593 0.551563636,20.8227259 0.551563636,26.9461037 C0.551563636,33.0694815 5.45745455,38.0505778 11.4885818,38.0505778 L49.9141818,38.0505778 C57.1880727,38.0505778 63.1063273,32.0395556 63.1063273,24.6521778 C63.1063273,17.2659704 57.1880727,11.2549481 49.9141818,11.2549481 L49.9141818,11.2549481 Z M60.4532364,24.6521778 C60.4532364,30.5602074 55.7253818,35.3657481 49.9141818,35.3657481 L11.4885818,35.3657481 C6.92014545,35.3657481 3.20465455,31.588963 3.20465455,26.9461037 C3.20465455,22.3020741 6.92014545,18.5241185 11.4885818,18.5241185 C11.7934545,18.5241185 12.1262545,18.5486963 12.5370182,18.6001926 L13.8856727,18.7698963 L14.0206545,17.4029037 C14.8538182,9.05933333 21.7111273,2.76742222 29.9741091,2.76742222 C36.7325091,2.76742222 42.7997091,7.12471111 45.0699636,13.6109037 L45.4993455,14.8351111 L46.7211636,14.4406963 C47.7591273,14.1083111 48.8331636,13.9397778 49.9141818,13.9397778 C55.7253818,13.9397778 60.4532364,18.7453185 60.4532364,24.6521778 L60.4532364,24.6521778 Z" id="Fill-1"></path>
                        <path d="M15.9431458,46.1431458 L14.4866428,46.1431458 C13.6773226,46.1431458 13.0176624,46.7980375 13.0176624,47.6058875 C13.0176624,48.4193696 13.6753473,49.0686292 14.4866428,49.0686292 L15.9431458,49.0686292 L15.9431458,50.5251321 C15.9431458,51.3344523 16.5980375,51.9941125 17.4058875,51.9941125 C18.2193696,51.9941125 18.8686292,51.3364276 18.8686292,50.5251321 L18.8686292,49.0686292 L20.3251321,49.0686292 C21.1344523,49.0686292 21.7941125,48.4137374 21.7941125,47.6058875 C21.7941125,46.7924053 21.1364276,46.1431458 20.3251321,46.1431458 L18.8686292,46.1431458 L18.8686292,44.6866428 C18.8686292,43.8773226 18.2137374,43.2176624 17.4058875,43.2176624 C16.5924053,43.2176624 15.9431458,43.8753473 15.9431458,44.6866428 L15.9431458,46.1431458 Z" id="Combined-Shape" transform="translate(17.405887, 47.605887) rotate(45.000000) translate(-17.405887, -47.605887) "></path>
                        <path d="M23.9431458,58.9431458 L22.4866428,58.9431458 C21.6773226,58.9431458 21.0176624,59.5980375 21.0176624,60.4058875 C21.0176624,61.2193696 21.6753473,61.8686292 22.4866428,61.8686292 L23.9431458,61.8686292 L23.9431458,63.3251321 C23.9431458,64.1344523 24.5980375,64.7941125 25.4058875,64.7941125 C26.2193696,64.7941125 26.8686292,64.1364276 26.8686292,63.3251321 L26.8686292,61.8686292 L28.3251321,61.8686292 C29.1344523,61.8686292 29.7941125,61.2137374 29.7941125,60.4058875 C29.7941125,59.5924053 29.1364276,58.9431458 28.3251321,58.9431458 L26.8686292,58.9431458 L26.8686292,57.4866428 C26.8686292,56.6773226 26.2137374,56.0176624 25.4058875,56.0176624 C24.5924053,56.0176624 23.9431458,56.6753473 23.9431458,57.4866428 L23.9431458,58.9431458 Z" id="Combined-Shape-Copy-3" transform="translate(25.405887, 60.405887) rotate(45.000000) translate(-25.405887, -60.405887) "></path>
                        <path d="M31.9431458,46.1431458 L30.4866428,46.1431458 C29.6773226,46.1431458 29.0176624,46.7980375 29.0176624,47.6058875 C29.0176624,48.4193696 29.6753473,49.0686292 30.4866428,49.0686292 L31.9431458,49.0686292 L31.9431458,50.5251321 C31.9431458,51.3344523 32.5980375,51.9941125 33.4058875,51.9941125 C34.2193696,51.9941125 34.8686292,51.3364276 34.8686292,50.5251321 L34.8686292,49.0686292 L36.3251321,49.0686292 C37.1344523,49.0686292 37.7941125,48.4137374 37.7941125,47.6058875 C37.7941125,46.7924053 37.1364276,46.1431458 36.3251321,46.1431458 L34.8686292,46.1431458 L34.8686292,44.6866428 C34.8686292,43.8773226 34.2137374,43.2176624 33.4058875,43.2176624 C32.5924053,43.2176624 31.9431458,43.8753473 31.9431458,44.6866428 L31.9431458,46.1431458 Z" id="Combined-Shape-Copy-2" transform="translate(33.405887, 47.605887) rotate(45.000000) translate(-33.405887, -47.605887) "></path>
                        <path d="M38.3431458,58.9431458 L36.8866428,58.9431458 C36.0773226,58.9431458 35.4176624,59.5980375 35.4176624,60.4058875 C35.4176624,61.2193696 36.0753473,61.8686292 36.8866428,61.8686292 L38.3431458,61.8686292 L38.3431458,63.3251321 C38.3431458,64.1344523 38.9980375,64.7941125 39.8058875,64.7941125 C40.6193696,64.7941125 41.2686292,64.1364276 41.2686292,63.3251321 L41.2686292,61.8686292 L42.7251321,61.8686292 C43.5344523,61.8686292 44.1941125,61.2137374 44.1941125,60.4058875 C44.1941125,59.5924053 43.5364276,58.9431458 42.7251321,58.9431458 L41.2686292,58.9431458 L41.2686292,57.4866428 C41.2686292,56.6773226 40.6137374,56.0176624 39.8058875,56.0176624 C38.9924053,56.0176624 38.3431458,56.6753473 38.3431458,57.4866428 L38.3431458,58.9431458 Z" id="Combined-Shape-Copy-4" transform="translate(39.805887, 60.405887) rotate(45.000000) translate(-39.805887, -60.405887) "></path>
                        <path d="M46.3431458,46.1431458 L44.8866428,46.1431458 C44.0773226,46.1431458 43.4176624,46.7980375 43.4176624,47.6058875 C43.4176624,48.4193696 44.0753473,49.0686292 44.8866428,49.0686292 L46.3431458,49.0686292 L46.3431458,50.5251321 C46.3431458,51.3344523 46.9980375,51.9941125 47.8058875,51.9941125 C48.6193696,51.9941125 49.2686292,51.3364276 49.2686292,50.5251321 L49.2686292,49.0686292 L50.7251321,49.0686292 C51.5344523,49.0686292 52.1941125,48.4137374 52.1941125,47.6058875 C52.1941125,46.7924053 51.5364276,46.1431458 50.7251321,46.1431458 L49.2686292,46.1431458 L49.2686292,44.6866428 C49.2686292,43.8773226 48.6137374,43.2176624 47.8058875,43.2176624 C46.9924053,43.2176624 46.3431458,43.8753473 46.3431458,44.6866428 L46.3431458,46.1431458 Z" id="Combined-Shape-Copy" transform="translate(47.805887, 47.605887) rotate(45.000000) translate(-47.805887, -47.605887) "></path>
                    </g>
                </g>
            </g>
        </g>
    </g>
</svg>