<?xml version="1.0" encoding="UTF-8" standalone="no"?>
<svg width="80px" height="80px" viewBox="0 0 80 80" version="1.1" xmlns="http://www.w3.org/2000/svg" xmlns:xlink="http://www.w3.org/1999/xlink">
    <!-- Generator: Sketch 46 (44423) - http://www.bohemiancoding.com/sketch -->
    <title>one_fuchen</title>
    <desc>Created with Sketch.</desc>
    <defs></defs>
    <g id="Page-1" stroke="none" stroke-width="1" fill="none" fill-rule="evenodd">
        <g id="Weather" transform="translate(-706.000000, -209.000000)">
            <g id="Day-Time-icons" transform="translate(52.000000, 76.000000)">
                <g id="one_fuchen" transform="translate(654.000000, 133.000000)">
                    <rect id="Rectangle-1" stroke="#2B2B2B" stroke-width="0.5" opacity="0.0229127799" x="0.25" y="0.25" width="79.5" height="79.5"></rect>
                    <g id="Imported-Layers" transform="translate(13.000000, 18.600000)" fill="#FFFFFF">
                        <g id="风" transform="translate(0.000000, -0.000000)">
                            <path d="M44.6597223,23.8894297 L1.54074538,23.8894297 C0.733643336,23.8894297 0.0807283712,23.1619981 0.0807283712,22.2691868 C0.0807283712,21.3763188 0.733643336,20.648944 1.54074538,20.648944 L44.6597223,20.648944 C48.1080597,20.648944 50.9131716,17.5408528 50.9131716,13.7184445 C50.9131716,9.89603624 48.1080597,6.78794507 44.6597223,6.78794507 C41.7788407,6.78794507 39.2821029,8.95036946 38.5864302,12.0387604 C38.3929217,12.9050587 37.5988892,13.4340689 36.8147716,13.2158337 C36.0305977,13.0041842 35.5548542,12.1246011 35.748419,11.2583596 C36.7721265,6.72174782 40.433633,3.55410185 44.6597223,3.55410185 C49.71894,3.55410185 53.836642,8.11052744 53.836642,13.7184445 C53.836642,19.326305 49.7188837,23.8894297 44.6597223,23.8894297 L44.6597223,23.8894297 Z M25.4592905,17.1109114 C25.4198565,17.1109114 25.3772677,17.1109114 25.3345663,17.1043257 C25.2951886,17.1109114 25.2558109,17.1109114 25.2098421,17.1109114 L1.62276818,17.1109114 C0.772964718,17.1109114 0.0807283712,16.3967079 0.0807283712,15.5171815 C0.0807283712,14.6442408 0.772964718,13.9300373 1.62276818,13.9300373 L25.2098421,13.9300373 C25.2557546,13.9300373 25.2951886,13.9300373 25.3345663,13.9366797 C25.373944,13.9300373 25.4198565,13.9300373 25.4592905,13.9300373 C28.2809085,13.9300373 30.5775467,11.5559634 30.5775467,8.63953765 C30.5775467,5.72975432 28.2808521,3.35568045 25.4592905,3.35568045 C23.4415073,3.35568045 21.6073176,4.58566613 20.7804986,6.49028458 C20.4326904,7.29049913 19.5205812,7.65418653 18.7462657,7.29714157 C17.9654155,6.9333406 17.6176636,5.99431621 17.9654155,5.19410166 C19.2844276,2.14556529 22.2242349,0.174806348 25.4592905,0.174806348 C29.9804027,0.174806348 33.6617952,3.97064486 33.6617952,8.63959441 C33.6617389,13.3149593 29.9804027,17.1109114 25.4592905,17.1109114 L25.4592905,17.1109114 Z M1.51449361,27.2487979 L36.1092968,27.2487979 C40.3221474,27.2487979 43.7475568,31.0513924 43.7475568,35.7202284 C43.7475568,40.3890077 40.3221475,44.1916021 36.1092968,44.1916021 C33.1007616,44.1916021 30.3610538,42.2208432 29.1340356,39.17225 C28.8124229,38.3720923 29.1371904,37.4264255 29.8623823,37.0692669 C30.5841941,36.7122219 31.4339976,37.0692669 31.7588214,37.8761239 C32.5232783,39.7740432 34.2326311,41.0040856 36.1093532,41.0040856 C38.7407864,41.0040856 40.8767591,38.6366542 40.8767591,35.7202852 C40.8767591,32.8038595 38.7407864,30.436428 36.1093532,30.436428 L1.51449361,30.436428 C0.723728542,30.436428 0.0807284263,29.7221677 0.0807284263,28.8426981 C0.0807284263,27.9632285 0.723728487,27.2487979 1.51449361,27.2487979 L1.51449361,27.2487979 Z" id="Shape"></path>
                        </g>
                    </g>
                </g>
            </g>
        </g>
    </g>
</svg>