<?xml version="1.0" encoding="UTF-8" standalone="no"?>
<svg width="80px" height="80px" viewBox="0 0 80 80" version="1.1" xmlns="http://www.w3.org/2000/svg" xmlns:xlink="http://www.w3.org/1999/xlink">
    <!-- Generator: Sketch 46 (44423) - http://www.bohemiancoding.com/sketch -->
    <title>one_tedabaoyu</title>
    <desc>Created with Sketch.</desc>
    <defs></defs>
    <g id="Page-1" stroke="none" stroke-width="1" fill="none" fill-rule="evenodd">
        <g id="Weather" transform="translate(-890.000000, -76.000000)">
            <g id="Day-Time-icons" transform="translate(52.000000, 76.000000)">
                <g id="one_tedabaoyu" transform="translate(838.000000, 0.000000)">
                    <g id="Fill-1-+-Rectangle-1-Copy-12" stroke="#2B2B2B" stroke-width="0.5" opacity="0.0229127799">
                        <rect id="Rectangle-1" x="0.25" y="0.25" width="79.5" height="79.5"></rect>
                    </g>
                    <g id="Imported-Layers" transform="translate(8.000000, 4.000000)" fill="#FFFFFF">
                        <path d="M49.8756923,11.757551 C48.928,11.757551 47.9827692,11.8579592 47.0572308,12.0587755 C44.1021538,5.18571429 37.2061538,0.60122449 29.744,0.60122449 C20.4332308,0.60122449 12.6892308,7.1877551 11.1483077,16.3371429 C11.1261538,16.3359184 11.104,16.3359184 11.0830769,16.3359184 C4.99446154,16.3359184 0.0406153846,21.3122449 0.0406153846,27.4273469 C0.0406153846,33.5412245 4.99446154,38.515102 11.0830769,38.515102 L49.8756923,38.515102 C57.2184615,38.515102 63.1938462,32.5126531 63.1938462,25.1363265 C63.1938462,17.7587755 57.2184615,11.757551 49.8756923,11.757551 L49.8756923,11.757551 Z M60.5144615,25.1363265 C60.5144615,31.0359184 55.7427692,35.8346939 49.8756923,35.8346939 L11.0830769,35.8346939 C6.47138462,35.8346939 2.71876923,32.0632653 2.71876923,27.4273469 C2.71876923,22.7889796 6.47138462,19.0163265 11.0830769,19.0163265 C11.3907692,19.0163265 11.7267692,19.0408163 12.1415385,19.0910204 L13.5015385,19.2612245 L13.6393846,17.8959184 C14.4787692,9.5644898 21.4030769,3.28163265 29.744,3.28163265 C36.5686154,3.28163265 42.6929231,7.63346939 44.9846154,14.1097959 L45.4178462,15.3318367 L46.6523077,14.9387755 C47.6996923,14.6057143 48.784,14.4379592 49.8756923,14.4379592 C55.7427692,14.4379592 60.5144615,19.2367347 60.5144615,25.1363265 L60.5144615,25.1363265 Z" id="Fill-1"></path>
                        <path d="M11.3676845,41.8980152 C12.4950691,43.9465866 13.6236845,45.9951581 14.7510691,48.0437295 C15.5362999,49.4690356 17.7295307,48.1967907 16.9430691,46.7690356 C15.8144538,44.7204642 14.6870691,42.6718928 13.5584538,40.6233213 C12.773223,39.1980152 10.581223,40.4714846 11.3676845,41.8980152" id="Fill-2"></path>
                        <path d="M11.3676845,53.0980152 C12.4950691,55.1465866 13.6236845,57.1951581 14.7510691,59.2437295 C15.5362999,60.6690356 17.7295307,59.3967907 16.9430691,57.9690356 C15.8144538,55.9204642 14.6870691,53.8718928 13.5584538,51.8233213 C12.773223,50.3980152 10.581223,51.6714846 11.3676845,53.0980152" id="Fill-2-Copy-2"></path>
                        <path d="M24.1672147,41.8980152 C25.2958301,43.9465866 26.4244455,45.9951581 27.5518301,48.0437295 C28.3370608,49.4690356 30.5302916,48.1967907 29.7438301,46.7690356 C28.6152147,44.7204642 27.4878301,42.6718928 26.3592147,40.6233213 C25.5739839,39.1980152 23.3819839,40.4714846 24.1672147,41.8980152" id="Fill-3"></path>
                        <path d="M24.1672147,53.0980152 C25.2958301,55.1465866 26.4244455,57.1951581 27.5518301,59.2437295 C28.3370608,60.6690356 30.5302916,59.3967907 29.7438301,57.9690356 C28.6152147,55.9204642 27.4878301,53.8718928 26.3592147,51.8233213 C25.5739839,50.3980152 23.3819839,51.6714846 24.1672147,53.0980152" id="Fill-3-Copy"></path>
                        <path d="M36.9676115,41.8980152 C38.0962269,43.9465866 39.2236115,45.9951581 40.3522269,48.0437295 C41.1374576,49.4690356 43.3294576,48.1967907 42.5442269,46.7690356 C41.4156115,44.7204642 40.2869961,42.6718928 39.1596115,40.6233213 C38.3743807,39.1980152 36.1811499,40.4714846 36.9676115,41.8980152" id="Fill-4"></path>
                        <path d="M36.9676115,53.0980152 C38.0962269,55.1465866 39.2236115,57.1951581 40.3522269,59.2437295 C41.1374576,60.6690356 43.3294576,59.3967907 42.5442269,57.9690356 C41.4156115,55.9204642 40.2869961,53.8718928 39.1596115,51.8233213 C38.3743807,50.3980152 36.1811499,51.6714846 36.9676115,53.0980152" id="Fill-4-Copy-2"></path>
                        <path d="M49.7676115,41.8980152 C50.8962269,43.9465866 52.0236115,45.9951581 53.1522269,48.0437295 C53.9374576,49.4690356 56.1294576,48.1967907 55.3442269,46.7690356 C54.2156115,44.7204642 53.0869961,42.6718928 51.9596115,40.6233213 C51.1743807,39.1980152 48.9811499,40.4714846 49.7676115,41.8980152" id="Fill-5"></path>
                        <path d="M49.7676115,53.0980152 C50.8962269,55.1465866 52.0236115,57.1951581 53.1522269,59.2437295 C53.9374576,60.6690356 56.1294576,59.3967907 55.3442269,57.9690356 C54.2156115,55.9204642 53.0869961,53.8718928 51.9596115,51.8233213 C51.1743807,50.3980152 48.9811499,51.6714846 49.7676115,53.0980152" id="Fill-5-Copy-2"></path>
                        <path d="M20.9672147,64.2980152 C22.0958301,66.3465866 23.2244455,68.3951581 24.3518301,70.4437295 C25.1370608,71.8690356 27.3302916,70.5967907 26.5438301,69.1690356 C25.4152147,67.1204642 24.2878301,65.0718928 23.1592147,63.0233213 C22.3739839,61.5980152 20.1819839,62.8714846 20.9672147,64.2980152" id="Fill-3-Copy-2"></path>
                        <path d="M33.7676115,64.2980152 C34.8962269,66.3465866 36.0236115,68.3951581 37.1522269,70.4437295 C37.9374576,71.8690356 40.1294576,70.5967907 39.3442269,69.1690356 C38.2156115,67.1204642 37.0869961,65.0718928 35.9596115,63.0233213 C35.1743807,61.5980152 32.9811499,62.8714846 33.7676115,64.2980152" id="Fill-4-Copy-3"></path>
                        <path d="M46.5676115,64.2980152 C47.6962269,66.3465866 48.8236115,68.3951581 49.9522269,70.4437295 C50.7374576,71.8690356 52.9294576,70.5967907 52.1442269,69.1690356 C51.0156115,67.1204642 49.8869961,65.0718928 48.7596115,63.0233213 C47.9743807,61.5980152 45.7811499,62.8714846 46.5676115,64.2980152" id="Fill-5-Copy-3"></path>
                    </g>
                </g>
            </g>
        </g>
    </g>
</svg>