<?xml version="1.0" encoding="UTF-8" standalone="no"?>
<svg width="80px" height="80px" viewBox="0 0 80 80" version="1.1" xmlns="http://www.w3.org/2000/svg" xmlns:xlink="http://www.w3.org/1999/xlink">
    <!-- Generator: Sketch 46 (44423) - http://www.bohemiancoding.com/sketch -->
    <title>one_duoyun</title>
    <desc>Created with Sketch.</desc>
    <defs></defs>
    <g id="Page-1" stroke="none" stroke-width="1" fill="none" fill-rule="evenodd">
        <g id="Weather" transform="translate(-145.000000, -76.000000)">
            <g id="Day-Time-icons" transform="translate(52.000000, 76.000000)">
                <g id="one_duoyun" transform="translate(93.000000, 0.000000)">
                    <g id="Rectangle-1-+-Imported-Layers">
                        <rect id="Rectangle-1" stroke="#EEEEEE" stroke-width="0.5" opacity="0.01" x="0.25" y="0.25" width="79.5" height="79.5"></rect>
                        <g id="Imported-Layers" transform="translate(2.400000, 12.000000)" fill="#FFFFFF">
                            <path d="M63.7613793,31.7949767 C62.9437241,31.7949767 62.1273793,31.8822326 61.3293793,32.0554419 C58.7768276,26.1272558 52.8226207,22.172093 46.3796552,22.172093 C38.3393793,22.172093 31.654,27.8541395 30.3226897,35.7449302 L30.2663448,35.7449302 C25.0092414,35.7449302 20.7322759,40.036093 20.7322759,45.311814 C20.7322759,50.5849302 25.0092414,54.8747907 30.2663448,54.8747907 L63.7613793,54.8747907 C70.1021379,54.8747907 75.2609655,49.6980465 75.2609655,43.3348837 C75.2609655,36.9717209 70.1021379,31.7949767 63.7613793,31.7949767 L63.7613793,31.7949767 Z M72.9482069,43.3348837 C72.9482069,48.4230698 68.8271724,52.5631628 63.7613793,52.5631628 L30.2663448,52.5631628 C26.2842069,52.5631628 23.0450345,49.3099535 23.0450345,45.311814 C23.0450345,41.3110698 26.2842069,38.0565581 30.2663448,38.0565581 C30.5323448,38.0565581 30.8232414,38.0773953 31.1809655,38.1216744 L32.3563448,38.2675349 L32.4742759,37.0902326 C33.1988966,29.904 39.178,24.4850233 46.3796552,24.4850233 C52.2709655,24.4850233 57.5595172,28.2370233 59.5394483,33.824 L59.9128966,34.8788837 L60.9782069,34.5389767 C61.8836552,34.2524651 62.8192414,34.107907 63.7613793,34.107907 C68.8271724,34.107907 72.9482069,38.2466977 72.9482069,43.3348837 L72.9482069,43.3348837 Z" id="Fill-1"></path>
                            <path d="M16.6046897,17.0253023 C17.062,17.535814 17.856069,17.5826977 18.3697241,17.1294884 C18.8846897,16.6749767 18.9318621,15.8857674 18.4745517,15.3752558 L11.1274483,7.15106977 C10.6714483,6.64055814 9.87737931,6.59367442 9.36241379,7.04818605 C8.84875862,7.50139535 8.80158621,8.29060465 9.25758621,8.8024186 L16.6046897,17.0253023" id="Fill-2"></path>
                            <path d="M15.7267586,37.3637209 L7.6262069,44.8546977 C7.12303448,45.3209302 7.0942069,46.1101395 7.562,46.6115349 C8.03110345,47.1116279 8.82648276,47.1402791 9.32965517,46.6740465 L17.4302069,39.1830698 C17.9333793,38.7181395 17.9622069,37.9276279 17.4944138,37.4275349 C17.0253103,36.9274419 16.229931,36.8987907 15.7267586,37.3637209" id="Fill-3"></path>
                            <path d="M48.256069,8.79590698 C47.7869655,8.29581395 46.9915862,8.26716279 46.4884138,8.73209302 L38.3878621,16.2230698 C37.8846897,16.6893023 37.8558621,17.4785116 38.3249655,17.979907 C38.7927586,18.48 39.5881379,18.5086512 40.0913103,18.0424186 L48.1918621,10.5514419 C48.6950345,10.0865116 48.7238621,9.296 48.256069,8.79590698" id="Fill-4"></path>
                            <path d="M29.1106207,13.6405581 C29.795931,13.6939535 30.4,13.1795349 30.4537241,12.4984186 L31.3172414,1.53544186 C31.3709655,0.854325581 30.8533793,0.252651163 30.168069,0.199255814 C29.4827586,0.145860465 28.8773793,0.66027907 28.8236552,1.34139535 L27.9614483,12.3043721 C27.9077241,12.9867907 28.424,13.5871628 29.1106207,13.6405581" id="Fill-5"></path>
                            <path d="M13.8293793,26.5570233 L13.8293793,26.5570233 C13.8922759,25.8772093 13.3838621,25.2690233 12.6998621,25.2052093 L1.68248276,24.1867907 C0.997172414,24.1242791 0.385241379,24.6282791 0.322344828,25.3093953 C0.258137931,25.9905116 0.766551724,26.5986977 1.45055172,26.6612093 L12.467931,27.6796279 C13.1532414,27.7434419 13.7651724,27.2381395 13.8293793,26.5570233" id="Fill-6"></path>
                            <path d="M18.5688966,26.9568372 C19.0235862,21.9220465 23.5141379,18.1934884 28.579931,18.6453953 C31.1390345,18.8746047 33.360069,20.1274419 34.8748276,21.959814 C35.4264828,21.4206512 36.027931,20.9075349 36.6804828,20.436093 C34.7765517,18.1492093 31.9933793,16.5864186 28.7908966,16.3012093 C22.4252414,15.7333953 16.7815862,20.4191628 16.2102759,26.7458605 C15.8407586,30.8351628 17.6857241,34.6145116 20.7506207,36.9365581 C21.0965517,36.3453023 21.5630345,35.6993488 22.1828276,35.0664186 C19.7442759,33.2184186 18.2753793,30.2100465 18.5688966,26.9568372" id="Fill-7"></path>
                        </g>
                    </g>
                </g>
            </g>
        </g>
    </g>
</svg>