<?xml version="1.0" encoding="UTF-8" standalone="no"?>
<svg width="80px" height="80px" viewBox="0 0 80 80" version="1.1" xmlns="http://www.w3.org/2000/svg" xmlns:xlink="http://www.w3.org/1999/xlink">
    <!-- Generator: Sketch 46 (44423) - http://www.bohemiancoding.com/sketch -->
    <title>one_baoxue</title>
    <desc>Created with Sketch.</desc>
    <defs></defs>
    <g id="Page-1" stroke="none" stroke-width="1" fill="none" fill-rule="evenodd">
        <g id="Weather" transform="translate(-520.000000, -210.000000)">
            <g id="Day-Time-icons" transform="translate(52.000000, 76.000000)">
                <g id="one_baoxue" transform="translate(468.000000, 134.000000)">
                    <g id="Fill-1-+-Rectangle-1-Copy-12" stroke="#2B2B2B" stroke-width="0.5" opacity="0.0229127799">
                        <rect id="Rectangle-1" x="0.25" y="0.25" width="79.5" height="79.5"></rect>
                    </g>
                    <g id="Imported-Layers-Copy-4" transform="translate(8.000000, 3.400000)" fill="#FFFFFF">
                        <path d="M49.9141818,11.2549481 C48.9762909,11.2549481 48.0395636,11.3567704 47.1237818,11.5580741 C44.1960727,4.67512593 37.3655273,0.083762963 29.9741091,0.083762963 C20.7499636,0.083762963 13.0804364,6.67997037 11.5537455,15.8416296 C11.5316364,15.8404593 11.5106909,15.8404593 11.4885818,15.8404593 C5.45745455,15.8404593 0.551563636,20.8227259 0.551563636,26.9461037 C0.551563636,33.0694815 5.45745455,38.0505778 11.4885818,38.0505778 L49.9141818,38.0505778 C57.1880727,38.0505778 63.1063273,32.0395556 63.1063273,24.6521778 C63.1063273,17.2659704 57.1880727,11.2549481 49.9141818,11.2549481 L49.9141818,11.2549481 Z M60.4532364,24.6521778 C60.4532364,30.5602074 55.7253818,35.3657481 49.9141818,35.3657481 L11.4885818,35.3657481 C6.92014545,35.3657481 3.20465455,31.588963 3.20465455,26.9461037 C3.20465455,22.3020741 6.92014545,18.5241185 11.4885818,18.5241185 C11.7934545,18.5241185 12.1262545,18.5486963 12.5370182,18.6001926 L13.8856727,18.7698963 L14.0206545,17.4029037 C14.8538182,9.05933333 21.7111273,2.76742222 29.9741091,2.76742222 C36.7325091,2.76742222 42.7997091,7.12471111 45.0699636,13.6109037 L45.4993455,14.8351111 L46.7211636,14.4406963 C47.7591273,14.1083111 48.8331636,13.9397778 49.9141818,13.9397778 C55.7253818,13.9397778 60.4532364,18.7453185 60.4532364,24.6521778 L60.4532364,24.6521778 Z" id="Fill-1"></path>
                        <path d="M11.1431458,42.9431458 L9.68664279,42.9431458 C8.87732255,42.9431458 8.21766235,43.5980375 8.21766235,44.4058875 C8.21766235,45.2193696 8.8753473,45.8686292 9.68664279,45.8686292 L11.1431458,45.8686292 L11.1431458,47.3251321 C11.1431458,48.1344523 11.7980375,48.7941125 12.6058875,48.7941125 C13.4193696,48.7941125 14.0686292,48.1364276 14.0686292,47.3251321 L14.0686292,45.8686292 L15.5251321,45.8686292 C16.3344523,45.8686292 16.9941125,45.2137374 16.9941125,44.4058875 C16.9941125,43.5924053 16.3364276,42.9431458 15.5251321,42.9431458 L14.0686292,42.9431458 L14.0686292,41.4866428 C14.0686292,40.6773226 13.4137374,40.0176624 12.6058875,40.0176624 C11.7924053,40.0176624 11.1431458,40.6753473 11.1431458,41.4866428 L11.1431458,42.9431458 Z" id="Combined-Shape" transform="translate(12.605887, 44.405887) rotate(45.000000) translate(-12.605887, -44.405887) "></path>
                        <path d="M19.1431458,52.5431458 L17.6866428,52.5431458 C16.8773226,52.5431458 16.2176624,53.1980375 16.2176624,54.0058875 C16.2176624,54.8193696 16.8753473,55.4686292 17.6866428,55.4686292 L19.1431458,55.4686292 L19.1431458,56.9251321 C19.1431458,57.7344523 19.7980375,58.3941125 20.6058875,58.3941125 C21.4193696,58.3941125 22.0686292,57.7364276 22.0686292,56.9251321 L22.0686292,55.4686292 L23.5251321,55.4686292 C24.3344523,55.4686292 24.9941125,54.8137374 24.9941125,54.0058875 C24.9941125,53.1924053 24.3364276,52.5431458 23.5251321,52.5431458 L22.0686292,52.5431458 L22.0686292,51.0866428 C22.0686292,50.2773226 21.4137374,49.6176624 20.6058875,49.6176624 C19.7924053,49.6176624 19.1431458,50.2753473 19.1431458,51.0866428 L19.1431458,52.5431458 Z" id="Combined-Shape-Copy-8" transform="translate(20.605887, 54.005887) rotate(45.000000) translate(-20.605887, -54.005887) "></path>
                        <path d="M25.0098124,42.9431458 L23.5533095,42.9431458 C22.7439892,42.9431458 22.084329,43.5980375 22.084329,44.4058875 C22.084329,45.2193696 22.742014,45.8686292 23.5533095,45.8686292 L25.0098124,45.8686292 L25.0098124,47.3251321 C25.0098124,48.1344523 25.6647042,48.7941125 26.4725541,48.7941125 C27.2860362,48.7941125 27.9352958,48.1364276 27.9352958,47.3251321 L27.9352958,45.8686292 L29.3917988,45.8686292 C30.201119,45.8686292 30.8607792,45.2137374 30.8607792,44.4058875 C30.8607792,43.5924053 30.2030943,42.9431458 29.3917988,42.9431458 L27.9352958,42.9431458 L27.9352958,41.4866428 C27.9352958,40.6773226 27.2804041,40.0176624 26.4725541,40.0176624 C25.659072,40.0176624 25.0098124,40.6753473 25.0098124,41.4866428 L25.0098124,42.9431458 Z" id="Combined-Shape-Copy-2" transform="translate(26.472554, 44.405887) rotate(45.000000) translate(-26.472554, -44.405887) "></path>
                        <path d="M38.8764791,42.9431458 L37.4199761,42.9431458 C36.6106559,42.9431458 35.9509957,43.5980375 35.9509957,44.4058875 C35.9509957,45.2193696 36.6086806,45.8686292 37.4199761,45.8686292 L38.8764791,45.8686292 L38.8764791,47.3251321 C38.8764791,48.1344523 39.5313708,48.7941125 40.3392208,48.7941125 C41.1527029,48.7941125 41.8019625,48.1364276 41.8019625,47.3251321 L41.8019625,45.8686292 L43.2584654,45.8686292 C44.0677857,45.8686292 44.7274459,45.2137374 44.7274459,44.4058875 C44.7274459,43.5924053 44.0697609,42.9431458 43.2584654,42.9431458 L41.8019625,42.9431458 L41.8019625,41.4866428 C41.8019625,40.6773226 41.1470707,40.0176624 40.3392208,40.0176624 C39.5257387,40.0176624 38.8764791,40.6753473 38.8764791,41.4866428 L38.8764791,42.9431458 Z" id="Combined-Shape-Copy-11" transform="translate(40.339221, 44.405887) rotate(45.000000) translate(-40.339221, -44.405887) "></path>
                        <path d="M32.7431458,52.5431458 L31.2866428,52.5431458 C30.4773226,52.5431458 29.8176624,53.1980375 29.8176624,54.0058875 C29.8176624,54.8193696 30.4753473,55.4686292 31.2866428,55.4686292 L32.7431458,55.4686292 L32.7431458,56.9251321 C32.7431458,57.7344523 33.3980375,58.3941125 34.2058875,58.3941125 C35.0193696,58.3941125 35.6686292,57.7364276 35.6686292,56.9251321 L35.6686292,55.4686292 L37.1251321,55.4686292 C37.9344523,55.4686292 38.5941125,54.8137374 38.5941125,54.0058875 C38.5941125,53.1924053 37.9364276,52.5431458 37.1251321,52.5431458 L35.6686292,52.5431458 L35.6686292,51.0866428 C35.6686292,50.2773226 35.0137374,49.6176624 34.2058875,49.6176624 C33.3924053,49.6176624 32.7431458,50.2753473 32.7431458,51.0866428 L32.7431458,52.5431458 Z" id="Combined-Shape-Copy-9" transform="translate(34.205887, 54.005887) rotate(45.000000) translate(-34.205887, -54.005887) "></path>
                        <path d="M52.7431458,42.9431458 L51.2866428,42.9431458 C50.4773226,42.9431458 49.8176624,43.5980375 49.8176624,44.4058875 C49.8176624,45.2193696 50.4753473,45.8686292 51.2866428,45.8686292 L52.7431458,45.8686292 L52.7431458,47.3251321 C52.7431458,48.1344523 53.3980375,48.7941125 54.2058875,48.7941125 C55.0193696,48.7941125 55.6686292,48.1364276 55.6686292,47.3251321 L55.6686292,45.8686292 L57.1251321,45.8686292 C57.9344523,45.8686292 58.5941125,45.2137374 58.5941125,44.4058875 C58.5941125,43.5924053 57.9364276,42.9431458 57.1251321,42.9431458 L55.6686292,42.9431458 L55.6686292,41.4866428 C55.6686292,40.6773226 55.0137374,40.0176624 54.2058875,40.0176624 C53.3924053,40.0176624 52.7431458,40.6753473 52.7431458,41.4866428 L52.7431458,42.9431458 Z" id="Combined-Shape-Copy" transform="translate(54.205887, 44.405887) rotate(45.000000) translate(-54.205887, -44.405887) "></path>
                        <path d="M46.3431458,52.5431458 L44.8866428,52.5431458 C44.0773226,52.5431458 43.4176624,53.1980375 43.4176624,54.0058875 C43.4176624,54.8193696 44.0753473,55.4686292 44.8866428,55.4686292 L46.3431458,55.4686292 L46.3431458,56.9251321 C46.3431458,57.7344523 46.9980375,58.3941125 47.8058875,58.3941125 C48.6193696,58.3941125 49.2686292,57.7364276 49.2686292,56.9251321 L49.2686292,55.4686292 L50.7251321,55.4686292 C51.5344523,55.4686292 52.1941125,54.8137374 52.1941125,54.0058875 C52.1941125,53.1924053 51.5364276,52.5431458 50.7251321,52.5431458 L49.2686292,52.5431458 L49.2686292,51.0866428 C49.2686292,50.2773226 48.6137374,49.6176624 47.8058875,49.6176624 C46.9924053,49.6176624 46.3431458,50.2753473 46.3431458,51.0866428 L46.3431458,52.5431458 Z" id="Combined-Shape-Copy-10" transform="translate(47.805887, 54.005887) rotate(45.000000) translate(-47.805887, -54.005887) "></path>
                        <path d="M25.5431458,62.1431458 L24.0866428,62.1431458 C23.2773226,62.1431458 22.6176624,62.7980375 22.6176624,63.6058875 C22.6176624,64.4193696 23.2753473,65.0686292 24.0866428,65.0686292 L25.5431458,65.0686292 L25.5431458,66.5251321 C25.5431458,67.3344523 26.1980375,67.9941125 27.0058875,67.9941125 C27.8193696,67.9941125 28.4686292,67.3364276 28.4686292,66.5251321 L28.4686292,65.0686292 L29.9251321,65.0686292 C30.7344523,65.0686292 31.3941125,64.4137374 31.3941125,63.6058875 C31.3941125,62.7924053 30.7364276,62.1431458 29.9251321,62.1431458 L28.4686292,62.1431458 L28.4686292,60.6866428 C28.4686292,59.8773226 27.8137374,59.2176624 27.0058875,59.2176624 C26.1924053,59.2176624 25.5431458,59.8753473 25.5431458,60.6866428 L25.5431458,62.1431458 Z" id="Combined-Shape-Copy-13" transform="translate(27.005887, 63.605887) rotate(45.000000) translate(-27.005887, -63.605887) "></path>
                        <path d="M38.3431458,62.1431458 L36.8866428,62.1431458 C36.0773226,62.1431458 35.4176624,62.7980375 35.4176624,63.6058875 C35.4176624,64.4193696 36.0753473,65.0686292 36.8866428,65.0686292 L38.3431458,65.0686292 L38.3431458,66.5251321 C38.3431458,67.3344523 38.9980375,67.9941125 39.8058875,67.9941125 C40.6193696,67.9941125 41.2686292,67.3364276 41.2686292,66.5251321 L41.2686292,65.0686292 L42.7251321,65.0686292 C43.5344523,65.0686292 44.1941125,64.4137374 44.1941125,63.6058875 C44.1941125,62.7924053 43.5364276,62.1431458 42.7251321,62.1431458 L41.2686292,62.1431458 L41.2686292,60.6866428 C41.2686292,59.8773226 40.6137374,59.2176624 39.8058875,59.2176624 C38.9924053,59.2176624 38.3431458,59.8753473 38.3431458,60.6866428 L38.3431458,62.1431458 Z" id="Combined-Shape-Copy-12" transform="translate(39.805887, 63.605887) rotate(45.000000) translate(-39.805887, -63.605887) "></path>
                    </g>
                </g>
            </g>
        </g>
    </g>
</svg>