<?xml version="1.0" encoding="UTF-8" standalone="no"?>
<svg width="80px" height="80px" viewBox="0 0 80 80" version="1.1" xmlns="http://www.w3.org/2000/svg" xmlns:xlink="http://www.w3.org/1999/xlink">
    <!-- Generator: Sketch 46 (44423) - http://www.bohemiancoding.com/sketch -->
    <title>one_wu</title>
    <desc>Created with Sketch.</desc>
    <defs></defs>
    <g id="Page-1" stroke="none" stroke-width="1" fill="none" fill-rule="evenodd">
        <g id="Weather" transform="translate(-798.000000, -210.000000)">
            <g id="Day-Time-icons" transform="translate(52.000000, 76.000000)">
                <g id="one_wu" transform="translate(746.000000, 134.000000)">
                    <g id="Fill-1-+-Rectangle-1-Copy-6" stroke="#2B2B2B" stroke-width="0.5" opacity="0.0229127799">
                        <rect id="Rectangle-1" x="0.25" y="0.25" width="79.5" height="79.5"></rect>
                    </g>
                    <g id="Imported-Layers" transform="translate(8.800000, 8.000000)" fill="#FFFFFF">
                        <path d="M3.67361173,45.4457143 L61.0803998,45.4457143 C61.9063367,45.4457143 62.5821033,44.8117221 62.5821033,44.0355382 C62.5821033,43.2606589 61.9063367,42.6266667 61.0803998,42.6266667 L3.67361173,42.6266667 C2.8476748,42.6266667 2.17190822,43.2606589 2.17190822,44.0355382 C2.17190822,44.8117221 2.8476748,45.4457143 3.67361173,45.4457143" id="Fill-1"></path>
                        <path d="M17.0443348,54.5537143 L61.0803998,54.5537143 C61.9063367,54.5537143 62.5821033,53.9197221 62.5821033,53.1435382 C62.5821033,52.3686589 61.9063367,51.7346667 61.0803998,51.7346667 L17.0443348,51.7346667 C16.2183979,51.7346667 15.5412409,52.3686589 15.5412409,53.1435382 C15.5412409,53.9197221 16.2183979,54.5537143 17.0443348,54.5537143" id="Fill-2"></path>
                        <path d="M49.3990931,10.944 C48.4605284,10.944 47.5247447,11.0413333 46.6098179,11.232 C43.684277,4.67466667 36.8570879,0.3 29.4709314,0.3 C20.2535309,0.3 12.5878906,6.58533333 11.0625492,15.3133333 L10.9971973,15.3133333 C4.97091671,15.3133333 0.0667423782,20.06 0.0667423782,25.8946667 C0.0667423782,31.7293333 4.97091671,36.4746667 10.9971973,36.4746667 L49.3990931,36.4746667 C56.6684505,36.4746667 62.5821033,30.748 62.5821033,23.7093333 C62.5821033,16.6706667 56.6684505,10.944 49.3990931,10.944 L49.3990931,10.944 Z M59.9304842,23.7093333 C59.9304842,29.3386667 55.2070705,33.9173333 49.3990931,33.9173333 L10.9971973,33.9173333 C6.4322967,33.9173333 2.71836145,30.3186667 2.71836145,25.8946667 C2.71836145,21.4706667 6.4322967,17.8706667 10.9971973,17.8706667 C11.3017094,17.8706667 11.6354213,17.8933333 12.0456088,17.9426667 L13.3929706,18.104 L13.5278458,16.8013333 C14.3593446,8.852 21.214343,2.85733333 29.4709314,2.85733333 C36.2258162,2.85733333 42.2882489,7.00933333 44.5574898,13.1893333 L44.9871438,14.356 L46.2079732,13.98 C47.245261,13.6626667 48.3187009,13.5013333 49.3990931,13.5013333 C55.2070705,13.5013333 59.9304842,18.08 59.9304842,23.7093333 L59.9304842,23.7093333 Z" id="Fill-3"></path>
                        <path d="M31.5621926,63.296381 L61.0803998,63.296381 C61.9063367,63.296381 62.5821033,62.6620953 62.5821033,61.8868572 C62.5821033,61.1116191 61.9063367,60.4773333 61.0803998,60.4773333 L31.5621926,60.4773333 C30.7348652,60.4773333 30.0590986,61.1116191 30.0590986,61.8868572 C30.0590986,62.6620953 30.7348652,63.296381 31.5621926,63.296381" id="Fill-4"></path>
                    </g>
                </g>
            </g>
        </g>
    </g>
</svg>