<?xml version="1.0" encoding="UTF-8" standalone="no"?>
<svg width="128px" height="76px" viewBox="0 0 128 76" version="1.1" xmlns="http://www.w3.org/2000/svg" xmlns:xlink="http://www.w3.org/1999/xlink">
    <!-- Generator: Sketch 50.2 (55047) - http://www.bohemiancoding.com/sketch -->
    <title>电表动图2</title>
    <desc>Created with Sketch.</desc>
    <defs></defs>
    <g id="Page-1" stroke="none" stroke-width="1" fill="none" fill-rule="evenodd">
        <g id="20180830火炬小区平面图" transform="translate(-1666.000000, -56.000000)">
            <g id="电表动图2" transform="translate(1666.000000, 56.000000)">
                <g id="智能电表" transform="translate(24.000000, 46.000000)" fill="#1FF749" fill-rule="nonzero">
                    <polygon id="Shape" points="30 12 32 12 32 15 30 15"></polygon>
                    <polygon id="Shape" points="0 12 2 12 2 15 0 15"></polygon>
                    <polygon id="Shape" points="4 24 28 24 28 30 4 30"></polygon>
                    <path d="M27.0707071,26 L3.92929293,26 C2.3181818,26 1,24.6704545 1,23.0454545 L1,2.95454545 C1,1.32954544 2.31818183,0 3.92929293,0 L27.0707071,0 C28.6818182,0 30,1.32954547 30,2.95454545 L30,23.0454545 C30,24.6704545 28.6818182,26 27.0707071,26 Z M26.0957757,2 L5.95106187,2 C4.87797783,2 4,2.88524589 4,3.96721311 L4,12.0327869 C4,13.1147541 4.87797783,14 5.95106187,14 L26.0469992,14 C27.1200832,14 27.9980611,13.1147541 27.9980611,12.0327869 L27.9980611,3.96721311 C28.0468376,2.88524589 27.1688598,2 26.0957757,2 Z M15.2135922,16 L14,20.6451613 L15.8932039,20.6451613 C15.3592233,24.7580645 15.5533981,25 15.5533981,25 L19,18.2741936 L16.3300971,19.2903226 L17.3495146,16 L15.2135922,16 Z" id="Combined-Shape"></path>
                    <polygon id="Shape" points="6 5 25 5 25 8 6 8"></polygon>
                </g>
                <path d="M43.8917453,43.3322565 L60.2359025,31.5 L124,31.5 C125.932997,31.5 127.5,29.9329966 127.5,28 L127.5,4 C127.5,2.06700338 125.932997,0.5 124,0.5 L4,0.5 C2.06700338,0.5 0.5,2.06700338 0.5,4 L0.5,28 C0.5,29.9329966 2.06700338,31.5 4,31.5 L45.280556,31.5 L43.1074876,42.8330907 C43.0815134,42.9685522 43.1126509,43.1087265 43.1935336,43.2204515 C43.3554653,43.4441315 43.6680654,43.4941882 43.8917453,43.3322565 Z" id="Combined-Shape" stroke="#54C1F0" fill-opacity="0.75" fill="#027FBA"></path>
            </g>
        </g>
    </g>
</svg>