<?xml version="1.0" encoding="UTF-8" standalone="no"?>
<svg width="50px" height="50px" viewBox="0 0 50 50" version="1.1" xmlns="http://www.w3.org/2000/svg" xmlns:xlink="http://www.w3.org/1999/xlink">
    <!-- Generator: Sketch 50.2 (55047) - http://www.bohemiancoding.com/sketch -->
    <title>huanjing01</title>
    <desc>Created with Sketch.</desc>
    <defs>
        <path d="M260,125.02765 C260,125.83871 260.156731,126.612903 260.470192,127.35023 C260.783654,128.087558 261.216969,128.723502 261.770136,129.258065 C262.323304,129.792627 262.968666,130.21659 263.706223,130.529954 C264.44378,130.843318 265.218215,131 266.029527,131 C266.877717,131 267.661372,130.843318 268.380489,130.529954 C269.099607,130.21659 269.726531,129.792627 270.261259,129.258065 C270.795988,128.723502 271.220083,128.087558 271.533545,127.35023 C271.847007,126.612903 272.003737,125.83871 272.003737,125.02765 C272.003737,124.179724 271.847007,123.396313 271.533545,122.677419 C271.220083,121.958525 270.795988,121.322581 270.261259,120.769585 C269.726531,120.21659 269.099607,119.78341 268.380489,119.470046 C267.661372,119.156682 266.877717,119 266.029527,119 C265.218215,119 264.44378,119.156682 263.706223,119.470046 C262.968666,119.78341 262.323304,120.21659 261.770136,120.769585 C261.216969,121.322581 260.783654,121.958525 260.470192,122.677419 C260.156731,123.396313 260,124.179724 260,125.02765 Z" id="path-1"></path>
        <filter x="-262.4%" y="-245.8%" width="624.8%" height="625.0%" filterUnits="objectBoundingBox" id="filter-2">
            <feMorphology radius="0.5" operator="dilate" in="SourceAlpha" result="shadowSpreadOuter1"></feMorphology>
            <feOffset dx="0" dy="2" in="shadowSpreadOuter1" result="shadowOffsetOuter1"></feOffset>
            <feGaussianBlur stdDeviation="10" in="shadowOffsetOuter1" result="shadowBlurOuter1"></feGaussianBlur>
            <feComposite in="shadowBlurOuter1" in2="SourceAlpha" operator="out" result="shadowBlurOuter1"></feComposite>
            <feColorMatrix values="0 0 0 0 0.00711334486   0 0 0 0 0.133316543   0 0 0 0 0.157312925  0 0 0 0.516049592 0" type="matrix" in="shadowBlurOuter1"></feColorMatrix>
        </filter>
    </defs>
    <g id="Page-1" stroke="none" stroke-width="1" fill="none" fill-rule="evenodd">
        <g id="火炬小区平面图" transform="translate(-315.000000, -592.000000)">
            <g id="云" transform="translate(74.000000, 490.000000)">
                <g id="huanjing01">
                    <use fill="black" fill-opacity="1" filter="url(#filter-2)" xlink:href="#path-1"></use>
                    <use stroke="#56E4FF" stroke-width="1" fill-opacity="0.4" fill="#09A2DD" fill-rule="evenodd" xlink:href="#path-1"></use>
                </g>
            </g>
        </g>
    </g>
</svg>