<?xml version="1.0" encoding="UTF-8" standalone="no"?>
<svg width="69px" height="69px" viewBox="0 0 69 69" version="1.1" xmlns="http://www.w3.org/2000/svg" xmlns:xlink="http://www.w3.org/1999/xlink">
    <!-- Generator: Sketch 50.2 (55047) - http://www.bohemiancoding.com/sketch -->
    <title>huanjing02</title>
    <desc>Created with Sketch.</desc>
    <defs>
        <path d="M219.000198,103.726249 C219.000198,105.757497 219.389609,107.687182 220.16843,109.515305 C220.947252,111.343428 221.997057,112.917645 223.317845,114.237956 C224.638634,115.558267 226.196408,116.607745 227.99117,117.38639 C229.785932,118.165035 231.699253,118.554358 233.731133,118.554358 C235.763013,118.554358 237.6933,118.165068 239.521992,117.386489 C241.350685,116.607911 242.925392,115.558433 244.246114,114.238055 C245.566836,112.917678 246.616641,111.343461 247.395529,109.515404 C248.174416,107.687347 248.563827,105.757662 248.563761,103.726348 C248.563695,101.695034 248.174251,99.7823089 247.39543,97.9881723 C246.616608,96.1940356 245.566803,94.6367457 244.246015,93.3163024 C242.925227,91.9958591 241.350519,90.946381 239.521893,90.1678683 C237.693267,89.3893556 235.76298,89.0000661 233.731034,89 C231.699087,88.9999339 229.785766,89.3892564 227.991071,90.1679675 C226.196375,90.9466786 224.6386,91.9961566 223.317746,93.3164015 C221.996891,94.6366465 220.947086,96.1939365 220.168331,97.9882715 C219.389576,99.7826065 219.000132,101.695332 219,103.726447 L219.000198,103.726249 Z" id="path-1"></path>
        <filter x="-106.5%" y="-99.8%" width="313.1%" height="313.2%" filterUnits="objectBoundingBox" id="filter-2">
            <feMorphology radius="0.5" operator="dilate" in="SourceAlpha" result="shadowSpreadOuter1"></feMorphology>
            <feOffset dx="0" dy="2" in="shadowSpreadOuter1" result="shadowOffsetOuter1"></feOffset>
            <feGaussianBlur stdDeviation="10" in="shadowOffsetOuter1" result="shadowBlurOuter1"></feGaussianBlur>
            <feComposite in="shadowBlurOuter1" in2="SourceAlpha" operator="out" result="shadowBlurOuter1"></feComposite>
            <feColorMatrix values="0 0 0 0 0.00711334486   0 0 0 0 0.133316543   0 0 0 0 0.157312925  0 0 0 0.516049592 0" type="matrix" in="shadowBlurOuter1"></feColorMatrix>
        </filter>
    </defs>
    <g id="Page-1" stroke="none" stroke-width="1" fill="none" fill-rule="evenodd">
        <g id="火炬小区平面图" transform="translate(-273.000000, -561.000000)" fill-rule="nonzero">
            <g id="云" transform="translate(74.000000, 490.000000)">
                <g id="huanjing02">
                    <use fill="black" fill-opacity="1" filter="url(#filter-2)" xlink:href="#path-1"></use>
                    <use stroke="#56E4FF" stroke-width="1" fill-opacity="0.4" fill="#09A2DD" fill-rule="evenodd" xlink:href="#path-1"></use>
                </g>
            </g>
        </g>
    </g>
</svg>