<?xml version="1.0" encoding="UTF-8" standalone="no"?>
<svg width="30px" height="30px" viewBox="0 0 30 30" version="1.1" xmlns="http://www.w3.org/2000/svg" xmlns:xlink="http://www.w3.org/1999/xlink">
    <!-- Generator: Sketch 50.2 (55047) - http://www.bohemiancoding.com/sketch -->
    <title>环境离线</title>
    <desc>Created with Sketch.</desc>
    <defs></defs>
    <g id="环境离线" stroke="none" stroke-width="1" fill="none" fill-rule="evenodd">
        <g id="井盖" transform="translate(1.000000, 0.000000)" fill="#999999" fill-rule="nonzero">
            <g id="垃圾桶">
                <g id="环境监测">
                    <path d="M12.9247054,23.3851132 C12.7180108,23.1603663 12.5230444,22.922763 12.3325798,22.6806239 C11.9363386,22.3423622 11.5562682,21.9875793 11.2042744,21.5939268 C11.3297601,21.6090361 11.4605769,21.605822 11.5878692,21.6163354 C11.3026609,21.1517023 11.0498828,20.6633089 10.8350437,20.1547598 C10.5597569,20.1099125 10.2826636,20.0769304 10.0145441,20.0128587 C9.01986902,18.4519162 8.33833075,16.626396 8.07296562,14.6457278 C8.71567647,14.8951962 9.38992904,15.0878922 10.0813889,15.233488 C10.126495,14.8100375 10.1969234,14.3811501 10.3007298,13.9471861 C9.48017097,13.7695694 8.69580371,13.5095876 7.95831959,13.1749604 C7.95470637,13.0486191 7.9465914,12.923179 7.9465914,12.795486 C7.9465914,11.3009283 8.18672318,9.86587656 8.62451644,8.53289507 C9.6905084,9.27490221 10.9641723,9.7216925 12.336193,9.80498883 C12.7568383,9.26760288 13.2045531,8.74896085 13.6982922,8.27198202 C13.3959063,8.32187571 13.0862938,8.35623957 12.7703731,8.35623957 C11.4209202,8.35623957 10.1806935,7.89437002 9.18501146,7.11983137 C10.0497583,5.23573641 11.3315668,3.62628203 12.8985539,2.45079159 C14.2182124,3.43998423 15.317612,4.75142824 16.1570958,6.26382875 C16.5632881,5.97501009 16.9730936,5.70217183 17.3811222,5.43759411 C16.6833244,4.20163647 15.8276106,3.08520141 14.8265976,2.14818534 C16.1751323,2.39495031 17.4388746,2.89157425 18.5698751,3.58783297 C18.4642918,4.09412924 18.2765519,4.56467988 18.0526796,5.01372305 C18.7630349,4.57471268 19.4626393,4.16000334 20.1061795,3.78419363 C20.4537012,3.58326716 20.8409685,3.35482556 21.2137532,3.12917753 C18.9679525,1.18825001 16.0740803,0.000413776908 12.9021375,0.000413776908 C10.1725785,0.000413776908 7.64515313,0.872907476 5.56002277,2.34409538 L5.38673576,2.34409538 C5.38673576,2.38897265 5.38943088,2.43153699 5.39215561,2.47638423 C4.24128233,3.31772818 3.22756377,4.34813342 2.40795269,5.52362389 C2.27441122,5.71040231 2.148037,5.90538117 2.027053,6.10222245 C1.70029255,6.62452914 1.40963478,7.16696155 1.16049954,7.73228313 C0.663147197,8.85331406 0.321933804,10.055839 0.154955162,11.3183205 C0.0791365429,11.8891392 0.0258561916,12.4691195 0.0258561916,13.0600638 C0.0258561916,19.5871253 4.77654398,24.9945676 10.952444,25.9521599 C11.3676694,25.4733787 11.999511,24.6892278 12.9247054,23.3851132 Z M10.9668673,2.14953705 C9.81057422,3.23443186 8.83124057,4.54542528 8.08744811,6.02027786 C7.57836758,5.35195477 7.20191039,4.57561383 7.0060555,3.72922344 C8.19214297,2.95702776 9.52986768,2.41321362 10.9668673,2.14953705 Z M5.75498913,4.67723351 C6.10251087,5.75386779 6.6847149,6.71881949 7.43662232,7.51396444 C6.87695656,9.02543375 6.55114382,10.6646561 6.50689656,12.382609 C4.98951729,11.3993339 3.74748399,10.0777971 2.92698441,8.53061213 C3.58320047,7.0433838 4.55086514,5.73329152 5.75498913,4.67723351 Z M1.96207407,13.0577809 C1.96207407,12.037889 2.10829146,11.0537428 2.36465314,10.1089468 C3.40810683,11.6707905 4.84332951,12.9762868 6.54033374,13.9187999 C6.68290827,15.8697602 7.18748708,17.7002968 7.98094665,19.3399698 C5.15563705,18.1232667 2.95316551,15.876609 1.96388067,13.1227538 C1.96568732,13.1026281 1.96207407,13.0824724 1.96207407,13.0577809 Z M2.71122716,17.0722551 C4.29992331,18.9792393 6.4987816,20.4289197 9.02982021,21.1585811 C9.71491248,22.1660972 10.5173459,23.0682988 11.418225,23.837791 C11.5120802,23.8757895 11.6095782,23.9055274 11.7079647,23.9371278 C11.6321461,23.9796921 11.558993,24.014026 11.483204,24.0566203 C7.4682529,23.5256025 4.13744638,20.7813896 2.71122716,17.0722551 Z" id="Shape"></path>
                    <path d="M24.3297502,2.20630949 C24.5337496,4.26618884 14.5215165,6.99487186 12.0157705,12.8971058 C10.0814185,17.4448507 12.6024763,21.3018941 15.193074,23.1603363 C10.2212683,30.5506997 10.0199935,28.9921002 9.65896662,29.4319817 L12.4634853,29.9995862 C12.4634853,29.9995862 17.2132254,21.8053667 17.6952067,20.9480123 C17.6771998,20.9306202 16.3900011,19.7670249 15.3104151,18.4092918 C15.0414663,18.0664642 14.7832684,17.7166977 14.5639867,17.3679225 C14.3473706,17.0214303 14.1604599,16.6831084 14.0467616,16.3732329 C13.9844482,16.2194366 13.9294205,16.0802689 13.9086296,15.9466283 C13.8842255,15.8152406 13.8435915,15.7053904 13.8499294,15.6060236 C13.8499294,15.4178934 13.8481228,15.3089744 13.8481228,15.3089744 C13.8481228,15.3089744 13.8625757,15.4156105 13.8878683,15.6023589 C13.8878683,15.6971299 13.9438142,15.8010626 13.9817235,15.9264726 C14.0160492,16.050531 14.0864479,16.1796057 14.1622369,16.3187734 C14.3075954,16.6025456 14.5242412,16.9065336 14.7742945,17.2150574 C15.0215935,17.524933 15.3140283,17.8348386 15.6118829,18.1351619 C16.2158256,18.7325044 16.8665625,19.2772497 17.3648626,19.6722539 C17.7060464,19.9419081 17.9605719,20.1300382 18.0960384,20.2279933 C18.5789378,19.3509338 19.0735654,18.4271946 19.5700292,17.4539824 L19.5583307,17.4704734 C19.5583307,17.4704734 18.5626782,16.5710053 17.7304209,15.5268725 C17.5255033,15.2609131 17.3251171,14.994503 17.1590565,14.7276424 C16.9911302,14.4603011 16.8485556,14.2026022 16.7618677,13.9659301 C16.7149549,13.8478493 16.6743209,13.7411832 16.6571432,13.6386623 C16.6373297,13.5392955 16.6066469,13.455098 16.6120667,13.3795816 C16.6111782,13.2339858 16.6102601,13.1502389 16.6102601,13.1502389 C16.6102601,13.1502389 16.6210702,13.2330846 16.6391659,13.3781999 C16.6391659,13.4505021 16.683354,13.5297132 16.7113713,13.6244542 C16.7366639,13.7201263 16.7908032,13.8171501 16.8485853,13.9270004 C16.9596181,14.1435167 17.1265967,14.3751424 17.3161433,14.6113339 C17.5074964,14.848006 17.7304505,15.0855792 17.957936,15.3162737 C18.4210219,15.7726462 18.9192627,16.1887374 19.3001624,16.4917942 C19.5475206,16.6877043 19.7352309,16.8273225 19.8426505,16.9042206 C20.3697972,15.8532391 20.8960258,14.7532651 21.4096377,13.6111472 L21.3563573,13.6820978 C21.3563573,13.6820978 20.5584553,12.9634304 19.8931765,12.1262018 C19.7280045,11.9170147 19.5700293,11.7000178 19.4373467,11.4880972 C19.303746,11.2765973 19.1882115,11.0678909 19.1196193,10.8802113 C19.0825689,10.7859209 19.0491613,10.7003116 19.0365742,10.6174659 C19.0203147,10.5373536 18.9950221,10.4700677 19.0004419,10.40918 C19.0004419,10.2933823 18.9986057,10.2265169 18.9986057,10.2265169 C18.9986057,10.2265169 19.0067207,10.294734 19.0220917,10.4082489 C19.0220917,10.4645708 19.0563582,10.5304449 19.0798442,10.6041589 C19.102412,10.6806065 19.1448527,10.759337 19.1908474,10.8449463 C19.2783942,11.0207006 19.4138015,11.2051961 19.5654091,11.3937768 C19.7170759,11.5814864 19.8940058,11.7723501 20.0781621,11.9581973 C20.4482221,12.3235236 20.8462994,12.6558077 21.1504624,12.8970757 C21.3508782,13.0554379 21.5007088,13.1666999 21.5855605,13.2280081 C21.5873671,13.2198077 21.5909804,13.21383 21.5945936,13.2069813 C21.5945936,13.2069813 21.9484533,12.412317 22.1090939,12.0314608 C23.7528178,8.16801933 23.1372062,9.80039295 21.8338072,13.1405966 C21.9556797,13.1337178 22.1072873,13.1227238 22.2977224,13.1053616 C22.7228693,13.0682642 23.2915978,13.0009784 23.8484796,12.8865323 C24.1256026,12.8260951 24.403614,12.7597404 24.6563921,12.6759635 C24.9090813,12.5917059 25.1419866,12.5020115 25.3296969,12.3957959 C25.4217751,12.3436193 25.5084038,12.2964591 25.5734419,12.2374337 C25.6393094,12.1806613 25.7088492,12.1422422 25.7440338,12.0900356 C25.8261312,11.9930117 25.8712966,11.937621 25.8712966,11.937621 C25.8712966,11.937621 25.8324692,11.9975775 25.7611819,12.1056255 C25.732276,12.1651314 25.6681856,12.2122616 25.6059018,12.2772946 C25.5463427,12.3459322 25.4633273,12.4049876 25.3730558,12.4690894 C25.1960963,12.6013482 24.9686997,12.7245055 24.7195348,12.8403033 C24.4703996,12.958384 24.1960014,13.0600337 23.9180195,13.1570576 C22.8059144,13.5274003 21.6433426,13.710454 21.6433426,13.710454 L21.6370046,13.6440993 C21.284063,14.5490344 20.8896285,15.5538169 20.4789049,16.5956668 C20.6124464,16.5883374 20.7614181,16.5768928 20.9419316,16.5613029 C21.4898691,16.5105081 22.2228219,16.4253794 22.9413217,16.2789125 C23.3006013,16.2006326 23.6598216,16.1131909 23.986582,16.0056236 C24.312454,15.8980563 24.6130334,15.7821984 24.8513289,15.643992 C24.9723129,15.5785084 25.0842342,15.5171701 25.1681678,15.4416537 C25.2539376,15.3684203 25.3432614,15.3185266 25.3875087,15.2512407 C25.4922035,15.1248694 25.5535692,15.05488 25.5535692,15.05488 C25.5535692,15.05488 25.5030432,15.1317782 25.411824,15.2713964 C25.3721377,15.3482946 25.2918173,15.4073199 25.2114377,15.4933798 C25.132924,15.581272 25.0281995,15.6567884 24.9117765,15.7405953 C24.6852092,15.9122645 24.3891315,16.0683437 24.0686794,16.2193764 C23.7464207,16.3699887 23.3944268,16.5008657 23.0360654,16.6263059 C21.808485,17.0355483 20.540241,17.264891 20.1981095,17.3230152 C19.8199049,18.2865851 19.2738036,19.2657149 18.9028551,20.2160079 C19.0526857,20.2068463 19.3830594,20.1935994 19.5825275,20.1762071 C20.2116739,20.1194046 21.0511281,20.0200979 21.8770772,19.8507117 C22.2877712,19.7619483 22.6993834,19.6625815 23.0731159,19.5399049 C23.4467891,19.4167477 23.7925338,19.282206 24.0659843,19.1238138 C24.2050048,19.0478168 24.3331857,18.9768362 24.4288771,18.8907764 C24.5263751,18.8115953 24.6283748,18.7521194 24.6807074,18.6728782 C24.8025503,18.530076 24.8712017,18.4472302 24.8712017,18.4472302 C24.8712017,18.4472302 24.8115834,18.5360236 24.707777,18.6953169 C24.663589,18.7818273 24.5687565,18.8514262 24.4776261,18.9484801 C24.3891611,19.0500998 24.2682068,19.1366102 24.1346653,19.2322823 C23.8728542,19.428643 23.535254,19.6108555 23.1670006,19.7811129 C22.7968814,19.9559961 22.3906891,20.1051966 21.9817721,20.2471578 C20.5890196,20.712662 18.9443184,20.8911798 18.5327359,20.9635122 C18.1058415,22.0607527 17.346678,23.178149 17.0091075,24.0638596 C20.349806,25.2814939 26.0988117,25.5323441 28.4185355,20.0695411 C30.9244592,14.1646337 24.1275573,0.146430176 24.3297502,2.20630949 Z" id="Shape"></path>
                </g>
            </g>
        </g>
    </g>
</svg>