<?xml version="1.0" encoding="UTF-8" standalone="no"?>
<svg width="30px" height="30px" viewBox="0 0 30 30" version="1.1" xmlns="http://www.w3.org/2000/svg" xmlns:xlink="http://www.w3.org/1999/xlink">
    <!-- Generator: Sketch 50.2 (55047) - http://www.bohemiancoding.com/sketch -->
    <title>垃圾桶报警</title>
    <desc>Created with Sketch.</desc>
    <defs></defs>
    <g id="垃圾桶报警" stroke="none" stroke-width="1" fill="none" fill-rule="evenodd">
        <g id="井盖" fill="#E20000" fill-rule="nonzero">
            <g id="垃圾桶">
                <path d="M14.3952703,11.3470982 L12.3885135,14.6852679 L12.1722973,14.5479911 L12.2331081,16.3928571 L13.9459459,15.6629464 L13.7364865,15.5290179 L15.0777027,13.2823661 L16.972973,16.3895089 L18.3074324,15.5290179 L15.7567568,11.3470982 C15.6148649,11.109375 15.3547297,10.9654018 15.0743243,10.9654018 C14.8006757,10.9620536 14.5405405,11.1060268 14.3952703,11.3470982 Z M13.8108108,22.1149554 L15.4256757,21.0703125 L13.8513514,19.9754464 L13.8445946,20.2734375 L10.847973,20.2734375 L12.8006757,17.0223214 L11.4155405,16.2388393 L8.75675676,20.6551339 C8.61148649,20.8995536 8.60472973,21.2042411 8.74662162,21.4520089 C8.88851351,21.6997768 9.15202703,21.8504464 9.44256757,21.8504464 L13.8175676,21.8470982 L13.8108108,22.1149554 Z M15.8851351,20.2734375 L15.8851351,21.8537946 L20.7466216,21.8504464 C21.1858108,21.8504464 21.5439189,21.4955357 21.5439189,21.0602679 C21.5405405,20.8794643 21.4797297,20.7120536 21.375,20.578125 L19.2939189,17.1495536 L19.5878378,16.9587054 L17.7162162,16.2388393 L17.6486486,18.2276786 L17.9695946,18.0167411 L19.3344595,20.2700893 L15.8851351,20.2734375 Z M23.777027,29.9832589 L5.89189189,30 L2.60810811,7.36941964 L1.16216216,7.36941964 C0.527027027,7.36941964 0.0202702703,6.86383929 0.0168918919,6.23772321 C0.0202702703,5.61160714 0.527027027,5.10602679 1.15878378,5.10602679 L28.8412162,5.07589286 C29.472973,5.07589286 29.9831081,5.58482143 29.9831081,6.20758929 C29.9831081,6.83370536 29.4763514,7.34263393 28.8412162,7.34263393 L27.375,7.34263393 L23.777027,29.9832589 Z M28.9763514,1.44977679 C29.5304054,1.44977679 29.972973,1.89174107 29.9763514,2.44084821 C29.9763514,2.98660714 29.5304054,3.43191964 28.9763514,3.43191964 L1.01351351,3.45870536 C0.462837838,3.45870536 0.0135135135,3.01674107 0.0168918919,2.47098214 C0.0135135135,1.921875 0.459459459,1.47991071 1.01351351,1.47991071 L11.5236486,1.46986607 L11.6114865,1.26227679 C11.9358108,0.498883929 12.6891892,-4.26325641e-14 13.5236486,-4.26325641e-14 L16.5405405,-4.26325641e-14 C17.402027,-4.26325641e-14 18.1756757,0.529017857 18.4797297,1.32924107 L18.5304054,1.45982143 L28.9763514,1.44977679 Z" id="Shape"></path>
            </g>
        </g>
    </g>
</svg>