<?xml version="1.0" encoding="UTF-8" standalone="no"?>
<svg width="32px" height="30px" viewBox="0 0 32 30" version="1.1" xmlns="http://www.w3.org/2000/svg" xmlns:xlink="http://www.w3.org/1999/xlink">
    <!-- Generator: Sketch 50.2 (55047) - http://www.bohemiancoding.com/sketch -->
    <title>电表离线</title>
    <desc>Created with Sketch.</desc>
    <defs></defs>
    <g id="Page-1" stroke="none" stroke-width="1" fill="none" fill-rule="evenodd">
        <g id="20180830火炬小区平面图" transform="translate(-1649.000000, -102.000000)" fill="#808080" fill-rule="nonzero">
            <g id="电表离线" transform="translate(1649.000000, 102.000000)">
                <polygon id="Shape" points="30 12 32 12 32 15 30 15"></polygon>
                <polygon id="Shape" points="0 12 2 12 2 15 0 15"></polygon>
                <polygon id="Shape" points="4 24 28 24 28 30 4 30"></polygon>
                <path d="M27.0707071,26 L3.92929293,26 C2.3181818,26 1,24.6704545 1,23.0454545 L1,2.95454545 C1,1.32954544 2.31818183,0 3.92929293,0 L27.0707071,0 C28.6818182,0 30,1.32954547 30,2.95454545 L30,23.0454545 C30,24.6704545 28.6818182,26 27.0707071,26 Z M26.0957757,2 L5.95106187,2 C4.87797783,2 4,2.88524589 4,3.96721311 L4,12.0327869 C4,13.1147541 4.87797783,14 5.95106187,14 L26.0469992,14 C27.1200832,14 27.9980611,13.1147541 27.9980611,12.0327869 L27.9980611,3.96721311 C28.0468376,2.88524589 27.1688598,2 26.0957757,2 Z M15.2135922,16 L14,20.6451613 L15.8932039,20.6451613 C15.3592233,24.7580645 15.5533981,25 15.5533981,25 L19,18.2741936 L16.3300971,19.2903226 L17.3495146,16 L15.2135922,16 Z" id="Combined-Shape"></path>
                <polygon id="Shape" points="6 5 25 5 25 8 6 8"></polygon>
            </g>
        </g>
    </g>
</svg>