<?xml version="1.0" encoding="UTF-8" standalone="no"?>
<svg width="40px" height="40px" viewBox="0 0 40 40" version="1.1" xmlns="http://www.w3.org/2000/svg" xmlns:xlink="http://www.w3.org/1999/xlink">
    <!-- Generator: Sketch 50.2 (55047) - http://www.bohemiancoding.com/sketch -->
    <title>户外烟感温感</title>
    <desc>Created with Sketch.</desc>
    <defs></defs>
    <g id="Page-1" stroke="none" stroke-width="1" fill="none" fill-rule="evenodd">
        <g id="火炬小区平面图" transform="translate(-1177.000000, -959.000000)" fill-rule="nonzero">
            <g id="Group-7" transform="translate(171.000000, 909.000000)">
                <g id="Group-2-Copy-4" transform="translate(960.000000, 1.000000)">
                    <g id="户外烟感温感" transform="translate(46.000000, 49.000000)">
                        <g id="烟感探测器">
                            <path d="M14.4273319,6.38498915 L14.8937961,6.25171367 L15.6490239,6.07401302 L15.6490239,5.51869848 L14.4273319,6.38498915 Z M2.36590022,26.7983514 L1.83279826,26.9316269 L3.03227766,28.8641215 C2.7663546,28.1904365 2.54377481,27.5004391 2.36590022,26.7983514 Z" id="Shape" fill="#000000"></path>
                            <path d="M35.8846855,26.4873753 C35.8846855,26.820564 35.7291974,27.1537527 35.6403471,27.509154 C35.5514967,27.8645553 35.3960087,28.2199566 35.2849458,28.5531453 L36.44,26.5984382 L35.8846855,26.4873753 Z" id="Shape" fill="#000000"></path>
                            <path d="M19.9913232,0 C8.95042027,2.46609192e-15 1.23304596e-15,8.95042027 0,19.9913232 C-1.54130745e-15,31.0322261 8.95042027,39.9826464 19.9913232,39.9826464 C31.0322261,39.9826464 39.9826464,31.0322261 39.9826464,19.9913232 C39.9826464,8.95042027 31.0322261,5.85696832e-15 19.9913232,0 Z M10.1067245,6.6637744 C11.8756015,5.37511275 13.884608,4.4536887 16.0152711,3.95383948 L16.7260738,3.79835141 L16.7260738,4.77570499 L16.0596963,4.93119306 L15.6376573,5.06446855 C11.7812133,6.16162288 8.51041432,8.73039668 6.53049892,12.2169197 C6.33058568,12.5501085 6.13067245,12.8610846 5.97518438,13.2164859 L5.06446855,12.7722343 C6.22671434,10.3584145 7.95689103,8.26238545 10.1067245,6.6637744 Z M9.50698482,32.6747072 L8.75175705,32.0305423 C6.34395811,29.7748455 4.66539681,26.8509 3.9316269,23.6341866 L4.90898048,23.6341866 C5.06150673,24.2678172 5.25440965,24.891042 5.48650759,25.5000434 C5.84076493,26.4911989 6.29474917,27.4438216 6.84147505,28.3432538 C7.4069062,29.1421458 8.04650526,29.8858657 8.75175705,30.5645119 C8.97388286,30.8088503 9.19600868,31.0754013 9.44034707,31.2975271 L10.1511497,31.9194794 L9.50698482,32.6747072 Z M18.7474187,33.1633839 C16.2201916,32.9276141 13.817968,31.9543659 11.8393059,30.3645987 L18.7474187,30.3645987 L18.7474187,33.1633839 Z M18.7474187,28.7208677 L10.24,28.7208677 C9.42123186,27.7860813 8.74054172,26.7388657 8.2186551,25.6111063 L18.7474187,25.6111063 L18.7474187,28.7208677 Z M18.7474187,24.1450759 L7.64112798,24.1450759 C7.31473524,23.1369307 7.11331611,22.0925352 7.04138829,21.0353145 L18.7474187,21.0353145 L18.7474187,24.1450759 Z M23.611974,3.86498915 C28.3981783,4.92948362 32.465904,8.06163242 34.7182646,12.416833 L35.0292408,13.0832104 L34.1185249,13.5052495 L33.8075488,12.8832972 L33.585423,12.5056833 C31.6527877,8.94639483 28.3844888,6.30139012 24.5004772,5.15331887 C24.1228633,5.04225597 23.767462,4.90898048 23.3898482,4.84234273 L23.611974,3.86498915 Z M21.2352278,21.0575271 L32.9634707,21.0575271 C32.8913208,22.1147189 32.6899068,23.1590875 32.363731,24.1672885 L21.2574403,24.1672885 L21.2352278,21.0575271 Z M21.2352278,33.0745336 L21.2352278,30.3645987 L28.1433406,30.3645987 C26.1646784,31.9543659 23.7624548,32.9276141 21.2352278,33.1633839 L21.2352278,33.0745336 Z M21.2352278,28.6320174 L21.2352278,25.522256 L31.7862039,25.522256 C31.2643173,26.6500154 30.5836271,27.6972309 29.764859,28.6320174 L21.2352278,28.6320174 Z M34.1185249,28.1655531 C33.2001159,29.7315276 32.0292964,31.1350101 30.6533623,32.3193059 L30.0091974,31.5640781 C30.4971968,31.1348995 30.9571989,30.6748974 31.3863774,30.186898 C32.0608518,29.4541003 32.6633596,28.6581948 33.1855965,27.8101518 C33.7016655,26.9071461 34.125829,25.9546387 34.4517137,24.9669414 C34.4517137,24.6559653 34.6960521,24.3449892 34.7849024,24.0118004 C34.8737527,23.6786117 34.9403905,23.4120607 35.0070282,23.1010846 L35.9843818,23.1010846 C35.9843818,23.4342733 35.8288937,23.7452495 35.762256,24.0784382 C35.4114882,25.5613236 34.8583932,26.9889067 34.1185249,28.3210412 L34.1185249,28.1655531 Z" id="Shape" fill="#4DA1FF"></path>
                        </g>
                    </g>
                </g>
            </g>
        </g>
    </g>
</svg>