<?xml version="1.0" encoding="UTF-8" standalone="no"?>
<svg width="30px" height="40px" viewBox="0 0 30 40" version="1.1" xmlns="http://www.w3.org/2000/svg" xmlns:xlink="http://www.w3.org/1999/xlink">
    <!-- Generator: Sketch 50.2 (55047) - http://www.bohemiancoding.com/sketch -->
    <title>车牌识别 copy 2</title>
    <desc>Created with Sketch.</desc>
    <defs></defs>
    <g id="Page-1" stroke="none" stroke-width="1" fill="none" fill-rule="evenodd">
        <g id="火炬小区平面图" transform="translate(-1488.000000, -960.000000)" fill="#4A90E2" fill-rule="nonzero">
            <g id="Group-7" transform="translate(171.000000, 909.000000)">
                <g id="Group-2-Copy-5" transform="translate(1280.000000, 1.000000)">
                    <g id="车牌识别-copy-2" transform="translate(37.000000, 50.000000)">
                        <path d="M11.4032126,16.2767381 L12.4054448,16.2716216 L12.6411091,14.7438856 L19.8868262,16.6646916 L17.3940118,13.9942636 L17.8469008,12.7432217 C17.9999915,13.3027294 18.3269429,13.706835 18.8034388,13.8332434 C19.8069881,14.0991024 21.0828787,13.0340614 21.6538025,11.4547587 C22.1848072,9.98220108 21.9170252,8.58197706 21.0653508,8.18399127 L24.2712373,5.98950108 L24.5103465,5.95318373 L28.4813825,7.00488167 L28.337917,7.74206343 L25.6024473,7.01762284 L24.398796,10.3442709 L25.865366,10.7085478 L29.5450131,8.40510569 L29.9433933,6.35026667 L6.01565743,0.0108848039 L3.84888257,0.330216471 L0.166601287,4.06016765 L18.8764887,9.01618 C18.6654445,9.25745951 18.4737519,9.53746422 18.3087057,9.8471648 L1.58474158,5.41685088 L0.0615351485,9.6320698 L2.63064158,12.0918171 L7.56723277,13.3997428 L7.37716129,16.0054617 L8.30644485,15.9923192 L8.30958574,17.1451438 L5.69579822,17.1451438 L5.69579822,39.9883293 L14.3044376,39.9883293 L14.3044376,17.1449431 L11.4038205,17.1449431 L11.4032126,16.2767381 Z M19.0543008,10.7651307 C19.3001982,10.0813214 19.8523783,9.61973 20.285713,9.73470147 C20.7198582,9.84917127 20.8711251,10.4976666 20.624012,11.1817768 C20.3766961,11.8652851 19.8239081,12.3266758 19.3918905,12.2124067 C18.9558202,12.0971342 18.8065796,11.4497425 19.0543008,10.7651307 Z M13.356309,35.819278 L6.64362297,35.819278 L6.64362297,25.466429 L13.356309,25.466429 L13.356309,35.819278 Z M22.5706241,14.9394174 L24.0523917,10.8334514 L25.3160229,11.1683333 L23.6763013,15.7042885 L20.1447805,16.8114658 L19.2623055,15.994125 L22.5706241,14.9394174 Z" id="Shape"></path>
                    </g>
                </g>
            </g>
        </g>
    </g>
</svg>