<?xml version="1.0" encoding="UTF-8" standalone="no"?>
<svg width="30px" height="30px" viewBox="0 0 30 30" version="1.1" xmlns="http://www.w3.org/2000/svg" xmlns:xlink="http://www.w3.org/1999/xlink">
    <!-- Generator: Sketch 50.2 (55047) - http://www.bohemiancoding.com/sketch -->
    <title>烟感温感火警</title>
    <desc>Created with Sketch.</desc>
    <defs></defs>
    <g id="Page-1" stroke="none" stroke-width="1" fill="none" fill-rule="evenodd">
        <g id="火炬小区平面图" transform="translate(-317.000000, -279.000000)" fill-rule="nonzero">
            <g id="烟感温感火警" transform="translate(317.000000, 279.000000)">
                <path d="M11.5704989,2.53874187 L11.9203471,2.43878525 L12.4867679,2.30550976 L12.4867679,1.88902386 L11.5704989,2.53874187 Z M2.52442516,17.8487636 L2.1245987,17.9487202 L3.02420824,19.3980911 C2.82476595,18.8928274 2.65783111,18.3753294 2.52442516,17.8487636 Z" id="Shape" fill="#000000"></path>
                <path d="M27.6635141,17.6155315 C27.6635141,17.865423 27.546898,18.1153145 27.4802603,18.3818655 C27.4136226,18.6484165 27.2970065,18.9149675 27.2137093,19.164859 L28.08,17.6988286 L27.6635141,17.6155315 Z" id="Shape" fill="#000000"></path>
                <path d="M5.73969631,23.8128416 C5.11678465,23.1937059 4.55858676,22.5127045 4.07375271,21.7803905 C3.62144386,21.0264222 3.24743699,20.2281687 2.9575705,19.3980911 C2.76377703,18.8924371 2.60240872,18.3749457 2.47444685,17.8487636 L2.07462039,17.9487202 L1.67479393,18.0486768 C2.30901024,20.7169503 3.72423762,23.1355971 5.73969631,24.9956616 L6.35609544,25.545423 L6.8891974,24.9956616 L6.30611714,24.4792191 C6.1062039,24.2293275 5.92295011,24.0127549 5.73969631,23.8128416 Z M3.95713666,8.51947939 C5.6080228,5.60085131 8.34396938,3.45160662 11.5704989,2.53874187 L11.9203471,2.43878525 L12.4867679,2.30550976 L12.4867679,1.47253796 L11.7870716,1.67245119 C9.9785879,2.10704181 8.27790064,2.90636483 6.78924078,4.02143167 C5.03449073,5.33540899 3.61818003,7.04868807 2.65770065,9.01926247 L3.40737527,9.38577007 C3.62394794,9.05258134 3.7905423,8.78603037 3.95713666,8.51947939 Z" id="Shape" fill="#000000"></path>
                <path d="M15.0023427,0.00650759219 C6.72166553,0.00650759219 0.00885032538,6.7193228 0.00885032538,15 C0.00885032538,23.2806772 6.72166553,29.9934924 15.0023427,29.9934924 C23.2830199,29.9934924 29.9958351,23.2806772 29.9958351,15 C29.9958351,6.7193228 23.2830199,0.00650759219 15.0023427,0.00650759219 Z M7.58889371,5.00433839 C8.91555144,4.03784216 10.4223063,3.34677412 12.0203037,2.9718872 L12.5534056,2.85527115 L12.5534056,3.58828633 L12.0536226,3.70490239 L11.7370933,3.804859 C8.84476027,4.62772475 6.39166106,6.5543051 4.90672451,9.1691974 C4.75678959,9.41908894 4.60685466,9.65232104 4.49023861,9.91887202 L3.80720174,9.5856833 C4.67888608,7.77531845 5.9765186,6.20329668 7.58889371,5.00433839 Z M7.13908894,24.512538 L6.57266811,24.0294143 C4.76681891,22.3376417 3.50789793,20.1446826 2.9575705,17.7321475 L3.69058568,17.7321475 C3.80498037,18.2073705 3.94965756,18.6747891 4.12373102,19.1315401 C4.38942402,19.8749068 4.7299122,20.5893738 5.13995662,21.2639479 C5.56402997,21.863117 6.04372927,22.4209068 6.57266811,22.9298915 C6.73926247,23.1131453 6.90585683,23.3130586 7.08911063,23.4796529 L7.62221258,23.9461171 L7.13908894,24.512538 Z M14.0694143,24.8790456 C12.173994,24.7022182 10.3723263,23.9722821 8.88832972,22.7799566 L14.0694143,22.7799566 L14.0694143,24.8790456 Z M14.0694143,21.5471584 L7.68885033,21.5471584 C7.07477422,20.8460685 6.56425662,20.0606569 6.17284165,19.2148373 L14.0694143,19.2148373 L14.0694143,21.5471584 Z M14.0694143,18.1153145 L5.73969631,18.1153145 C5.49490176,17.3592056 5.34383741,16.575909 5.28989154,15.7829935 L14.0694143,15.7829935 L14.0694143,18.1153145 Z M17.7178308,2.90524946 C21.307484,3.7036203 24.3582783,6.0527319 26.0475488,9.31913232 L26.2807809,9.8189154 L25.597744,10.1354447 L25.3645119,9.66898048 L25.1979176,9.38577007 C23.7484411,6.71630372 21.2972169,4.73255018 18.3842082,3.87149675 C18.1009978,3.78819957 17.8344469,3.68824295 17.5512364,3.63826464 L17.7178308,2.90524946 Z M15.9352711,15.7996529 L24.7314534,15.7996529 C24.6773409,16.5925468 24.5262805,17.3758232 24.2816486,18.131974 L15.9519306,18.131974 L15.9352711,15.7996529 Z M15.9352711,24.8124078 L15.9352711,22.7799566 L21.1163557,22.7799566 C19.6323591,23.9722821 17.8306914,24.7022182 15.9352711,24.8790456 L15.9352711,24.8124078 Z M15.9352711,21.4805206 L15.9352711,19.1481996 L23.8485033,19.1481996 C23.4570883,19.9940191 22.9465707,20.7794308 22.3324946,21.4805206 L15.9352711,21.4805206 Z M25.597744,21.1306725 C24.9089373,22.3051533 24.0308226,23.3577651 22.998872,24.245987 L22.5157484,23.6795662 C22.8817479,23.3576822 23.2267495,23.0126807 23.5486334,22.6466811 C24.0544892,22.0970828 24.5063701,21.5001537 24.8980477,20.8641215 C25.2850995,20.1868671 25.6032221,19.4724866 25.8476356,18.7317137 C25.8476356,18.4984816 26.0308894,18.2652495 26.0975271,18.0153579 C26.1641649,17.7654664 26.2141432,17.5655531 26.2641215,17.332321 L26.9971367,17.332321 C26.9971367,17.5822126 26.8805206,17.8154447 26.8305423,18.0653362 C26.5674664,19.1775003 26.1526452,20.2481876 25.597744,21.2472885 L25.597744,21.1306725 Z" id="Shape" fill="#E20000"></path>
            </g>
        </g>
    </g>
</svg>