<?xml version="1.0" encoding="UTF-8" standalone="no"?>
<svg width="76px" height="61px" viewBox="0 0 76 61" version="1.1" xmlns="http://www.w3.org/2000/svg" xmlns:xlink="http://www.w3.org/1999/xlink">
    <!-- Generator: Sketch 50.2 (55047) - http://www.bohemiancoding.com/sketch -->
    <title>车位抓拍左</title>
    <desc>Created with Sketch.</desc>
    <defs>
        <linearGradient x1="2.63146166%" y1="-37.4762062%" x2="7.50582203%" y2="96.0408492%" id="linearGradient-1">
            <stop stop-color="#4AD7E2" offset="0%"></stop>
            <stop stop-color="#56E2D7" stop-opacity="0" offset="100%"></stop>
        </linearGradient>
    </defs>
    <g id="Page-1" stroke="none" stroke-width="1" fill="none" fill-rule="evenodd">
        <g id="火炬小区平面图2" transform="translate(-1262.000000, -91.000000)">
            <g id="车位抓拍左" transform="translate(1262.000000, 91.000000)">
                <g id="车牌识别" fill="#4A90E2" fill-rule="nonzero">
                    <path d="M9.12257006,13.0213905 L9.9243558,13.0172973 L10.1128873,11.7951085 L15.909461,13.3317533 L13.9152094,11.1954109 L14.2775206,10.1945773 C14.3999932,10.6421835 14.6615543,10.965468 15.042751,11.0665947 C15.8455905,11.2792819 16.866303,10.4272491 17.323042,9.16380698 C17.7478458,7.98576086 17.5336202,6.86558165 16.8522806,6.54719302 L19.4169899,4.79160086 L19.6082772,4.76254698 L22.785106,5.60390533 L22.6703336,6.19365075 L20.4819579,5.61409827 L19.5190368,8.27541671 L20.6922928,8.56683827 L23.6360105,6.72408455 L23.9547146,5.08021333 L4.81252594,0.00870784314 L3.07910606,0.264173176 L0.13328103,3.24813412 L15.101191,7.212944 C14.9323556,7.40596761 14.7790015,7.62997137 14.6469646,7.87773184 L1.26779327,4.33348071 L0.0492281188,7.70565584 L2.10451327,9.67345365 L6.05378622,10.7197943 L5.90172903,12.8043693 L6.64515588,12.7938554 L6.64766859,13.7161151 L4.55663857,13.7161151 L4.55663857,59.9906635 L11.4435501,59.9906635 L11.4435501,13.7159545 L9.1230564,13.7159545 L9.12257006,13.0213905 Z M15.2434406,8.61210455 C15.4401586,8.0650571 15.8819027,7.695784 16.2285704,7.78776118 C16.5758866,7.87933702 16.6969001,8.39813325 16.4992096,8.94542141 C16.3013569,9.49222808 15.8591265,9.86134063 15.5135124,9.76992533 C15.1646562,9.67770737 15.0452637,9.15979404 15.2434406,8.61210455 Z M9.486016,47.0806324 L6.51401061,47.0806324 L6.51401061,45.1369125 L9.486016,45.1369125 L9.486016,47.0806324 Z M10.6850472,37.94929 L5.31489838,37.94929 L5.31489838,35.3108454 L10.6850472,35.3108454 L10.6850472,37.94929 Z M10.6850472,28.6554224 L5.31489838,28.6554224 L5.31489838,20.3731432 L10.6850472,20.3731432 L10.6850472,28.6554224 Z M18.0564992,11.9515339 L19.2419133,8.6667611 L20.2528183,8.93466667 L18.941041,12.5634308 L16.1158244,13.4491726 L15.4098444,12.7953 L18.0564992,11.9515339 Z" id="Shape"></path>
                </g>
                <polygon id="Path-2" fill="url(#linearGradient-1)" points="19 13 24.0244587 63.5650791 80.7549478 63.5650791"></polygon>
            </g>
        </g>
    </g>
</svg>