<?xml version="1.0" encoding="UTF-8" standalone="no"?>
<svg width="43px" height="40px" viewBox="0 0 43 40" version="1.1" xmlns="http://www.w3.org/2000/svg" xmlns:xlink="http://www.w3.org/1999/xlink">
    <!-- Generator: Sketch 50.2 (55047) - http://www.bohemiancoding.com/sketch -->
    <title>智能电表</title>
    <desc>Created with Sketch.</desc>
    <defs></defs>
    <g id="Page-1" stroke="none" stroke-width="1" fill="none" fill-rule="evenodd">
        <g id="20180830火炬小区平面图" transform="translate(-1620.000000, -780.000000)" fill="#4A90E2" fill-rule="nonzero">
            <g id="Group-7" transform="translate(35.000000, 730.000000)">
                <g id="Group-2-Copy-11" transform="translate(1550.000000, 0.000000)">
                    <g id="智能电表" transform="translate(35.000000, 50.000000)">
                        <polygon id="Shape" points="40 16 42.6666667 16 42.6666667 20 40 20"></polygon>
                        <polygon id="Shape" points="0 16 2.66666667 16 2.66666667 20 0 20"></polygon>
                        <polygon id="Shape" points="5.33333333 32 37.3333333 32 37.3333333 40 5.33333333 40"></polygon>
                        <path d="M36.0942761,34.6666667 L5.23905723,34.6666667 C3.09090907,34.6666667 1.33333333,32.8939394 1.33333333,30.7272727 L1.33333333,3.93939393 C1.33333333,1.77272725 3.09090911,0 5.23905723,0 L36.0942761,0 C38.2424243,0 40,1.77272729 40,3.93939393 L40,30.7272727 C40,32.8939394 38.2424242,34.6666666 36.0942761,34.6666667 Z M34.7943676,2.66666667 L7.93474916,2.66666667 C6.50397044,2.66666667 5.33333333,3.84699452 5.33333333,5.28961748 L5.33333333,16.0437159 C5.33333333,17.4863388 6.50397044,18.6666667 7.93474916,18.6666667 L34.7293323,18.6666667 C36.160111,18.6666667 37.3307481,17.4863388 37.3307481,16.0437159 L37.3307481,5.28961748 C37.3957835,3.84699452 36.2251464,2.66666667 34.7943676,2.66666667 Z M20.2847897,21.3333333 L18.6666667,27.5268817 L21.1909385,27.5268817 C20.4789644,33.0107527 20.7378641,33.3333333 20.7378641,33.3333333 L25.3333333,24.3655914 L21.7734628,25.7204301 L23.1326861,21.3333333 L20.2847897,21.3333333 Z" id="Combined-Shape"></path>
                        <polygon id="Shape" points="8 6.66666667 33.3333333 6.66666667 33.3333333 10.6666667 8 10.6666667"></polygon>
                    </g>
                </g>
            </g>
        </g>
    </g>
</svg>