<?xml version="1.0" encoding="UTF-8" standalone="no"?>
<svg width="12px" height="12px" viewBox="0 0 12 12" version="1.1" xmlns="http://www.w3.org/2000/svg" xmlns:xlink="http://www.w3.org/1999/xlink">
    <!-- Generator: Sketch 47.1 (45422) - http://www.bohemiancoding.com/sketch -->
    <title>guanbi</title>
    <desc>Created with Sketch.</desc>
    <defs></defs>
    <g id="Page-1" stroke="none" stroke-width="1" fill="none" fill-rule="evenodd">
        <g id="guanbi" fill-rule="nonzero" fill="#999999">
            <g id="Shape">
                <path d="M11.5413326,12 C11.4193015,11.9999399 11.3022904,11.951421 11.2160314,11.865113 L0.13474414,0.785245757 C-0.0449147132,0.605609927 -0.0449147132,0.314362702 0.13474414,0.134726872 C0.314402992,-0.0449089574 0.605687545,-0.0449089574 0.785346398,0.134726872 L11.8675905,11.2155508 C11.997587,11.3476893 12.0358159,11.5448126 11.9646361,11.7159561 C11.8934564,11.8870996 11.7267055,11.9989922 11.5413326,12"></path>
                <path d="M0.461812804,11.9999952 C0.27510705,12.0008472 0.106431446,11.8886737 0.0349939381,11.71615 C-0.0364435696,11.5436264 0.00354871592,11.3450259 0.136190919,11.2136089 L11.2293624,0.119911142 C11.4113977,-0.0456999912 11.6914365,-0.0389752964 11.865315,0.135182549 C12.0391935,0.309340394 12.0455051,0.589426304 11.8796484,0.771242041 L0.787434689,11.8649398 C0.701150436,11.9514449 0.583985201,12.0000405 0.461812804,11.9999952"></path>
            </g>
        </g>
    </g>
</svg>