<?xml version="1.0" encoding="UTF-8" standalone="no"?>
<svg width="20px" height="18px" viewBox="0 0 20 18" version="1.1" xmlns="http://www.w3.org/2000/svg" xmlns:xlink="http://www.w3.org/1999/xlink">
    <!-- Generator: Sketch 50.2 (55047) - http://www.bohemiancoding.com/sketch -->
    <title>消防门地磁正常 copy 7</title>
    <desc>Created with Sketch.</desc>
    <defs></defs>
    <g id="Page-1" stroke="none" stroke-width="1" fill="none" fill-rule="evenodd">
        <g id="火炬小区平面图" transform="translate(-683.000000, -839.000000)" fill="#FF9E07" fill-rule="nonzero">
            <path d="M693.000066,839 L683,847.656916 L685.515083,847.656916 L685.515083,853.856975 C685.515083,855.224633 686.634956,856.333333 688.016301,856.333333 L698.020667,856.333333 C699.40199,856.333333 700.521731,855.224633 700.521731,853.856975 L700.528313,847.656938 L703,847.656938 L693.000066,839 Z M695.225791,855.095089 C692.285523,854.657833 692.377537,851.380595 692.377537,851.380595 C690.287068,853.01583 690.95341,855.095111 690.95341,855.095111 C685.31243,851.791166 689.529282,848.161381 689.529282,848.161381 C692.418322,846.711213 691.523131,843.95152 691.523131,843.95152 C695.745139,846.014499 694.086437,849.399517 694.086437,849.399517 C696.047113,849.294784 696.365102,847.170799 696.365102,847.170799 C700.66596,852.580076 695.225791,855.095111 695.225791,855.095111 L695.225791,855.095089 Z" id="消防门地磁正常-copy-7"></path>
        </g>
    </g>
</svg>