<?xml version="1.0" encoding="UTF-8" standalone="no"?>
<svg width="20px" height="18px" viewBox="0 0 20 18" version="1.1" xmlns="http://www.w3.org/2000/svg" xmlns:xlink="http://www.w3.org/1999/xlink">
    <!-- Generator: Sketch 50.2 (55047) - http://www.bohemiancoding.com/sketch -->
    <title>消防门地磁正常</title>
    <desc>Created with Sketch.</desc>
    <defs></defs>
    <g id="Page-1" stroke="none" stroke-width="1" fill="none" fill-rule="evenodd">
        <g id="火炬小区平面图" transform="translate(-655.000000, -816.000000)" fill="#20F648" fill-rule="nonzero">
            <path d="M665.000066,816 L655,824.656916 L657.515083,824.656916 L657.515083,830.856975 C657.515083,832.224633 658.634956,833.333333 660.016301,833.333333 L670.020667,833.333333 C671.40199,833.333333 672.521731,832.224633 672.521731,830.856975 L672.528313,824.656938 L675,824.656938 L665.000066,816 Z M667.225791,832.095089 C664.285523,831.657833 664.377537,828.380595 664.377537,828.380595 C662.287068,830.01583 662.95341,832.095111 662.95341,832.095111 C657.31243,828.791166 661.529282,825.161381 661.529282,825.161381 C664.418322,823.711213 663.523131,820.95152 663.523131,820.95152 C667.745139,823.014499 666.086437,826.399517 666.086437,826.399517 C668.047113,826.294784 668.365102,824.170799 668.365102,824.170799 C672.66596,829.580076 667.225791,832.095111 667.225791,832.095111 L667.225791,832.095089 Z" id="消防门地磁正常"></path>
        </g>
    </g>
</svg>