<?xml version="1.0" encoding="UTF-8" standalone="no"?>
<svg width="20px" height="18px" viewBox="0 0 20 18" version="1.1" xmlns="http://www.w3.org/2000/svg" xmlns:xlink="http://www.w3.org/1999/xlink">
    <!-- Generator: Sketch 50.2 (55047) - http://www.bohemiancoding.com/sketch -->
    <title>消防门地磁报警</title>
    <desc>Created with Sketch.</desc>
    <defs></defs>
    <g id="Page-1" stroke="none" stroke-width="1" fill="none" fill-rule="evenodd">
        <g id="火炬小区平面图" transform="translate(-683.000000, -816.000000)" fill="#E20000" fill-rule="nonzero">
            <path d="M693.000066,816 L683,824.656916 L685.515083,824.656916 L685.515083,830.856975 C685.515083,832.224633 686.634956,833.333333 688.016301,833.333333 L698.020667,833.333333 C699.40199,833.333333 700.521731,832.224633 700.521731,830.856975 L700.528313,824.656938 L703,824.656938 L693.000066,816 Z M695.225791,832.095089 C692.285523,831.657833 692.377537,828.380595 692.377537,828.380595 C690.287068,830.01583 690.95341,832.095111 690.95341,832.095111 C685.31243,828.791166 689.529282,825.161381 689.529282,825.161381 C692.418322,823.711213 691.523131,820.95152 691.523131,820.95152 C695.745139,823.014499 694.086437,826.399517 694.086437,826.399517 C696.047113,826.294784 696.365102,824.170799 696.365102,824.170799 C700.66596,829.580076 695.225791,832.095111 695.225791,832.095111 L695.225791,832.095089 Z" id="消防门地磁报警"></path>
        </g>
    </g>
</svg>