<?xml version="1.0" encoding="UTF-8" standalone="no"?>
<svg width="40px" height="35px" viewBox="0 0 40 35" version="1.1" xmlns="http://www.w3.org/2000/svg" xmlns:xlink="http://www.w3.org/1999/xlink">
    <!-- Generator: Sketch 50.2 (55047) - http://www.bohemiancoding.com/sketch -->
    <title>消防门地磁</title>
    <desc>Created with Sketch.</desc>
    <defs></defs>
    <g id="Page-1" stroke="none" stroke-width="1" fill="none" fill-rule="evenodd">
        <g id="火炬小区平面图" transform="translate(-847.000000, -963.000000)" fill="#4DA1FF" fill-rule="nonzero">
            <g id="Group-7" transform="translate(171.000000, 909.000000)">
                <g id="Group-2-Copy-6" transform="translate(640.000000, 1.000000)">
                    <g id="消防门地磁" transform="translate(36.000000, 53.000000)">
                        <path d="M20.002193,0.0362280702 L0.010745614,17.4813158 L5.03872807,17.4813158 L5.03872807,29.9754386 C5.03872807,32.7314912 7.2775,34.9657018 10.0389912,34.9657018 L30.0390351,34.9657018 C32.8004825,34.9657018 35.0389912,32.7314912 35.0389912,29.9754386 L35.0521491,17.4813596 L39.9933772,17.4813596 L20.002193,0.0362280702 Z M24.4517105,32.4704386 C18.5737281,31.5892982 18.7576754,24.9851316 18.7576754,24.9851316 C14.5785526,28.2803947 15.9106579,32.4704825 15.9106579,32.4704825 C4.63359649,25.8125 13.0636404,18.4978947 13.0636404,18.4978947 C18.8392105,15.5755702 17.0496053,10.0143421 17.0496053,10.0143421 C25.4899561,14.1715789 22.1739912,20.9929386 22.1739912,20.9929386 C26.0936404,20.781886 26.7293421,16.5017105 26.7293421,16.5017105 C35.3273246,27.4022807 24.4517105,32.4704825 24.4517105,32.4704825 L24.4517105,32.4704386 Z" id="Shape"></path>
                    </g>
                </g>
            </g>
        </g>
    </g>
</svg>