<?xml version="1.0" encoding="UTF-8" standalone="no"?>
<svg width="40px" height="40px" viewBox="0 0 40 40" version="1.1" xmlns="http://www.w3.org/2000/svg" xmlns:xlink="http://www.w3.org/1999/xlink">
    <!-- Generator: Sketch 50.2 (55047) - http://www.bohemiancoding.com/sketch -->
    <title>井盖总</title>
    <desc>Created with Sketch.</desc>
    <defs></defs>
    <g id="Page-1" stroke="none" stroke-width="1" fill="none" fill-rule="evenodd">
        <g id="火炬小区平面图" transform="translate(-1622.000000, -960.000000)" fill="#4A90E2" fill-rule="nonzero">
            <g id="Group-7" transform="translate(35.000000, 909.000000)">
                <g id="Group-2-Copy-7" transform="translate(1550.000000, 1.000000)">
                    <g id="井盖总" transform="translate(37.000000, 50.000000)">
                        <path d="M20,40 C9,40 0,31 0,20 C0,9 9,0 20,0 C31,0 40,9 40,20 C40,31 31,40 20,40 Z M32.75,13.6244445 C31.75,13.8755555 30.75,13.25 30.5,12.25 C30.25,11.25 30.8755555,10.25 31.75,10 L31.8755555,10 C29.3755555,7 25.8755555,4.87555555 21.8755555,4.37555555 L21.8755555,8.12444445 L18,8.12444445 L18,4.37555555 C14.1255555,4.87555555 10.75,6.75 8.25,9.5 L9.62555555,10.8744445 C10.3755555,11.6244445 10.3755555,12.75 9.62555555,13.5 C8.87555555,14.25 7.75,14.25 7,13.5 L6.25,12.75 C5.12555555,15 4.37555555,17.3755555 4.37555555,20 C4.37555555,28 10.3755555,34.6255555 18,35.6255555 L18,33.75 C18,32.6255555 18.8744445,31.75 20,31.75 C21.1255555,31.75 22,32.6255555 22,33.75 L22,35.6255555 C29.75,34.6255555 35.6255555,28 35.6255555,20 C35.6255555,17.6255555 35,15.3744445 34,13.25 L32.75,13.6244445 Z M22,10.25 L22,8.25 C27,9.12444445 31,13 31.8755555,18 L29.8755555,18 C29,14.1255555 25.8755555,11 22,10.25 Z M26.25,20 C26.25,23.5 23.5,26.25 20,26.25 C16.5,26.25 13.75,23.5 13.75,20 C13.75,16.5 16.5,13.75 20,13.75 C23.5,13.75 26.25,16.5 26.25,20 Z M20,15.6255555 C17.6255555,15.6255555 15.6255555,17.6255555 15.6255555,20 C15.6255555,22.3744445 17.6255555,24.3744445 20,24.3744445 C22.3744445,24.3744445 24.3744445,22.3744445 24.3744445,20 C24.3744445,17.6255555 22.3744445,15.6255555 20,15.6255555 Z M10.25,18 L8.12444445,18 C9,13 12.8755555,9 18,8.25 L18,10.25 C14.1255555,11 11,14.1255555 10.25,18 Z M18,29.75 L18,31.75 C13,30.8755555 9,27 8.12444445,22 L10.1244445,22 C11,25.8755555 14.1244445,29 18,29.75 Z M29.75,22 L31.75,22 C30.8755555,27 27,31 21.8755555,31.75 L21.8755555,29.75 C25.8755555,29 29,25.8755555 29.75,22 Z" id="Shape"></path>
                    </g>
                </g>
            </g>
        </g>
    </g>
</svg>