<?xml version="1.0" encoding="UTF-8" standalone="no"?>
<svg width="30px" height="30px" viewBox="0 0 30 30" version="1.1" xmlns="http://www.w3.org/2000/svg" xmlns:xlink="http://www.w3.org/1999/xlink">
    <!-- Generator: Sketch 50.2 (55047) - http://www.bohemiancoding.com/sketch -->
    <title>井盖告警</title>
    <desc>Created with Sketch.</desc>
    <defs></defs>
    <g id="井盖告警" stroke="none" stroke-width="1" fill="none" fill-rule="evenodd">
        <g id="井盖" fill="#FF9E07" fill-rule="nonzero">
            <path d="M15,30 C6.75,30 0,23.25 0,15 C0,6.75 6.75,0 15,0 C23.25,0 30,6.75 30,15 C30,23.25 23.25,30 15,30 Z M24.5625,10.2183333 C23.8125,10.4066667 23.0625,9.9375 22.875,9.1875 C22.6875,8.4375 23.1566667,7.6875 23.8125,7.5 L23.9066667,7.5 C22.0316667,5.25 19.4066667,3.65666666 16.4066667,3.28166666 L16.4066667,6.09333334 L13.5,6.09333334 L13.5,3.28166666 C10.5941667,3.65666666 8.0625,5.0625 6.1875,7.125 L7.21916666,8.15583334 C7.78166666,8.71833334 7.78166666,9.5625 7.21916666,10.125 C6.65666666,10.6875 5.8125,10.6875 5.25,10.125 L4.6875,9.5625 C3.84416666,11.25 3.28166666,13.0316667 3.28166666,15 C3.28166666,21 7.78166666,25.9691667 13.5,26.7191667 L13.5,25.3125 C13.5,24.4691667 14.1558333,23.8125 15,23.8125 C15.8441667,23.8125 16.5,24.4691667 16.5,25.3125 L16.5,26.7191667 C22.3125,25.9691667 26.7191667,21 26.7191667,15 C26.7191667,13.2191667 26.25,11.5308333 25.5,9.9375 L24.5625,10.2183333 Z M16.5,7.6875 L16.5,6.1875 C20.25,6.84333334 23.25,9.75 23.9066667,13.5 L22.4066667,13.5 C21.75,10.5941667 19.4066667,8.25 16.5,7.6875 Z M19.6875,15 C19.6875,17.625 17.625,19.6875 15,19.6875 C12.375,19.6875 10.3125,17.625 10.3125,15 C10.3125,12.375 12.375,10.3125 15,10.3125 C17.625,10.3125 19.6875,12.375 19.6875,15 Z M15,11.7191667 C13.2191667,11.7191667 11.7191667,13.2191667 11.7191667,15 C11.7191667,16.7808333 13.2191667,18.2808333 15,18.2808333 C16.7808333,18.2808333 18.2808333,16.7808333 18.2808333,15 C18.2808333,13.2191667 16.7808333,11.7191667 15,11.7191667 Z M7.6875,13.5 L6.09333334,13.5 C6.75,9.75 9.65666666,6.75 13.5,6.1875 L13.5,7.6875 C10.5941667,8.25 8.25,10.5941667 7.6875,13.5 Z M13.5,22.3125 L13.5,23.8125 C9.75,23.1566667 6.75,20.25 6.09333334,16.5 L7.59333334,16.5 C8.25,19.4066667 10.5933333,21.75 13.5,22.3125 Z M22.3125,16.5 L23.8125,16.5 C23.1566667,20.25 20.25,23.25 16.4066667,23.8125 L16.4066667,22.3125 C19.4066667,21.75 21.75,19.4066667 22.3125,16.5 Z" id="Shape"></path>
        </g>
    </g>
</svg>