<?xml version="1.0" encoding="UTF-8" standalone="no"?>
<svg width="40px" height="20px" viewBox="0 0 40 20" version="1.1" xmlns="http://www.w3.org/2000/svg" xmlns:xlink="http://www.w3.org/1999/xlink">
    <!-- Generator: Sketch 50.2 (55047) - http://www.bohemiancoding.com/sketch -->
    <title>90车位未占用地磁报警</title>
    <desc>Created with Sketch.</desc>
    <defs></defs>
    <g id="Page-1" stroke="none" stroke-width="1" fill="none" fill-rule="evenodd">
        <g id="火炬小区平面图" transform="translate(-968.000000, -538.000000)">
            <g id="90车位未占用地磁报警" transform="translate(968.000000, 538.000000)">
                <g id="Group-6-Copy-3" transform="translate(20.000000, 10.000000) rotate(-90.000000) translate(-20.000000, -10.000000) translate(10.000000, -10.000000)" fill="#4EDEFF" opacity="0.192267923">
                    <rect id="Rectangle-Copy" x="0" y="0" width="20" height="40"></rect>
                </g>
                <g id="地磁-copy-4" transform="translate(5.000000, 5.000000)" fill="#FF7982" fill-rule="nonzero">
                    <path d="M0.480938967,6.86075168 L0.480938967,9.38066219 C0.625164319,9.53185682 0.769389671,9.73344966 0.961690141,9.83424609 L0.961690141,7.21353915 C0.769389671,7.06234452 0.625164319,6.9615481 0.529014085,6.81035347 C0.529014085,6.81035347 0.529014085,6.86075168 0.480938967,6.86075168 Z M5,5.75199105 C7.78835681,5.75199105 9.99981221,4.44163758 9.99981221,2.87929306 C9.99981221,1.26655034 7.74028169,0.0065950783 5,0.0065950783 C2.21164319,0.0065950783 0.000187793427,1.26655034 0.000187793427,2.87929306 C0.000187793427,4.49203579 2.21164319,5.75199105 5,5.75199105 Z M8.26910798,2.0729217 C8.70178404,2.0729217 9.03830986,2.32491275 9.03830986,2.5769038 C9.03830986,2.87929306 8.70178404,3.08088591 8.26910798,3.08088591 C7.83643192,3.08088591 7.4999061,2.82889485 7.4999061,2.5769038 C7.4999061,2.32491275 7.83643192,2.0729217 8.26910798,2.0729217 Z M4.75962441,0.510577181 C5.19230047,0.510577181 5.52882629,0.762568233 5.52882629,1.01455928 C5.52882629,1.31694855 5.19230047,1.51854139 4.75962441,1.51854139 C4.32694836,1.51854139 3.99042254,1.26655034 3.99042254,1.01455928 C3.99042254,0.762568233 4.32694836,0.510577181 4.75962441,0.510577181 Z M4.75962441,4.18964653 C5.19230047,4.18964653 5.52882629,4.44163758 5.52882629,4.69362864 C5.52882629,4.94561969 5.19230047,5.19761074 4.75962441,5.19761074 C4.32694836,5.19761074 3.99042254,4.94561969 3.99042254,4.69362864 C3.99042254,4.44163758 4.32694836,4.18964653 4.75962441,4.18964653 Z M1.73089202,2.0729217 C2.16356808,2.0729217 2.5000939,2.32491275 2.5000939,2.5769038 C2.5000939,2.87929306 2.16356808,3.08088591 1.73089202,3.08088591 C1.29821596,3.08088591 0.961690141,2.82889485 0.961690141,2.5769038 C1.00976526,2.32491275 1.34629108,2.0729217 1.73089202,2.0729217 Z M1.92319249,7.76791946 C1.77896714,7.71752125 1.63474178,7.61672483 1.49051643,7.56632662 L1.49051643,10.1870336 C1.77896714,10.3382282 2.11549296,10.4894228 2.5000939,10.6406174 L2.5000939,8.01991051 C2.30779343,7.9695123 2.16356808,7.91911409 2.01934272,7.81831767 C1.97126761,7.81831767 1.97126761,7.81831767 1.92319249,7.76791946 Z M8.99023474,7.21353915 L8.99023474,9.83424609 C9.18253521,9.68305145 9.32676056,9.53185682 9.47098592,9.38066219 L9.47098592,6.86075168 C9.47098592,6.86075168 9.4229108,6.81035347 9.4229108,6.81035347 C9.32676056,6.9615481 9.18253521,7.11274273 8.99023474,7.21353915 Z M7.98065728,7.81831767 C7.83643192,7.86871588 7.64413146,7.9695123 7.4999061,8.01991051 L7.4999061,10.6406174 C7.88450704,10.539821 8.22103286,10.3886264 8.50948357,10.1870336 L8.50948357,7.56632662 C8.36525822,7.66712304 8.22103286,7.71752125 8.07680751,7.76791946 C8.02873239,7.81831767 8.02873239,7.81831767 7.98065728,7.81831767 Z M5,6.81035347 C2.54816901,6.81035347 0.529014085,5.80238926 0.0963380282,4.44163758 C0.0482629108,4.59283221 0.000187793427,4.79442506 0.000187793427,4.94561969 C0.000187793427,6.55836242 2.25971831,7.81831767 5,7.81831767 C7.78835681,7.81831767 9.99981221,6.50796421 9.99981221,4.94561969 C9.99981221,4.74402685 9.95173709,4.59283221 9.90366197,4.44163758 C9.47098592,5.80238926 7.45183099,6.81035347 5,6.81035347 Z M2.98084507,10.7918121 C3.31737089,10.8926085 3.65389671,10.9430067 3.99042254,10.9934049 L3.99042254,8.37269799 C3.65389671,8.27190157 3.31737089,8.22150336 2.98084507,8.12070694 L2.98084507,10.7918121 Z M4.51924883,8.37269799 L4.51924883,10.9934049 C4.66347418,10.9934049 4.85577465,10.9934049 5,10.9934049 C5.14422535,10.9934049 5.33652582,10.9934049 5.48075117,10.9934049 L5.48075117,8.37269799 C5.33652582,8.37269799 5.14422535,8.37269799 5,8.37269799 C4.80769953,8.37269799 4.66347418,8.37269799 4.51924883,8.37269799 Z M6.00957746,10.9430067 C6.34610329,10.8926085 6.68262911,10.8422103 7.01915493,10.7414139 L7.01915493,8.12070694 C6.68262911,8.22150336 6.34610329,8.27190157 6.00957746,8.32229978 L6.00957746,10.9430067 Z" id="Shape"></path>
                </g>
            </g>
        </g>
    </g>
</svg>