<?xml version="1.0" encoding="UTF-8" standalone="no"?>
<svg width="38px" height="40px" viewBox="0 0 38 40" version="1.1" xmlns="http://www.w3.org/2000/svg" xmlns:xlink="http://www.w3.org/1999/xlink">
    <!-- Generator: Sketch 50.2 (55047) - http://www.bohemiancoding.com/sketch -->
    <title>车位地磁总数</title>
    <desc>Created with Sketch.</desc>
    <defs></defs>
    <g id="Page-1" stroke="none" stroke-width="1" fill="none" fill-rule="evenodd">
        <g id="火炬小区平面图" transform="translate(-533.000000, -960.000000)" fill="#4DA1FF" fill-rule="nonzero">
            <g id="Group-7" transform="translate(171.000000, 909.000000)">
                <g id="Group-2-Copy" transform="translate(320.000000, 1.000000)">
                    <g id="车位地磁总数" transform="translate(42.000000, 50.000000)">
                        <path d="M1.82756808,24.9481879 L1.82756808,34.1114989 C2.37562441,34.6612975 2.92368075,35.3943624 3.65442254,35.7608949 L3.65442254,26.2310515 C2.92368075,25.6812528 2.37562441,25.3147204 2.01025352,24.7649217 C2.01025352,24.7649217 2.01025352,24.9481879 1.82756808,24.9481879 Z M19,20.9163311 C29.5957559,20.9163311 37.9992864,16.1514094 37.9992864,10.4701566 C37.9992864,4.60563758 29.4130704,0.0239821029 19,0.0239821029 C8.40424413,0.0239821029 0.000713615023,4.60563758 0.000713615023,10.4701566 C0.000713615023,16.3346756 8.40424413,20.9163311 19,20.9163311 Z M31.4226103,7.53789709 C33.0667793,7.53789709 34.3455775,8.45422819 34.3455775,9.37055928 C34.3455775,10.4701566 33.0667793,11.2032215 31.4226103,11.2032215 C29.7784413,11.2032215 28.4996432,10.2868904 28.4996432,9.37055928 C28.4996432,8.45422819 29.7784413,7.53789709 31.4226103,7.53789709 Z M18.0865728,1.8566443 C19.7307418,1.8566443 21.0095399,2.77297539 21.0095399,3.68930649 C21.0095399,4.7889038 19.7307418,5.52196868 18.0865728,5.52196868 C16.4424038,5.52196868 15.1636056,4.60563758 15.1636056,3.68930649 C15.1636056,2.77297539 16.4424038,1.8566443 18.0865728,1.8566443 Z M18.0865728,15.2350783 C19.7307418,15.2350783 21.0095399,16.1514094 21.0095399,17.0677405 C21.0095399,17.9840716 19.7307418,18.9004027 18.0865728,18.9004027 C16.4424038,18.9004027 15.1636056,17.9840716 15.1636056,17.0677405 C15.1636056,16.1514094 16.4424038,15.2350783 18.0865728,15.2350783 Z M6.57738967,7.53789709 C8.22155869,7.53789709 9.50035681,8.45422819 9.50035681,9.37055928 C9.50035681,10.4701566 8.22155869,11.2032215 6.57738967,11.2032215 C4.93322066,11.2032215 3.65442254,10.2868904 3.65442254,9.37055928 C3.83710798,8.45422819 5.1159061,7.53789709 6.57738967,7.53789709 Z M7.30813146,28.2469799 C6.76007512,28.0637136 6.21201878,27.6971812 5.66396244,27.513915 L5.66396244,37.0437584 C6.76007512,37.593557 8.03887324,38.1433557 9.50035681,38.6931544 L9.50035681,29.163311 C8.76961502,28.9800447 8.22155869,28.7967785 7.67350235,28.4302461 C7.4908169,28.4302461 7.4908169,28.4302461 7.30813146,28.2469799 Z M34.162892,26.2310515 L34.162892,35.7608949 C34.8936338,35.2110962 35.4416901,34.6612975 35.9897465,34.1114989 L35.9897465,24.9481879 C35.9897465,24.9481879 35.807061,24.7649217 35.807061,24.7649217 C35.4416901,25.3147204 34.8936338,25.864519 34.162892,26.2310515 Z M30.3264977,28.4302461 C29.7784413,28.6135123 29.0476995,28.9800447 28.4996432,29.163311 L28.4996432,38.6931544 C29.9611268,38.3266219 31.2399249,37.7768233 32.3360376,37.0437584 L32.3360376,27.513915 C31.7879812,27.8804474 31.2399249,28.0637136 30.6918685,28.2469799 C30.5091831,28.4302461 30.5091831,28.4302461 30.3264977,28.4302461 Z M19,24.7649217 C9.68304225,24.7649217 2.01025352,21.0995973 0.366084507,16.1514094 C0.183399061,16.7012081 0.000713615023,17.4342729 0.000713615023,17.9840716 C0.000713615023,23.8485906 8.58692958,28.4302461 19,28.4302461 C29.5957559,28.4302461 37.9992864,23.6653244 37.9992864,17.9840716 C37.9992864,17.2510067 37.8166009,16.7012081 37.6339155,16.1514094 C35.9897465,21.0995973 28.3169577,24.7649217 19,24.7649217 Z M11.3272113,39.242953 C12.6060094,39.6094855 13.8848075,39.7927517 15.1636056,39.9760179 L15.1636056,30.4461745 C13.8848075,30.0796421 12.6060094,29.8963758 11.3272113,29.5298434 L11.3272113,39.242953 Z M17.1731455,30.4461745 L17.1731455,39.9760179 C17.7212019,39.9760179 18.4519437,39.9760179 19,39.9760179 C19.5480563,39.9760179 20.2787981,39.9760179 20.8268545,39.9760179 L20.8268545,30.4461745 C20.2787981,30.4461745 19.5480563,30.4461745 19,30.4461745 C18.2692582,30.4461745 17.7212019,30.4461745 17.1731455,30.4461745 Z M22.8363944,39.7927517 C24.1151925,39.6094855 25.3939906,39.4262192 26.6727887,39.0596868 L26.6727887,29.5298434 C25.3939906,29.8963758 24.1151925,30.0796421 22.8363944,30.2629083 L22.8363944,39.7927517 Z" id="Shape"></path>
                    </g>
                </g>
            </g>
        </g>
    </g>
</svg>