<?xml version="1.0" encoding="UTF-8" standalone="no"?>
<svg width="40px" height="20px" viewBox="0 0 40 20" version="1.1" xmlns="http://www.w3.org/2000/svg" xmlns:xlink="http://www.w3.org/1999/xlink">
    <!-- Generator: Sketch 50.2 (55047) - http://www.bohemiancoding.com/sketch -->
    <title>90车位占用地磁报警</title>
    <desc>Created with Sketch.</desc>
    <defs></defs>
    <g id="Page-1" stroke="none" stroke-width="1" fill="none" fill-rule="evenodd">
        <g id="火炬小区平面图" transform="translate(-968.000000, -560.000000)">
            <g id="90车位占用地磁报警" transform="translate(968.000000, 560.000000)">
                <g id="车位占用地磁未报警-copy-2" transform="translate(20.000000, 10.000000) rotate(-90.000000) translate(-20.000000, -10.000000) translate(10.000000, -10.000000)">
                    <g id="Group-4">
                        <rect id="Rectangle-Copy-2" fill="#CF8125" opacity="0.595301011" x="0" y="0" width="20" height="40"></rect>
                        <g id="车-俯视" transform="translate(0.000000, 1.000000)" fill="#FFDD6B" fill-rule="nonzero">
                            <path d="M4.71540939,18.7218515 L2.98670256,11.1484964 L3.00979918,11.119574 C4.22606846,9.5951494 7.02491981,8.61009631 10.1398872,8.61009631 C13.1601584,8.61009631 15.7281973,9.54791974 17.0092912,11.1188048 L17.0331577,11.1480349 L15.268882,18.7215438 L15.1901995,18.6980059 C13.4654961,18.1792492 11.7161562,17.9161786 9.99114486,17.9161787 C8.26613351,17.9161787 6.51756356,18.1792492 4.79439989,18.697852 L4.71540939,18.7218515 Z M9.99129885,17.7624901 C11.7052238,17.7624901 13.4425534,18.0197146 15.1561704,18.5272408 L16.865938,11.186957 C15.6056311,9.66914764 13.0953338,8.76393878 10.1397333,8.76393878 C7.08959046,8.76393878 4.35371596,9.71391575 3.15315236,11.1866493 L4.82873692,18.5272408 C6.54112212,18.0198684 8.27737388,17.7624901 9.99129885,17.7624901 Z" id="Shape"></path>
                            <path d="M5.04676924,17.6588003 C4.81872839,17.6588003 4.64319388,17.0192773 4.04991807,14.4991845 C3.82649655,13.5498229 3.57304935,12.4738489 3.28803677,11.3831061 L3.27602653,11.3372611 L3.31144137,11.3058772 C4.56004597,10.2051346 7.23941069,9.49392108 10.1375776,9.49392108 C13.0026393,9.49392108 15.4085397,10.1542128 16.7379826,11.3054157 L16.7743213,11.3369534 L16.7620031,11.3834138 C16.4123199,12.6912283 16.1343903,13.8353544 15.9112767,14.7547168 C15.3786681,16.9478945 15.1966665,17.6417238 14.9138096,17.6418776 C14.8831681,17.6418776 14.8531424,17.6331086 14.8248106,17.6157244 C13.3001241,17.3357312 11.7257029,17.1937346 10.1455844,17.1937346 C8.49833176,17.1937346 6.79580111,17.3480386 5.08526364,17.652185 C5.0729169,17.6566178 5.05988878,17.6588566 5.04676924,17.6588003 Z M3.44894338,11.3903367 C3.7296446,12.4670799 3.97924234,13.5270542 4.19973829,14.4639546 C4.55157718,15.9585338 4.88416887,17.3714226 5.05092664,17.5021887 L5.05108059,17.5021887 C6.77301239,17.1954269 8.48709135,17.040046 10.1457384,17.040046 C11.7406387,17.040046 13.3296878,17.1838887 14.8685402,17.4674203 L14.8860937,17.470651 L14.9005676,17.4812661 L14.9019534,17.4812661 C15.0908839,17.4812661 15.4017647,16.2006818 15.7617644,14.7185638 C15.9825683,13.809355 16.2564945,12.6806132 16.6007885,11.3906444 C15.3087623,10.2986708 12.8985504,9.64791735 10.1375776,9.64791735 C7.30223354,9.64791735 4.68615365,10.3306701 3.44894338,11.3903367 Z M9.98868122,33.7091808 C8.34420015,33.7091808 5.47836853,33.5728764 5.16825759,33.0622734 C5.13026141,33.003009 5.12515247,32.9284723 5.15470757,32.8645859 C5.55766701,26.8471932 5.4035354,22.0616167 4.69693206,18.6401611 L4.68276612,18.5713936 L4.75020831,18.5510864 C6.45597247,18.0355604 8.20269469,17.7743359 9.94202601,17.774336 C11.6810494,17.774336 13.4614927,18.0355604 15.2342371,18.5509325 L15.2990617,18.5697013 L15.2888991,18.6363151 C14.6421931,22.8700587 14.5139298,27.528869 14.8967181,32.8790471 C14.8249645,33.6696433 10.795678,33.7091808 9.98868122,33.7091808 Z M4.86184212,18.6778525 C5.55982271,22.1110002 5.70964293,26.8916536 5.30745336,32.8893545 L5.29883061,32.9196615 C5.28651239,32.9431994 5.28682037,32.9608913 5.29990846,32.9822754 C5.49823165,33.3088828 7.51395276,33.5551846 9.98868122,33.5551846 C13.0362065,33.5551846 14.7127148,33.2058084 14.7428945,32.877201 C14.3611839,27.5559452 14.4865217,22.9066732 15.1261448,18.6795448 C13.3889692,18.1807876 11.6450186,17.9278707 9.94171803,17.9278707 C8.24041922,17.9278707 6.53172946,18.1801723 4.86184212,18.6778525 Z" id="Shape"></path>
                            <path d="M10.0097761,37.9981539 L10.0059267,37.9978462 L4.81210735,37.7320065 C3.56257889,37.2909402 2.96745536,36.5211127 2.99286167,35.3789866 L2.3689443,32.9842753 L1.84511243,22.8454439 L1.76165655,15.4922374 L1.80723391,15.4714686 C2.13135681,15.3242414 2.33522319,15.1516302 2.38110853,14.9856343 C2.4032813,14.9056362 2.38803751,14.8293304 2.33460731,14.7522553 L2.28979981,14.6876415 L2.72709625,14.3994946 L2.69876438,14.1064248 L2.49535993,13.8522771 L2.13243466,14.0939635 L1.74548891,13.9916583 L1.71423143,11.430028 L1.9107069,5.89693127 C2.63455573,2.20809751 5.30329596,0.294913069 10.0712132,0.0359962693 C14.7258029,0.393372219 17.4145603,2.35101714 18.0728147,5.85477845 L18.3359624,11.3598759 L18.2953123,14.1093478 L18.2075451,14.0953481 C18.106677,14.0808847 18.0044667,14.0782 17.9029773,14.0873483 L17.8826523,14.0890406 L17.5101804,13.9162755 L17.2729009,14.414725 L17.5389742,14.6179508 L17.6707791,15.0130182 C17.8476379,15.1657491 18.037377,15.3029228 18.2378787,15.4230083 L18.2756032,15.445777 L18.1699745,22.8423671 L17.6155011,32.9188923 L17.0279224,35.4386774 C17.1645006,36.3981926 16.5416611,37.169097 15.1763415,37.7303142 L15.1509352,37.7360064 L10.0097761,37.9981539 Z M4.85291139,37.583087 L10.0099301,37.8438499 L15.1299942,37.5832409 C16.4378802,37.0426386 17.0082133,36.3437324 16.8736369,35.446831 L16.8713272,35.432216 L17.4638331,32.8972005 L18.0163049,22.8369826 L18.1205477,15.531621 C17.9201473,15.4089145 17.7304899,15.2694982 17.5536021,15.1148619 L17.5378964,15.1011699 L17.4077853,14.7113332 L17.0801209,14.4611854 L17.4364251,13.7124343 L17.9106762,13.9322751 C17.9882783,13.9264526 18.0662119,13.9265555 18.1437983,13.9325828 L18.1819848,11.3623374 L17.9202228,5.87247032 C17.2775202,2.45609152 14.635726,0.540445602 10.0693655,0.189223317 C5.39214108,0.444294072 2.77005603,2.31686412 2.06314475,5.91446929 L1.86805506,11.4317203 L1.89792675,13.8727381 L2.1047187,13.9273522 L2.52738727,13.6458205 L2.84766074,14.0458108 L2.88923469,14.4767235 L2.50105711,14.7325634 C2.54694245,14.8271766 2.55679699,14.9274818 2.52954297,15.0265563 C2.47287918,15.2314745 2.2614679,15.4257774 1.91671202,15.590235 L1.99909006,22.8406748 L2.52230601,32.9685834 L3.14714724,35.3612947 L3.14699325,35.3720636 C3.11958523,36.44173 3.67760015,37.1650971 4.85291139,37.583087 Z" id="Shape"></path>
                            <path d="M3.55580386,31.8110729 L3.52162082,31.80415 C3.30589814,31.7599973 3.18333199,31.4701582 3.12435855,30.8641728 L2.36832839,15.0244026 L2.3732557,15.010249 C2.39896994,14.93702 2.39573644,14.8676371 2.36401703,14.8041002 L2.3560102,14.7737932 L2.34938917,14.6467194 L2.72709625,14.3993407 L2.69891837,14.1064248 L2.49582186,13.8527386 L2.3189016,13.9727357 L2.20757577,11.629254 L2.35831985,11.6040238 C3.21089399,14.5339529 3.81125276,17.276348 4.19373317,19.9875131 L4.5873,28.367464 C4.30629083,30.4011071 3.98755714,31.4843116 3.58351985,31.7901504 L3.55580386,31.8110729 Z M2.52353785,15.0460943 L3.27787425,30.8529423 C3.33238234,31.4112365 3.43493143,31.5950782 3.52146686,31.6418463 C3.8680705,31.3307769 4.1749479,30.227419 4.43424623,28.3603873 L4.04067941,20.0016666 C3.68760872,17.5017271 3.14730122,14.9690192 2.39281083,12.2841612 L2.45963714,13.6912041 L2.52707933,13.6455129 L2.84781473,14.0459647 L2.88938868,14.4770312 L2.50767814,14.7268713 L2.50890998,14.7504092 C2.55048393,14.8427146 2.55556519,14.9444045 2.52353785,15.0460943 Z M16.4809939,31.895994 L16.4406518,31.860764 C15.9622433,31.4426203 15.6539801,30.2917251 15.4980007,28.3422339 L15.5632873,24.3141776 L15.5632873,23.0726692 C15.84753,19.6625979 16.4930042,16.0419164 17.5951761,11.672176 L17.74669,11.6932525 L17.6777081,14.002735 L17.5091026,13.9185832 L17.2729009,14.4150327 L17.5391282,14.6185662 L17.650916,14.9636348 L17.650608,14.9768652 L17.4193336,23.140206 C17.2174689,28.5982277 17.0159122,31.6055395 16.5281111,31.87061 L16.4809939,31.895994 Z M17.0875118,14.4668776 C16.3799846,17.63957 15.9382228,20.4255025 15.716957,23.0788229 L15.7172649,24.3151006 L15.6516704,28.3370032 C15.7965634,30.1443441 16.0804981,31.2773936 16.4957758,31.7009218 C16.9683331,31.1738576 17.1534142,26.1627482 17.265356,23.1348215 L17.4963224,14.9853265 L17.4074773,14.7111793 L17.0875118,14.4668776 Z M17.5714635,12.4046198 C17.4061186,13.0771472 17.2477698,13.7513724 17.0964425,14.4271862 L17.4376569,13.7105882 L17.5309674,13.7572025 L17.5714635,12.4046198 Z" id="Shape"></path>
                            <path d="M4.37019154,23.7935748 L2.77051796,23.1057453 L2.77051796,22.2779192 L4.33647043,23.0408238 L4.37019154,23.7935748 Z M2.92449558,23.004517 L4.20543547,23.5552729 L4.18680419,23.1391291 L2.92449558,22.5240671 L2.92449558,23.004517 Z" id="Shape"></path>
                            <path d="M4.40037117,24.4554049 L2.7717498,23.8278816 L2.74988497,22.9514413 L4.366958,23.6894235 L4.40037117,24.4554049 Z M2.9231098,23.7212688 L4.23623102,24.2274105 L4.21713777,23.7900364 L2.90986772,23.1935893 L2.9231098,23.7212688 Z M15.5937748,23.8395737 L15.5937748,23.0851304 L17.3993165,22.3866858 L17.3600522,23.1432828 L15.5937748,23.8395737 Z M15.7477525,23.1906663 L15.7477525,23.613733 L17.2114638,23.03667 L17.2333286,22.6160648 L15.7477525,23.1906663 Z" id="Shape"></path>
                            <path d="M15.661525,24.4140213 L15.6265721,24.3152545 L15.5631333,24.3152545 L15.5631333,23.686039 L17.3828409,23.0149783 L17.3937733,23.8024976 L15.661525,24.4140213 Z M15.7172649,23.793421 L15.7172649,24.2312565 L17.2385639,23.6945003 L17.2320968,23.2348191 L15.7172649,23.793421 Z M4.75621347,36.7334153 L4.70940427,36.715108 C4.10842957,36.4809599 3.64341714,35.6834407 3.28788278,34.2767055 L3.28002994,34.2459371 L5.27804364,30.9001719 L5.42093488,30.9444786 L5.29097777,32.9388918 C5.32901024,33.0341202 5.44202983,33.1096569 5.62741889,33.1636556 L5.72504071,33.1922703 L4.39082453,35.3266801 L4.39082453,35.9895872 L4.98055885,36.5092669 L4.75621347,36.7334153 Z M3.44493996,34.2699365 C3.77660779,35.5680589 4.19404111,36.3157331 4.7194128,36.5524966 L4.75590549,36.5160359 L4.23700089,36.0588162 L4.23700089,35.2823735 L5.488839,33.2796528 C5.29759878,33.2079622 5.1831934,33.1071954 5.13992571,32.9731987 L5.13530638,32.959199 L5.24647822,31.2529326 L3.44493996,34.2699365 Z" id="Shape"></path>
                            <path d="M5.70533154,37.7795438 L4.81195336,37.7320065 C3.65419558,37.3226318 3.04228846,36.4731139 2.99301562,35.2072984 L2.99239974,35.1912988 L3.40829328,34.1300937 L3.46757469,34.361165 C3.68714679,35.2180674 3.96907981,36.0951231 4.77669247,36.5775729 L5.69994234,37.1589434 L5.70533154,37.7795438 Z M4.85291139,37.583087 L5.55012212,37.6178554 L5.54688857,37.2441721 L4.69647013,36.7084928 C3.91349388,36.2408118 3.60061135,35.4402158 3.37888356,34.627774 L3.14791714,35.217452 C3.19888375,36.4178845 3.75689866,37.1918657 4.85291139,37.583087 Z M15.3357083,36.6631093 L14.9701655,36.4426531 L15.5937748,36.0142019 L15.5937748,35.4199086 L14.3824328,33.1631941 L14.7405848,32.8513555 L14.6251016,30.9570936 L14.7686087,30.9138639 L16.5997107,34.0730182 L16.5989408,34.0950176 C16.5508998,35.499599 16.1377778,36.3592705 15.3708153,36.6498788 L15.3357083,36.6631093 Z M15.2541002,36.4343456 L15.3506442,36.492498 C16.0279917,36.2140432 16.3958443,35.4134473 16.4441933,34.1117865 L14.7986344,31.2727783 L14.8987198,32.9173539 L14.5759827,33.1985778 L15.7475985,35.3811404 L15.7475985,36.0951231 L15.2541002,36.4343456 Z" id="Shape"></path>
                            <path d="M14.3755039,37.774467 L14.3477879,37.1914042 L15.0911919,36.7106466 L15.0508497,36.579419 L15.0548531,36.5780344 L15.0311406,36.4946518 L15.0961191,36.4155768 L15.1891216,36.4917288 L15.1905074,36.4912673 L15.1909694,36.4932673 L15.2152978,36.5132668 L15.2014399,36.5300356 L15.2015938,36.530651 C16.0301474,36.2341966 16.4369563,35.4352929 16.4448092,34.0916331 L16.5938595,34.0650184 L16.9918917,35.1249927 L16.9794195,36.1474295 C16.8194368,36.654648 16.2652713,37.1709432 15.2855116,37.7261605 L15.269344,37.735391 L14.3755039,37.774467 Z M14.505615,37.272633 L14.5217826,37.6141632 L15.2253064,37.5835485 C16.1396255,37.0632534 16.6790092,36.5683424 16.8289834,36.1121996 L16.8374521,35.1528382 L16.5846209,34.4796237 C16.5028588,35.6703641 16.0617129,36.3925005 15.2434757,36.6795704 L15.2713457,36.7777219 L14.505615,37.272633 Z M0.162290909,15.9896099 L0.145507347,15.9277653 C-0.099009128,15.0233257 0.405267607,14.3608801 1.73270876,13.8432004 L1.75626731,13.8339698 L2.10487269,13.9273522 L2.52738727,13.6458205 L2.84766074,14.0458108 L2.88923469,14.4767235 L2.50136508,14.7324096 C2.5597226,14.8510221 2.56018453,14.9771729 2.50198096,15.1011699 C2.29595889,15.5397746 1.40273469,15.8863817 0.226345603,15.9842255 L0.162290909,15.9896099 Z M1.76519803,13.9956582 C0.236970056,14.598259 0.149510798,15.2822425 0.278390056,15.8254601 C1.5080554,15.7123859 2.21989395,15.3396257 2.36263121,15.0360946 C2.4086705,14.9379431 2.39958583,14.84533 2.33476126,14.7527168 L2.28949184,14.6879491 L2.72709625,14.3996484 L2.69876438,14.1065786 L2.49535993,13.8524309 L2.13228071,14.0942712 L1.76519803,13.9956582 Z" id="Shape"></path>
                            <path d="M0.0244809276,15.9671489 L1.43214442,14.825792 C1.71700304,14.6973336 2.03419696,14.6733341 2.36832839,14.7557936 L2.42145069,14.7688703 L2.45963714,15.1773219 L2.4447013,15.1997829 C2.12258011,15.6873096 1.34437718,15.8502287 0.274848571,15.9448418 L0.0244809276,15.9671489 Z M1.50451391,14.9620963 L0.513975807,15.7676153 C1.29371852,15.6857711 2.01417985,15.5382363 2.30104019,15.1370152 L2.27840545,14.893175 C2.0006298,14.8344072 1.74086954,14.857945 1.50451391,14.9620963 Z M19.5493061,16.0200707 C18.9648071,16.0200707 18.2189394,15.6819251 17.554372,15.115785 L17.5380504,15.1019391 L17.4077853,14.7114871 L17.0801209,14.4613392 L17.4364251,13.7125882 L17.9099063,13.9321213 C18.5405987,13.8771995 19.3223431,14.2991893 19.7343872,14.8985594 C19.9813673,15.2577815 20.0517351,15.6260802 19.9325564,15.9353036 L19.9179286,15.972995 L19.8786643,15.9825332 C19.7707466,16.0079939 19.6601905,16.0205942 19.5493061,16.0200707 Z M17.6704711,15.0125567 C18.3039351,15.5474668 19.0049952,15.8660745 19.5493061,15.8662283 L19.5494601,15.8662283 C19.6373813,15.8662283 19.722223,15.8580747 19.8022914,15.8417674 C19.8826677,15.5886966 19.8143016,15.28655 19.6075097,14.9856343 C19.2205639,14.4228786 18.4862446,14.0258113 17.9046711,14.0871945 L17.8834222,14.0895021 L17.5100264,13.9164294 L17.2727469,14.4148788 L17.5388202,14.6181047 L17.6704711,15.0125567 Z" id="Shape"></path>
                            <path d="M19.9245496,16.0786847 L19.8007516,15.9254576 C19.2647555,15.2613199 18.0412492,14.7491784 17.1566478,14.512415 L17.0676487,14.4885694 L17.4150222,13.751818 L17.471532,13.7601255 C17.5696158,13.7745867 17.6362881,13.8470464 17.6900263,13.9051989 C17.7269809,13.9453517 17.7651673,13.987043 17.7944231,13.987043 C17.8961348,13.9738509 17.9985817,13.9671196 18.1011465,13.9668897 C18.6397603,13.9668897 19.1243279,14.1675002 19.4653883,14.5316452 C19.7987499,14.8876366 19.9708969,15.3799324 19.9374837,15.8822279 L19.9245496,16.0786847 Z M17.2852191,14.3881102 C18.1496495,14.6302582 19.2030104,15.0816319 19.7856618,15.6776175 C19.7670305,15.2871654 19.6142847,14.9157898 19.3528307,14.6368735 C18.9832844,14.2422676 18.4266553,14.0605798 17.8192135,14.139347 L17.7942691,14.1410393 C17.6975712,14.1410393 17.6332085,14.0711949 17.5765447,14.0096579 C17.5502146,13.9810432 17.5248083,13.9535054 17.498786,13.9348905 L17.2852191,14.3881102 Z M2.98023547,11.1041898 C2.78391399,8.7774769 2.98300709,6.50168585 3.57181755,4.34004588 L3.72040594,4.38050646 C3.13636879,6.52476223 2.93881551,8.7825537 3.13359722,11.091267 L2.98023547,11.1041898 Z M16.9472382,10.9786544 L16.7951083,10.9552703 C17.0713442,9.1643906 16.9028927,6.91459893 16.2942191,4.26850916 L16.4443473,4.23404846 C17.0573322,6.89921468 17.2263996,9.1683905 16.9472382,10.9786544 Z" id="Shape"></path>
                            <path d="M2.5734266,4.90680138 L2.68167288,4.18389583 C3.47003833,2.49024455 4.37604271,1.61734262 5.53287662,1.43657773 L5.64451039,1.41919356 L5.61987399,1.52934474 C5.42663206,2.39409302 3.85698412,4.74880524 2.67351206,4.89449402 L2.5734266,4.90680138 Z M2.82594991,4.23850988 L2.75558212,4.72372891 C3.80032033,4.48019637 5.16487006,2.47532182 5.43848831,1.60980431 C4.39498193,1.82226071 3.56196297,2.66162499 2.82594991,4.23850988 Z M17.1677341,4.89664778 C17.1520284,4.89664778 17.1357068,4.89603241 17.1187693,4.89480169 L17.0916692,4.88772494 C16.3602755,4.54496401 14.5932282,2.18532884 14.4734336,1.52626789 L14.4497211,1.39534799 L14.5750588,1.4401161 C15.7200365,1.84826005 16.6432863,2.74900749 17.3976227,4.19358791 C17.5087946,4.47019658 17.5228066,4.65819204 17.4433541,4.77526611 C17.3886921,4.85587953 17.2961515,4.89664778 17.1677341,4.89664778 Z M17.1440216,4.74234383 C17.1520284,4.7426515 17.1600353,4.74295921 17.1675802,4.74295921 C17.2793679,4.74295921 17.306622,4.70249867 17.3157066,4.68926821 C17.3426527,4.64957686 17.3708306,4.54081026 17.2578111,4.25804788 C16.5572128,2.91746498 15.7075643,2.05702427 14.6665216,1.63949591 C14.9555376,2.39947752 16.4908485,4.41912091 17.1440216,4.74234383 Z M10.4207424,37.3349392 C8.57085521,37.3349392 6.5551341,37.1795583 4.95361276,36.8627968 L4.98348442,36.7120312 C8.35728824,37.3793996 13.5737423,37.3304777 15.1323039,36.6172643 L15.1963586,36.7569532 C14.3610299,37.1394055 12.495283,37.3349392 10.4207424,37.3349392 Z M9.80729558,32.4512113 C8.29107788,32.4512113 6.77716983,32.2849076 5.27496408,31.9521464 L5.30837722,31.8018424 C8.43997421,32.4956718 11.6237696,32.4605957 14.7710724,31.6975372 L14.8074111,31.8472259 C13.1464544,32.2498315 11.4754892,32.4512113 9.80729558,32.4512113 Z" id="Shape"></path>
                        </g>
                    </g>
                </g>
                <g id="地磁-copy-5" transform="translate(4.000000, 5.000000)" fill="#FF7982" fill-rule="nonzero">
                    <path d="M0.480938967,6.86075168 L0.480938967,9.38066219 C0.625164319,9.53185682 0.769389671,9.73344966 0.961690141,9.83424609 L0.961690141,7.21353915 C0.769389671,7.06234452 0.625164319,6.9615481 0.529014085,6.81035347 C0.529014085,6.81035347 0.529014085,6.86075168 0.480938967,6.86075168 Z M5,5.75199105 C7.78835681,5.75199105 9.99981221,4.44163758 9.99981221,2.87929306 C9.99981221,1.26655034 7.74028169,0.0065950783 5,0.0065950783 C2.21164319,0.0065950783 0.000187793427,1.26655034 0.000187793427,2.87929306 C0.000187793427,4.49203579 2.21164319,5.75199105 5,5.75199105 Z M8.26910798,2.0729217 C8.70178404,2.0729217 9.03830986,2.32491275 9.03830986,2.5769038 C9.03830986,2.87929306 8.70178404,3.08088591 8.26910798,3.08088591 C7.83643192,3.08088591 7.4999061,2.82889485 7.4999061,2.5769038 C7.4999061,2.32491275 7.83643192,2.0729217 8.26910798,2.0729217 Z M4.75962441,0.510577181 C5.19230047,0.510577181 5.52882629,0.762568233 5.52882629,1.01455928 C5.52882629,1.31694855 5.19230047,1.51854139 4.75962441,1.51854139 C4.32694836,1.51854139 3.99042254,1.26655034 3.99042254,1.01455928 C3.99042254,0.762568233 4.32694836,0.510577181 4.75962441,0.510577181 Z M4.75962441,4.18964653 C5.19230047,4.18964653 5.52882629,4.44163758 5.52882629,4.69362864 C5.52882629,4.94561969 5.19230047,5.19761074 4.75962441,5.19761074 C4.32694836,5.19761074 3.99042254,4.94561969 3.99042254,4.69362864 C3.99042254,4.44163758 4.32694836,4.18964653 4.75962441,4.18964653 Z M1.73089202,2.0729217 C2.16356808,2.0729217 2.5000939,2.32491275 2.5000939,2.5769038 C2.5000939,2.87929306 2.16356808,3.08088591 1.73089202,3.08088591 C1.29821596,3.08088591 0.961690141,2.82889485 0.961690141,2.5769038 C1.00976526,2.32491275 1.34629108,2.0729217 1.73089202,2.0729217 Z M1.92319249,7.76791946 C1.77896714,7.71752125 1.63474178,7.61672483 1.49051643,7.56632662 L1.49051643,10.1870336 C1.77896714,10.3382282 2.11549296,10.4894228 2.5000939,10.6406174 L2.5000939,8.01991051 C2.30779343,7.9695123 2.16356808,7.91911409 2.01934272,7.81831767 C1.97126761,7.81831767 1.97126761,7.81831767 1.92319249,7.76791946 Z M8.99023474,7.21353915 L8.99023474,9.83424609 C9.18253521,9.68305145 9.32676056,9.53185682 9.47098592,9.38066219 L9.47098592,6.86075168 C9.47098592,6.86075168 9.4229108,6.81035347 9.4229108,6.81035347 C9.32676056,6.9615481 9.18253521,7.11274273 8.99023474,7.21353915 Z M7.98065728,7.81831767 C7.83643192,7.86871588 7.64413146,7.9695123 7.4999061,8.01991051 L7.4999061,10.6406174 C7.88450704,10.539821 8.22103286,10.3886264 8.50948357,10.1870336 L8.50948357,7.56632662 C8.36525822,7.66712304 8.22103286,7.71752125 8.07680751,7.76791946 C8.02873239,7.81831767 8.02873239,7.81831767 7.98065728,7.81831767 Z M5,6.81035347 C2.54816901,6.81035347 0.529014085,5.80238926 0.0963380282,4.44163758 C0.0482629108,4.59283221 0.000187793427,4.79442506 0.000187793427,4.94561969 C0.000187793427,6.55836242 2.25971831,7.81831767 5,7.81831767 C7.78835681,7.81831767 9.99981221,6.50796421 9.99981221,4.94561969 C9.99981221,4.74402685 9.95173709,4.59283221 9.90366197,4.44163758 C9.47098592,5.80238926 7.45183099,6.81035347 5,6.81035347 Z M2.98084507,10.7918121 C3.31737089,10.8926085 3.65389671,10.9430067 3.99042254,10.9934049 L3.99042254,8.37269799 C3.65389671,8.27190157 3.31737089,8.22150336 2.98084507,8.12070694 L2.98084507,10.7918121 Z M4.51924883,8.37269799 L4.51924883,10.9934049 C4.66347418,10.9934049 4.85577465,10.9934049 5,10.9934049 C5.14422535,10.9934049 5.33652582,10.9934049 5.48075117,10.9934049 L5.48075117,8.37269799 C5.33652582,8.37269799 5.14422535,8.37269799 5,8.37269799 C4.80769953,8.37269799 4.66347418,8.37269799 4.51924883,8.37269799 Z M6.00957746,10.9430067 C6.34610329,10.8926085 6.68262911,10.8422103 7.01915493,10.7414139 L7.01915493,8.12070694 C6.68262911,8.22150336 6.34610329,8.27190157 6.00957746,8.32229978 L6.00957746,10.9430067 Z" id="Shape"></path>
                </g>
            </g>
        </g>
    </g>
</svg>