<?xml version="1.0" encoding="UTF-8" standalone="no"?>
<svg width="30px" height="30px" viewBox="0 0 30 30" version="1.1" xmlns="http://www.w3.org/2000/svg" xmlns:xlink="http://www.w3.org/1999/xlink">
    <!-- Generator: Sketch 46 (44423) - http://www.bohemiancoding.com/sketch -->
    <title>diantixitong</title>
    <desc>Created with Sketch.</desc>
    <defs></defs>
    <g id="Page-1" stroke="none" stroke-width="1" fill="none" fill-rule="evenodd">
        <g id="diantixitong" fill-rule="nonzero" fill="#56E4FF">
            <g id="电梯-(4)" transform="translate(2.000000, 0.000000)">
                <path d="M26.1915037,0.015806846 L0.874400978,0.015806846 C0.398728606,0.015806846 0.00755501222,0.40690709 0.00755501222,0.882579462 L0.00755501222,29.1174939 C0.00755501222,29.5930562 0.398728606,29.9842298 0.874400978,29.9842298 L26.1915037,29.9842298 C26.6779951,29.9842298 27.0584597,29.5930562 27.0584597,29.1174939 L27.0584597,0.882542787 C27.0584597,0.40690709 26.6673594,0.015806846 26.1915037,0.015806846 Z M25.3247677,28.2505379 L14.4051345,28.2505379 L14.4051345,26.7495844 C14.4051345,26.273802 14.0138509,25.8827017 13.5382152,25.8827017 C13.0625795,25.8827017 12.6714792,26.273802 12.6714792,26.7495844 L12.6714792,28.2505379 L1.74113692,28.2505379 L1.74113692,1.74942543 L12.6715159,1.74942543 L12.6715159,22.4155746 C12.6715159,22.8912103 13.0626161,23.2823105 13.5382518,23.2823105 C14.0138875,23.2823105 14.4051711,22.8912103 14.4051711,22.4155746 L14.4051711,1.74942543 L25.3248044,1.74942543 L25.3248044,28.2505379 L25.3247677,28.2505379 Z" id="Shape"></path>
                <path d="M7.84056235,8.43018337 C7.68326406,8.27281174 7.48012225,8.18959658 7.27386308,8.17863081 C7.26409179,8.17799902 7.25431041,8.17753441 7.24452323,8.17723716 C7.23711491,8.17709046 7.22974328,8.17661369 7.22233496,8.17665037 C7.2205379,8.17665037 7.21874083,8.17650367 7.21698044,8.17650367 C7.18870416,8.17650367 7.16075795,8.17797066 7.13317848,8.1806846 C6.88364303,8.15618582 6.62552567,8.23929095 6.43463325,8.43018337 L3.00968215,11.8552445 C2.67143032,12.193313 2.67143032,12.7431051 3.00968215,13.0813203 C3.17886308,13.2505379 3.40085575,13.3350733 3.62277506,13.3350733 C3.84484108,13.3350733 4.06679707,13.2505379 4.23590465,13.0813203 L6.35013447,10.9671638 L6.35013447,17.9441443 C6.35013447,18.4195599 6.74123472,18.8108802 7.21698044,18.8108802 C7.70314181,18.8108802 8.08371638,18.4195599 8.08371638,17.9334719 L8.08371638,11.125709 L10.0393643,13.0812836 C10.2084352,13.2505012 10.4305012,13.3350367 10.6525306,13.3350367 C10.8744132,13.3350367 11.0964425,13.2505012 11.2655501,13.0812836 C11.603802,12.7430685 11.603802,12.1932763 11.2655501,11.8552078 L7.84056235,8.43018337 L7.84056235,8.43018337 Z M15.7477262,15.1321394 L19.1726039,18.5571638 C19.3417848,18.7263447 19.5637042,18.8108802 19.7856235,18.8108802 C19.8121027,18.8108802 19.8385452,18.8094866 19.8649878,18.807066 C19.8913718,18.8095294 19.9178534,18.8108021 19.9443521,18.8108802 C20.1662714,18.8108802 20.3881907,18.7263447 20.5574083,18.5571638 L23.9823227,15.1322494 C24.3206846,14.7938875 24.3206846,14.2442421 23.9823227,13.9058802 C23.6440709,13.567665 23.0943888,13.567665 22.7561369,13.9058802 L20.6523961,16.009621 L20.6523961,9.04338631 C20.6523961,8.56760391 20.2614059,8.17650367 19.7856235,8.17650367 C19.3100244,8.17650367 18.9189242,8.56760391 18.9189242,9.04338631 L18.9189242,15.8509291 L16.9738386,13.9058435 C16.6355868,13.5676284 16.0857579,13.5676284 15.7477262,13.9058435 C15.4092543,14.2442421 15.4092543,14.7938875 15.7477262,15.1321394 L15.7477262,15.1321394 Z" id="Shape"></path>
            </g>
        </g>
    </g>
</svg>