<?xml version="1.0" encoding="UTF-8" standalone="no"?>
<svg width="30px" height="30px" viewBox="0 0 30 30" version="1.1" xmlns="http://www.w3.org/2000/svg" xmlns:xlink="http://www.w3.org/1999/xlink">
    <!-- Generator: Sketch 46 (44423) - http://www.bohemiancoding.com/sketch -->
    <title>jiankong</title>
    <desc>Created with Sketch.</desc>
    <defs></defs>
    <g id="Page-1" stroke="none" stroke-width="1" fill="none" fill-rule="evenodd">
        <g id="jiankong" fill-rule="nonzero" fill="#56E4FF">
            <g id="监控" transform="translate(3.000000, 0.000000)">
                <path d="M21.1474359,29.974359 L1.86538462,29.974359 C1.66025641,29.974359 1.45512821,29.7692308 1.45512821,29.5641026 C1.45512821,29.3589744 1.66025641,29.1538462 1.86538462,29.1538462 L21.1474359,29.1538462 C21.3525641,29.1538462 21.5576923,29.3589744 21.5576923,29.5641026 C21.5576923,29.7692308 21.3525641,29.974359 21.1474359,29.974359 Z" id="Shape"></path>
                <path d="M18.0705128,29.7692308 C17.8653846,29.7692308 17.6602564,29.7692308 17.6602564,29.5641026 L14.5833333,22.7948718 C14.5833333,22.5897436 14.5833333,22.3846154 14.7884615,22.1794872 C14.9935897,22.1794872 15.1987179,22.1794872 15.4038462,22.3846154 L18.4807692,29.1538462 C18.6858974,29.3589744 18.4807692,29.5641026 18.0705128,29.7692308 C18.275641,29.7692308 18.275641,29.7692308 18.0705128,29.7692308 L18.0705128,29.7692308 Z" id="Shape"></path>
                <path d="M4.12179487,29.7692308 L7.60897436,22.1794872 C7.60897436,21.974359 8.01923077,21.7692308 8.22435897,21.974359 C8.42948718,21.974359 8.63461538,22.3846154 8.42948718,22.5897436 L5.3525641,28.9487179 L18.0705128,28.9487179 C18.275641,28.9487179 18.4807692,29.1538462 18.4807692,29.3589744 C18.4807692,29.5641026 18.275641,29.7692308 18.0705128,29.7692308 L4.12179487,29.7692308 Z" id="Shape"></path>
                <path d="M11.7115385,23.4102564 C5.3525641,23.4102564 0.0192307692,18.0769231 0.0192307692,11.7179487 C0.0192307692,5.35897436 5.3525641,0.0256410256 11.7115385,0.0256410256 C18.0705128,0.0256410256 23.4038462,5.35897436 23.4038462,11.7179487 C23.4038462,18.0769231 18.0705128,23.4102564 11.7115385,23.4102564 Z M11.7115385,0.846153846 C5.76282051,0.846153846 0.83974359,5.76923077 0.83974359,11.7179487 C0.83974359,17.6666667 5.76282051,22.5897436 11.7115385,22.5897436 C17.6602564,22.5897436 22.5833333,17.6666667 22.5833333,11.7179487 C22.5833333,5.76923077 17.6602564,0.846153846 11.7115385,0.846153846 Z" id="Shape"></path>
                <path d="M11.7115385,19.5128205 C7.40384615,19.5128205 3.91666667,16.025641 3.91666667,11.7179487 C3.91666667,7.41025641 7.40384615,3.92307692 11.7115385,3.92307692 C16.0192308,3.92307692 19.5064103,7.41025641 19.5064103,11.7179487 C19.5064103,16.025641 16.0192308,19.5128205 11.7115385,19.5128205 L11.7115385,19.5128205 Z M11.7115385,4.33333333 C7.60897436,4.33333333 4.32692308,7.61538462 4.32692308,11.7179487 C4.32692308,15.8205128 7.60897436,19.1025641 11.7115385,19.1025641 C15.8141026,19.1025641 19.0961538,15.8205128 19.0961538,11.7179487 C19.0961538,7.61538462 15.8141026,4.33333333 11.7115385,4.33333333 Z" id="Shape"></path>
                <path d="M11.5064103,17.4615385 C11.3012821,17.4615385 11.3012821,17.2564103 11.0961538,17.2564103 L10.4807692,8.23076923 L9.25,13.974359 C9.25,14.1794872 9.04487179,14.1794872 9.04487179,14.1794872 C8.83974359,14.1794872 8.83974359,14.1794872 8.63461538,13.974359 L7.81410256,12.3333333 L6.58333333,13.3589744 L6.37820513,13.3589744 L5.96794872,13.1538462 C5.76282051,13.1538462 5.55769231,12.9487179 5.55769231,12.7435897 C5.55769231,12.5384615 5.76282051,12.5384615 5.96794872,12.5384615 L6.17307692,12.5384615 L7.60897436,11.5128205 L7.81410256,11.5128205 C7.81410256,11.5128205 8.01923077,11.5128205 8.01923077,11.7179487 L8.83974359,12.9487179 L10.275641,5.76923077 C10.275641,5.56410256 10.4807692,5.56410256 10.6858974,5.56410256 C10.8910256,5.56410256 10.8910256,5.76923077 10.8910256,5.76923077 L11.7115385,15.4102564 L13.3525641,9.87179487 C13.3525641,9.66666667 13.5576923,9.66666667 13.5576923,9.66666667 C13.7628205,9.66666667 13.7628205,9.66666667 13.7628205,9.87179487 L14.7884615,12.9487179 L14.9935897,12.3333333 C14.9935897,12.1282051 15.1987179,12.1282051 15.1987179,12.1282051 L17.6602564,12.3333333 C17.8653846,12.3333333 17.8653846,12.5384615 17.8653846,12.7435897 C18.0705128,12.7435897 17.8653846,12.9487179 17.6602564,12.9487179 L15.6089744,12.7435897 L15.1987179,13.7692308 C15.1987179,13.974359 14.9935897,13.974359 14.9935897,13.974359 C14.7884615,13.974359 14.7884615,13.974359 14.7884615,13.7692308 L13.5576923,11.1025641 L11.7115385,17.2564103 L11.5064103,17.4615385 Z" id="Shape"></path>
            </g>
        </g>
    </g>
</svg>