<?xml version="1.0" encoding="UTF-8" standalone="no"?>
<svg width="30px" height="30px" viewBox="0 0 30 30" version="1.1" xmlns="http://www.w3.org/2000/svg" xmlns:xlink="http://www.w3.org/1999/xlink">
    <!-- Generator: Sketch 46 (44423) - http://www.bohemiancoding.com/sketch -->
    <title>jishui</title>
    <desc>Created with Sketch.</desc>
    <defs></defs>
    <g id="Page-1" stroke="none" stroke-width="1" fill="none" fill-rule="evenodd">
        <g id="jishui" fill-rule="nonzero" fill="#56E4FF">
            <g id="给排水" transform="translate(0.000000, 6.000000)">
                <path d="M30,17.8512397 L0,17.8512397 L0,10.3403963 L1.30716216,11.0607459 C4.16016892,12.6344281 7.81108108,12.52559 10.5658446,10.7860771 L11.035473,10.4889566 L11.5059459,10.78435 C14.4235811,12.6257928 18.3183446,12.6223387 21.2359459,10.7860771 L21.7090203,10.4872295 L22.1794932,10.7878041 C24.1673649,12.0574576 26.6274324,12.4893219 28.9255405,11.9745591 L30,11.7344313 L30,17.8512397 Z M1.76469595,16.0823669 L28.2352703,16.0823669 L28.2352703,13.8850839 C25.9733784,14.1580257 23.6744257,13.6864392 21.7029392,12.563619 C18.4492568,14.3912453 14.2925676,14.3912453 11.0371622,12.563619 C8.2410473,14.1373011 4.75986486,14.3877912 1.76469595,13.2217609 L1.76469595,16.0823669 Z M26.9496622,3.47387849 C25.1160135,3.47387849 23.3142568,2.99883786 21.6934459,2.07638943 C18.4001351,3.92128629 14.3244257,3.92301335 11.0276689,2.07466238 C7.76364865,3.90919694 3.76462838,3.94028386 0.460101351,2.12647391 L1.30797297,0.575243448 C4.21010135,2.16792313 7.75587838,2.06081211 10.5580405,0.297120505 L11.0276689,0.00172705103 L11.4964189,0.297120505 C14.4536824,2.15928788 18.2726014,2.15928788 21.2281419,0.297120505 L21.7003378,0 L22.1708108,0.300574607 C24.18625,1.58577148 26.5808446,2.01072763 28.9168581,1.48560252 L29.3011486,3.21302605 C28.5187838,3.38752593 27.7312162,3.47387849 26.9496622,3.47387849 L26.9496622,3.47387849 Z M5.69564189,8.8375233 C3.89560811,8.8375233 2.09297297,8.39184254 0.460135135,7.49529988 L1.30800676,5.94406941 C4.21013514,7.53847615 7.75591216,7.43139899 10.5580743,5.66594647 L11.0277027,5.37055302 L11.4964527,5.66594647 C14.4537162,7.5298409 18.2726351,7.5263868 21.2281757,5.66594647 L21.7003716,5.36882597 L22.1708446,5.66940057 C24.1587162,6.93559989 26.6170608,7.37437244 28.9168919,6.85442849 L29.3011824,8.58185202 C26.7299662,9.15536842 23.9863851,8.74250163 21.6943243,7.4452154 C18.4010135,9.29011226 14.3244257,9.29183931 11.0276689,7.44348835 C9.37672297,8.37111793 7.53790541,8.8375233 5.69564189,8.8375233 Z" id="Shape"></path>
            </g>
        </g>
    </g>
</svg>