<?xml version="1.0" encoding="UTF-8" standalone="no"?>
<svg width="30px" height="30px" viewBox="0 0 30 30" version="1.1" xmlns="http://www.w3.org/2000/svg" xmlns:xlink="http://www.w3.org/1999/xlink">
    <!-- Generator: Sketch 46 (44423) - http://www.bohemiancoding.com/sketch -->
    <title>kongtiao</title>
    <desc>Created with Sketch.</desc>
    <defs></defs>
    <g id="Page-1" stroke="none" stroke-width="1" fill="none" fill-rule="evenodd">
        <g id="kongtiao" fill-rule="nonzero" fill="#56E4FF">
            <g id="空调" transform="translate(0.000000, 2.000000)">
                <path d="M26.4851695,0.0127118644 L3.52754237,0.0127118644 C1.59533898,0.0127118644 0.0190677966,1.58898305 0.0190677966,3.52118644 L0.0190677966,11.809322 C0.0190677966,13.7415254 1.59533898,15.3177966 3.52754237,15.3177966 L26.4597458,15.3177966 C28.3919492,15.3177966 29.9682203,13.7415254 29.9682203,11.809322 L29.9682203,3.52118644 C29.9936441,1.58898305 28.4173729,0.0127118644 26.4851695,0.0127118644 Z M28.4173729,12.1398305 C28.4173729,13.0805085 27.6800847,13.8432203 26.7902542,13.8432203 L3.17161017,13.8432203 C2.25635593,13.8432203 1.54449153,13.0805085 1.54449153,12.1398305 L1.54449153,3.29237288 C1.54449153,2.35169492 2.28177966,1.58898305 3.17161017,1.58898305 L26.7902542,1.58898305 C27.7055085,1.58898305 28.4173729,2.35169492 28.4173729,3.29237288 L28.4173729,12.1398305 Z" id="Shape"></path>
                <path d="M25.5444915,9.47033898 L3.85805085,9.47033898 C3.50211864,9.47033898 3.22245763,9.77542373 3.22245763,10.1059322 C3.22245763,10.4618644 3.52754237,10.7415254 3.85805085,10.7415254 L25.5444915,10.7415254 C25.9004237,10.7415254 26.1800847,10.4364407 26.1800847,10.1059322 C26.154661,9.75 25.875,9.47033898 25.5444915,9.47033898 Z M25.5444915,7.66525424 L3.85805085,7.66525424 C3.50211864,7.66525424 3.22245763,7.97033898 3.22245763,8.30084746 C3.22245763,8.65677966 3.52754237,8.93644068 3.85805085,8.93644068 L25.5444915,8.93644068 C25.9004237,8.93644068 26.1800847,8.63135593 26.1800847,8.30084746 C26.154661,7.97033898 25.875,7.66525424 25.5444915,7.66525424 Z M25.5444915,11.25 L3.85805085,11.25 C3.50211864,11.25 3.22245763,11.5550847 3.22245763,11.8855932 C3.22245763,12.2415254 3.52754237,12.5211864 3.85805085,12.5211864 L25.5444915,12.5211864 C25.9004237,12.5211864 26.1800847,12.2161017 26.1800847,11.8855932 C26.154661,11.529661 25.875,11.25 25.5444915,11.25 Z M7.03601695,18.3940678 C6.62923729,17.3008475 5.63771186,16.8940678 5.51059322,16.8686441 C5.18008475,16.7415254 4.82415254,16.9194915 4.6970339,17.25 C4.56991525,17.5805085 4.74788136,17.9364407 5.07838983,18.0635593 C5.07838983,18.0635593 5.63771186,18.2923729 5.84110169,18.8516949 C6.0190678,19.3347458 5.89194915,19.9957627 5.45974576,20.7330508 C3.98516949,23.3262712 5.33262712,25.029661 6.24788136,25.5381356 C6.34957627,25.5889831 6.45127119,25.6144068 6.5529661,25.6144068 C6.75635593,25.6144068 6.98516949,25.5127119 7.08686441,25.309322 C7.26483051,25.0042373 7.16313559,24.6228814 6.85805085,24.4449153 C6.70550847,24.3686441 5.35805085,23.4788136 6.5529661,21.3686441 C7.18855932,20.2245763 7.34110169,19.2584746 7.03601695,18.3940678 L7.03601695,18.3940678 Z M15.4766949,18.3940678 C15.0699153,17.3008475 14.0783898,16.8940678 13.9512712,16.8686441 C13.6207627,16.7415254 13.2648305,16.9194915 13.1377119,17.25 C13.0105932,17.5805085 13.1885593,17.9364407 13.5190678,18.0635593 C13.5190678,18.0635593 14.0783898,18.2923729 14.2817797,18.8516949 C14.4597458,19.3347458 14.3326271,19.9957627 13.9004237,20.7330508 C12.4258475,23.3262712 13.7733051,25.029661 14.6885593,25.5381356 C14.7902542,25.5889831 14.8919492,25.6144068 14.9936441,25.6144068 C15.1970339,25.6144068 15.4258475,25.5127119 15.5275424,25.309322 C15.7055085,25.0042373 15.6038136,24.6228814 15.2987288,24.4449153 C15.1461864,24.3686441 13.7987288,23.4788136 14.9936441,21.3686441 C15.6292373,20.2245763 15.7817797,19.2584746 15.4766949,18.3940678 L15.4766949,18.3940678 Z M11.3834746,19.2076271 C10.9512712,18.0381356 9.83262712,17.5805085 9.75635593,17.5805085 C9.42584746,17.4533898 9.06991525,17.6313559 8.94279661,17.9618644 C8.81567797,18.2923729 8.96822034,18.6483051 9.29872881,18.7754237 C9.29872881,18.7754237 9.95974576,19.029661 10.1631356,19.6652542 C10.3411017,20.1991525 10.2139831,20.9110169 9.7309322,21.75 C7.74788136,25.2330508 10.5190678,26.8601695 10.5444915,26.8855932 C10.6461864,26.9364407 10.7478814,26.9618644 10.8495763,26.9618644 C11.0529661,26.9618644 11.2817797,26.8601695 11.3834746,26.6567797 C11.5614407,26.3516949 11.434322,25.970339 11.154661,25.7923729 C10.9766949,25.690678 9.50211864,24.7245763 10.7987288,22.4110169 C11.5360169,21.190678 11.7139831,20.0974576 11.3834746,19.2076271 Z M24.5021186,19.4872881 C24.8326271,19.309322 24.9597458,18.8516949 24.7563559,18.4957627 C24.5783898,18.1652542 24.1207627,18.0381356 23.7648305,18.2415254 C23.5360169,18.3686441 23.434322,18.6228814 23.434322,18.8516949 L22.3665254,19.4618644 L22.3665254,18.190678 L22.3919492,18.1652542 C22.595339,18.0381356 22.7478814,17.809322 22.7478814,17.5550847 C22.7478814,17.1737288 22.4427966,16.8432203 22.0360169,16.8432203 C21.654661,16.8432203 21.3241525,17.1483051 21.3241525,17.5550847 C21.3241525,17.8601695 21.5021186,18.0889831 21.7563559,18.2161017 L21.7563559,19.5381356 L20.5105932,18.8262712 C20.5105932,18.5720339 20.3834746,18.3432203 20.1800847,18.2161017 C19.8495763,18.0381356 19.3919492,18.1398305 19.1885593,18.470339 C19.0105932,18.8008475 19.1122881,19.2584746 19.4427966,19.4618644 C19.6716102,19.5889831 19.9258475,19.5635593 20.154661,19.4618644 L21.2733051,20.0974576 L20.154661,20.7330508 C19.9512712,20.6059322 19.6716102,20.5805085 19.4427966,20.7330508 C19.1122881,20.9110169 18.9851695,21.3686441 19.1885593,21.7245763 C19.3665254,22.0550847 19.8241525,22.1822034 20.1800847,21.9788136 C20.4088983,21.8516949 20.5105932,21.5974576 20.5105932,21.3686441 L21.7563559,20.6567797 L21.7563559,21.9533898 C21.5021186,22.0550847 21.3241525,22.309322 21.3241525,22.6144068 C21.3241525,22.9957627 21.6292373,23.3262712 22.0360169,23.3262712 C22.4173729,23.3262712 22.7478814,23.0211864 22.7478814,22.6144068 C22.7478814,22.3347458 22.595339,22.1059322 22.3665254,22.0042373 L22.3665254,20.7330508 L23.434322,21.3432203 C23.434322,21.5974576 23.5614407,21.8262712 23.7648305,21.9533898 C24.095339,22.1313559 24.5529661,22.029661 24.7563559,21.6991525 C24.934322,21.3686441 24.8326271,20.9110169 24.5021186,20.7076271 C24.2733051,20.5805085 24.0190678,20.6059322 23.7902542,20.7076271 L22.6716102,20.0720339 L23.7902542,19.4364407 C23.9936441,19.6144068 24.2733051,19.6144068 24.5021186,19.4872881 Z" id="Shape"></path>
            </g>
        </g>
    </g>
</svg>