<?xml version="1.0" encoding="UTF-8" standalone="no"?>
<svg width="30px" height="30px" viewBox="0 0 30 30" version="1.1" xmlns="http://www.w3.org/2000/svg" xmlns:xlink="http://www.w3.org/1999/xlink">
    <!-- Generator: Sketch 46 (44423) - http://www.bohemiancoding.com/sketch -->
    <title>lengyuan</title>
    <desc>Created with Sketch.</desc>
    <defs></defs>
    <g id="Page-1" stroke="none" stroke-width="1" fill="none" fill-rule="evenodd">
        <g id="lengyuan" fill-rule="nonzero" fill="#56E4FF">
            <g id="冷源" transform="translate(1.000000, 0.000000)">
                <path d="M27.6878987,18.4661353 L24.0610091,19.3853425 L22.1992874,18.3686972 L26.1352202,17.3711859 C26.5955665,17.2545077 26.8687468,16.8069645 26.7453842,16.3715878 C26.6220215,15.9361757 26.1488367,15.6777791 25.6885258,15.7944573 L20.1518144,17.1976364 C20.1303462,17.203083 20.1094085,17.2093431 20.0887891,17.2162045 L17.2367711,15.6587867 L19.0725683,14.8890081 L17.4247152,14.2287988 L20.0887538,12.7740535 C20.1093732,12.7809148 20.1303462,12.7871749 20.1517791,12.7926216 L25.6885258,14.1958007 C26.1488721,14.3124788 26.6220569,14.0540822 26.7453842,13.6186701 C26.8687468,13.1832581 26.5955665,12.7357149 26.1352202,12.6190721 L22.1992521,11.6215608 L24.0609738,10.6049155 L27.6878987,11.5241227 C28.1415959,11.6391032 28.6079547,11.3844202 28.7295136,10.9553036 C28.8510724,10.526187 28.5818179,10.0850807 28.1281208,9.97010022 L26.1442035,9.46731263 L27.8261511,8.54884815 C28.2151254,8.33642959 28.348391,7.86600346 28.1238059,7.49807302 C27.8992562,7.13017794 27.4018799,7.00412737 27.0129056,7.2165459 L25.3309581,8.13501038 L25.862535,6.2585757 C25.9841293,5.82945909 25.7148748,5.38838817 25.2611422,5.27337232 C24.807445,5.15839185 24.3410862,5.41307482 24.2195273,5.84219146 L23.2476929,9.27261328 L21.3859712,10.2892586 L22.4405661,6.56652249 C22.5639287,6.1311104 22.2907484,5.68356722 21.830402,5.56692446 C21.3700557,5.45024634 20.8968709,5.70864294 20.7735083,6.14405499 L19.2899383,11.380848 C19.2842751,11.4009452 19.2794257,11.4212628 19.2754022,11.4417513 L16.6543708,12.8730124 L16.6543708,11.0221132 L15.2080783,12.0480602 L15.2080783,9.22065809 C15.2246658,9.20718297 15.2408996,9.19317736 15.2566029,9.17832294 L19.3097796,5.34470903 C19.6467633,5.0259751 19.6467633,4.50918187 19.3097796,4.19044794 C18.9727959,3.87171401 18.4263999,3.87171401 18.0894162,4.19044794 L15.2081137,6.91567268 L15.2081137,4.88238211 L17.8632043,2.37116748 C18.1953426,2.05703132 18.1953426,1.54770073 17.8632043,1.23356457 C17.5310659,0.919428422 16.9925569,0.919428422 16.660454,1.23356457 L15.2081137,2.60721169 L15.2081137,0.770318122 C15.2081137,0.345481002 14.844003,0.00110543779 14.3948682,0.00110543779 C13.9456981,0.00110543779 13.5815874,0.345480968 13.5815874,0.770318122 L13.5815874,2.60724705 L12.1292471,1.23359997 C11.7971088,0.919463813 11.2586352,0.919463813 10.9264968,1.23359997 C10.5943585,1.54773612 10.5943585,2.05706672 10.9264968,2.37120287 L13.5815874,4.88245286 L13.5815874,6.9157434 L10.7002849,4.19051865 C10.3633012,3.87178472 9.81690518,3.87178472 9.47992147,4.19051865 C9.1429378,4.50925258 9.1429378,5.02604582 9.47992147,5.34477978 L13.5330982,9.17839365 C13.5488015,9.19324811 13.5650353,9.20728908 13.5816227,9.22072884 L13.5816227,12.1785317 L11.8182233,11.0221486 L12.0201023,12.8100932 L9.51433427,11.4417513 C9.51029791,11.4212656 9.5054487,11.4009485 9.49979813,11.380848 L8.01622815,6.14405499 C7.89290088,5.7086429 7.41971609,5.4502463 6.95936976,5.56692446 C6.49902346,5.68360258 6.22584311,6.13114579 6.34920577,6.56652249 L7.40383597,10.2892586 L5.54211425,9.27261328 L4.57031526,5.84219146 C4.44875641,5.41307485 3.98239756,5.15842721 3.52870037,5.27337232 C3.07496782,5.38835278 2.80574869,5.82945906 2.92730758,6.2585757 L3.45891985,8.13501038 L1.77697227,7.2165459 C1.38799801,7.00412734 0.890621682,7.1301779 0.666036636,7.49807302 C0.44145159,7.8659681 0.574717154,8.33642959 0.963726809,8.54884815 L2.64567435,9.46731263 L0.661757143,9.97010022 C0.208059954,10.0850807 -0.0611945392,10.5261516 0.0603643548,10.9553036 C0.181958606,11.3844202 0.648282062,11.6390678 1.10197925,11.5241227 L4.72886879,10.6049155 L6.59059051,11.6215608 L2.65465776,12.6190721 C2.19431146,12.7357502 1.92113112,13.1832935 2.04449378,13.6186701 C2.16785641,14.0540822 2.64100583,14.3124788 3.10135213,14.1958007 L8.63809887,12.7926216 C8.65932598,12.7872002 8.68034837,12.7810067 8.70112417,12.7740535 L11.4262074,14.2621506 L9.42510152,15.030479 L11.1530979,15.8772178 L8.70112417,17.2161691 C8.68034179,17.2092368 8.65932015,17.2030436 8.63809887,17.1976011 L3.10135213,15.7944219 C2.64100583,15.6777438 2.16782101,15.9361404 2.04449378,16.3715525 C1.92113115,16.8069646 2.19431146,17.2545077 2.65465776,17.3711505 L6.59059051,18.3686618 L4.72886879,19.3853071 L1.10197925,18.4660999 C0.648282062,18.3511194 0.181923249,18.6057671 0.0603643548,19.0349191 C-0.0611945046,19.4640357 0.208059988,19.9051419 0.661757143,20.0201224 L2.64567435,20.52291 L0.963726809,21.4413745 C0.574717189,21.653793 0.44145159,22.1242192 0.666036636,22.4921143 C0.890621682,22.8600093 1.38799801,22.9860953 1.77697227,22.7736767 L3.45891985,21.8552122 L2.92730758,23.7316823 C2.80574872,24.1607989 3.07496782,24.6018698 3.52870037,24.7168857 C3.98239756,24.8318661 4.44875637,24.5771832 4.57031526,24.1480665 L5.54214964,20.7176093 L7.40387136,19.7009641 L6.34924113,23.4237001 C6.2258785,23.8591122 6.49905881,24.3066554 6.95940515,24.4232982 C7.41975145,24.5399763 7.89293627,24.2815797 8.01626354,23.8461676 L9.49983353,18.6093746 C9.50559847,18.5890735 9.51030238,18.5687724 9.51436967,18.5484713 L12.1859769,17.0895527 L11.9927984,19.0388095 L13.5816935,18.0221996 L13.5816935,20.7694938 C13.565106,20.7829689 13.5488722,20.7970099 13.533169,20.8118643 L9.47999222,24.6455136 C9.14300855,24.9642475 9.14300855,25.4810408 9.47999222,25.7997747 C9.8169759,26.1185086 10.3633719,26.1185086 10.7003556,25.7997747 L13.5816581,23.0745499 L13.5816581,25.1078405 L10.9265676,27.6190905 C10.5944293,27.9332267 10.5944293,28.4425573 10.9265676,28.7566934 C11.2587059,29.0708296 11.7972149,29.0708296 12.1293178,28.7566934 L13.5816581,27.3830463 L13.5816581,29.2200106 C13.5816581,29.6448477 13.9457688,29.9892233 14.394939,29.9892233 C14.8440737,29.9892233 15.2081844,29.6448477 15.2081844,29.2200106 L15.2081844,27.3830817 L16.6605247,28.7567288 C16.9926631,29.0708649 17.5311367,29.0708649 17.863275,28.7567288 C18.1954133,28.4425926 18.1954133,27.933262 17.863275,27.6191259 L15.2081844,25.1078759 L15.2081844,23.0745853 L18.089487,25.79981 C18.4264706,26.118544 18.9728666,26.118544 19.3098504,25.79981 C19.646834,25.4810761 19.646834,24.9642829 19.3098504,24.645549 L15.256709,20.8118997 C15.2410057,20.7970452 15.2247719,20.7830043 15.2081844,20.7695291 L15.2081844,17.8212048 L16.8289812,18.8501934 L16.583706,17.0785533 L19.2755083,18.5484713 C19.2795402,18.5687724 19.2842795,18.5891089 19.2900444,18.6093746 L20.7736144,23.8461676 C20.896977,24.2815797 21.3701618,24.5399763 21.8305081,24.4232982 C22.2908544,24.30662 22.5640348,23.8590768 22.4406722,23.4237001 L21.3860419,19.7009641 L23.2477637,20.7176093 L24.219598,24.1480665 C24.3411569,24.5771831 24.8075157,24.8318308 25.2612129,24.7168857 C25.7149101,24.6019052 25.9841646,24.1607989 25.8626057,23.7316823 L25.3309934,21.8552122 L27.0129764,22.7736767 C27.4019506,22.9860953 27.899327,22.8600447 28.123912,22.4921143 C28.3484617,22.1242192 28.2151961,21.653793 27.8262219,21.4413745 L26.1442743,20.52291 L28.1281915,20.0201224 C28.5818887,19.9051419 28.8511078,19.464071 28.7295843,19.0349191 C28.6079547,18.6058024 28.1415958,18.3511548 27.6878987,18.4661353 Z" id="Shape"></path>
            </g>
        </g>
    </g>
</svg>