<?xml version="1.0" encoding="UTF-8" standalone="no"?>
<svg width="30px" height="30px" viewBox="0 0 30 30" version="1.1" xmlns="http://www.w3.org/2000/svg" xmlns:xlink="http://www.w3.org/1999/xlink">
    <!-- Generator: Sketch 46 (44423) - http://www.bohemiancoding.com/sketch -->
    <title>menjin</title>
    <desc>Created with Sketch.</desc>
    <defs></defs>
    <g id="Page-1" stroke="none" stroke-width="1" fill="none" fill-rule="evenodd">
        <g id="menjin" fill-rule="nonzero" fill="#56E4FF">
            <g id="门禁">
                <path d="M23.0652654,8.56197943 L21.9775633,8.56197943 L21.9775633,7.67270944 C21.9775633,6.21386575 20.7649224,5.02694757 19.2730067,5.02694757 C17.781091,5.02694757 16.5684501,6.21386575 16.5684501,7.67270944 L16.5684501,8.56197943 L15.480748,8.56197943 C15.447676,8.56197943 15.4182786,8.58770212 15.4182786,8.62444881 L15.4182786,14.0078393 C15.4182786,14.0409113 15.447676,14.0703087 15.480748,14.0703087 L23.0689401,14.0703087 C23.1020121,14.0703087 23.1314094,14.044586 23.1314094,14.0078393 L23.1314094,8.62444881 C23.1314094,8.60975013 23.1240601,8.5913768 23.1130361,8.58035276 C23.0983374,8.56932876 23.0836387,8.5619794 23.0652654,8.56197943 L23.0652654,8.56197943 Z M21.2757015,8.56197943 L17.2703119,8.56197943 L17.2703119,7.67270944 C17.2703119,6.59235668 18.1669312,5.71411072 19.2730067,5.71411072 C20.3790821,5.71411072 21.2757015,6.59235668 21.2757015,7.67270944 L21.2757015,8.56197943 Z M9.29260494,11.6193042 L9.29260494,22.8858403 L17.6965736,22.8858403 L17.6965736,14.7574718 L15.4733987,14.7574718 C15.0508117,14.7574718 14.7090674,14.4230769 14.7090674,14.0078393 L14.7090674,11.6193042 L9.29260494,11.6193042 Z M15.6497828,15.6945125 L16.7007382,15.6945125 L16.7007382,17.7486526 L15.6497828,17.7486526 L15.6497828,15.6945125 Z M18.7107823,23.9514944 L8.17183081,23.9514944 L8.17183081,10.4875061 L14.7090674,10.4875061 L14.7090674,9.50636941 L7.17232075,9.50636941 L7.17232075,24.9730524 L19.8205324,24.9730524 L19.8205324,14.7574718 L18.7107823,14.7574718 L18.7107823,23.9514944 Z" id="Shape"></path>
                <path d="M15.1500278,30 C13.1069116,30 11.1225902,29.6031357 9.25585825,28.8204312 C7.45159564,28.067124 5.83474116,26.9830965 4.44204149,25.6087702 C3.04934183,24.2307692 1.95796506,22.6286134 1.19363385,20.8427242 C0.403579951,18.9943655 0.00304101562,17.0284175 0.00304098633,15.0036747 C0.00304095703,12.9789319 0.403579951,11.0129838 1.19363385,9.16462518 C1.95796506,7.3787359 3.04934183,5.77290542 4.44204149,4.39857914 C5.83106648,3.02057815 7.45159564,1.94022539 9.25585825,1.18691818 C11.1225902,0.396864287 13.1069116,0 15.1500278,0 C17.1931439,0 19.1774653,0.396864287 21.0441973,1.17956883 C22.8484599,1.93287604 24.4653144,3.01690348 25.8580141,4.39122979 C27.2507137,5.76923077 28.3420905,7.37138657 29.1064217,9.15727585 C29.8964756,11.0056345 30.2970145,12.9715825 30.2970145,14.9963253 C30.2970145,17.0210681 29.8964756,18.9870162 29.1064217,20.8353748 C28.3420905,22.6212641 27.2507137,24.2270946 25.8580141,25.6014209 C24.4689891,26.9794218 22.8484599,28.0597746 21.0441973,28.8130818 C19.1774653,29.6031357 17.1931439,30 15.1500278,30 Z M15.1500278,1.10240077 C7.4074996,1.10240077 1.10911646,7.33831456 1.10911646,15 C1.10911646,22.6616854 7.4074996,28.8975992 15.1500278,28.8975992 C22.8925559,28.8975992 29.1909391,22.6616854 29.1909391,15 C29.1909391,7.33831456 22.8925559,1.10240077 15.1500278,1.10240077 Z" id="Shape"></path>
            </g>
        </g>
    </g>
</svg>