<?xml version="1.0" encoding="UTF-8" standalone="no"?>
<svg width="30px" height="30px" viewBox="0 0 30 30" version="1.1" xmlns="http://www.w3.org/2000/svg" xmlns:xlink="http://www.w3.org/1999/xlink">
    <!-- Generator: Sketch 46 (44423) - http://www.bohemiancoding.com/sketch -->
    <title>nuanyuan</title>
    <desc>Created with Sketch.</desc>
    <defs></defs>
    <g id="Page-1" stroke="none" stroke-width="1" fill="none" fill-rule="evenodd">
        <g id="nuanyuan" fill-rule="nonzero" fill="#56E4FF">
            <g id="暖气" transform="translate(0.000000, 2.000000)">
                <path d="M6.4125,27 C4.509,27 2.97,25.461 2.97,23.5575 L2.97,3.4425 C2.97,1.539 4.509,0 6.4125,0 C8.316,0 9.855,1.539 9.855,3.4425 L9.855,23.5575 C9.855,25.461 8.316,27 6.4125,27 Z M6.4125,1.62 C5.4135,1.62 4.59,2.4435 4.59,3.4425 L4.59,23.5575 C4.59,24.5565 5.4135,25.38 6.4125,25.38 C7.4115,25.38 8.235,24.5565 8.235,23.5575 L8.235,3.4425 C8.235,2.4435 7.4115,1.62 6.4125,1.62 Z" id="Shape"></path>
                <path d="M12.3525,27 C10.449,27 8.91,25.461 8.91,23.5575 L8.91,3.4425 C8.91,1.539 10.449,0 12.3525,0 C14.256,0 15.795,1.539 15.795,3.4425 L15.795,23.5575 C15.795,25.461 14.256,27 12.3525,27 L12.3525,27 Z M12.3525,1.62 C11.3535,1.62 10.53,2.4435 10.53,3.4425 L10.53,23.5575 C10.53,24.5565 11.3535,25.38 12.3525,25.38 C13.3515,25.38 14.175,24.5565 14.175,23.5575 L14.175,3.4425 C14.175,2.4435 13.3515,1.62 12.3525,1.62 Z" id="Shape"></path>
                <path d="M18.0225,27 C16.119,27 14.58,25.461 14.58,23.5575 L14.58,3.4425 C14.58,1.539 16.119,0 18.0225,0 C19.926,0 21.465,1.539 21.465,3.4425 L21.465,23.5575 C21.465,25.461 19.926,27 18.0225,27 Z M18.0225,1.62 C17.0235,1.62 16.2,2.4435 16.2,3.4425 L16.2,23.5575 C16.2,24.5565 17.0235,25.38 18.0225,25.38 C19.0215,25.38 19.845,24.5565 19.845,23.5575 L19.845,3.4425 C19.845,2.4435 19.0215,1.62 18.0225,1.62 Z" id="Shape"></path>
                <path d="M23.6925,27 C21.789,27 20.25,25.461 20.25,23.5575 L20.25,3.4425 C20.25,1.539 21.789,0 23.6925,0 C25.596,0 27.135,1.539 27.135,3.4425 L27.135,23.5575 C27.135,25.461 25.596,27 23.6925,27 Z M23.6925,1.62 C22.6935,1.62 21.87,2.4435 21.87,3.4425 L21.87,23.5575 C21.87,24.5565 22.6935,25.38 23.6925,25.38 C24.6915,25.38 25.515,24.5565 25.515,23.5575 L25.515,3.4425 C25.515,2.4435 24.6915,1.62 23.6925,1.62 Z M3.78,6.48 L0.81,6.48 C0.3645,6.48 0,6.1155 0,5.67 C0,5.2245 0.3645,4.86 0.81,4.86 L3.78,4.86 C4.2255,4.86 4.59,5.2245 4.59,5.67 C4.59,6.1155 4.2255,6.48 3.78,6.48 Z M3.78,22.14 L0.81,22.14 C0.3645,22.14 0,21.7755 0,21.33 C0,20.8845 0.3645,20.52 0.81,20.52 L3.78,20.52 C4.2255,20.52 4.59,20.8845 4.59,21.33 C4.59,21.7755 4.2255,22.14 3.78,22.14 Z" id="Shape"></path>
                <path d="M29.16,6.48 L26.46,6.48 C26.0145,6.48 25.65,6.1155 25.65,5.67 C25.65,5.2245 26.0145,4.86 26.46,4.86 L29.16,4.86 C29.6055,4.86 29.97,5.2245 29.97,5.67 C29.97,6.1155 29.6055,6.48 29.16,6.48 Z M29.16,22.14 L26.46,22.14 C26.0145,22.14 25.65,21.7755 25.65,21.33 C25.65,20.8845 26.0145,20.52 26.46,20.52 L29.16,20.52 C29.6055,20.52 29.97,20.8845 29.97,21.33 C29.97,21.7755 29.6055,22.14 29.16,22.14 Z" id="Shape"></path>
            </g>
        </g>
    </g>
</svg>