<?xml version="1.0" encoding="UTF-8" standalone="no"?>
<svg width="30px" height="30px" viewBox="0 0 30 30" version="1.1" xmlns="http://www.w3.org/2000/svg" xmlns:xlink="http://www.w3.org/1999/xlink">
    <!-- Generator: Sketch 46 (44423) - http://www.bohemiancoding.com/sketch -->
    <title>paifeng</title>
    <desc>Created with Sketch.</desc>
    <defs></defs>
    <g id="Page-1" stroke="none" stroke-width="1" fill="none" fill-rule="evenodd">
        <g id="paifeng" fill-rule="nonzero" fill="#56E4FF">
            <g id="操作_排风" transform="translate(0.000000, 1.000000)">
                <path d="M27.7652344,19.0647991 C27.7652344,19.5945201 27.5758594,20.1472433 27.2026004,20.7076004 C26.8197991,21.2821875 26.2508036,21.8454241 25.5568192,22.3367746 C24.8617299,22.8288281 24.056183,23.2387835 23.2273326,23.5224777 C22.3936272,23.8079799 21.5542299,23.9587835 20.7996094,23.9587835 C19.3010826,23.9587835 17.4605022,23.3293862 15.9958259,22.3159821 C14.5720982,21.3311049 13.7220871,20.1420201 13.7220871,19.1355804 C13.7220871,18.763192 13.8341853,18.4099554 14.0645424,18.0554129 C14.0859796,18.0223695 14.1078678,17.9896209 14.1302009,17.9571763 C14.2986161,17.9579129 14.5828125,17.9779353 14.8597098,17.997221 C15.5207813,18.0434263 16.5197545,18.113404 18.0227679,18.113404 C19.6490625,18.113404 21.1998214,17.6377567 22.5681027,17.2181585 C23.7438951,16.8575558 24.8544978,16.5170424 25.7019308,16.579721 C26.2430692,16.6197656 26.8775223,16.8153013 27.4794308,17.9611272 C27.6716183,18.3270871 27.7651339,18.6880246 27.7651339,19.0646987 L27.7652344,19.0647991 L27.7652344,19.0647991 Z M28.9421317,19.0644308 C28.9421317,18.5192411 28.8107812,17.9646429 28.5214955,17.4137946 C26.2919196,13.1692634 22.2873214,16.9364732 18.0226339,16.9364732 C13.7580804,16.9364732 13.7601228,16.3642634 13.0779576,17.4137946 C12.7099219,17.9798103 12.5452567,18.5596205 12.5452567,19.1353795 C12.5452567,22.1975558 17.2099888,25.1356473 20.7996094,25.1356473 C24.4422321,25.1356473 28.9424665,22.2570536 28.9421317,19.0644308 Z M16.3773884,9.32879464 C16.3773884,11.1044196 15.9034152,12.614029 15.1097545,13.3666741 C14.7003348,13.7549665 14.2139063,13.928404 13.6222433,13.8971652 C13.5745312,13.8945201 13.5358594,13.891875 13.5045201,13.8894643 C13.4209152,13.7431473 13.2960937,13.4871763 13.1743192,13.237567 C12.8839286,12.6418527 12.4449442,11.7418192 11.6935379,10.4403683 C10.8803571,9.03180804 9.69297991,7.9265625 8.64559152,6.95159598 C7.40186384,5.79378348 6.32768973,4.79390625 6.32768973,3.7575 C6.32768973,3.33294643 6.49309152,2.86479911 6.83327009,2.3265067 C7.08793527,1.92371652 7.40434152,1.63553571 7.80060268,1.4459933 C8.18420759,1.26264509 8.64167411,1.17488839 9.1603125,1.18516741 C10.2165737,1.20629464 11.4443304,1.62579241 12.6176786,2.36635045 C13.7986942,3.11199777 14.7752344,4.08719866 15.3671987,5.11272321 C16.0091183,6.22449777 16.3773884,7.76122768 16.3773884,9.32859375 L16.3773884,9.32879464 L16.3773884,9.32879464 Z M17.5542857,9.32842634 C17.5542857,7.62066964 17.1537054,5.85308036 16.3863616,4.52427455 C14.2541183,0.830959821 8.11647321,-1.90734375 5.83828125,1.6978125 C5.35546875,2.46194196 5.15082589,3.1381808 5.15082589,3.7575 C5.15082589,6.4231808 8.94385045,8.03172991 10.6742076,11.028817 C12.8066518,14.7220647 12.3100446,15.0062946 13.5601339,15.0723549 C16.2864844,15.2167969 17.5542857,12.3669978 17.5542857,9.32842634 L17.5542857,9.32842634 Z M10.7198772,16.5160714 C10.6348996,16.6616518 10.475692,16.8977679 10.3204353,17.1279241 C9.94978795,17.6772991 9.38973214,18.5074888 8.63829241,19.8089397 C7.82514509,21.2175335 7.4615625,22.7983929 7.14090402,24.193058 C6.86527902,25.3916518 6.60502232,26.523817 6.12696429,27.2262054 C5.82160714,27.6748661 5.33511161,28.1267746 4.04169643,28.0749107 C3.16262277,28.039721 2.48792411,27.6176116 1.97896205,26.7841071 C1.46166295,25.936875 1.17666295,24.738817 1.17666295,23.4105469 C1.17666295,21.9052902 1.54510045,20.4037165 2.18742187,19.2912388 C2.78953125,18.2482701 3.85751116,17.2082143 5.11714286,16.4371205 C6.36666295,15.6723884 7.68160714,15.2497433 8.72487723,15.2772321 C9.65668527,15.301942 10.2920759,15.6725893 10.6674442,16.4101339 C10.689375,16.4528237 10.7063504,16.4878125 10.7198772,16.5160714 L10.7198772,16.5160714 Z M11.9341741,16.5348214 C11.9341741,16.3469531 11.8585714,16.1555357 11.7165402,15.8763616 C9.7824442,12.0754687 3.30073661,15.0095089 1.16832589,18.7028237 C0.40078125,20.0323326 0,21.7489955 0,23.4105469 C0,26.3642076 1.26746652,29.1419531 3.9946875,29.2508705 C8.78521205,29.4424888 7.52521205,24.0906362 9.65745536,20.3973884 C11.2562946,17.6284152 11.9341741,17.0974219 11.9341741,16.5347879 L11.9341741,16.5348214 Z M25.4336384,3.12090402 L19.8932813,3.12090402 C19.3641964,3.12090402 18.9353237,2.69203125 18.9353237,2.16294643 C18.9353237,1.63386161 19.3641964,1.20495536 19.8932813,1.20495536 L25.4337054,1.20495536 C25.9627902,1.20495536 26.3916629,1.63386161 26.3916629,2.16294643 C26.3916629,2.69203125 25.9627567,3.12090402 25.4336719,3.12090402 L25.4336384,3.12090402 Z M27.7900446,6.9528683 L19.8932812,6.9528683 C19.3641964,6.9528683 18.9353237,6.52396205 18.9353237,5.99487723 C18.9353237,5.46579241 19.3641964,5.03691964 19.8932812,5.03691964 L27.7900446,5.03691964 C28.3191295,5.03691964 28.7480357,5.46579241 28.7480357,5.99487723 C28.7480357,6.52396205 28.3191295,6.9528683 27.7900446,6.9528683 Z M29.0420089,10.9285045 L19.8932813,10.9285045 C19.3641964,10.9285045 18.9353237,10.4995982 18.9353237,9.97051339 C18.9353237,9.44142857 19.3641964,9.0125558 19.8932813,9.0125558 L29.0420089,9.0125558 C29.5711272,9.0125558 30,9.44142857 30,9.97051339 C30,10.4995982 29.5710937,10.9285045 29.0420089,10.9285045 L29.0420089,10.9285045 Z" id="Shape"></path>
            </g>
        </g>
    </g>
</svg>