<?xml version="1.0" encoding="UTF-8" standalone="no"?>
<svg width="30px" height="30px" viewBox="0 0 30 30" version="1.1" xmlns="http://www.w3.org/2000/svg" xmlns:xlink="http://www.w3.org/1999/xlink">
    <!-- Generator: Sketch 46 (44423) - http://www.bohemiancoding.com/sketch -->
    <title>paishui</title>
    <desc>Created with Sketch.</desc>
    <defs></defs>
    <g id="Page-1" stroke="none" stroke-width="1" fill="none" fill-rule="evenodd">
        <g id="paishui" fill-rule="nonzero" fill="#56E4FF">
            <g id="排水" transform="translate(0.000000, 4.000000)">
                <path d="M11.25,25.0097656 L7.37499999,25.0097656 C6.87499998,25.0097656 6.49999998,24.6347656 6.49999998,24.1347656 C6.49999998,23.6347656 6.87499998,23.2597656 7.37499999,23.2597656 L11.25,23.2597656 C11.75,23.2597656 12.125,23.6347656 12.125,24.1347656 C12.125,24.6347656 11.75,25.0097656 11.25,25.0097656 L11.25,25.0097656 Z" id="Shape"></path>
                <path d="M9.375,21.3847656 C4.25000001,21.3847656 0,17.1347656 0,12.0097656 L0,0.759765615 C0,0.384765615 0.375,0.00976561523 0.87500001,0.00976561523 C1.37500002,0.00976561523 1.75000002,0.384765615 1.75000002,0.884765625 L1.75000002,12.1347656 C1.75000002,16.3847656 5.12500002,19.7597656 9.37500003,19.7597656 C13.625,19.7597656 17,16.3847656 17,12.1347656 L17,10.0097656 C17,8.00976562 18.625,6.38476564 20.625,6.38476564 C22.625,6.38476564 24.25,8.00976565 24.25,10.0097656 L24.25,15.2597656 C24.25,15.7597656 23.875,16.1347656 23.375,16.1347656 C22.875,16.1347656 22.5,15.7597656 22.5,15.2597656 L22.5,10.0097656 C22.5,9.00976564 21.625,8.13476563 20.625,8.13476563 C19.625,8.13476563 18.75,9.00976562 18.75,10.0097656 L18.75,12.0097656 C18.75,17.2597656 14.5,21.3847656 9.375,21.3847656 L9.375,21.3847656 Z" id="Shape"></path>
                <path d="M29.125,16.2597656 C28.625,16.2597656 28.25,15.8847656 28.25,15.3847656 L28.25,10.0097656 C28.25,5.75976563 24.875,2.38476563 20.625,2.38476563 C16.5,2.38476563 13,5.75976563 13,10.0097656 L13,12.0097656 C13,14.0097657 11.375,15.6347656 9.375,15.6347656 C7.37499999,15.6347656 5.75000001,14.0097656 5.75000001,12.0097656 L5.75000001,0.759765645 C5.75000001,0.384765615 6.12500001,0.00976561523 6.62499999,0.00976561523 C6.99999999,0.00976561523 7.5,0.384765615 7.5,0.884765625 L7.5,12.1347656 C7.5,13.1347656 8.37500001,14.0097656 9.375,14.0097656 C10.375,14.0097656 11.25,13.1347656 11.25,12.1347656 L11.25,10.0097656 C11.25,4.88476564 15.5,0.634765635 20.625,0.634765635 C25.75,0.634765635 30,4.88476564 30,10.0097656 L30,15.2597656 C30,15.7597656 29.625,16.2597656 29.125,16.2597656 L29.125,16.2597656 Z" id="Shape"></path>
            </g>
        </g>
    </g>
</svg>