<?xml version="1.0" encoding="UTF-8" standalone="no"?>
<svg width="30px" height="30px" viewBox="0 0 30 30" version="1.1" xmlns="http://www.w3.org/2000/svg" xmlns:xlink="http://www.w3.org/1999/xlink">
    <!-- Generator: Sketch 46 (44423) - http://www.bohemiancoding.com/sketch -->
    <title>qiangdian</title>
    <desc>Created with Sketch.</desc>
    <defs></defs>
    <g id="Page-1" stroke="none" stroke-width="1" fill="none" fill-rule="evenodd">
        <g id="qiangdian" fill-rule="nonzero" fill="#56E4FF">
            <g id="强弱电" transform="translate(7.000000, 0.000000)">
                <path d="M16.6007907,10.4725826 C16.4633811,10.182897 16.1715865,9.99809381 15.8509638,9.99769219 L10.3209903,9.99769219 L15.5635301,1.24971152 C15.712934,0.993529739 15.7145005,0.677145732 15.5676408,0.419497045 C15.420781,0.161848357 15.1477526,0.00198345524 14.8511946,1.19945837e-15 L6.84679225,1.19945837e-15 C6.50518995,-0.000912221252 6.19782379,0.207303552 6.07197108,0.524878828 L0.0733557715,15.5214171 C-0.0309069164,15.7783985 -0.000112802685,16.0704538 0.155453152,16.300039 C0.311019106,16.5296243 0.570854608,16.6664821 0.848176904,16.6649032 L4.64729994,16.6649032 L0.0733557715,28.8683362 C-0.0751212857,29.2511053 0.0781603379,29.6849385 0.434142796,29.8894722 C0.790125254,30.094006 1.24212013,30.0079413 1.49802691,29.6868973 L16.4945652,11.3598778 C16.6995082,11.1099355 16.7409423,10.763839 16.6007907,10.4725826 L16.6007907,10.4725826 Z M3.40383697,24.7255425 L6.62809271,16.1212787 C6.7247701,15.8653617 6.68930746,15.5782578 6.53326485,15.3535564 C6.37722224,15.1288551 6.12058941,14.9953415 5.84702303,14.9965383 L2.09788843,14.9965383 L7.41541099,1.66836489 L13.3765349,1.66836489 L8.14024365,10.4038484 C7.99083975,10.6600302 7.98927322,10.9764142 8.13613298,11.2340629 C8.28299274,11.4917116 8.55602115,11.6515765 8.85257924,11.65356 L14.0951191,11.65356 L3.40383697,24.7255425 Z" id="Shape"></path>
            </g>
        </g>
    </g>
</svg>