<?xml version="1.0" encoding="UTF-8" standalone="no"?>
<svg width="30px" height="30px" viewBox="0 0 30 30" version="1.1" xmlns="http://www.w3.org/2000/svg" xmlns:xlink="http://www.w3.org/1999/xlink">
    <!-- Generator: Sketch 46 (44423) - http://www.bohemiancoding.com/sketch -->
    <title>renxingbaizha</title>
    <desc>Created with Sketch.</desc>
    <defs></defs>
    <g id="Page-1" stroke="none" stroke-width="1" fill="none" fill-rule="evenodd">
        <g id="renxingbaizha" fill-rule="nonzero" fill="#56E4FF">
            <g id="人行" transform="translate(0.000000, 6.000000)">
                <path d="M28.4602117,0.058502488 L25.300889,0.058502488 C24.4567951,0.058502488 23.7574031,0.661426659 23.7574031,1.40905266 L23.7574031,3.09724035 C23.7574031,3.26605911 23.6127013,3.41076094 23.4438825,3.41076094 L17.4387577,3.41076094 C16.5946638,3.41076094 15.8952718,3.98956814 15.8952718,4.76131111 L15.8952718,11.8758164 C15.8952718,12.5993255 16.5705468,13.2263666 17.4387577,13.2263666 L23.4438825,13.2263666 C23.6127013,13.2263666 23.7574031,13.3710684 23.7574031,13.5398872 L23.7574031,17.6638886 C23.7574031,17.8327074 23.9021049,17.9774092 24.0709237,17.9774092 L29.6660601,17.9774092 C29.8348788,17.9774092 29.9795807,17.8327074 29.9795806,17.6638886 L29.9795806,1.38493569 C30.0036976,0.661426659 29.3043056,0.058502488 28.4602117,0.058502488 L28.4602117,0.058502488 Z M16.7634826,5.34011834 C16.7634826,4.61660931 17.4387577,3.98956817 18.3069685,3.98956817 L22.3103851,3.98956817 C22.6239057,4.01368514 22.6962565,4.42367358 22.4550869,4.56837537 L17.2458219,7.77593203 C17.0287692,7.89651685 16.7634826,7.75181506 16.7634826,7.51064538 L16.7634826,5.34011834 Z M22.1415663,12.5028576 L18.2828515,12.5028576 C17.4387577,12.5028576 16.7634826,11.8999334 16.7634826,11.1523075 L16.7634826,9.03001431 C16.7634826,8.78884464 17.0287692,8.62002588 17.2458219,8.76472767 L22.3103851,11.8999334 C22.5997887,12.0928691 22.4792038,12.5028576 22.1415663,12.5028576 C22.1656832,12.5028576 22.1656832,12.5028576 22.1415663,12.5028576 Z M22.6480226,10.9834887 L18.7410739,8.57179194 C18.5481381,8.45120712 18.5481381,8.1618035 18.7410739,8.04121868 L22.6962565,5.62952192 C22.9133092,5.5089371 23.1785959,5.65363889 23.1785959,5.89480857 L23.1303619,10.718202 C23.1303619,10.9593717 22.8650753,11.1040735 22.6480226,10.9834887 Z M29.2319547,16.650976 C29.2319547,17.0609644 28.8943171,17.398602 28.4843287,17.398602 L25.2285381,17.398602 C24.8426666,17.398602 24.5050291,17.0850814 24.5050291,16.6750929 L24.5050291,1.62610536 C24.5050291,1.16788298 24.8667836,0.806128486 25.325006,0.806128486 L28.2913929,0.806128486 C28.7978493,0.806128486 29.2078377,1.21611692 29.2078377,1.72257325 L29.2078377,16.650976 L29.2319547,16.650976 Z M0.00219032452,1.38493569 L0.00219032452,17.6156547 C0.00219032452,17.7844734 0.146892115,17.9291753 0.315710877,17.9291753 L5.91084728,17.9291753 C6.07966605,17.9291753 6.22436787,17.7844735 6.22436787,17.6156547 L6.22436787,13.4916533 C6.22436787,13.3228345 6.36906966,13.1781327 6.53788846,13.1781327 L12.5430133,13.1781327 C13.3871072,13.1781327 14.0864992,12.5752085 14.0864992,11.8275825 L14.0864992,4.73719413 C14.0864992,3.98956814 13.4112241,3.38664397 12.5430133,3.38664397 L6.5620054,3.38664397 C6.39318663,3.38664397 6.24848481,3.24194218 6.24848484,3.07312341 L6.24848484,1.38493569 C6.24848484,0.661426659 5.57320976,0.0343855168 4.70499894,0.0343855168 L1.52155925,0.0343855168 C0.677465409,0.058502488 0.00219032452,0.661426659 0.00219032452,1.38493569 Z M13.2182884,7.51064538 C13.2182884,7.75181506 12.9530017,7.92063382 12.735949,7.77593203 L7.55080107,4.59249234 C7.28551442,4.42367358 7.38198231,4.03780208 7.69550286,4.01368511 L11.7230364,4.01368511 C12.5671303,4.01368511 13.2665223,4.61660928 13.2665223,5.36423528 L13.2665223,7.51064538 L13.2182884,7.51064538 Z M7.84020469,12.5028576 C7.5266841,12.5028576 7.40609928,12.0928692 7.67138593,11.9240504 L12.735949,8.78884464 C12.9530017,8.66825982 13.2182884,8.81296161 13.2182884,9.05413129 L13.2182884,11.1764244 C13.2182884,11.8999334 12.5430133,12.5269746 11.6989195,12.5269746 L7.84020469,12.5028576 Z M6.85140901,10.718202 L6.80317507,5.8706916 C6.80317507,5.62952192 7.06846172,5.46070316 7.28551442,5.60540495 L11.2406971,8.01710171 C11.4336328,8.13768653 11.4336328,8.42709014 11.2406971,8.54767496 L7.33374837,10.9593717 C7.11669566,11.1040735 6.85140901,10.9593717 6.85140901,10.718202 Z M0.773933257,1.72257325 C0.773933257,1.21611692 1.18392169,0.806128486 1.69037802,0.806128486 L4.656765,0.806128486 C5.11498738,0.806128486 5.47674187,1.16788298 5.47674187,1.62610536 L5.47674187,16.6750929 C5.47674187,17.0609644 5.16322129,17.398602 4.75323288,17.398602 L1.49744228,17.398602 C1.08745385,17.398602 0.749816286,17.0609644 0.749816286,16.650976 L0.749816286,1.72257325 L0.773933257,1.72257325 Z" id="Shape"></path>
            </g>
        </g>
    </g>
</svg>