<?xml version="1.0" encoding="UTF-8" standalone="no"?>
<svg width="30px" height="30px" viewBox="0 0 30 30" version="1.1" xmlns="http://www.w3.org/2000/svg" xmlns:xlink="http://www.w3.org/1999/xlink">
    <!-- Generator: Sketch 46 (44423) - http://www.bohemiancoding.com/sketch -->
    <title>shineiwendu</title>
    <desc>Created with Sketch.</desc>
    <defs></defs>
    <g id="Page-1" stroke="none" stroke-width="1" fill="none" fill-rule="evenodd">
        <g id="shineiwendu" fill-rule="nonzero" fill="#56E4FF">
            <g id="室内温度计" transform="translate(2.000000, 0.000000)">
                <path d="M8.17244936,19.2893617 L8.17244936,10.9148936 C8.17244936,10.1660119 7.5596834,9.55324596 6.8106383,9.55324596 C6.0617566,9.55324596 5.44899064,10.1660119 5.44899064,10.9148936 L5.44899064,19.2893617 C3.88292426,19.8341515 2.72553191,21.3319149 2.72553191,23.1702128 C2.72553191,25.4170213 4.56382979,27.2553191 6.8106383,27.2553191 C9.05744681,27.2553191 10.8957447,25.4170213 10.8957447,23.1702128 C10.8957447,21.3998911 9.73818894,19.9021277 8.17244936,19.2893617 L8.17244936,19.2893617 Z M10.8957447,17.7232953 L10.8957447,4.10632851 C10.8957447,1.85952 9.05744681,0.0212221277 6.8106383,0.0212221277 C4.56382979,0.0212221277 2.72553191,1.85952 2.72553191,4.10632851 L2.72553191,17.7232953 C1.09148936,18.9488272 0.00207319149,20.9234043 0.00207319149,23.1702128 C0.00207319149,26.9147847 3.06590298,29.9786145 6.8106383,29.9786145 C10.5552102,29.9786145 13.61904,26.9147847 13.61904,23.1702128 C13.61904,20.9234043 12.5297872,18.9488272 10.8957447,17.7232953 Z M6.8106383,28.6171302 C3.81494809,28.6171302 1.36388426,26.1660664 1.36388426,23.1702128 C1.36388426,21.1276596 2.45330043,19.4256409 4.08734298,18.4723404 L4.08734298,4.10632851 C4.08734298,2.6084017 5.31287489,1.38286979 6.8108017,1.38286979 C8.30856511,1.38286979 9.53409702,2.6084017 9.53409702,4.10632851 L9.53409702,18.4723404 C11.1681396,19.4256409 12.2577191,21.1956357 12.2577191,23.1702128 C12.2575557,26.1660664 9.80649191,28.6171302 6.8106383,28.6171302 Z M14.4894945,0.860302979 C15.0310162,0.860302979 15.4751489,1.02828255 15.8220562,1.36391489 C16.1686366,1.70003745 16.3420085,2.12782979 16.3420085,2.64778213 C16.3420085,3.16773447 16.1686366,3.59830468 15.8220562,3.93981957 C15.4751489,4.28100766 15.0391864,4.4514383 14.5138417,4.4514383 C13.9880068,4.4514383 13.543874,4.27839319 13.1811166,3.93148596 C12.8180323,3.58490553 12.636817,3.16234213 12.636817,2.66395915 C12.636817,2.16573957 12.8181957,1.7403983 13.1811166,1.38809872 C13.5440374,1.03645277 13.98,0.860302979 14.4894945,0.860302979 Z M14.4894945,3.75288511 C14.7819881,3.75288511 15.0257872,3.64994043 15.2207285,3.44405106 C15.4158332,3.23832511 15.5132221,2.9809634 15.5132221,2.67212936 C15.5132221,2.36329532 15.4158332,2.10887489 15.2207285,1.90837787 C15.0259506,1.70788085 14.7819881,1.60771404 14.4894945,1.60771404 C14.1968374,1.60771404 13.9532017,1.71065872 13.758097,1.91638468 C13.5631557,2.12243745 13.46544,2.37685787 13.46544,2.68029957 C13.46544,2.98374128 13.5631557,3.23832511 13.758097,3.44405106 C13.9532017,3.64994043 14.1968374,3.75288511 14.4894945,3.75288511 Z M25.8325277,10.4970689 C25.2583251,11.2988936 24.6301991,11.8863319 23.9476596,12.2602009 C23.2649566,12.6339064 22.4198298,12.8208409 21.4122791,12.8208409 C19.8847762,12.8208409 18.6360409,12.2954962 17.6664,11.2446434 C16.6965957,10.1937906 16.2121021,8.84505191 16.2121021,7.19793702 C16.2121021,5.69233021 16.7077072,4.40029277 17.6990809,3.32215149 C18.6902911,2.24417362 19.9280783,1.70510298 21.4124426,1.70510298 C22.2791387,1.70510298 23.1051472,1.91932596 23.8907949,2.3471183 C24.6761157,2.77507404 25.32336,3.37885277 25.8326911,4.15894468 L25.0200817,4.82530723 C24.0556698,3.44960681 22.8531779,2.76151149 21.4124426,2.76151149 C20.2313566,2.76151149 19.2617157,3.17868255 18.5033566,4.01286128 C17.7449974,4.84704 17.3658996,5.93302468 17.3658996,7.27097872 C17.3658996,8.60909617 17.7422196,9.69001532 18.4953498,10.5130826 C19.2481532,11.3364766 20.2423047,11.7482553 21.4774774,11.7482553 C22.2789753,11.7482553 22.9481157,11.5858315 23.4842451,11.2608204 C24.0207013,10.9358094 24.53232,10.4482111 25.0199183,9.79818894 L25.8325277,10.4970689 L25.8325277,10.4970689 Z" id="Shape"></path>
            </g>
        </g>
    </g>
</svg>