<?xml version="1.0" encoding="UTF-8" standalone="no"?>
<svg width="30px" height="30px" viewBox="0 0 30 30" version="1.1" xmlns="http://www.w3.org/2000/svg" xmlns:xlink="http://www.w3.org/1999/xlink">
    <!-- Generator: Sketch 46 (44423) - http://www.bohemiancoding.com/sketch -->
    <title>tingchechang</title>
    <desc>Created with Sketch.</desc>
    <defs></defs>
    <g id="Page-1" stroke="none" stroke-width="1" fill="none" fill-rule="evenodd">
        <g id="tingchechang" fill-rule="nonzero" fill="#56E4FF">
            <g id="停车场">
                <path d="M15,0 C6.69999999,0 0,6.69999999 0,15 C0,23.3 6.69999999,30 15,30 C23.3,30 30,23.3 30,15 C30,6.69999999 23.3,0 15,0 L15,0 Z M15,28.9 C7.29999999,28.9 1.10000001,22.7 1.10000001,15 C1.10000001,7.29999999 7.29999999,1.10000001 15,1.10000001 C22.7,1.10000001 28.9,7.29999999 28.9,15 C28.9,22.7 22.7,28.9 15,28.9 L15,28.9 Z" id="Shape"></path>
                <path d="M16.9,6.6 L10.4,6.6 L10.4,23.3 L12.3,23.3 L12.3,17.6 L17,17.6 C19.6,17.2 21.7,14.9 21.7,12.1 C21.7,9.29999997 19.6,6.99999999 16.9,6.6 L16.9,6.6 Z M16,15.9 L12.3,15.9 L12.3,8.4 L16,8.4 C18.1,8.4 19.7,10.1 19.7,12.1 C19.7,14.2 18.1,15.9 16,15.9 L16,15.9 Z" id="Shape"></path>
            </g>
        </g>
    </g>
</svg>