<?xml version="1.0" encoding="UTF-8" standalone="no"?>
<svg width="30px" height="30px" viewBox="0 0 30 30" version="1.1" xmlns="http://www.w3.org/2000/svg" xmlns:xlink="http://www.w3.org/1999/xlink">
    <!-- Generator: Sketch 46 (44423) - http://www.bohemiancoding.com/sketch -->
    <title>xiaofangmoduanshishui</title>
    <desc>Created with Sketch.</desc>
    <defs></defs>
    <g id="Page-1" stroke="none" stroke-width="1" fill="none" fill-rule="evenodd">
        <g id="xiaofangmoduanshishui" fill-rule="nonzero" fill="#56E4FF">
            <g id="末端试水阀简化" transform="translate(0.000000, 4.000000)">
                <path d="M21.7845565,7.25692847 C21.7309557,7.20865598 21.6692824,7.17018702 21.6023551,7.14327961 L19.3980816,5.76874877 L20.7919827,7.96121852 C20.8199787,8.02840906 20.8590219,8.0895464 20.9068422,8.1419066 L20.9242451,8.17005399 L20.929239,8.16490877 C21.0464526,8.28158934 21.2054355,8.34658816 21.3708201,8.34544552 C21.5362941,8.34492537 21.6947636,8.27859814 21.8112741,8.16109404 C21.9277846,8.04358993 21.9927637,7.88456286 21.9918786,7.71909044 C21.9916756,7.55364301 21.9254345,7.39512204 21.8078613,7.27872 L21.8114932,7.27463409 L21.7845565,7.25692847 L21.7845565,7.25692847 Z" id="Shape"></path>
                <path d="M18.5351976,4.26891665 C18.4217001,4.16616355 18.1533919,4.17569734 18.041105,4.26694936 L18.0408024,4.26619271 C18.0386837,4.26816 18.0368678,4.27027862 18.0349005,4.27239724 C18.0256185,4.28001237 18.0169647,4.2883625 18.0090231,4.2973667 C18.0084177,4.29842601 18.0075098,4.29933399 18.0070558,4.29993931 C17.1163271,5.17568631 16.5659397,6.39525517 16.5715389,7.74269793 C16.5836453,10.3923358 18.7407038,12.5301754 21.3901903,12.518523 C24.0393742,12.5061139 26.1776678,10.3495094 26.1657127,7.70017419 C26.1536063,5.05159567 23.9963965,2.9134534 21.3470613,2.92510581 L21.344186,2.92510581 L21.1474569,2.92616512 L21.1583527,5.31233734 L21.1600173,5.31233734 C21.1687903,5.5299422 21.3478003,5.7018051 21.5655819,5.70170956 C21.7897261,5.7017097 21.9715012,5.5201378 21.9717517,5.29599369 C21.9717517,5.28767054 21.9709951,5.27949872 21.9702384,5.27102424 L21.9887007,3.76892217 C24.0193986,4.05175803 25.4078518,5.61166818 25.4163263,7.72196571 C25.4269194,10.0365588 23.6838999,11.7494636 21.3688528,11.7589974 C19.0538057,11.7692879 17.3626924,10.0365588 17.3527046,7.72196571 C17.3471054,6.54703921 17.7898971,5.49892729 18.5650097,4.73440788 L18.564707,4.73410522 C18.5771161,4.72426877 18.5887685,4.713373 18.5999669,4.70111527 C18.7096812,4.57929458 18.6604989,4.3819602 18.5351976,4.26891665 L18.5351976,4.26891665 Z" id="Shape"></path>
                <path d="M21.2042057,15.052242 C21.300314,15.0521214 21.3925251,15.0902262 21.4605124,15.1581567 C21.5284996,15.2260872 21.5666814,15.3182664 21.5666412,15.4143748 L21.5666412,15.7539594 C23.2232631,15.6804992 24.8139817,15.0838937 26.1103259,14.0498317 C26.275891,13.9175011 26.3034165,13.6762635 26.1719172,13.5100374 C26.0392499,13.3442094 25.7974139,13.3170003 25.631215,13.4492028 C24.3818341,14.4448032 22.8364516,14.9954932 21.2042057,14.9954932 C17.2770396,14.9954932 14.0936607,11.811055 14.0936607,7.88313222 C14.0936607,3.95657143 17.2767369,0.772587192 21.2042057,0.772587192 C25.1322798,0.772587192 28.3155074,3.95657143 28.3155074,7.88313222 C28.3155074,9.22951567 27.9411168,10.5202097 27.2445446,11.63869 C27.1332169,11.819124 27.1884463,12.0555898 27.3681813,12.1680426 C27.4545664,12.2218818 27.5588184,12.2391513 27.6579499,12.2160434 C27.7570815,12.1929354 27.8429515,12.1313476 27.8966258,12.0448599 C28.669771,10.8062234 29.0844154,9.3752465 29.0844154,7.88328355 C29.0841127,3.53163665 25.5564579,0.00383054187 21.2036004,0.00383054187 C16.8519535,0.00383054187 13.3236934,3.53178798 13.3236934,7.88328355 C13.3236934,12.1156824 16.658251,15.5650995 20.8416189,15.7547161 L20.8416189,15.4145261 C20.8415787,15.3183776 20.8797764,15.2261599 20.9477921,15.158201 C21.0158077,15.0902422 21.1080573,15.0521214 21.2042057,15.052242 L21.2042057,15.052242 Z M10.6442435,17.9317501 C10.5481475,17.9316698 10.4559599,17.9697875 10.3879813,18.0377093 C10.3200028,18.1056311 10.281808,18.1977869 10.2818081,18.293883 L10.2818081,21.8785892 C10.2818081,22.0787985 10.4441098,22.2411003 10.6443192,22.2411003 C10.8445286,22.2411003 11.0068303,22.0787985 11.0068303,21.8785892 L11.0068303,18.293883 C11.0066633,18.0937745 10.8443521,17.9316665 10.6442435,17.9317501 L10.6442435,17.9317501 Z M0.382855567,12.1521529 L6.34329222,12.1521529 C6.54341801,12.1521529 6.70565202,11.9899189 6.70565202,11.7897931 C6.70565202,11.5896673 6.54341801,11.4274333 6.34329222,11.4274333 L0.382855567,11.4274333 C0.185615324,11.4314643 0.0278256135,11.5925117 0.0278256135,11.7897931 C0.0278256135,11.9870745 0.185615324,12.1481219 0.382855567,12.1521529 Z" id="Shape"></path>
                <path d="M28.9616867,17.8713695 L21.5666412,17.8713695 L21.5666412,15.4143748 C21.5666814,15.3182664 21.5284996,15.2260872 21.4605124,15.1581567 C21.3925251,15.0902262 21.300314,15.0521214 21.2042057,15.052242 C21.1080712,15.0520812 21.0158212,15.0901682 20.9478012,15.1581031 C20.8797812,15.226038 20.8415786,15.3182401 20.8416189,15.4143748 L20.8416189,17.8713695 L12.8825663,17.8713695 C12.3094794,17.8713695 11.8606345,18.4547468 11.8606345,19.2000473 L11.8606345,20.9721222 C11.8606345,21.717574 12.3096307,22.3009513 12.8825663,22.3009513 L28.9616867,22.3009513 C29.5344709,22.3009513 29.9834672,21.717574 29.9834672,20.9721222 L29.9834672,19.2000473 C29.9834672,18.4548981 29.5344709,17.8713695 28.9616867,17.8713695 L28.9616867,17.8713695 Z M29.2585963,20.9722735 C29.2585963,21.335163 29.0797241,21.5760804 28.9616867,21.5760804 L12.8825663,21.5760804 C12.7643775,21.5760804 12.5855054,21.335163 12.5855054,20.9722735 L12.5855054,19.2001986 C12.5855054,18.8368552 12.7643775,18.5962404 12.8825663,18.5962404 L28.9616867,18.5962404 C29.0797241,18.5962404 29.2585963,18.8368552 29.2585963,19.2001986 L29.2585963,20.9722735 Z M8.90697458,17.8713695 L3.62268059,17.8713695 C3.6363003,17.8329316 3.64477478,17.7928292 3.64477478,17.7503054 L3.64477478,13.2396106 C3.64477478,13.0394013 3.48247302,12.8770995 3.28226365,12.8770995 C3.08205427,12.8770995 2.91975251,13.0394013 2.91975251,13.2396106 L2.91975251,17.7503054 C2.91975251,17.7928292 2.92852966,17.8329316 2.94199803,17.8713695 L0.718808276,17.8713695 C0.203226798,17.8713695 0.0204200985,18.5871606 0.0204200985,19.2000473 L0.0204200985,20.9721222 C0.0204200985,21.5851602 0.203226798,22.3009513 0.718808276,22.3009513 L8.90697458,22.3009513 C9.42255606,22.3009513 9.60536276,21.5851602 9.60536276,20.9721222 L9.60536276,19.2000473 C9.60536276,18.5873119 9.42255606,17.8713695 8.90697458,17.8713695 Z M8.88049182,20.9722735 C8.88049182,21.2702424 8.82843429,21.4774132 8.7877265,21.5760804 L0.838056355,21.5760804 C0.797197241,21.4774132 0.745442365,21.2702424 0.745442365,20.9722735 L0.745442365,19.2001986 C0.745442365,18.9019271 0.797197241,18.6947563 0.838056355,18.5962404 L8.7877265,18.5962404 C8.82858562,18.6947563 8.88049182,18.9020784 8.88049182,19.2001986 L8.88049182,20.9722735 Z" id="Shape"></path>
            </g>
        </g>
    </g>
</svg>