<?xml version="1.0" encoding="UTF-8" standalone="no"?>
<svg width="30px" height="30px" viewBox="0 0 30 30" version="1.1" xmlns="http://www.w3.org/2000/svg" xmlns:xlink="http://www.w3.org/1999/xlink">
    <!-- Generator: Sketch 46 (44423) - http://www.bohemiancoding.com/sketch -->
    <title>xiaofangbaojing</title>
    <desc>Created with Sketch.</desc>
    <defs></defs>
    <g id="Page-1" stroke="none" stroke-width="1" fill="none" fill-rule="evenodd">
        <g id="xiaofangbaojing" fill-rule="nonzero" fill="#56E4FF">
            <g id="消防" transform="translate(5.000000, 0.000000)">
                <path d="M18.368764,28.1797753 L16.2808989,28.1797753 L16.2808989,19.5168539 L18.0991011,19.5168539 C18.6044907,19.511312 19.0112663,19.1000267 19.011236,18.5946067 L19.011236,13.8492135 C19.0106121,13.6081105 18.9140964,13.3771605 18.7429791,13.2073079 C18.5718618,13.0374552 18.3402021,12.9426555 18.0991011,12.9438202 L16.2808989,12.9438202 L16.2808989,10.2660674 C16.3757405,10.2473169 16.4647285,10.2061744 16.5404494,10.1460674 L17.7030337,10.1460674 C18.2056749,10.1460674 18.6131461,9.73859623 18.6131461,9.23595506 C18.6131461,8.73331388 18.2056749,8.3258427 17.7030337,8.3258427 L16.8225843,8.3258427 C16.3291997,6.01814754 14.7583841,4.08738211 12.5993258,3.13483146 C12.6016854,3.10786517 12.6067416,3.08224719 12.6067416,3.05460674 L12.6067416,0.91011236 C12.603404,0.406096682 12.193577,-0.000567371632 11.6895506,-6.38690096e-15 L7.59101124,-6.38690096e-15 C7.08704034,-0.000566327396 6.67731028,0.406151007 6.6741573,0.91011236 L6.6741573,3.05595506 C6.6741573,3.08359551 6.6788764,3.11123596 6.68157303,3.13820225 C4.52106953,4.08708734 2.94928433,6.01779004 2.45831461,8.3258427 L1.57786517,8.3258427 C1.07522399,8.3258427 0.667752809,8.73331388 0.667752809,9.23595506 C0.667752809,9.73859623 1.07522399,10.1460674 1.57786517,10.1460674 L2.74044944,10.1460674 C2.81617041,10.2061744 2.90515839,10.2473169 3,10.2660674 L3,12.9438202 L1.18179775,12.9438202 C0.940696753,12.9426555 0.709037108,13.0374552 0.537919777,13.2073079 C0.366802446,13.3771605 0.270286817,13.6081105 0.269662921,13.8492135 L0.269662921,18.5946067 C0.269632537,19.1000267 0.676408206,19.511312 1.18179775,19.5168539 L3,19.5168539 L3,28.1797753 L0.912134831,28.1797753 C0.409493655,28.1797753 0.00202247191,28.5872465 0.00202247191,29.0898876 C0.00202247191,29.5925288 0.409493655,30 0.912134831,30 L18.368764,30 C18.8714052,30 19.2788764,29.5925288 19.2788764,29.0898876 C19.2788764,28.5872465 18.8714052,28.1797753 18.368764,28.1797753 Z M17.1910112,14.7640449 L17.1910112,17.6966292 L16.2808989,17.6966292 L16.2808989,14.7640449 L17.1910112,14.7640449 Z M8.49438202,1.82022472 L10.7865169,1.82022472 L10.7865169,2.60696629 C10.0270376,2.48884144 9.25386131,2.48884144 8.49438202,2.60696629 L8.49438202,1.82022472 Z M5.87393258,5.81898876 C7.27815577,4.50983016 9.26139291,4.02362916 11.1118976,4.53487413 C12.9624023,5.0461191 14.4147622,6.48148372 14.9477528,8.3258427 L4.33314607,8.3258427 C4.61156049,7.36669276 5.14390782,6.50056564 5.87393258,5.81898876 L5.87393258,5.81898876 Z M2.08988764,17.6966292 L2.08988764,14.7640449 L3,14.7640449 L3,17.6966292 L2.08988764,17.6966292 Z M4.82022472,28.1797753 L4.82022472,10.1460674 L14.4606742,10.1460674 L14.4606742,28.1797753 L4.82022472,28.1797753 Z" id="Shape"></path>
                <path d="M7.75280899,11.9629213 C7.25016781,11.9629213 6.84269663,12.3703925 6.84269663,12.8730337 L6.84269663,25.5168539 C6.84269663,26.0194951 7.25016781,26.4269663 7.75280899,26.4269663 C8.25545017,26.4269663 8.66292135,26.0194951 8.66292135,25.5168539 L8.66292135,12.8730337 C8.66292135,12.3703925 8.25545017,11.9629213 7.75280899,11.9629213 Z M11.5280899,11.9629213 C11.0254487,11.9629213 10.6179775,12.3703925 10.6179775,12.8730337 L10.6179775,25.5168539 C10.6179775,26.0194951 11.0254487,26.4269663 11.5280899,26.4269663 C12.0307311,26.4269663 12.4382022,26.0194951 12.4382022,25.5168539 L12.4382022,12.8730337 C12.4382022,12.3703925 12.0307311,11.9629213 11.5280899,11.9629213 L11.5280899,11.9629213 Z" id="Shape"></path>
            </g>
        </g>
    </g>
</svg>