<?xml version="1.0" encoding="UTF-8" standalone="no"?>
<svg width="30px" height="30px" viewBox="0 0 30 30" version="1.1" xmlns="http://www.w3.org/2000/svg" xmlns:xlink="http://www.w3.org/1999/xlink">
    <!-- Generator: Sketch 46 (44423) - http://www.bohemiancoding.com/sketch -->
    <title>xinfeng</title>
    <desc>Created with Sketch.</desc>
    <defs></defs>
    <g id="Page-1" stroke="none" stroke-width="1" fill="none" fill-rule="evenodd">
        <g id="xinfeng" fill-rule="nonzero" fill="#56E4FF">
            <g id="新风-(1)" transform="translate(1.000000, 1.000000)">
                <path d="M17.1616233,27.9243536 C16.4704789,27.9243536 16.1176288,27.7716525 15.9980639,27.7056097 C15.7134122,27.5492756 15.547904,27.2402686 15.5746832,26.9167012 C15.6010689,26.5922326 15.8165668,26.3160357 16.1226306,26.2089591 C16.2144891,26.1743183 18.5307332,25.2870075 18.7612926,21.9336957 C18.9391367,19.3446778 19.2910595,17.5978813 19.8716871,16.4348806 C21.4067548,13.358695 23.9872501,13.2561527 24.0954065,13.2525196 C24.187265,13.2452535 24.2841533,13.2639257 24.3750845,13.2935253 C25.7806119,13.7601901 28.3387115,15.5767187 27.9627072,19.1072899 C27.5207243,23.2330347 23.854422,25.980161 20.5719358,27.1760001 C19.2119302,27.6727151 18.0646969,27.9243254 17.1616514,27.9243254 L17.1616233,27.9243536 Z M24.008606,14.9114467 C23.5879791,14.9797989 22.2529543,15.3380071 21.3385564,17.1700255 C20.865186,18.1184224 20.5578578,19.7144329 20.3987282,22.0468274 C20.2764376,23.827814 19.6802989,25.0892734 18.999158,25.9652063 C19.3010911,25.8791113 19.6380366,25.7705984 20.011793,25.6339222 C22.8300413,24.6066964 25.9707356,22.307112 26.3321842,18.9341986 C26.6227087,16.2066176 24.5910601,15.1557346 24.0086622,14.9114749 L24.008606,14.9114467 Z M23.1655256,20.6189796 C23.0959222,20.6189796 23.0254478,20.6098547 22.955451,20.5916331 C22.5175426,20.4758541 22.2561296,20.026059 22.37162,19.5871914 C22.3788698,19.5607461 23.0627644,16.9507747 23.2751151,15.0102997 C23.6056539,12.0088875 23.3856319,10.5491589 23.3833558,10.5345704 C23.3128532,10.0875354 23.6161632,9.6659599 24.0622487,9.59343958 C24.5174103,9.5218768 24.9289048,9.8226883 25.0020769,10.2697515 C25.0134573,10.3363012 25.2644454,11.9281717 24.9061158,15.1893897 C24.6805863,17.2529099 23.9876154,19.895269 23.9580262,20.0059787 C23.8602668,20.3760435 23.5278734,20.6189514 23.1654413,20.6189514 L23.1655256,20.6189796 Z M6.06048896,26.017083 C4.52036323,26.017083 3.12312534,25.3571903 2.01950297,24.1089394 C-0.723297157,21.0031261 -0.281342415,16.4362887 1.0469384,13.1992066 C2.29825368,10.1544794 3.42413113,9.56429063 3.73969266,9.45586218 C4.04477294,9.34827862 4.38579296,9.43530302 4.60634883,9.67460602 C4.8269047,9.91297963 4.88686982,10.2588805 4.75870632,10.5573544 C4.72189549,10.6485188 3.81651771,12.962213 6.13371722,15.3912356 C7.92300449,17.2665972 8.9733495,18.7048654 9.44081892,19.9180249 C10.6757801,23.1263805 9.01297031,25.1069599 8.94156855,25.1903794 C8.87927114,25.2628153 8.80559328,25.3225495 8.72286726,25.3695258 C8.67557519,25.3950698 7.55065312,26.017083 6.06060136,26.017083 L6.06048896,26.017083 Z M3.0021273,12.8492503 C2.86249905,13.1313614 2.71612683,13.4539994 2.56421894,13.8240643 C1.42384195,16.6035783 1.0045919,20.4786422 3.24718626,23.0188533 C4.04156956,23.9180208 4.98831035,24.3733077 6.06046086,24.3733077 C6.84939279,24.3733077 7.50367014,24.1249361 7.78065055,24.0009897 C8.01666135,23.6368673 8.64233304,22.4100205 7.91111824,20.5091712 C7.52957822,19.5188392 6.56063853,18.2163741 4.94919533,16.5265801 C3.71783097,15.2354929 3.18904763,13.9448564 3.0021554,12.8492784 L3.0021273,12.8492503 Z M10.9749032,28 C10.8225457,28 10.6684179,27.9571637 10.5307004,27.8678299 C10.4747536,27.8308798 9.13020297,26.9449489 6.96763704,24.4844961 C5.59807751,22.9263652 4.11755161,20.6326669 4.0548046,20.5355883 C3.80971754,20.1541736 3.91882933,19.6455174 4.29893626,19.3999059 C4.67957709,19.1533367 5.18700453,19.2636803 5.43206349,19.644588 C5.44659112,19.6669215 6.90983561,21.9328226 8.19709061,23.3970855 C10.18732,25.6620573 11.4122495,26.482396 11.4245854,26.4905915 C11.8019947,26.7394136 11.9074816,27.2484923 11.6605962,27.6271751 C11.5046138,27.8678018 11.2422734,27.9999718 10.9749032,27.9999718 L10.9749032,28 Z M12.7673938,8.93185704 L12.7673938,8.93185704 C9.33395512,8.9286746 8.091688,6.6586616 8.04029334,6.56163926 C7.99524925,6.47779731 7.96568819,6.38666109 7.95250935,6.29276487 C7.74243473,4.82346078 8.2221557,1.71860503 11.5424362,0.480802733 C12.3995665,0.16179778 13.3071361,0 14.2401923,0 C17.9587604,0 20.938892,2.45228545 22.0474599,3.50685775 C24.4306098,5.77413891 24.5728795,7.04016077 24.5597287,7.37372612 C24.546578,7.69819474 24.3451019,7.98529075 24.0440961,8.1052098 C23.7439614,8.2227913 23.3997661,8.1571428 23.1674083,7.92930224 C23.1314967,7.89466146 22.151598,6.98591838 20.42961,6.98591838 C19.7057292,6.98591838 18.9463584,7.14951861 18.1719822,7.47173417 C15.7816106,8.4675298 14.0645962,8.93188521 12.7673657,8.93188521 L12.7673938,8.93185704 Z M9.56305335,5.90301387 C9.81494058,6.25302654 10.7298161,7.28619478 12.768293,7.28799723 C13.8268151,7.28799723 15.3891959,6.85141078 17.542236,5.95410198 C18.5162056,5.54807263 19.4879271,5.34205857 20.42961,5.34205857 C20.8797699,5.34205857 21.2949454,5.38903485 21.6727482,5.46555435 C21.4594983,5.23132073 21.2103648,4.97562673 20.9184072,4.69810622 C18.9076929,2.78494957 16.4108791,1.64338104 14.2406419,1.64338104 C13.5035823,1.64338104 12.7883282,1.77096049 12.1144372,2.02164143 C9.57673799,2.96772896 9.52582103,5.2682709 9.56308145,5.90307019 L9.56305335,5.90301387 Z M5.45710047,8.56767826 C5.20111066,8.56767826 4.95057223,8.44877309 4.79048727,8.22586109 C4.5263204,7.85765497 4.60859682,7.34629513 4.97420422,7.08105379 C5.02832457,7.04145628 6.33876196,6.10488793 9.40895367,4.97058551 C11.3541952,4.25236672 14.0205637,3.69495999 14.132907,3.67133103 C14.5717145,3.57839236 15.0095948,3.86455898 15.1028021,4.30894665 C15.1937613,4.75372861 14.9100089,5.18851262 14.4666772,5.28055007 C14.4402914,5.28649251 11.8057039,5.83792863 9.97645863,6.51331115 C7.15132588,7.55692795 5.94640349,8.40599314 5.93457345,8.41416047 C5.78946572,8.51853342 5.6226368,8.56776275 5.45712857,8.56776275 L5.45710047,8.56767826 Z" id="Shape"></path>
            </g>
        </g>
    </g>
</svg>