<?xml version="1.0" encoding="UTF-8" standalone="no"?>
<svg width="23px" height="17px" viewBox="0 0 23 17" version="1.1" xmlns="http://www.w3.org/2000/svg" xmlns:xlink="http://www.w3.org/1999/xlink">
    <!-- Generator: Sketch 46 (44423) - http://www.bohemiancoding.com/sketch -->
    <title>co2 </title>
    <desc>Created with Sketch.</desc>
    <defs></defs>
    <g id="Page-1" stroke="none" stroke-width="1" fill="none" fill-rule="evenodd">
        <g id="环境监测" transform="translate(-1494.000000, -59.000000)" fill-rule="nonzero">
            <g id="菜单栏" transform="translate(240.000000, 0.000000)">
                <g id="时间" transform="translate(1230.000000, 0.000000)">
                    <g id="Group-51" transform="translate(24.000000, 20.000000)">
                        <g id="Group-49" transform="translate(0.000000, 33.000000)">
                            <g id="co2-" transform="translate(0.000000, 6.000000)">
                                <path d="M18.0381496,5.12680505 C20.2899372,4.99714355 20.5971559,4.83188552 21.9273377,6 C24.0385443,5.07964488 22.7718304,1.77566841 20.3922008,2.47183268 C20.5072284,0.9274816 17.3280698,-1.79376117 15,1.7069831 C15.0749731,1.73055159 18.0130243,2.66878626 18.0381496,5.12680505 Z" id="Shape" fill="#4DA1FF"></path>
                                <path d="M15,2 L15,2.264013 C15.044514,2.1882885 15.0982375,2.125355 15.134565,2.0491185 C15.116145,2.0450255 15,2 15,2 Z" id="Shape" fill="#000000"></path>
                                <path d="M13.0413231,10 C12.4207566,10 11.9242273,10.1855488 11.5516811,10.5446445 C11.1929228,10.9041738 11,11.4026822 11,12.0290576 L11.013788,12.0290576 C11.013788,12.6434541 11.19295,13.118803 11.5654691,13.4671291 C11.9380153,13.8146566 12.4207566,14 13.0413232,14 C13.6756777,14 14.1722341,13.8266584 14.5034165,13.4903113 C14.8341645,13.1419396 15,12.655433 15,12.0058754 C15,11.3563634 14.8341645,10.8698112 14.5034165,10.5214851 C14.1722341,10.1737523 13.6756777,10 13.0413231,10 Z" id="Shape" fill="#4DA1FF"></path>
                                <path d="M19.5066625,7.31579965 L16.9501428,7.2306045 C16.0124059,0.640229838 6.35281624,-0.4926691 4.29772209,8.32677892 L3.29580618,8.37568104 C-1.97074228,10.7997156 0.0971674524,16.1967349 2.47358652,16.9882539 L2.47358652,17 C8.1897674,17 13.9059483,17 19.6221545,17 C23.693896,15.9894043 24.58032,9.38668424 19.5066625,7.31579965 Z M8.70357888,10.3979032 C8.29244378,10.1053775 7.83002104,9.95934235 7.31623485,9.95934235 C6.72542877,9.95934235 6.2373496,10.1540638 5.86473707,10.5437226 C5.49209928,10.9340286 5.29961271,11.4577846 5.29961271,12.1032445 C5.29961271,12.7487284 5.47971341,13.2481293 5.82621448,13.6140801 C6.18598613,13.9791919 6.64845941,14.1621433 7.25208107,14.1621433 C7.75300111,14.1621433 8.24113084,14.0035231 8.69073798,13.6870976 L8.69073798,14.5885506 L8.69073798,14.6129057 C8.24113084,14.8689227 7.70168821,14.9906026 7.05956924,14.9906026 C6.21171839,14.9906026 5.53105156,14.7345857 5.01686094,14.2108776 C4.50350446,13.6988677 4.24640916,13.0290765 4.24640916,12.2006412 C4.24640916,11.2874182 4.52918618,10.5563317 5.0814697,9.99587511 C5.63375318,9.43539458 6.39136411,9.15526219 7.3162601,9.15526219 C7.85570274,9.15526219 8.31815072,9.24045734 8.70360412,9.42321701 L8.70360415,10.3979032 L8.70357888,10.3979032 Z M15.3703122,14.1864985 C14.8308443,14.7220006 14.1241419,15.0023487 13.2253573,15.0023487 C12.3517742,15.0023487 11.6450717,14.7463318 11.1184447,14.2226237 C10.5918177,13.6988437 10.3351773,13.0046974 10.3351773,12.1519549 L10.3351773,12.1402088 C10.3351773,11.2143528 10.6046838,10.4950602 11.1441012,9.95934237 C11.6835438,9.42319304 12.415928,9.1674158 13.3536648,9.1674158 C14.2400383,9.1674158 14.9206546,9.42319302 15.4216251,9.93501117 C15.9225452,10.4465896 16.1796658,11.1531052 16.1796658,12.0545821 C16.179691,12.9316799 15.9097296,13.6501813 15.3703122,14.1864985 Z M19.6606518,14.4911778 L19.6606518,14.8563136 L17.5927168,14.8563136 L17.5927168,14.5029239 L18.5817665,13.5653937 C18.851273,13.3093768 19.0441893,13.1020941 19.1340753,12.943426 C19.2239108,12.7973908 19.2752237,12.6395856 19.2752237,12.4684043 C19.2752237,12.2862439 19.2239108,12.1402327 19.1083683,12.041997 C19.0056919,11.9446243 18.8384321,11.8959619 18.6330794,11.8959619 C18.324646,11.8959619 18.0422986,12.0176418 17.7595216,12.2619127 L17.7595216,11.8472755 C18.029483,11.652554 18.3374615,11.5551813 18.6972585,11.5551813 C19.0056919,11.5551813 19.249542,11.6281988 19.4292129,11.7868191 C19.6093136,11.9446243 19.6991491,12.1519548 19.6991491,12.4196939 C19.6991491,12.6269766 19.6478109,12.821722 19.532319,13.0173305 C19.4168018,13.212028 19.1982038,13.4554359 18.8769294,13.7601152 L18.0936368,14.4785927 L18.0936368,14.4911778 L19.6606518,14.4911778 Z" id="Shape" fill="#4DA1FF"></path>
                            </g>
                        </g>
                    </g>
                </g>
            </g>
        </g>
    </g>
</svg>