<?xml version="1.0" encoding="UTF-8" standalone="no"?>
<svg width="30px" height="30px" viewBox="0 0 30 30" version="1.1" xmlns="http://www.w3.org/2000/svg" xmlns:xlink="http://www.w3.org/1999/xlink">
    <!-- Generator: Sketch 46 (44423) - http://www.bohemiancoding.com/sketch -->
    <title>huanjingjiance</title>
    <desc>Created with Sketch.</desc>
    <defs></defs>
    <g id="Page-1" stroke="none" stroke-width="1" fill="none" fill-rule="evenodd">
        <g id="huanjingjiance" fill-rule="nonzero" fill="#FFFFFF">
            <g id="环境监测">
                <path d="M13.1075978,23.3830184 C12.8980128,23.1583277 12.7003192,22.9207848 12.5071904,22.6787055 C12.1054084,22.340527 11.7200226,21.985835 11.3631061,21.5922819 C11.4903467,21.6073874 11.6229927,21.6041741 11.7520664,21.6146848 C11.4628695,21.1501681 11.2065552,20.661898 10.9887135,20.1534754 C10.709577,20.1086392 10.4286081,20.0756654 10.1567388,20.0116097 C9.14815477,18.4510582 8.45708319,16.6260093 8.18800771,14.64583 C8.83970754,14.895236 9.52338959,15.0878846 10.2245183,15.2334421 C10.2702554,14.810099 10.3416687,14.3813179 10.4469267,13.9474627 C9.61489339,13.7698905 8.81955535,13.5099744 8.07175922,13.175429 C8.06809547,13.0491193 8.05986702,12.9237108 8.05986702,12.7960505 C8.05986702,11.3018668 8.30335703,9.86717519 8.74727318,8.53453431 C9.82817377,9.27635541 11.1196469,9.72303516 12.5108612,9.80630981 C12.9373884,9.26905979 13.3913638,8.7505448 13.8920095,8.27368768 C13.5853935,8.32356883 13.2714525,8.35792403 12.9511139,8.35792403 C11.5827902,8.35792403 10.3252186,7.8961688 9.315625,7.12182551 C10.1924651,5.23820321 11.4921994,3.62913839 13.0810912,2.4539434 C14.4192053,3.44288854 15.533978,4.75400351 16.3851954,6.26601239 C16.7970668,5.977266 17.2126037,5.70449546 17.6263386,5.43998341 C16.9187829,4.2043339 16.0511019,3.08817892 15.0360909,2.15140369 C16.4034843,2.39810689 17.6849003,2.89460704 18.8317257,3.59069107 C18.7246657,4.09685983 18.5343011,4.56729292 18.3072973,5.01622356 C19.0275866,4.57732367 19.7369736,4.16271711 20.3895157,3.78700101 C20.7418981,3.58612499 21.1345796,3.35774157 21.5125789,3.13214932 C19.2353394,1.19170693 16.3010057,0.00416865324 13.0847073,0.00416865324 C10.3169756,0.00416865324 7.75420243,0.876445354 5.63990795,2.34726299 L5.46419774,2.34726299 C5.46419774,2.39212906 5.46693055,2.43468259 5.46969338,2.47951872 C4.30274765,3.3206543 3.27484455,4.35078775 2.44376791,5.52598274 C2.30835886,5.71271446 2.18021756,5.90764451 2.05754269,6.10443575 C1.72621372,6.62661029 1.43148908,7.16890796 1.17887131,7.73408739 C0.674563143,8.85483808 0.328578344,10.0570615 0.159264574,11.3192171 C0.0823857804,11.8898932 0.0283602666,12.4697285 0.0283602666,13.0605248 C0.0283602666,19.5859457 4.84547115,24.992048 11.1077388,25.9494013 C11.5287955,25.470754 12.1694668,24.6868113 13.1075978,23.3830184 Z M11.1223708,2.15275494 C9.94990804,3.23737965 8.95687781,4.54804267 8.20268407,6.02251986 C7.68648455,5.35436524 7.30476115,4.57821711 7.10616802,3.73203857 C8.30885807,2.96004009 9.66526991,2.41636311 11.1223708,2.15275494 Z M5.83761774,4.67982474 C6.19000015,5.75618831 6.78034451,6.72089881 7.54276711,7.51584654 C6.97527516,9.02693687 6.64490582,10.6657623 6.60004034,12.3832579 C5.06144026,11.4002291 3.8020374,10.0790218 2.97006861,8.53221632 C3.63545876,7.04538703 4.61664166,5.73560735 5.83761774,4.67982474 Z M1.99165313,13.058265 C1.99165313,12.038629 2.13991522,11.0547285 2.39986207,10.1101676 C3.45790733,11.6716201 4.91320047,12.9767894 6.6339389,13.9190671 C6.7785074,15.8695386 7.29014348,17.6996176 8.09469937,19.3388745 C5.2298795,18.1224765 2.9965923,15.8763853 1.9934873,13.1232096 C1.99531855,13.1031071 1.99165313,13.0829458 1.99165313,13.058265 Z M2.75129658,17.0717415 C4.36221025,18.9782485 6.59183203,20.4275549 9.15824422,21.1570591 C9.85291667,22.1643226 10.666573,23.0662983 11.5800498,23.8355998 C11.6752175,23.8735887 11.7740789,23.9033192 11.8738412,23.9349116 C11.7969624,23.9774652 11.7227861,24.0117904 11.6459373,24.0543742 C7.57483443,23.5234725 4.19745112,20.779952 2.75129658,17.0717415 Z" id="Shape"></path>
                <path d="M24.6721386,2.20951177 C24.8789908,4.2688748 14.7267521,6.99686494 12.1859597,12.8976379 C10.2245565,17.4442588 12.7808704,21.3003188 15.4076873,23.1582978 C10.3663664,30.5468098 10.162259,28.988609 9.79618625,29.4283717 L12.6399263,29.9958343 C12.6399263,29.9958343 17.4560981,21.8036585 17.9448113,20.9465248 C17.9265526,20.9291369 16.6213531,19.7658331 15.5266682,18.4084411 C15.2539584,18.0656991 14.9921504,17.7160196 14.769801,17.3673319 C14.5501556,17.0209275 14.3606324,16.6826902 14.2453433,16.3728901 C14.1821583,16.2191322 14.1263611,16.0799996 14.1052795,15.9463922 C14.0805341,15.8150374 14.0393318,15.7052147 14.0457585,15.6058718 C14.0457585,15.4177886 14.0439266,15.3088962 14.0439266,15.3088962 C14.0439266,15.3088962 14.0585817,15.4155057 14.0842281,15.6022072 C14.0842281,15.6969545 14.1409564,15.8008611 14.1793958,15.9262406 C14.2142015,16.0502678 14.2855848,16.1793103 14.3624337,16.3184438 C14.509825,16.6021448 14.7295013,16.9060559 14.9830493,17.2145031 C15.2338068,17.5243003 15.5303301,17.8341298 15.8323504,18.1343775 C16.4447401,18.7315714 17.1045749,19.2761787 17.6098456,19.6710847 C17.9558011,19.9406714 18.2138861,20.1287549 18.3512471,20.2266853 C18.8408994,19.3498452 19.3424431,18.4263377 19.8458503,17.453369 L19.8339881,17.4698559 C19.8339881,17.4698559 18.8244122,16.5706124 17.9805168,15.5267416 C17.7727334,15.2608488 17.5695463,14.9945041 17.4011629,14.7277118 C17.230888,14.4604376 17.0863209,14.2028021 16.9984183,13.9661901 C16.9508494,13.8481389 16.9096473,13.7414994 16.8922293,13.6390049 C16.8721387,13.5396629 16.8410267,13.4554867 16.8465225,13.3799889 C16.8456215,13.2344294 16.8446906,13.1507037 16.8446906,13.1507037 C16.8446906,13.1507037 16.8556518,13.2335287 16.8740007,13.3786076 C16.8740007,13.4508918 16.9188066,13.5300832 16.9472158,13.6248002 C16.9728621,13.7204483 17.0277585,13.8174479 17.0863487,13.9272694 C17.1989341,14.1437316 17.3682479,14.3752991 17.5604443,14.6114328 C17.7544734,14.8480456 17.9805445,15.0855606 18.2112109,15.3161947 C18.6807723,15.7724532 19.1859815,16.1884391 19.5722067,16.4914219 C19.823024,16.6872829 20.0133604,16.8268653 20.1222813,16.9037453 C20.6567991,15.8530279 21.1903866,14.7533278 21.7111819,13.6114972 L21.6571564,13.68243 C21.6571564,13.68243 20.8480957,12.9639426 20.1735141,12.1269232 C20.0060322,11.9177887 19.8458477,11.700845 19.7113099,11.4889783 C19.575841,11.2775312 19.4586907,11.068878 19.3891401,10.8812459 C19.3515714,10.7869791 19.3176969,10.7013913 19.3049337,10.6185663 C19.2884468,10.538474 19.2628004,10.4712051 19.2682962,10.4103327 C19.2682962,10.294564 19.2664343,10.2277154 19.2664343,10.2277154 C19.2664343,10.2277154 19.2746627,10.2959155 19.2902487,10.4094018 C19.2902487,10.4657096 19.3249942,10.5315672 19.3488089,10.6052628 C19.3716924,10.6816911 19.4147266,10.760402 19.4613644,10.8459898 C19.5501354,11.0217 19.6874364,11.2061491 19.8411656,11.3946821 C19.9949534,11.5823447 20.1743581,11.7731598 20.3610892,11.9589606 C20.736324,12.324194 21.1399695,12.6563975 21.4483845,12.8976052 C21.651603,13.0559277 21.8035284,13.167162 21.8895675,13.2284559 C21.8913994,13.2202574 21.8950632,13.2142813 21.8987269,13.2074343 C21.8987269,13.2074343 22.2575363,12.4129678 22.4204231,12.032207 C24.087134,8.16972012 23.4629145,9.80169897 22.1412867,13.1410664 C22.2648636,13.1341893 22.4185913,13.123198 22.6116904,13.1058402 C23.042784,13.0687522 23.6194645,13.001483 24.1841333,12.8870655 C24.4651318,12.8266435 24.7470324,12.7603052 25.003345,12.6765493 C25.259568,12.592313 25.4957295,12.5026407 25.6860644,12.3964517 C25.7794303,12.3442883 25.8672704,12.2971399 25.9332181,12.2381292 C26.0000066,12.1813709 26.0705192,12.1429615 26.1061956,12.0907681 C26.1894411,11.9937685 26.2352381,11.9383916 26.2352381,11.9383916 C26.2352381,11.9383916 26.1958678,11.9983331 26.1235836,12.1063539 C26.0942735,12.165845 26.0292868,12.2129634 25.9661321,12.2779802 C25.9057401,12.3466005 25.8215636,12.4056411 25.7300299,12.469727 C25.5505958,12.6019528 25.320019,12.725079 25.067369,12.8408474 C24.8147497,12.9588987 24.5365136,13.060523 24.2546458,13.1575235 C23.1269898,13.5277723 21.9481588,13.7107822 21.9481588,13.7107822 L21.9417322,13.6444442 C21.583856,14.5491522 21.1839053,15.5536834 20.7674381,16.5952709 C20.9028472,16.5879434 21.0539022,16.5765017 21.2369409,16.5609158 C21.7925415,16.5101337 22.5357449,16.4250263 23.2642924,16.278596 C23.6285955,16.2003356 23.9928399,16.112916 24.3241689,16.0053756 C24.6545969,15.8978352 24.9593817,15.7820064 25.201009,15.643834 C25.3236851,15.5783668 25.4371714,15.5170439 25.5222779,15.4415464 C25.6092473,15.3683313 25.6998203,15.3184501 25.7446863,15.251181 C25.8508454,15.1248413 25.9130692,15.0548696 25.9130692,15.0548696 C25.9130692,15.0548696 25.8618366,15.1317484 25.7693418,15.2713317 C25.7291005,15.3482105 25.6476568,15.4072212 25.5661532,15.4932594 C25.4865414,15.5811295 25.3803527,15.6566272 25.2623017,15.7404131 C25.032566,15.9120394 24.7323473,16.0680796 24.407413,16.219075 C24.0806475,16.3696497 23.723731,16.5004938 23.3603582,16.6259017 C22.1156111,17.035041 20.8296318,17.264328 20.4827137,17.3224377 C20.0992207,18.285766 19.5454807,19.264651 19.1693449,20.2147057 C19.321271,20.2055463 19.6562651,20.1923027 19.8585236,20.1749149 C20.4964686,20.1181266 21.3476625,20.0188447 22.1851603,19.8495022 C22.6015981,19.7607611 23.0189662,19.6614191 23.3979251,19.5387747 C23.7768253,19.4156482 24.1274029,19.2811404 24.4046779,19.1227889 C24.5456426,19.046811 24.675616,18.975848 24.7726464,18.8898097 C24.8715078,18.8106486 24.9749341,18.7511875 25.0279985,18.6719662 C25.1515452,18.5291996 25.2211565,18.4463746 25.2211565,18.4463746 C25.2211565,18.4463746 25.1607044,18.5351456 25.0554466,18.6943993 C25.0106407,18.780888 24.9144819,18.8504694 24.8220771,18.9474989 C24.7323749,19.049093 24.6097291,19.135582 24.4743198,19.2312302 C24.2088472,19.4275416 23.8665258,19.6097079 23.4931222,19.7799226 C23.1178258,19.9547621 22.7059543,20.1039266 22.2913184,20.2458509 C20.8790889,20.7112393 19.2113949,20.8897122 18.7940532,20.9620258 C18.3611899,22.0589909 17.5914101,23.1761084 17.2491171,24.0615824 C20.6365371,25.2789107 26.4659385,25.5297001 28.8180893,20.0682672 C31.3589673,14.1648471 24.4671215,0.150148442 24.6721386,2.20951177 Z" id="Shape"></path>
            </g>
        </g>
    </g>
</svg>