<?xml version="1.0" encoding="UTF-8" standalone="no"?>
<svg width="14px" height="13px" viewBox="0 0 14 13" version="1.1" xmlns="http://www.w3.org/2000/svg" xmlns:xlink="http://www.w3.org/1999/xlink">
    <!-- Generator: Sketch 46 (44423) - http://www.bohemiancoding.com/sketch -->
    <title>室内</title>
    <desc>Created with Sketch.</desc>
    <defs></defs>
    <g id="Page-1" stroke="none" stroke-width="1" fill="none" fill-rule="evenodd">
        <g id="环境监测" transform="translate(-485.000000, -333.000000)" fill-rule="nonzero" fill="#4DA1FF">
            <g id="内容区域" transform="translate(240.000000, 100.000000)">
                <g id="筛选项目" transform="translate(30.000000, 60.000000)">
                    <g id="Group-10" transform="translate(128.000000, 60.000000)">
                        <g id="Group-9" transform="translate(87.000000, 89.000000)">
                            <g id="Group-6" transform="translate(0.000000, 20.000000)">
                                <g id="室内" transform="translate(0.000000, 4.000000)">
                                    <path d="M13.6704618,4.37606333 L7.46450823,0.13703678 C7.16719683,-0.0456789266 6.8327635,-0.0456789266 6.57265402,0.13703678 L0.329530523,4.37606333 C-0.00491880408,4.59532847 -0.116412588,5.07037674 0.143728889,5.43582389 C0.366684449,5.76470588 0.886951406,5.87433846 1.22141673,5.61852388 L6.57267001,2.00074333 C6.79562557,1.81802762 7.20439875,1.81802762 7.4273863,2.00074333 L12.7786076,5.61852388 C12.9272393,5.72817218 13.075887,5.76470588 13.2245507,5.76470588 C13.4846762,5.76470588 13.7076477,5.65508904 13.8562954,5.43582389 C14.1164049,5.07039247 14.0049111,4.59532847 13.6704618,4.37606333 L13.6704618,4.37606333 Z" id="Shape"></path>
                                    <path d="M11.627008,5.37936041 L7.41382089,2.58245884 C7.18809304,2.43329803 6.77429642,2.43329803 6.54860096,2.58245884 L2.33534904,5.37936041 C2.10966978,5.52852122 1.92156863,5.9014393 1.92156863,6.19979301 L1.92156863,11.8308462 C1.92156863,12.1291679 2.14728029,12.3529412 2.44821298,12.3529412 L4.47960173,12.3529412 C4.7429239,12.3529412 5.00626227,12.1291679 5.00626227,11.8308462 L5.00626225,7.95247263 C5.00626225,7.65415101 5.23197392,7.43040981 5.5329066,7.43040981 L8.42949908,7.43040981 C8.73043176,7.43040981 8.95614343,7.65415102 8.95614343,7.95247263 L8.95614343,11.8308462 C8.95614343,12.1291679 9.21949799,12.3529412 9.52041448,12.3529412 L11.5141927,12.3529412 C11.8151254,12.3529412 12.0408371,12.1291679 12.0408371,11.8308462 L12.0784314,6.19979301 C12.0784314,5.9014393 11.8527197,5.52852122 11.627008,5.37936041 L11.627008,5.37936041 Z" id="Shape"></path>
                                    <path d="M12.0784314,0.922529644 C12.0784314,0.562520343 11.7544505,0.274509804 11.3944133,0.274509804 L10.5663555,0.274509804 C10.2063338,0.274509804 9.88235294,0.562520343 9.88235294,0.922529644 L9.88235294,0.958536778 L12.0784314,2.47058824 L12.0784314,0.922529644 Z" id="Shape"></path>
                                </g>
                            </g>
                        </g>
                    </g>
                </g>
            </g>
        </g>
    </g>
</svg>