<?xml version="1.0" encoding="UTF-8" standalone="no"?>
<svg width="14px" height="14px" viewBox="0 0 14 14" version="1.1" xmlns="http://www.w3.org/2000/svg" xmlns:xlink="http://www.w3.org/1999/xlink">
    <!-- Generator: Sketch 46 (44423) - http://www.bohemiancoding.com/sketch -->
    <title>室外</title>
    <desc>Created with Sketch.</desc>
    <defs></defs>
    <g id="Page-1" stroke="none" stroke-width="1" fill="none" fill-rule="evenodd">
        <g id="环境监测" transform="translate(-485.000000, -243.000000)" fill-rule="nonzero" fill="#00BFA5">
            <g id="内容区域" transform="translate(240.000000, 100.000000)">
                <g id="筛选项目" transform="translate(30.000000, 60.000000)">
                    <g id="Group-10" transform="translate(128.000000, 60.000000)">
                        <g id="Group-8" transform="translate(87.000000, 0.000000)">
                            <g id="Group-4" transform="translate(0.000000, 20.000000)">
                                <g id="室外" transform="translate(0.000000, 3.000000)">
                                    <path d="M12.411095,0.00207993967 L1.58908446,0.00207993967 C0.712638009,0.00207993967 0.0020693816,0.710758673 0.0020693816,1.584819 L0.0020693816,12.4153605 C0.0020693816,13.2894208 0.712627451,13.9980995 1.58908446,13.9980995 L12.411095,13.9980995 C13.2875415,13.9980995 13.9981101,13.2894208 13.9981101,12.4153605 L13.9981101,1.58479789 C13.9979306,0.710737557 13.287552,0.00205882353 12.411095,0.00205882353 L12.411095,0.00207993967 Z M12.834273,12.415181 C12.834273,12.6478703 12.6444495,12.8371765 12.4110845,12.8371765 L1.58907391,12.8371765 C1.3557089,12.8371765 1.16587481,12.6478703 1.16587481,12.415181 L1.16587481,1.5846184 C1.16587481,1.35192911 1.35569834,1.16262293 1.58907391,1.16262293 L12.4111056,1.16262293 C12.6444706,1.16262293 12.8342941,1.35192911 12.8342941,1.43886425 L12.8342941,12.4151704 L12.834273,12.415181 Z" id="Shape"></path>
                                    <path d="M10.373905,10.373905 L10.373905,8.12451885 L11.4986139,8.12451885 L10.7487798,6.25015535 L11.1237919,6.25015535 L9.99908296,3.25109351 L9.24924887,5.87531222 L9.62408145,5.87531222 L8.72132428,7.68014027 L8.12453997,5.87531222 L8.49937255,6.25032428 L7.00001056,1.75156259 L5.87530166,5.50030015 L6.25013424,5.50030015 L5.50045852,7.74968627 L4.75316893,6.18130618 L5.12562594,6.25016591 L4.00091704,3.25110407 L3.25106184,5.87532278 L3.62573605,5.87532278 L2.50103771,8.1247089 L3.62573605,8.1247089 L3.62573605,9.99925189 C3.62573605,9.99925189 2.14722624,10.6498401 1.75137255,11.1239608 C2.37667421,10.838819 3.02761086,10.9035611 4.00075867,10.7491282 C3.70759276,10.9269894 3.43646154,10.9589276 3.25090347,11.1239608 C2.84035294,11.4885415 2.12619457,12.2486697 2.12619457,12.2486697 L6.62479789,12.2486697 C6.62479789,12.2486697 5.08238009,11.5384706 5.12526697,11.1239608 C5.15055354,10.8791297 5.63765008,10.5521463 5.87512217,10.3741267 C6.10678733,10.3619955 6.38526697,10.3782232 6.62497738,10.3741267 L6.62497738,11.1239608 L7.37465309,11.1239608 L7.37465309,10.3741267 C9.26200302,10.4371584 11.1982262,10.6447511 12.2482579,11.1239608 C11.9002534,10.7067481 10.3738944,10.3739472 10.3738944,10.3739472 L10.373905,10.373905 Z M6.62516742,9.6242187 C5.87974661,9.64112217 5.01221116,9.87980845 4.37595023,9.99905128 L4.37595023,8.1245083 L5.12562594,8.1245083 L4.75079336,8.49952036 L6.62515686,8.49952036 L6.62515686,9.62422926 L6.62516742,9.6242187 Z M9.6242187,9.99906184 C8.98729261,9.855546 8.14229864,9.65925038 7.37500151,9.62422926 L7.37500151,8.49952036 L9.24938612,8.49952036 L8.87455354,8.1245083 L9.62422926,8.1245083 L9.62422926,9.99905128 L9.6242187,9.99906184 Z" id="Shape"></path>
                                </g>
                            </g>
                        </g>
                    </g>
                </g>
            </g>
        </g>
    </g>
</svg>