<?xml version="1.0" encoding="UTF-8" standalone="no"?>
<svg width="19px" height="20px" viewBox="0 0 19 20" version="1.1" xmlns="http://www.w3.org/2000/svg" xmlns:xlink="http://www.w3.org/1999/xlink">
    <!-- Generator: Sketch 46 (44423) - http://www.bohemiancoding.com/sketch -->
    <title>ＰＭ２.５</title>
    <desc>Created with Sketch.</desc>
    <defs></defs>
    <g id="Page-1" stroke="none" stroke-width="1" fill="none" fill-rule="evenodd">
        <g id="环境监测" transform="translate(-1496.000000, -24.000000)" fill-rule="nonzero" fill="#00BFA5">
            <g id="菜单栏" transform="translate(240.000000, 0.000000)">
                <g id="时间" transform="translate(1230.000000, 0.000000)">
                    <g id="Group-51" transform="translate(24.000000, 20.000000)">
                        <g id="Group-50" transform="translate(2.000000, 0.000000)">
                            <g id="ＰＭ２.５" transform="translate(0.000000, 4.000000)">
                                <path d="M4.24475373,15 L4,15 L4,15.5 L4.24584928,15.5 C4.33961857,15.5 4.40542834,15.4745719 4.44327861,15.4239394 C4.48111344,15.3733229 4.5,15.3153431 4.5,15.25 C4.5,15.1734603 4.47890693,15.1127811 4.43672078,15.0676271 C4.39461178,15.0226489 4.33062276,15 4.2447383,15 L4.24475373,15 Z" id="Shape"></path>
                                <path d="M15.5295747,8.66056785 C15.4951788,7.5238412 15.0906394,6.471731 14.4220728,5.5998447 L16.3110334,3.75960821 C16.3111769,3.75946547 16.3113205,3.75917999 16.3116076,3.75903725 C16.3118947,3.75875176 16.3121818,3.75860902 16.3123541,3.758295 L16.3292649,3.74193696 L16.3280878,3.74076649 C16.5443398,3.50573031 16.4793378,3.07659587 16.1750576,2.76759167 C15.8706051,2.45873021 15.4406277,2.38550444 15.1997416,2.59584654 L15.1973873,2.59361979 L13.2738873,4.46745735 C12.3536678,3.77887815 11.2111671,3.32838976 9.9593058,3.2181657 L9.9593058,0.597853471 C9.9593058,0.597567991 9.9593058,0.59728251 9.9593058,0.596825741 C9.9593058,0.596368972 9.9593058,0.596083492 9.9593058,0.595798011 L9.9593058,0.572388602 L9.95769797,0.572388602 C9.9401842,0.254191926 9.58652089,0 9.15154775,0 C8.71657461,0 8.36302615,0.254191926 8.34554109,0.572388602 L8.34244029,0.572388602 L8.34244029,3.26841029 C7.26301784,3.4315339 6.27839943,3.84913492 5.46518628,4.45221269 L3.72248003,2.59590364 C3.72248003,2.5957609 3.72219292,2.59547542 3.72190581,2.59516139 C3.7216187,2.59484736 3.72133159,2.59473317 3.72101577,2.59441914 L3.70516724,2.57731885 L3.70413364,2.57834658 C3.47303801,2.35764153 3.03984496,2.41171156 2.72186955,2.70681285 C2.40389413,3.00205689 2.31982804,3.4278512 2.52534208,3.67225114 L2.52298777,3.6744208 L4.31154564,5.57968977 C3.6967836,6.37409663 3.30237924,7.31949419 3.20846524,8.3433989 L0.80956684,8.3433989 C0.809279729,8.3433989 0.808992618,8.3433989 0.808533241,8.3433989 C0.808073863,8.3433989 0.807786752,8.3433989 0.807499641,8.3433989 L0.78395654,8.3433989 L0.78395654,8.34499759 C0.463942638,8.36241191 0.208299019,8.71406691 0.208299019,9.14657002 C0.208299019,9.57907313 0.463942638,9.93061394 0.78395654,9.94799971 L0.78395654,9.9510829 L3.3100164,9.9510829 C3.39336471,10.3233496 3.51891835,10.6813423 3.67869561,11.0227771 C1.5821825,11.4298724 0,13.2652557 0,15.4688519 C0,17.9653798 2.03036274,19.9897798 4.53865043,19.9997145 L4.53865043,20 L13.2300741,19.9948899 C16.4351227,19.8855508 19,17.2694637 19,14.0560084 C18.9998564,11.6641378 17.5780541,9.60333898 15.5296034,8.66042511 L15.5295747,8.66056785 Z M9.35889931,4.31198462 C11.9805097,4.31198462 14.1405318,6.04639345 14.442027,8.2824488 C13.9866116,8.172082 13.5112132,8.11215962 13.021689,8.11215962 C10.4650805,8.11215962 8.28441516,9.70845294 7.43005901,11.9528443 C6.71653079,11.3756311 5.82350079,11.0093309 4.84740958,10.9482381 C4.4599246,10.3138716 4.23838976,9.58932188 4.23838976,8.81875265 C4.23838976,6.32984714 6.53102839,4.31201317 9.3588706,4.31201317 L9.35889931,4.31198462 Z M5.11485346,15.7500789 C5.05619669,15.9079496 4.97327903,16.0324763 4.86627277,16.1229451 C4.75926651,16.2134139 4.65547589,16.2733363 4.55507318,16.3030262 C4.45467046,16.3326877 4.29739107,16.3473043 4.08334983,16.3473043 L3.58854276,16.3473043 L3.58854276,17.5990796 L2.87352157,17.5990796 L2.87352157,14.2292095 L4.0568782,14.2292095 C4.32090546,14.2292095 4.52285932,14.2609264 4.66279722,14.3242175 C4.80273511,14.3875085 4.92782937,14.5006445 5.03779287,14.6636253 C5.14789993,14.8264635 5.20288169,15.0264141 5.20288169,15.2634772 C5.20288169,15.4301122 5.17330926,15.5919226 5.11482475,15.7500503 L5.11485346,15.7500789 Z M8.86704948,17.5992224 L8.15880411,17.5992224 L8.15880411,14.851443 L7.40367351,17.5992224 L6.92224581,17.5992224 L6.18149947,14.851443 L6.18149947,17.5992224 L5.59206063,17.5992224 L5.59206063,14.2293523 L6.68721676,14.2293523 L7.21420897,16.2462727 L7.76856286,14.2292952 L8.86725046,14.2292952 L8.86725046,17.5991653 L8.86704948,17.5992224 Z M11.5593753,17.5992224 L9.30716191,17.5992224 L9.30716191,16.9448437 C9.38049005,16.8822664 9.50136378,16.7843465 9.6700989,16.6510556 C10.0821319,16.3218965 10.3820193,16.050747 10.5695889,15.8377785 C10.7573021,15.6245245 10.8512448,15.4292558 10.8512448,15.2513728 C10.8512448,15.1211366 10.8137481,15.0139957 10.738927,14.9292365 C10.6641058,14.8444773 10.5638467,14.8020834 10.4375753,14.8020834 C10.1443201,14.8020834 9.97423557,15.0169361 9.92732163,15.4463846 L9.30698964,15.2908548 C9.44620976,14.5487765 9.83266114,14.177509 10.4660854,14.177509 C10.8209546,14.177509 11.0933655,14.2821662 11.2832607,14.4911951 C11.4731559,14.7003667 11.5681609,14.9495627 11.5681609,15.2392684 C11.5681609,15.5387661 11.4687918,15.8062329 11.2701971,16.0414404 C11.0714589,16.2769048 10.7059953,16.5721773 10.1738925,16.9278005 L11.6102514,16.9278005 L11.5593753,17.5992794 L11.5593753,17.5992224 Z M12.7250746,17.5992224 L12.0454829,17.5992224 L12.0454829,16.8363896 L12.7250746,16.8363896 L12.7250746,17.5992224 Z M15.1763133,17.3165395 C14.9716893,17.5394427 14.6854684,17.6508087 14.3173921,17.6508087 C13.6779385,17.6508087 13.2827877,17.3315843 13.131796,16.6929642 L13.7916919,16.5818837 C13.859163,16.8781555 14.026319,17.026377 14.2931025,17.026377 C14.4398162,17.026377 14.5563833,16.9752189 14.6428037,16.8730454 C14.7293964,16.7711573 14.7726066,16.6508843 14.7726066,16.5127117 C14.7726066,16.3680016 14.7271856,16.243475 14.6362002,16.1398455 C14.5453582,16.0362161 14.433184,15.9843157 14.2997061,15.9843157 C14.1134572,15.9843157 13.9698443,16.0717299 13.8685515,16.2461014 L13.2958225,16.1398455 L13.4134232,14.2291524 L15.3048816,14.2291524 L15.2279933,14.920358 L13.9170446,14.920358 L13.8686951,15.6709151 C14.0301089,15.4785583 14.2434036,15.3819516 14.5087229,15.3819516 C14.7799279,15.3819516 15.0101335,15.4822124 15.1993396,15.6820203 C15.3883735,15.8818282 15.4830627,16.1399597 15.4830627,16.4559582 C15.4830627,16.806614 15.3809086,17.093208 15.1762846,17.3164253 L15.1763133,17.3165395 Z" id="Shape"></path>
                            </g>
                        </g>
                    </g>
                </g>
            </g>
        </g>
    </g>
</svg>