<?xml version="1.0" encoding="UTF-8" standalone="no"?>
<svg width="60px" height="60px" viewBox="0 0 60 60" version="1.1" xmlns="http://www.w3.org/2000/svg" xmlns:xlink="http://www.w3.org/1999/xlink">
    <!-- Generator: Sketch 47.1 (45422) - http://www.bohemiancoding.com/sketch -->
    <title>diantiguzhang</title>
    <desc>Created with Sketch.</desc>
    <defs></defs>
    <g id="Page-1" stroke="none" stroke-width="1" fill="none" fill-rule="evenodd">
        <g id="Artboard" transform="translate(-747.000000, -658.000000)" fill-rule="nonzero" fill="#F37B7B">
            <g id="diantiguzhang" transform="translate(747.000000, 658.000000)">
                <path d="M36.6954549,20.4963366 C36.6954549,20.9532189 37.0658312,21.3235951 37.5227135,21.3235951 C37.9795958,21.3235951 38.3499721,20.9532189 38.3499721,20.4963366 C38.3499721,20.0394543 37.9795958,19.669078 37.5227135,19.669078 C37.0658312,19.669078 36.6954549,20.0394543 36.6954549,20.4963366 Z" id="Shape"></path>
                <path d="M36.6954549,23.4743683 C36.6954549,23.9312505 37.0658312,24.3016268 37.5227135,24.3016268 C37.9795958,24.3016268 38.3499721,23.9312505 38.3499721,23.4743683 C38.3499721,23.017486 37.9795958,22.6471097 37.5227135,22.6471097 C37.0658312,22.6471097 36.6954549,23.017486 36.6954549,23.4743683 Z" id="Shape"></path>
                <path d="M36.6954549,26.4523998 C36.6954549,26.9092821 37.0658312,27.2796584 37.5227135,27.2796584 C37.9795958,27.2796584 38.3499721,26.9092821 38.3499721,26.4523998 C38.3499721,25.9955175 37.9795958,25.6251412 37.5227135,25.6251412 C37.0658312,25.6251412 36.6954549,25.9955175 36.6954549,26.4523998 L36.6954549,26.4523998 Z" id="Shape"></path>
                <path d="M36.6954549,29.4304314 C36.6954549,29.8873137 37.0658312,30.25769 37.5227135,30.25769 C37.9795958,30.25769 38.3499721,29.8873137 38.3499721,29.4304314 C38.3499721,28.9735491 37.9795958,28.6031728 37.5227135,28.6031728 C37.0658312,28.6031728 36.6954549,28.9735491 36.6954549,29.4304314 Z" id="Shape"></path>
                <path d="M24.1215712,19.2720237 C24.1215712,20.2405758 24.9067378,21.0257424 25.8752899,21.0257424 C26.843842,21.0257424 27.6290086,20.2405758 27.6290086,19.2720237 C27.6290086,18.3034716 26.843842,17.518305 25.8752899,17.518305 C24.9067378,17.518305 24.1215712,18.3034716 24.1215712,19.2720237 Z" id="Shape"></path>
                <path d="M22.3677283,32.5408145 C22.7515149,32.5408145 23.0626354,32.229694 23.0626354,31.8459074 L23.0626354,25.4216478 L23.066236,25.4222685 L23.066236,24.9315998 C23.0661681,24.8251419 23.1229236,24.7267417 23.2151075,24.6734932 C23.3072914,24.6202446 23.4208863,24.6202446 23.5130701,24.6734932 C23.605254,24.7267417 23.6620096,24.8251419 23.6619417,24.9315998 L23.6619417,25.9738985 L23.6583411,25.9738985 L23.6583411,42.0704909 C23.6583411,42.5639211 24.0583453,42.9639253 24.5517754,42.9639253 C25.0452056,42.9639253 25.4452097,42.5639211 25.4452097,42.0704909 L25.4488103,42.0704909 L25.4488103,32.4188923 C25.4488103,32.1488634 25.667712,31.9299617 25.9377409,31.9299617 C26.2077698,31.9299617 26.4266715,32.1488634 26.4266715,32.4188923 L26.4266715,34.1303976 L26.4107793,34.1303976 L26.4107793,42.102151 L26.4063096,42.102151 C26.423195,42.5807764 26.8154072,42.9638011 27.29813,42.9638011 C27.5350835,42.9638011 27.762332,42.8696716 27.9298835,42.7021202 C28.0974349,42.5345687 28.1915643,42.3073202 28.1915642,42.0703667 L28.1915642,25.3871321 L28.1951648,25.3860147 L28.1951648,24.5621083 C28.1951648,24.5621083 28.4472037,24.5746482 28.8178126,25.0244692 C28.879022,25.0988393 28.9192489,25.1612903 28.9443287,25.2140571 L30.8819239,27.5653439 C31.1615257,27.9046652 31.5794384,28.0222419 31.8153368,27.8278119 L32.1105823,27.5845882 C32.1854498,27.5444483 32.252419,27.4910665 32.3082405,27.4270329 L34.4679528,24.9646256 C34.6729361,24.730962 34.694167,24.4144856 34.5155049,24.2577994 L34.154332,23.9410747 C33.97567,23.7843885 33.6646565,23.8468395 33.4597973,24.0803789 L31.8023003,25.9702979 L29.2661437,22.8925682 C29.2516061,22.875136 29.2365771,22.8581197 29.2210747,22.8415396 C28.9367405,22.3400175 28.4240459,22.0103055 27.8497598,21.9596519 L27.8497598,21.9520783 L23.4267881,21.9520783 C22.4582388,21.9520783 21.6730695,22.7372476 21.6730695,23.705797 L21.6730695,31.8457832 C21.6729706,32.0300827 21.7461141,32.2068676 21.8763986,32.3372219 C22.0066831,32.4675763 22.1834287,32.5408145 22.3677283,32.5408145 L22.3677283,32.5408145 Z" id="Shape"></path>
                <path d="M30.0114865,0.0529099109 C13.4722147,0.0529099109 0.0643964365,13.4606597 0.0643965033,30 C0.0643965033,46.5392719 13.4722147,59.9470901 30.0114865,59.9470901 C46.5508268,59.9470901 59.9585766,46.5392719 59.9585766,30 C59.9585766,13.4606597 46.5507584,0.0529099109 30.0114865,0.0529099109 Z M30.0114865,56.1863373 C15.5491616,56.1863373 3.82508091,44.4622566 3.82508091,29.9999316 C3.82508091,15.5376067 15.5491616,3.81352604 30.0114865,3.81352604 C44.4738115,3.81352604 56.1978921,15.5376067 56.1978922,29.9999316 C56.1978922,44.462325 44.4738116,56.1863373 30.0114865,56.1863373 Z" id="Shape"></path>
                <path d="M46.7936618,13.0716053 L13.2292429,13.0716053 L13.2292429,46.9283947 L46.7936618,46.9283947 L46.7936618,13.0716053 L46.7936618,13.0716053 Z M43.6544265,44.3973882 L16.3685467,44.3973882 L16.3685467,15.6026118 L43.6544265,15.6026118 L43.6544265,44.3973882 Z M32.6331957,49.8487738 L27.3927467,49.8487738 L27.3927467,51.0618158 L25.9002048,51.0618158 L30.0129796,55.4624786 L34.1257376,51.0618158 L32.6331957,51.0618158 L32.6331957,49.8487738 Z M32.6331957,10.2101365 L27.3927467,10.2101365 L27.3927467,8.99709448 L25.9002048,8.99709448 L30.0129796,4.59643169 L34.1257376,8.99709448 L32.6331957,8.99709448 L32.6331957,10.2101365 Z" id="Shape"></path>
            </g>
        </g>
    </g>
</svg>