<?xml version="1.0" encoding="UTF-8" standalone="no"?>
<svg width="36px" height="36px" viewBox="0 0 36 36" version="1.1" xmlns="http://www.w3.org/2000/svg" xmlns:xlink="http://www.w3.org/1999/xlink">
    <!-- Generator: Sketch 50.2 (55047) - http://www.bohemiancoding.com/sketch -->
    <title>人脸摄像机</title>
    <desc>Created with Sketch.</desc>
    <defs>
        <filter x="-22.6%" y="-16.7%" width="145.2%" height="146.7%" filterUnits="objectBoundingBox" id="filter-1">
            <feOffset dx="0" dy="2" in="SourceAlpha" result="shadowOffsetOuter1"></feOffset>
            <feGaussianBlur stdDeviation="2" in="shadowOffsetOuter1" result="shadowBlurOuter1"></feGaussianBlur>
            <feColorMatrix values="0 0 0 0 0.0229666196   0 0 0 0 0.438137755   0 0 0 0 0.284916478  0 0 0 0.635473279 0" type="matrix" in="shadowBlurOuter1" result="shadowMatrixOuter1"></feColorMatrix>
            <feMerge>
                <feMergeNode in="shadowMatrixOuter1"></feMergeNode>
                <feMergeNode in="SourceGraphic"></feMergeNode>
            </feMerge>
        </filter>
    </defs>
    <g id="Page-1" stroke="none" stroke-width="1" fill="none" fill-rule="evenodd">
        <g id="火炬小区平面图" transform="translate(-1222.000000, -99.000000)">
            <g id="人脸摄像机" transform="translate(1220.000000, 97.000000)">
                <g id="Group-16" transform="translate(2.000000, 2.000000)" fill="#1FE29F">
                    <circle id="Oval-2" opacity="0.248391544" cx="18" cy="18" r="18"></circle>
                    <circle id="Oval-2" opacity="0.491842831" cx="18" cy="18" r="13.9090909"></circle>
                    <circle id="Oval-2" opacity="0.527745864" cx="18" cy="18" r="9"></circle>
                </g>
                <g id="摄像头" filter="url(#filter-1)" transform="translate(19.558410, 19.846016) rotate(-111.000000) translate(-19.558410, -19.846016) translate(4.058410, 4.846016)" fill="#47FFBF" fill-rule="nonzero">
                    <path d="M5.86645949,6.54149065 L2.59237704,15.0279174 L17.1656846,20.8403462 L22.5593738,13.1992415 L5.86645949,6.54149065 M24.3891369,16.1829243 L22.7262658,20.4934555 L25.4809307,23.4573655 L28.3911685,15.9138415 L24.3891369,16.1829243 M22.3850965,14.8395859 L18.9815679,19.6993765 L21.8961849,20.8619302 L23.9749686,15.4737473 L22.3850965,14.8395859" id="Shape" transform="translate(15.491773, 14.999428) rotate(39.000000) translate(-15.491773, -14.999428) "></path>
                </g>
            </g>
        </g>
    </g>
</svg>