<?xml version="1.0" encoding="UTF-8" standalone="no"?>
<svg width="331px" height="26px" viewBox="0 0 331 26" version="1.1" xmlns="http://www.w3.org/2000/svg" xmlns:xlink="http://www.w3.org/1999/xlink">
    <!-- Generator: Sketch 47.1 (45422) - http://www.bohemiancoding.com/sketch -->
    <title>hengtiao</title>
    <desc>Created with Sketch.</desc>
    <defs></defs>
    <g id="Page-1" stroke="none" stroke-width="1" fill="none" fill-rule="evenodd">
        <g id="Artboard" transform="translate(-31.000000, -40.000000)">
            <g id="hengtiao" transform="translate(31.000000, 40.000000)">
                <polygon id="Fill-1" fill="#F4DBA8" points="0 2 331 2 331 0 0 0"></polygon>
                <polygon id="Fill-3" fill="#F4DBA8" points="0 2 101 2 101 0 0 0"></polygon>
                <polygon id="Fill-5" fill="#03EDFF" points="0 26 331 26 331 24 0 24"></polygon>
                <polygon id="Fill-7" fill="#03EDFF" points="0 26 231 26 231 24 0 24"></polygon>
                <polygon id="Fill-8" fill="#03EDFF" points="0 19 17 19 17 15 0 15"></polygon>
                <polygon id="Fill-9" fill="#F4DBA8" points="0 11 17 11 17 7 0 7"></polygon>
                <polygon id="Fill-10" fill="#03EDFF" points="20 19 37 19 37 15 20 15"></polygon>
                <polygon id="Fill-11" fill="#F4DBA8" points="20 11 37 11 37 7 20 7"></polygon>
                <polygon id="Fill-12" fill="#03EDFF" points="39 19 56 19 56 15 39 15"></polygon>
                <polygon id="Fill-13" fill="#F4DBA8" points="39 11 56 11 56 7 39 7"></polygon>
                <polygon id="Fill-14" fill="#03EDFF" points="59 19 76 19 76 15 59 15"></polygon>
                <polygon id="Fill-15" fill="#F4DBA8" points="59 11 76 11 76 7 59 7"></polygon>
                <polygon id="Fill-16" fill="#03EDFF" points="79 19 96 19 96 15 79 15"></polygon>
                <polygon id="Fill-17" fill="#F4DBA8" points="79 11 96 11 96 7 79 7"></polygon>
                <polygon id="Fill-18" fill="#03EDFF" points="98 19 115 19 115 15 98 15"></polygon>
                <polygon id="Fill-19" fill="#F4DBA8" points="98 11 115 11 115 7 98 7"></polygon>
                <polygon id="Fill-20" fill="#03EDFF" points="118 19 135 19 135 15 118 15"></polygon>
                <polygon id="Fill-21" fill="#F4DBA8" points="118 11 135 11 135 7 118 7"></polygon>
                <polygon id="Fill-22" fill="#03EDFF" points="138 19 155 19 155 15 138 15"></polygon>
                <polygon id="Fill-23" fill="#F4DBA8" points="138 11 155 11 155 7 138 7"></polygon>
                <polygon id="Fill-25" fill="#03EDFF" points="157 19 174 19 174 15 157 15"></polygon>
                <g id="Group-60" transform="translate(157.000000, 6.000000)">
                    <polygon id="Fill-26" fill="#F4DBA8" points="0.438163636 4.27488889 16.9270364 4.27488889 16.9270364 0.286444444 0.438163636 0.286444444"></polygon>
                    <polygon id="Fill-28" fill="#03EDFF" points="20.0685273 12.8304444 36.5574 12.8304444 36.5574 8.842 20.0685273 8.842"></polygon>
                    <polygon id="Fill-30" fill="#F4DBA8" points="20.0685273 4.27488889 36.5574 4.27488889 36.5574 0.286444444 20.0685273 0.286444444"></polygon>
                    <polygon id="Fill-32" fill="#03EDFF" points="39.6988909 12.8304444 56.1877636 12.8304444 56.1877636 8.842 39.6988909 8.842"></polygon>
                    <polygon id="Fill-34" fill="#F4DBA8" points="39.6988909 4.27488889 56.1877636 4.27488889 56.1877636 0.286444444 39.6988909 0.286444444"></polygon>
                    <polygon id="Fill-36" fill="#03EDFF" points="59.3276727 12.8304444 75.8165455 12.8304444 75.8165455 8.842 59.3276727 8.842"></polygon>
                    <polygon id="Fill-38" fill="#F4DBA8" points="59.3276727 4.27488889 75.8165455 4.27488889 75.8165455 0.286444444 59.3276727 0.286444444"></polygon>
                    <polygon id="Fill-40" fill="#03EDFF" points="78.9596182 12.8304444 95.4484909 12.8304444 95.4484909 8.842 78.9596182 8.842"></polygon>
                    <polygon id="Fill-42" fill="#F4DBA8" points="78.9596182 4.27488889 95.4484909 4.27488889 95.4484909 0.286444444 78.9596182 0.286444444"></polygon>
                    <polygon id="Fill-44" fill="#03EDFF" points="98.5884 12.8304444 115.077273 12.8304444 115.077273 8.842 98.5884 8.842"></polygon>
                    <polygon id="Fill-46" fill="#F4DBA8" points="98.5884 4.27488889 115.077273 4.27488889 115.077273 0.286444444 98.5884 0.286444444"></polygon>
                    <polygon id="Fill-48" fill="#03EDFF" points="118.218764 12.8304444 134.707636 12.8304444 134.707636 8.842 118.218764 8.842"></polygon>
                    <polygon id="Fill-50" fill="#F4DBA8" points="118.218764 4.27488889 134.707636 4.27488889 134.707636 0.286444444 118.218764 0.286444444"></polygon>
                    <polygon id="Fill-52" fill="#03EDFF" points="137.849127 12.8304444 154.338 12.8304444 154.338 8.842 137.849127 8.842"></polygon>
                    <polygon id="Fill-54" fill="#F4DBA8" points="137.849127 4.27488889 154.338 4.27488889 154.338 0.286444444 137.849127 0.286444444"></polygon>
                    <polygon id="Fill-56" fill="#03EDFF" points="157.477909 12.8304444 173.966782 12.8304444 173.966782 8.842 157.477909 8.842"></polygon>
                    <polygon id="Fill-58" fill="#F4DBA8" points="157.477909 4.27488889 173.966782 4.27488889 173.966782 0.286444444 157.477909 0.286444444"></polygon>
                </g>
            </g>
        </g>
    </g>
</svg>