<?xml version="1.0" encoding="UTF-8" standalone="no"?>
<svg width="100px" height="100px" viewBox="0 0 100 100" version="1.1" xmlns="http://www.w3.org/2000/svg" xmlns:xlink="http://www.w3.org/1999/xlink">
    <!-- Generator: Sketch 47.1 (45422) - http://www.bohemiancoding.com/sketch -->
    <title>Rectangle 15</title>
    <desc>Created with Sketch.</desc>
    <defs></defs>
    <g id="Page-1" stroke="none" stroke-width="1" fill="none" fill-rule="evenodd" opacity="0.5">
        <g id="Artboard" transform="translate(-114.000000, -181.000000)" fill="#FFFFFF">
            <path d="M200.470572,229.64881 L214,229.64881 L214,232.35119 L200.470572,232.35119 L200.470572,229.64881 Z M200.013092,236.975636 L213.246869,239.788563 L212.685012,242.43189 L199.451235,239.618963 L200.013092,236.975636 Z M198.027632,244.164232 L210.481536,249.4506 L209.425632,251.938154 L196.971728,246.651786 L198.027632,244.164232 Z M194.70907,250.713634 L205.791728,258.473795 L204.241707,260.687456 L193.159048,252.927295 L194.70907,250.713634 Z M190.042167,256.53391 L199.440497,266.266166 L197.496568,268.143398 L188.098237,258.411142 L190.042167,256.53391 Z M184.403297,261.24093 L191.572801,272.714536 L189.281052,274.146579 L182.111548,262.672974 L184.403297,261.24093 Z M177.933445,264.727723 L182.560782,277.441226 L180.021375,278.365495 L175.394038,265.651991 L177.933445,264.727723 Z M170.773378,266.846678 L172.889846,280.209536 L170.220737,280.632282 L168.104268,267.269424 L170.773378,266.846678 Z M163.45168,267.497865 L162.743604,281.008751 L160.044928,280.867319 L160.753003,267.356433 L163.45168,267.497865 Z M156.145311,266.673305 L152.643637,279.741729 L150.033338,279.042301 L153.535012,265.973878 L156.145311,266.673305 Z M149.054516,264.33159 L143.123605,276.491759 L140.694722,275.307113 L146.625632,263.146944 L149.054516,264.33159 Z M142.670024,260.692839 L134.340476,271.354174 L132.210972,269.690422 L140.540519,259.029088 L142.670024,260.692839 Z M137.08317,255.745805 L126.872381,264.621908 L125.09946,262.582396 L135.310249,253.706293 L137.08317,255.745805 Z M132.65863,249.885708 L120.825525,256.444905 L119.515385,254.081349 L131.34849,247.522153 L132.65863,249.885708 Z M129.496629,243.258228 L116.558373,247.213849 L115.768274,244.62955 L128.70653,240.673928 L129.496629,243.258228 Z M127.737971,236.011008 L114.282659,237.425218 L114.000183,234.737642 L127.455495,233.323431 L127.737971,236.011008 Z M127.455495,228.676569 L114.000183,227.262358 L114.282659,224.574782 L127.737971,225.988992 L127.455495,228.676569 Z M128.70653,221.326072 L115.768274,217.37045 L116.558373,214.786151 L129.496629,218.741772 L128.70653,221.326072 Z M131.34849,214.477847 L119.515385,207.918651 L120.825525,205.555095 L132.65863,212.114292 L131.34849,214.477847 Z M135.310249,208.293707 L125.09946,199.417604 L126.872381,197.378092 L137.08317,206.254195 L135.310249,208.293707 Z M140.540519,202.970912 L132.210972,192.309578 L134.340476,190.645826 L142.670024,201.307161 L140.540519,202.970912 Z M146.625632,198.853056 L140.694722,186.692887 L143.123605,185.508241 L149.054516,197.66841 L146.625632,198.853056 Z M153.535012,196.026122 L150.033338,182.957699 L152.643637,182.258271 L156.145311,195.326695 L153.535012,196.026122 Z M160.753003,194.643567 L160.044928,181.132681 L162.743604,180.991249 L163.45168,194.502135 L160.753003,194.643567 Z M168.104268,194.730576 L170.220737,181.367718 L172.889846,181.790464 L170.773378,195.153322 L168.104268,194.730576 Z M175.394038,196.348009 L180.021375,183.634505 L182.560782,184.558774 L177.933445,197.272277 L175.394038,196.348009 Z M182.111548,199.327026 L189.281052,187.853421 L191.572801,189.285464 L184.403297,200.75907 L182.111548,199.327026 Z M188.098237,203.588858 L197.496568,193.856602 L199.440497,195.733834 L190.042167,205.46609 L188.098237,203.588858 Z M193.159048,209.072705 L204.241707,201.312544 L205.791728,203.526205 L194.70907,211.286366 L193.159048,209.072705 Z M196.971728,215.348214 L209.425632,210.061846 L210.481536,212.5494 L198.027632,217.835768 L196.971728,215.348214 Z M199.451235,222.381037 L212.685012,219.56811 L213.246869,222.211437 L200.013092,225.024364 L199.451235,222.381037 Z" id="Rectangle-15"></path>
        </g>
    </g>
</svg>