<?xml version="1.0" encoding="UTF-8" standalone="no"?>
<svg width="40px" height="40px" viewBox="0 0 40 40" version="1.1" xmlns="http://www.w3.org/2000/svg" xmlns:xlink="http://www.w3.org/1999/xlink">
    <!-- Generator: Sketch 46 (44423) - http://www.bohemiancoding.com/sketch -->
    <title>摄像头 copy</title>
    <desc>Created with Sketch.</desc>
    <defs></defs>
    <g id="Page-1" stroke="none" stroke-width="1" fill="none" fill-rule="evenodd">
        <g id="Artboard" transform="translate(-1068.000000, -532.000000)" fill-rule="nonzero" fill="#FFFFFF">
            <g id="摄像头-copy" transform="translate(1068.000000, 532.000000)">
                <path d="M0.0303959726,20.2147257 L6.1355654,21.5369602 L6.1355654,29.229322 L16.8203105,26.1526647 L16.8203105,23.0760074 L15.2933195,23.0760074 L15.2933195,19.9992703 L9.51885842,18.7447424 L6.19628575,15.6009773 L7.25559832,8.99056352 L27.0218478,12.1558062 C27.1600555,11.6584263 27.3331144,11.2001294 27.5333598,10.7971635 L5.4199356,7.25689978 L9.01509114,0.92377955 L11.4334057,-7.82013661e-08 L32.1090631,3.31107527 L34.0636116,3.6241783 L36.2867508,3.97967777 L39.7152747,4.52911507 L39.5913189,7.68070467 L35.7675339,11.8817064 L34.0416549,11.6401823 L34.8775277,6.42226448 L38.1096786,6.9391659 L38.1548696,5.80831433 L33.4629153,5.05703476 L33.1942847,5.15991202 L29.8962636,9.10122545 C30.9309846,9.51980063 31.4607008,11.5555491 31.0912288,13.8653575 C30.6946104,16.3424762 29.4118581,18.1972213 28.2272724,18.0064771 C27.6640622,17.9166542 27.2234505,17.38087 26.9599697,16.5761756 L26.6447509,18.5383491 L29.9143878,22.0108663 L21.3986486,19.9992303 L21.3986486,23.0759674 L19.8730149,23.0759674 L19.873015,27.6916321 L6.1355654,32.3067777 L6.1355654,38.460212 L0.0303959726,39.9992193 L0.0303959726,20.2147257 L0.0303959726,20.2147257 Z M29.256644,11.578943 C28.7437746,11.4969047 28.1883092,12.2996429 28.0164878,13.3731674 C27.8447462,14.4453745 28.1211615,15.3822484 28.633991,15.4642468 C29.1468603,15.5462852 29.7023657,14.7429482 29.8741472,13.6700623 C30.0459686,12.5971765 29.7695134,11.6609814 29.256644,11.578943 L29.256644,11.578943 Z M29.0951622,21.1411003 L30.2332795,22.1801328 L34.0764662,19.7954719 L35.2171784,12.6818098 L33.7238012,12.4428806 L32.6929126,18.8807544 L29.0951622,21.1411003 Z" id="Shape"></path>
            </g>
        </g>
    </g>
</svg>