<?xml version="1.0" encoding="UTF-8" standalone="no"?>
<svg width="200px" height="199px" viewBox="0 0 200 199" version="1.1" xmlns="http://www.w3.org/2000/svg" xmlns:xlink="http://www.w3.org/1999/xlink">
    <!-- Generator: Sketch 47.1 (45422) - http://www.bohemiancoding.com/sketch -->
    <title>Page 1</title>
    <desc>Created with Sketch.</desc>
    <defs>
        <polygon id="path-1" points="11.7538705 13.1428436 11.7538705 0.129889415 0.22957346 0.129889415 0.22957346 13.1428436 11.7538705 13.1428436"></polygon>
    </defs>
    <g id="Page-1" stroke="none" stroke-width="1" fill="none" fill-rule="evenodd">
        <g id="Artboard" transform="translate(-61.000000, -130.000000)">
            <g id="Page-1" transform="translate(61.000000, 130.000000)">
                <g id="Group-156" transform="translate(0.000000, 0.139021)">
                    <path d="M102.295924,26.9977567 L102.283286,27.1304581 L100.861485,42.1952291 L100.839684,42.4574724 L100.551848,45.5064455 L100.264329,48.5522591 L100.239052,48.8145024 L99.133207,60.5269826 L98.0715956,71.8002844 L97.9673302,72.8840126 L97.8283096,74.381643 L97.8030332,74.6502054 L96.5287836,88.1630016 C98.2242022,87.3440442 100.12594,86.8849605 102.134787,86.8849605 C102.188815,86.8849605 102.241896,86.8881201 102.295924,86.888752 L102.295924,74.2584202 L102.295924,73.9930174 L102.295924,72.5427804 L102.295924,71.4874882 L102.295924,61.2915956 L102.295924,60.4006003 L102.295924,59.5222433 L102.295924,48.7734281 L102.295924,48.5111848 L102.295924,45.4748499 L102.295924,42.438515 L102.295924,42.1762717 L102.295924,28.7070774 L102.295924,27.1304581 L102.295924,26.9977567 Z" id="Fill-7" fill="#00AEB9"></path>
                    <path d="M45.2218009,101.124265 L48.2707741,101.437062 L51.3197472,101.749858 L51.5851501,101.778294 L63.3134281,102.985245 L74.1317536,104.09425 L75.2123223,104.207994 L76.7131122,104.362812 L76.9816746,104.388088 L90.0843602,105.73406 L90.236019,105.749858 L90.3939968,105.768815 L90.71406,105.801675 C89.7797788,104.029795 89.2448657,102.015261 89.2309637,99.8759242 L76.6025276,99.8035703 L76.3402844,99.8035703 L74.8868878,99.7940916 L73.8315956,99.7877725 L64.0559242,99.7309005 L63.1617694,99.7277409 L62.2865719,99.7214218 L51.5345972,99.6613902 L51.2723539,99.6582306 L48.236019,99.6424329 L45.199684,99.6234755 L44.9374408,99.6234755 L31.4398104,99.5444866 L29.8916272,99.5350079 L29.8916272,99.5476461 L44.9595577,101.095829 L45.2218009,101.124265 Z" id="Fill-9" fill="#00AEB9"></path>
                    <path d="M44.9468878,98.558673 L31.4397788,99.544455 L44.9374092,99.6234439 L44.9374092,99.5349763 C44.9374092,99.2095419 44.9405687,98.8841074 44.9468878,98.558673" id="Fill-13" fill="#00C8DE"></path>
                    <path d="M159.376556,98.4259716 L156.333902,98.2079621 L153.294408,97.9899526 L153.029005,97.9709953 L142.235956,97.1969036 L141.354439,97.1337125 L140.457125,97.0673618 L130.536114,96.3564613 L129.458705,96.2806319 L127.980032,96.173207 L127.711469,96.1542496 L114.191406,95.1852133 C114.738641,96.615861 115.041011,98.1678357 115.041011,99.7909005 C115.041011,99.8199684 115.039115,99.8484044 115.038799,99.8774724 L127.98951,99.8035387 L128.251754,99.8035387 L129.701991,99.79406 L130.760442,99.7877409 L140.532954,99.7308689 L141.427109,99.7277093 L142.302306,99.7213902 L153.054281,99.6613586 L153.316524,99.6581991 L156.352859,99.6424013 L159.389194,99.6234439 L159.651438,99.6234439 L173.114313,99.544455 L174.697251,99.5349763 L174.697251,99.5254976 L159.641959,98.4449289 L159.376556,98.4259716 Z" id="Fill-15" fill="#00AEB9"></path>
                    <path d="M129.11763,71.067267 L120.453807,78.0467299 L119.613681,78.7228752 L118.457283,79.6549447 L118.248752,79.8224013 L107.834534,88.2110269 C109.271185,88.9193997 110.556493,89.8865403 111.630111,91.0524171 L120.532796,81.8697946 L120.716051,81.6802212 L121.727109,80.6407267 L122.463286,79.8792733 L129.47466,72.6502054 L130.090458,72.0151343 L130.706572,71.3769036 L136.880348,65.0135545 L137.768499,64.0972828 L129.11763,71.067267 Z" id="Fill-39" fill="#00AEB9"></path>
                    <path d="M129.439747,96.1447077 L130.517156,96.2236967 C129.796777,90.7292259 127.502938,85.7276461 124.103254,81.6770932 L123.436588,82.5270142 C126.586667,86.3406003 128.725687,91.0167457 129.439747,96.1447077" id="Fill-43" fill="#00AEB9"></path>
                    <path d="M122.807773,118.113207 L123.461801,118.966288 C127.215355,114.795671 129.75248,109.512891 130.517093,103.680348 L129.436524,103.778294 C128.675071,109.23169 126.299084,114.176398 122.807773,118.113207" id="Fill-45" fill="#00AEB9"></path>
                    <path d="M122.349573,83.9077409 C125.105024,87.3390205 126.994123,91.4875197 127.692385,96.021485 L127.961264,96.0404423 C127.259526,91.4116904 125.332196,87.1842022 122.51703,83.692891 L122.349573,83.9077409 Z" id="Fill-49" fill="#00AEB9"></path>
                    <path d="M121.907393,116.944107 C125.041675,113.332733 127.196493,108.849321 127.951627,103.914092 L127.683065,103.939368 C126.92793,108.77981 124.814186,113.177915 121.74278,116.729258 L121.907393,116.944107 Z" id="Fill-51" fill="#00AEB9"></path>
                    <path d="M110.843096,109.314882 L119.821927,118.72278 L120.005182,118.915829 L121.006761,119.964487 L121.736935,120.729415 L128.886698,128.220727 L135.866161,135.531943 L136.712923,136.419463 L130.308499,128.087709 L129.761896,127.380284 L129.221611,126.672543 L123.37327,119.067172 L122.716082,118.214092 L121.818768,117.045371 L121.654787,116.830205 L113.397283,106.092133 C112.72019,107.2994 111.856998,108.387235 110.843096,109.314882" id="Fill-57" fill="#00AEB9"></path>
                    <path d="M119.505972,78.6375671 L120.349889,77.9582622 C116.308815,74.6344076 111.335671,72.4006003 105.888278,71.7118167 L105.970427,72.7892259 C111.054155,73.4716904 115.698705,75.5569984 119.505972,78.6375671" id="Fill-59" fill="#00AEB9"></path>
                    <path d="M105.389163,127.187362 L105.496588,125.718167 C109.954724,125.168404 114.065308,123.48436 117.531343,120.959874 L117.316493,120.786098 C113.913649,123.250553 109.885213,124.899842 105.518705,125.449605 L106.498167,111.970932 L106.500695,111.938073 C105.13703,112.42812 103.66752,112.696998 102.134818,112.696998 L102.134818,125.645498 L102.134818,125.9109 L102.134818,127.361137 L102.134818,128.41643 L102.134818,137.775039 L102.134818,138.669194 L102.134818,139.547551 L102.134818,150.293207 L102.134818,150.508373 L102.134818,150.55861 L102.134818,153.594945 L102.134818,156.62812 L102.134818,156.662875 L102.134818,156.893839 L102.134818,169.045182 L102.254882,170.27109 L102.4097,168.131754 L103.228025,156.887204 L103.246983,156.621801 L103.33861,155.376935 L103.468152,153.582306 L103.689321,150.539652 L103.708278,150.27425 L104.26752,142.634439 L104.495008,139.48752 L104.558199,138.602844 L104.62455,137.70237 L105.313333,128.258452 C110.621706,127.69921 115.502907,125.673934 119.534818,122.593365 L118.691216,121.904581 C114.893112,124.748183 110.33703,126.63128 105.389163,127.187362" id="Fill-63" fill="#00AEB9"></path>
                    <path d="M118.349826,79.5696998 C114.870837,76.8208847 110.671785,74.9441074 106.087267,74.2711216 L106.10654,74.5428436 C110.602275,75.2126698 114.722654,77.0515324 118.144455,79.7371564 L118.349826,79.5696998 Z" id="Fill-65" fill="#00AEB9"></path>
                    <path d="M102.134882,111.29703 C95.7901738,111.29703 90.6287204,106.135577 90.6287204,99.7908689 C90.6287204,93.4461611 95.7901738,88.2847077 102.134882,88.2847077 C108.479273,88.2847077 113.641043,93.4461611 113.641043,99.7908689 C113.641043,106.135577 108.479273,111.29703 102.134882,111.29703 M114.207235,99.7390521 C114.207235,93.1308373 108.692859,87.6164613 102.084645,87.6164613 C95.4764297,87.6164613 89.9620537,93.1308373 89.9620537,99.7390521 C89.9620537,106.347267 95.4764297,111.861643 102.084645,111.861643 C108.692859,111.861643 114.207235,106.347267 114.207235,99.7390521" id="Fill-71" fill="#FFFFFF"></path>
                    <path d="M102.084581,111.861675 C95.4763665,111.861675 89.9619905,106.347299 89.9619905,99.7390837 C89.9619905,93.1308689 95.4763665,87.6164929 102.084581,87.6164929 C108.692796,87.6164929 114.207172,93.1308689 114.207172,99.7390837 C114.207172,106.347299 108.692796,111.861675 102.084581,111.861675 L102.084581,111.861675 Z M102.134818,156.662938 L102.134818,156.628183 L102.134818,153.595008 L102.134818,150.558673 L102.134818,150.50812 L102.134818,150.29327 L102.134818,139.547615 L102.134818,138.669258 L102.134818,137.775103 L102.134818,128.416177 L102.134818,127.361201 L102.134818,125.910964 L102.134818,125.645561 L102.134818,112.697062 C103.66752,112.697062 105.13703,112.428183 106.500695,111.938136 C106.586635,111.907172 106.671627,111.873681 106.756303,111.841453 L117.537662,120.625024 L117.752512,120.798799 L118.90575,121.740348 L119.749352,122.425972 L127.923128,129.086319 L135.916809,135.598167 L135.866256,135.531817 L128.886793,128.2206 L121.736714,120.729289 L121.006856,119.96436 L120.005276,118.915703 L119.822022,118.72297 L110.843191,109.314755 C111.857093,108.387425 112.720284,107.299273 113.397378,106.092006 C113.420758,106.0503 113.445719,106.009858 113.468468,105.967836 C113.607488,105.713807 113.73545,105.45346 113.857409,105.189321 C113.899431,105.098009 113.941453,105.006698 113.98158,104.914439 L127.724076,103.670837 L127.989479,103.645561 L129.474471,103.5097 L130.55188,103.411754 L141.319652,102.43861 L142.172733,102.359621 L142.207488,102.356461 L153.019494,101.376998 L153.284897,101.354882 L156.327551,101.08 L159.373365,100.801959 L159.638768,100.779842 L173.19643,99.5507741 L173.114597,99.544455 L159.651406,99.6234439 L159.389163,99.6234439 L156.352828,99.6424013 L153.316493,99.6581991 L153.05425,99.6613586 L142.302275,99.7213902 L141.427393,99.7277093 L140.532923,99.7308689 L130.760411,99.7877409 L129.701959,99.79406 L128.251722,99.8035387 L127.989479,99.8035387 L115.038768,99.8774724 C115.039084,99.8487204 115.040979,99.8199684 115.040979,99.7909005 C115.040979,98.1678357 114.73861,96.615861 114.191374,95.1852133 C114.173997,95.1390837 114.155355,95.0935861 114.137346,95.0477725 C114.076367,94.8939021 114.013491,94.7416114 113.946825,94.5905845 C113.906698,94.4995893 113.866256,94.40891 113.823918,94.3191785 L122.182212,83.6961137 L122.349668,83.4844234 L123.26278,82.3217062 L123.932607,81.4717852 L130.795166,72.7482464 L136.880474,65.0136493 L130.706698,71.3769984 L130.090585,72.0152291 L129.474471,72.6503002 L122.463412,79.8793681 L121.727235,80.6408215 L120.716177,81.680316 L120.532923,81.8698894 L111.630237,91.0525118 C110.556303,89.8863191 109.270995,88.9194945 107.834344,88.2111216 C107.792006,88.1899526 107.750616,88.1678357 107.707646,88.1472986 C107.521232,88.0578831 107.332291,87.972891 107.141453,87.8923223 C107.051406,87.8544076 106.959147,87.8206003 106.868152,87.7845814 L105.840979,74.5049605 L105.818863,74.2332385 L105.705118,72.7545656 L105.62297,71.6834755 L104.823602,61.3738389 L104.754092,60.4765245 L104.687741,59.5950079 L103.850458,48.7987994 L103.831501,48.5333965 L103.594534,45.4907425 L103.360727,42.4480885 L103.33861,42.1858452 L102.295956,28.7071722 L102.295956,42.1763665 L102.295956,42.4386098 L102.295956,45.4749447 L102.295956,48.5112796 L102.295956,48.7735229 L102.295956,59.5223381 L102.295956,60.4006951 L102.295956,61.2916904 L102.295956,71.4875829 L102.295956,72.5428752 L102.295956,73.9931122 L102.295956,74.258515 L102.295956,86.8888468 C102.241927,86.8878989 102.188847,86.8847393 102.134818,86.8847393 C100.125972,86.8847393 98.2242338,87.344139 96.5288152,88.1630964 C96.4817378,88.1855292 96.4365561,88.2111216 96.3897946,88.2341864 C96.2236019,88.3169668 96.0593049,88.4022749 95.8972196,88.4916904 C95.8141232,88.5378199 95.7322907,88.5861611 95.6501422,88.6338705 L85.3070142,80.694534 L85.0953239,80.530237 L83.923128,79.629763 L83.073207,78.9757346 L74.9910585,72.7735229 L74.8994313,72.7008531 L74.2864771,72.230079 L66.8646761,66.5333965 L73.594534,72.9599368 L81.5123855,80.5239179 L82.2738389,81.2506161 L83.322812,82.2521959 L83.515545,82.4354502 L92.5910585,91.1033807 C91.5607267,92.2341864 90.7319747,93.5504581 90.1534597,94.994376 C90.1171248,95.0850553 90.080158,95.1757346 90.0457188,95.2673618 L89.9010111,95.2790521 L76.8709953,96.230079 L76.6024329,96.2490363 L75.1206003,96.3564613 L74.0463507,96.4354502 L64.1253397,97.1589889 L63.2280253,97.2253397 L62.3465087,97.2885308 L51.5566193,98.0752607 L51.2912164,98.094218 L48.251722,98.3185466 L45.2090679,98.5397156 C45.2027488,98.8714692 45.1995893,99.2032227 45.1995893,99.5349763 L45.1995893,99.6234439 L48.2359242,99.6424013 L51.2722591,99.6581991 L51.5345024,99.6613586 L62.2864771,99.7213902 L63.1616746,99.7277093 L64.0558294,99.7308689 L73.8315008,99.7877409 L74.886793,99.79406 L76.3401896,99.8035387 L76.6024329,99.8035387 L89.2308689,99.8758926 C89.2447709,102.015229 89.779684,104.029763 90.7142812,105.801643 C90.7382938,105.846825 90.7600948,105.893586 90.7844234,105.938768 L90.2991153,105.888847 L82.308594,116.081264 L82.1411374,116.29643 L81.2248657,117.465466 L80.5613586,118.312227 L74.0621485,126.606066 L67.8188626,134.571311 L67.8852133,134.517599 L74.9847393,127.53466 L82.3749447,120.264834 L83.1269194,119.525498 L84.1600948,118.51128 L84.3496682,118.321706 L93.4681517,109.353934 C94.3051185,110.112859 95.244455,110.760569 96.2593049,111.280632 C96.3525118,111.328657 96.444455,111.378578 96.5389258,111.42376 L96.5771564,111.819336 L96.5929542,111.973839 L96.608752,112.128973 L97.8820537,125.269573 L97.9104897,125.541295 L98.0558294,127.035766 L98.1600948,128.119494 L99.1743128,138.546035 L100.308594,150.255355 L100.33703,150.520442 L100.630869,153.566572 L100.927867,156.612385 L100.953144,156.877788 L102.134818,169.045245 L102.134818,156.893586 L102.134818,156.662938 Z" id="Fill-73" fill="#00C8DE"></path>
                    <path d="M97.8347551,72.9062243 L97.9390205,71.8224961 C92.349763,72.6818957 87.2944708,75.1747867 83.2723539,78.7956398 L84.1222749,79.4496682 C87.907425,76.0910585 92.6278041,73.7624645 97.8347551,72.9062243" id="Fill-75" fill="#00AEB9"></path>
                    <path d="M85.0700158,121.25703 L84.2200948,121.930016 C88.0652765,125.098736 92.7509005,127.279147 97.8915008,128.078515 L97.7840758,126.991311 C93.0226224,126.201422 88.668752,124.176145 85.0700158,121.25703" id="Fill-77" fill="#00AEB9"></path>
                    <path d="M97.6925118,74.4037915 C93.0037283,75.2442338 88.7509637,77.3516588 85.2944076,80.350079 L85.5092575,80.514376 C88.905782,77.5791469 93.0763981,75.5159558 97.6672354,74.6755134 L97.6925118,74.4037915 Z" id="Fill-79" fill="#00AEB9"></path>
                    <path d="M86.2358926,120.337536 C89.4965561,122.912259 93.3891311,124.723002 97.6387362,125.493618 L97.6134597,125.219052 C93.4586414,124.454123 89.6513744,122.681927 86.4507425,120.166919 L86.2358926,120.337536 Z" id="Fill-81" fill="#00AEB9"></path>
                    <g id="Group-16" transform="translate(65.000000, 65.000000)" fill="#00AEB9">
                        <path d="M11.7383886,39.4954818 C12.499842,43.8209163 14.3418641,47.779842 16.9706161,51.0847393 L17.1380727,50.8698894 C14.5725118,47.6281833 12.7684044,43.7545656 12.006951,39.5239179 L11.7383886,39.4954818 Z" id="Fill-91"></path>
                        <path d="M16.2975355,19.7103002 C13.9152291,22.9772828 12.2817378,26.8161453 11.6403476,30.9804423 L11.90891,30.961485 C12.5471406,26.8888152 14.1458768,23.1289415 16.4681517,19.9219905 L16.2975355,19.7103002 Z" id="Fill-93"></path>
                        <path d="M10.2375987,39.3438231 L9.1507109,39.230079 C9.94060032,44.4528278 12.1554502,49.2142812 15.3876777,53.1068562 L16.0543444,52.2569352 C13.0748815,48.6108057 11.0180095,44.187425 10.2375987,39.3438231" id="Fill-95"></path>
                        <path d="M15.3496682,18.5475197 L14.6640442,17.7070774 C11.7288152,21.5490995 9.74777251,26.152575 9.08110585,31.166793 L10.158515,31.0878041 C10.815703,26.4306161 12.6482464,22.1494155 15.3496682,18.5475197" id="Fill-97"></path>
                        <path d="M10.5345656,63.6344708 L10.8663191,63.3690679 L11.5709005,62.8129858 L19.1159242,56.8414218 L19.9626856,56.1715956 L21.1285624,55.2521643 L21.3434123,55.0815482 L31.3465719,47.1700158 L31.3307741,47.0120379 L31.2593681,46.2806003 C30.2442022,45.7605371 29.3051817,45.1128278 28.4682148,44.3539021 L19.3497314,53.3216746 L19.160158,53.511248 L18.1269826,54.525466 L17.3750079,55.2648025 L9.98480253,62.5349447 L2.88527646,69.5175671 L2.02903633,70.361169 L10.5345656,63.6344708 Z" id="Fill-103"></path>
                        <path d="M7.70669826,8.95206951 L14.7461927,17.5997788 L15.4318167,18.4402212 L16.3765245,19.5997788 L16.5471406,19.8114692 L24.8567773,30.0168404 L25.0179147,30.0042022 L25.1534597,29.9944076 C25.7319747,28.5504897 26.5607267,27.234218 27.5910585,26.1034123 L18.515545,17.4354818 L18.322812,17.2522275 L17.2738389,16.2506477 L16.5123855,15.5239494 L8.59453397,7.9599684 L1.86467615,1.53342812 L0.973680885,0.680347551 L7.70669826,8.95206951 Z" id="Fill-105"></path>
                    </g>
                    <path d="M108.051627,99.8382306 L107.101548,100.084676 C107.101548,100.084676 106.366319,100.279305 106.185592,100.306793 C106.258578,100.329858 106.426667,100.384518 106.594439,100.452133 C106.817188,100.539652 107.037093,100.650237 107.037093,100.650237 C107.037093,100.650237 107.25763,100.758926 107.473744,100.889731 C107.683539,101.013902 107.889542,101.153239 107.889542,101.153239 C107.889542,101.153239 107.639937,101.184834 107.394123,101.20158 C107.147678,101.219905 106.905024,101.223065 106.905024,101.223065 C106.905024,101.223065 106.662686,101.227804 106.414976,101.21485 C106.2194,101.206319 106.02951,101.188626 105.959368,101.181675 C106.017504,101.221485 106.174218,101.330174 106.329352,101.449289 C106.525561,101.597788 106.711027,101.75861 106.711343,101.75861 C106.711027,101.75861 106.894597,101.916588 107.071532,102.088784 C107.249415,102.259716 107.420032,102.444234 107.420032,102.444234 C107.420032,102.444234 107.172322,102.418325 106.931564,102.378831 C106.685434,102.337757 106.444044,102.282148 106.444044,102.282148 C106.444044,102.282148 106.202654,102.22812 105.969795,102.161453 C105.783065,102.109005 105.603918,102.049289 105.538199,102.026856 C105.582749,102.075197 105.712291,102.218325 105.83425,102.371248 C105.986856,102.557978 106.1303,102.75703 106.1303,102.75703 C106.1303,102.75703 106.274376,102.955134 106.409605,103.165245 C106.54673,103.375355 106.668057,103.592101 106.668057,103.592101 C106.668057,103.592101 106.429826,103.507109 106.201706,103.410427 C105.972322,103.314692 105.753365,103.207899 105.753365,103.207899 C105.753365,103.207899 105.533144,103.10237 105.323033,102.98515 C105.151469,102.8891 104.988752,102.787362 104.92872,102.749763 C104.962844,102.811058 105.053207,102.977567 105.137567,103.152923 C105.244992,103.37188 105.341043,103.600948 105.341043,103.600948 C105.341043,103.600632 105.438357,103.829068 105.517346,104.0594 C105.598863,104.290679 105.668689,104.531122 105.668689,104.531122 C105.668689,104.531122 105.457946,104.396209 105.259526,104.252133 C105.061422,104.1109 104.869637,103.952291 104.869953,103.952291 C104.869953,103.952291 104.67722,103.795261 104.498389,103.630016 C104.349889,103.495103 104.21624,103.360821 104.171374,103.315008 C104.190332,103.382938 104.241517,103.568088 104.284803,103.76019 C104.336935,103.994313 104.375798,104.235387 104.375798,104.235387 C104.375798,104.235387 104.415608,104.476145 104.441833,104.723223 C104.469321,104.969984 104.482591,105.222433 104.482591,105.222433 C104.482591,105.222433 104.309447,105.044234 104.147362,104.852449 C103.984329,104.663191 103.835829,104.46793 103.835829,104.46793 C103.835829,104.46793 103.686382,104.273618 103.551153,104.073934 C103.443096,103.917536 103.343254,103.753239 103.306288,103.692259 C103.308815,103.761769 103.314818,103.950079 103.311659,104.143444 C103.308499,104.385782 103.291122,104.631912 103.291122,104.631912 C103.291122,104.631912 103.274692,104.878041 103.243412,105.127014 C103.212449,105.370932 103.165687,105.613902 103.165687,105.613902 C103.165687,105.613902 103.038041,105.397156 102.925245,105.177251 C102.811185,104.957978 102.712607,104.736177 102.712607,104.736177 C102.712607,104.736177 102.612449,104.51722 102.526193,104.284044 C102.456367,104.10079 102.397283,103.918799 102.375482,103.851817 C102.362212,103.920379 102.324297,104.107109 102.276588,104.296682 C102.21782,104.533965 102.144202,104.77188 102.144202,104.77188 L101.80297,105.693207 L101.679431,105.218325 C101.618452,104.977251 101.55684,104.736177 101.55684,104.736177 C101.55684,104.736177 101.499968,104.491311 101.465845,104.248973 C101.436777,104.055608 101.422559,103.866667 101.41782,103.797156 C101.391912,103.862243 101.319558,104.037915 101.231722,104.213586 C101.122085,104.42812 100.996651,104.636651 100.996651,104.636651 C100.996651,104.636651 100.87248,104.846445 100.734092,105.052449 C100.596335,105.258768 100.44436,105.460664 100.44436,105.460664 C100.44436,105.460664 100.425403,105.215166 100.424771,104.963033 C100.421927,104.713112 100.433618,104.46793 100.433618,104.46793 C100.433618,104.46793 100.444044,104.222433 100.468689,103.982306 C100.486698,103.792101 100.514818,103.603476 100.526193,103.533649 C100.487014,103.583886 100.370427,103.732385 100.239937,103.882464 C100.081959,104.066351 99.9103949,104.243602 99.9103949,104.243602 C99.9103949,104.243602 99.7400948,104.421169 99.5558926,104.591785 C99.3751659,104.760506 99.1836967,104.915956 99.1836967,104.915956 C99.1836967,104.915956 99.2247709,104.667615 99.2797472,104.426856 C99.3331438,104.185466 99.3998104,103.952291 99.3998104,103.952291 C99.3998104,103.952291 99.4645814,103.719115 99.5479937,103.485624 C99.6121327,103.300474 99.6835387,103.122907 99.710079,103.05782 C99.659842,103.098578 99.5113428,103.218009 99.3476777,103.335861 C99.1492575,103.481201 98.9423065,103.61327 98.9423065,103.61327 C98.9423065,103.61327 98.7381991,103.74376 98.5227172,103.864455 C98.3084992,103.986098 98.0829068,104.096998 98.0829068,104.096998 C98.0829068,104.096998 98.1783254,103.867299 98.2851185,103.647709 C98.3950711,103.423065 98.5163981,103.207899 98.5163981,103.207899 C98.5163981,103.207899 98.6367773,102.992101 98.767267,102.787678 C98.8705845,102.623381 98.9789573,102.468562 99.0190837,102.412322 C98.9555766,102.44297 98.781485,102.52575 98.6048657,102.598104 C98.3821169,102.690995 98.1505213,102.77188 98.1505213,102.77188 C98.1505213,102.77188 97.9195577,102.854028 97.6794313,102.923539 C97.438673,102.995893 97.1972828,103.049921 97.1972828,103.049921 C97.1972828,103.049921 97.3464139,102.845814 97.5037599,102.654344 C97.6607899,102.461611 97.8254028,102.282148 97.8254028,102.282148 C97.8254028,102.282148 97.988752,102.101738 98.1618957,101.933333 C98.3069194,101.792417 98.4506793,101.665719 98.4999684,101.622749 C98.431722,101.637599 98.24594,101.677093 98.0538389,101.708057 C97.8133965,101.748499 97.5663191,101.775039 97.5663191,101.775039 C97.5666351,101.775039 97.3201896,101.802844 97.0769036,101.812954 C96.831722,101.824961 96.581485,101.822433 96.581485,101.822433 C96.581485,101.822433 96.7710585,101.659084 96.9660032,101.510269 C97.1581043,101.360821 97.3647393,101.223065 97.3647393,101.223065 C97.3647393,101.223065 97.5704265,101.083728 97.7802212,100.959558 C97.9476777,100.859084 98.1151343,100.769352 98.1764297,100.736809 C98.1059716,100.735861 97.9141864,100.731438 97.7176619,100.717852 C97.4750079,100.701106 97.2351975,100.668246 97.2351975,100.668246 C97.2351975,100.668246 96.9938073,100.637599 96.7498894,100.591469 C96.5062875,100.546919 96.2607899,100.486888 96.2607899,100.486888 C96.2607899,100.486888 96.4769036,100.372512 96.7091311,100.27267 C96.9381991,100.170932 97.1682148,100.084676 97.1682148,100.084676 C97.1682148,100.084676 97.3982306,99.9965245 97.6285624,99.9238547 C97.7789573,99.8758294 97.9280885,99.8341232 98.0143444,99.8107425 L97.1682148,99.4969984 C97.1682148,99.4969984 96.2468878,99.1608215 96.2569984,99.1345972 C96.2569984,99.1345972 96.5034439,99.0575039 96.7483096,99.0031596 C96.9931754,98.9469194 97.2351975,98.9134281 97.2351975,98.9134281 C97.2351975,98.9134281 97.4756398,98.8780411 97.7176619,98.864139 C97.9141864,98.850237 98.1056556,98.8458136 98.1764297,98.8445498 C98.1145024,98.8120063 97.9473618,98.7225908 97.7802212,98.6221169 C97.5704265,98.4979463 97.3647393,98.3586098 97.3647393,98.3586098 C97.3647393,98.3589258 97.1581043,98.2208531 96.9660032,98.071406 C96.7710585,97.9225908 96.581485,97.7592417 96.581485,97.7592417 C96.581485,97.7592417 96.831722,97.75703 97.0769036,97.7690363 C97.3201896,97.778831 97.5666351,97.8066351 97.5663191,97.8066351 C97.5663191,97.8066351 97.8133965,97.8331754 98.0538389,97.8736177 C98.245624,97.9045814 98.43109,97.9437599 98.4996524,97.9589258 C98.4500474,97.9156398 98.3066035,97.7889415 98.1618957,97.6483412 C97.988752,97.4799368 97.8254028,97.2995261 97.8254028,97.2995261 C97.8254028,97.2995261 97.6607899,97.1197472 97.5037599,96.9273302 C97.3464139,96.735861 97.1972828,96.5317536 97.1972828,96.5317536 C97.1972828,96.5317536 97.438673,96.585782 97.6794313,96.6581359 C97.9195577,96.7276461 98.1505213,96.8101106 98.1505213,96.8101106 C98.1505213,96.8101106 98.3821169,96.8906793 98.6048657,96.9835703 C98.781169,97.0556082 98.9543128,97.1380727 99.0184518,97.1690363 C98.9783254,97.1124803 98.8702686,96.9576619 98.767267,96.7939968 C98.6367773,96.5895735 98.5163981,96.3737757 98.5163981,96.3737757 C98.5163981,96.3737757 98.3950711,96.1589258 98.2848025,95.9339652 C98.1783254,95.714376 98.0829068,95.4846761 98.0829068,95.4846761 C98.0829068,95.4846761 98.3081833,95.5955766 98.5227172,95.7172196 C98.7381991,95.8379147 98.9423065,95.9684044 98.9423065,95.9684044 C98.9423065,95.9684044 99.1492575,96.1004739 99.3476777,96.2458136 C99.5113428,96.363981 99.659842,96.4830964 99.710079,96.5238547 C99.6835387,96.4587678 99.6121327,96.2815166 99.5479937,96.0960506 C99.4645814,95.8625592 99.3998104,95.6296998 99.3998104,95.6293839 C99.3998104,95.6293839 99.3331438,95.3962085 99.2797472,95.1548183 C99.2247709,94.91406 99.1836967,94.6657188 99.1833807,94.6657188 C99.1833807,94.6657188 99.3748499,94.821485 99.5558926,94.9898894 C99.7400948,95.1605055 99.9103949,95.3380727 99.9103949,95.3380727 C99.9103949,95.3380727 100.081959,95.5153239 100.239937,95.6992101 C100.370427,95.8492891 100.487014,95.9974724 100.526193,96.0480253 C100.514818,95.9781991 100.486698,95.7895735 100.468689,95.5993681 C100.444044,95.3592417 100.433618,95.1137441 100.433618,95.1137441 C100.433618,95.1137441 100.421927,94.8685624 100.424771,94.6186414 C100.425403,94.3665087 100.44436,94.1210111 100.44436,94.1210111 C100.44436,94.1210111 100.596335,94.3229068 100.733776,94.5292259 C100.87248,94.7352291 100.996651,94.9450237 100.996651,94.9450237 C100.996651,94.9450237 101.121453,95.1538705 101.232038,95.3680885 C101.322085,95.542812 101.401706,95.7175355 101.43109,95.7819905 C101.436461,95.7121643 101.453207,95.5235387 101.479115,95.3308057 C101.510711,95.0894155 101.557156,94.8454976 101.557156,94.8454976 C101.557156,94.8454976 101.602022,94.5993681 101.663002,94.364613 C101.722717,94.1270142 101.797283,93.8887836 101.797283,93.8887836 C101.797283,93.8887836 101.898073,94.1181675 101.984329,94.3484992 C102.071532,94.578831 102.144202,94.8097946 102.144202,94.8097946 L102.382749,95.7304897 L102.712607,94.8454976 C102.712607,94.8454976 102.800758,94.6227488 102.911975,94.4025276 C103.020979,94.1823065 103.152733,93.9655608 103.152733,93.9655608 C103.152733,93.9655608 103.210553,94.2104265 103.243096,94.4543444 C103.274692,94.7036335 103.291122,94.949763 103.291122,94.949763 C103.291122,94.949763 103.308499,95.1958926 103.311343,95.4382306 C103.314818,95.6315956 103.308815,95.8199052 103.306288,95.8894155 C103.343254,95.828436 103.443096,95.664139 103.551153,95.5077409 C103.686382,95.3083728 103.835829,95.1137441 103.835829,95.1137441 C103.835829,95.1137441 103.984329,94.9187994 104.147362,94.7292259 C104.309447,94.5374408 104.482591,94.3592417 104.482591,94.3592417 C104.482591,94.3592417 104.469321,94.6116904 104.441833,94.8584518 C104.415608,95.1055292 104.375798,95.3462875 104.375798,95.3462875 C104.375798,95.3462875 104.336935,95.5873618 104.284803,95.821485 C104.241517,96.0135861 104.190332,96.1987362 104.171374,96.2666667 C104.21624,96.2205371 104.350205,96.0862559 104.498389,95.9516588 C104.67722,95.7864139 104.869953,95.6296998 104.869953,95.6296998 C104.869953,95.6296998 105.061422,95.4707741 105.259526,95.3295419 C105.457946,95.185466 105.668373,95.0505529 105.668373,95.0505529 C105.668373,95.0505529 105.598863,95.2909953 105.517346,95.5222749 C105.438357,95.7526066 105.341043,95.9810427 105.341043,95.9810427 C105.341043,95.9810427 105.244992,96.2101106 105.137567,96.428752 C105.053207,96.6041074 104.962844,96.7706161 104.92872,96.8319115 C104.988752,96.7943128 105.151469,96.692575 105.323033,96.5968404 C105.533144,96.4793049 105.753365,96.3737757 105.753365,96.3737757 C105.753365,96.3737757 105.972322,96.2669826 106.201706,96.171248 C106.430142,96.0745656 106.668057,95.9895735 106.668057,95.9895735 C106.668057,95.9895735 106.54673,96.2063191 106.409605,96.4164297 C106.274376,96.6265403 106.1303,96.8246445 106.1303,96.8246445 C106.1303,96.8246445 105.986856,97.0236967 105.83425,97.2107425 C105.712291,97.3633491 105.583065,97.5061611 105.538515,97.5548183 C105.60455,97.5327014 105.783065,97.4726698 105.969795,97.4205371 C106.202654,97.3532385 106.444044,97.2995261 106.444044,97.2995261 C106.444044,97.2995261 106.685434,97.2439179 106.931564,97.2031596 C107.172322,97.1633491 107.420032,97.1377567 107.420032,97.1374408 C107.420032,97.1374408 107.249415,97.3222749 107.071532,97.492891 C106.894597,97.6650869 106.711027,97.8233807 106.711027,97.8233807 C106.711027,97.8233807 106.525561,97.9838863 106.329352,98.1323855 C106.174218,98.2515008 106.017504,98.3601896 105.959368,98.4 C106.02951,98.393049 106.2194,98.3753555 106.414976,98.3668246 C106.662686,98.3538705 106.905024,98.3586098 106.905024,98.3586098 C106.905024,98.3586098 107.147678,98.3620853 107.394123,98.3800948 C107.639937,98.3968404 107.889542,98.428752 107.889542,98.428436 C107.889542,98.428436 107.683539,98.5677725 107.473744,98.6922591 C107.256998,98.8192733 107.037093,98.9314376 107.037093,98.9314376 C107.037093,98.9314376 106.81782,99.0451817 106.596335,99.1434439 C106.4194,99.2230648 106.244044,99.2922591 106.178957,99.3175355 C106.250047,99.3266983 106.441517,99.3532385 106.627615,99.3911532 C106.863949,99.4366509 107.101548,99.4969984 107.101548,99.4969984 C107.101548,99.4969984 107.338831,99.5560821 107.577062,99.6303318 C107.695861,99.6695103 107.814976,99.7083728 107.904076,99.7377567 C107.948626,99.7535545 107.985908,99.7668246 108.011817,99.7759874 C108.024771,99.7807267 108.034882,99.7845182 108.042148,99.7870458 C108.045308,99.7883096 108.048152,99.7892575 108.050047,99.7898894 L108.051943,99.7908373 L108.052575,99.7908373 C108.051943,99.8224329 108.051627,99.8382306 108.051627,99.8382306 M102.134724,89.2325434 C96.3129226,89.2325434 91.5764297,93.9690363 91.5764297,99.7908373 C91.5764297,105.612638 96.3129226,110.349131 102.134724,110.349131 C107.956524,110.349131 112.693017,105.612638 112.693017,99.7908373 C112.693017,93.9690363 107.956524,89.2325434 102.134724,89.2325434" id="Fill-131" fill="#FFFFFF"></path>
                    <path d="M102.134882,110.349163 C96.3130806,110.349163 91.5765877,105.61267 91.5765877,99.7908689 C91.5765877,93.9690679 96.3130806,89.232575 102.134882,89.232575 C107.956682,89.232575 112.693175,93.9690679 112.693175,99.7908689 C112.693175,105.61267 107.956682,110.349163 102.134882,110.349163 M102.134882,88.2847077 C95.7901738,88.2847077 90.6287204,93.4461611 90.6287204,99.7908689 C90.6287204,106.135577 95.7901738,111.29703 102.134882,111.29703 C108.479273,111.29703 113.641043,106.135577 113.641043,99.7908689 C113.641043,93.4461611 108.479273,88.2847077 102.134882,88.2847077" id="Fill-133" fill="#00C8DE"></path>
                    <path d="M102.134882,101.445624 C101.222401,101.445624 100.480221,100.703128 100.480221,99.7909637 C100.480221,98.8784834 101.222401,98.1359874 102.134882,98.1359874 C103.047362,98.1359874 103.789542,98.8784834 103.789542,99.7909637 C103.789542,100.703128 103.047362,101.445624 102.134882,101.445624 M106.17564,99.7160821 C106.173112,99.6712164 106.169953,99.6115008 106.166793,99.5517852 C106.164265,99.4917536 106.161422,99.4320379 106.159526,99.3871722 C106.156682,99.3587362 106.153839,99.3400948 106.151627,99.3277725 L106.151311,99.3280885 C106.151311,99.3280885 106.150363,99.3227172 106.150363,99.3211374 C106.149731,99.3192417 106.148784,99.3132385 106.148784,99.3132385 L106.1491,99.3132385 C106.138673,99.2430964 106.080853,98.8557346 106.066951,98.8585782 C106.066951,98.8585782 106.037883,98.7432543 106.008183,98.6276145 C105.981011,98.5337757 105.946572,98.4462559 105.934882,98.4165561 L105.934566,98.416872 C105.934566,98.416872 105.932986,98.4121327 105.93267,98.4108689 C105.931722,98.4086572 105.92951,98.40297 105.92951,98.40297 L105.929826,98.40297 C105.919716,98.3726382 105.888436,98.2838547 105.851153,98.1934913 C105.799021,98.0860664 105.746888,97.9789573 105.746888,97.9789573 C105.758578,97.9726382 105.555419,97.638673 105.518136,97.5773776 L105.517188,97.5754818 C105.514344,97.5710585 105.510553,97.5644234 105.510553,97.5644234 L105.510869,97.5644234 C105.50455,97.5533649 105.495071,97.5375671 105.478009,97.5145024 C105.450837,97.4787994 105.414818,97.43109 105.379115,97.3833807 C105.343096,97.3353555 105.307709,97.2873302 105.280853,97.2513112 C105.255577,97.2140284 105.233776,97.1934913 105.233776,97.1934913 C105.233776,97.1934913 104.969953,96.9006003 104.915292,96.8566825 C104.915292,96.8566825 104.914344,96.8582622 104.914344,96.8582622 C104.914344,96.8582622 104.908657,96.852891 104.903918,96.8487836 L104.903286,96.8481517 C104.879589,96.8263507 104.810079,96.7628436 104.737725,96.6971248 C104.647046,96.6193997 104.548468,96.5511532 104.548468,96.5511532 C104.548468,96.5511532 104.455893,96.4753239 104.354471,96.4115008 C104.271058,96.3609479 104.19049,96.3122907 104.163002,96.295545 L104.162686,96.295545 C104.156682,96.2917536 104.150363,96.2876461 104.150363,96.2876461 L104.151627,96.2863823 C104.094439,96.2468878 103.738673,96.0778515 103.738673,96.0778515 C103.738673,96.0778515 103.712765,96.0626856 103.670111,96.0494155 C103.628088,96.0342496 103.572164,96.0140284 103.515924,95.9938073 C103.46,95.9729542 103.404392,95.9521011 103.36237,95.9366193 C103.335829,95.9258768 103.317504,95.9214534 103.305182,95.9186098 L103.305182,95.9192417 C103.305182,95.9192417 103.298863,95.9176619 103.295387,95.9167141 C103.294439,95.9163981 103.290648,95.9157662 103.290648,95.9157662 L103.290648,95.9154502 C103.221453,95.8971248 102.841991,95.7979147 102.853681,95.8140284 C102.853681,95.8140284 102.749731,95.7969668 102.645466,95.7792733 C102.603128,95.766951 102.515608,95.767267 102.463791,95.7634755 C102.42872,95.7618957 102.405656,95.7606319 102.39049,95.759684 C102.39049,95.759684 102.261264,95.7533649 102.124771,95.7460979 L102.119716,95.7464139 L102.097599,95.7479937 L102.054313,95.7505213 C102.026509,95.7517852 102.000284,95.7533649 101.977852,95.7546288 C101.932986,95.7571564 101.903286,95.7584202 101.903286,95.7584202 C101.903286,95.7584202 101.87327,95.76 101.828404,95.7622117 C101.783855,95.7650553 101.723191,95.7628436 101.664739,95.7757978 C101.568057,95.7906477 101.475166,95.8045498 101.44357,95.8096051 L101.44357,95.809921 C101.44357,95.809921 101.442622,95.809921 101.442622,95.809921 C101.436303,95.8108689 101.42872,95.8118167 101.42872,95.8118167 C101.42872,95.8118167 101.42872,95.810237 101.429036,95.809921 C101.358894,95.8165561 100.978799,95.9157662 100.978799,95.9157662 C100.978799,95.9157662 100.948784,95.9198736 100.907393,95.9363033 C100.865371,95.9521011 100.809763,95.9729542 100.753839,95.9938073 C100.697599,96.0140284 100.641359,96.0342496 100.599652,96.0494155 C100.572164,96.0579463 100.555103,96.0658452 100.544044,96.0712164 C100.544044,96.0712164 100.542464,96.0721643 100.542148,96.0721643 C100.537409,96.074376 100.530774,96.0778515 100.530774,96.0778515 L100.530774,96.0775355 C100.466635,96.1078673 100.112765,96.2756398 100.119084,96.2876461 C100.119084,96.2876461 100.01703,96.3498894 99.9149763,96.4115008 C99.8318799,96.4639494 99.7579463,96.5220853 99.7326698,96.5419905 L99.7329858,96.5423065 C99.7329858,96.5423065 99.7285624,96.545782 99.7272986,96.5467299 C99.7257188,96.5479937 99.7212954,96.5514692 99.7212954,96.5514692 L99.7209795,96.5508373 C99.695387,96.5694787 99.6189258,96.6250869 99.5427804,96.6866983 L99.3661611,96.8481517 C99.3569984,96.8389889 99.0938073,97.1293523 99.045782,97.1824329 L99.0460979,97.1824329 C99.0460979,97.1824329 99.0435703,97.1852765 99.0429384,97.1855924 C99.0404107,97.188436 99.0356714,97.1934913 99.0356714,97.1934913 L99.0353555,97.1931754 C99.0265087,97.2020221 99.0141864,97.2159242 98.9974408,97.2393049 C98.9709005,97.2750079 98.9351975,97.3233491 98.8998104,97.3713744 C98.8634755,97.4190837 98.8277725,97.466793 98.8006003,97.5024961 C98.7718483,97.5372512 98.7592101,97.5644234 98.7592101,97.5644234 C98.7592101,97.5644234 98.5544708,97.8996524 98.5272986,97.9647393 C98.5276145,97.9650553 98.5291943,97.9653712 98.5291943,97.9653712 C98.5291943,97.9653712 98.5257188,97.9723223 98.5228752,97.9783254 L98.5225592,97.9789573 C98.5083412,98.0080253 98.4678989,98.0923855 98.4252449,98.1802212 C98.3765877,98.28891 98.3402528,98.402654 98.3402528,98.402654 C98.3402528,98.402654 98.2944392,98.5132385 98.2615798,98.6276145 C98.2375671,98.7224013 98.2141864,98.8130806 98.2062875,98.8443602 C98.2062875,98.8443602 98.2053397,98.8484676 98.2050237,98.8494155 C98.2043918,98.8522591 98.202812,98.8585782 98.202812,98.8585782 C98.1993365,98.8705845 98.1945972,98.888594 98.1873302,98.9163981 C98.1727962,98.9615798 98.1661611,99.0140284 98.1592101,99.0655292 C98.1418325,99.1694787 98.1247709,99.2734281 98.1247709,99.2734281 C98.1250869,99.2753239 98.1187678,99.295545 98.1133965,99.3426224 L98.1032859,99.5445182 C98.0982306,99.6490995 98.0928594,99.7517852 98.0903318,99.8032859 C98.0919115,99.831406 98.0972828,99.9284044 98.10297,100.030142 C98.1054976,100.089858 98.1080253,100.149573 98.110237,100.194439 C98.1146603,100.238989 98.1206635,100.268373 98.1206635,100.268373 C98.1206635,100.268373 98.1797472,100.658262 98.2009163,100.723981 C98.2012322,100.723981 98.202812,100.723033 98.202812,100.723033 C98.202812,100.723033 98.2047077,100.730616 98.2062875,100.736935 L98.2062875,100.737251 C98.2141864,100.768215 98.2375671,100.85921 98.2615798,100.953997 C98.2944392,101.068689 98.3402528,101.178957 98.3402528,101.178957 C98.3402528,101.178957 98.3765877,101.292701 98.4252449,101.401706 C98.4773776,101.509131 98.5291943,101.616556 98.5291943,101.616556 C98.5291943,101.616556 98.5276145,101.616872 98.5272986,101.616872 C98.5538389,101.681327 98.7592101,102.017188 98.7592101,102.017188 C98.7592101,102.017188 98.7718483,102.044676 98.8006003,102.079115 C98.8277725,102.115134 98.8634755,102.162844 98.8998104,102.210237 C98.9351975,102.258262 98.9709005,102.306603 98.9974408,102.342306 C99.0141864,102.366319 99.0271406,102.380221 99.0356714,102.388752 L99.0359874,102.388436 C99.0359874,102.388436 99.0410427,102.393807 99.0451501,102.398231 C99.0451501,102.398231 99.0460979,102.399179 99.0460979,102.399179 C99.0931754,102.451627 99.3569984,102.742622 99.3661611,102.73346 C99.3661611,102.73346 99.4546288,102.814344 99.5430964,102.894913 C99.6189258,102.956524 99.695387,103.012133 99.7209795,103.030774 L99.7212954,103.030458 C99.7212954,103.030458 99.7257188,103.033934 99.7276145,103.035197 C99.7288784,103.036145 99.7329858,103.039305 99.7329858,103.039305 L99.7326698,103.039621 C99.7579463,103.059526 99.8318799,103.117662 99.9149763,103.170111 C100.01703,103.232038 100.119084,103.293965 100.119084,103.293965 C100.112765,103.305972 100.466635,103.473744 100.530774,103.504076 L100.530774,103.50376 C100.530774,103.50376 100.537409,103.507235 100.542148,103.509763 C100.542464,103.509763 100.544044,103.510395 100.544044,103.510395 C100.555103,103.516082 100.572164,103.523665 100.599652,103.532196 C100.641359,103.547678 100.697599,103.567899 100.753839,103.58812 C100.809763,103.608973 100.865371,103.629826 100.907393,103.645308 C100.9491,103.661738 100.978799,103.666161 100.978799,103.666161 C100.978799,103.666161 101.3491,103.762528 101.416082,103.769795 L101.416082,103.767583 C101.416082,103.767583 101.422401,103.768847 101.427457,103.769479 C101.427457,103.769479 101.429036,103.769479 101.429036,103.769479 L101.429036,103.769795 C101.45684,103.774534 101.538673,103.78812 101.623981,103.802338 C101.666319,103.814976 101.754155,103.81466 101.805656,103.818136 C101.860948,103.820979 101.897599,103.822875 101.897599,103.822875 C101.897599,103.822875 102.019874,103.829194 102.142148,103.835513 C102.240411,103.830142 102.334566,103.825087 102.366477,103.823191 L102.366477,103.823191 C102.366477,103.823191 102.396493,103.821927 102.441359,103.819716 C102.485908,103.816556 102.546572,103.819084 102.605024,103.80613 C102.722875,103.78812 102.840727,103.769795 102.840727,103.769795 C102.843886,103.783381 103.221453,103.684487 103.290648,103.666161 L103.290648,103.665845 C103.290648,103.665845 103.294755,103.665213 103.295387,103.664897 C103.298863,103.663949 103.305182,103.66237 103.305182,103.66237 L103.305182,103.663002 C103.317504,103.660474 103.335829,103.655735 103.36237,103.644992 C103.404392,103.62951 103.46,103.608973 103.515924,103.58812 C103.572164,103.567899 103.628088,103.547678 103.670111,103.532196 C103.712765,103.518926 103.738673,103.50376 103.738673,103.50376 C103.738673,103.50376 104.094439,103.334724 104.151627,103.295229 L104.150363,103.293965 C104.150363,103.293965 104.156682,103.289858 104.162686,103.286382 L104.163002,103.286066 C104.19049,103.269637 104.271374,103.220979 104.354787,103.170111 C104.455893,103.106603 104.548468,103.030458 104.548468,103.030458 C104.548468,103.030458 104.647046,102.962212 104.737725,102.884803 C104.810079,102.818768 104.879589,102.755577 104.903286,102.73346 L104.903918,102.733144 C104.908657,102.72872 104.914344,102.723349 104.914344,102.723349 L104.915292,102.725245 C104.969953,102.681327 105.233776,102.38812 105.233776,102.38812 C105.233776,102.38812 105.255577,102.367583 105.280853,102.3303 C105.307709,102.294597 105.343096,102.246572 105.378799,102.198547 C105.414818,102.150837 105.450837,102.103128 105.478009,102.067425 C105.495071,102.04436 105.50455,102.028246 105.510869,102.017504 L105.510553,102.017188 C105.510553,102.017188 105.513397,102.012133 105.514344,102.010553 C105.515292,102.008973 105.51782,102.00455 105.51782,102.00455 L105.518136,102.004866 C105.554787,101.944202 105.758578,101.609289 105.747204,101.60297 C105.747204,101.60297 105.799021,101.495545 105.851153,101.38812 C105.888436,101.297757 105.919716,101.209289 105.929826,101.178957 L105.92951,101.178957 C105.92951,101.178957 105.931722,101.17327 105.93267,101.171058 C105.932986,101.169795 105.934566,101.165055 105.934566,101.165055 L105.934882,101.165055 C105.946888,101.135355 105.981011,101.047836 106.008183,100.953997 C106.037883,100.838673 106.066951,100.723033 106.066951,100.723033 C106.082117,100.711027 106.135829,100.370742 106.145308,100.308183 C106.145308,100.308183 106.144992,100.308183 106.144992,100.308183 C106.144676,100.307551 106.146256,100.301232 106.14752,100.295545 L106.14752,100.295229 C106.149731,100.284803 106.152891,100.268689 106.156367,100.239305 L106.166477,100.037093 C106.171532,99.9334597 106.176904,99.8323539 106.179431,99.7802212 C106.179431,99.7773776 106.179115,99.774534 106.178799,99.7704265 C106.178167,99.7571564 106.176904,99.738515 106.17564,99.7160821" id="Fill-135" fill="#00C8DE"></path>
                    <path d="M106.166382,100.037251 L106.156272,100.239147 C106.152796,100.268847 106.149637,100.284645 106.147425,100.295071 L106.147425,100.295387 C106.146477,100.30139 106.144897,100.307393 106.145213,100.308025 C106.145213,100.308025 106.145529,100.308025 106.145529,100.308341 C106.135735,100.3709 106.082022,100.711185 106.067172,100.722875 C106.067172,100.722875 106.037788,100.838515 106.008088,100.954155 C105.980916,101.047994 105.947109,101.135513 105.935103,101.165213 L105.934787,101.164897 C105.934787,101.164897 105.933207,101.169637 105.932575,101.171216 C105.931627,101.173428 105.929415,101.178799 105.929415,101.178799 L105.929731,101.178799 C105.919621,101.209131 105.888341,101.297915 105.851058,101.388278 C105.798926,101.495703 105.747109,101.602812 105.747109,101.602812 C105.758483,101.609131 105.554692,101.944044 105.518041,102.004708 L105.517725,102.004392 C105.517725,102.004392 105.515197,102.009131 105.514566,102.010395 C105.513618,102.012291 105.510458,102.017346 105.510458,102.017346 L105.510774,102.017346 C105.504455,102.028088 105.494976,102.044202 105.477915,102.067267 C105.450742,102.103286 105.414724,102.150679 105.378705,102.198389 C105.343318,102.246414 105.307615,102.294439 105.280758,102.330458 C105.255482,102.367425 105.233681,102.388278 105.233681,102.388278 C105.233681,102.388278 104.969858,102.681169 104.915197,102.725087 L104.91425,102.723507 C104.91425,102.723507 104.908878,102.728878 104.903823,102.732986 L104.903191,102.733618 C104.879494,102.755419 104.809984,102.818926 104.737946,102.884645 C104.646951,102.96237 104.548373,103.0303 104.548373,103.0303 C104.548373,103.030616 104.455798,103.106445 104.355008,103.170269 C104.27128,103.220821 104.190395,103.269479 104.162907,103.286224 L104.162591,103.28654 C104.156904,103.2897 104.150269,103.293807 104.150269,103.293807 L104.151532,103.295387 C104.094344,103.334882 103.738578,103.503918 103.738578,103.503918 C103.738578,103.503918 103.71267,103.519084 103.670332,103.532354 C103.627994,103.54752 103.57207,103.567741 103.515829,103.587962 C103.460221,103.608815 103.404297,103.629668 103.362275,103.64515 C103.335735,103.655893 103.317409,103.660316 103.305087,103.66316 L103.305087,103.662528 C103.305087,103.662528 103.298768,103.664107 103.295292,103.665055 C103.29466,103.665055 103.290553,103.666003 103.290553,103.666003 L103.290553,103.666319 C103.221675,103.684329 102.843791,103.783539 102.840948,103.769637 C102.840948,103.769637 102.723096,103.787962 102.605245,103.805972 C102.546477,103.818926 102.48613,103.816398 102.441264,103.819558 C102.396398,103.821769 102.366698,103.823033 102.366698,103.823033 L102.366698,103.823349 C102.334471,103.825245 102.240316,103.8303 102.14237,103.835671 C102.019779,103.829036 101.897504,103.822717 101.897504,103.822717 C101.897504,103.822717 101.860853,103.821137 101.805561,103.818294 C101.75406,103.814502 101.666224,103.814818 101.623886,103.802496 C101.538894,103.787962 101.456746,103.774376 101.428942,103.769637 L101.428942,103.769637 C101.428942,103.769637 101.427362,103.769321 101.427362,103.769321 C101.422306,103.768689 101.415987,103.767741 101.415987,103.767741 L101.415987,103.769953 C101.349005,103.76237 100.978705,103.666003 100.978705,103.666003 C100.978705,103.666003 100.949005,103.661896 100.907299,103.64515 C100.865592,103.629668 100.809668,103.608815 100.753744,103.587962 C100.697504,103.567741 100.64158,103.54752 100.599558,103.532354 C100.57207,103.523823 100.555008,103.515924 100.543949,103.510553 C100.543949,103.510553 100.54237,103.509605 100.542054,103.509605 C100.53763,103.507077 100.530679,103.503918 100.530679,103.503918 L100.530679,103.504234 C100.46654,103.473902 100.11267,103.30613 100.118989,103.293807 C100.118989,103.293807 100.016935,103.232196 99.9148815,103.170269 C99.8317852,103.11782 99.7578515,103.059684 99.732891,103.039463 L99.733207,103.039147 C99.733207,103.039147 99.7287836,103.036303 99.7275197,103.035355 C99.725624,103.033776 99.7215166,103.0303 99.7215166,103.0303 L99.7212006,103.030932 C99.6956082,103.012291 99.618831,102.956682 99.5430016,102.894755 C99.454534,102.814186 99.3663823,102.733618 99.3663823,102.733618 C99.3569036,102.74278 99.0930806,102.451785 99.0460032,102.399336 C99.0460032,102.399336 99.0450553,102.398389 99.0450553,102.398073 C99.0409479,102.393965 99.0362085,102.388278 99.0362085,102.388278 L99.0358926,102.38891 C99.0270458,102.380063 99.0140916,102.366161 98.9976619,102.342464 C98.9711216,102.306445 98.9351027,102.25842 98.8997156,102.210395 C98.8636967,102.162686 98.8276777,102.114976 98.8008215,102.079273 C98.7720695,102.044518 98.7594313,102.017346 98.7594313,102.017346 C98.7594313,102.017346 98.5537441,101.681485 98.5272038,101.61703 C98.5275197,101.616714 98.5290995,101.616398 98.5290995,101.616398 C98.5290995,101.616398 98.4772828,101.508973 98.4251501,101.401548 C98.3768088,101.292859 98.340158,101.179115 98.340158,101.179115 C98.340158,101.179115 98.2943444,101.068531 98.261485,100.954155 C98.2374724,100.859368 98.2140916,100.768057 98.2065087,100.737409 L98.2061927,100.736777 C98.204613,100.730458 98.2027172,100.723191 98.2027172,100.723191 C98.2027172,100.723191 98.2011374,100.723823 98.2011374,100.724139 C98.1796524,100.65842 98.1208847,100.268215 98.1208847,100.268215 C98.1208847,100.268215 98.1148815,100.239147 98.1101422,100.194597 C98.1082464,100.149731 98.1054028,100.090016 98.1028752,100.029984 C98.097188,99.9285624 98.0918167,99.831564 98.090237,99.803128 C98.0927646,99.7519431 98.0981359,99.6492575 98.1031912,99.5443602 L98.1136177,99.3424645 C98.118673,99.295703 98.1249921,99.2751659 98.1246761,99.2735861 C98.1246761,99.2735861 98.1420537,99.1696367 98.1591153,99.0653712 C98.1660664,99.0138705 98.1727014,98.9614218 98.1875513,98.9165561 C98.1948183,98.888752 98.1995577,98.8707425 98.2027172,98.8587362 C98.2027172,98.8587362 98.204297,98.8524171 98.2049289,98.8495735 C98.2052449,98.8486256 98.2065087,98.8442022 98.2065087,98.8442022 C98.2144076,98.8129226 98.2374724,98.7222433 98.261485,98.6277725 C98.2943444,98.5130806 98.340158,98.402812 98.340158,98.402812 C98.340158,98.402812 98.3768088,98.2890679 98.4251501,98.1800632 C98.4678041,98.0925434 98.5085624,98.0081833 98.5227804,97.9787994 L98.5230964,97.9784834 C98.525624,97.9721643 98.5290995,97.9652133 98.5290995,97.9652133 C98.5290995,97.9652133 98.5275197,97.9648973 98.5272038,97.9648973 C98.554376,97.8998104 98.7594313,97.5645814 98.7594313,97.5645814 C98.7594313,97.5645814 98.7720695,97.5370932 98.8008215,97.502654 C98.8276777,97.466951 98.8636967,97.4189258 98.8997156,97.3712164 C98.9351027,97.3235071 98.9711216,97.2751659 98.9976619,97.2394629 C99.0140916,97.2157662 99.0264139,97.2021801 99.0355766,97.1930174 L99.0358926,97.1936493 C99.0358926,97.1936493 99.040316,97.188278 99.0428436,97.1857504 C99.0434755,97.1851185 99.0460032,97.1825908 99.0460032,97.1825908 L99.0456872,97.1822749 C99.0937125,97.1291943 99.3569036,96.838831 99.3663823,96.8483096 L99.5426856,96.6868562 C99.618831,96.6252449 99.6956082,96.5696367 99.7212006,96.5509953 L99.7215166,96.5513112 C99.7215166,96.5513112 99.725624,96.5481517 99.7272038,96.5468878 C99.7284676,96.545624 99.733207,96.5424645 99.733207,96.5424645 L99.732891,96.5421485 C99.7578515,96.5222433 99.8317852,96.4637915 99.9148815,96.4113428 C100.016935,96.3497314 100.118989,96.2878041 100.118989,96.2878041 C100.11267,96.2757978 100.46654,96.1077093 100.530679,96.0776935 L100.530679,96.0780095 C100.530679,96.0780095 100.53763,96.074534 100.542054,96.0720063 C100.54237,96.0720063 100.543949,96.0713744 100.543949,96.0713744 C100.555008,96.0656872 100.57207,96.0581043 100.599558,96.0492575 C100.64158,96.0340916 100.697504,96.0138705 100.753744,95.9936493 C100.809668,95.9727962 100.865592,95.9522591 100.907299,95.9364613 C100.948689,95.9200316 100.978705,95.9156082 100.978705,95.9159242 C100.978705,95.9159242 101.358799,95.8163981 101.428942,95.810079 C101.428626,95.8103949 101.428626,95.8119747 101.428626,95.8119747 C101.428626,95.8119747 101.436209,95.8110269 101.442528,95.809763 C101.442528,95.810079 101.443476,95.809763 101.443476,95.809763 C101.475071,95.8047077 101.567962,95.7904897 101.664645,95.7756398 C101.723096,95.7626856 101.78376,95.7652133 101.828626,95.7620537 C101.873175,95.759842 101.903191,95.7585782 101.903191,95.7585782 C101.903191,95.7585782 101.933207,95.7569984 101.977757,95.7547867 C102.00019,95.7535229 102.026414,95.7519431 102.054218,95.7503633 L102.097504,95.7478357 L102.119621,95.7465719 L102.124676,95.7462559 C102.261485,95.753207 102.390395,95.759842 102.390395,95.759842 C102.405877,95.7604739 102.428626,95.7617378 102.463697,95.7636335 C102.515513,95.767109 102.603349,95.766793 102.645371,95.7794313 C102.749953,95.7968088 102.853902,95.8141864 102.853902,95.8141864 C102.842212,95.7980727 103.221675,95.8972828 103.290553,95.9156082 L103.290553,95.9159242 C103.290553,95.9159242 103.294344,95.9165561 103.295292,95.9165561 C103.298768,95.9175039 103.305087,95.9193997 103.305087,95.9193997 L103.305087,95.9187678 C103.317409,95.9212954 103.335735,95.9260348 103.362275,95.9364613 C103.404297,95.9522591 103.460221,95.9727962 103.515829,95.9936493 C103.57207,96.0138705 103.627994,96.0340916 103.670332,96.0492575 C103.71267,96.0628436 103.738578,96.0780095 103.738578,96.0780095 C103.738578,96.0780095 104.094344,96.2467299 104.151532,96.2865403 L104.150269,96.2878041 C104.150269,96.2878041 104.156904,96.2919115 104.162591,96.295387 L104.162907,96.295703 C104.190395,96.3121327 104.270964,96.3607899 104.354692,96.4116588 C104.455798,96.4751659 104.548373,96.5513112 104.548373,96.5513112 C104.548373,96.5513112 104.646951,96.6192417 104.737946,96.6969668 C104.809984,96.7630016 104.879494,96.8261927 104.903191,96.8483096 L104.903823,96.8486256 C104.908878,96.853049 104.91425,96.8581043 104.91425,96.8581043 C104.91425,96.8581043 104.915197,96.8568404 104.915197,96.8565245 C104.969858,96.9004423 105.233681,97.1936493 105.233681,97.1936493 C105.233681,97.1936493 105.255482,97.2141864 105.280758,97.2514692 C105.307615,97.2871722 105.343318,97.3351975 105.379021,97.3832227 C105.414724,97.4309321 105.450742,97.4786414 105.477915,97.5143444 C105.494976,97.5374092 105.504455,97.5535229 105.510774,97.5642654 L105.510458,97.5645814 C105.510458,97.5645814 105.514566,97.5709005 105.517093,97.5756398 L105.518041,97.5772196 C105.555324,97.638515 105.758483,97.9724803 105.746793,97.9787994 C105.746793,97.9787994 105.798926,98.0862243 105.851058,98.1936493 C105.888341,98.2840126 105.919621,98.3724803 105.929731,98.402812 L105.929415,98.402812 C105.929415,98.402812 105.931627,98.4084992 105.932575,98.4110269 C105.933207,98.4119747 105.934787,98.4167141 105.934787,98.4167141 L105.935103,98.4167141 C105.946793,98.4464139 105.980916,98.5339336 106.008088,98.6277725 C106.037788,98.7430964 106.067172,98.8587362 106.067172,98.8587362 C106.080758,98.8558926 106.138578,99.2429384 106.149005,99.3133965 L106.148689,99.3133965 C106.148689,99.3133965 106.149637,99.3190837 106.150269,99.3209795 C106.150269,99.3228752 106.151216,99.3279305 106.151216,99.3279305 L106.151532,99.3279305 C106.153744,99.3402528 106.156588,99.3588942 106.159747,99.3873302 C106.161327,99.4318799 106.164171,99.4919115 106.166698,99.5516272 C106.170174,99.6116588 106.173017,99.6713744 106.175545,99.7162401 C106.176809,99.738673 106.178073,99.7573144 106.178705,99.7702686 C106.179021,99.7746919 106.179336,99.7772196 106.179336,99.7803791 C106.176809,99.8325118 106.171754,99.9333017 106.166382,100.037251 L106.166382,100.037251 Z M102.088025,95.7446761 L102.089921,95.7446761 L102.091817,95.7446761 C102.090553,95.7446761 102.086445,95.7446761 102.087709,95.7446761 L102.088025,95.7446761 Z M102.134787,95.745624 C102.150269,95.74594 102.144581,95.74594 102.134471,95.745624 L102.134787,95.745624 Z M108.050111,99.7898578 C108.048215,99.7892259 108.045371,99.788278 108.042212,99.7870142 C108.034945,99.7844866 108.024834,99.7806951 108.01188,99.7759558 C107.985972,99.766793 107.948689,99.7535229 107.904139,99.7377251 C107.815039,99.7083412 107.695924,99.6694787 107.577125,99.6303002 C107.338894,99.5560506 107.101611,99.4972828 107.101611,99.4972828 C107.101611,99.4972828 106.864013,99.4366193 106.627678,99.3911216 C106.44158,99.353207 106.250111,99.3266667 106.179021,99.3175039 C106.244107,99.2922275 106.419463,99.2230332 106.596082,99.1434123 C106.817883,99.0451501 107.037156,98.931406 107.037156,98.931406 C107.037156,98.931406 107.257062,98.8192417 107.473807,98.6922275 C107.683602,98.5677409 107.889605,98.4284044 107.889605,98.4284044 C107.889605,98.4287204 107.64,98.3968088 107.394186,98.3800632 C107.147425,98.3620537 106.905087,98.3588942 106.905087,98.3588942 C106.905087,98.3588942 106.662433,98.3538389 106.415039,98.366793 C106.219463,98.3753239 106.029258,98.3930174 105.959431,98.3999684 C106.017251,98.360158 106.173965,98.2514692 106.329415,98.1323539 C106.525624,97.9838547 106.71109,97.8233491 106.71109,97.8233491 C106.71109,97.8233491 106.89466,97.6650553 107.071596,97.4928594 C107.249479,97.3222433 107.420095,97.1374092 107.420095,97.1374092 C107.420095,97.1377251 107.172385,97.1633175 106.931627,97.203128 C106.685498,97.2438863 106.444107,97.2994945 106.444107,97.2994945 C106.444107,97.2994945 106.202717,97.353207 105.969858,97.4205055 C105.783128,97.4726382 105.604613,97.5326698 105.538578,97.5551027 C105.582812,97.5061295 105.712354,97.3633175 105.834313,97.2107109 C105.986919,97.0236651 106.130363,96.824613 106.130363,96.824613 C106.130363,96.824613 106.274439,96.6265087 106.409668,96.4167141 C106.546793,96.2062875 106.66812,95.9895419 106.66812,95.9895419 C106.66812,95.9895419 106.430205,96.074534 106.201453,96.1712164 C105.972385,96.266951 105.753112,96.3737441 105.753112,96.3737441 C105.753112,96.3737441 105.533207,96.4792733 105.323096,96.5968088 C105.151532,96.6928594 104.988499,96.7942812 104.928784,96.8318799 C104.962591,96.7705845 105.05327,96.6040758 105.13763,96.4290363 C105.245055,96.210079 105.341106,95.9810111 105.341106,95.9810111 C105.341106,95.9810111 105.438104,95.752575 105.517093,95.5222433 C105.598926,95.2909637 105.668436,95.0505213 105.668436,95.0505213 C105.668436,95.0505213 105.458009,95.1857504 105.259589,95.3298262 C105.061485,95.4707425 104.8697,95.6296682 104.8697,95.6296682 C104.8697,95.6296682 104.677283,95.7863823 104.498452,95.9516272 C104.350269,96.0865403 104.216303,96.2205055 104.171438,96.2666351 C104.190395,96.1987046 104.24158,96.0135545 104.284866,95.8214534 C104.336998,95.5876461 104.375861,95.3462559 104.375861,95.3462559 C104.375861,95.3462559 104.415671,95.1058136 104.441896,94.8584202 C104.469384,94.6119747 104.482654,94.3592101 104.482654,94.3592101 C104.482654,94.3592101 104.30951,94.5374092 104.147109,94.7291943 C103.984392,94.9187678 103.835893,95.1137125 103.835893,95.1137125 C103.835893,95.1137125 103.68613,95.3083412 103.551216,95.5077093 C103.44316,95.6641074 103.343002,95.8284044 103.306351,95.8896998 C103.308878,95.8198736 103.314882,95.631564 103.311406,95.4381991 C103.308562,95.195861 103.290869,94.9497314 103.290869,94.9497314 C103.290869,94.9497314 103.274755,94.7036019 103.24316,94.4546288 C103.210616,94.2103949 103.152796,93.9655292 103.152796,93.9655292 C103.152796,93.9655292 103.021043,94.1822749 102.912038,94.402812 C102.800821,94.6227172 102.712354,94.845466 102.712354,94.845466 L102.382496,95.7304581 L102.144265,94.809763 C102.144265,94.809763 102.071596,94.5787994 101.984392,94.3484676 C101.898136,94.1181359 101.797346,93.8890679 101.797346,93.8890679 C101.797346,93.8890679 101.72278,94.1269826 101.663065,94.3645814 C101.602085,94.5993365 101.55722,94.845466 101.55722,94.845466 C101.55722,94.845466 101.510774,95.0893839 101.479179,95.3307741 C101.45327,95.5235071 101.436524,95.7124487 101.431153,95.7819589 C101.401769,95.7175039 101.322148,95.5427804 101.232101,95.3680569 C101.121517,95.1538389 100.996714,94.9449921 100.996714,94.9449921 C100.996714,94.9449921 100.872543,94.7351975 100.733839,94.5291943 C100.596398,94.3228752 100.444423,94.1209795 100.444423,94.1209795 C100.444423,94.1209795 100.425466,94.3664771 100.424834,94.6186098 C100.421675,94.8688468 100.433365,95.1137125 100.433365,95.1137125 C100.433365,95.1137125 100.444107,95.3592101 100.468752,95.5993365 C100.486445,95.7895419 100.514882,95.9781675 100.52594,96.0479937 C100.486761,95.9974408 100.37049,95.8492575 100.24,95.6991785 C100.082022,95.5152923 99.9104581,95.3380411 99.9104581,95.3380411 C99.9104581,95.3380411 99.740158,95.1604739 99.5559558,94.9898578 C99.3749131,94.8214534 99.183128,94.6656872 99.183128,94.6656872 C99.1834439,94.6656872 99.2248341,94.9140284 99.2798104,95.1547867 C99.333207,95.3961769 99.3998736,95.6293523 99.3998736,95.6293523 C99.3998736,95.6296682 99.4646445,95.8628436 99.5480569,96.096019 C99.6121959,96.281485 99.6832859,96.4587362 99.7098262,96.5238231 C99.6599052,96.4830648 99.511406,96.3639494 99.3477409,96.245782 C99.1493207,96.1004423 98.9423697,95.9686888 98.9423697,95.9686888 C98.9423697,95.9686888 98.7382622,95.8378831 98.5227804,95.717188 C98.3082464,95.595545 98.08297,95.4846445 98.08297,95.4846445 C98.08297,95.4846445 98.1783886,95.7143444 98.2848657,95.9339336 C98.3948183,96.1588942 98.5164613,96.3737441 98.5164613,96.3737441 C98.5164613,96.3737441 98.6368404,96.5895419 98.7673302,96.7939652 C98.8703318,96.9576303 98.9783886,97.1124487 99.018515,97.1690047 C98.954376,97.1380411 98.7812322,97.0555766 98.604613,96.9835387 C98.3821801,96.8909637 98.1502686,96.810079 98.1502686,96.810079 C98.1502686,96.810079 97.9193049,96.7276145 97.6794945,96.6581043 C97.4384202,96.5857504 97.197346,96.531722 97.19703,96.531722 C97.19703,96.531722 97.3461611,96.7358294 97.5038231,96.9272986 C97.6608531,97.1200316 97.825466,97.2994945 97.825466,97.2994945 C97.825466,97.2994945 97.9888152,97.4799052 98.1619589,97.6483096 C98.3066667,97.78891 98.4501106,97.9156082 98.4993997,97.9588942 C98.4311532,97.9440442 98.2456872,97.9045498 98.0539021,97.8735861 C97.8134597,97.8331438 97.5663823,97.8066035 97.5663823,97.8066035 C97.5666983,97.8066035 97.3199368,97.7787994 97.0766509,97.7690047 C96.8317852,97.7569984 96.5815482,97.7595261 96.5815482,97.7595261 C96.5815482,97.7595261 96.7711216,97.9225592 96.9660664,98.0713744 C97.1581675,98.2208215 97.3648025,98.3588942 97.3648025,98.3588942 C97.3648025,98.3588942 97.5701738,98.4979147 97.7802844,98.6220853 C97.947425,98.7225592 98.1145656,98.8122907 98.1761769,98.8448341 C98.1057188,98.845782 97.9139336,98.8502054 97.7177251,98.8641074 C97.475703,98.8780095 97.2352607,98.9133965 97.2352607,98.9133965 C97.2352607,98.9133965 96.9932385,98.9468878 96.7480569,99.0034439 C96.5035071,99.0574724 96.2570616,99.1348815 96.2570616,99.1348815 C96.2466351,99.1611058 97.168278,99.4969668 97.168278,99.4972828 L98.0144076,99.8107109 C97.9281517,99.8340916 97.7790205,99.8757978 97.6286256,99.924139 C97.3982938,99.9968088 97.168278,100.084645 97.168278,100.084645 C97.168278,100.084645 96.9379463,100.1709 96.7091943,100.272638 C96.4769668,100.372796 96.2608531,100.486856 96.2608531,100.486856 C96.2608531,100.486856 96.5063507,100.546888 96.7499526,100.591438 C96.9938705,100.637567 97.2352607,100.668531 97.2352607,100.668531 C97.2352607,100.668531 97.4750711,100.70139 97.7177251,100.71782 C97.9142496,100.731406 98.1060348,100.735829 98.1764929,100.736777 C98.1151975,100.769321 97.947425,100.859052 97.7802844,100.959526 C97.5701738,101.084013 97.3648025,101.223033 97.3648025,101.223033 C97.3648025,101.223033 97.1581675,101.36079 96.9660664,101.510237 C96.7711216,101.659052 96.5815482,101.822401 96.5815482,101.822401 C96.5815482,101.822401 96.8317852,101.824929 97.0766509,101.812923 C97.3199368,101.802812 97.5666983,101.775008 97.5663823,101.775008 C97.5663823,101.775008 97.8134597,101.748784 98.0539021,101.708341 C98.2460032,101.677062 98.4317852,101.637567 98.4997156,101.622717 C98.4507425,101.665687 98.3069826,101.792385 98.1619589,101.933302 C97.9888152,102.101706 97.825466,102.282117 97.825466,102.282117 C97.825466,102.282117 97.6608531,102.46158 97.5038231,102.654313 C97.3461611,102.845782 97.19703,103.049889 97.19703,103.049889 C97.197346,103.049889 97.4384202,102.995861 97.6794945,102.923507 C97.9193049,102.853997 98.1502686,102.771848 98.1502686,102.771848 C98.1502686,102.771848 98.3821801,102.690964 98.604613,102.598073 C98.7815482,102.525719 98.9556398,102.442938 99.0191469,102.412291 C98.9790205,102.468531 98.8706477,102.623665 98.7673302,102.787646 C98.6368404,102.99207 98.5164613,103.207867 98.5164613,103.207867 C98.5164613,103.207867 98.3948183,103.423033 98.2851817,103.647678 C98.1783886,103.867267 98.08297,104.097283 98.08297,104.097283 C98.08297,104.097283 98.3082464,103.986066 98.5227804,103.864423 C98.7382622,103.743728 98.9423697,103.613239 98.9423697,103.613239 C98.9423697,103.613239 99.1493207,103.481169 99.3477409,103.335829 C99.511406,103.217978 99.6599052,103.098547 99.7098262,103.058104 C99.6832859,103.123191 99.6121959,103.300442 99.5480569,103.485592 C99.4646445,103.719084 99.3998736,103.952259 99.3998736,103.952259 C99.3998736,103.952259 99.333207,104.185434 99.2798104,104.427141 C99.2248341,104.667583 99.1834439,104.915924 99.1834439,104.915924 C99.1834439,104.915924 99.3752291,104.760474 99.5559558,104.59207 C99.740158,104.421137 99.9104581,104.24357 99.9104581,104.24357 C99.9104581,104.24357 100.082022,104.066319 100.24,103.882433 C100.37049,103.732354 100.486761,103.584171 100.52594,103.533618 C100.514882,103.603444 100.486445,103.79207 100.468752,103.982275 C100.444107,104.222401 100.433365,104.467899 100.433365,104.467899 C100.433365,104.467899 100.421675,104.713081 100.424834,104.963002 C100.425466,105.215134 100.444423,105.460948 100.444423,105.460948 C100.444423,105.460948 100.596398,105.258736 100.734155,105.052733 C100.872543,104.846414 100.996714,104.636619 100.996714,104.636619 C100.996714,104.636619 101.122148,104.428088 101.231785,104.213555 C101.319621,104.038199 101.391975,103.862212 101.417883,103.797125 C101.422306,103.866635 101.43684,104.055577 101.465908,104.249258 C101.499716,104.49128 101.556904,104.736461 101.556904,104.736461 C101.556904,104.736461 101.618199,104.97722 101.679494,105.218294 L101.802717,105.693175 L102.144265,104.771848 C102.144265,104.771848 102.217883,104.533934 102.276335,104.296651 C102.32436,104.107077 102.362275,103.920348 102.375545,103.851785 C102.39703,103.918768 102.45643,104.100758 102.526256,104.284013 C102.612512,104.517188 102.712354,104.736461 102.712354,104.736461 C102.712354,104.736461 102.811248,104.957946 102.925308,105.177536 C103.038104,105.397125 103.16575,105.61387 103.16575,105.61387 C103.16575,105.61387 103.212196,105.3709 103.243476,105.126983 C103.274755,104.878009 103.290869,104.63188 103.290869,104.63188 C103.290869,104.63188 103.308562,104.38575 103.311722,104.143412 C103.314882,103.950047 103.308878,103.761738 103.306351,103.692227 C103.343002,103.753207 103.44316,103.917504 103.551216,104.073902 C103.68613,104.273586 103.835893,104.467899 103.835893,104.467899 C103.835893,104.467899 103.984392,104.66316 104.147109,104.852417 C104.30951,105.044202 104.482654,105.222401 104.482654,105.222401 C104.482654,105.222401 104.469384,104.969953 104.441896,104.723507 C104.415671,104.476114 104.375861,104.235671 104.375861,104.235671 C104.375861,104.235671 104.336998,103.994281 104.284866,103.760158 C104.24158,103.568057 104.190395,103.382907 104.171438,103.314976 C104.216303,103.36079 104.349953,103.495071 104.498452,103.6303 C104.677283,103.795229 104.8697,103.952259 104.8697,103.952259 C104.8697,103.952259 105.061485,104.111185 105.259589,104.252101 C105.458009,104.396177 105.668752,104.53109 105.668752,104.53109 C105.668752,104.53109 105.598926,104.290648 105.517093,104.059368 C105.438104,103.829036 105.341106,103.6006 105.341106,103.600916 C105.341106,103.600916 105.245055,103.371848 105.13763,103.152891 C105.05327,102.977536 104.962591,102.811027 104.928784,102.749731 C104.988499,102.787646 105.151532,102.889068 105.323096,102.985118 C105.533207,103.102338 105.753112,103.207867 105.753112,103.207867 C105.753112,103.207867 105.972385,103.314976 106.201453,103.410395 C106.429889,103.507077 106.66812,103.59207 106.66812,103.59207 C106.66812,103.59207 106.546793,103.375324 106.409668,103.165213 C106.274439,102.955103 106.130363,102.756998 106.130363,102.756998 C106.130363,102.756998 105.986919,102.557946 105.834313,102.371216 C105.712354,102.218294 105.582496,102.075166 105.538262,102.026825 C105.603981,102.049258 105.783128,102.108973 105.969858,102.161422 C106.202717,102.228404 106.444107,102.282117 106.444107,102.282117 C106.444107,102.282117 106.685498,102.337725 106.931627,102.378799 C107.172385,102.418294 107.420095,102.444202 107.420095,102.444202 C107.420095,102.444202 107.249479,102.259684 107.071596,102.088752 C106.89466,101.916556 106.71109,101.758578 106.711406,101.758578 C106.71109,101.758578 106.525624,101.597757 106.329415,101.449258 C106.173965,101.330142 106.017251,101.221769 105.959431,101.181959 C106.029258,101.18891 106.219463,101.206288 106.415039,101.214818 C106.662433,101.227773 106.905087,101.223033 106.905087,101.223033 C106.905087,101.223033 107.147425,101.219874 107.394186,101.201548 C107.64,101.184803 107.889605,101.153207 107.889605,101.153207 C107.889605,101.153207 107.683602,101.01387 107.473807,100.8897 C107.257694,100.758894 107.037156,100.650205 107.037156,100.650205 C107.037156,100.650205 106.817251,100.539621 106.594186,100.452101 C106.42673,100.384487 106.258641,100.329826 106.185656,100.307077 C106.366382,100.279273 107.101611,100.084645 107.101611,100.084645 L108.05169,99.8381991 C108.05169,99.8381991 108.052006,99.8224013 108.052638,99.7908057 L108.052006,99.7908057 L108.050111,99.7898578 Z" id="Fill-141" fill="#6A6A6A"></path>
                    <path d="M102.134882,99.083981 C101.745308,99.083981 101.428088,99.4008847 101.428088,99.7907741 C101.428088,100.180664 101.745308,100.497883 102.134882,100.497883 C102.524455,100.497883 102.841675,100.180664 102.841675,99.7907741 C102.841675,99.4008847 102.524455,99.083981 102.134882,99.083981" id="Fill-143" fill="#4D4D4C"></path>
                    <path d="M102.134882,100.497757 C101.745308,100.497757 101.428088,100.180853 101.428088,99.7909637 C101.428088,99.4010742 101.745308,99.0838547 102.134882,99.0838547 C102.524455,99.0838547 102.841675,99.4010742 102.841675,99.7909637 C102.841675,100.180853 102.524455,100.497757 102.134882,100.497757 M102.134882,98.1359874 C101.222401,98.1359874 100.480221,98.8784834 100.480221,99.7909637 C100.480221,100.703128 101.222401,101.445624 102.134882,101.445624 C103.047362,101.445624 103.789542,100.703128 103.789542,99.7909637 C103.789542,98.8784834 103.047362,98.1359874 102.134882,98.1359874" id="Fill-145" fill="#6A6A6A"></path>
                    <path d="M95.3408847,12.8249605 C96.1538389,12.7418641 96.6757978,12.5579779 96.9061295,12.2729858 C97.1367773,11.9886256 97.2517852,11.3279621 97.2517852,10.2913112 L97.2517852,1.62622433 L96.9829068,1.30963665 C96.6950711,0.970616114 96.4502054,0.761137441 96.2483096,0.680884676 C96.0467299,0.601263823 95.7440442,0.554818325 95.3408847,0.541864139 L95.3408847,0.176935229 L98.6969668,0.176935229 L106.289068,9.58704581 L106.289068,3.05118483 C106.289068,1.97630332 106.128878,1.2764613 105.808815,0.951974724 C105.597441,0.742180095 105.130142,0.605371248 104.406603,0.541864139 L104.406603,0.176935229 L109.025877,0.176935229 L109.025877,0.541864139 C108.276746,0.61864139 107.777536,0.801263823 107.527615,1.08909953 C107.278009,1.37756714 107.153207,2.03665087 107.153207,3.06761453 L107.153207,13.4202212 L106.81703,13.4202212 L98.1162401,2.63538705 L98.1162401,10.2919431 C98.1162401,11.3665087 98.2729542,12.0669826 98.5866983,12.393049 C98.7917536,12.6044234 99.2492575,12.7481833 99.960158,12.8249605 L99.960158,13.1898894 L95.3408847,13.1898894 L95.3408847,12.8249605 Z" id="Fill-147" fill="#FFFFFF"></path>
                    <g id="Group-151" transform="translate(187.677725, 93.575039)">
                        <mask id="mask-2" fill="white">
                            <use xlink:href="#path-1"></use>
                        </mask>
                        <g id="Clip-150"></g>
                        <path d="M0.22957346,12.7779147 C0.953112164,12.7014534 1.42167457,12.5725434 1.63620853,12.3908689 C1.85105845,12.2095103 1.95848341,11.7494787 1.95848341,11.0107741 L1.95848341,2.26195893 C1.95848341,1.56401264 1.85263823,1.10777251 1.64126382,0.893238547 C1.43020537,0.679020537 0.95943128,0.54600316 0.22957346,0.494818325 L0.22957346,0.129889415 L10.6782306,0.129889415 L10.7452133,2.94379147 L10.2460032,2.94379147 C10.0794945,2.07680885 9.82988942,1.51630332 9.49687204,1.26132701 C9.16417062,1.00666667 8.42135861,0.879020537 7.26906793,0.879020537 L4.59165877,0.879020537 C4.30255924,0.879020537 4.12436019,0.925466035 4.05674566,1.01804107 C3.98913112,1.11124803 3.95595577,1.28565561 3.95595577,1.54157978 L3.95595577,5.93052133 L6.99039494,5.93052133 C7.8292575,5.93052133 8.36385466,5.80635071 8.59418641,5.55769352 C8.82483412,5.30935229 9.01061611,4.80635071 9.15121643,4.04805687 L9.61219589,4.04805687 L9.61219589,8.59086888 L9.15121643,8.59086888 C9.00398104,7.82878357 8.81503949,7.32451817 8.58470774,7.07807267 C8.35406003,6.83162717 7.82262243,6.70840442 6.99039494,6.70840442 L3.95595577,6.70840442 L3.95595577,11.5772828 C3.95595577,11.9681201 4.07917852,12.1984518 4.32593997,12.26891 C4.57270142,12.3393681 5.31172196,12.3744392 6.54268562,12.3744392 C7.87633491,12.3744392 8.86053712,12.2290995 9.49560821,11.9374724 C10.1303633,11.6461611 10.7009795,10.940316 11.2061927,9.81993681 L11.75406,9.81993681 L10.8605371,13.1428436 L0.22957346,13.1428436 L0.22957346,12.7779147 Z" id="Fill-149" fill="#FFFFFF" mask="url(#mask-2)"></path>
                    </g>
                    <path d="M98.9802528,194.308373 C99.3123223,195.192101 99.7022117,195.896051 100.149921,196.421169 C100.930016,197.336809 101.89842,197.794313 103.05545,197.794313 C103.681991,197.794313 104.223855,197.596209 104.681043,197.198736 C105.137915,196.802212 105.366667,196.248657 105.366667,195.537757 C105.366667,194.89763 105.136335,194.3406 104.676619,193.866667 C104.376145,193.565561 103.743602,193.114376 102.778357,192.51248 L101.101264,191.465719 C100.596051,191.145656 100.193523,190.822433 99.8924171,190.496051 C99.335387,189.874882 99.0567141,189.189573 99.0567141,188.440442 C99.0567141,187.448025 99.3865719,186.622433 100.045972,185.962717 C100.705687,185.303633 101.579621,184.97346 102.668088,184.97346 C103.116114,184.97346 103.65545,185.084044 104.286098,185.304897 C104.916746,185.52575 105.276935,185.636335 105.366667,185.636335 C105.609637,185.636335 105.777725,185.578831 105.870932,185.463507 C105.963507,185.348183 106.035545,185.18515 106.08673,184.97346 L106.490205,184.97346 L106.922433,189.160821 L106.451343,189.160821 C106.131596,187.899842 105.617852,187.019273 104.910427,186.520063 C104.202686,186.020537 103.503476,185.770932 102.811848,185.770932 C102.274408,185.770932 101.804897,185.929226 101.404897,186.245814 C101.004897,186.563033 100.804581,187.00316 100.804581,187.566509 C100.804581,188.07267 100.958136,188.504581 101.264613,188.863191 C101.571406,189.22812 102.047867,189.609163 102.693997,190.006003 L104.421327,191.072038 C105.502528,191.737757 106.264929,192.349131 106.708215,192.906477 C107.145498,193.469826 107.364139,194.135545 107.364139,194.903949 C107.364139,195.934597 106.975197,196.795893 106.197314,197.487204 C105.419431,198.178831 104.425434,198.524487 103.215324,198.524487 C102.607109,198.524487 101.971722,198.409163 101.309163,198.178831 C100.646288,197.948183 100.266825,197.832859 100.17109,197.832859 C99.9404423,197.832859 99.7849921,197.903633 99.7053712,198.044234 C99.6251185,198.18515 99.5720379,198.335545 99.5467615,198.495419 L99.114534,198.495419 L98.528436,194.308373 L98.9802528,194.308373 Z" id="Fill-152" fill="#FFFFFF"></path>
                    <path d="M4.81911532,92.9561453 L4.81911532,93.3210742 C4.428594,93.3340284 4.14992101,93.3690995 3.98341232,93.4269194 C3.68894155,93.5356082 3.54202212,93.7340284 3.54202212,94.0221801 C3.54202212,94.1504581 3.55939968,94.2752607 3.59478673,94.3969036 C3.62985782,94.5185466 3.68262243,94.6752607 3.75308057,94.8673618 L6.59794629,102.262306 L8.67630332,96.75109 L7.75624013,94.3406635 C7.58341232,93.9046445 7.32401264,93.6130174 6.97835703,93.465466 C6.77330174,93.3757346 6.46303318,93.3277093 6.04691943,93.3210742 L6.04691943,92.9561453 L11.3132701,92.9561453 L11.3132701,93.3210742 C10.8203791,93.3277093 10.4807267,93.3627804 10.2952607,93.4269194 C10.0007899,93.5356082 9.8535545,93.7596209 9.8535545,94.0989573 C9.8535545,94.2142812 9.86619273,94.3150711 9.89210111,94.401643 C9.91737757,94.4878989 9.98151659,94.665782 10.0842022,94.9346603 L12.9268562,102.310016 L15.3875197,95.6354502 C15.528436,95.2578831 15.6241706,94.9217062 15.6756714,94.6272354 C15.7075829,94.4607267 15.7236967,94.3264455 15.7236967,94.2237599 C15.7236967,93.858831 15.5508689,93.6060664 15.2052133,93.4651501 C15.0131122,93.3820537 14.7249605,93.3340284 14.3407583,93.3210742 L14.3407583,92.9561453 L18.2453397,92.9561453 L18.2453397,93.3210742 C17.893049,93.3722591 17.6241706,93.4525118 17.4387046,93.5615166 C17.1056872,93.7476145 16.8560821,94.0683096 16.6895735,94.5232859 L14.6301738,100.386793 L13.835861,102.649352 L12.5890995,106.199747 L12.285466,106.199747 L11.4257504,103.948562 L9.14865719,97.8904265 L6.12748815,106.199747 L5.83048973,106.199747 L4.36508689,102.125498 L2.70600316,97.5144392 C2.02227488,95.6142812 1.54454976,94.4484044 1.27251185,94.0168088 C1.00047393,93.5852133 0.57614534,93.3533017 0.000157977883,93.3210742 L0.000157977883,92.9561453 L4.81911532,92.9561453 Z" id="Fill-154" fill="#FFFFFF"></path>
                </g>
            </g>
        </g>
    </g>
</svg>