<?xml version="1.0" encoding="UTF-8" standalone="no"?>
<svg width="27px" height="30px" viewBox="0 0 27 30" version="1.1" xmlns="http://www.w3.org/2000/svg" xmlns:xlink="http://www.w3.org/1999/xlink">
    <!-- Generator: Sketch 47.1 (45422) - http://www.bohemiancoding.com/sketch -->
    <title>Shape Copy 2</title>
    <desc>Created with Sketch.</desc>
    <defs></defs>
    <g id="Page-1" stroke="none" stroke-width="1" fill="none" fill-rule="evenodd">
        <g id="项目首页－消防区域" transform="translate(-643.000000, -545.000000)" fill="#0047D0">
            <path d="M653.212142,551.659171 C654.13274,551.235675 655.154175,551 656.229552,551 C660.288708,551 663.579303,554.357864 663.579303,558.5 C663.579303,562.642136 660.288708,566 656.229552,566 C652.170397,566 648.879801,562.642136 648.879801,558.5 C648.879801,557.402639 649.110755,556.360323 649.525767,555.420905 C649.97362,556.355963 650.914828,557 652.003445,557 C653.525629,557 654.759602,555.740801 654.759602,554.1875 C654.759602,553.076628 654.128467,552.11618 653.212142,551.659171 L653.212142,551.659171 Z M662.50602,570.386939 L663.768196,573.606884 C664.069789,574.376281 663.655407,575 662.845261,575 L656.344033,575 L649.614507,575 C648.802825,575 648.390423,574.373454 648.690909,573.606884 L649.953085,570.386939 C645.812944,568.105801 643,563.638115 643,558.5 C643,551.044156 648.923072,545 656.229552,545 C663.536032,545 669.459104,551.044156 669.459104,558.5 C669.459104,563.638115 666.64616,568.105801 662.50602,570.386939 L662.50602,570.386939 Z M656.229552,570.5 C662.724201,570.5 667.989154,565.127417 667.989154,558.5 C667.989154,551.872583 662.724201,546.5 656.229552,546.5 C649.734903,546.5 644.46995,551.872583 644.46995,558.5 C644.46995,565.127417 649.734903,570.5 656.229552,570.5 L656.229552,570.5 Z" id="Shape-Copy-2"></path>
        </g>
    </g>
</svg>