<?xml version="1.0" encoding="UTF-8" standalone="no"?>
<svg width="50px" height="50px" viewBox="0 0 50 50" version="1.1" xmlns="http://www.w3.org/2000/svg" xmlns:xlink="http://www.w3.org/1999/xlink">
    <!-- Generator: Sketch 47.1 (45422) - http://www.bohemiancoding.com/sketch -->
    <title>huanjing01</title>
    <desc>Created with Sketch.</desc>
    <defs>
        <path d="M298,110.02765 C298,110.83871 298.156731,111.612903 298.470192,112.35023 C298.783654,113.087558 299.216969,113.723502 299.770136,114.258065 C300.323304,114.792627 300.968666,115.21659 301.706223,115.529954 C302.44378,115.843318 303.218215,116 304.029527,116 C304.877717,116 305.661372,115.843318 306.380489,115.529954 C307.099607,115.21659 307.726531,114.792627 308.261259,114.258065 C308.795988,113.723502 309.220083,113.087558 309.533545,112.35023 C309.847007,111.612903 310.003737,110.83871 310.003737,110.02765 C310.003737,109.179724 309.847007,108.396313 309.533545,107.677419 C309.220083,106.958525 308.795988,106.322581 308.261259,105.769585 C307.726531,105.21659 307.099607,104.78341 306.380489,104.470046 C305.661372,104.156682 304.877717,104 304.029527,104 C303.218215,104 302.44378,104.156682 301.706223,104.470046 C300.968666,104.78341 300.323304,105.21659 299.770136,105.769585 C299.216969,106.322581 298.783654,106.958525 298.470192,107.677419 C298.156731,108.396313 298,109.179724 298,110.02765 Z" id="path-1"></path>
        <filter x="-262.4%" y="-245.8%" width="624.8%" height="625.0%" filterUnits="objectBoundingBox" id="filter-2">
            <feMorphology radius="0.5" operator="dilate" in="SourceAlpha" result="shadowSpreadOuter1"></feMorphology>
            <feOffset dx="0" dy="2" in="shadowSpreadOuter1" result="shadowOffsetOuter1"></feOffset>
            <feGaussianBlur stdDeviation="10" in="shadowOffsetOuter1" result="shadowBlurOuter1"></feGaussianBlur>
            <feComposite in="shadowBlurOuter1" in2="SourceAlpha" operator="out" result="shadowBlurOuter1"></feComposite>
            <feColorMatrix values="0 0 0 0 0.00711334486   0 0 0 0 0.133316543   0 0 0 0 0.157312925  0 0 0 0.516049592 0" type="matrix" in="shadowBlurOuter1"></feColorMatrix>
        </filter>
    </defs>
    <g id="Page-1" stroke="none" stroke-width="1" fill="none" fill-rule="evenodd">
        <g id="项目首页" transform="translate(-577.000000, -140.000000)">
            <g id="云" transform="translate(298.000000, 53.000000)">
                <g id="huanjing01">
                    <use fill="black" fill-opacity="1" filter="url(#filter-2)" xlink:href="#path-1"></use>
                    <use stroke="#56E4FF" stroke-width="1" fill-opacity="0.4" fill="#09A2DD" fill-rule="evenodd" xlink:href="#path-1"></use>
                </g>
            </g>
        </g>
    </g>
</svg>