<?xml version="1.0" encoding="UTF-8" standalone="no"?>
<svg width="96px" height="38px" viewBox="0 0 96 38" version="1.1" xmlns="http://www.w3.org/2000/svg" xmlns:xlink="http://www.w3.org/1999/xlink">
    <!-- Generator: Sketch 48.2 (47327) - http://www.bohemiancoding.com/sketch -->
    <title>记录</title>
    <desc>Created with Sketch.</desc>
    <defs>
        <rect id="path-1" x="0" y="0" width="88" height="30" rx="4"></rect>
        <filter x="-8.0%" y="-16.7%" width="115.9%" height="146.7%" filterUnits="objectBoundingBox" id="filter-2">
            <feOffset dx="0" dy="2" in="SourceAlpha" result="shadowOffsetOuter1"></feOffset>
            <feGaussianBlur stdDeviation="2" in="shadowOffsetOuter1" result="shadowBlurOuter1"></feGaussianBlur>
            <feComposite in="shadowBlurOuter1" in2="SourceAlpha" operator="out" result="shadowBlurOuter1"></feComposite>
            <feColorMatrix values="0 0 0 0 0   0 0 0 0 0   0 0 0 0 0  0 0 0 0.5 0" type="matrix" in="shadowBlurOuter1"></feColorMatrix>
        </filter>
    </defs>
    <g id="项目首页－停车场区域" stroke="none" stroke-width="1" fill="none" fill-rule="evenodd" transform="translate(-1044.000000, -525.000000)">
        <g id="Group-7" transform="translate(1048.000000, 487.000000)">
            <g id="Group-6" transform="translate(0.000000, 40.000000)">
                <g id="记录">
                    <g id="Group-4">
                        <g id="Rectangle-7">
                            <use fill="black" fill-opacity="1" filter="url(#filter-2)" xlink:href="#path-1"></use>
                            <use fill-opacity="0.75" fill="#027FBA" fill-rule="evenodd" xlink:href="#path-1"></use>
                            <rect stroke="#54C1F0" stroke-width="1" x="0.5" y="0.5" width="87" height="29" rx="4"></rect>
                        </g>
                        <path d="M20.9778618,21.9741827 L10.996305,21.9741827 C10.6287886,21.9741827 10.3308753,21.6762694 10.3308753,21.3087531 L10.3308753,18.9797173 L9,18.9797173 L9,16.3179667 L10.3308753,16.3179667 L10.3308753,13.6562161 L9,13.6562161 L9,10.9944654 L10.3308753,10.9944654 L10.3308753,8.66542966 C10.3308753,8.29791329 10.6287886,8 10.996305,8 L20.9778618,8 C21.3453782,8 21.6432914,8.2979133 21.6432914,8.66542966 L21.6432914,21.3087371 C21.6433074,21.6762694 21.3453941,21.9741827 20.9778618,21.9741827 Z M16.9852518,11.3271803 L12.3271803,11.3271803 L12.3271803,11.9926259 L16.9852518,11.9926259 L16.9852518,11.3271803 Z M19.6469865,14.6543765 L12.3271803,14.6543765 L12.3271803,15.3198062 L19.6469865,15.3198062 L19.6469865,14.6543765 Z M19.6469865,17.9815568 L12.3271803,17.9815568 L12.3271803,18.6469865 L19.6469865,18.6469865 L19.6469865,17.9815568 Z" id="Shape" fill="#66E9FF" fill-rule="nonzero"></path>
                    </g>
                </g>
            </g>
        </g>
    </g>
</svg>