<?xml version="1.0" encoding="UTF-8" standalone="no"?>
<svg width="96px" height="108px" viewBox="0 0 96 108" version="1.1" xmlns="http://www.w3.org/2000/svg" xmlns:xlink="http://www.w3.org/1999/xlink">
    <!-- Generator: Sketch 47.1 (45422) - http://www.bohemiancoding.com/sketch -->
    <title>3Dhome</title>
    <desc>Created with Sketch.</desc>
    <defs></defs>
    <g id="Page-1" stroke="none" stroke-width="1" fill="none" fill-rule="evenodd" opacity="0.6">
        <g id="项目首页－负一层" transform="translate(-70.000000, -70.000000)" fill-rule="nonzero" fill="#56E4FF">
            <g id="3Dhome" transform="translate(70.000000, 70.000000)">
                <path d="M95.8751237,26.8947304 L47.876481,0 L0,27.1039455 L0.123518951,81.1039455 L48.123519,108 L96,80.8947304 L95.8751237,26.8947304 Z M48.7696179,6.37046659 L85.1059016,26.727888 C85.6474629,27.0365165 85.9803898,27.6023871 85.9803898,28.2142419 C85.9803898,28.8260967 85.6474629,29.3919674 85.1059016,29.7005959 L48.6786754,50.3135774 C48.1327199,50.621074 47.4600749,50.621074 46.9141193,50.3135774 L10.76515,29.8608176 C10.2255524,29.5516941 9.89413794,28.9869018 9.89413794,28.3764498 C9.89413794,27.7659979 10.2255524,27.2012055 10.76515,26.8920821 L47.0064191,6.36781837 C47.5523747,6.06032169 48.2250197,6.06032169 48.7709753,6.36781837 L48.7696179,6.37046659 Z M7.87263522,34.1775336 L44.4803891,54.8898261 C45.0222311,55.1975162 45.3560246,55.7625764 45.3572377,56.3741938 L45.3572377,97.6200192 C45.3538798,98.2309092 45.0188823,98.794301 44.4769686,99.1004371 C43.9350549,99.4065733 43.2674153,99.4095882 42.7226197,99.1083593 L6.20988038,78.6489787 C5.66594931,78.3426279 5.32993981,77.7773167 5.3276023,77.164611 L5.2325878,35.6658738 C5.2348579,35.0533571 5.57060073,34.4881557 6.11423361,34.1816799 C6.65786649,33.8752041 7.32748996,33.8736251 7.87263522,34.1775336 Z M50.6291887,97.7127093 L50.6291887,56.1437924 C50.6304019,55.5321749 50.9641953,54.9671148 51.5060373,54.6594247 L88.0391369,33.9948015 C88.5831094,33.6909034 89.2515167,33.6913542 89.7950579,33.995986 C90.338599,34.3006177 90.6756665,34.8636928 90.6805418,35.4751967 L90.7755564,76.9779064 C90.7760725,77.5906709 90.4426403,78.1575076 89.900065,78.4662465 L53.280095,99.1931047 C52.7354934,99.4973419 52.0662312,99.4965066 51.5224293,99.1909109 C50.9786275,98.8853153 50.6421282,98.3209513 50.6386902,97.708737 L50.6291887,97.7127093 Z" id="Shape"></path>
            </g>
        </g>
    </g>
</svg>