<?xml version="1.0" encoding="UTF-8" standalone="no"?>
<svg width="38px" height="38px" viewBox="0 0 38 38" version="1.1" xmlns="http://www.w3.org/2000/svg" xmlns:xlink="http://www.w3.org/1999/xlink">
    <!-- Generator: Sketch 48.2 (47327) - http://www.bohemiancoding.com/sketch -->
    <title>故障</title>
    <desc>Created with Sketch.</desc>
    <defs>
        <filter x="-23.3%" y="-16.7%" width="146.7%" height="146.7%" filterUnits="objectBoundingBox" id="filter-1">
            <feOffset dx="0" dy="2" in="SourceAlpha" result="shadowOffsetOuter1"></feOffset>
            <feGaussianBlur stdDeviation="2" in="shadowOffsetOuter1" result="shadowBlurOuter1"></feGaussianBlur>
            <feColorMatrix values="0 0 0 0 0.22745098   0 0 0 0 0.309803922   0 0 0 0 0.42745098  0 0 0 0.8 0" type="matrix" in="shadowBlurOuter1" result="shadowMatrixOuter1"></feColorMatrix>
            <feMerge>
                <feMergeNode in="shadowMatrixOuter1"></feMergeNode>
                <feMergeNode in="SourceGraphic"></feMergeNode>
            </feMerge>
        </filter>
    </defs>
    <g id="项目首页－消防区域" stroke="none" stroke-width="1" fill="none" fill-rule="evenodd" transform="translate(-707.000000, -381.000000)">
        <g id="故障" filter="url(#filter-1)" transform="translate(711.000000, 383.000000)" fill-rule="nonzero">
            <path d="M27.6635141,18.6155315 C27.6635141,18.865423 27.546898,19.1153145 27.4802603,19.3818655 C27.4136226,19.6484165 27.2970065,19.9149675 27.2137093,20.164859 L28.08,18.6988286 L27.6635141,18.6155315 Z" id="Shape" fill="#000000"></path>
            <path d="M14.9934924,0 C6.7128152,1.84956894e-15 9.24784472e-16,6.7128152 0,14.9934924 C-1.15598059e-15,23.2741696 6.7128152,29.9869848 14.9934924,29.9869848 C23.2741696,29.9869848 29.9869848,23.2741696 29.9869848,14.9934924 C29.9869848,6.7128152 23.2741696,4.39272624e-15 14.9934924,0 Z M7.58004338,4.9978308 C8.90670111,4.03133456 10.413456,3.34026652 12.0114534,2.96537961 L12.5445553,2.84876356 L12.5445553,3.58177874 L12.0447722,3.69839479 L11.728243,3.79835141 C8.83590994,4.62121716 6.38281074,6.54779751 4.89787419,9.1626898 C4.74793926,9.41258134 4.59800434,9.64581345 4.48138829,9.91236443 L3.79835141,9.5791757 C4.67003576,7.76881086 5.96766827,6.19678909 7.58004338,4.9978308 Z M7.13023861,24.5060304 L6.56381779,24.0229067 C4.75796858,22.3311341 3.49904761,20.138175 2.94872017,17.7256399 L3.68173536,17.7256399 C3.79613005,18.2008629 3.94080723,18.6682815 4.11488069,19.1250325 C4.3805737,19.8683992 4.72106188,20.5828662 5.13110629,21.2574403 C5.55517965,21.8566094 6.03487895,22.4143992 6.56381779,22.9233839 C6.73041215,23.1066377 6.89700651,23.306551 7.0802603,23.4731453 L7.61336226,23.9396095 L7.13023861,24.5060304 Z M17.7089805,2.89874187 C21.2986337,3.69711271 24.349428,6.04622431 26.0386985,9.31262473 L26.2719306,9.81240781 L25.5888937,10.1289371 L25.3556616,9.66247289 L25.1890672,9.37926247 C23.7395908,6.70979612 21.2883666,4.72604259 18.3753579,3.86498915 C18.0921475,3.78169197 17.8255965,3.68173536 17.5423861,3.63175705 L17.7089805,2.89874187 Z M25.5888937,21.1241649 C24.9000869,22.2986457 24.0219723,23.3512575 22.9900217,24.2394794 L22.506898,23.6730586 C22.8728976,23.3511747 23.2178992,23.0061731 23.5397831,22.6401735 C24.0456388,22.0905752 24.4975197,21.4936461 24.8891974,20.8576139 C25.2762492,20.1803595 25.5943717,19.465979 25.8387852,18.7252061 C25.8387852,18.491974 26.022039,18.2587419 26.0886768,18.0088503 C26.1553145,17.7589588 26.2052928,17.5590456 26.2552711,17.3258134 L26.9882863,17.3258134 C26.9882863,17.575705 26.8716703,17.8089371 26.821692,18.0588286 C26.5586161,19.1709927 26.1437949,20.24168 25.5888937,21.2407809 L25.5888937,21.1241649 Z" id="Shape" fill="#FF5F5F"></path>
            <g transform="translate(7.000000, 7.000000)" fill="#FFFFFF" id="Shape">
                <path d="M15.646144,12.6742507 L8.56604532,0.262225882 C8.39122807,0.0874086274 8.1290022,0 7.86677632,0 C7.60455043,0 7.34232457,0.0874086274 7.16750731,0.349634494 L0.0874086274,12.7616594 C0,12.849068 0,12.9364766 0,13.1112939 C0,13.6357456 0.34963451,13.9853801 0.874086259,13.9853801 L14.8594664,13.9853801 C15.3839181,13.9853801 15.7335526,13.6357456 15.7335526,13.1112939 C15.7335526,12.9364766 15.646144,12.6742507 15.646144,12.6742507 Z M7.86677632,12.2372076 C7.34232457,12.2372076 6.99269006,11.8875731 6.99269006,11.3631213 C6.99269006,10.8386696 7.34232457,10.4890351 7.86677632,10.4890351 C8.39122807,10.4890351 8.74086258,10.8386696 8.74086258,11.3631213 C8.74086258,11.8875731 8.39122807,12.2372076 7.86677632,12.2372076 Z M8.74086258,7.86677632 C8.74086258,8.30381944 8.30381945,8.74086258 7.86677632,8.74086258 C7.42973318,8.74086258 6.99269006,8.30381945 6.99269006,7.86677632 L6.99269006,5.24451754 C6.99269006,4.80747442 7.42973318,4.37043128 7.86677632,4.37043128 C8.30381945,4.37043128 8.74086258,4.8074744 8.74086258,5.24451754 L8.74086258,7.86677632 Z"></path>
            </g>
        </g>
    </g>
</svg>