<?xml version="1.0" encoding="UTF-8" standalone="no"?>
<svg width="24px" height="23px" viewBox="0 0 24 23" version="1.1" xmlns="http://www.w3.org/2000/svg" xmlns:xlink="http://www.w3.org/1999/xlink">
    <!-- Generator: Sketch 47.1 (45422) - http://www.bohemiancoding.com/sketch -->
    <title>baojing</title>
    <desc>Created with Sketch.</desc>
    <defs></defs>
    <g id="Page-1" stroke="none" stroke-width="1" fill="none" fill-rule="evenodd">
        <g id="电梯／点击／电梯详情" transform="translate(-343.000000, -884.000000)" fill-rule="nonzero" fill="#FF6666">
            <path d="M354.564339,906.585189 C353.913845,906.585189 353.361647,906.359684 352.907747,905.905784 C352.453847,905.451884 352.228342,904.919924 352.228342,904.304123 L356.842513,904.304123 C356.842513,904.954617 356.625682,905.498141 356.189128,905.931804 C355.758357,906.365467 355.214833,906.585189 354.564339,906.585189 L354.564339,906.585189 Z M361.514506,893.881763 L361.514506,899.637913 L363.850503,901.973909 L363.850503,903.112996 L345.281066,903.112996 L345.281066,901.971018 L347.617062,899.635021 L347.617062,893.881763 C347.617062,892.071944 348.079636,890.496303 349.001892,889.157731 C349.924148,887.819158 351.199116,886.948942 352.829688,886.552863 L352.829688,885.737577 C352.829688,885.266331 352.991589,884.858688 353.318281,884.514649 C353.644974,884.17061 354.06129,883.997144 354.56723,884.000036 C355.07317,884.000036 355.489486,884.173501 355.816178,884.514649 C356.142871,884.858688 356.304772,885.26344 356.304772,885.737577 L356.304772,886.552863 C357.932452,886.951833 359.210312,887.819158 360.132568,889.157731 C361.054824,890.496303 361.517397,892.071944 361.514506,893.881763 Z M363.795572,893.283308 C363.616325,890.16961 362.257515,887.691951 359.722034,885.844548 L361.349714,884.216867 C364.356442,886.532626 365.94943,889.5567 366.128677,893.283308 L363.795572,893.283308 L363.795572,893.283308 Z M349.461574,885.844548 C346.8914,887.654367 345.515244,890.134917 345.335996,893.283308 L343,893.283308 C343.179247,889.5567 344.772235,886.532626 347.778963,884.216867 L349.461574,885.844548 Z" id="baojing"></path>
        </g>
    </g>
</svg>