<?xml version="1.0" encoding="UTF-8" standalone="no"?>
<svg width="24px" height="23px" viewBox="0 0 24 23" version="1.1" xmlns="http://www.w3.org/2000/svg" xmlns:xlink="http://www.w3.org/1999/xlink">
    <!-- Generator: Sketch 46 (44423) - http://www.bohemiancoding.com/sketch -->
    <title>baojing_wu</title>
    <desc>Created with Sketch.</desc>
    <defs></defs>
    <g id="Page-1" stroke="none" stroke-width="1" fill="none" fill-rule="evenodd">
        <g id="电梯系统／垂直电梯系统" transform="translate(-1199.000000, -215.000000)" fill-rule="nonzero" fill="#C1C1C1">
            <g id="Group-4-Copy" transform="translate(1043.000000, 213.000000)">
                <g id="Group-7">
                    <g id="Group" transform="translate(75.000000, 0.000000)">
                        <g id="报警" transform="translate(81.000000, 2.000000)">
                            <g id="baojing_wu">
                                <path d="M11.5643387,22.585189 C10.9138446,22.585189 10.3616474,22.3596844 9.90774715,21.9057841 C9.45384686,21.4518838 9.22834226,20.9199242 9.22834226,20.3041232 L13.8425134,20.3041232 C13.8425134,20.9546172 13.625682,21.4981411 13.1891282,21.9318038 C12.7583566,22.3654665 12.2148327,22.585189 11.5643387,22.585189 L11.5643387,22.585189 Z M18.5145062,9.88176294 L18.5145062,15.6379125 L20.8505026,17.9739089 L20.8505026,19.1129963 L2.2810658,19.1129963 L2.2810658,17.9710178 L4.61706221,15.6350214 L4.61706221,9.88176294 C4.61706221,8.07194394 5.07963576,6.4963028 6.00189177,5.15773059 C6.92414778,3.81915839 8.19911611,2.94894191 9.82968787,2.55286331 L9.82968787,1.73757743 C9.82968787,1.26633063 9.99158861,0.858687695 10.3182812,0.51464862 C10.6449737,0.170609545 11.0612899,-0.00285553536 11.5672298,3.55493079e-05 C12.0731696,3.55493079e-05 12.4894858,0.173500629 12.8161783,0.51464862 C13.1428709,0.858687695 13.3047716,1.26343955 13.3047716,1.73757743 L13.3047716,2.55286331 C14.9324523,2.95183299 16.2103117,3.81915839 17.1325677,5.15773059 C18.0548237,6.4963028 18.5173973,8.07194394 18.5145062,9.88176294 Z M20.795572,9.28330841 C20.6163248,6.16961023 19.257515,3.69195067 16.7220337,1.84454757 L18.3497144,0.216866899 C21.3564424,2.53262572 22.9494301,5.55670028 23.1286773,9.28330841 L20.795572,9.28330841 L20.795572,9.28330841 Z M6.46157423,1.84454757 C3.89139996,3.65436657 2.51524366,6.13491721 2.33599641,9.28330841 L0,9.28330841 C0.179247249,5.55670028 1.7722349,2.53262572 4.77896295,0.216866899 L6.46157423,1.84454757 Z" id="Shape"></path>
                            </g>
                        </g>
                    </g>
                </g>
            </g>
        </g>
    </g>
</svg>