<?xml version="1.0" encoding="UTF-8" standalone="no"?>
<svg width="710px" height="714px" viewBox="0 0 710 714" version="1.1" xmlns="http://www.w3.org/2000/svg" xmlns:xlink="http://www.w3.org/1999/xlink">
    <!-- Generator: Sketch 48.2 (47327) - http://www.bohemiancoding.com/sketch -->
    <title>电梯弹窗</title>
    <desc>Created with Sketch.</desc>
    <defs>
        <rect id="path-1" x="4" y="3.9943899" width="702" height="706.008415"></rect>
    </defs>
    <g id="电梯／点击／电梯详情弹窗" stroke="none" stroke-width="1" fill="none" fill-rule="evenodd" transform="translate(-605.000000, -184.000000)">
        <g id="Group-18" transform="translate(605.000000, 184.000000)">
            <g id="Group-4">
                <g id="电梯弹窗">
                    <g id="Rectangle">
                        <use fill-opacity="0.75" fill="#027FBA" fill-rule="evenodd" xlink:href="#path-1"></use>
                        <rect stroke="#54C1F0" stroke-width="1" x="4.5" y="4.4943899" width="701" height="705.008415"></rect>
                    </g>
                    <polygon id="Combined-Shape" fill="#4EDEFF" points="54 9.17801273 9.19230769 9.17801273 9.19230769 53.9256662 0 53.9256662 0 0 54 0"></polygon>
                    <polygon id="Combined-Shape" fill="#4EDEFF" transform="translate(683.000000, 26.962833) scale(-1, 1) translate(-683.000000, -26.962833) " points="710 9.17801273 665.192308 9.17801273 665.192308 53.9256662 656 53.9256662 656 0 710 0"></polygon>
                    <polygon id="Combined-Shape" fill="#4EDEFF" transform="translate(27.000000, 686.962833) scale(1, -1) translate(-27.000000, -686.962833) " points="54 669.178013 9.19230769 669.178013 9.19230769 713.925666 0 713.925666 0 660 54 660"></polygon>
                    <polygon id="Combined-Shape" fill="#4EDEFF" transform="translate(683.000000, 686.962833) scale(-1, -1) translate(-683.000000, -686.962833) " points="710 669.178013 665.192308 669.178013 665.192308 713.925666 656 713.925666 656 660 710 660"></polygon>
                </g>
            </g>
        </g>
    </g>
</svg>