<?xml version="1.0" encoding="UTF-8" standalone="no"?>
<svg width="20px" height="20px" viewBox="0 0 20 20" version="1.1" xmlns="http://www.w3.org/2000/svg" xmlns:xlink="http://www.w3.org/1999/xlink">
    <!-- Generator: Sketch 48.2 (47327) - http://www.bohemiancoding.com/sketch -->
    <title>diantikunren</title>
    <desc>Created with Sketch.</desc>
    <defs></defs>
    <g id="Page-1" stroke="none" stroke-width="1" fill="none" fill-rule="evenodd">
        <g id="diantikunren" fill-rule="nonzero">
            <g transform="translate(1.000000, 1.000000)">
                <path d="M17.7439984,0.233016086 C17.9147321,0.388769577 18,0.585119707 18,0.823356205 L18,17.1766438 C18,17.414389 17.9147321,17.6111997 17.7439984,17.7664926 C17.5734627,17.9222461 17.3652758,18 17.1180848,18 L0.881915244,18 C0.635780179,18 0.426537315,17.9222768 0.2560016,17.7664926 C0.0857958673,17.6111997 3.2246848e-08,17.414389 0,17.1766438 L0,0.823325506 C0,0.585089007 0.0857958351,0.388769577 0.2560016,0.232985387 C0.426537315,0.0778767607 0.635780179,3.00090981e-08 0.881915244,0 L17.1180848,0 C17.3652758,0 17.5734627,0.0778767607 17.7439984,0.233016086 Z" id="Shape" fill="#FC4D4D"></path>
                <path d="M7.34731035,6.32555718 C7.00202413,5.79045046 6.86398884,5.11671975 7.01723992,4.44291493 C7.31317856,3.14175022 8.58414688,2.33173126 9.85515018,2.63509102 C11.1265035,2.93848536 11.9171314,4.23892447 11.6208078,5.54008915 C11.3245192,6.84197942 10.0550558,7.65054723 8.78293253,7.34787849 C8.58554646,7.3008496 8.39975653,7.22976482 8.22782743,7.13835796 C8.3559156,7.41245506 8.43501174,7.73242295 8.46039798,8.06614303 C8.53999112,8.11091858 8.62419996,8.15343791 8.71331396,8.19291109 C8.95625369,8.04021194 9.2455622,7.96935694 9.538878,8.00027474 C9.8782436,8.03607092 10.1845031,8.20373412 10.4014738,8.4600259 C10.6673643,8.4416435 10.9548383,8.3983073 11.2653446,8.32362652 C11.6476278,8.23181901 12.0107358,8.59399025 12.0755651,9.1330579 C12.1409763,9.67125607 11.8833177,10.1825404 11.5013255,10.2734784 C10.9977638,10.3947686 10.5310977,10.4495448 10.1019674,10.4495448 L10.0895719,10.4495448 C8.65360915,10.4495448 7.62512812,9.82372845 6.97552592,9.16589994 C6.34405648,8.52987199 6.06126526,7.88518383 6.01019479,7.76124536 C5.92797686,7.87801957 5.86633705,8.01163158 5.82913112,8.1567308 C5.75181153,8.45826911 5.78819512,8.77473102 5.93163112,9.04871235 C5.99739189,9.17234933 6.36460653,9.81916249 7.17717347,10.4453263 C7.40571793,10.6216762 7.68615255,10.8082952 8.02157159,10.982244 C8.01815731,11.0066981 8.01360492,11.0311152 8.00944374,11.0551998 L8.04732109,10.9948774 C8.78825892,11.3735457 9.79487166,11.686092 11.101658,11.686092 L11.1168089,11.686092 C11.6625628,11.686092 12.2416772,11.631015 12.8363338,11.5231512 L14.0400155,14.6405246 C14.3235088,15.3742567 14.0005732,16.2150768 13.3210572,16.5199766 C13.1531876,16.5949272 12.9799476,16.6307956 12.8086638,16.6307956 C12.2856363,16.6307956 11.7899587,16.296972 11.576174,15.7446874 L10.3243721,12.5022364 L8.11823885,15.9840563 L8.11863009,15.9840563 C7.94393194,16.2601801 7.69415485,16.448129 7.42090444,16.5420296 C7.19997103,16.684358 6.88578465,16.7083319 6.47646033,16.7136512 C5.49751761,16.727245 4.31922975,16.5373013 3.98573127,14.6855909 C3.70867537,12.1306236 3.86537734,10.6217131 4.59212451,8.30160808 C4.94219065,7.20506294 5.62440522,6.59655926 6.30942939,6.37304991 C6.441122,6.28248316 6.58431493,6.25520577 6.72060517,6.2840518 C6.9400686,6.26032319 7.1527802,6.2753504 7.34731035,6.32555718 Z" id="Combined-Shape" fill="#14578D"></path>
            </g>
        </g>
    </g>
</svg>