<?xml version="1.0" encoding="UTF-8" standalone="no"?>
<svg width="24px" height="26px" viewBox="0 0 24 26" version="1.1" xmlns="http://www.w3.org/2000/svg" xmlns:xlink="http://www.w3.org/1999/xlink">
    <!-- Generator: Sketch 46 (44423) - http://www.bohemiancoding.com/sketch -->
    <title>jiankongyichang</title>
    <desc>Created with Sketch.</desc>
    <defs></defs>
    <g id="Page-1" stroke="none" stroke-width="1" fill="none" fill-rule="evenodd">
        <g id="电梯系统／垂直电梯系统" transform="translate(-635.000000, -640.000000)" fill-rule="nonzero" fill="#F37B7B">
            <g id="Group-4-Copy-3" transform="translate(560.000000, 640.000000)">
                <g id="Group-7">
                    <g id="Group" transform="translate(75.000000, 0.000000)">
                        <g id="监控">
                            <g id="jiankongyichang">
                                <path d="M11.8429036,0 C5.74272859,0 0.797528236,4.94512442 0.797528236,11.045502 C0.797528236,17.1457023 5.74272861,22.0905229 11.8429036,22.0905229 C17.9432811,22.0905229 22.8885321,17.1457023 22.8885321,11.045502 C22.8885321,4.94512442 17.9432811,0 11.8429036,0 Z M11.8429036,18.7447421 C7.59061206,18.7447421 4.14330899,15.2978441 4.14330899,11.0454766 C4.14330899,6.79298256 7.59061206,3.34578073 11.8429036,3.34578073 C16.095423,3.34578073 19.5427008,6.79298253 19.5427008,11.0454766 C19.5427007,15.2978441 16.095423,18.7447421 11.8429036,18.7447421 Z" id="Shape"></path>
                                <path d="M11.8429036,4.57265649 C8.26810266,4.57265649 5.37043787,7.47049849 5.37043787,11.0451222 C5.37043787,14.6196953 8.26810266,17.5177398 11.8429036,17.5177398 C15.417502,17.5177398 18.3155718,14.6196953 18.3155718,11.0451222 C18.3155718,7.47049849 15.417502,4.57265649 11.8429036,4.57265649 Z M11.8429036,16.2045068 C8.99326572,16.2045068 6.68369621,13.8947601 6.68369621,11.0451222 C6.68369621,8.19581344 8.99331637,5.88609202 11.8429036,5.88609202 C14.6923896,5.88609202 17.0023135,8.19581344 17.0023135,11.0451222 C17.0023135,13.8947601 14.6923896,16.2045068 11.8429036,16.2045068 Z" id="Shape"></path>
                                <path d="M9.07807862,11.0452994 C9.0779014,11.0295521 9.07590134,11.0143111 9.07590134,10.9983612 C9.07590134,9.62702501 10.1273283,8.50250706 11.4678786,8.38381963 L11.4678786,7.11744894 C9.38130378,7.23760479 7.72198347,8.94019233 7.67345023,11.0452995 L9.07807862,11.0452994 Z" id="Shape"></path>
                                <path d="M23.506122,23.740172 C23.4747539,23.2867394 20.7310436,20.7071357 19.3474285,20.7071357 C17.9637881,20.7071357 14.9386002,23.0210344 11.8431061,23.0210344 C8.91116175,23.0210344 5.42542703,20.7071357 3.93223875,20.7071357 C2.439253,20.7071357 0.0238319287,23.2398518 0.0238319287,23.740172 C0.0238319287,24.6234162 0.0238319287,25.3348573 0.0238319287,25.3348573 L4.65155352,25.3348573 L4.64750276,25.053405 L18.9681502,25.0378349 L18.9721504,25.3348573 L23.5060967,25.3348573 C23.506122,25.3348573 23.5374395,24.1936552 23.506122,23.740172 Z" id="Shape"></path>
                            </g>
                        </g>
                    </g>
                </g>
            </g>
        </g>
    </g>
</svg>