<?xml version="1.0" encoding="UTF-8" standalone="no"?>
<svg width="24px" height="24px" viewBox="0 0 24 24" version="1.1" xmlns="http://www.w3.org/2000/svg" xmlns:xlink="http://www.w3.org/1999/xlink">
    <!-- Generator: Sketch 46 (44423) - http://www.bohemiancoding.com/sketch -->
    <title>kunren</title>
    <desc>Created with Sketch.</desc>
    <defs></defs>
    <g id="Page-1" stroke="none" stroke-width="1" fill="none" fill-rule="evenodd">
        <g id="电梯系统／垂直电梯系统" transform="translate(-1669.000000, -521.000000)" fill-rule="nonzero" fill="#F37B7B">
            <g id="Group-4-Copy-2" transform="translate(1526.000000, 213.000000)">
                <g id="Group-7">
                    <g id="Group-8" transform="translate(0.000000, 302.000000)">
                        <g id="kunren" transform="translate(143.000000, 6.000000)">
                            <path d="M8.921523,1.41780365 L15.3733325,1.41780365 L15.3733325,2.87168964 L8.921523,2.87168964 L8.921523,1.41780365 Z M8.921523,21.5235134 L15.3733325,21.5235134 L15.3733325,22.9781403 L8.921523,22.9781403 L8.921523,21.5235134 Z M11.3992732,8.25674534 C11.1672354,9.29013139 11.7868718,10.3232979 12.783707,10.5638698 C13.7811458,10.8042495 14.7764992,10.1620843 15.0088114,9.128122 C15.2411511,8.09473596 14.6212402,7.06192615 13.6244051,6.82097012 C12.6278443,6.58004155 11.631311,7.22335927 11.3992732,8.25674534 L11.3992732,8.25674534 Z M13.6632884,12.0294455 C13.8754318,12.0294455 14.0981124,12.0148196 14.3264731,11.9879278 L14.2267539,11.7381908 C14.0796997,11.3738618 13.7542266,11.1223686 13.3764242,11.0820034 C12.9986219,11.0416657 12.6292987,11.2194534 12.4157009,11.545201 L12.2547343,11.7890657 C12.6667276,11.9475901 13.1378007,12.0282929 13.6632884,12.0294455 L13.6632884,12.0294455 Z" id="Shape"></path>
                            <path d="M10.0464235,17.4893866 C10.3622375,17.4854351 10.6046479,17.4676262 10.775109,17.3618975 C10.9859352,17.2921435 11.1786507,17.1525256 11.3134389,16.947407 L11.3131371,16.947407 L13.0152783,14.3609372 L13.9811056,16.7695919 C14.1460511,17.1798565 14.5284909,17.4278373 14.9320326,17.4278373 C15.0641866,17.4278373 15.1978498,17.4011925 15.3273695,17.3455154 C15.8516499,17.1190206 16.1008107,16.4944174 15.8820815,15.9493645 L14.9533814,13.6336237 C14.4945743,13.7137503 14.0477588,13.7546643 13.6266826,13.7546643 L13.6149929,13.7546643 C12.6067425,13.7546643 11.8300908,13.5224892 11.2584205,13.2411955 L11.2291963,13.286006 C11.2324068,13.2681147 11.2359192,13.2499765 11.2385535,13.2318108 C10.9797611,13.102593 10.7633918,12.963963 10.5870585,12.8329615 C9.96012276,12.3678157 9.67679844,11.8873305 9.62606076,11.7954868 C9.51539276,11.5919598 9.48732102,11.356876 9.54697692,11.1328783 C9.60663282,10.9088806 9.74770501,10.7217356 9.94349377,10.6071162 C10.0685099,10.5331597 10.2111117,10.4941778 10.3563652,10.4942529 C10.6546447,10.4942529 10.9325632,10.6597747 11.0827183,10.9267993 L11.0900449,10.9381323 C11.1139355,10.9735136 11.1395978,11.0076657 11.1669335,11.0404583 C11.2413524,11.1322746 11.371613,11.2720571 11.5646303,11.415352 C11.5684171,11.4182607 11.5728076,11.4206206 11.5766219,11.422953 C11.6371559,10.6808217 11.3239762,9.92908607 10.7298045,9.77550095 C10.0265565,9.59362458 9.00735725,9.98953773 8.59256495,11.2405004 C8.03184346,12.9639904 7.91094012,14.0848846 8.12470249,15.982842 C8.38201311,17.3583851 9.29112064,17.4994847 10.0464235,17.4893866" id="Shape"></path>
                            <path d="M14.7601446,12.1165969 C14.3538314,12.1885461 13.9893378,12.2185936 13.663014,12.2185936 C12.5689568,12.2160416 11.9006406,11.8885379 11.4846958,11.5844136 C11.2780954,11.430609 11.1368586,11.280893 11.051189,11.1750271 C11.008217,11.1229997 10.9798434,11.0814546 10.9634614,11.0574715 C10.9555585,11.0463581 10.9517717,11.0393333 10.9497136,11.0356288 C10.9494118,11.0346684 10.9494118,11.0346684 10.9494118,11.0340921 L10.9485337,11.0340921 C10.766081,10.7095245 10.3660518,10.5966613 10.0502377,10.7820226 C9.73178944,10.9697439 9.61950245,11.3881309 9.79992448,11.7183238 C9.83384106,11.7803122 10.0979021,12.244086 10.7146024,12.7014112 C11.3272141,13.1581602 12.2971301,13.5926823 13.6513243,13.5926823 L13.663014,13.5926823 C14.0677082,13.5926823 14.5078007,13.5546496 14.982688,13.4704344 C15.3429283,13.4072935 15.5859149,13.0522943 15.5242285,12.678608 C15.4630908,12.3043181 15.1206594,12.0528523 14.7601446,12.1165969" id="Shape"></path>
                            <path d="M19.2647408,4.29632396 C19.4067185,4.43550275 19.477625,4.61095803 19.4776251,4.8238423 L19.4776251,19.4368743 C19.4776251,19.6493196 19.4067185,19.8251865 19.2647408,19.9639536 C19.1229277,20.1031324 18.9498049,20.172612 18.7442472,20.1726121 L5.24266978,20.1726121 C5.03799025,20.1726121 4.86398931,20.1031599 4.72217623,19.9639536 C4.58063756,19.8251865 4.50929197,19.6493196 4.50929194,19.4368743 L4.50929194,4.82381486 C4.50929194,4.6109306 4.58063753,4.43550275 4.72217623,4.29629653 C4.86398931,4.15769398 5.03799025,4.0881046 5.24266978,4.08810457 L18.7442472,4.08810457 C18.9498049,4.08810457 19.1229277,4.15769398 19.2647408,4.29632396 L19.2647408,4.29632396 Z M18.2950993,5.31390422 L5.69181774,5.31390422 L5.69181774,18.946785 L18.2950993,18.946785 L18.2950993,5.31390422 L18.2950993,5.31390422 Z" id="Shape"></path>
                            <path d="M0.0162208358,0.151638865 L3.13802963,0.151638865 L3.13802963,23.9786251 L0.0162208358,23.9786251 L0.0162208358,0.151638865 Z M20.9116166,0.0241497654 L23.9706687,0.0241497654 L23.9706687,23.8515751 L20.9116166,23.8515751 L20.9116166,0.0241497654 Z" id="Shape"></path>
                        </g>
                    </g>
                </g>
            </g>
        </g>
    </g>
</svg>