<?xml version="1.0" encoding="UTF-8" standalone="no"?>
<svg width="25px" height="24px" viewBox="0 0 25 24" version="1.1" xmlns="http://www.w3.org/2000/svg" xmlns:xlink="http://www.w3.org/1999/xlink">
    <!-- Generator: Sketch 46 (44423) - http://www.bohemiancoding.com/sketch -->
    <title>weixiu</title>
    <desc>Created with Sketch.</desc>
    <defs></defs>
    <g id="Page-1" stroke="none" stroke-width="1" fill="none" fill-rule="evenodd">
        <g id="电梯系统／垂直电梯系统" transform="translate(-675.000000, -520.000000)" fill-rule="nonzero" fill="#F37B7B">
            <g id="Group-4" transform="translate(560.000000, 206.000000)">
                <g id="Group-7">
                    <g id="Group-8" transform="translate(0.000000, 308.000000)">
                        <path d="M139.050748,9.77689542 C139.970233,11.9987874 139.531728,14.649292 137.726454,16.4545349 C135.73907,18.4436808 132.734021,18.7524426 130.399018,17.4366189 L128.71004,19.2804415 L129.914421,20.4885634 L130.633526,19.7698605 C131.002878,19.400385 131.598669,19.400385 131.966414,19.7698605 L137.805716,25.6662286 C138.173584,26.0340658 138.173584,26.6313722 137.805716,26.9992711 L135.140157,29.6648305 C134.772041,30.032544 134.174611,30.032544 133.807423,29.6648305 L127.969327,23.7665457 C127.601706,23.398925 127.601706,22.8016804 127.969327,22.4337815 L128.625585,21.7774307 L127.478455,20.6269312 L119.403226,29.447201 C118.668046,30.1842663 117.473495,30.1842663 116.737697,29.447201 L116.071238,28.7806179 C115.335471,28.0452219 115.335471,26.8523093 116.071238,26.116666 L125.269763,18.411531 L119.16068,12.2872701 L117.23197,12.285539 L115,8.6953943 L116.796803,6.8950667 L120.469919,9.14252398 L120.495176,11.0302434 L126.673473,17.2356825 L128.472286,15.7290929 C126.713907,13.3335301 126.897903,9.95912917 129.064615,7.79281926 C130.861264,5.99598485 133.496436,5.55049359 135.712021,6.45319227 L131.752185,10.3589925 L135.082534,13.689342 L139.050748,9.77689542 L139.050748,9.77689542 L139.050748,9.77689542 Z M118.283361,27.0550077 C117.915493,26.6871088 117.318218,26.6871088 116.950473,27.0550077 C116.582574,27.4243596 116.582574,28.0199039 116.950473,28.3877411 C117.318218,28.7555164 117.915462,28.7555164 118.283361,28.3877411 C118.650858,28.019873 118.650858,27.4243596 118.283361,27.0550077 L118.283361,27.0550077 Z" id="weixiu"></path>
                    </g>
                </g>
            </g>
        </g>
    </g>
</svg>