<?xml version="1.0" encoding="UTF-8" standalone="no"?>
<svg width="24px" height="23px" viewBox="0 0 24 23" version="1.1" xmlns="http://www.w3.org/2000/svg" xmlns:xlink="http://www.w3.org/1999/xlink">
    <!-- Generator: Sketch 47.1 (45422) - http://www.bohemiancoding.com/sketch -->
    <title>wubaojing</title>
    <desc>Created with Sketch.</desc>
    <defs></defs>
    <g id="Page-1" stroke="none" stroke-width="1" fill="none" fill-rule="evenodd">
        <g id="电梯／点击／电梯详情" transform="translate(-381.000000, -884.000000)" fill-rule="nonzero" fill="#56E4FF">
            <path d="M392.564339,906.585189 C391.913845,906.585189 391.361647,906.359684 390.907747,905.905784 C390.453847,905.451884 390.228342,904.919924 390.228342,904.304123 L394.842513,904.304123 C394.842513,904.954617 394.625682,905.498141 394.189128,905.931804 C393.758357,906.365467 393.214833,906.585189 392.564339,906.585189 L392.564339,906.585189 Z M399.514506,893.881763 L399.514506,899.637913 L401.850503,901.973909 L401.850503,903.112996 L383.281066,903.112996 L383.281066,901.971018 L385.617062,899.635021 L385.617062,893.881763 C385.617062,892.071944 386.079636,890.496303 387.001892,889.157731 C387.924148,887.819158 389.199116,886.948942 390.829688,886.552863 L390.829688,885.737577 C390.829688,885.266331 390.991589,884.858688 391.318281,884.514649 C391.644974,884.17061 392.06129,883.997144 392.56723,884.000036 C393.07317,884.000036 393.489486,884.173501 393.816178,884.514649 C394.142871,884.858688 394.304772,885.26344 394.304772,885.737577 L394.304772,886.552863 C395.932452,886.951833 397.210312,887.819158 398.132568,889.157731 C399.054824,890.496303 399.517397,892.071944 399.514506,893.881763 Z M401.795572,893.283308 C401.616325,890.16961 400.257515,887.691951 397.722034,885.844548 L399.349714,884.216867 C402.356442,886.532626 403.94943,889.5567 404.128677,893.283308 L401.795572,893.283308 L401.795572,893.283308 Z M387.461574,885.844548 C384.8914,887.654367 383.515244,890.134917 383.335996,893.283308 L381,893.283308 C381.179247,889.5567 382.772235,886.532626 385.778963,884.216867 L387.461574,885.844548 Z" id="wubaojing"></path>
        </g>
    </g>
</svg>