<?xml version="1.0" encoding="UTF-8" standalone="no"?>
<svg width="16px" height="16px" viewBox="0 0 16 16" version="1.1" xmlns="http://www.w3.org/2000/svg" xmlns:xlink="http://www.w3.org/1999/xlink">
    <!-- Generator: Sketch 48.2 (47327) - http://www.bohemiancoding.com/sketch -->
    <title>人行系统</title>
    <desc>Created with Sketch.</desc>
    <defs></defs>
    <g id="Page-1" stroke="none" stroke-width="1" fill="none" fill-rule="evenodd">
        <g id="人行系统" fill="#626F86" fill-rule="nonzero" stroke="#626F86" stroke-width="0.2">
            <g id="人行" transform="translate(0.000000, 3.000000)">
                <path d="M15.1773101,0.00994235916 L13.4888434,0.00994235916 C13.0347387,0.00994235916 12.6709532,0.331077178 12.6709532,0.724969116 L12.6709532,1.62816079 C12.6709532,1.72098882 12.5956872,1.79625479 12.5028591,1.7962548 L9.29903754,1.7962548 C8.84744169,1.7962548 8.48114729,2.10986303 8.48114729,2.51128155 L8.48114729,6.29966889 C8.48114729,6.69105195 8.84744169,7.01469564 9.29903754,7.01469564 L12.5003503,7.01469564 C12.5931783,7.01469564 12.6684443,7.08996161 12.6684443,7.18278964 L12.6684443,9.38055608 C12.6684443,9.47338411 12.7437103,9.54865008 12.8365383,9.54865008 L15.8245975,9.54865008 C15.9174255,9.54865008 15.9926915,9.47338411 15.9926915,9.38055608 L15.9926915,0.724969116 C15.9952003,0.331077192 15.6314148,0.00994235916 15.1773101,0.00994235916 Z M8.9427786,2.83241636 C8.9427786,2.44103331 9.30907301,2.11738961 9.76066885,2.11738962 L11.8254654,2.11738962 C11.850554,2.11738962 11.8756427,2.11738962 11.8982225,2.11989849 C12.0612988,2.13244282 12.1089672,2.34820527 11.9709796,2.43099785 L9.19868291,4.12699111 C9.08578395,4.19473049 8.9427786,4.11444677 8.9427786,3.98398576 L8.9427786,2.83241636 Z M11.8154299,6.65341897 L9.75063338,6.65341897 C9.30656413,6.65341897 8.94026972,6.33228415 8.94026972,5.93839221 L8.94026972,4.81191148 C8.94026972,4.67894159 9.08578393,4.5986579 9.19868291,4.66890612 L11.9057491,6.33981074 C12.0487544,6.42762105 11.9885417,6.6509101 11.8204476,6.65341897 L11.8154299,6.65341897 Z M12.0838786,5.83552872 L9.99399336,4.54346284 C9.88611213,4.47823233 9.88611213,4.32268265 9.99399336,4.25494327 L12.1039495,2.96287739 C12.2168485,2.89262915 12.3623627,2.97542172 12.3598538,3.10839161 L12.3397829,5.69252336 C12.3397829,5.82549325 12.1942687,5.90326808 12.0838786,5.83552872 Z M15.5862552,8.86623859 C15.5862552,9.08200105 15.4081257,9.26013051 15.1923633,9.26013052 L13.458737,9.26013052 C13.2479923,9.26013052 13.0748805,9.08701878 13.0748806,8.87627406 L13.0748806,0.850412397 C13.0748806,0.609561276 13.2705721,0.413869754 13.5114232,0.413869754 L15.0945175,0.413869754 C15.3629662,0.413869754 15.5837463,0.634649947 15.5837463,0.903098574 L15.5837463,8.86623859 L15.5862552,8.86623859 Z M0.00368980128,0.724969116 L0.00368980128,9.37804721 C0.00368980128,9.47087525 0.0789557703,9.54614121 0.171783803,9.54614121 L3.15984296,9.54614121 C3.25267099,9.54614121 3.32793696,9.47087525 3.32793696,9.37804721 L3.32793696,7.18028078 C3.32793696,7.08745275 3.40320293,7.01218678 3.49603098,7.01218678 L6.70236145,7.01218678 C7.15395729,7.01218678 7.5202517,6.69105196 7.5202517,6.29716002 L7.5202517,2.50877268 C7.5202517,2.10735415 7.15395729,1.79374593 6.70236145,1.79374594 L3.50104871,1.79374594 C3.40822067,1.79374594 3.33295471,1.71847997 3.33295469,1.62565192 L3.33295469,0.722460237 C3.33295469,0.331077178 2.96666029,0.0074334804 2.51506444,0.00743349499 L0.826597776,0.00743349499 C0.369984204,0.00994235916 0.00368980128,0.331077178 0.00368980128,0.724969116 Z M7.0586204,3.98398576 C7.0586204,4.11695565 6.91310619,4.19723935 6.80271608,4.12699111 L4.03041938,2.43099785 C3.89243177,2.34569641 3.94010022,2.12993396 4.10317649,2.11989849 C4.12826514,2.11738962 4.15084494,2.11738962 4.17593361,2.11738962 L6.24073014,2.11738962 C6.69483484,2.11738962 7.05862038,2.43852444 7.0586204,2.83241636 L7.0586204,3.98398576 Z M4.18095134,6.65341897 C4.01285733,6.65341897 3.95264455,6.43012991 4.0956499,6.33981074 L6.80271608,4.67141499 C6.91561504,4.60116675 7.06112925,4.68395932 7.06112926,4.81442035 L7.06112926,5.94090108 C7.06112926,6.33228413 6.69483486,6.65592783 6.25076561,6.65592783 L4.18596906,6.65592783 C4.1834602,6.65341897 4.18095134,6.65341897 4.18095134,6.65341897 Z M3.65910725,5.69252336 L3.63903632,3.10839161 C3.63903632,2.97542172 3.78204167,2.89262915 3.89494063,2.96287739 L6.00489676,4.25494327 C6.11277799,4.32017378 6.11277799,4.47572346 6.00489676,4.54346284 L3.91752042,5.83552872 C3.80462146,5.9032681 3.66161612,5.82549327 3.65910725,5.69252336 Z M0.415143789,0.903098574 C0.415143789,0.634649933 0.635923982,0.413869739 0.904372609,0.413869754 L2.48746692,0.413869754 C2.72831805,0.413869754 2.92400957,0.609561291 2.92400957,0.850412397 L2.92400957,8.87627406 C2.92400957,9.08701878 2.75089782,9.26013052 2.5401531,9.26013052 L0.806526848,9.26013052 C0.590764383,9.26013052 0.412634924,9.08200105 0.412634924,8.86623859 L0.412634924,0.903098574 L0.415143789,0.903098574 Z" id="Shape"></path>
            </g>
        </g>
    </g>
</svg>