<?xml version="1.0" encoding="UTF-8" standalone="no"?>
<svg width="16px" height="16px" viewBox="0 0 16 16" version="1.1" xmlns="http://www.w3.org/2000/svg" xmlns:xlink="http://www.w3.org/1999/xlink">
    <!-- Generator: Sketch 50.2 (55047) - http://www.bohemiancoding.com/sketch -->
    <title>黑名单</title>
    <desc>Created with Sketch.</desc>
    <defs></defs>
    <g id="黑名单" stroke="none" stroke-width="1" fill="none" fill-rule="evenodd">
        <g fill="#F5A623" fill-rule="nonzero" id="Shape">
            <path d="M8,8.83336788 C6.57450777,8.83336788 5.41492228,7.67274611 5.41492228,6.24725389 C5.42762483,4.82864275 6.58122837,3.68532258 7.99989637,3.68532258 C9.41856437,3.68532258 10.5721679,4.82864275 10.5848705,6.24725389 C10.5848705,7.67378238 9.42528497,8.83336788 8,8.83336788 Z M8,4.47564767 C7.28308759,4.47539619 6.63663884,4.90709348 6.36217216,5.5693861 C6.08770548,6.23167871 6.23929027,6.9940963 6.74622393,7.50102996 C7.25315758,8.00796362 8.01557518,8.1595484 8.67786779,7.88508172 C9.3401604,7.61061504 9.77185769,6.96416629 9.77160622,6.24725389 C9.77012251,5.26943802 8.97781587,4.47713137 8,4.47564767 Z"></path>
            <path d="M11.3160622,12.3374093 C11.0915328,12.337295 10.9095444,12.1553065 10.9094301,11.9307772 C10.9094301,10.3264249 9.60373057,9.02176166 8.00041451,9.02176166 C6.39709845,9.02176166 5.09139896,10.3274611 5.09139896,11.9307772 C5.09139896,12.1553539 4.90934356,12.3374093 4.68476684,12.3374093 C4.46019012,12.3374093 4.27813472,12.1553539 4.27813472,11.9307772 C4.27813472,9.87896373 5.94818653,8.20849741 8.00041451,8.20849741 C10.0526425,8.20849741 11.7226943,9.87854922 11.7226943,11.9307772 C11.7225799,12.1553065 11.5405915,12.337295 11.3160622,12.3374093 Z"></path>
            <path d="M8,15.9931606 C5.9519171,15.9931606 3.9038342,15.2136788 2.34507772,13.6559585 C-0.772642487,10.5372021 -0.772642487,5.46259067 2.3438342,2.34487047 C5.46362694,-0.772849741 10.5372021,-0.771813472 13.6549223,2.3438342 C13.6559585,2.3438342 13.6559585,2.3438342 13.6559585,2.34487047 C16.7726425,5.46259067 16.7726425,10.5372021 13.6559585,13.6549223 C12.1565308,15.1553619 10.1212236,15.9967814 8,15.9931606 Z M8,0.818860104 C6.09429416,0.815460518 4.26577558,1.57152565 2.91896373,2.91979275 C0.118963731,5.72020725 0.118963731,10.2797927 2.92,13.080829 C5.72103627,15.8818653 10.2797927,15.8818653 13.0810363,13.0797927 C15.8822798,10.2777202 15.8810363,5.72082902 13.08,2.91875648 C11.7333365,1.57102707 9.90522044,0.815347107 8,0.818860104 Z"></path>
            <path d="M13.3678756,13.7745078 C13.2599139,13.7748228 13.1562632,13.7321694 13.0797927,13.6559585 L2.34404145,2.92020725 C2.18493766,2.76110346 2.18493766,2.50314524 2.34404145,2.34404145 C2.50314524,2.18493766 2.76110346,2.18493766 2.92020725,2.34404145 L13.6559585,13.0797927 C13.7727209,13.1961072 13.8077273,13.3713973 13.7445968,13.5236374 C13.6814662,13.6758774 13.5326856,13.7749551 13.3678756,13.7745078 Z"></path>
        </g>
    </g>
</svg>