<?xml version="1.0" encoding="UTF-8" standalone="no"?>
<svg width="16px" height="16px" viewBox="0 0 16 16" version="1.1" xmlns="http://www.w3.org/2000/svg" xmlns:xlink="http://www.w3.org/1999/xlink">
    <!-- Generator: Sketch 50.2 (55047) - http://www.bohemiancoding.com/sketch -->
    <title>危险区域</title>
    <desc>Created with Sketch.</desc>
    <defs></defs>
    <g id="危险区域" stroke="none" stroke-width="1" fill="none" fill-rule="evenodd">
        <g fill="#FF5454" fill-rule="nonzero" id="Shape">
            <path d="M7.99962008,6.38195984 C9.03110137,6.38195984 9.86993973,7.25518908 9.86993973,8.32798574 C9.86993973,9.40175592 9.03110137,10.2749852 7.99962008,10.2749852 C6.96813879,10.2749852 6.12930044,9.40175592 6.12930047,8.32798574 C6.12930047,7.25518908 6.96813882,6.38195984 7.99962008,6.38195984 Z M7.99962008,5.40846012 C6.99731879,5.40846009 6.07115419,5.96510407 5.57000354,6.86870965 C5.06885288,7.77231523 5.06885288,8.88560323 5.57000354,9.78920881 C6.07115419,10.6928144 6.99731879,11.2494584 7.99962008,11.2494583 C9.5490436,11.2494583 10.8050995,9.94190635 10.8050995,8.32895923 C10.8050995,6.71601211 9.5490436,5.40846012 7.99962008,5.40846012 Z"></path>
            <path d="M12.1180639,9.23334046 L14.9525333,9.53512536 C14.7818508,10.608284 14.3820732,11.6279118 13.7826484,12.518902 C13.1858764,13.4106424 12.4061672,14.1531546 11.4999233,14.6927268 L10.2430685,12.0204701 C11.2056968,11.3950151 11.8825547,10.3888842 12.1180639,9.23334046 Z M11.2567817,8.1634643 C11.2605224,8.21895378 11.2736146,8.27054928 11.2736146,8.32701225 C11.2713609,9.80910591 10.3451939,11.1181423 8.9862137,11.5600048 L11.0706849,15.9952694 C12.4749257,15.3880521 13.6825302,14.3745228 14.5504146,13.0747703 C15.423905,11.7782362 15.9185282,10.2463778 15.974663,8.66384314 L11.2567817,8.1634643 Z M8.00055526,0.992665469 C9.05261005,0.992665469 10.0803507,1.23604039 11.0192512,1.70137326 L9.6333443,4.29769697 C9.1178589,4.06577619 8.56212333,3.94649377 8.00055526,3.94723708 C7.43478356,3.94723708 6.88210411,4.06697754 6.36589589,4.29964398 L4.97998904,1.70234675 C5.9234068,1.23425699 6.95545923,0.991776529 8.00055526,0.992665469 Z M8.00055526,0.0191657754 C6.47945637,0.0172328382 4.98986225,0.47036893 3.70910685,1.32462888 L6.01053515,5.63917955 C6.57902949,5.17667588 7.27905081,4.92395217 8.00055526,4.92073677 C8.7514886,4.92073677 9.43602559,5.19526369 9.98776986,5.63820606 L12.2910685,1.32462888 C11.0106689,0.470346557 9.52136609,0.0172003188 8.00055526,0.0191657754 Z M3.88211142,9.23334046 C4.11741917,10.3871453 4.79277403,11.3919947 5.75336622,12.0175496 L4.49651142,14.6917533 C2.66058598,13.5985146 1.39394001,11.7041113 1.04670685,9.53220486 L3.88211142,9.23334046 Z M4.74245844,8.1634643 L0.0217716986,8.66092264 C0.0808110017,10.2435051 0.575149171,11.7751566 1.44602008,13.0737968 C2.31345916,14.3735919 3.52078142,15.3871567 4.9248146,15.9942959 L7.00928584,11.5600048 C5.69071049,11.1209564 4.72656071,9.84664528 4.72656074,8.32798574 C4.72656074,8.27152277 4.73965299,8.21992727 4.74245844,8.1634643 Z"></path>
        </g>
    </g>
</svg>