<?xml version="1.0" encoding="UTF-8" standalone="no"?>
<svg width="16px" height="16px" viewBox="0 0 16 16" version="1.1" xmlns="http://www.w3.org/2000/svg" xmlns:xlink="http://www.w3.org/1999/xlink">
    <!-- Generator: Sketch 50.2 (55047) - http://www.bohemiancoding.com/sketch -->
    <title>电梯困人</title>
    <desc>Created with Sketch.</desc>
    <defs></defs>
    <g id="电梯困人" stroke="none" stroke-width="1" fill="none" fill-rule="evenodd">
        <g id="电梯困人_画板-1" transform="translate(1.000000, 0.000000)" fill="#FF5454" fill-rule="nonzero">
            <path d="M13.5363127,0.00624231193 L0.463687266,0.00624231193 C0.21986499,0.00624231193 0.0135538299,0.209628294 0.0135538299,0.471124569 L0.0135538299,15.5313724 C0.0135538299,15.7831836 0.210487211,15.9962546 0.463687266,15.9962546 L13.5363127,15.9962546 C13.780135,15.9962546 13.9864462,15.7928686 13.9864462,15.5313724 L13.9864462,0.461439523 C13.9864462,0.209628312 13.780135,0.00624233028 13.5363127,0.00624231193 Z M13.0861793,14.9115294 C13.0580459,14.8631041 13.0205348,14.8146789 12.9830237,14.7662537 L9.97275629,11.1246761 L9.97275629,0.926321761 L13.0861793,0.926321761 L13.0861793,14.9115294 Z M4.63679941,0.926321761 L9.08186718,0.926321761 L9.08186718,6.4564835 C8.80053376,6.16593209 8.41604478,5.9819162 7.9846669,5.9819162 L5.74337746,5.9819162 L4.63679941,4.64537974 L4.63679941,0.926321761 Z M3.73653252,3.5606545 L1.57026532,0.926321761 L3.7459103,0.926321761 L3.7459103,3.5606545 L3.73653252,3.5606545 Z M8.77240044,9.662234 L6.39982208,6.78577508 L7.9846669,6.78577508 C8.41604478,6.78577508 8.77240043,7.15380686 8.77240044,7.59931903 L8.77240044,9.662234 Z M4.81497724,6.29183771 C4.74933278,6.34026294 4.69306609,6.38868818 4.63679941,6.44679844 L4.63679941,6.06908161 L4.81497724,6.29183771 Z M4.63679941,11.8026293 C4.82435502,11.9866452 5.04942173,12.1222359 5.30262181,12.1997163 L5.30262181,15.0664901 L4.63679941,15.0664901 L4.63679941,11.8026293 Z M5.71524413,11.4636527 C5.28386625,11.4636527 4.9275106,11.0956209 4.9275106,10.6501088 L4.9275106,7.58963398 C4.9275106,7.28939752 5.07755509,7.03758631 5.31199959,6.89231061 L8.69737819,10.9890854 C8.57546705,11.2699518 8.30351143,11.4539677 7.9846669,11.4539677 L7.63768906,11.4539677 L7.63768906,15.04712 L6.06222199,15.04712 L6.06222199,11.4539677 L5.71524413,11.4539677 L5.71524413,11.4636527 Z M8.40666702,12.1997163 C8.66924486,12.1222359 8.89431159,11.9769602 9.08186718,11.7832592 L9.08186718,15.0568051 L8.40666702,15.0568051 L8.40666702,12.1997163 Z M9.98213407,12.5483779 L12.0546235,15.0568051 L9.98213407,15.0568051 L9.98213407,12.5483779 Z M0.913820721,1.56553484 L3.73653252,4.99404143 L3.73653252,15.0664901 L0.913820721,15.0664901 L0.913820721,1.56553484 Z" id="Shape"></path>
            <path d="M6.84995552,5.17805732 C7.8440002,5.17805732 8.6504893,4.3451433 8.6504893,3.31852833 C8.6504893,2.29191336 7.84400022,1.45899934 6.84995552,1.45899934 C5.85591081,1.45899934 5.04942173,2.29191336 5.04942173,3.31852833 C5.04942173,4.3451433 5.85591081,5.17805732 6.84995552,5.17805732 Z M6.84995552,2.23380308 C7.4220001,2.23380308 7.89088911,2.71805543 7.89088911,3.30884328 C7.89088911,3.89963114 7.4220001,4.38388349 6.84995552,4.38388347 C6.27791093,4.38388345 5.80902192,3.89963112 5.80902192,3.30884328 C5.80902192,2.71805545 6.27791093,2.23380308 6.84995552,2.23380308 Z" id="Shape"></path>
        </g>
    </g>
</svg>