<?xml version="1.0" encoding="UTF-8" standalone="no"?>
<svg width="16px" height="16px" viewBox="0 0 16 16" version="1.1" xmlns="http://www.w3.org/2000/svg" xmlns:xlink="http://www.w3.org/1999/xlink">
    <!-- Generator: Sketch 48.2 (47327) - http://www.bohemiancoding.com/sketch -->
    <title>梯控系统</title>
    <desc>Created with Sketch.</desc>
    <defs></defs>
    <g id="Page-1" stroke="none" stroke-width="1" fill="none" fill-rule="evenodd">
        <g id="梯控系统" fill="#FF5454" fill-rule="nonzero">
            <g id="电梯-(1)" transform="translate(1.000000, 0.000000)">
                <path d="M0.484141176,0.000752941176 C0.214287059,0.000752941176 0.00225882353,0.212781176 0.00225882353,0.482635294 L0.00225882353,15.5173647 C0.00225882353,15.7872188 0.214287059,15.9992471 0.484141176,15.9992471 C0.753995294,15.9992471 0.966023529,15.7872188 0.966023529,15.5173647 L0.966023529,0.482635294 C0.966023529,0.212781176 0.753995294,0.000752941176 0.484141176,0.000752941176 Z M13.7840941,0.000752941176 C13.51424,0.000752941176 13.3022118,0.212781176 13.3022118,0.482635294 L13.3022118,15.5173647 C13.3022118,15.7872188 13.51424,15.9992471 13.7840941,15.9992471 C14.0539482,15.9992471 14.2659765,15.7872188 14.2659765,15.5173647 L14.2659765,0.482635294 C14.2659765,0.212781176 14.0539482,0.000752941176 13.7840941,0.000752941176 Z M9.26403765,3.33537882 L5.00419765,3.33537882 C3.88623059,3.33537882 2.98029176,4.24131765 2.98029176,5.35928471 L2.98029176,10.6407153 C2.98029176,11.7586824 3.88623059,12.6646212 5.00419765,12.6646212 L9.26403765,12.6646212 C10.3820047,12.6646212 11.2879435,11.7586824 11.2879435,10.6407153 L11.2879435,5.35928471 C11.2879435,4.24131765 10.3820047,3.33537882 9.26403765,3.33537882 Z M10.3241788,10.6407153 C10.3241788,11.2286118 9.85193412,11.7008565 9.26403765,11.7008565 L7.616,11.7008565 L7.616,10.0142682 C7.616,9.74441412 7.40397176,9.53238588 7.13411765,9.53238588 C6.86426353,9.53238588 6.65223529,9.74441412 6.65223529,10.0142682 L6.65223529,11.7008565 L5.00419765,11.7008565 C4.41630118,11.7008565 3.94405647,11.2286118 3.94405647,10.6407153 L3.94405647,5.35928471 C3.94405647,4.77138824 4.41630118,4.29914353 5.00419765,4.29914353 L6.65223529,4.29914353 L6.65223529,8.21202824 C6.65223529,8.48188235 6.86426353,8.69391059 7.13411765,8.69391059 C7.40397176,8.69391059 7.616,8.48188235 7.616,8.21202824 L7.616,4.29914353 L9.26403765,4.29914353 C9.85193412,4.29914353 10.3241788,4.77138824 10.3241788,5.35928471 L10.3241788,10.6407153 Z M6.49803294,1.48495059 L6.74861176,1.23437176 L6.74861176,2.48726588 C6.74861176,2.69929412 6.92208941,2.87277176 7.13411765,2.87277176 C7.34614588,2.87277176 7.51962353,2.69929412 7.51962353,2.48726588 L7.51962353,1.23437176 L7.77020235,1.48495059 C7.84730353,1.56205176 7.94368,1.60060235 8.04005647,1.60060235 C8.13643294,1.60060235 8.24244706,1.56205176 8.30991059,1.48495059 C8.46411294,1.33074824 8.45447529,1.08980706 8.30991059,0.935604706 L7.70273882,0.328432941 C7.39433412,0.0200282353 6.88353882,0.0200282353 6.57513412,0.328432941 L5.96796235,0.935604706 C5.81376,1.08980706 5.81376,1.33074824 5.96796235,1.48495059 C6.10288941,1.62951529 6.34383059,1.62951529 6.49803294,1.48495059 Z M7.77020235,14.5150494 L7.51962353,14.7656282 L7.51962353,13.5127341 C7.51962353,13.3007059 7.34614588,13.1272282 7.13411765,13.1272282 C6.92208941,13.1272282 6.74861176,13.3007059 6.74861176,13.5127341 L6.74861176,14.7656282 L6.49803294,14.5150494 C6.34383059,14.3608471 6.10288941,14.3704847 5.94868706,14.5150494 C5.79448471,14.6692518 5.80412235,14.9101929 5.94868706,15.0643953 L6.55585882,15.6715671 C6.71006118,15.8257694 6.91245176,15.9028706 7.12448,15.9028706 C7.32687059,15.9028706 7.53889882,15.8257694 7.69310118,15.6715671 L8.30027294,15.0643953 C8.45447529,14.9101929 8.45447529,14.6692518 8.30027294,14.5150494 C8.16534588,14.3704847 7.92440471,14.3704847 7.77020235,14.5150494 Z" id="Shape"></path>
            </g>
        </g>
    </g>
</svg>