<?xml version="1.0" encoding="UTF-8" standalone="no"?>
<svg width="16px" height="16px" viewBox="0 0 16 16" version="1.1" xmlns="http://www.w3.org/2000/svg" xmlns:xlink="http://www.w3.org/1999/xlink">
    <!-- Generator: Sketch 50.2 (55047) - http://www.bohemiancoding.com/sketch -->
    <title>犯罪嫌疑人</title>
    <desc>Created with Sketch.</desc>
    <defs></defs>
    <g id="犯罪嫌疑人" stroke="none" stroke-width="1" fill="none" fill-rule="evenodd">
        <g transform="translate(0.000000, 1.000000)" fill="#FF5454" fill-rule="nonzero" id="Shape">
            <path d="M14.8648666,4.37586565 L14.8305941,4.3415345 C14.0795641,3.6157555 13.1110428,3.24126765 12.1425216,3.24126765 L12.1425216,3.25685584 C11.9098424,3.25641749 11.6775914,3.27685033 11.4485506,3.31790961 L9.99965915,1.85911423 C9.76345705,1.62993062 9.38201382,1.62993062 9.15340726,1.85911423 L9.14581174,1.87433129 L8.28788867,2.7224034 L7.85716721,2.28649061 C7.95625611,2.07375475 8.00706057,1.84166941 8.00592821,1.60691949 C8.00592821,0.736021798 7.28528023,0.014139863 6.40457062,0.014139863 C6.00423123,0.014139863 5.60741169,0.155918219 5.29506918,0.457475574 L5.26820697,0.472507063 C5.13463819,0.616949668 5.13463819,0.840062464 5.26820697,0.984505068 C5.40548208,1.12182966 5.63816431,1.12182966 5.77525413,0.984505068 L5.79822595,0.965390985 C5.95828762,0.800787046 6.18337431,0.72897 6.40438536,0.72897 C6.88846072,0.72897 7.29250523,1.12182966 7.29250526,1.60691949 C7.29250526,1.84389719 7.20506418,2.06528669 7.02944095,2.24863356 L7.02944095,2.24083947 L7.02944095,2.24863356 C6.69023621,2.58470766 6.11834926,2.58470766 5.77506887,2.24863356 L5.77506887,2.24083947 L5.74802144,2.21059094 C5.44723739,1.92864881 5.05082578,1.77159018 4.63889049,1.77115228 C3.75818087,1.77115228 3.03716238,2.49303424 3.03716238,3.38675748 C3.0385171,3.80408276 3.20281769,4.20431457 3.49493131,4.50187025 L3.49493131,5.31932268 L2.27501695,5.31932268 C2.1149355,5.31822704 1.96109077,5.38143096 1.84787604,5.49480467 C1.73466132,5.60817838 1.67151813,5.7622671 1.67256267,5.92262299 L1.67256267,7.97376984 C1.48193369,8.11109443 1.29890021,8.2604813 1.14272895,8.42063145 L1.13476292,8.42063145 C0.412178866,9.14318056 0.0073385791,10.1247173 0.0100704359,11.1474524 C0.00746029016,12.1668941 0.412509011,13.1449261 1.13476292,13.8631389 L1.16551551,13.8896759 C1.85911603,14.5772267 2.80096031,14.9858601 3.84580721,14.9858601 C4.90584515,14.9858601 5.8662151,14.5618241 6.56018613,13.8631389 C7.26212318,13.1677939 7.68524913,12.209491 7.68524913,11.1474524 C7.68524913,10.0818878 7.26212318,9.11950225 6.56018613,8.42063145 C6.39247423,8.25847192 6.21289225,8.10910162 6.02294215,7.97376984 L6.02294215,5.92262299 C6.02294215,5.57875479 5.75209708,5.31932268 5.42030259,5.31932268 L4.20427864,5.31932268 L4.20427864,4.92200923 C4.348964,4.96005185 4.49401987,4.98343415 4.63907574,4.98343415 C5.05108631,4.98343415 5.45494556,4.82235611 5.77525413,4.50966434 C5.91252923,4.37568008 5.91252923,4.14259944 5.77525413,4.00564598 C5.63816428,3.86776467 5.40548205,3.86776467 5.26820697,4.00564598 L5.26431659,4.00564598 L5.26820697,4.00564598 C5.09258377,4.18064204 4.86027205,4.25709842 4.63907574,4.25709845 C4.41787944,4.25709848 4.18908759,4.18064206 4.01346438,4.00564598 C3.84967919,3.84144757 3.75788843,3.61868918 3.75836613,3.38657191 C3.75836613,2.88255357 4.15092474,2.49284866 4.63907574,2.49284864 C4.86008679,2.49284864 5.08517351,2.57320207 5.25301595,2.72221783 L5.26431659,2.74875488 L5.26820697,2.74875488 C5.85139459,3.32551813 6.78175295,3.3711693 7.4223701,2.85954241 L7.78084151,3.22994764 L6.91939856,4.09713385 C6.69060672,4.32613189 6.69060672,4.70822825 6.91939856,4.93722629 L8.37570028,6.38488723 C8.33364705,6.62539084 8.3069701,6.85457443 8.3069701,7.09136656 C8.30626421,8.11157431 8.71094209,9.09011318 9.43166259,9.81095011 C10.1906587,10.5556576 11.1665902,10.9410943 12.1427069,10.9410943 C13.1262339,10.9410943 14.1099461,10.5556576 14.8648666,9.81095011 C15.5841551,9.08913959 15.9886318,8.11124816 15.9897443,7.09136656 C15.9897443,6.11357838 15.6083011,5.12836726 14.8648666,4.37586565 Z M5.71819513,9.27594095 C6.20245574,9.74228782 6.49979249,10.414436 6.49979249,11.1476379 C6.49979249,11.8728602 6.202641,12.5379566 5.71819513,13.0226753 C5.24171528,13.4929192 4.57831159,13.798188 3.84617772,13.7981881 C3.12942015,13.7981881 2.4773171,13.5040536 2.00472767,13.0460576 L1.98157059,13.0226753 C1.50138562,12.5418536 1.20015849,11.8730458 1.20015849,11.1476379 C1.20015849,10.414436 1.50138564,9.74228782 1.98157059,9.27594095 C2.96917323,8.27532719 4.66223282,8.21427344 5.71819513,9.27594095 Z M4.82951946,6.51497445 L4.82951946,7.42762623 C4.18714911,7.2594984 3.51243133,7.2594984 2.87006097,7.42762623 L2.87006097,6.51497445 L4.82951946,6.51497445 Z M8.83309869,5.15880136 L8.18470077,4.50984991 L9.56523256,3.12732534 L10.2132599,3.77627682 C9.64526338,4.1010309 9.16081751,4.5898322 8.83309869,5.15880136 Z M14.0184294,8.97030095 C13.5037867,9.48601045 12.8211164,9.74210224 12.1427069,9.74210224 C11.4717077,9.74210224 10.7929277,9.48601045 10.278285,8.97030095 C9.7806387,8.47204627 9.50095746,7.79617744 9.50076328,7.09136656 C9.50076328,6.85476 9.53503574,6.6099882 9.59969028,6.38099019 L9.60691528,6.36595872 C9.9274091,5.22764926 10.9839272,4.44081647 12.1427069,4.44081647 L12.1427069,4.44471352 C12.8137061,4.44471352 13.4771098,4.70024859 13.9958281,5.19684398 L14.0184294,5.22004071 C14.5330721,5.73556464 14.7887261,6.41921838 14.7887261,7.09136656 C14.7887261,7.77130883 14.5330721,8.45496259 14.0184294,8.97030095 Z"></path>
        </g>
    </g>
</svg>