<?xml version="1.0" encoding="UTF-8" standalone="no"?>
<svg width="16px" height="16px" viewBox="0 0 16 16" version="1.1" xmlns="http://www.w3.org/2000/svg" xmlns:xlink="http://www.w3.org/1999/xlink">
    <!-- Generator: Sketch 50.2 (55047) - http://www.bohemiancoding.com/sketch -->
    <title>消防通道堵塞</title>
    <desc>Created with Sketch.</desc>
    <defs></defs>
    <g id="消防通道堵塞" stroke="none" stroke-width="1" fill="none" fill-rule="evenodd">
        <g id="交易堵塞" transform="translate(0.000000, 1.000000)" fill="#FF5454" fill-rule="nonzero">
            <path d="M15.5789732,4.71052718 C15.5107321,4.71052734 15.4435469,4.69394373 15.3833826,4.66224877 L13.6382214,3.75049417 C13.5063913,3.68161118 13.4219142,3.54874194 13.4166117,3.40193701 C13.4113093,3.25513208 13.4859871,3.11669462 13.6125147,3.03877268 C13.7390424,2.96085074 13.8981973,2.95528253 14.0300274,3.02416553 L15.7751886,3.9360739 C15.9447879,4.02463556 16.0312541,4.21553791 15.984811,4.39888338 C15.9383678,4.58222884 15.7709655,4.71084092 15.5789732,4.71068093 L15.5789732,4.71052718 Z M2.16290006,12.306996 C2.09465905,12.3069962 2.02747379,12.2904126 1.96730954,12.2587176 L0.221992127,11.346963 C0.0901620225,11.27808 0.00568487848,11.1452108 0.000382418142,10.9984059 C-0.00492004219,10.8516009 0.0697577511,10.7131635 0.196285395,10.6352415 C0.322813039,10.5573196 0.481967973,10.5517514 0.613798073,10.6206344 L2.35895927,11.532389 C2.52855859,11.6209507 2.61502488,11.811853 2.5685817,11.9951985 C2.52213852,12.178544 2.35473615,12.3071561 2.16274384,12.306996 L2.16290006,12.306996 Z" id="Shape"></path>
            <path d="M7.90079509,14.9999779 C6.77634717,15.0026742 5.66546621,14.7583134 4.64918064,14.2847194 C4.44365616,14.1859725 4.35696498,13.9429685 4.45465454,13.7394435 C4.55234409,13.5359185 4.79811938,13.4474889 5.00614899,13.5410167 C5.91085221,13.9626324 6.899797,14.1801028 7.90079509,14.1775537 C11.6418545,14.1775537 14.684912,11.1819862 14.684912,7.49991205 C14.6879765,6.1281973 14.258933,4.7892733 13.4568472,3.6674676 C13.3710906,3.54722448 13.3570276,3.39108792 13.4199555,3.25787304 C13.4828834,3.12465817 13.6132421,3.03460349 13.7619265,3.02163174 C13.910611,3.00865998 14.0550326,3.07474187 14.1407891,3.19498499 C15.0418705,4.45511294 15.52391,5.95915977 15.5205459,7.5000658 C15.5211708,11.6354034 12.1025546,14.9999779 7.90079509,14.9999779 Z M2.21976505,12.2694803 C2.09090957,12.2694663 1.96929425,12.2108401 1.89029185,12.1106536 C0.837039985,10.7828437 0.281200447,9.18842625 0.281200447,7.49991205 C0.281200447,3.36457441 3.69887937,-3.20534287e-10 7.90079509,-3.20534287e-10 C9.16929742,-9.10189859e-05 10.417797,0.311168874 11.5332799,0.905604507 C11.6644403,0.975723436 11.7476286,1.10938307 11.7515086,1.25623511 C11.7553886,1.40308715 11.6793709,1.54082129 11.5520906,1.6175544 C11.4248103,1.69428751 11.2656043,1.69836201 11.134444,1.62824307 C10.1413105,1.09931168 9.02986064,0.822406794 7.90063887,0.822577939 C4.15942321,0.822577939 1.11589709,3.81799167 1.11589709,7.5000658 C1.11589709,9.00346153 1.61127854,10.4229082 2.54876956,11.6052679 C2.64718322,11.7290783 2.66521831,11.8972924 2.59522842,12.0385919 C2.52523852,12.1798914 2.37948557,12.2695211 2.21976505,12.2694803 Z M11.6912208,3.6459422 C11.5222476,3.64587874 11.3699412,3.54567215 11.3052866,3.39202549 C11.2406321,3.23837883 11.2763542,3.06153158 11.3958041,2.94390652 L13.223607,1.14499774 C13.3291213,1.04109648 13.4829416,1.00048912 13.6271251,1.03847205 C13.7713087,1.07645498 13.8839507,1.1872577 13.9226199,1.32914189 C13.9612892,1.47102608 13.9201109,1.62243616 13.8145966,1.72633742 L11.9867937,3.52524618 C11.9085312,3.60261088 11.8021448,3.64605335 11.6912208,3.6459422 Z M2.32880833,14.352832 C2.15987526,14.3527686 2.00759671,14.252609 1.94291628,14.0990157 C1.87823586,13.9454224 1.91387709,13.7686092 2.03323542,13.65095 L3.86103829,11.8520413 C3.96649679,11.7480851 4.12029522,11.7073976 4.26449922,11.7453055 C4.40870321,11.7832134 4.52140474,11.8939575 4.56015024,12.0358216 C4.59889573,12.1776857 4.55779883,12.3291172 4.45234033,12.4330734 L2.62453747,14.2319822 C2.54625264,14.3094267 2.4398055,14.3529263 2.32880833,14.352832 Z" id="Shape"></path>
        </g>
        <path d="M7.83249869,5.5 C7.58261731,5.5 7.37110128,5.68447959 7.33713849,5.93204218 L6.651195,10.9320422 C6.6481054,10.954563 6.6465552,10.9772683 6.6465552,11 C6.6465552,11.2761424 6.87041283,11.5 7.1465552,11.5 L9.7893224,11.5 C9.82101727,11.5 9.85264034,11.4969863 9.88376468,11.4909996 C10.1549363,11.4388406 10.3324811,11.1767293 10.2803221,10.9055577 L9.31858738,5.90555772 C9.27330672,5.67014632 9.06731438,5.5 8.82758773,5.5 L7.83249869,5.5 Z" id="Rectangle-28" stroke="#FF5454"></path>
        <rect id="Rectangle-32" stroke="#FF5454" x="4.5" y="7.5" width="8" height="2" rx="1"></rect>
    </g>
</svg>