<?xml version="1.0" encoding="UTF-8" standalone="no"?>
<svg width="16px" height="16px" viewBox="0 0 16 16" version="1.1" xmlns="http://www.w3.org/2000/svg" xmlns:xlink="http://www.w3.org/1999/xlink">
    <!-- Generator: Sketch 48.2 (47327) - http://www.bohemiancoding.com/sketch -->
    <title>消防系统</title>
    <desc>Created with Sketch.</desc>
    <defs></defs>
    <g id="Page-1" stroke="none" stroke-width="1" fill="none" fill-rule="evenodd">
        <g id="消防系统" fill="#FF5454" fill-rule="nonzero">
            <path d="M12.2156912,2.09249893 C12.2258576,2.09355994 12.2359468,2.0940808 12.2459396,2.09406151 C12.3923006,2.09406151 12.5179431,1.98336958 12.5333952,1.83457787 C12.549889,1.67561979 12.4344322,1.53336774 12.2754741,1.51685462 C11.4029023,1.42622536 10.8007521,1.36435903 10.3841238,1.32215026 L12.3650424,0.559479413 C12.514162,0.502050019 12.588529,0.334603884 12.5310996,0.185464936 C12.4736702,0.0363259886 12.3062433,-0.0380023474 12.1570851,0.0193884649 L9.06216739,1.21097606 C9.05643851,1.21322457 9.05078332,1.21565649 9.04521057,1.21826806 L8.0475557,1.22193336 C6.87111157,1.22625455 5.76592849,1.68759952 4.93558472,2.52101057 C4.10524094,3.35442162 3.6479278,4.4613023 3.6479278,5.63774643 L3.6479278,10.5242606 L3,10.5242606 L3,15.6929447 L4.85184236,15.6929447 L4.85184236,10.5242027 L4.27550357,10.5242027 L4.27550357,5.63770785 C4.27550357,4.62845907 4.66780594,3.67887744 5.38014649,2.96391331 C6.09248704,2.24894918 7.04060255,1.85317442 8.04987062,1.84947054 L8.87678059,1.84642256 L8.87678059,2.78713032 L7.4710047,2.78713032 C7.24780749,2.78713032 7.06622104,2.96871678 7.06622104,3.19191398 L7.06622104,3.98865279 L6.54978089,3.98865279 C6.1349273,3.98865279 5.79743075,4.32614935 5.79743075,4.74100293 L5.79743075,15.2476499 C5.79743075,15.6625034 6.1349273,16 6.54978089,16 L11.7826269,16 C12.1974805,16 12.5349771,15.6625034 12.5349771,15.2476499 L12.5349771,4.74100293 C12.5349771,4.32614935 12.1974805,3.98865279 11.7826269,3.98865279 L11.2816582,3.98865279 L11.2816582,3.19191398 C11.2816582,2.96871678 11.100091,2.78713032 10.8768938,2.78713032 L9.45556935,2.78713032 L9.45556935,1.81212311 C9.68451528,1.8312791 11.2036838,1.98736282 12.2156912,2.09249893 Z M11.2816389,4.81469466 L11.2816389,4.56738367 L11.7826076,4.56738367 C11.878349,4.56738367 11.9562269,4.64526155 11.9562269,4.74100293 L11.9562269,15.2476499 C11.9562269,15.3433912 11.878349,15.4212691 11.7826076,15.4212691 L6.5497616,15.4212691 C6.45403951,15.4212691 6.37614233,15.3433912 6.37614233,15.2476499 L6.37614233,4.74100293 C6.37614233,4.64526155 6.45403951,4.56738367 6.5497616,4.56738367 L7.06620174,4.56738367 L7.06620174,4.81469466 C7.06620174,5.03789187 7.2477882,5.21947833 7.47098541,5.21947833 L10.8768552,5.21947833 C11.1000717,5.21947833 11.2816389,5.03789187 11.2816389,4.81469466 Z M10.7708124,3.29797606 L10.7708124,4.70863258 L7.57706678,4.70863258 L7.57706678,3.29797606 L10.7708124,3.29797606 Z" id="Shape"></path>
        </g>
    </g>
</svg>