<?xml version="1.0" encoding="UTF-8" standalone="no"?>
<svg width="16px" height="16px" viewBox="0 0 16 16" version="1.1" xmlns="http://www.w3.org/2000/svg" xmlns:xlink="http://www.w3.org/1999/xlink">
    <!-- Generator: Sketch 50.2 (55047) - http://www.bohemiancoding.com/sketch -->
    <title>高空抛物</title>
    <desc>Created with Sketch.</desc>
    <defs></defs>
    <g id="高空抛物" stroke="none" stroke-width="1" fill="none" fill-rule="evenodd">
        <g transform="translate(2.000000, 1.000000)">
            <path d="M7.38735334,1.01314427e-05 L0.238059577,1.01314427e-05 C0.108179073,-0.00117969387 0.00176569682,0.102579131 0,0.232131157 L0,13.9347595 L0.953310655,13.9347595 L0.953310655,11.8435309 C0.955076352,11.7139789 1.06148973,11.6102201 1.19137023,11.6114099 L2.1446809,11.6114099 C2.2745614,11.6102201 2.38097478,11.7139789 2.38274048,11.8435309 L2.38274048,13.9336898 L7.62541292,13.9336898 L7.62541292,0.232131157 C7.62364722,0.102579131 7.51723385,-0.00117969387 7.38735334,1.01314427e-05 Z M2.38274048,10.3342094 C2.38245736,10.3654165 2.36975739,10.3952331 2.34743469,10.4170993 C2.32511199,10.4389654 2.29499533,10.4510897 2.26371068,10.4508048 L1.07234045,10.4508048 C1.0410558,10.4510897 1.01093914,10.4389654 0.98861644,10.4170993 C0.966293741,10.3952331 0.953593769,10.3654165 0.953310655,10.3342094 L0.953310655,9.17360426 C0.953593769,9.14239715 0.966293741,9.11258053 0.98861644,9.09071438 C1.01093914,9.06884824 1.0410558,9.05672392 1.07234045,9.05700891 L2.26371068,9.05700891 C2.29499533,9.05672392 2.32511199,9.06884824 2.34743469,9.09071438 C2.36975739,9.11258053 2.38245736,9.14239715 2.38274048,9.17360426 L2.38274048,10.3342094 Z M2.38274048,7.77980842 C2.38245736,7.81101554 2.36975739,7.84083215 2.34743469,7.8626983 C2.32511199,7.88456445 2.29499533,7.89668876 2.26371068,7.89640377 L1.07234045,7.89640377 C1.0410558,7.89668876 1.01093914,7.88456445 0.98861644,7.8626983 C0.966293741,7.84083215 0.953593769,7.81101554 0.953310655,7.77980842 L0.953310655,6.61813361 C0.95448492,6.5535675 1.00760601,6.50201024 1.07234045,6.50260793 L2.26371068,6.50260793 C2.32844513,6.50201024 2.38156621,6.5535675 2.38274048,6.61813361 L2.38274048,7.77980842 Z M2.38274048,5.22540744 C2.38156621,5.28997355 2.32844513,5.34153081 2.26371068,5.34093312 L1.07234045,5.34093312 C1.00760601,5.34153081 0.95448492,5.28997355 0.953310655,5.22540744 L0.953310655,4.06373263 C0.95563217,4.00000782 1.00841815,3.94972455 1.07234045,3.95034631 L2.26371068,3.95034631 C2.32844513,3.94974862 2.38156621,4.00130588 2.38274048,4.06587199 L2.38274048,5.22540744 Z M2.38274048,2.67100646 C2.38245737,2.70221358 2.3697574,2.7320302 2.3474347,2.75389635 C2.325112,2.7757625 2.29499533,2.78788682 2.26371068,2.78760182 L1.07234045,2.78760182 C1.04030514,2.78790427 1.00952445,2.77519574 0.987074207,2.75239764 C0.964623961,2.72959955 0.95243549,2.69867314 0.953310655,2.66672774 L0.953310655,1.50933165 C0.953593769,1.47812453 0.966293741,1.44830792 0.98861644,1.42644177 C1.01093914,1.40457562 1.0410558,1.39245131 1.07234045,1.3927363 L2.26371068,1.3927363 C2.29499533,1.39245131 2.32511199,1.40457562 2.34743469,1.42644177 C2.36975739,1.44830792 2.38245736,1.47812453 2.38274048,1.50933165 L2.38274048,2.67100646 Z M4.52742136,10.3352791 C4.52713825,10.3664862 4.51443829,10.3963028 4.49211559,10.418169 C4.46979289,10.4400351 4.43967623,10.4521594 4.40839158,10.4518744 L3.21702134,10.4518744 C3.18555169,10.4521598 3.15527254,10.4398891 3.13291875,10.4177916 C3.11056497,10.3956941 3.09799025,10.3656023 3.09799156,10.3342094 L3.09799156,9.17360426 C3.09827467,9.14239715 3.11097464,9.11258053 3.13329734,9.09071439 C3.15562003,9.06884824 3.18573669,9.05672392 3.21702134,9.05700891 L4.40839158,9.05700891 C4.43967623,9.05672392 4.46979289,9.06884824 4.49211558,9.09071439 C4.51443828,9.11258053 4.52713825,9.14239715 4.52742136,9.17360426 L4.52742136,10.3352791 Z M4.52742136,7.78087811 C4.52713825,7.81208522 4.51443828,7.84190184 4.49211558,7.86376798 C4.46979289,7.88563413 4.43967623,7.89775845 4.40839158,7.89747346 L3.21702134,7.89747346 C3.18555169,7.89775885 3.15527254,7.88548813 3.13291875,7.86339065 C3.11056497,7.84129317 3.09799025,7.81120135 3.09799156,7.77980842 L3.09799156,6.61813361 C3.09916582,6.5535675 3.1522869,6.50201025 3.21702134,6.50260793 L4.40839158,6.50260793 C4.47312602,6.50201025 4.5262471,6.5535675 4.52742136,6.61813361 L4.52742136,7.78087811 Z M4.52742136,5.22647713 C4.52566981,5.29062291 4.47271774,5.34154026 4.40839158,5.34093312 L3.21702134,5.34093312 C3.1522869,5.3415308 3.09916582,5.28997355 3.09799156,5.22540744 L3.09799156,4.06373263 C3.10031307,4.00000783 3.15309904,3.94972456 3.21702134,3.95034631 L4.40839158,3.95034631 C4.47312602,3.94974863 4.5262471,4.00130588 4.52742136,4.06587199 L4.52742136,5.22647713 Z M4.52742136,2.67207615 C4.52713825,2.70328326 4.51443828,2.73309988 4.49211558,2.75496602 C4.46979289,2.77683217 4.43967623,2.78895649 4.40839158,2.7886715 L3.21702134,2.7886715 C3.18479385,2.78898508 3.15384117,2.77613107 3.13135767,2.75309715 C3.10887417,2.73006323 3.09681806,2.69885555 3.09799156,2.66672774 L3.09799156,1.50933165 C3.09827467,1.47812453 3.11097464,1.44830792 3.13329734,1.42644177 C3.15562003,1.40457563 3.18573669,1.39245131 3.21702134,1.3927363 L4.40839158,1.3927363 C4.43967623,1.39245131 4.46979289,1.40457563 4.49211558,1.42644177 C4.51443828,1.44830792 4.52713825,1.47812453 4.52742136,1.50933165 L4.52742136,2.67207615 Z M6.67210226,10.3363488 C6.67181915,10.3675559 6.65911918,10.3973725 6.63679648,10.4192386 C6.61447378,10.4411048 6.58435711,10.4532291 6.55307247,10.4529441 L5.36170224,10.4529441 C5.33004583,10.4532325 5.29960186,10.4408156 5.27721646,10.4184857 C5.25483107,10.3961558 5.24238333,10.3657873 5.24267244,10.3342094 L5.24267244,9.17360426 C5.24295556,9.14239715 5.25565553,9.11258053 5.27797823,9.09071438 C5.30030093,9.06884824 5.33041759,9.05672392 5.36170224,9.05700891 L6.55307247,9.05700891 C6.58435711,9.05672392 6.61447378,9.06884824 6.63679648,9.09071438 C6.65911918,9.11258053 6.67181915,9.14239715 6.67210226,9.17360426 L6.67210226,10.3363488 Z M6.67210226,7.78194778 C6.67181915,7.8131549 6.65911918,7.84297152 6.63679648,7.86483767 C6.61447378,7.88670382 6.58435712,7.89882814 6.55307247,7.89854315 L5.36170224,7.89854315 C5.33004583,7.89883155 5.29960186,7.88641467 5.27721646,7.86408476 C5.25483106,7.84175486 5.24238332,7.81138636 5.24267244,7.77980842 L5.24267244,6.61813361 C5.24384671,6.5535675 5.29696779,6.50201024 5.36170224,6.50260793 L6.55307247,6.50260793 C6.61780691,6.50201024 6.670928,6.5535675 6.67210226,6.61813361 L6.67210226,7.78194778 Z" id="Shape" stroke="#FF5454" stroke-width="0.5" fill-rule="nonzero"></path>
            <path d="M9.06874508,2.79843652 L8.46908188,2.27408813 C8.33291442,2.15239879 8.31909531,1.94450824 8.43796331,1.80594987 L9.92576724,0.111255837 C10.0476754,-0.0240382237 10.2554509,-0.0378059653 10.3942278,0.0802144174 L10.993891,0.604562813 C11.1301399,0.723694765 10.9686598,0.935112047 10.9686598,0.935112047 L12.0115523,1.84454191 C12.1948995,1.78329803 12.3134865,1.75561242 12.4446891,1.8705496 C12.5758917,1.98548677 12.8904416,2.36805136 12.5691634,3.09878329 C12.6121302,3.09669384 12.6542667,3.11110483 12.6869093,3.13905324 L12.9442683,3.36389385 C13.012225,3.42485739 13.0189472,3.5287942 12.959407,3.59796296 L12.302553,4.346313 C12.2414379,4.41410125 12.1372428,4.42080685 12.0679021,4.36141424 L11.8105432,4.13657364 C11.7785642,4.10806806 11.7587081,4.06845437 11.7550344,4.02583126 C11.0712669,4.44027624 10.6490637,4.17936047 10.5178611,4.06442331 C10.3866585,3.94948614 10.397592,3.82867627 10.4337568,3.63907188 L9.39422847,2.7279641 C9.39422847,2.7279641 9.20499394,2.91756849 9.06874508,2.79843652 Z M9.15284932,2.34623846 C9.22218998,2.40563107 9.32638508,2.39892547 9.38750013,2.33113723 L10.2411581,1.35878555 L10.4413262,1.5332887 L9.65326952,2.43097317 L10.5027223,3.1734505 L11.290779,2.27576604 L11.3084409,2.29086727 L11.4909471,2.45026919 L11.5405686,2.49389497 L10.6473816,3.51658409 C10.611461,3.55792604 10.6155866,3.62040517 10.6566331,3.65668999 L10.9089458,3.87481892 C10.9410324,3.90273125 10.9873916,3.90711939 11.0241686,3.88572537 L11.0241686,3.88992015 C11.2176083,4.05771165 11.668407,3.86055665 12.0334194,3.44778958 C12.3984318,3.03502251 12.5329986,2.56017261 12.3387178,2.39238113 L12.3336715,2.39238113 C12.3496317,2.3534395 12.3391752,2.30868903 12.3075992,2.28079979 L12.0552865,2.06267085 C12.0354673,2.04524234 12.0094993,2.03641657 11.9831355,2.0381488 C11.9567717,2.03988103 11.9321887,2.05202826 11.9148324,2.07189938 C11.8210907,2.11439214 11.7116203,2.10282989 11.628878,2.04169691 L10.7037314,1.23545881 C10.628026,1.172005 10.5798158,1.08183496 10.5691646,0.983771575 C10.6287049,0.91460281 10.6219826,0.810665995 10.5540259,0.749702447 L10.3017132,0.531573515 C10.2323725,0.472180901 10.1281774,0.478886503 10.0670624,0.54667475 L8.8845568,1.88900666 C8.8252287,1.9583962 8.8323256,2.06235017 8.90053661,2.12307578 L9.15284932,2.34120472 L9.15284932,2.34623846 Z" id="Combined-Shape" fill="#FF5454"></path>
        </g>
    </g>
</svg>