<?xml version="1.0" encoding="UTF-8" standalone="no"?>
<svg width="16px" height="16px" viewBox="0 0 16 16" version="1.1" xmlns="http://www.w3.org/2000/svg" xmlns:xlink="http://www.w3.org/1999/xlink">
    <!-- Generator: Sketch 50.2 (55047) - http://www.bohemiancoding.com/sketch -->
    <title>重点关注人员</title>
    <desc>Created with Sketch.</desc>
    <defs></defs>
    <g id="重点关注人员" stroke="none" stroke-width="1" fill="none" fill-rule="evenodd">
        <g fill="#FF5454" fill-rule="nonzero" id="Shape">
            <path d="M15.9999472,7.98402645 C15.9999472,12.4000119 12.415959,16 7.98397366,16 C4.75198433,15.984 1.87199383,14.0480064 0.623997938,11.1200161 C0.223999266,10.1600193 0,9.10402275 0,7.98402645 C0,3.58404097 3.58398817,-0.0159471406 8.0319735,5.2796875e-05 C12.4479589,0.01605275 15.9999472,3.58404097 15.9999472,7.98402645 Z M7.99997359,12.9280101 C8.47997202,12.9280101 8.89597064,12.5280115 8.89597064,12.0320131 C8.89597064,11.5360147 8.47997202,11.136016 7.99997359,11.136016 C7.50397523,11.136016 7.10397655,11.5360147 7.10397656,12.0320131 C7.11997652,12.5440114 7.50397525,12.9280101 7.99997359,12.9280101 Z M7.1199765,9.55202128 C7.1199765,10.0320197 7.51997519,10.4320184 8.01597355,10.4320184 C8.49597197,10.4320184 8.91197059,10.0320197 8.91197059,9.55202128 L8.91197059,3.95203977 C8.91197059,3.44004145 8.49597197,3.05604272 8.01597355,3.05604272 C7.51997519,3.05604272 7.1199765,3.45604141 7.1199765,3.95203977 L7.1199765,9.55202128 Z M8.0319735,0.736050375 C3.9999868,0.720050422 0.751997516,4.00003959 0.751997516,7.98402645 C0.751997516,8.99202312 0.959996828,9.95201995 1.31199567,10.8160171 C2.43199197,13.4720083 5.03998338,15.2320025 7.9679737,15.2320025 C10.9279639,15.2480025 13.5519553,13.5040082 14.6879515,10.8160171 C15.439949,9.02402302 15.439949,6.94402989 14.6879515,5.1520358 C13.5679552,2.51204452 10.9759638,0.752050313 8.0319735,0.736050375 Z"></path>
        </g>
    </g>
</svg>