<?xml version="1.0" encoding="UTF-8" standalone="no"?>
<svg width="16px" height="16px" viewBox="0 0 16 16" version="1.1" xmlns="http://www.w3.org/2000/svg" xmlns:xlink="http://www.w3.org/1999/xlink">
    <!-- Generator: Sketch 50.2 (55047) - http://www.bohemiancoding.com/sketch -->
    <title>停车场系统</title>
    <desc>Created with Sketch.</desc>
    <defs></defs>
    <g id="停车场系统" stroke="none" stroke-width="1" fill="none" fill-rule="evenodd">
        <g id="停车-(2)" fill="#FF5454" fill-rule="nonzero">
            <path d="M11.5936786,6.36764286 C11.5936786,7.24535714 11.3373929,7.94032143 10.8257143,8.45225 C10.3131607,8.96458929 9.60033929,9.21998214 8.68666071,9.21998214 L7.096,9.21998214 L7.096,12.8950714 L5.83433929,12.8950714 L5.83433929,3.51541071 L8.68666071,3.51541071 C9.60033929,3.51541071 10.3131607,3.77180357 10.8257143,4.28335714 C11.3374107,4.79569643 11.5936786,5.49014286 11.5936786,6.36764286 Z M10.3322143,6.36764286 C10.3322143,5.67357143 10.1674107,5.197875 9.83844643,4.94157143 C9.5095,4.68617857 9.01557143,4.55783929 8.35748214,4.55783929 L7.09598214,4.55783929 L7.09598214,8.17778571 L8.35748214,8.17778571 C9.01557143,8.17778571 9.5095,8.05010714 9.83844643,7.79380357 C10.1674107,7.53841071 10.3322143,7.06283929 10.3322143,6.36764286 Z M8,16 C3.58857143,16 0,12.4114286 0,8 C0,3.58857143 3.58857143,0 8,0 C12.4114286,0 16,3.58857143 16,8 C16,12.4114286 12.4114286,16 8,16 Z M8,1.148 C4.22171429,1.148 1.148,4.22171429 1.148,8 C1.148,11.7777143 4.22171429,14.852 8,14.852 C11.7777143,14.852 14.852,11.7777143 14.852,8 C14.852,4.22171429 11.7777143,1.148 8,1.148 Z" id="Shape"></path>
        </g>
    </g>
</svg>