<?xml version="1.0" encoding="UTF-8" standalone="no"?>
<svg width="16px" height="16px" viewBox="0 0 16 16" version="1.1" xmlns="http://www.w3.org/2000/svg" xmlns:xlink="http://www.w3.org/1999/xlink">
    <!-- Generator: Sketch 50.2 (55047) - http://www.bohemiancoding.com/sketch -->
    <title>群体事件</title>
    <desc>Created with Sketch.</desc>
    <defs></defs>
    <g id="群体事件" stroke="none" stroke-width="1" fill="none" fill-rule="evenodd">
        <g transform="translate(1.000000, 2.000000)" fill="#FF5454" fill-rule="nonzero" id="Shape">
            <path d="M13.705423,12.3133803 L12.4420824,12.3133803 L12.4420824,6.35657277 C12.4420824,6.16126761 12.3449024,6.06361502 12.1505423,6.06361502 C11.9561822,6.06361502 11.8590022,6.16126761 11.8590022,6.35657277 L11.8590022,12.3133803 L10.1097614,12.3133803 L10.1097614,5.77065728 L10.1097614,5.47769953 C10.1097614,5.18474178 10.1097614,4.89178404 10.0125813,4.59882629 C10.3041215,4.40352113 10.6928416,4.30586854 10.9843818,4.30586854 C11.567462,4.30586854 12.0533623,4.50117371 12.4420824,4.89178404 C12.8308026,5.28239437 13.0251627,5.77065728 13.0251627,6.25892019 L13.0251627,8.11431925 C13.0251627,8.30962441 13.1223427,8.407277 13.3167028,8.407277 C13.5110629,8.407277 13.608243,8.30962441 13.608243,8.11431925 L13.608243,6.25892019 C13.608243,5.57535211 13.3167028,4.89178404 12.8308026,4.40352113 C12.5392625,4.11056338 12.2477223,3.91525822 11.9561822,3.81760563 C12.2477223,3.52464789 12.3449024,3.23169014 12.3449024,2.84107981 C12.3449024,2.05985915 11.7618221,1.47394366 10.9843818,1.47394366 C10.2069414,1.47394366 9.62386117,2.05985915 9.62386117,2.84107981 C9.62386117,3.23169014 9.72104121,3.52464789 10.0125813,3.81760563 C9.9154013,4.0129108 9.81822126,4.0129108 9.72104121,4.11056338 C9.42950108,3.42699531 8.84642082,3.03638498 8.16616052,2.74342723 C8.45770065,2.45046948 8.65206074,2.05985915 8.65206074,1.66924883 C8.65206074,0.790375587 7.97180043,0.106807512 7.09718004,0.106807512 C6.22255965,0.106807512 5.63947939,0.790375587 5.63947939,1.66924883 C5.63947939,2.15751174 5.83383948,2.54812207 6.12537961,2.84107981 C5.54229935,3.03638498 4.95921909,3.52464789 4.66767896,4.11056338 C4.57049892,4.0129108 4.47331887,4.0129108 4.37613883,3.91525822 C4.57049892,3.62230047 4.764859,3.32934272 4.764859,2.93873239 C4.764859,2.15751174 4.18177874,1.57159624 3.40433839,1.57159624 C2.62689805,1.57159624 2.04381779,2.25516432 2.04381779,2.93873239 C2.04381779,3.32934272 2.23817787,3.71995305 2.43253796,3.91525822 C1.46073753,4.30586854 0.877657267,5.18474178 0.877657267,6.25892019 L0.877657267,8.11431925 C0.877657267,8.30962441 0.97483731,8.407277 1.1691974,8.407277 C1.36355748,8.407277 1.46073753,8.30962441 1.46073753,8.11431925 L1.46073753,6.35657277 C1.46073753,5.28239437 2.33535792,4.40352113 3.50151844,4.40352113 C3.89023861,4.40352113 4.18177874,4.50117371 4.47331887,4.69647887 C4.37613883,4.89178404 4.27895879,5.18474178 4.27895879,5.47769953 L4.27895879,12.3133803 L2.62689805,12.3133803 L2.62689805,6.45422535 C2.62689805,6.25892019 2.529718,6.16126761 2.33535792,6.16126761 C2.14099783,6.16126761 2.04381779,6.25892019 2.04381779,6.45422535 L2.04381779,12.4110329 L0.39175705,12.4110329 C0.197396963,12.4110329 0.10021692,12.5086854 0.10021692,12.7039906 C0.10021692,12.8992958 0.197396963,12.9969484 0.39175705,12.9969484 L13.608243,12.9969484 C13.802603,12.9969484 13.8997831,12.8992958 13.8997831,12.7039906 C13.9969631,12.5086854 13.802603,12.3133803 13.705423,12.3133803 Z M9.52668113,9.09084507 L9.52668113,12.4110329 L8.84642082,12.4110329 L8.84642082,9.28615023 C9.13796095,9.28615023 9.33232104,9.18849765 9.52668113,9.09084507 Z M10.8872017,2.15751174 C11.2759219,2.15751174 11.6646421,2.54812207 11.6646421,2.93873239 C11.6646421,3.13403756 11.567462,3.32934272 11.470282,3.52464789 C11.2759219,3.71995305 11.0815618,3.71995305 10.8872017,3.71995305 C10.6928416,3.71995305 10.4984816,3.62230047 10.3041215,3.52464789 C10.1097614,3.32934272 10.1097614,3.13403756 10.1097614,2.93873239 C10.1097614,2.54812207 10.4984816,2.15751174 10.8872017,2.15751174 Z M7.09718004,0.692723005 C7.58308026,0.692723005 8.06898048,1.08333333 8.06898048,1.66924883 C8.06898048,2.25516432 7.6802603,2.64577465 7.09718004,2.64577465 C6.51409978,2.64577465 6.12537961,2.25516432 6.12537961,1.66924883 C6.12537961,1.08333333 6.61127983,0.692723005 7.09718004,0.692723005 Z M7.19436009,3.13403756 C8.16616052,3.13403756 9.04078091,3.71995305 9.33232104,4.59882629 C9.42950108,4.89178404 9.52668113,5.18474178 9.52668113,5.47769953 L9.52668113,7.91901408 C9.52668113,8.30962441 9.235141,8.70023474 8.84642082,8.70023474 L8.84642082,5.57535211 C8.84642082,5.38004695 8.74924078,5.28239437 8.55488069,5.28239437 C8.36052061,5.28239437 8.26334056,5.38004695 8.26334056,5.57535211 L8.26334056,12.4110329 L6.22255965,12.4110329 L6.22255965,5.57535211 C6.22255965,5.38004695 6.12537961,5.28239437 5.93101952,5.28239437 C5.73665944,5.28239437 5.63947939,5.38004695 5.63947939,5.57535211 L5.63947939,8.79788732 C5.15357918,8.70023474 4.86203905,8.30962441 4.86203905,7.91901408 L4.86203905,5.47769953 C4.86203905,5.18474178 4.95921909,4.89178404 5.05639913,4.59882629 C5.44511931,3.71995305 6.22255965,3.13403756 7.19436009,3.13403756 Z M3.40433839,2.15751174 C3.79305857,2.15751174 4.18177874,2.54812207 4.18177874,2.93873239 C4.18177874,3.32934272 3.79305857,3.81760563 3.40433839,3.81760563 C3.01561822,3.81760563 2.62689805,3.42699531 2.62689805,2.93873239 C2.62689805,2.54812207 2.91843818,2.15751174 3.40433839,2.15751174 Z M4.86203905,9.09084507 C5.05639913,9.18849765 5.34793926,9.28615023 5.63947939,9.28615023 L5.63947939,12.3133803 L4.86203905,12.3133803 L4.86203905,9.09084507 Z"></path>
        </g>
    </g>
</svg>