<?xml version="1.0" encoding="UTF-8" standalone="no"?>
<svg width="16px" height="16px" viewBox="0 0 16 16" version="1.1" xmlns="http://www.w3.org/2000/svg" xmlns:xlink="http://www.w3.org/1999/xlink">
    <!-- Generator: Sketch 50.2 (55047) - http://www.bohemiancoding.com/sketch -->
    <title>供配电</title>
    <desc>Created with Sketch.</desc>
    <defs></defs>
    <g id="供配电" stroke="none" stroke-width="1" fill="none" fill-rule="evenodd">
        <g fill="#FF5454" fill-rule="nonzero" id="Shape">
            <path d="M7.9989009,16.0196036 C5.14920721,16.0196036 2.49390991,14.4870811 1.06881081,12.0188108 C-0.35627027,9.55153153 -0.35627027,6.4845045 1.06881081,4.01722523 C2.49389189,1.54895495 5.14920721,0.0164324324 7.9989009,0.0164324324 C12.4109009,0.0164324324 16,3.60601802 16,8.01801802 C16,12.430018 12.4109009,16.0196036 7.9989009,16.0196036 Z M7.9989009,1.01663063 C5.50572973,1.01663063 3.18203604,2.35771171 1.93518919,4.51733333 C0.688342342,6.67695495 0.68836036,9.35911712 1.93518919,11.5187207 C3.18201802,13.6783243 5.50572973,15.0194234 7.9989009,15.0194234 C11.859045,15.0194234 14.9998018,11.8781802 14.9998018,8.01803604 C14.9998018,4.15789189 11.859045,1.01663063 7.9989009,1.01663063 Z"></path>
            <path d="M5.9569009,13.6758739 C5.69562162,13.6758739 5.44410811,13.5654955 5.2678018,13.3740541 C5.08075676,13.1552613 4.99967568,12.8847027 5.03190991,12.6170631 L5.07097297,12.452973 L6.03210811,9.66922523 L4.59627027,9.66922523 C4.18212613,9.66922523 3.87299099,9.49731532 3.70985586,9.19745946 C3.53843243,8.85266667 3.5858018,8.45902703 3.82169369,8.17967568 L8.45787387,2.69421622 C8.51984992,2.62053313 8.59463105,2.55865604 8.67861261,2.51156757 C8.85297297,2.41583784 9.0405045,2.36504505 9.22803604,2.36016216 L9.22852252,2.36016216 C9.51372973,2.36016216 9.76183784,2.4676036 9.94057658,2.66295495 C10.0792793,2.81630631 10.2321441,3.08491892 10.1847568,3.51174775 L10.1510631,3.65827027 L9.67147748,6.0689009 L11.4750631,6.07963964 C11.876991,6.1109009 12.1636757,6.29843243 12.3028649,6.5856036 C12.445964,6.87472072 12.4171532,7.22636036 12.2237477,7.5232973 L12.1475676,7.62 L6.69776577,13.3887207 C6.61767568,13.4756577 6.51169369,13.545982 6.39545946,13.588955 C6.27825225,13.6397477 6.12832432,13.671982 5.97446847,13.6758919 L5.9569009,13.6758919 L5.9569009,13.6758739 Z M6.73390991,8.66902703 L7.43571171,8.66902703 L6.07655856,12.6053514 L11.2831532,7.07886486 L8.45300901,7.06127928 L9.19241441,3.38378378 L4.67735135,8.71688288 L6.73390991,8.66902703 Z"></path>
        </g>
    </g>
</svg>