<?xml version="1.0" encoding="UTF-8" standalone="no"?>
<svg width="16px" height="16px" viewBox="0 0 16 16" version="1.1" xmlns="http://www.w3.org/2000/svg" xmlns:xlink="http://www.w3.org/1999/xlink">
    <!-- Generator: Sketch 48.2 (47327) - http://www.bohemiancoding.com/sketch -->
    <title>sos</title>
    <desc>Created with Sketch.</desc>
    <defs></defs>
    <g id="Page-1" stroke="none" stroke-width="1" fill="none" fill-rule="evenodd">
        <g id="sos" fill="#626F86" fill-rule="nonzero">
            <g id="SOS紧急呼叫按钮" transform="translate(3.000000, 0.000000)">
                <path d="M7.27289139,16 L3.7170582,16 C1.67226616,16 0.00335503202,14.3787254 0.00335503202,12.3759743 L0.00335503202,3.62402567 C0.00335503202,1.62861072 1.66474855,0 3.7170582,0 L7.27289139,0 C9.31768343,0 10.9865946,1.62127464 10.9865946,3.62402567 L10.9865946,12.3759743 C10.9865946,14.3787254 9.32520104,16 7.27289139,16 Z M3.72457582,0.594222828 C2.01055898,0.594222828 0.61228208,1.95873452 0.612282064,3.63136177 L0.612282064,12.3833104 C0.612282064,14.0559376 2.01055896,15.4204493 3.72457582,15.4204493 L7.280409,15.4204493 C8.99442585,15.4204493 10.3927027,14.0559376 10.3927028,12.3833104 L10.3927028,3.63136177 C10.3927028,1.95873453 8.99442586,0.594222844 7.280409,0.594222828 L3.72457582,0.594222828 Z" id="Shape"></path>
                <path d="M5.49873361,7.19669877 C4.40116142,7.19669877 3.5065649,6.32370472 3.5065649,5.25263641 C3.5065649,4.18156809 4.40116142,3.30857405 5.49873361,3.30857405 C6.59630579,3.30857405 7.49090231,4.18156809 7.49090231,5.25263641 C7.49090231,6.32370472 6.59630579,7.19669877 5.49873361,7.19669877 Z M5.49873361,3.8954608 C4.73193659,3.8954608 4.10797432,4.5043558 4.10797432,5.25263641 C4.10797432,6.00091702 4.73193659,6.60981202 5.49873361,6.60981202 C6.26553062,6.60981202 6.88949289,6.00091702 6.88949289,5.25263641 C6.88949289,4.5043558 6.26553062,3.8954608 5.49873361,3.8954608 Z M4.1831505,10.872077 C4.1831505,11.0481431 4.15308002,11.2022008 4.08542147,11.3415864 C4.01776291,11.480972 3.92003388,11.5910133 3.79223437,11.6717102 C3.66443487,11.7524071 3.51408251,11.7890876 3.3336597,11.7890876 C3.1231664,11.7890876 2.9502612,11.737735 2.80742645,11.6276937 C2.70969743,11.5469968 2.63452125,11.4442916 2.56686268,11.3195782 C2.50672174,11.1875287 2.47665126,11.0628152 2.47665126,10.9381018 C2.47665126,10.8647409 2.4916865,10.8060523 2.52927459,10.7546997 C2.56686268,10.7033471 2.61196838,10.6813388 2.67210934,10.6813388 C2.71721504,10.6813388 2.75480313,10.7033471 2.7848736,10.7400275 C2.81494408,10.7767079 2.84501454,10.8353966 2.86756739,10.9160935 C2.89763787,11.0114626 2.92770833,11.0848235 2.95777881,11.1435122 C2.98784929,11.2022008 3.03295499,11.2535534 3.09309592,11.2975699 C3.15323686,11.3342503 3.22841304,11.3562586 3.31862446,11.3562586 C3.44642396,11.3562586 3.5516706,11.3122421 3.63436441,11.2315452 C3.71705821,11.1508482 3.75464628,11.048143 3.75464628,10.9307657 C3.75464628,10.8353966 3.73209343,10.7546997 3.68698773,10.696011 C3.64188203,10.6373223 3.58925871,10.5933058 3.52160014,10.5566254 C3.45394157,10.5272811 3.36373017,10.4906006 3.24344828,10.4539202 C3.09309592,10.4025676 2.95777881,10.351215 2.86004978,10.2851903 C2.75480313,10.2191655 2.67210934,10.1311325 2.61196838,10.0210912 C2.55182744,9.91104998 2.52175697,9.77166438 2.52175698,9.60293444 C2.52175698,9.44154058 2.55182746,9.30215498 2.61948601,9.17744155 C2.68714457,9.05272811 2.77735598,8.95735902 2.89763787,8.89133425 C3.01791975,8.82530948 3.16075449,8.78862906 3.32614207,8.78862906 C3.45394157,8.78862906 3.57422345,8.81063731 3.66443487,8.85465383 C3.7621639,8.89867033 3.83734007,8.95735902 3.90499864,9.03071986 C3.97265721,9.1040807 4.01776291,9.17744155 4.04031576,9.25813847 C4.07038623,9.33883539 4.08542146,9.41953233 4.08542147,9.49289317 C4.08542149,9.56625402 4.07038623,9.62494269 4.03279814,9.68363136 C3.99521006,9.74232003 3.95010436,9.76432828 3.89748103,9.7643283 C3.8448577,9.76432831 3.80726961,9.74965613 3.78471676,9.7129757 C3.76216391,9.67629528 3.73209343,9.62494269 3.70202296,9.55158184 C3.66443487,9.44154058 3.61932917,9.35350756 3.55918823,9.29481889 C3.5065649,9.23613022 3.41635348,9.1994498 3.29607161,9.1994498 C3.18330734,9.1994498 3.09309592,9.23613022 3.02543736,9.30215497 C2.95777879,9.36817973 2.9201907,9.44887666 2.92019072,9.54424577 C2.92019072,9.60293444 2.93522596,9.65428703 2.95777881,9.69096745 C2.98033166,9.73498395 3.01040214,9.77166438 3.05550784,9.80100872 C3.09309592,9.83035306 3.13820162,9.85236131 3.18330734,9.87436956 C3.22841304,9.88904173 3.29607161,9.91838606 3.39380063,9.94773041 C3.51408251,9.98441083 3.62684678,10.0284273 3.72457582,10.0724438 C3.82230485,10.1164603 3.90499866,10.175149 3.97265721,10.2411738 C4.04031576,10.3071985 4.09293908,10.3878955 4.13052717,10.4906006 C4.16059765,10.6006419 4.1831505,10.7253553 4.1831505,10.872077 Z M5.49121598,8.79596516 C5.71674451,8.79596516 5.90468496,8.85465383 6.06255494,8.97936727 C6.22042491,9.1040807 6.3407068,9.27281064 6.42340059,9.50022925 C6.50609438,9.72764786 6.54368247,9.99174691 6.54368247,10.2925264 C6.54368247,10.519945 6.52112962,10.7180192 6.47602392,10.9014214 C6.43091822,11.0848235 6.36325965,11.2462173 6.27304823,11.3782668 C6.18283682,11.5103164 6.07007255,11.6130215 5.94227305,11.6863824 C5.81447354,11.7597432 5.66412118,11.7964237 5.49121598,11.7964237 C5.32582839,11.7964237 5.17547603,11.7597432 5.04015891,11.6863824 C4.9048418,11.6130215 4.79959514,11.5103164 4.70938374,11.3782668 C4.61917233,11.2462173 4.55151378,11.0848235 4.50640806,10.9014214 C4.46130236,10.7180192 4.43874949,10.5126089 4.43874951,10.2925264 C4.43874951,10.0724438 4.46130236,9.86703347 4.50640806,9.68363136 C4.55151376,9.50022925 4.61917233,9.33883539 4.70938374,9.20678587 C4.79959516,9.07473636 4.9048418,8.97936727 5.04015891,8.90600642 C5.18299366,8.83264558 5.32582839,8.79596516 5.49121598,8.79596516 Z M6.10766064,10.2851903 C6.10766064,10.0724438 6.08510779,9.88904172 6.03248446,9.73498395 C5.97986113,9.58092619 5.91220258,9.46354883 5.81447356,9.38285191 C5.72426214,9.30215498 5.61149787,9.26547456 5.49121598,9.26547455 C5.40100456,9.26547455 5.32582839,9.2874828 5.25065222,9.33149931 C5.17547605,9.37551581 5.11533511,9.44154058 5.06271178,9.5222375 C5.01008845,9.60293442 4.96498275,9.71297569 4.93491228,9.84502522 C4.9048418,9.97707473 4.88980657,10.1237964 4.88980656,10.2851903 C4.88980654,10.4465841 4.9048418,10.6006419 4.93491228,10.7326914 C4.96498275,10.8647409 5.01008845,10.9747822 5.06271178,11.0628152 C5.11533511,11.1508482 5.18299366,11.216873 5.25816984,11.2608895 C5.33334601,11.304906 5.40852219,11.3269143 5.49873361,11.3269143 C5.61149787,11.3269143 5.7092269,11.2902338 5.80695593,11.216873 C5.89716734,11.1435122 5.97234352,11.0261348 6.03248446,10.872077 C6.07759016,10.7033471 6.10766064,10.5126089 6.10766064,10.2851903 Z M8.5433688,10.872077 C8.5433688,11.0481431 8.51329832,11.2022008 8.44563976,11.3415864 C8.37798119,11.480972 8.28025216,11.5910133 8.15245267,11.6717102 C8.02465317,11.7524071 7.87430081,11.7890876 7.69387798,11.7890876 C7.48338469,11.7890876 7.31047948,11.737735 7.16764474,11.6276937 C7.06991571,11.5469968 6.99473953,11.4442916 6.92708098,11.3195782 C6.86694004,11.1875287 6.83686956,11.0628152 6.83686956,10.9381018 C6.83686956,10.8647409 6.8519048,10.8060523 6.88949289,10.7546997 C6.92708098,10.7033471 6.97218668,10.6813388 7.03232762,10.6813388 C7.07743332,10.6813388 7.11502141,10.7033471 7.14509189,10.7400275 C7.17516236,10.7767079 7.20523283,10.8353966 7.22778569,10.9160935 C7.25785617,11.0114626 7.28792663,11.0848235 7.31799709,11.1435122 C7.34806757,11.2022008 7.39317327,11.2535534 7.45331422,11.2975699 C7.51345516,11.3342503 7.58863134,11.3562586 7.67884276,11.3562586 C7.80664226,11.3562586 7.9118889,11.3122421 7.99458269,11.2315452 C8.07727648,11.1508482 8.11486457,11.048143 8.11486458,10.9307657 C8.11486458,10.8353966 8.09231173,10.7546997 8.04720602,10.696011 C8.00210032,10.6373223 7.94947699,10.5933058 7.88181842,10.5566254 C7.81415986,10.5272811 7.72394846,10.4906006 7.60366658,10.4539202 C7.45331422,10.4025676 7.31799711,10.351215 7.22026806,10.2851903 C7.11502141,10.2191655 7.03232762,10.1311325 6.97218668,10.0210912 C6.91204574,9.91104998 6.88197526,9.77166438 6.88197526,9.60293444 C6.88197526,9.44154058 6.91204574,9.30215498 6.97970431,9.17744155 C7.04736287,9.05272811 7.13757428,8.95735902 7.25785615,8.89133425 C7.37813803,8.82530948 7.52097277,8.78862906 7.68636037,8.78862906 C7.81415987,8.78862906 7.93444175,8.81063731 8.02465317,8.85465383 C8.1223822,8.89867033 8.19755837,8.95735902 8.26521694,9.03071986 C8.33287551,9.1040807 8.37798121,9.17744155 8.40053406,9.25813847 C8.43060453,9.33883539 8.44563976,9.41953233 8.44563976,9.49289317 C8.44563976,9.56625402 8.43060452,9.62494269 8.39301644,9.68363136 C8.35542836,9.74232003 8.31032266,9.76432828 8.25769931,9.7643283 C8.20507597,9.76432831 8.1674879,9.74965613 8.14493505,9.7129757 C8.1223822,9.67629528 8.09231172,9.62494269 8.06224126,9.55158184 C8.02465317,9.44154058 7.97954747,9.35350756 7.91940651,9.29481889 C7.86678318,9.23613022 7.77657177,9.1994498 7.65628989,9.1994498 C7.54352562,9.1994498 7.45331421,9.23613022 7.38565566,9.30215497 C7.31799709,9.36817973 7.280409,9.44887666 7.280409,9.54424577 C7.280409,9.60293444 7.29544424,9.65428703 7.31799709,9.69096745 C7.34054994,9.73498395 7.37062042,9.77166438 7.41572614,9.80100872 C7.45331422,9.83035306 7.49841992,9.85236131 7.54352562,9.87436956 C7.58863132,9.88904173 7.65628989,9.91838606 7.75401893,9.94773041 C7.87430081,9.98441083 7.98706508,10.0284273 8.08479411,10.0724438 C8.18252313,10.1164603 8.26521694,10.175149 8.33287549,10.2411738 C8.40053404,10.3071985 8.45315737,10.3878955 8.49074547,10.4906006 C8.52081595,10.6006419 8.5433688,10.7253553 8.5433688,10.872077 Z" id="Shape"></path>
            </g>
        </g>
    </g>
</svg>