<?xml version="1.0" encoding="UTF-8" standalone="no"?>
<svg width="16px" height="16px" viewBox="0 0 16 16" version="1.1" xmlns="http://www.w3.org/2000/svg" xmlns:xlink="http://www.w3.org/1999/xlink">
    <!-- Generator: Sketch 50.2 (55047) - http://www.bohemiancoding.com/sketch -->
    <title>陌生人</title>
    <desc>Created with Sketch.</desc>
    <defs></defs>
    <g id="陌生人" stroke="none" stroke-width="1" fill="none" fill-rule="evenodd">
        <g transform="translate(1.000000, 0.000000)" fill="#FF5454" fill-rule="nonzero" id="Shape">
            <path d="M8.47945516,2.3875 C8.80522134,2.6671875 8.96730988,3.0515625 8.96730988,3.53125 C8.96730988,3.9234375 8.86083995,4.2515625 8.65902384,4.5078125 C8.58592509,4.5953125 8.35709421,4.803125 7.97412032,5.13125 C7.8199773,5.259375 7.70556186,5.403125 7.63246311,5.5484375 C7.54347333,5.7078125 7.50215664,5.884375 7.50215664,6.0765625 L7.50215664,6.2125 L6.63132804,6.2125 L6.63132804,6.0765625 C6.63132804,5.78125 6.68059024,5.525 6.79341657,5.315625 C6.89988649,5.0921875 7.20817253,4.7640625 7.71350738,4.3234375 L7.85175936,4.1703125 C7.99795687,3.9859375 8.07900114,3.79375 8.07900114,3.5859375 C8.07900114,3.30625 7.99795687,3.0890625 7.84222474,2.9296875 C7.68013621,2.7703125 7.44335982,2.6890625 7.15096481,2.6890625 C6.78547106,2.6890625 6.5169126,2.8015625 6.35323496,3.0328125 C6.20703746,3.225 6.13393871,3.496875 6.13393871,3.8484375 L5.27900114,3.8484375 C5.27900114,3.2640625 5.45062429,2.8078125 5.7922815,2.471875 C6.13393871,2.128125 6.60590238,1.959375 7.20817253,1.959375 C7.73098751,1.9625 8.15368899,2.0984375 8.47945516,2.3875 Z M7.49421112,6.8046875 C7.60862656,6.909375 7.66583428,7.0453125 7.66583428,7.2125 C7.66583428,7.3796875 7.60068104,7.5171875 7.48626561,7.628125 C7.37185017,7.7328125 7.22565267,7.7875 7.06356413,7.7875 C6.9014756,7.7875 6.75368899,7.73125 6.64086266,7.61875 C6.52644722,7.50625 6.4692395,7.3703125 6.4692395,7.2109375 C6.4692395,7.0421875 6.52644722,6.90625 6.64086266,6.803125 C6.75527809,6.690625 6.9014756,6.64375 7.06356413,6.64375 C7.23359818,6.6453125 7.37979569,6.6921875 7.49421112,6.8046875 Z"></path>
            <path d="M11.0951192,11.35 C9.82860386,11.0390625 9.14528944,10.15 9.04835414,9.45625 C9.00703746,9.171875 9.0261067,8.6453125 9.61407491,8.3125 C10.0987514,8.0390625 10.4340522,7.565625 10.6390465,6.8640625 C10.6501703,6.8265625 10.6740068,6.7921875 10.707378,6.76875 C10.7185017,6.7609375 11.78479,5.9484375 11.5146425,5.38125 C11.4431328,5.228125 11.3175936,5.1171875 11.184109,4.9984375 C11.1205448,4.9421875 11.0124858,4.8453125 10.9664018,4.784375 C11.1809308,3.3296875 10.8901249,2.1578125 10.0987514,1.3015625 C9.33280363,0.4703125 8.38251986,0.05625 7.12712826,0.00625 L7.12712826,0.0015625 C7.08422247,0.0015625 7.04131669,0.0015625 6.9984109,0.003125 C6.95550511,0.0015625 6.91259932,0.0015625 6.86969353,0.0015625 L6.86969353,0.00625 C5.61430193,0.0546875 4.66401816,0.4703125 3.89648127,1.3015625 C3.10510783,2.1578125 2.81430193,3.3296875 3.03041998,4.784375 C2.98433598,4.8453125 2.87468785,4.9421875 2.81271283,4.9984375 C2.67922815,5.1171875 2.55368899,5.228125 2.48376844,5.3796875 C2.21362089,5.95 3.27990919,6.759375 3.29103292,6.76875 C3.32440409,6.7921875 3.34824064,6.8265625 3.35936436,6.865625 C3.56276958,7.565625 3.89807037,8.0390625 4.38433598,8.3125 C4.9723042,8.64375 4.99137344,9.171875 4.95164586,9.45625 C4.85312145,10.15 4.17139614,11.0375 2.90488082,11.35 C0.948694665,11.828125 0,12.5125 0,13.4390625 L0,14.14375 C0.00635641317,14.96875 0.832690125,15.3390625 1.10601589,15.4609375 C1.85925085,15.7984375 3.77729852,15.9765625 6.8045403,15.9890625 L6.8045403,15.990625 L7.1922815,15.990625 L7.1922815,15.9890625 C10.2211124,15.975 12.1375709,15.796875 12.892395,15.4609375 C13.1641317,15.3390625 13.9904654,14.96875 13.9968218,14.1390625 L13.9968218,13.4375 C13.9952327,12.5125 13.046538,11.828125 11.0951192,11.35 Z M12.9782066,14.1359375 C12.9766175,14.2921875 12.7001135,14.4484375 12.4681044,14.5515625 C12.1772985,14.68125 11.0633371,14.9828125 6.99682179,14.990625 C2.93030647,14.98125 1.81634506,14.68125 1.52553916,14.5515625 C1.29353008,14.446875 1.01702611,14.290625 1.015437,14.140625 L1.015437,13.4390625 C1.015437,13.1640625 1.57321226,12.70625 3.14642452,12.3203125 C4.88172531,11.89375 5.80658343,10.64375 5.95595914,9.59375 C6.0830874,8.6984375 5.68422247,7.89375 4.88808173,7.4453125 C4.64335982,7.3078125 4.46220204,7.0265625 4.33507378,6.590625 C4.26197503,6.3375 4.1030647,6.1140625 3.88694665,5.959375 C3.78842225,5.8890625 3.67400681,5.7703125 3.58183882,5.6609375 C3.8138479,5.4484375 4.11101022,5.125 4.04426788,4.696875 C3.85675369,3.509375 4.0553916,2.61875 4.64971623,1.975 C5.24562997,1.3296875 5.97502838,1.0265625 6.9984109,1.003125 C8.02338252,1.0265625 8.75119183,1.328125 9.34710556,1.975 C9.94143019,2.61875 10.138479,3.509375 9.95255392,4.696875 C9.88581158,5.1265625 10.1829739,5.4484375 10.414983,5.6625 C10.322815,5.771875 10.2083995,5.890625 10.1098751,5.9609375 C9.89375709,6.115625 9.73484677,6.3390625 9.66174801,6.590625 C9.53461975,7.028125 9.35346198,7.3078125 9.10874007,7.446875 C8.31259932,7.896875 7.91373439,8.7 8.04086266,9.5953125 C8.18864926,10.6453125 9.11509648,11.8953125 10.8488082,12.3203125 C12.4204313,12.70625 12.9782066,13.1640625 12.9782066,13.4390625 L12.9782066,14.1359375 Z"></path>
        </g>
    </g>
</svg>