<?xml version="1.0" encoding="UTF-8" standalone="no"?>
<svg width="209px" height="147px" viewBox="0 0 209 147" version="1.1" xmlns="http://www.w3.org/2000/svg" xmlns:xlink="http://www.w3.org/1999/xlink">
    <!-- Generator: Sketch 48.2 (47327) - http://www.bohemiancoding.com/sketch -->
    <title>火警弹窗底框</title>
    <desc>Created with Sketch.</desc>
    <defs>
        <rect id="path-1" x="0" y="0" width="206.4" height="144"></rect>
        <filter x="-1.0%" y="-1.4%" width="101.9%" height="102.7%" filterUnits="objectBoundingBox" id="filter-2">
            <feMorphology radius="1" operator="erode" in="SourceAlpha" result="shadowSpreadInner1"></feMorphology>
            <feGaussianBlur stdDeviation="1" in="shadowSpreadInner1" result="shadowBlurInner1"></feGaussianBlur>
            <feOffset dx="0" dy="0" in="shadowBlurInner1" result="shadowOffsetInner1"></feOffset>
            <feComposite in="shadowOffsetInner1" in2="SourceAlpha" operator="arithmetic" k2="-1" k3="1" result="shadowInnerInner1"></feComposite>
            <feColorMatrix values="0 0 0 0 0.0844689938   0 0 0 0 0.178911208   0 0 0 0 0.313828656  0 0 0 1 0" type="matrix" in="shadowInnerInner1"></feColorMatrix>
        </filter>
    </defs>
    <g id="滨江小区智慧云平台" stroke="none" stroke-width="1" fill="none" fill-rule="evenodd" transform="translate(-762.000000, -415.000000)">
        <g id="Group-6-Copy" transform="translate(762.000000, 415.000000)">
            <g id="火警弹窗底框">
                <g id="Group-2-Copy-3" transform="translate(1.200000, 1.200000)">
                    <g id="Group-2-Copy-2">
                        <g id="Rectangle">
                            <use fill-opacity="0.8" fill="#07212D" fill-rule="evenodd" xlink:href="#path-1"></use>
                            <use fill="black" fill-opacity="1" filter="url(#filter-2)" xlink:href="#path-1"></use>
                            <use stroke="#FF5454" stroke-width="0.924657534" xlink:href="#path-1"></use>
                        </g>
                    </g>
                </g>
                <polygon id="Combined-Shape" fill="#FF5454" points="15.6 3 3 3 3 15.6 0 15.6 0 0 15.6 0"></polygon>
                <polygon id="Combined-Shape" fill="#FF5454" transform="translate(201.000000, 7.800000) scale(-1, 1) translate(-201.000000, -7.800000) " points="208.8 3 196.2 3 196.2 15.6 193.2 15.6 193.2 0 208.8 0"></polygon>
                <polygon id="Combined-Shape" fill="#FF5454" transform="translate(7.800000, 138.600000) scale(1, -1) translate(-7.800000, -138.600000) " points="15.6 133.8 3 133.8 3 146.4 0 146.4 0 130.8 15.6 130.8"></polygon>
                <polygon id="Combined-Shape" fill="#FF5454" transform="translate(201.000000, 138.600000) scale(-1, -1) translate(-201.000000, -138.600000) " points="208.8 133.8 196.2 133.8 196.2 146.4 193.2 146.4 193.2 130.8 208.8 130.8"></polygon>
            </g>
        </g>
    </g>
</svg>