<?xml version="1.0" encoding="UTF-8" standalone="no"?>
<svg width="16px" height="16px" viewBox="0 0 16 16" version="1.1" xmlns="http://www.w3.org/2000/svg" xmlns:xlink="http://www.w3.org/1999/xlink">
    <!-- Generator: Sketch 48.2 (47327) - http://www.bohemiancoding.com/sketch -->
    <title>视频监控系统</title>
    <desc>Created with Sketch.</desc>
    <defs></defs>
    <g id="Page-1" stroke="none" stroke-width="1" fill="none" fill-rule="evenodd">
        <g id="视频监控系统" fill="#626F86" fill-rule="nonzero">
            <g id="视频监控" transform="translate(1.000000, 0.000000)">
                <path d="M11.3539629,15.0706844 L2.00072502,15.0706844 C1.33422104,15.0706844 0.792145004,14.5594553 0.792145004,13.9309036 C0.792145004,13.3023519 1.33439434,12.7911229 2.00072502,12.7911229 L2.57555438,12.7911229 L3.51794872,11.4856693 C2.54903979,11.0262564 1.72795402,10.3545535 1.12227763,9.52116357 C0.40109349,8.53191251 0.014040178,7.33851836 0.0173297966,6.11429885 C0.0169991575,5.29111402 0.196565591,4.4778011 0.543462423,3.73127851 C0.878750515,3.00558454 1.35645922,2.35467254 1.94821574,1.81720248 C3.23252697,0.645188329 4.91161096,0 6.67595756,0 C7.57312113,0 8.43961096,0.162206897 9.24804598,0.482808134 C10.0415774,0.797170645 10.7423943,1.24774536 11.3312608,1.82222812 C11.9205638,2.35874931 12.3964407,3.00786532 12.7308152,3.73127851 C13.0778741,4.47775963 13.2575612,5.29108329 13.2572944,6.11429885 C13.2572944,7.71383908 12.5751936,9.26173652 11.3364598,10.4725694 L11.31913,10.4898992 L11.3004138,10.5044562 C10.7727215,10.9177719 10.2938992,11.2331742 9.82599469,11.4723254 L10.7770539,12.7907763 L11.3539629,12.7907763 C12.0204668,12.7907763 12.5625429,13.3020053 12.5625429,13.930557 C12.5625429,14.5591088 12.0202935,15.0706844 11.3539629,15.0706844 Z M2.00072502,13.657786 C1.8152962,13.657786 1.65863484,13.7829072 1.65863484,13.9310769 C1.65863484,14.0792467 1.81460301,14.2043678 2.00072502,14.2043678 L11.3539629,14.2043678 C11.5425111,14.2043678 11.6960531,14.0818462 11.6960531,13.9310769 C11.6960531,13.7803077 11.5425111,13.657786 11.3539629,13.657786 L10.6434412,13.657786 C10.4486022,13.6575718 10.2656642,13.5640086 10.1514483,13.4061574 L8.49281344,11.1054536 L9.00369584,10.897496 C9.54993103,10.6755013 10.1046578,10.3379169 10.7475933,9.83604598 C11.8074836,8.79261892 12.3908046,7.47156852 12.3908046,6.11429885 C12.3908046,4.7469779 11.789634,3.41414324 10.7415279,2.45771176 L10.7307834,2.44748718 C9.70312644,1.44235897 8.22524138,0.86666313 6.67561096,0.86666313 C5.12598055,0.86666313 3.65658709,1.4312679 2.53240318,2.45719187 C1.48481698,3.41396994 0.883819629,4.7468046 0.883819629,6.11429885 C0.883819629,8.2576481 2.20781609,10.0892343 4.33886118,10.8940301 L4.86811317,11.0938426 L3.20064014,13.4059841 C3.0864615,13.5639008 2.9035174,13.6575316 2.70864721,13.657786 L2.00072502,13.657786 Z" id="Shape"></path>
                <path d="M6.63731211,4.57749248 C8.01589744,4.57749248 9.13748187,5.56529089 9.13748187,6.77837666 C9.13748187,7.99146242 8.01589744,8.97926083 6.63731211,8.97926083 C5.25872679,8.97926083 4.13714235,7.99146242 4.13714235,6.77837666 C4.13714235,5.56529089 5.25872679,4.57749248 6.63731211,4.57749248 Z M6.63731211,3.74566225 C4.79706101,3.74566225 3.30531211,5.10345181 3.30531211,6.77837666 C3.30531211,8.4533015 4.79706101,9.81109107 6.63731211,9.81109107 C8.47756322,9.81109107 9.96931211,8.4533015 9.96931211,6.77837666 C9.96931211,5.10345181 8.47756322,3.74566225 6.63731211,3.74566225 Z" id="Shape"></path>
                <path d="M5.94412025,2.47469496 C5.94412025,2.85753426 6.25447282,3.16788683 6.63731211,3.16788683 C7.02015141,3.16788683 7.33050398,2.85753426 7.33050398,2.47469496 C7.33050398,2.09185566 7.02015141,1.78150309 6.63731211,1.78150309 C6.25447282,1.78150309 5.94412025,2.09185566 5.94412025,2.47469496 Z" id="Shape"></path>
            </g>
        </g>
    </g>
</svg>