<?xml version="1.0" encoding="UTF-8" standalone="no"?>
<svg width="16px" height="16px" viewBox="0 0 16 16" version="1.1" xmlns="http://www.w3.org/2000/svg" xmlns:xlink="http://www.w3.org/1999/xlink">
    <!-- Generator: Sketch 50.2 (55047) - http://www.bohemiancoding.com/sketch -->
    <title>暖通空调</title>
    <desc>Created with Sketch.</desc>
    <defs></defs>
    <g id="暖通空调" stroke="none" stroke-width="1" fill="none" fill-rule="evenodd">
        <g id="暖通系统2" transform="translate(1.000000, 0.000000)" fill="#FF5454" fill-rule="nonzero" stroke="#FF5454" stroke-width="0.3">
            <path d="M7.60220237,0 L8.08849434,0 L8.08849434,2.27276657 L9.79392028,0.567340638 L10.1377287,0.91114905 L8.08849434,2.96038341 L8.08849434,7.35954267 L11.8173812,5.20656602 L12.58167,2.35446363 L13.0514281,2.48025115 L12.4130888,4.86275761 L14.461999,3.67977134 L14.705145,4.10090019 L12.723181,5.24514519 L15,5.85527952 L14.8740504,6.32487546 L12.1276354,5.5891157 L8.33164032,7.78067151 L12.1232588,9.96979587 L14.8605963,9.22982159 L14.9837903,9.69358204 L12.7097269,10.3082551 L14.705145,11.4604429 L14.461999,11.8815717 L12.441618,10.7151194 L13.0567773,13.031328 L12.5935031,13.1566293 L11.8551498,10.3764981 L8.08849434,8.20180036 L8.08849434,12.6400251 L10.0313929,14.5743324 L9.69131267,14.9129537 L8.08849434,13.3171056 L8.08849434,15.561343 L7.60220237,15.561343 L7.60220237,0 Z M7.27800772,3.92162054 C5.3590996,4.16120039 3.87396393,5.79692447 3.87396393,7.78067151 C3.87396393,9.76441855 5.3590996,11.4001426 7.27800772,11.6397225 L7.27800772,12.1297427 C5.08985595,11.8877314 3.38767195,10.033338 3.38767195,7.78067151 C3.38767195,5.52800502 5.08985595,3.67361163 7.27800772,3.43160034 L7.27800772,3.92162054 Z M7.27800772,0.856522254 L7.22678496,0.805461606 L6.53900603,1.49178166 L7.27800772,1.49259215 L7.27800772,1.9676994 L7.22808174,1.962026 L5.62153517,2.13854999 L7.22597447,0.0513848588 L7.27800772,0.118979435 L7.27800772,0.856522254 Z M2.92634297,10.4653274 L3.89568496,11.678788 L5.10655198,12.6503993 L2.60214833,12.9752423 L2.92634297,10.4653274 Z M3.1127549,12.4635011 L4.04513871,12.4656084 L3.11064763,11.5291721 L3.1127549,12.4635011 Z M2.60263462,4.92516507 L2.25882621,2.29027309 L4.89371819,2.6340815 L3.6210921,3.65253898 L2.60263462,4.92516507 Z M2.79650302,2.8279499 L2.79536834,3.8088008 L3.77719182,2.82697732 L2.79650302,2.8279499 Z M0,7.78067151 L2.09089338,6.17607011 L1.91242422,7.78067151 L2.09089338,9.38527292 L0,7.78067151 Z M1.44250407,7.09289258 L0.754725138,7.78067151 L1.44250407,8.46845046 L1.44250407,7.09289258 Z M7.27800772,13.767412 L6.66981856,13.7667636 L7.27800772,14.3736559 L7.27800772,15.0844527 L5.78087684,13.1391227 L7.27800772,13.3067314 L7.27800772,13.767412 Z" id="Shape"></path>
        </g>
    </g>
</svg>