<?xml version="1.0" encoding="UTF-8" standalone="no"?>
<svg width="16px" height="16px" viewBox="0 0 16 16" version="1.1" xmlns="http://www.w3.org/2000/svg" xmlns:xlink="http://www.w3.org/1999/xlink">
    <!-- Generator: Sketch 50.2 (55047) - http://www.bohemiancoding.com/sketch -->
    <title>给排水</title>
    <desc>Created with Sketch.</desc>
    <defs></defs>
    <g id="给排水" stroke="none" stroke-width="1" fill="none" fill-rule="evenodd">
        <g id="左侧-给排水与消防" transform="translate(2.000000, 0.000000)" fill="#FF5454" fill-rule="nonzero">
            <path d="M10.0087984,11.5112329 L10.6500509,11.5112329 C11.1822904,11.5112329 11.6119295,11.0815937 11.6119295,10.5493542 L11.6119295,7.6637182 C11.6119295,7.13147867 11.1822904,6.70183953 10.6500509,6.70183953 L9.9607045,6.70183953 L9.9607045,6.06058708 L11.0828963,6.06058708 C11.349016,6.06058708 11.5638356,5.84576751 11.5638356,5.57964775 C11.5638356,5.31352798 11.349016,5.09870841 11.0828963,5.09870841 L9.91261057,5.09870841 C9.697791,3.70398434 8.79362505,2.54011115 7.55600783,1.96298395 L7.55600783,0.481690802 C7.55600783,0.215571037 7.34118826,0.00075146771 7.07506849,0.00075146771 L4.51005871,0.00075146771 C4.24393894,0.00075146771 4.02911937,0.215571037 4.02911937,0.481690802 L4.02911937,1.96298395 C2.79470841,2.54011115 1.8873362,3.70719061 1.67251663,5.09870841 L0.50223092,5.09870841 C0.236111155,5.09870841 0.0212915851,5.31352798 0.0212915851,5.57964775 C0.0212915851,5.84576751 0.236111155,6.06058708 0.50223092,6.06058708 L1.6244227,6.06058708 L1.6244227,6.70183953 L0.967138943,6.70183953 C0.434899413,6.70183953 0.00526027397,7.13147867 0.00526027397,7.6637182 L0.00526027397,10.5493542 C0.00526027397,11.0815937 0.434899413,11.5112329 0.967138943,11.5112329 L1.6244227,11.5112329 L1.6244227,15.0381213 L0.50223092,15.0381213 C0.236111155,15.0381213 0.0212915851,15.2529409 0.0212915851,15.5190607 C0.0212915851,15.7851804 0.236111155,16 0.50223092,16 L11.0828963,16 C11.349016,16 11.5638356,15.7851804 11.5638356,15.5190607 C11.5638356,15.2529409 11.349016,15.0381213 11.0828963,15.0381213 L9.9607045,15.0381213 L9.9607045,11.5112329 L10.0087984,11.5112329 Z M10.0087984,7.6637182 L10.6500509,7.6637182 L10.6500509,10.5493542 L10.0087984,10.5493542 L10.0087984,7.6637182 Z M1.60839139,10.5493542 L0.967138943,10.5493542 L0.967138943,7.6637182 L1.60839139,7.6637182 L1.60839139,10.5493542 Z M4.99099804,0.962630137 L6.59412916,0.962630137 L6.59412916,1.64877025 C6.33442192,1.59747006 6.06830215,1.57181996 5.7925636,1.57181996 C5.51682505,1.57181996 5.25070528,1.59747006 4.99099804,1.64877025 L4.99099804,0.962630137 Z M5.7925636,2.53369863 C7.34118826,2.53369863 8.6365182,3.63665284 8.93470059,5.09870841 L2.65042661,5.09870841 C2.948609,3.63665284 4.24393894,2.53369863 5.7925636,2.53369863 Z M2.58630137,15.0381213 L2.58630137,6.06058708 L8.99882583,6.06058708 L8.99882583,15.0381213 L2.58630137,15.0381213 Z" id="Shape"></path>
            <path d="M7.07506849,7.18277886 C6.80894873,7.18277886 6.59412916,7.39759843 6.59412916,7.6637182 L6.59412916,13.4349902 C6.59412916,13.70111 6.80894873,13.9159295 7.07506849,13.9159295 C7.34118826,13.9159295 7.55600783,13.70111 7.55600783,13.4349902 L7.55600783,7.6637182 C7.55600783,7.39759843 7.34118826,7.18277886 7.07506849,7.18277886 Z M4.51005871,7.18277886 C4.24393894,7.18277886 4.02911937,7.39759843 4.02911937,7.6637182 L4.02911937,13.4349902 C4.02911937,13.70111 4.24393894,13.9159295 4.51005871,13.9159295 C4.77617847,13.9159295 4.99099804,13.70111 4.99099804,13.4349902 L4.99099804,7.6637182 C4.99099804,7.39759843 4.77617847,7.18277886 4.51005871,7.18277886 Z" id="Shape"></path>
        </g>
    </g>
</svg>