<?xml version="1.0" encoding="UTF-8" standalone="no"?>
<svg width="39px" height="40px" viewBox="0 0 39 40" version="1.1" xmlns="http://www.w3.org/2000/svg" xmlns:xlink="http://www.w3.org/1999/xlink">
    <!-- Generator: Sketch 50.2 (55047) - http://www.bohemiancoding.com/sketch -->
    <title>环境终端</title>
    <desc>Created with Sketch.</desc>
    <defs></defs>
    <g id="Page-1" stroke="none" stroke-width="1" fill="none" fill-rule="evenodd">
        <g id="火炬小区项目首页菜单展开" transform="translate(-556.000000, -947.000000)" fill="#20608D" fill-rule="nonzero">
            <g id="Group-7" transform="translate(135.000000, 896.000000)">
                <g id="Group-2-Copy-6" transform="translate(380.000000, 0.000000)">
                    <g id="环境终端" transform="translate(41.000000, 51.000000)">
                        <g id="垃圾桶">
                            <g id="环境监测">
                                <path d="M17.3815003,31.1801509 C17.1035318,30.8804884 16.8413356,30.563684 16.5851935,30.2408319 C16.0523175,29.7898162 15.5411883,29.3167724 15.0678173,28.7919024 C15.2365739,28.8120481 15.4124999,28.8077627 15.5836862,28.8217805 C15.2001302,28.2022698 14.8601872,27.5510786 14.5712656,26.873013 C14.2010524,26.8132167 13.8284097,26.7692406 13.4678352,26.6838115 C12.1301687,24.6025549 11.2136172,22.168528 10.8567469,19.5276371 C11.7210821,19.8602616 12.6278356,20.1171896 13.5577299,20.3113174 C13.6183899,19.7467167 13.7131039,19.1748668 13.8527056,18.5962482 C12.7491954,18.3594259 11.6943567,18.0127834 10.7025677,17.5666139 C10.6977086,17.3981589 10.6867953,17.2309054 10.6867953,17.0606481 C10.6867953,15.0679044 11.0097312,13.1545021 11.5984876,11.3771934 C13.032063,12.3665363 14.7449213,12.9622567 16.5900527,13.0733184 C17.155748,12.3568038 17.7578473,11.6652811 18.4218413,11.0293094 C18.0151843,11.0958343 17.598809,11.1416528 17.17395,11.1416528 C15.3591685,11.1416528 13.6912775,10.5258267 12.3522568,9.49310849 C13.5151922,6.98098188 15.2390036,4.8350427 17.3463311,3.26772211 C19.1210443,4.58664564 20.5995471,6.33523765 21.7285081,8.35177166 C22.2747668,7.96668012 22.8258845,7.60289577 23.3746126,7.25012548 C22.4361949,5.60218196 21.2854074,4.11360188 19.9392174,2.86424712 C21.7527642,3.19326708 23.4522797,3.85543233 24.9732804,4.7837773 C24.8312889,5.45883898 24.5788111,6.08623984 24.2777416,6.68496407 C25.2330469,6.09961691 26.1738943,5.54667112 27.0393448,5.04559151 C27.5067016,4.77768955 28.0275093,4.47310074 28.5288405,4.17223671 C25.5086257,1.58433335 21.6168666,0.000551702544 17.3511504,0.000551702544 C13.6803642,0.000551702544 10.2814128,1.16387663 7.477272,3.12546051 L7.24423085,3.12546051 C7.24423085,3.18529687 7.24785532,3.24204932 7.25151961,3.30184564 C5.70379348,4.42363757 4.34051679,5.79751123 3.2382812,7.36483186 C3.05869095,7.61386975 2.88873942,7.87384157 2.72603679,8.13629659 C2.28660032,8.83270552 1.89571574,9.55594873 1.5606718,10.3097108 C0.891818644,11.8044187 0.432945461,13.4077854 0.208387976,15.0910941 C0.106425006,15.8521856 0.0347721198,16.6254926 0.0347721198,17.4134184 C0.0347721198,26.116167 6.42362811,33.3260901 14.7291489,34.6028799 C15.2875554,33.964505 16.1372734,32.9189704 17.3815003,31.1801509 Z M14.7485457,2.86604939 C13.1935308,4.31257581 11.8764959,6.06056705 10.8762233,8.02703714 C10.1915978,7.13593969 9.68532776,6.10081843 9.42193671,4.97229793 C11.0170199,3.94270368 12.8160289,3.21761816 14.7485457,2.86604939 Z M7.73946815,6.23631135 C8.20682496,7.67182372 8.989789,8.95842599 10.0009748,10.0186193 C9.24832089,12.0339117 8.81015893,14.2195415 8.750654,16.5101454 C6.71004049,15.1991119 5.03971985,13.4370627 3.93628938,11.3741495 C4.81878683,9.3911784 6.12012899,7.64438869 7.73946815,6.23631135 Z M2.63865134,17.4103745 C2.63865134,16.0505187 2.83528852,14.7383238 3.18005078,13.4785958 C4.58331608,15.5610539 6.51344313,17.3017158 8.79562123,18.5583999 C8.9873594,21.1596803 9.66593091,23.6003957 10.7329972,25.7866263 C6.93344293,24.1643556 3.97149844,21.1688119 2.6410809,17.497005 C2.64351053,17.4701708 2.63865134,17.4432965 2.63865134,17.4103745 Z M3.64613308,22.7630068 C5.78265549,25.3056524 8.73974077,27.2385596 12.1435513,28.2114415 C13.0648823,29.5547962 14.1440169,30.7577317 15.355544,31.7837213 C15.481763,31.834386 15.612881,31.8740366 15.7451939,31.9161704 C15.643231,31.9729229 15.5448526,32.0187013 15.4429295,32.0754938 C10.0435125,31.36747 5.56415203,27.7085195 3.64613308,22.7630068 Z" id="Shape"></path>
                                <path d="M32.7193192,2.94174599 C32.9936633,5.68825178 19.528936,9.32649581 16.1591397,17.196141 C13.5577697,23.259801 16.9481578,28.4025254 20.432065,30.8804483 C13.7458436,40.7342662 13.4751637,38.6561336 12.9896448,39.2426423 L16.7612389,39.9994483 C16.7612389,39.9994483 23.1488203,29.0738223 23.7970021,27.9306831 C23.7727859,27.9074935 22.0417256,26.3560332 20.5898685,24.5457224 C20.2281788,24.0886189 19.8809471,23.6222636 19.5860511,23.1572301 C19.2947397,22.6952404 19.0433771,22.2441445 18.8904725,21.8309772 C18.8066717,21.6259154 18.7326689,21.4403586 18.7047088,21.2621711 C18.6718895,21.0869875 18.6172437,20.9405205 18.6257671,20.8080314 C18.6257671,20.5571912 18.6233375,20.4119659 18.6233375,20.4119659 C18.6233375,20.4119659 18.6427742,20.5541474 18.6767884,20.8031452 C18.6767884,20.9295065 18.7520259,21.0680834 18.8030074,21.2352968 C18.8491696,21.400708 18.9438438,21.5728076 19.0457669,21.7583645 C19.241249,22.1367275 19.5326002,22.5420448 19.8688789,22.9534099 C20.2014534,23.3665773 20.5947277,23.7797847 20.9952908,24.1802159 C21.8074896,24.9766725 22.6826186,25.7029996 23.3527463,26.2296719 C23.8115796,26.5892108 24.1538725,26.840051 24.3360516,26.9706577 C24.9854681,25.801245 25.6506569,24.5695928 26.3183152,23.2719765 C26.3025826,23.2939646 24.9636018,22.0946737 23.8443591,20.7024967 C23.5687803,20.3478841 23.2992954,19.9926706 23.0759726,19.6368565 C22.8501406,19.2804015 22.6584024,18.9368029 22.5418221,18.6212401 C22.4787325,18.4637991 22.4240867,18.3215776 22.4009857,18.1848831 C22.3743399,18.052394 22.3330768,17.9401307 22.3403656,17.8394422 C22.3391707,17.6453144 22.337936,17.5336518 22.337936,17.5336518 C22.337936,17.5336518 22.3524737,17.6441128 22.3768094,17.8375998 C22.3768094,17.9340029 22.4362346,18.0396177 22.4739132,18.1659389 C22.5079274,18.2935017 22.5807353,18.4228668 22.6584422,18.5693338 C22.8077622,18.8580223 23.0323197,19.1668565 23.2872271,19.4817785 C23.5445641,19.7973413 23.844399,20.1141056 24.1503277,20.4216983 C24.7730984,21.030195 25.4431464,21.5849832 25.9553908,21.9890589 C26.288045,22.2502724 26.540483,22.43643 26.6849438,22.5389609 C27.3938652,21.1376522 28.1015519,19.6710201 28.7922714,18.1481963 L28.7206185,18.242797 C28.7206185,18.242797 27.6475778,17.2845739 26.7528926,16.168269 C26.5307647,15.889353 26.3183153,15.6000237 26.1398801,15.317463 C25.9602102,15.035463 25.8048361,14.7571878 25.7125915,14.5069484 C25.6627651,14.3812279 25.6178377,14.2670822 25.6009102,14.1566212 C25.5790439,14.0498049 25.5450297,13.9600903 25.5523185,13.8789067 C25.5523185,13.7245097 25.549849,13.6353559 25.549849,13.6353559 C25.549849,13.6353559 25.5607623,13.7263119 25.5814337,13.8776652 C25.5814337,13.952761 25.6275161,14.0405932 25.6591008,14.1388786 C25.6894507,14.2408087 25.746526,14.3457827 25.8083809,14.4599284 C25.9261163,14.6942675 26.1082158,14.9402615 26.3121019,15.1917025 C26.5160676,15.4419819 26.7540077,15.6964668 27.0016662,15.9442631 C27.4993331,16.4313648 28.0346785,16.8744103 28.4437252,17.196101 C28.71325,17.4072505 28.9147463,17.5555998 29.0288572,17.6373442 C29.0410051,17.6093084 29.5168854,16.549756 29.7329194,16.0419477 C31.9434447,10.8906924 31.1155532,13.0671906 29.3627063,17.5207954 C29.5266038,17.5116237 29.7304898,17.496965 29.9865921,17.4738155 C30.5583415,17.4243523 31.3231832,17.3346378 32.0720932,17.182043 C32.4447758,17.1014602 32.8186533,17.0129872 33.1585963,16.9012847 C33.4984197,16.7889413 33.8116372,16.6693486 34.0640752,16.5277278 C34.1879044,16.458159 34.3044051,16.3952787 34.3918702,16.3165783 C34.4804505,16.2408817 34.5739697,16.1896563 34.6212869,16.1200474 C34.7316937,15.9906823 34.7924333,15.916828 34.7924333,15.916828 C34.7924333,15.916828 34.7402171,15.9967701 34.6443481,16.140834 C34.6054747,16.2201753 34.5192841,16.2830155 34.4355231,16.3697261 C34.3554264,16.461243 34.243785,16.5399835 34.1223853,16.6254526 C33.8844053,16.8017977 33.5785961,16.9660073 33.2435123,17.1204043 C32.9084684,17.2778453 32.5394501,17.4133783 32.1656124,17.5427434 C30.6700229,18.0365337 29.1065642,18.2806053 29.1065642,18.2806053 C28.6233951,19.3987125 28.0929487,20.7384226 27.5405963,22.1275557 C27.7201865,22.1177832 27.9205278,22.1025238 28.1632873,22.0817373 C28.9001688,22.0140108 29.8858639,21.9005059 30.8521223,21.7052166 C31.3352914,21.6008434 31.8183807,21.4842546 32.2578172,21.3408315 C32.6960588,21.1974085 33.1002862,21.0429312 33.4207526,20.858656 C33.5834553,20.7713446 33.7339701,20.6895602 33.8468463,20.5888717 C33.9621919,20.491227 34.082317,20.4247021 34.141822,20.3349876 C34.2826185,20.1664925 34.3651448,20.0731734 34.3651448,20.0731734 C34.3651448,20.0731734 34.2971961,20.1757043 34.1745219,20.3618619 C34.1211506,20.4643928 34.0131336,20.5430932 33.9050369,20.6578397 C33.7994495,20.7750293 33.6586132,20.8757178 33.5020442,20.9874604 C33.1973502,21.2163526 32.7991769,21.4244582 32.368224,21.6258353 C31.9348416,21.8266516 31.4614706,22.0011543 30.9795362,22.1684078 C29.3286523,22.7140643 27.6230827,23.0198546 27.1629748,23.0973536 C26.6543549,24.3821135 25.9199427,25.6876199 25.421081,26.9546773 C25.6225773,26.9424617 26.066873,26.9247991 26.3351232,26.9016095 C27.1812167,26.8258728 28.3101378,26.6934638 29.4208969,26.4676155 C29.9732096,26.3492645 30.526757,26.2167753 31.0293627,26.0532066 C31.5318888,25.888997 31.9968558,25.709608 32.3645996,25.4984184 C32.5515582,25.3970891 32.7239394,25.3024483 32.8526278,25.1877018 C32.9837458,25.0821271 33.1209179,25.0028259 33.1912962,24.897171 C33.3551539,24.7067679 33.4474781,24.596307 33.4474781,24.596307 C33.4474781,24.596307 33.3673018,24.7146981 33.2277001,24.9270892 C33.1682748,25.0424364 33.0407415,25.1352349 32.9181868,25.2646401 C32.7992167,25.400133 32.6365539,25.5154803 32.4569637,25.6430431 C32.1048728,25.9048573 31.6508588,26.1478074 31.1556215,26.3748172 C30.657875,26.6079948 30.1116164,26.8069288 29.5616934,26.9962104 C27.6886816,27.6168826 25.476842,27.8549065 24.9233344,27.9513495 C24.3492351,29.414337 23.3282911,30.9041987 22.874317,32.0851461 C27.3669805,33.7086585 35.0984019,34.0431254 38.2180305,26.7593881 C41.5880658,18.8861783 32.4474046,0.195240235 32.7193192,2.94174599 Z" id="Shape"></path>
                            </g>
                        </g>
                    </g>
                </g>
            </g>
        </g>
    </g>
</svg>