<?xml version="1.0" encoding="UTF-8" standalone="no"?>
<svg width="40px" height="40px" viewBox="0 0 40 40" version="1.1" xmlns="http://www.w3.org/2000/svg" xmlns:xlink="http://www.w3.org/1999/xlink">
    <!-- Generator: Sketch 50.2 (55047) - http://www.bohemiancoding.com/sketch -->
    <title>垃圾桶总</title>
    <desc>Created with Sketch.</desc>
    <defs></defs>
    <g id="Page-1" stroke="none" stroke-width="1" fill="none" fill-rule="evenodd">
        <g id="火炬小区项目首页菜单展开" transform="translate(-173.000000, -946.000000)" fill="#20608D" fill-rule="nonzero">
            <g id="Group-7" transform="translate(135.000000, 896.000000)">
                <g id="Group-2-Copy">
                    <g id="垃圾桶总" transform="translate(38.000000, 50.000000)">
                        <g id="垃圾桶">
                            <path d="M19.1936937,15.1294643 L16.518018,19.5803571 L16.2297297,19.3973214 L16.3108108,21.8571429 L18.5945946,20.8839286 L18.3153153,20.7053571 L20.1036036,17.7098214 L22.6306306,21.8526786 L24.4099099,20.7053571 L21.009009,15.1294643 C20.8198198,14.8125 20.472973,14.6205357 20.0990991,14.6205357 C19.7342342,14.6160714 19.3873874,14.8080357 19.1936937,15.1294643 Z M18.4144144,29.4866071 L20.5675676,28.09375 L18.4684685,26.6339286 L18.4594595,27.03125 L14.463964,27.03125 L17.0675676,22.6964286 L15.2207207,21.6517857 L11.6756757,27.5401786 C11.481982,27.8660714 11.472973,28.2723214 11.6621622,28.6026786 C11.8513514,28.9330357 12.2027027,29.1339286 12.5900901,29.1339286 L18.4234234,29.1294643 L18.4144144,29.4866071 Z M21.1801802,27.03125 L21.1801802,29.1383929 L27.6621622,29.1339286 C28.2477477,29.1339286 28.7252252,28.6607143 28.7252252,28.0803571 C28.7207207,27.8392857 28.6396396,27.6160714 28.5,27.4375 L25.7252252,22.8660714 L26.1171171,22.6116071 L23.6216216,21.6517857 L23.5315315,24.3035714 L23.9594595,24.0223214 L25.7792793,27.0267857 L21.1801802,27.03125 Z M31.7027027,39.9776786 L7.85585586,40 L3.47747748,9.82589286 L1.54954955,9.82589286 C0.702702703,9.82589286 0.027027027,9.15178571 0.0225225225,8.31696429 C0.027027027,7.48214286 0.702702703,6.80803571 1.54504505,6.80803571 L38.454955,6.76785714 C39.2972973,6.76785714 39.9774775,7.44642857 39.9774775,8.27678571 C39.9774775,9.11160714 39.3018018,9.79017857 38.454955,9.79017857 L36.5,9.79017857 L31.7027027,39.9776786 Z M38.6351351,1.93303571 C39.3738739,1.93303571 39.963964,2.52232143 39.9684685,3.25446429 C39.9684685,3.98214286 39.3738739,4.57589286 38.6351351,4.57589286 L1.35135135,4.61160714 C0.617117117,4.61160714 0.018018018,4.02232143 0.0225225225,3.29464286 C0.018018018,2.5625 0.612612613,1.97321429 1.35135135,1.97321429 L15.3648649,1.95982143 L15.481982,1.68303571 C15.9144144,0.665178571 16.9189189,-4.26325641e-14 18.0315315,-4.26325641e-14 L22.0540541,-4.26325641e-14 C23.2027027,-4.26325641e-14 24.2342342,0.705357143 24.6396396,1.77232143 L24.7072072,1.94642857 L38.6351351,1.93303571 Z" id="Shape"></path>
                        </g>
                    </g>
                </g>
            </g>
        </g>
    </g>
</svg>