<?xml version="1.0" encoding="UTF-8" standalone="no"?>
<svg width="16px" height="16px" viewBox="0 0 16 16" version="1.1" xmlns="http://www.w3.org/2000/svg" xmlns:xlink="http://www.w3.org/1999/xlink">
    <!-- Generator: Sketch 48.2 (47327) - http://www.bohemiancoding.com/sketch -->
    <title>delete</title>
    <desc>Created with Sketch.</desc>
    <defs></defs>
    <g id="Page-1" stroke="none" stroke-width="1" fill="none" fill-rule="evenodd">
        <g id="delete" fill="#00BFA5">
            <path d="M8.7500123,7.24999898 L13.2500205,7.25003176 C13.6641658,7.25003176 14,7.58578265 14,8.00002459 C14.0000492,8.41421735 13.6642149,8.7500502 13.2500861,8.74995184 L8.7500123,8.74996824 L8.75006148,13.249958 C8.75006148,13.6641999 8.41424364,14.0000492 8.00003279,14 C7.58578915,13.9999836 7.2499877,13.6641999 7.25005328,13.2500072 L7.25002049,8.74996824 L2.75004508,8.75000102 C2.33578505,8.75000102 2,8.41420096 2,7.99995902 C2,7.58581544 2.33585062,7.24996619 2.75004508,7.24991701 L7.2499877,7.24996619 L7.24993852,2.75004201 C7.25010246,2.33573449 7.58583833,2 7.99998361,2 C8.41422724,2 8.7500123,2.33578367 8.74996311,2.75009119 L8.7500123,7.24999898 Z" id="Combined-Shape" transform="translate(8.000000, 8.000000) rotate(-315.000000) translate(-8.000000, -8.000000) "></path>
        </g>
    </g>
</svg>