<?xml version="1.0" encoding="UTF-8" standalone="no"?>
<svg width="16px" height="16px" viewBox="0 0 16 16" version="1.1" xmlns="http://www.w3.org/2000/svg" xmlns:xlink="http://www.w3.org/1999/xlink">
    <!-- Generator: Sketch 48.2 (47327) - http://www.bohemiancoding.com/sketch -->
    <title>baocun</title>
    <desc>Created with Sketch.</desc>
    <defs></defs>
    <g id="Page-1" stroke="none" stroke-width="1" fill="none" fill-rule="evenodd">
        <g id="baocun" fill="#00BFA5" fill-rule="nonzero">
            <g id="对号" transform="translate(2.000000, 4.000000)">
                <path d="M3.69311778,7.24766744 L10.7168591,0.223926097 C11.0006467,-0.0598614319 11.4263279,-0.0598614319 11.7101155,0.223926097 L11.7810624,0.294872979 C12.0648499,0.578660508 12.0648499,1.0043418 11.7810624,1.28812933 L4.75732102,8.31187067 C4.47353349,8.5956582 4.04785219,8.5956582 3.76406467,8.31187067 L3.69311778,8.24092379 C3.48027714,7.88618938 3.48027714,7.46050808 3.69311778,7.24766744 Z" id="Shape"></path>
                <path d="M1.28092379,3.62937644 L4.75732102,7.10577367 C5.04110855,7.3895612 5.04110855,7.81524249 4.75732102,8.09903002 L4.68637413,8.16997691 C4.40258661,8.45376443 3.97690531,8.45376443 3.69311778,8.16997691 L0.216720554,4.69357968 C-0.0670669746,4.40979215 -0.0670669746,3.98411085 0.216720554,3.70032333 L0.287667436,3.62937644 C0.571454965,3.4165358 0.997136259,3.4165358 1.28092379,3.62937644 Z" id="Shape"></path>
            </g>
        </g>
    </g>
</svg>