<?xml version="1.0" encoding="UTF-8" standalone="no"?>
<svg width="174px" height="55px" viewBox="0 0 174 55" version="1.1" xmlns="http://www.w3.org/2000/svg" xmlns:xlink="http://www.w3.org/1999/xlink">
    <!-- Generator: Sketch 46 (44423) - http://www.bohemiancoding.com/sketch -->
    <title>logo</title>
    <desc>Created with Sketch.</desc>
    <defs>
        <polygon id="path-1" points="0 55 174 55 174 0 0 0"></polygon>
    </defs>
    <g id="Page-1" stroke="none" stroke-width="1" fill="none" fill-rule="evenodd" opacity="0.929745802">
        <g id="登陆页-／未输入" transform="translate(-1423.000000, -362.000000)">
            <g id="denglukuang" transform="translate(1270.000000, 274.000000)">
                <g id="logo" transform="translate(153.000000, 88.000000)">
                    <path d="M27.441571,0 C28.4150994,0 29.3765698,0.0521507863 30.3247129,0.152000463 C20.9314961,3.05972479 14.0742766,11.8515842 14.0742766,22.1977914 C14.0742766,34.9022317 24.4137325,45.2637026 37.0911798,45.2637026 C42.7698842,45.2637026 47.9783248,43.184031 52,39.746531 C47.4921952,48.7756129 38.1694228,55 27.441571,55 C12.327764,55 0,42.6466235 0,27.5 C0,12.3533765 12.327764,0 27.441571,0 Z" id="Fill-1" fill="#FEFEFE"></path>
                    <path d="M30.0530419,10.2922392 C30.0530419,10.2922392 28.3406477,5.57040723 32.1965109,6.03172847 C36.7209158,6.83326631 40.3556025,10.8777863 40.1707667,19.3457465 C40.1519699,19.7433942 40.8706366,19.7309092 40.854346,19.3457465 C40.708357,11.0020122 44.1287595,6.86323034 48.7740909,6.03110421 C52.6769462,5.65842657 51.0215692,10.1499101 51.0522707,10.2810027 C52.6249416,9.18232154 55.6036178,9.03437413 54.8680339,13.0888822 C53.5522535,18.0841359 48.4526646,20.4431792 41.8549656,20.2034669 C41.4915596,20.2465402 41.4821612,20.9375857 41.8662438,20.9600587 C47.942643,20.6229634 53.5823285,23.082511 54.8843245,28.0877527 C55.6180287,32.1828371 52.69449,31.5298709 50.8204427,30.890014 C50.8204427,30.890014 53.4068911,35.2023375 48.7452691,34.9925893 C42.6563386,34.1816877 40.622518,27.3099364 40.8631178,21.7928091 C40.6858008,21.5368663 40.3073573,21.5287511 40.1519699,21.7928091 C40.3317932,27.8711378 38.2910804,34.0655771 32.3030264,34.9925893 C27.6401513,35.1705007 30.2497824,30.890014 30.2497824,30.890014 C28.1464135,31.5535924 25.3876605,32.1734733 26.1207382,28.1096015 C27.7316293,22.0450064 34.195244,20.8383298 39.2766626,20.9500707 C39.6388155,20.9488222 39.623778,20.2490372 39.2691439,20.2147034 C32.1607968,20.4781372 27.3976717,17.9624071 26.1470538,13.0888822 C25.442798,8.74909158 28.570596,9.27845614 30.0530419,10.2922392" id="Fill-3" fill="#FEFEFE"></path>
                    <path d="M82.2890295,44.0196645 L82.2961134,47.7596145 L81.4685798,47.7645226 L81.1633261,46.6700228 C77.8467517,50.0614998 72.9079537,46.5546831 74.2152637,40.7999699 C75.5219296,36.4992728 79.4097277,36.4655298 81.9097164,37.7060447 L81.8852446,40.6846303 L81.5587391,40.6778817 C81.3900124,37.8808947 76.3088915,37.2624778 76.1420968,41.9306668 C75.9753021,46.5982422 79.7072534,47.3559257 80.2997288,45.3657029 L80.3087447,43.8497225 C80.3106767,43.50309 80.1747938,43.3263995 79.3376002,43.3527803 L79.3330922,42.8993973 L83,42.8944892 L82.999356,43.1865194 C82.4474523,43.2171949 82.2536097,43.53806 82.2890295,44.0196645" id="Fill-5" fill="#FEFEFE"></path>
                    <path d="M89.663591,43.12558 L92.3128953,47.4542534 C92.4066523,47.5530637 92.5955056,47.5857823 92.7321229,47.5825104 L92.9939728,47.5746579 L93,48 L90.0191979,48 L87.0183049,42.7165973 C89.2035122,42.3226651 89.8383808,41.8246877 89.9562467,40.7979774 C90.0988913,39.5677573 89.5276434,38.7419393 88.3563509,38.607793 L86.7611429,38.6169542 C86.7691793,41.3463415 86.7725277,44.2170732 86.7798943,46.9458061 C86.8636059,47.4058299 87.2868517,47.6649613 87.8212665,47.6577632 L87.8199271,48 L84.0040182,48 L84,47.6859012 C84.2672074,47.602796 84.5625419,47.2841166 84.5632115,46.8640095 L84.5692388,37.9108864 C84.5678994,37.6170732 84.4158792,37.351398 84.0080363,37.3258775 L84.0080363,37 L89.7473026,37.0111243 C93.2451075,37.6000595 92.6865838,42.5994646 89.663591,43.12558" id="Fill-7" fill="#FEFEFE"></path>
                    <path d="M95.5730594,42.5195551 L95.5635887,45.6882669 L98.6829866,45.6882669 C99.2210384,45.6991477 99.5607982,45.0517439 99.6981228,43.9679018 L100,43.9648794 L99.8603078,47 L93,47 L93,46.7092426 C93.3800101,46.712265 93.6215119,46.6095025 93.6736005,46.303633 L93.6599865,37.7628604 C93.6546592,37.4237442 93.4616946,37.2847126 93,37.2974068 L93,37 L99.6028243,37 L99.7135126,39.5122408 L99.4394554,39.5122408 C99.3944698,39.010518 99.2636564,38.6375506 98.6865381,38.4912652 L95.5635887,38.4640634 C95.5742432,39.4947108 95.5635887,40.0496282 95.5635887,41.0802756 L97.5761035,41.0802756 C97.8637747,41.0391706 98.06621,40.796772 98.1508541,40.2678474 L98.426687,40.2751013 L98.4326061,43.3307743 L98.1674277,43.3307743 C98.0756807,42.9777549 97.946643,42.6767213 97.71402,42.5195551 L95.5730594,42.5195551" id="Fill-9" fill="#FEFEFE"></path>
                    <path d="M111.908449,39.4000587 L111.940862,46.9145204 C111.991798,47.4656498 112.214726,47.6695805 112.793545,47.6508654 L112.794207,48 L110.003969,48 C110.002646,47.8851276 110.001323,47.7709006 110,47.6566735 C110.341999,47.6773247 110.544421,47.4946905 110.590065,47.1616896 L110.544421,37.6911704 C110.430641,37.5433852 110.277172,37.4730419 110.014553,37.4840129 L110.014553,37.0025814 L113.08527,37.0025814 L117.057621,44.1795248 C117.066882,42.0937518 117.076144,40.0066882 117.084743,37.9202699 C116.966995,37.5956586 116.636241,37.4511 116.232722,37.4865943 L116.22743,37.0025814 L118.999807,37 C119.00113,37.1529481 118.995176,37.3142857 118.996499,37.4665884 C118.710067,37.4394837 118.477216,37.5853329 118.428265,37.8318568 L118.41305,48 L116.783096,48 L111.908449,39.4000587" id="Fill-11" fill="#FEFEFE"></path>
                    <path d="M124.992945,38.5864944 L124.992945,46.9997618 C124.992945,47.2526053 125.528466,47.7275055 126.050861,47.6724826 L126.050861,48 L122.006235,47.9934497 L122.001641,47.6888585 C122.296965,47.6678973 122.621821,47.6561067 122.863331,46.9997618 L122.863331,38.5864944 L121.197047,38.5864944 C120.584742,38.69261 120.350451,39.7223248 120.287449,40.4670994 L120,40.4670994 L120.014438,37 L127.887777,37 L128,40.4670994 L127.664643,40.4670994 L127.587203,39.7223248 C127.413946,39.0895611 127.112059,38.6677187 126.604758,38.5864944 L124.992945,38.5864944" id="Fill-13" fill="#FEFEFE"></path>
                    <path d="M138,37 L138.005607,37.36852 C138.320822,37.3788645 138.568136,37.5262725 138.748793,37.8100976 L141.170223,48 L142.796761,48 L144.020246,41.9168332 L145.316617,48 L146.870892,48 C147.640866,44.8048666 148.410216,41.6103797 149.18019,38.4145997 C149.320978,37.8366051 149.429995,37.4874809 149.987541,37.4732573 L150,37 L147.234699,37 L147.240928,37.4874809 L147.52998,37.4861878 C147.754867,37.4861878 147.869491,37.6820853 147.876343,37.8107441 L147.863884,38.4145997 L146.46784,45.0867521 L145.167108,38.4145997 C145.033172,37.697602 145.330322,37.5178676 145.639309,37.4771365 L145.915278,37.4719643 L145.917147,37.0077583 L142.100919,37.0148701 L142.104034,37.453215 L142.475938,37.4519219 C142.761875,37.5172211 142.98427,37.8715176 143.080829,38.4145997 L143.44775,40.2416833 L142.370036,45.0867521 L140.982713,38.4145997 C140.820744,37.6626895 140.929762,37.4325262 141.429995,37.4545081 L141.435602,37 L138,37" id="Fill-15" fill="#FEFEFE"></path>
                    <path d="M133.5,37 C135.97808,37 138,39.4709215 138,42.4996945 C138,45.5296895 135.97808,48 133.5,48 C131.021297,48 129,45.5296895 129,42.4996945 C129,39.4709215 131.021297,37 133.5,37 M133.096736,38.6423929 C134.373738,38.4951397 135.617757,40.1100372 135.86544,42.2369605 C136.112502,44.3638838 135.272991,46.218297 133.994745,46.3649392 C132.717121,46.5121924 131.473102,44.8979059 131.226041,42.7703716 C130.977735,40.6440593 131.81849,38.7896462 133.096736,38.6423929" id="Fill-17" fill="#FEFEFE"></path>
                    <path d="M104.572685,42.5195551 L104.563214,45.6876625 L107.683467,45.6876625 C108.221564,45.6991477 108.560761,45.0517439 108.698097,43.9679018 L109,43.9642749 L108.860296,47 L102,47 L102,46.7086381 C102.37945,46.712265 102.620973,46.608898 102.673066,46.303633 L102.65945,37.7628604 C102.654715,37.4231397 102.461734,37.2847126 102,37.2974068 L102,37 L108.602791,37 L108.71408,39.5116363 L108.439408,39.5116363 C108.394419,39.0099136 108.263594,38.6375506 107.686427,38.4912652 L104.563214,38.4640634 C104.573869,39.4947108 104.563214,40.0496282 104.563214,41.0802756 L106.575899,41.0802756 C106.864186,41.0385662 107.066638,40.796772 107.150698,40.2678474 L107.358478,40.2744968 L107.364397,43.3307743 L107.167865,43.3307743 C107.07611,42.9777549 106.946469,42.6767213 106.714419,42.5195551 L104.572685,42.5195551" id="Fill-19" fill="#FEFEFE"></path>
                    <path d="M152.908999,39.4000587 L152.940749,46.9145204 C152.992344,47.4656498 153.215259,47.6695805 153.794044,47.6508654 L153.794044,48 L151.00463,48 C151.002646,47.8851276 151.001323,47.7709006 151,47.6566735 C151.342641,47.6773247 151.54505,47.4946905 151.59003,47.1616896 L151.54505,37.6911704 C151.430616,37.5433852 151.277817,37.4730419 151.015214,37.4840129 L151.015214,37.0025814 L154.085751,37.0025814 L158.057871,44.1795248 C158.067131,42.0937518 158.076392,40.0066882 158.084991,37.9202699 C157.966588,37.5956586 157.636515,37.4511 157.233019,37.4865943 L157.227727,37.0025814 L159.999943,37 C160.000604,37.1529481 159.995312,37.3142857 159.996635,37.4665884 C159.709558,37.4394837 159.477382,37.5853329 159.428434,37.8318568 L159.41322,48 L157.783361,48 L152.908999,39.4000587" id="Fill-21" fill="#FEFEFE"></path>
                    <mask id="mask-2" fill="white">
                        <use xlink:href="#path-1"></use>
                    </mask>
                    <g id="Clip-24"></g>
                    <polygon id="Fill-23" fill="#FEFEFE" mask="url(#mask-2)" points="61 34 170 34 170 32 61 32"></polygon>
                    <polygon id="Fill-25" fill="#FEFEFE" mask="url(#mask-2)" points="61 53 170 53 170 51 61 51"></polygon>
                    <path d="M71.1725915,23.7877941 C71.6191377,24.5676279 72.080907,25.5712676 72.5655111,26.7980792 C74.630153,24.7724135 76.2907466,23.269807 77.5561722,22.2851876 C77.0899628,21.2251209 76.7474416,20.2880524 76.5248028,19.470178 C74.5737004,21.3107124 72.7799041,22.6376978 71.1434138,23.4549382 C71.2011349,22.7137792 71.2816909,21.9574038 71.3958646,21.1965904 C66.9906611,22.9223689 63.9415879,23.9640492 62.2524508,24.3159254 C62.8087307,25.3950124 63.3041178,26.446203 63.7322694,27.468229 C66.572024,26.1843564 69.0451541,25.14331 71.1434138,24.3444559 C71.1434138,24.1586906 71.1535625,23.9735594 71.1725915,23.7877941 L71.1725915,23.7877941 Z M71.0863269,11.6674024 L71.0863269,14.6770535 L78.1980824,14.5965341 L78.1980824,24.5105669 C78.1980824,24.9004837 78.1124521,25.1623303 77.9469001,25.2954727 C77.6081847,25.4235429 76.8755699,25.4425633 75.7439812,25.3474616 C76.4144348,26.7600385 76.8146772,27.8486357 76.9428055,28.6100831 C79.3017619,28.3856432 80.6578922,28.0775137 81.0105622,27.6875969 C81.1437649,27.468229 81.2148063,27.1024045 81.233201,26.6028037 L81.233201,22.3137181 C82.6844761,24.4300474 84.5968863,26.108275 86.9755059,27.354107 C87.0325928,27.1879961 87.1708698,26.9641901 87.3941429,26.6839572 L88.4838679,24.8199643 C88.6119962,24.5961584 88.711581,24.4300474 88.7876969,24.3159254 C86.89495,23.7072747 85.325061,22.6091673 84.0786643,21.0298455 L87.1994133,17.4064716 L84.5499482,15.3193068 C83.9219926,16.5461184 83.1747889,17.6302776 82.3229259,18.5762222 C82.0996528,17.9105105 81.8947744,17.3544827 81.7089249,16.9075048 C81.4101703,15.7377542 81.2528643,14.9674306 81.233201,14.5965341 L88.1172433,14.6770535 L88.1172433,11.6674024 L84.6355785,11.7529939 C85.1918583,6.94084911 85.5724375,4.06370638 85.7766816,3.11332363 C81.8186586,3.22681163 77.451513,3.21793547 72.6758791,3.0892312 L72.6758791,6.09444418 L82.3229259,6.01329075 L82.1561054,7.63001926 L73.151603,7.54442775 L73.151603,10.3879679 C74.4360576,10.3309069 77.3227504,10.2928662 81.8186586,10.2744799 L81.5719164,11.7529939 L71.0863269,11.6674024 Z M74.9067071,19.7225144 C75.0202466,19.6464331 75.0925566,19.5798619 75.1299802,19.527239 C75.3158297,19.356056 75.5200739,19.1994552 75.7439812,19.0517306 C75.8530806,18.9946696 76.2197052,18.7188747 76.8286318,18.2148359 L75.9957978,17.0457193 L74.3212496,14.9008594 C73.7649697,15.3478373 72.9467246,15.8658244 71.8671484,16.4605269 C72.9276956,17.7443996 73.7839987,18.9521909 74.4360576,20.0839008 C74.5641859,19.9507585 74.721492,19.8315644 74.9067071,19.7225144 L74.9067071,19.7225144 Z M66.9329399,19.7225144 L69.3883097,19.3040671 C69.7397111,19.3040671 70.2541272,19.2374959 70.920775,19.1087916 C71.0343144,18.7714977 71.0863269,18.4576621 71.0863269,18.1628469 C71.2011349,17.3785751 71.3679555,16.7217395 71.5905943,16.1847321 C69.2830161,16.5746489 67.5856331,16.8124031 66.4908338,16.9075048 C68.1799709,14.7911755 69.9445895,12.3660828 71.7859582,9.63666463 C72.080907,9.17066642 72.3993249,8.71481238 72.7323317,8.2678345 L69.8069467,6.37467712 C69.3026793,7.48736674 68.5979736,8.80928005 67.6896581,10.3309069 L65.5685637,10.3594374 C66.9621177,8.352792 68.4413019,6.10395435 70.0016764,3.61736251 C68.7749429,3.0607007 67.7327904,2.54715165 66.8809274,2.08622552 C65.4873735,5.65253839 63.8603977,8.31475133 62,10.0792044 C62.2239074,10.8590382 62.4002424,11.8620439 62.5328108,13.0888555 L65.8768328,12.9512751 C64.4832789,15.0676044 63.2654256,16.5981074 62.2239074,17.5491241 C62.5042674,18.2718969 62.7522781,19.2184756 62.9749169,20.3882262 L66.9329399,19.7225144 Z M93.5550849,18.6903442 C92.6080771,18.9141502 91.528501,19.1087916 90.3201622,19.2755366 C90.9906158,21.2821819 91.3718292,22.4519326 91.4663397,22.7847884 C91.6851727,22.7137792 91.9084458,22.6180435 92.1323532,22.5089936 C92.4704343,22.2287606 94.3352721,21.5865073 97.736381,20.5828676 C97.7941022,20.5644813 98.155018,20.4547974 98.8216658,20.2500117 C98.8216658,18.8000282 98.8590894,17.7780022 98.9358396,17.1832997 C98.7119322,17.259381 98.5070537,17.3354624 98.3218386,17.4064716 L96.7329207,17.882614 L96.7329207,11.3060161 C97.4230375,11.3060161 98.1169601,11.3250364 98.8216658,11.3630771 L98.8216658,8.2678345 C97.8226456,8.32426149 97.1230143,8.352792 96.7329207,8.352792 C96.7329207,5.54729254 96.7703443,3.57868783 96.8426543,2.44697788 L93.4453512,2.44697788 L93.5550849,8.352792 C92.7552344,8.352792 91.8278899,8.32426149 90.7673427,8.2678345 L90.7673427,11.3630771 C91.4568252,11.3440567 92.384804,11.3250364 93.5550849,11.3060161 L93.5550849,18.6903442 Z M104.120596,16.2652515 C104.120596,18.5527638 104.073024,19.979289 103.978513,20.5543371 C103.868779,21.116071 103.554802,21.4387827 103.031505,21.5338844 C102.864685,21.5484666 102.593839,21.5769971 102.222775,21.6150378 C102.745437,22.6751045 103.087958,23.6787442 103.254778,24.6246889 C103.996908,24.5105669 104.706054,24.235406 105.372067,23.7877941 C106.15162,23.2888273 106.627344,22.5185037 106.794164,21.4768234 C106.851251,20.4738177 106.879795,18.6903442 106.879795,16.1276711 L106.960985,13.4787724 L102.755586,13.5358334 L102.755586,10.6117738 L106.794164,10.5832433 C107.184258,14.6104823 107.874375,18.3479782 108.858806,21.7811487 C107.131611,23.9164984 105.31942,25.3474616 103.421599,26.0753064 C104.425694,26.9832104 105.157674,27.86829 105.623884,28.719133 C106.704094,28.1434509 108.264469,26.8881088 110.310081,24.9575447 C111.775311,27.0783121 113.15047,28.3006857 114.434291,28.6386136 C114.544024,28.6386136 114.648684,28.6284695 114.739388,28.6100831 C115.742849,28.0534213 116.589637,26.7505283 117.27468,24.7058423 C117.350795,24.520077 117.436426,24.3159254 117.526496,24.0971916 C116.465949,23.5360917 115.614086,22.9084206 114.962661,22.1995961 C114.776812,22.8703799 114.563053,23.3598366 114.320117,23.6787442 C114.134267,23.9164984 113.958567,24.0496407 113.791746,24.0686611 C113.606531,24.0686611 113.235466,23.6407035 112.679187,22.7847884 C112.660158,22.7657681 112.545984,22.5185037 112.341105,22.0334852 C113.754323,18.9667731 114.852928,16.0325694 115.633115,13.2270699 C114.462834,12.9512751 113.3452,12.5803785 112.288459,12.1143803 C112.117832,13.9542807 111.694755,15.8658244 111.004638,17.8534495 C110.837818,17.4445123 110.662117,16.6551684 110.476902,15.4854177 C110.138821,13.4787724 109.953606,11.8525337 109.914913,10.6117738 C111.812735,10.5547128 113.90148,10.5737332 116.190029,10.6637627 L116.190029,7.54442775 L109.748727,7.63001926 C109.748727,5.54729254 109.7963,3.78347344 109.891444,2.33285587 C108.830263,2.44697788 107.650468,2.38991687 106.346984,2.16674494 C106.480187,4.52526652 106.551862,6.34614662 106.570891,7.63001926 L99.3544766,7.48736674 L99.5200285,12.5898887 C99.5200285,16.4890574 99.4350325,18.9667731 99.268212,20.0268398 C98.6929032,22.8133189 97.2511426,24.9480346 94.9486388,26.4366928 C96.1760065,27.0117409 97.0659274,27.7345137 97.6272816,28.6100831 C100.262792,26.2128869 101.842196,23.5265815 102.365492,20.5543371 C102.494255,19.4796882 102.622383,18.0487249 102.755586,16.2652515 L104.120596,16.2652515 Z M110.281538,4.00664538 C111.227911,4.95322406 112.146376,6.14199502 113.040737,7.57359226 C113.654738,6.90280843 114.444439,6.18954586 115.409842,5.42873245 C114.739388,4.51575635 113.763203,3.46963791 112.483823,2.28086695 C112.037276,2.72277274 111.304662,3.30289297 110.281538,4.00664538 L110.281538,4.00664538 Z M131.21339,2.78046776 L131.21339,28.5238576 L134.671586,28.5238576 L134.58659,25.0716667 C134.995079,25.7373785 135.480951,26.6795191 136.037231,27.8822383 C137.597606,26.7124877 138.748857,25.6948997 139.490987,24.8199643 C141.127477,26.3796318 142.649794,27.5487484 144.062376,28.3292162 C144.528586,27.1404452 145.123558,25.9706946 145.846658,24.8199643 C144.676377,24.4110271 143.848618,24.0496407 143.36782,23.7307331 C142.863552,23.4359179 142.207053,22.8989104 141.388808,22.1190767 C142.578118,19.5513314 143.553035,16.9550557 144.314827,14.3156671 L142.949182,12.7851641 L134.58659,12.7851641 L134.58659,5.89916874 L139.51953,5.89916874 C139.51953,7.46390833 139.362858,8.352792 139.048246,8.57659794 C138.639124,8.79976988 137.744763,8.88092331 136.370238,8.82830038 C137.041326,10.1647959 137.483432,11.3155262 137.707339,12.2804912 C140.328261,12.0573193 141.945722,11.4296482 142.559723,10.3879679 C142.725909,9.94162401 142.821054,8.41936317 142.835009,5.81864932 L142.920639,2.78046776 L131.21339,2.78046776 Z M134.58659,15.7903771 L140.35617,15.7903771 C140.133531,16.8694641 139.780861,17.9675715 139.295623,19.0802611 C138.720314,18.0201944 138.230635,16.9265251 137.820879,15.7903771 C136.650598,16.3698633 135.685195,16.75027 134.918963,16.9360353 C135.647137,18.6237731 136.455868,20.3501855 137.345155,22.1190767 C136.603025,23.0085944 135.685195,23.7117128 134.58659,24.235406 L134.58659,15.7903771 Z M129.652382,5.14849951 L129.738646,2.78046776 L120.343416,2.78046776 C120.637731,13.0888555 120.54766,19.6369229 120.062422,22.4234021 C119.839149,23.5024891 119.367231,24.5061288 118.63969,25.4330531 C119.534051,26.4366928 120.343416,27.5113418 121.065882,28.6671441 C122.479099,26.4886817 123.316373,24.1586906 123.577704,21.6720988 C123.630351,20.7781431 123.677924,19.756117 123.715981,18.6047527 L126.503089,18.6047527 L126.503089,23.9545391 C126.503089,24.3444559 126.418093,24.634199 126.251273,24.8199643 C125.9189,24.9860752 125.091141,25.0152398 123.773068,24.9004837 C124.329983,25.9611844 124.776529,27.1975062 125.109535,28.6100831 C127.283911,28.3101958 128.640041,27.86829 129.176658,27.2735876 C129.476681,26.9927206 129.633987,26.4366928 129.652382,25.5997981 L129.652382,5.14849951 Z M123.658895,15.6521627 L126.503089,15.6521627 L126.503089,12.4472362 L123.658895,12.4472362 L123.658895,15.6521627 Z M123.744525,9.60813413 L126.503724,9.60813413 L126.503724,5.76158832 L123.744525,5.76158832 L123.744525,9.60813413 Z M148.858308,15.4004602 C149.247767,16.4605269 149.499584,17.259381 149.609317,17.7963885 C154.685609,16.9645658 158.605574,15.785305 161.374287,14.2586061 C163.234685,15.3903161 164.961245,16.2081905 166.559678,16.7122294 C168.676966,17.3259522 170.964881,17.6588081 173.414542,17.7158691 C173.491293,16.3609872 173.686022,15.1335415 174,14.0354342 C170.693402,14.2015451 167.877116,13.8211384 165.555583,12.8942141 C165.218136,12.7655098 164.866101,12.6184192 164.495036,12.4472362 C166.911714,10.6637627 168.781626,8.71481238 170.099064,6.59848307 L168.928783,4.45362326 L159.533553,4.45362326 C159.813913,3.98825905 160.099347,3.47914808 160.398736,2.91804818 C159.281102,2.73291692 158.020116,2.42859156 156.606899,2 C155.546986,5.233457 153.56734,7.70166252 150.670499,9.4134927 C151.450686,10.0411638 152.28796,10.8590382 153.177247,11.8620439 C153.752556,11.4201381 154.766165,10.4786315 156.21744,9.05210633 C156.902482,10.0506739 157.711213,11.0631898 158.642998,12.0858498 C155.184802,13.5928944 151.793207,14.3537078 148.46758,14.3727281 C148.577314,14.705584 148.710516,15.04795 148.858308,15.4004602 L148.858308,15.4004602 Z M165.274589,7.46390833 C164.162029,8.68628188 162.924513,9.70830789 161.569651,10.5261823 C160.660701,9.74634857 159.756826,8.72368854 158.866905,7.46390833 L165.274589,7.46390833 Z M151.559785,21.1965904 L157.863445,21.1395294 C157.230415,22.3137181 156.188896,23.3224299 154.737621,24.177711 C153.067513,25.0152398 151.227413,25.4520735 149.219224,25.4907481 C149.946764,26.731508 150.446591,27.8486357 150.727586,28.8332551 C155.465796,27.9957263 158.84851,25.9041234 160.87002,22.5609825 L161.598195,21.1395294 L166.892685,21.1395294 C166.892685,22.646574 166.854627,23.6216832 166.782951,24.0686611 C166.706835,24.5105669 166.455019,24.8294745 166.026867,25.0152398 C165.022772,25.4622176 163.819508,25.5617574 162.406291,25.3195651 C162.86806,26.5647631 163.177598,27.7915747 163.324755,29 C165.33231,28.9232846 166.88317,28.6481238 167.981775,28.1631052 C169.26179,27.5487484 170.013434,26.3986521 170.237341,24.7058423 C170.294428,24.0781712 170.331851,22.8228291 170.35088,20.944254 L170.402893,18.0487249 L162.349204,18.1057859 L162.682845,15.8759686 C160.845916,15.6902034 159.638212,15.5234584 159.062269,15.3763678 C159.04324,16.3229465 158.95761,17.2308505 158.809818,18.1057859 C155.408709,18.1057859 152.992032,18.0772554 151.559785,18.0201944 L151.559785,21.1965904 L151.559785,21.1965904 Z" id="Fill-26" fill="#FEFEFE" mask="url(#mask-2)"></path>
                </g>
            </g>
        </g>
    </g>
</svg>