<?xml version="1.0" encoding="UTF-8" standalone="no"?>
<svg width="50px" height="33px" viewBox="0 0 50 33" version="1.1" xmlns="http://www.w3.org/2000/svg" xmlns:xlink="http://www.w3.org/1999/xlink">
    <!-- Generator: Sketch 50.2 (55047) - http://www.bohemiancoding.com/sketch -->
    <title>监控相机</title>
    <desc>Created with Sketch.</desc>
    <defs></defs>
    <g id="Page-1" stroke="none" stroke-width="1" fill="none" fill-rule="evenodd">
        <g id="火炬小区平面图2" transform="translate(-202.000000, -962.000000)" fill="#4DA1FF" fill-rule="nonzero">
            <g id="Group-7" transform="translate(171.000000, 913.000000)">
                <g id="Group-2">
                    <g id="监控相机" transform="translate(31.000000, 48.000000)">
                        <path d="M6.83405929,1.41081143 L0.566762143,17.3877234 L28.4632035,28.3304518 L38.7878832,13.9449795 L6.83405929,1.41081143 M42.2904429,19.5621889 L39.1073504,27.6773804 L44.3803707,33.2573648 L49.951191,19.0556022 L42.2904429,19.5621889 M38.4542791,17.0331624 L31.9391941,26.1824131 L37.5183971,28.3710867 L41.4976357,18.2270618 L38.4542791,17.0331624 M4.51332225,23.223239 L8.19262962,24.6781396 L6.7477456,27.8477345 L0.048808956,27.8477345 L0.048808956,30.708234 L8.62995225,30.708234 L8.62995225,30.6148163 L10.856064,25.7314508 L14.8996648,27.3304207 L16.1519592,24.1637385 L5.76519038,20.0566278 L4.51332225,23.223239 M12.3655944,0.0157975275 L41.6000755,34.489768 M41.6000755,0.0157975275 L11.1127317,34.489768" id="Shape"></path>
                    </g>
                </g>
            </g>
        </g>
    </g>
</svg>