<?xml version="1.0" encoding="UTF-8" standalone="no"?>
<svg width="592px" height="372px" viewBox="0 0 592 372" version="1.1" xmlns="http://www.w3.org/2000/svg" xmlns:xlink="http://www.w3.org/1999/xlink">
    <!-- Generator: Sketch 50.2 (55047) - http://www.bohemiancoding.com/sketch -->
    <title>底框</title>
    <desc>Created with Sketch.</desc>
    <defs>
        <rect id="path-1" x="0" y="0" width="560" height="340"></rect>
        <filter x="-5.2%" y="-5.6%" width="110.4%" height="117.1%" filterUnits="objectBoundingBox" id="filter-2">
            <feOffset dx="0" dy="10" in="SourceAlpha" result="shadowOffsetOuter1"></feOffset>
            <feGaussianBlur stdDeviation="8" in="shadowOffsetOuter1" result="shadowBlurOuter1"></feGaussianBlur>
            <feComposite in="shadowBlurOuter1" in2="SourceAlpha" operator="out" result="shadowBlurOuter1"></feComposite>
            <feColorMatrix values="0 0 0 0 0   0 0 0 0 0   0 0 0 0 0  0 0 0 0.298035553 0" type="matrix" in="shadowBlurOuter1"></feColorMatrix>
        </filter>
    </defs>
    <g id="Page-1" stroke="none" stroke-width="1" fill="none" fill-rule="evenodd">
        <g id="火炬小区平面图2" transform="translate(-1114.000000, -397.000000)">
            <g id="底框" transform="translate(1130.000000, 403.000000)">
                <g id="dadikuang">
                    <use fill="black" fill-opacity="1" filter="url(#filter-2)" xlink:href="#path-1"></use>
                    <rect stroke-opacity="0.604930933" stroke="#00C0A5" stroke-width="1" stroke-linejoin="square" fill-opacity="0.75" fill="#02354F" fill-rule="evenodd" x="0.5" y="0.5" width="559" height="339"></rect>
                </g>
                <path d="M550.463263,308 L556,308 L528,336 L528,330.121259 M528,324 L528,308 L546,308" id="youxiajiao" fill-opacity="0.5" fill="#00C0A5" transform="translate(542.000000, 322.000000) scale(-1, -1) translate(-542.000000, -322.000000) "></path>
                <polyline id="youshangjiao" stroke="#079795" stroke-width="4" points="511 0 560.394317 0 560.394317 49.2272199"></polyline>
                <polyline id="zuoxiaojiao" stroke="#079795" stroke-width="4" transform="translate(24.697159, 315.613610) scale(-1, -1) translate(-24.697159, -315.613610) " points="0 291 49.3943173 291 49.3943173 340.22722"></polyline>
                <path d="M28.4632631,6 L34,6 L6,34 L6,28.1212592 M6,22 L6,6 L24,6" id="zuoshangjiao" fill="#079795"></path>
            </g>
        </g>
    </g>
</svg>