<?xml version="1.0" encoding="UTF-8" standalone="no"?>
<svg width="65px" height="32px" viewBox="0 0 65 32" version="1.1" xmlns="http://www.w3.org/2000/svg" xmlns:xlink="http://www.w3.org/1999/xlink">
    <!-- Generator: Sketch 47.1 (45422) - http://www.bohemiancoding.com/sketch -->
    <title>car</title>
    <desc>Created with Sketch.</desc>
    <defs></defs>
    <g id="Page-1" stroke="none" stroke-width="1" fill="none" fill-rule="evenodd">
        <g id="Artboard" transform="translate(-400.000000, -497.000000)" fill="#71DAFF">
            <g id="Group-11" transform="translate(359.000000, 459.000000)">
                <g id="Group-10">
                    <g id="Group-15">
                        <g id="car" transform="translate(40.995713, 38.361642)">
                            <path d="M64.8766145,22.3572411 C64.7123612,21.9285334 64.567453,21.4305571 64.2500653,21.1406579 C63.9350279,20.8530165 63.8047643,20.6097179 63.8225727,20.2100905 C63.8475226,19.6367945 63.832878,19.0624148 63.8334204,18.4881254 C63.834686,17.3689881 63.8342341,16.2493992 63.834234,15.049072 C62.880534,15.049072 62.0028588,15.0580128 61.1254548,15.046453 C60.3709018,15.0370606 59.8491239,14.5753894 59.8763338,13.9667817 C59.9025492,13.3814744 60.396846,12.9971095 61.1459752,12.9935874 C62.0237408,12.9894331 62.9015968,12.9925036 63.8364036,12.9925037 C63.8364036,12.7035076 63.8399291,12.4888377 63.8354091,12.2735356 C63.8080185,10.7238844 63.631471,10.4929585 62.1741632,10.0050067 C61.5172401,9.78582127 60.8719784,9.53421407 60.2212025,9.29678564 C60.227892,9.26020957 60.2353046,9.2236335 60.2430788,9.18579311 C60.4048914,9.15734509 60.5675176,9.13061292 60.7297823,9.0985524 C61.5561114,8.93283119 61.9595581,8.4327777 61.8257689,7.73828396 C61.7024658,7.09761579 61.1476927,6.79651799 60.330765,6.92430842 C59.6993342,7.02319924 59.0520838,7.06356839 58.4381903,7.22947025 C57.0842075,7.59495996 55.9665253,7.25484771 54.8238932,6.45487046 C52.7495279,5.00221362 50.5969682,3.65720781 48.4376288,2.33134792 C47.0438708,1.4756486 45.5340416,0.859906297 43.895576,0.610466618 C40.3913839,0.0779913691 37.6482533,-0.136859204 34.1084443,0.0890093132 C30.8164165,0.299344262 29.9167746,0.774200948 26.9045289,2.25322865 C23.4624402,3.94412666 20.282958,6.02715619 17.3386918,8.48010077 C17.1174877,8.6629811 16.8193547,8.78923625 16.5364086,8.85642786 C13.9258017,9.47397638 11.2874427,9.99028589 8.7034128,10.7041063 C6.40928966,11.3369174 4.21704527,12.2768771 2.20848972,13.5889194 C1.51061634,14.0449913 1.30170637,14.4960961 1.47382436,15.1696376 C2.18778856,15.0419374 2.90310878,14.9125214 3.61924259,14.7886143 C4.27734078,14.6749124 4.81412472,15.0002136 4.93652379,15.5799217 C5.05223337,16.1275693 4.63757722,16.6468591 3.97062001,16.775643 C3.27853214,16.9093037 2.58807139,17.0893844 1.88893245,17.1406812 C1.3238539,17.1832178 1.19359025,17.4489136 1.17505862,17.9348786 C1.13546426,18.9489839 1.08890921,19.963631 0.990013683,20.973582 C0.961719062,21.2622169 0.80939825,21.5963686 0.603561783,21.799569 C-0.111396855,22.5061644 -0.232078257,24.7566311 0.462992742,25.4900489 C0.610703217,25.6462874 0.801895244,25.8218525 0.99787835,25.859422 C1.93584908,26.0422121 2.88150364,26.1801174 3.86476388,26.3400586 C2.73542038,19.8855118 7.42798595,15.3679611 12.0233737,14.859599 C14.590499,14.5753894 16.9572118,15.1633158 18.9831238,16.7700437 C21.9120224,19.0923981 23.0558296,22.1860109 22.6099861,25.8931984 L42.3472372,25.8931984 C42.059048,24.0512999 42.2732011,22.3077505 42.9770408,20.6253418 C43.6949826,18.9102403 44.8141112,17.5181823 46.3460878,16.4729196 C47.8526626,15.444816 49.5206884,14.8647468 51.3563124,14.8051413 C53.8228247,14.7242224 56.0151595,15.4626976 57.8830555,17.0693353 C60.4359884,19.2650733 61.4429329,22.1079819 61.2173897,25.4836367 C61.8006383,25.415542 62.3211506,25.347357 62.8442843,25.2966021 C64.1800067,25.1670055 65.0208899,24.786795 64.8918015,23.0147072 C64.8754394,22.7948896 64.9507411,22.5494234 64.8766145,22.3572411 L64.8766145,22.3572411 Z M20.4991904,10.2354811 C26.4660077,5.15194965 30.7806188,2.53346453 38.6442596,3.41679912 C38.4706048,5.79496592 38.2979444,8.16491439 38.120041,10.6035898 C31.4596894,10.950927 27.177712,11.7475628 20.4991904,10.2354811 L20.4991904,10.2354811 Z M38.4759383,15.0362478 C38.4324383,15.0434067 38.3884034,15.0468209 38.3443187,15.046453 C37.9248714,15.0470851 37.506509,15.0470851 37.0881467,15.0470852 L37.0881467,15.0405828 C36.669061,15.0405828 36.249433,15.061535 35.8313417,15.0362478 C35.1902383,14.9990396 34.7544291,14.5600365 34.769616,14.0032675 C34.7849837,13.4371061 35.2196178,13.0101144 35.8626195,12.994039 C36.6988924,12.9726352 37.5376964,12.9810342 38.3746021,12.995213 C38.9855124,13.0049666 39.4345198,13.3955629 39.4806229,13.920452 C39.5271779,14.4414578 39.0773569,14.9418726 38.4759383,15.0362478 L38.4759383,15.0362478 Z M40.3513375,10.392713 L40.851239,3.60880089 C44.653564,4.27087287 46.5376414,6.47365515 48.7305186,9.62082252 C45.6399882,9.88155118 43.426229,10.1339712 40.3513375,10.392713 L40.3513375,10.392713 Z" id="Shape" fill-rule="nonzero"></path>
                            <path d="M51.7153551,17.3501423 C47.9006887,17.3514843 44.8204916,20.3812548 44.8171334,24.1366637 C44.8121413,28.0432659 47.8441422,31.0651636 51.7689972,31.0651635 C55.4627648,31.1714462 58.8860532,28.0039914 58.7569855,23.8853608 C58.6446185,20.3517319 55.5143193,17.348711 51.7153551,17.3501423 Z" id="Path"></path>
                            <path d="M12.7992766,17.3356493 C9.2068026,17.4419319 6.1258794,20.5002413 6.13159756,24.1630554 C6.13704342,28.1076796 9.15552035,31.0674896 13.1678728,31.0651635 C17.0096779,31.0632848 20.0226182,28.0000549 20.0445833,24.1252124 C20.0657315,20.4769808 16.8747105,17.2152314 12.7992766,17.3356493 L12.7992766,17.3356493 Z" id="Path"></path>
                        </g>
                    </g>
                </g>
            </g>
        </g>
    </g>
</svg>