<?xml version="1.0" encoding="UTF-8" standalone="no"?>
<svg width="107px" height="70px" viewBox="0 0 107 70" version="1.1" xmlns="http://www.w3.org/2000/svg" xmlns:xlink="http://www.w3.org/1999/xlink">
    <!-- Generator: Sketch 47.1 (45422) - http://www.bohemiancoding.com/sketch -->
    <title>shexiangtou</title>
    <desc>Created with Sketch.</desc>
    <defs>
        <linearGradient x1="3.33494339%" y1="3.11872424%" x2="37.1829752%" y2="76.0584114%" id="linearGradient-1">
            <stop stop-color="#FFFFFF" stop-opacity="0.592532835" offset="0%"></stop>
            <stop stop-color="#FFFFFF" stop-opacity="0.0766247736" offset="100%"></stop>
        </linearGradient>
    </defs>
    <g id="Page-1" stroke="none" stroke-width="1" fill="none" fill-rule="evenodd">
        <g id="Artboard" transform="translate(-476.000000, -492.000000)">
            <g id="Group-11" transform="translate(359.000000, 459.000000)">
                <g id="Group-10">
                    <g id="Group-15-Copy" transform="translate(117.677419, 32.960000)">
                        <g id="shexiangtou" transform="translate(0.000000, 0.540020)">
                            <polygon id="Path-2" fill-opacity="0.540000021" fill="url(#linearGradient-1)" points="21.1811186 14.8584946 26.6472137 12.1569501 105.905593 68.889384 21.861603 68.889384"></polygon>
                            <g id="Group" fill-rule="nonzero" fill="#FFFFFF">
                                <g id="车牌识别">
                                    <path d="M10.1604024,14.5049838 L11.0582486,14.5004212 L11.2693677,13.1380712 L17.7604183,14.8509392 L15.5272391,12.4696 L15.9329582,11.3539903 C16.0701039,11.8529282 16.3630022,12.2132871 16.7898694,12.3260111 C17.6888956,12.5630893 18.8318978,11.613345 19.3433578,10.2050106 C19.8190566,8.89186559 19.579165,7.64322364 18.8161954,7.28832204 L21.6881778,5.33139767 L21.9023829,5.29901187 L25.4598217,6.23685763 L25.3312987,6.89423535 L22.8807376,6.24821951 L21.8024508,9.21473931 L23.1162724,9.53958126 L26.4126715,7.48549958 L26.769559,5.65310836 L5.3339798,0 L3.39288206,0.28476223 L0.094123136,3.61092536 L16.8553109,8.03042169 C16.6662477,8.24558134 16.4945205,8.49527397 16.3466645,8.77144774 L1.3645592,4.82074005 L0,8.57963798 L2.30152509,10.7731039 L6.7239532,11.9394394 L6.55367831,14.2630746 L7.38617377,14.2513549 L7.38898753,15.2793798 L5.04743504,15.2793798 L5.04743504,66.8607173 L12.7594548,66.8607173 L12.7594548,15.2792008 L10.160947,15.2792008 L10.1604024,14.5049838 Z M17.0146033,9.59003869 C17.2348896,8.98025556 17.7295582,8.56863403 18.1177596,8.67115919 C18.5066871,8.773237 18.6421991,9.35152906 18.4208236,9.9615805 C18.1992665,10.5710952 17.7040533,10.9825378 17.3170318,10.880639 C16.9263798,10.7778454 16.7926831,10.2005375 17.0146033,9.59003869 L17.0146033,9.59003869 Z M10.5673921,52.4701572 L7.23931623,52.4701572 L7.23931623,50.3035305 L10.5673921,50.3035305 L10.5673921,52.4701572 Z M11.9100771,42.2916277 L5.89654056,42.2916277 L5.89654056,39.350605 L11.9100771,39.350605 L11.9100771,42.2916277 L11.9100771,42.2916277 Z M11.9100771,31.9319346 L5.89654056,31.9319346 L5.89654056,22.6998394 L11.9100771,22.6998394 L11.9100771,31.9319346 L11.9100771,31.9319346 Z" id="Shape"></path>
                                    <polygon id="Shape" points="20.0687339 13.1664873 17.0815472 14.1197602 17.8783621 14.8584946 21.0670852 13.8577982 22.5476423 9.7580809 21.4066693 9.45540565"></polygon>
                                </g>
                            </g>
                        </g>
                    </g>
                </g>
            </g>
        </g>
    </g>
</svg>