<?xml version="1.0" encoding="UTF-8" standalone="no"?>
<svg width="174px" height="122px" viewBox="0 0 174 122" version="1.1" xmlns="http://www.w3.org/2000/svg" xmlns:xlink="http://www.w3.org/1999/xlink">
    <!-- Generator: Sketch 48.2 (47327) - http://www.bohemiancoding.com/sketch -->
    <title>车牌抓拍弹窗带车牌</title>
    <desc>Created with Sketch.</desc>
    <defs>
        <rect id="path-1" x="0" y="0" width="172" height="120"></rect>
    </defs>
    <g id="项目首页－停车场区域" stroke="none" stroke-width="1" fill="none" fill-rule="evenodd" transform="translate(-641.000000, -575.000000)">
        <g id="Group-6" transform="translate(641.000000, 575.000000)">
            <g id="车牌抓拍弹窗带车牌">
                <g id="Group-2-Copy-3" transform="translate(1.000000, 1.000000)">
                    <g id="Group-2-Copy-2">
                        <g id="Rectangle">
                            <use fill-opacity="0.75" fill="#027FBA" fill-rule="evenodd" xlink:href="#path-1"></use>
                            <rect stroke="#54C1F0" stroke-width="1" x="0.5" y="0.5" width="171" height="119"></rect>
                        </g>
                    </g>
                </g>
                <polygon id="Combined-Shape" fill="#4EDEFF" points="13 2.5 2.5 2.5 2.5 13 0 13 0 0 13 0"></polygon>
                <polygon id="Combined-Shape" fill="#4EDEFF" transform="translate(167.500000, 6.500000) scale(-1, 1) translate(-167.500000, -6.500000) " points="174 2.5 163.5 2.5 163.5 13 161 13 161 0 174 0"></polygon>
                <polygon id="Combined-Shape" fill="#4EDEFF" transform="translate(6.500000, 115.500000) scale(1, -1) translate(-6.500000, -115.500000) " points="13 111.5 2.5 111.5 2.5 122 0 122 0 109 13 109"></polygon>
                <polygon id="Combined-Shape" fill="#4EDEFF" transform="translate(167.500000, 115.500000) scale(-1, -1) translate(-167.500000, -115.500000) " points="174 111.5 163.5 111.5 163.5 122 161 122 161 109 174 109"></polygon>
            </g>
        </g>
    </g>
</svg>