<?xml version="1.0" encoding="UTF-8" standalone="no"?>
<svg width="19px" height="19px" viewBox="0 0 19 19" version="1.1" xmlns="http://www.w3.org/2000/svg" xmlns:xlink="http://www.w3.org/1999/xlink">
    <!-- Generator: Sketch 48.2 (47327) - http://www.bohemiancoding.com/sketch -->
    <title>jizhumimaweixuanzhong</title>
    <desc>Created with Sketch.</desc>
    <defs>
        <polygon id="path-1" points="7.96107925e-05 18.6329419 18.8170456 18.6329419 18.8170456 0.128128877 7.96107925e-05 0.128128877"></polygon>
    </defs>
    <g id="华数智慧小区云平台" stroke="none" stroke-width="1" fill="none" fill-rule="evenodd" transform="translate(-1360.000000, -667.000000)">
        <g id="Group-10" transform="translate(1320.000000, 381.000000)">
            <g id="Group-9" transform="translate(0.000000, 6.000000)">
                <g id="登录页">
                    <g id="Group-2" transform="translate(40.000000, 280.000000)">
                        <g id="jizhumimaweixuanzhong">
                            <g id="Group-3" transform="translate(0.000000, 0.028497)">
                                <mask id="mask-2" fill="white">
                                    <use xlink:href="#path-1"></use>
                                </mask>
                                <g id="Clip-2"></g>
                                <path d="M17.6410349,16.3198422 C17.6410349,16.9589991 17.1148076,17.4763372 16.4650243,17.4763372 L2.35210084,17.4763372 C1.70295444,17.4763372 1.17609023,16.9589991 1.17609023,16.3198422 L1.17609023,2.44127552 C1.17609023,1.80274496 1.70295444,1.28462391 2.35210084,1.28462391 L16.4650243,1.28462391 C17.1148076,1.28462391 17.6410349,1.80274496 17.6410349,2.44127552 L17.6410349,16.3198422 Z M16.4650243,0.128128877 L2.35210084,0.128128877 C1.05380805,0.128128877 7.96107925e-05,1.16437097 7.96107925e-05,2.44127552 L7.96107925e-05,16.3198422 C7.96107925e-05,17.5967468 1.05380805,18.6329889 2.35210084,18.6329889 L16.4650243,18.6329889 C17.7633171,18.6329889 18.8170456,17.5967468 18.8170456,16.3198422 L18.8170456,2.44127552 C18.8170456,1.16437097 17.7633171,0.128128877 16.4650243,0.128128877 L16.4650243,0.128128877 Z" id="Fill-1" fill="#FFFFFF" mask="url(#mask-2)"></path>
                            </g>
                        </g>
                    </g>
                </g>
            </g>
        </g>
    </g>
</svg>