<?xml version="1.0" encoding="UTF-8" standalone="no"?>
<svg width="16px" height="20px" viewBox="0 0 16 20" version="1.1" xmlns="http://www.w3.org/2000/svg" xmlns:xlink="http://www.w3.org/1999/xlink">
    <!-- Generator: Sketch 48.2 (47327) - http://www.bohemiancoding.com/sketch -->
    <title>mima</title>
    <desc>Created with Sketch.</desc>
    <defs></defs>
    <g id="华数智慧小区云平台" stroke="none" stroke-width="1" fill="none" fill-rule="evenodd" transform="translate(-1370.000000, -527.000000)">
        <g id="Group-10" transform="translate(1320.000000, 381.000000)" fill="#FFFFFF">
            <g id="Group-9" transform="translate(0.000000, 6.000000)">
                <g id="登录页">
                    <g id="Group-5" transform="translate(40.000000, 130.000000)">
                        <path d="M23.9681779,16.8304094 L22.3712968,16.8304094 C22.3712968,13.9688109 20.4110117,11.7816764 17.9126092,11.7816764 C15.4107123,11.7816764 13.4539215,13.9688109 13.4539215,16.8304094 L11.8535461,16.8304094 C11.8535461,13.3957115 14.5685934,10 17.9091149,10 C21.2496364,10 23.9681779,13.3957115 23.9681779,16.8304094 L23.9681779,16.8304094 L23.9681779,16.8304094 Z M25.9948541,19.7582846 C25.9948541,18.7758285 25.2785289,17.9766082 24.3979731,17.9766082 L11.6019587,17.9766082 C10.7214028,17.9766082 10.0050776,18.7758285 10.0050776,19.7582846 L10.0050776,28.2183236 C10.0050776,29.2007797 10.7214028,30 11.6019587,30 L24.3944788,30 C25.2750347,30 25.9913599,29.2007797 25.9913599,28.2183236 L25.9913599,19.7582846 L25.9948541,19.7582846 L25.9948541,19.7582846 Z M19.2648914,26.374269 C19.2648914,27.1111111 18.7302682,27.711501 18.066357,27.711501 L17.8951378,27.711501 C17.2347209,27.711501 16.6966034,27.1150097 16.6966034,26.374269 L16.6966034,22.748538 C16.6966034,22.0116959 17.2312266,21.411306 17.8951378,21.411306 L18.066357,21.411306 C18.7267739,21.411306 19.2648914,22.0077973 19.2648914,22.748538 L19.2648914,26.374269 L19.2648914,26.374269 L19.2648914,26.374269 Z" id="mima"></path>
                    </g>
                </g>
            </g>
        </g>
    </g>
</svg>