<?xml version="1.0" encoding="UTF-8" standalone="no"?>
<svg width="16px" height="20px" viewBox="0 0 16 20" version="1.1" xmlns="http://www.w3.org/2000/svg" xmlns:xlink="http://www.w3.org/1999/xlink">
    <!-- Generator: Sketch 48.2 (47327) - http://www.bohemiancoding.com/sketch -->
    <title>yonghu</title>
    <desc>Created with Sketch.</desc>
    <defs></defs>
    <g id="华数智慧小区云平台" stroke="none" stroke-width="1" fill="none" fill-rule="evenodd" transform="translate(-1370.000000, -457.000000)">
        <g id="Group-10" transform="translate(1320.000000, 381.000000)" fill="#FFFFFF">
            <g id="Group-9" transform="translate(0.000000, 6.000000)">
                <g id="登录页">
                    <g id="Group-6" transform="translate(40.000000, 60.000000)">
                        <path d="M17.818187,20.5355208 C20.5114888,20.5355208 22.703432,18.1725208 22.703432,15.2675208 C22.703432,12.363 20.5114888,10.0000417 17.818187,10.0000417 C15.1248852,10.0000417 12.9333964,12.3635208 12.9333964,15.2675208 C12.9333964,18.172 15.1248663,20.5355208 17.818187,20.5355208 L17.818187,20.5355208 L17.818187,20.5355208 Z M15.9448237,21.5 C12.5431101,21.5 10.0033704,24.024 10.0033704,27.6895208 L10.0033704,28.084 C10.0033704,30 12.7254722,30 16.171058,30 L19.8314414,30 C23.1413018,30 25.9995834,30 25.9995834,28.084 L25.9995834,27.6895208 C25.9995834,24.0245208 23.4593893,21.5 20.0581302,21.5 L15.9448047,21.5 L15.9448237,21.5 Z" id="yonghu"></path>
                    </g>
                </g>
            </g>
        </g>
    </g>
</svg>