<?xml version="1.0" encoding="UTF-8" standalone="no"?>
<svg width="40px" height="40px" viewBox="0 0 40 40" version="1.1" xmlns="http://www.w3.org/2000/svg" xmlns:xlink="http://www.w3.org/1999/xlink">
    <!-- Generator: Sketch 46 (44423) - http://www.bohemiancoding.com/sketch -->
    <title>gaojing</title>
    <desc>Created with Sketch.</desc>
    <defs></defs>
    <g id="Page-1" stroke="none" stroke-width="1" fill="none" fill-rule="evenodd" opacity="0.8">
        <g id="集团首页" transform="translate(-811.000000, -480.000000)" fill-rule="nonzero" fill="#F37B7B">
            <g id="Group-27-Copy-4" transform="translate(781.000000, 450.000000)">
                <g id="gaojing" transform="translate(30.000000, 30.000000)">
                    <path d="M33.8679063,37.1199225 C33.8679063,38.3420186 32.8716736,39.3333333 31.6419372,39.3333333 L8.35753288,39.3333333 C7.12841469,39.3333333 6.13218205,38.3420625 6.13218205,37.1199225 C6.13218205,35.8971678 7.12841469,34.9059848 8.35753288,34.9059848 L31.6420697,34.9059848 C32.8717619,34.9059848 33.8679504,35.8971678 33.8679504,37.1199225 L33.8679063,37.1199225 Z M20.0000442,7.47027249 C19.3375082,7.47027249 18.8013945,6.93722732 18.8013945,6.27838524 L18.8013945,1.19188726 C18.8013945,0.533089085 19.3375082,0 20.0000442,0 C20.6625801,0 21.1986938,0.533089085 21.1986938,1.19188726 L21.1986938,6.27842914 C21.1986938,6.93722732 20.6625801,7.4703164 20.0000442,7.4703164 L20.0000442,7.47027249 Z M11.014742,10.7189501 C10.6729646,10.7189501 10.3334392,10.574624 10.0969769,10.2929531 L6.81004062,6.39948397 C6.38392276,5.895506 6.44949634,5.1435786 6.95752597,4.72105028 C7.46321527,4.29619484 8.21940887,4.36135456 8.64552673,4.86770357 L11.932463,8.76112877 C12.3585808,9.26515064 12.2930073,10.017078 11.7849776,10.4396064 C11.5693427,10.6200365 11.2965645,10.7189658 11.014742,10.7189501 L11.014742,10.7189501 Z M6.23877775,18.9528735 C6.16856766,18.9528735 6.09831341,18.9470337 6.02810332,18.9342564 L0.989888911,18.0508241 C0.339054603,17.9367507 -0.0963804413,17.3186993 0.0183402001,16.6703512 C0.133060842,16.0208616 0.765172459,15.5855121 1.40664542,15.7042837 L6.44481567,16.5877161 C7.09560582,16.7017895 7.53108502,17.3198409 7.41636438,17.9681889 C7.31330126,18.546679 6.80765613,18.9529174 6.23873359,18.9529174 L6.23877775,18.9528735 Z M28.983006,10.7212773 C28.7011869,10.7212741 28.4284149,10.622347 28.2127704,10.4419335 C27.7047407,10.0194052 27.6391671,9.26747778 28.065285,8.7634559 L31.3522213,4.86770357 C31.7759988,4.36368169 32.5321924,4.29847806 33.040222,4.72105028 C33.5482516,5.1435786 33.6138252,5.895506 33.1877074,6.39948397 L29.9007711,10.2952802 C29.6643088,10.5769511 29.3248276,10.7212773 28.983006,10.7212773 L28.983006,10.7212773 Z M33.7612223,18.9528735 C33.1923439,18.9528735 32.6866546,18.5466351 32.5836356,17.968145 C32.468915,17.3198409 32.9043942,16.7017456 33.5551843,16.5876721 L38.5933546,15.7042398 C39.2278065,15.5843705 39.8645988,16.0196322 39.9816598,16.6703073 C40.0963804,17.3186114 39.6609454,17.9367067 39.0101111,18.0507802 L33.9719408,18.9342125 C33.9024304,18.9467726 33.831915,18.9530187 33.7612664,18.9528735 L33.7612223,18.9528735 Z M29.9301357,21.098051 C29.9301357,15.5359837 25.4841589,11.0270977 20,11.0270977 C14.5158411,11.0270977 10.0699085,15.5360276 10.0699085,21.0980071 L10.0699085,32.5220786 L29.9300915,32.5220786 L29.9300915,21.098051 L29.9301357,21.098051 Z" id="Shape"></path>
                </g>
            </g>
        </g>
    </g>
</svg>