<?xml version="1.0" encoding="UTF-8" standalone="no"?>
<svg width="60px" height="59px" viewBox="0 0 60 59" version="1.1" xmlns="http://www.w3.org/2000/svg" xmlns:xlink="http://www.w3.org/1999/xlink">
    <!-- Generator: Sketch 46 (44423) - http://www.bohemiancoding.com/sketch -->
    <title>gaojing</title>
    <desc>Created with Sketch.</desc>
    <defs></defs>
    <g id="Page-1" stroke="none" stroke-width="1" fill="none" fill-rule="evenodd" opacity="0.8">
        <g id="集团首页" transform="translate(-800.000000, -868.000000)" fill-rule="nonzero" fill="#F37B7B">
            <g id="Group-27" transform="translate(780.000000, 827.000000)">
                <g id="gaojing" transform="translate(20.000000, 41.000000)">
                    <path d="M50.8018594,55.6798838 C50.8018594,57.5130279 49.3075104,59 47.4629059,59 L12.5362993,59 C10.692622,59 9.19827307,57.5130938 9.19827307,55.6798838 C9.19827307,53.8457517 10.692622,52.3589772 12.5362993,52.3589772 L47.4631046,52.3589772 C49.3076429,52.3589772 50.8019256,53.8457517 50.8019256,55.6798838 L50.8018594,55.6798838 Z M30.0000662,11.2054087 C29.0062623,11.2054087 28.2020917,10.405841 28.2020917,9.41757785 L28.2020917,1.78783089 C28.2020917,0.799633627 29.0062623,0 30.0000662,0 C30.9938702,0 31.7980407,0.799633627 31.7980407,1.78783089 L31.7980407,9.41764372 C31.7980407,10.405841 30.9938702,11.2054746 30.0000662,11.2054746 L30.0000662,11.2054087 Z M16.522113,16.0784252 C16.0094469,16.0784252 15.5001587,15.861936 15.1454653,15.4394296 L10.2150609,9.59922595 C9.57588415,8.843259 9.67424451,7.7153679 10.436289,7.08157543 C11.1948229,6.44429225 12.3291133,6.54203184 12.9682901,7.30155535 L17.8986945,13.1416932 C18.5378713,13.897726 18.4395109,15.0256171 17.6774664,15.6594095 C17.3540141,15.9300547 16.9448467,16.0784487 16.522113,16.0784252 L16.522113,16.0784252 Z M9.35816662,28.4293103 C9.25285149,28.4293103 9.14747011,28.4205506 9.04215497,28.4013847 L1.48483337,27.0762361 C0.508581904,26.905126 -0.144570662,25.9780489 0.0275103002,25.0055268 C0.199591262,24.0312924 1.14775869,23.3782681 2.10996813,23.5564255 L9.6672235,24.8815741 C10.6434087,25.0526842 11.2966275,25.9797613 11.1245466,26.9522834 C10.9699519,27.8200186 10.2114842,28.4293761 9.35810039,28.4293761 L9.35816662,28.4293103 Z M43.474509,16.0819159 C43.0517803,16.0819111 42.6426224,15.9335205 42.3191555,15.6629002 C41.5571111,15.0291078 41.4587507,13.9012167 42.0979275,13.1451839 L47.0283319,7.30155535 C47.6639982,6.54552254 48.7982886,6.44771709 49.560333,7.08157543 C50.3223775,7.7153679 50.4207378,8.843259 49.781561,9.59922595 L44.8511567,15.4429203 C44.4964632,15.8654267 43.9872413,16.0819159 43.474509,16.0819159 L43.474509,16.0819159 Z M50.6418334,28.4293103 C49.7885158,28.4293103 49.0299819,27.8199527 48.8754534,26.9522175 C48.7033725,25.9797613 49.3565913,25.0526184 50.3327765,24.8815082 L57.8900319,23.5563597 C58.8417098,23.3765557 59.7968982,24.0294482 59.9724897,25.005461 C60.1445707,25.9779172 59.4914181,26.9050601 58.5151666,27.0761703 L50.9579113,28.4013188 C50.8536456,28.4201589 50.7478725,28.429528 50.6418996,28.4293103 L50.6418334,28.4293103 Z M44.8952036,31.6470766 C44.8952036,23.3039755 38.2262383,16.5406465 30,16.5406465 C21.7737617,16.5406465 15.1048627,23.3040414 15.1048627,31.6470107 L15.1048627,48.7831178 L44.8951373,48.7831178 L44.8951373,31.6470766 L44.8952036,31.6470766 Z" id="Shape"></path>
                </g>
            </g>
        </g>
    </g>
</svg>