<svg id="图层_1" data-name="图层 1" xmlns="http://www.w3.org/2000/svg" viewBox="0 0 274.46 86.48"><defs><style>.cls-1{fill:#fff;fill-rule:evenodd;}</style></defs><title>绿城服务logo</title><path class="cls-1" d="M55,7.61a43.51,43.51,0,0,1,4.54.24A36.26,36.26,0,1,0,93.65,70.1,43.23,43.23,0,1,1,55,7.61" transform="translate(-11.71 -7.61)"/><path class="cls-1" d="M59.84,24s-2.73-7.56,3.42-6.83c7.22,1.28,13,7.76,12.73,21.33,0,.64,1.12.62,1.09,0-.23-13.37,5.23-20,12.64-21.33,6.23-.6,3.59,6.6,3.64,6.81,2.51-1.76,7.26-2,6.09,4.5-2.1,8-10.24,11.78-20.77,11.4-.58.07-.59,1.18,0,1.21,9.7-.54,18.7,3.4,20.78,11.42C100.64,59.06,96,58,93,57c0,0,4.13,6.91-3.31,6.57-9.72-1.3-13-12.31-12.58-21.14a.67.67,0,0,0-1.14,0c.29,9.74-3,19.66-12.53,21.14C56,63.85,60.15,57,60.15,57c-3.36,1.06-7.76,2.06-6.59-4.45,2.57-9.71,12.89-11.65,21-11.47.58,0,.55-1.12,0-1.18C63.2,40.31,55.6,36.28,53.6,28.47c-1.12-7,3.87-6.1,6.23-4.48" transform="translate(-11.71 -7.61)"/><path class="cls-1" d="M141.34,77.24v6.1h-1.29l-.47-1.78c-5.15,5.53-12.82-.19-10.79-9.57,2-7,8.07-7.06,11.95-5l0,4.86h-.51c-.26-4.56-8.15-5.57-8.41,2s5.54,8.84,6.46,5.6V77c0-.56-.21-.85-1.51-.81v-.74h5.69v.48c-.86.05-1.16.57-1.1,1.36" transform="translate(-11.71 -7.61)"/><path class="cls-1" d="M152.84,75.86l4,6.62a.88.88,0,0,0,.63.2h.39v.65h-4.45l-4.48-8.07c3.26-.6,4.21-1.36,4.39-2.93.21-1.88-.64-3.14-2.39-3.35h-2.38c0,4.17,0,8.56,0,12.73a1.41,1.41,0,0,0,1.55,1.09v.52h-5.7v-.48a1.34,1.34,0,0,0,.84-1.26V67.89a.83.83,0,0,0-.84-.89v-.5l8.57,0c5.22.9,4.39,8.54-.12,9.34" transform="translate(-11.71 -7.61)"/><path class="cls-1" d="M163.22,75.65l0,5.24h5.27c.91,0,1.48-1.05,1.71-2.85h.51l-.24,5H158.88v-.48c.64,0,1-.16,1.14-.67l0-14.13c0-.56-.34-.79-1.11-.77v-.49H170l.19,4.16h-.46c-.08-.83-.3-1.45-1.27-1.69l-5.28,0c0,1.71,0,2.62,0,4.33h3.4c.49-.07.83-.47,1-1.34H168V77h-.45a2.22,2.22,0,0,0-.77-1.34h-3.62" transform="translate(-11.71 -7.61)"/><path class="cls-1" d="M188.94,70l0,11.64c.08.85.41,1.17,1.29,1.14v.54h-4.22v-.53a.78.78,0,0,0,.89-.77l-.07-14.68a.85.85,0,0,0-.8-.32v-.75h4.64l6,11.12q0-4.85,0-9.7a1.14,1.14,0,0,0-1.29-.67v-.75h4.19c0,.24,0,.49,0,.72a.74.74,0,0,0-.86.57l0,15.76h-2.46L188.94,70" transform="translate(-11.71 -7.61)"/><path class="cls-1" d="M209.66,68.94V81.78a1.6,1.6,0,0,0,1.61,1v.5h-6.16v-.47c.45,0,.94,0,1.31-1.05V68.94h-2.54c-.93.16-1.29,1.73-1.39,2.87h-.44l0-5.29h12l.17,5.29h-.51l-.12-1.14c-.26-1-.72-1.61-1.5-1.73h-2.46" transform="translate(-11.71 -7.61)"/><path class="cls-1" d="M230.27,66.27v.57a1.42,1.42,0,0,1,1.19.68l3.89,15.76H238l2-9.41L242,83.29h2.5l3.71-14.83c.23-.89.4-1.43,1.3-1.46l0-.73H245.1V67h.46a.55.55,0,0,1,.56.5l0,.93-2.24,10.32-2.09-10.32c-.21-1.11.26-1.39.76-1.45H243v-.72h-6.13V67h.6c.46.1.82.65,1,1.49l.59,2.83-1.73,7.49-2.23-10.32c-.26-1.16-.08-1.52.72-1.49v-.7h-5.51" transform="translate(-11.71 -7.61)"/><path class="cls-1" d="M222,68.48c2.05-.24,4.05,2.4,4.45,5.88s-1,6.52-3,6.76-4.05-2.4-4.45-5.88,1-6.52,3-6.76m.65-2.69c4,0,7.23,4,7.23,9s-3.25,9-7.23,9-7.23-4-7.23-9S218.71,65.79,222.69,65.79Z" transform="translate(-11.71 -7.61)"/><path class="cls-1" d="M176.7,75.61l0,5.24H182c.91,0,1.48-1.05,1.71-2.84h.51l-.24,5H172.36v-.48c.64,0,1-.17,1.14-.67l0-14.13c0-.56-.33-.79-1.11-.77v-.49h11.15l.19,4.16h-.46c-.08-.83-.3-1.45-1.27-1.69l-5.28,0c0,1.7,0,2.62,0,4.33h3.4c.49-.07.83-.47,1-1.34h.35v5.06h-.33a2.23,2.23,0,0,0-.77-1.34H176.7" transform="translate(-11.71 -7.61)"/><path class="cls-1" d="M253.22,70l0,11.64c.08.85.42,1.17,1.29,1.14v.54h-4.22c0-.18,0-.36,0-.53a.78.78,0,0,0,.89-.77l-.07-14.68a.85.85,0,0,0-.8-.32v-.75H255l6,11.12q0-4.85,0-9.7a1.14,1.14,0,0,0-1.29-.67v-.75h4.19c0,.24,0,.49,0,.72a.74.74,0,0,0-.86.57l0,15.76h-2.46L253.22,70" transform="translate(-11.71 -7.61)"/><polyline class="cls-1" points="97.07 50.55 269.02 50.55 269.02 53.97 97.07 53.97 97.07 50.55"/><polyline class="cls-1" points="97.07 80.43 269.02 80.43 269.02 83.86 97.07 83.86 97.07 80.43"/><path class="cls-1" d="M250.79,41.27l9.94-.09A12.69,12.69,0,0,1,255.8,46,20,20,0,0,1,247.1,48a23.32,23.32,0,0,1,2.38,5.27q11.2-2,16-9.89l1.15-2.24H275a37.83,37.83,0,0,1-.17,4.62,1.9,1.9,0,0,1-1.19,1.49,9.78,9.78,0,0,1-5.71.48,25.67,25.67,0,0,1,1.45,5.81,20.73,20.73,0,0,0,7.34-1.32q3-1.45,3.56-5.45.13-1.48.18-5.93l.08-4.57-12.7.09.53-3.52a48.77,48.77,0,0,1-5.71-.79,29.21,29.21,0,0,1-.4,4.31q-8,0-11.43-.14v5m21.62-21.66a26.2,26.2,0,0,1-5.84,4.83,26.44,26.44,0,0,1-4.26-4.83ZM246.53,32.13a29.08,29.08,0,0,1,1.18,3.78q12-2,18.55-5.58a37.93,37.93,0,0,0,8.17,3.87,42.25,42.25,0,0,0,10.81,1.58,26.57,26.57,0,0,1,.92-5.81,31.57,31.57,0,0,1-13.31-1.8c-.53-.2-1.09-.44-1.67-.71A33.91,33.91,0,0,0,280,18.24l-1.84-3.38H263.36c.44-.73.89-1.54,1.36-2.42a47.91,47.91,0,0,1-6-1.45,20.59,20.59,0,0,1-9.36,11.69,33.46,33.46,0,0,1,4,3.86c.91-.7,2.5-2.18,4.79-4.43A44.53,44.53,0,0,0,262,26.9a40.54,40.54,0,0,1-16,3.61C246.09,31,246.3,31.57,246.53,32.13ZM206.94,23V16.92h4.35V23Zm-.13,9.53V27.47h4.48v5.06ZM216.25,16l.14-3.73H201.58q.7,24.39-.44,31a11.34,11.34,0,0,1-2.24,4.75,37.61,37.61,0,0,1,3.83,5.1,24.8,24.8,0,0,0,4-11q.12-2.11.22-4.84h4.39v8.44a2,2,0,0,1-.4,1.37,9.55,9.55,0,0,1-3.91.13A24.83,24.83,0,0,1,209.09,53c3.43-.47,5.57-1.17,6.41-2.11a3.75,3.75,0,0,0,.75-2.64ZM224,32.74h9.1a26.33,26.33,0,0,1-1.67,5.19,37.51,37.51,0,0,1-2.33-5.19,23.1,23.1,0,0,1-4.58,1.81q1.72,4,3.83,8.18A12.67,12.67,0,0,1,224,46.06Zm-5.32-20.52v40.6h5.45L224,47.38a44.86,44.86,0,0,1,2.29,4.43A34.25,34.25,0,0,0,231.76,47,36.08,36.08,0,0,0,239,52.52,33.24,33.24,0,0,1,241.78,47a19.14,19.14,0,0,1-3.91-1.72,18.81,18.81,0,0,1-3.12-2.54,85.89,85.89,0,0,0,4.61-12.31L237.22,28H224V17.14h7.78c0,2.47-.25,3.87-.74,4.22s-2.05.48-4.22.4A25.27,25.27,0,0,1,229,27.2q6.2-.53,7.65-3c.26-.7.41-3.1.43-7.21l.13-4.79Zm-33,1.93a31.62,31.62,0,0,1,4.35,5.63,31.58,31.58,0,0,1,3.74-3.38,37.25,37.25,0,0,0-4.61-5A26.77,26.77,0,0,1,185.71,14.15ZM176,33.49a58.29,58.29,0,0,1-.22,6.77,1.75,1.75,0,0,1-1.49,1.54l-1.27.13a17.8,17.8,0,0,1,1.63,4.75A8.16,8.16,0,0,0,178,45.35a5,5,0,0,0,2.24-3.64q.13-2.37.13-8.44l.13-4.18-6.63.09V24.57l6.37,0a98.67,98.67,0,0,0,3.25,17.66A21.07,21.07,0,0,1,174.9,49a16.53,16.53,0,0,1,3.47,4.17,40.49,40.49,0,0,0,7.39-5.93c2.31,3.35,4.48,5.27,6.5,5.81a2.43,2.43,0,0,0,.48,0q2.37-1.32,4-6.16l.4-1a14.83,14.83,0,0,1-4-3,7,7,0,0,1-1,2.33,1.39,1.39,0,0,1-.83.61q-.44,0-1.75-2s-.21-.42-.53-1.19a92.7,92.7,0,0,0,5.19-13.89,30.21,30.21,0,0,1-5.27-1.75,38.44,38.44,0,0,1-2,9.05,19.93,19.93,0,0,1-.83-3.73,59.43,59.43,0,0,1-.89-7.69q4.49-.13,9.89.08V19.73l-10.15.13q0-4.93.22-8.35a20.32,20.32,0,0,1-5.59-.26q.31,5.58.35,8.62l-11.38-.23.26,8a101.93,101.93,0,0,1-.4,11.73,15.19,15.19,0,0,1-6.81,10.11A9.73,9.73,0,0,1,165.76,53q6.23-5.67,7.47-12.71.3-2.54.62-6.77Zm-16.66,3.83q-2.24.53-5.1.92,1.59,4.75,1.81,5.54a8.21,8.21,0,0,0,1-.44q.8-.66,8.83-3l1.71-.52a44,44,0,0,1,.18-4.84l-1,.35-2.5.75V25.67c1.09,0,2.18,0,3.29.09V20.88c-1.58.09-2.68.13-3.29.13q0-6.64.17-9.31h-5.36l.17,9.31c-1.26,0-2.72,0-4.4-.13v4.88l4.4-.09Zm-42,1.63,3.87-.66a13.93,13.93,0,0,0,2.41-.31,4.65,4.65,0,0,0,.26-1.49,13.13,13.13,0,0,1,.79-3.12q-5.46.92-8,1.14,4-5,8.35-11.47c.46-.73,1-1.45,1.49-2.16l-4.61-3a64.18,64.18,0,0,1-3.34,6.24l-3.34,0q3.3-4.75,7-10.63c-1.93-.88-3.58-1.69-4.92-2.41q-3.3,8.44-7.7,12.61a29.16,29.16,0,0,1,.84,4.75l5.27-.22a39.67,39.67,0,0,1-5.76,7.25A26.42,26.42,0,0,1,111.13,40Zm12.57,0a1.39,1.39,0,0,0,.35-.31,7.55,7.55,0,0,1,1-.75A17.51,17.51,0,0,0,133,36.56l-1.31-1.84L129,31.34a28,28,0,0,1-3.87,2.46,42.07,42.07,0,0,1,4,5.71A3.48,3.48,0,0,1,129.94,38.94Zm-6-12.71V31l11.21-.13V46.49a1.54,1.54,0,0,1-.4,1.24,9.86,9.86,0,0,1-3.47.08A21.75,21.75,0,0,1,133.15,53q5.58-.53,6.41-1.46a3.76,3.76,0,0,0,.35-1.71V43A24.62,24.62,0,0,0,149,51a4,4,0,0,1,.66-1.06L151.35,47c.2-.35.36-.62.48-.79A15.21,15.21,0,0,1,144.4,41l4.92-5.72L145.15,32a24,24,0,0,1-3.51,5.14q-.53-1.57-1-2.63a24.07,24.07,0,0,1-.75-3.65l10.85.13V26.24l-5.49.13q1.32-11.38,1.8-13.63-9.36.27-20.65,0v4.74l15.21-.13-.26,2.55-14.2-.13v4.48q3-.13,13.66-.18l-.39,2.33Zm.14,19.12a37.55,37.55,0,0,1,2.2,4.75A98.49,98.49,0,0,1,134.12,43a32.55,32.55,0,0,1-1.63-4.44A37,37,0,0,1,124,44.83c.09-1.17.22-2.36.4-3.56Q114,45.35,110,46.19q1.32,2.55,2.33,5,6.72-3,11.68-4.93A8.53,8.53,0,0,1,124.06,45.35Z" transform="translate(-11.71 -7.61)"/></svg>