<?xml version="1.0" encoding="UTF-8" standalone="no"?>
<svg width="156px" height="50px" viewBox="0 0 156 50" version="1.1" xmlns="http://www.w3.org/2000/svg" xmlns:xlink="http://www.w3.org/1999/xlink">
    <!-- Generator: Sketch 46 (44423) - http://www.bohemiancoding.com/sketch -->
    <title>greentownlogo</title>
    <desc>Created with Sketch.</desc>
    <defs>
        <polygon id="path-1" points="23.2777557 0.295454545 0 0.295454545 0 49.4318182 23.2777557 49.4318182 46.5555114 49.4318182 46.5555114 0.295454545"></polygon>
        <polygon id="path-3" points="0 49.7045455 155.942614 49.7045455 155.942614 0.568181818 0 0.568181818"></polygon>
    </defs>
    <g id="Page-1" stroke="none" stroke-width="1" fill="none" fill-rule="evenodd">
        <g id="集团首页" transform="translate(-30.000000, -25.000000)">
            <g id="logo区域">
                <g id="greentownlogo" transform="translate(30.000000, 25.000000)">
                    <g id="Group-3" transform="translate(0.000000, 0.272727)">
                        <mask id="mask-2" fill="white">
                            <use xlink:href="#path-1"></use>
                        </mask>
                        <g id="Clip-2"></g>
                        <path d="M24.5685795,0.295454545 C25.4401705,0.295454545 26.3009659,0.342045455 27.1492614,0.43125 C18.7401705,3.02897727 12.6009659,10.8835227 12.6009659,20.1267045 C12.6009659,31.4767045 21.8577841,40.7335227 33.2077841,40.7335227 C38.291875,40.7335227 42.9549432,38.8755682 46.5555114,35.8045455 C42.5191477,43.8710227 34.173125,49.4318182 24.5685795,49.4318182 C11.0367614,49.4318182 -0.000170454545,38.3954545 -0.000170454545,24.8636364 C-0.000170454545,11.3318182 11.0367614,0.295454545 24.5685795,0.295454545" id="Fill-1" fill="#FEFEFE" mask="url(#mask-2)"></path>
                    </g>
                    <path d="M27.3451136,9.87988636 C27.3451136,9.87988636 25.7922727,5.58215909 29.2888636,6.00204545 C33.3917045,6.73159091 36.6877273,10.4128409 36.5201136,18.1202273 C36.5030682,18.4821591 37.1542045,18.4707955 37.14,18.1202273 C37.0076136,10.5259091 40.10875,6.75886364 44.3218182,6.00147727 C47.8615909,5.66227273 46.3598864,9.75034091 46.3877273,9.86965909 C47.8138636,8.86965909 50.515,8.735 49.8479545,12.4253409 C48.6547727,16.9719318 44.0303409,19.1190909 38.0473864,18.9009091 C37.7178409,18.9401136 37.7098864,19.5690909 38.0576136,19.5895455 C43.5678409,19.2827273 48.6820455,21.5213636 49.8627273,26.0770455 C50.5275,29.8043182 47.8763636,29.21 46.1775,28.6276136 C46.1775,28.6276136 48.5235227,32.5526136 44.2956818,32.3617045 C38.7746591,31.6236364 36.9303409,25.3690909 37.1479545,20.3475 C36.9871591,20.1145455 36.6445455,20.1071591 36.5030682,20.3475 C36.6661364,25.8798864 34.8155682,31.5179545 29.3854545,32.3617045 C25.1570455,32.5236364 27.5235227,28.6276136 27.5235227,28.6276136 C25.6161364,29.2315909 23.1144318,29.7957955 23.7792045,26.0969318 C25.24,20.5770455 31.1019318,19.47875 35.7093182,19.5804545 C36.0371591,19.5793182 36.0240909,18.9423864 35.7025,18.9111364 C29.2564773,19.1509091 24.9371591,16.8611364 23.8025,12.4253409 C23.1644318,8.47534091 26.0007955,8.95715909 27.3451136,9.87988636" id="Fill-4" fill="#FEFEFE"></path>
                    <path d="M73.6536364,40.1308523 L73.6598864,43.5944886 L72.9297727,43.5990341 L72.6604545,42.5853977 C69.7343182,45.7263068 65.3769318,42.4785795 66.5303409,37.1490341 C67.6831818,33.1660795 71.1132955,33.1348295 73.3189773,34.2836932 L73.2973864,37.0422159 L73.0093182,37.0359659 C72.8604545,34.445625 68.3775,33.8728977 68.2309091,38.1961932 C68.08375,42.5189205 71.3763636,43.220625 71.8985227,41.3774432 L71.9064773,39.9734659 C71.9081818,39.6524432 71.7882955,39.4888068 71.0496591,39.5132386 L71.0456818,39.0933523 L74.2809091,39.0888068 L74.2803409,39.3592614 C73.7934091,39.3876705 73.6223864,39.6848295 73.6536364,40.1308523" id="Fill-6" fill="#FEFEFE"></path>
                    <path d="M80.1904545,39.3496023 L82.4381818,43.108125 C82.5177273,43.1939205 82.6779545,43.2223295 82.7938636,43.2194886 L83.0160227,43.2126705 L83.0211364,43.5819886 L80.4921591,43.5819886 L77.9461364,38.9944886 C79.8001136,38.6524432 80.33875,38.2200568 80.43875,37.3285795 C80.5597727,36.2603977 80.0751136,35.5433523 79.0813636,35.426875 L77.7279545,35.4348295 C77.7347727,37.8047159 77.7376136,40.2973295 77.7438636,42.6666477 C77.8148864,43.0660795 78.1739773,43.2910795 78.6273864,43.2848295 L78.62625,43.5819886 L75.38875,43.5819886 L75.3853409,43.3092614 C75.6120455,43.2371023 75.8626136,42.9603977 75.8631818,42.595625 L75.8682955,34.8217614 C75.8671591,34.5666477 75.7381818,34.3359659 75.3921591,34.3138068 L75.3921591,34.0308523 L80.2614773,34.0405114 C83.2290909,34.551875 82.7552273,38.8927841 80.1904545,39.3496023" id="Fill-8" fill="#FEFEFE"></path>
                    <path d="M86.088125,39.2286932 L86.0790341,42.2071023 L89.0733523,42.2071023 C89.5898295,42.2173295 89.9159659,41.6088068 90.0477841,40.5900568 L90.3375568,40.5872159 L90.2034659,43.4400568 L83.6182386,43.4400568 L83.6182386,43.1667614 C83.9830114,43.1696023 84.2148295,43.0730114 84.2648295,42.7855114 L84.2517614,34.7576705 C84.2466477,34.4389205 84.0614205,34.3082386 83.6182386,34.3201705 L83.6182386,34.040625 L89.9563068,34.040625 L90.0625568,36.4019886 L89.7994886,36.4019886 C89.7563068,35.9303977 89.6307386,35.5798295 89.0767614,35.4423295 L86.0790341,35.4167614 C86.0892614,36.3855114 86.0790341,36.9071023 86.0790341,37.8758523 L88.0108523,37.8758523 C88.2869886,37.8372159 88.4813068,37.609375 88.5625568,37.1122159 L88.8273295,37.1190341 L88.8330114,39.9911932 L88.5784659,39.9911932 C88.4903977,39.659375 88.3665341,39.3764205 88.1432386,39.2286932 L86.088125,39.2286932" id="Fill-10" fill="#FEFEFE"></path>
                    <path d="M100.698295,36.0104545 L100.726136,42.6263636 C100.769886,43.1115909 100.961364,43.2911364 101.458523,43.2746591 L101.459091,43.5820455 L99.0625,43.5820455 C99.0613636,43.4809091 99.0602273,43.3803409 99.0590909,43.2797727 C99.3528409,43.2979545 99.5267045,43.1371591 99.5659091,42.8439773 L99.5267045,34.5059091 C99.4289773,34.3757955 99.2971591,34.3138636 99.0715909,34.3235227 L99.0715909,33.8996591 L101.709091,33.8996591 L105.121023,40.2184091 C105.128977,38.3820455 105.136932,36.5445455 105.144318,34.7076136 C105.043182,34.4218182 104.759091,34.2945455 104.4125,34.3257955 L104.407955,33.8996591 L106.789205,33.8973864 C106.790341,34.0320455 106.785227,34.1740909 106.786364,34.3081818 C106.540341,34.2843182 106.340341,34.4127273 106.298295,34.6297727 L106.285227,43.5820455 L104.885227,43.5820455 L100.698295,36.0104545" id="Fill-12" fill="#FEFEFE"></path>
                    <path d="M112.4725,35.4167614 L112.4725,42.7144886 C112.4725,42.9338068 112.936136,43.3457386 113.388409,43.2980114 L113.388409,43.5821023 L109.886705,43.5764205 L109.882727,43.3122159 C110.138409,43.2940341 110.419659,43.2838068 110.62875,42.7144886 L110.62875,35.4167614 L109.186136,35.4167614 C108.656023,35.5088068 108.453182,36.4019886 108.398636,37.0480114 L108.149773,37.0480114 L108.162273,34.040625 L114.97875,34.040625 L115.075909,37.0480114 L114.785568,37.0480114 L114.718523,36.4019886 C114.568523,35.853125 114.307159,35.4872159 113.867955,35.4167614 L112.4725,35.4167614" id="Fill-14" fill="#FEFEFE"></path>
                    <path d="M124.183523,33.9030682 L124.188636,34.2269318 C124.476136,34.2360227 124.701705,34.3655682 124.866477,34.615 L127.075,43.5701136 L128.558523,43.5701136 L129.674432,38.2240909 L130.856818,43.5701136 L132.274432,43.5701136 C132.976705,40.7621591 133.678409,37.9547727 134.380682,35.14625 C134.509091,34.6382955 134.608523,34.3314773 135.117045,34.3189773 L135.128409,33.9030682 L132.60625,33.9030682 L132.611932,34.3314773 L132.875568,34.3303409 C133.080682,34.3303409 133.185227,34.5025 133.191477,34.6155682 L133.180114,35.14625 L131.906818,41.0098864 L130.720455,35.14625 C130.598295,34.5161364 130.869318,34.3581818 131.151136,34.3223864 L131.402841,34.3178409 L131.404545,33.9098864 L127.923864,33.9161364 L127.926705,34.3013636 L128.265909,34.3002273 C128.526705,34.3576136 128.729545,34.6689773 128.817614,35.14625 L129.152273,36.7519318 L128.169318,41.0098864 L126.903977,35.14625 C126.75625,34.4854545 126.855682,34.2831818 127.311932,34.3025 L127.317045,33.9030682 L124.183523,33.9030682" id="Fill-16" fill="#FEFEFE"></path>
                    <path d="M119.875511,33.6284091 C122.138011,33.6284091 123.984034,35.9261364 123.984034,38.7426136 C123.984034,41.5602273 122.138011,43.8573864 119.875511,43.8573864 C117.612443,43.8573864 115.766989,41.5602273 115.766989,38.7426136 C115.766989,35.9261364 117.612443,33.6284091 119.875511,33.6284091 M119.50733,35.1556818 C120.673239,35.01875 121.809034,36.5204545 122.03517,38.4982955 C122.260739,40.4761364 121.494261,42.2005682 120.327216,42.3369318 C119.160739,42.4738636 118.024943,40.9727273 117.799375,38.9943182 C117.57267,37.0170455 118.340284,35.2926136 119.50733,35.1556818" id="Fill-18" fill="#FEFEFE"></path>
                    <path d="M93.7452841,39.2053409 L93.7361932,42.1831818 L96.7310795,42.1831818 C97.2475568,42.1939773 97.573125,41.5854545 97.7049432,40.5667045 L97.9947159,40.5632955 L97.860625,43.4167045 L91.2759659,43.4167045 L91.2759659,43.1428409 C91.6401705,43.14625 91.8719886,43.0490909 91.9219886,42.7621591 L91.9089205,34.7343182 C91.904375,34.415 91.7191477,34.2848864 91.2759659,34.2968182 L91.2759659,34.0172727 L97.6134659,34.0172727 L97.7202841,36.3780682 L97.4566477,36.3780682 C97.4134659,35.9064773 97.2878977,35.5564773 96.7339205,35.4189773 L93.7361932,35.3934091 C93.7464205,36.3621591 93.7361932,36.88375 93.7361932,37.8525 L95.6680114,37.8525 C95.9447159,37.8132955 96.1390341,37.5860227 96.2197159,37.0888636 L96.4191477,37.0951136 L96.4248295,39.9678409 L96.2361932,39.9678409 C96.148125,39.6360227 96.0236932,39.3530682 95.8009659,39.2053409 L93.7452841,39.2053409" id="Fill-20" fill="#FEFEFE"></path>
                    <path d="M137.222841,36.0104545 L137.250114,42.6263636 C137.294432,43.1115909 137.485909,43.2911364 137.983068,43.2746591 L137.983068,43.5820455 L135.587045,43.5820455 C135.585341,43.4809091 135.584205,43.3803409 135.583068,43.2797727 C135.877386,43.2979545 136.05125,43.1371591 136.089886,42.8439773 L136.05125,34.5059091 C135.952955,34.3757955 135.821705,34.3138636 135.596136,34.3235227 L135.596136,33.8996591 L138.233636,33.8996591 L141.645568,40.2184091 C141.653523,38.3820455 141.661477,36.5445455 141.668864,34.7076136 C141.567159,34.4218182 141.283636,34.2945455 140.937045,34.3257955 L140.9325,33.8996591 L143.31375,33.8973864 C143.314318,34.0320455 143.309773,34.1740909 143.310909,34.3081818 C143.064318,34.2843182 142.864886,34.4127273 142.822841,34.6297727 L142.809773,43.5820455 L141.409773,43.5820455 L137.222841,36.0104545" id="Fill-22" fill="#FEFEFE"></path>
                    <mask id="mask-4" fill="white">
                        <use xlink:href="#path-3"></use>
                    </mask>
                    <g id="Clip-25"></g>
                    <polygon id="Fill-24" fill="#FEFEFE" mask="url(#mask-4)" points="55.1539773 31.2329545 152.850568 31.2329545 152.850568 29.2880682 55.1539773 29.2880682"></polygon>
                    <polygon id="Fill-26" fill="#FEFEFE" mask="url(#mask-4)" points="55.1539773 48.2130682 152.850568 48.2130682 152.850568 46.2681818 55.1539773 46.2681818"></polygon>
                    <path d="M63.8333523,22.0164773 C64.2339205,22.7153409 64.6469886,23.6147727 65.0816477,24.7142045 C66.9310795,22.8988636 68.4185795,21.5522727 69.5521023,20.6698864 C69.1344886,19.7198864 68.8276705,18.8801136 68.6276705,18.1471591 C66.8799432,19.7965909 65.2736932,20.9857955 63.8077841,21.7181818 C63.8589205,21.0539773 63.9310795,20.3761364 64.0333523,19.6943182 C60.0873295,21.2409091 57.3560795,22.1744318 55.8430114,22.4897727 C56.341875,23.4568182 56.7850568,24.3988636 57.1685795,25.3147727 C59.7128977,24.1642045 61.9282386,23.23125 63.8077841,22.5153409 C63.8077841,22.3488636 63.8163068,22.1829545 63.8333523,22.0164773 L63.8333523,22.0164773 Z M63.7566477,11.1545455 L63.7566477,13.8517045 L70.1271023,13.7795455 L70.1271023,22.6642045 C70.1271023,23.0136364 70.0503977,23.2482955 69.9015341,23.3676136 C69.5986932,23.4823864 68.9424432,23.4994318 67.9282386,23.4142045 C68.529375,24.6801136 68.8873295,25.6556818 69.0021023,26.3380682 C71.1157386,26.1369318 72.3305114,25.8607955 72.6458523,25.5113636 C72.7651705,25.3147727 72.829375,24.9869318 72.8458523,24.5392045 L72.8458523,20.6954545 C74.1458523,22.5920455 75.8589205,24.0960227 77.9896023,25.2125 C78.0401705,25.0636364 78.1640341,24.8630682 78.3646023,24.6119318 L79.3401705,22.9414773 C79.4555114,22.7409091 79.5447159,22.5920455 79.6128977,22.4897727 C77.9174432,21.9443182 76.510625,20.9602273 75.3941477,19.5448864 L78.1896023,16.2977273 L75.8163068,14.4272727 C75.2538068,15.5267045 74.5844886,16.4982955 73.8219886,17.3460227 C73.6214205,16.7494318 73.4384659,16.2511364 73.2719886,15.8505682 C73.0038068,14.8022727 72.8628977,14.1119318 72.8458523,13.7795455 L79.0117614,13.8517045 L79.0117614,11.1545455 L75.8930114,11.23125 C76.3913068,6.91875 76.7327841,4.34034091 76.9157386,3.48863636 C73.3702841,3.59034091 69.4583523,3.58238636 65.1799432,3.46704545 L65.1799432,6.16022727 L73.8219886,6.0875 L73.6725568,7.53636364 L65.6060795,7.45965909 L65.6060795,10.0079545 C66.7566477,9.95681818 69.3430114,9.92272727 73.3702841,9.90625 L73.1486932,11.23125 L63.7566477,11.1545455 Z M67.1782386,18.3732955 C67.2805114,18.3051136 67.3447159,18.2454545 67.3788068,18.1982955 C67.5447159,18.0448864 67.7282386,17.9045455 67.9282386,17.7721591 C68.0265341,17.7210227 68.354375,17.4738636 68.8998295,17.0221591 L68.154375,15.9744318 L66.654375,14.0522727 C66.1555114,14.4528409 65.4225568,14.9170455 64.4555114,15.45 C65.4055114,16.6005682 66.173125,17.6829545 66.7566477,18.6971591 C66.8719886,18.5778409 67.0123295,18.4710227 67.1782386,18.3732955 L67.1782386,18.3732955 Z M60.0361932,18.3732955 L62.2350568,17.9982955 C62.5503977,17.9982955 63.010625,17.9386364 63.6077841,17.8232955 C63.7094886,17.5210227 63.7566477,17.2397727 63.7566477,16.9755682 C63.8589205,16.2727273 64.0083523,15.6840909 64.2083523,15.2028409 C62.1413068,15.5522727 60.6202841,15.7653409 59.6401705,15.8505682 C61.1526705,13.9539773 62.7339205,11.7806818 64.3827841,9.33465909 C64.6469886,8.91704545 64.9327841,8.50852273 65.2310795,8.10795455 L62.6100568,6.41136364 C62.1583523,7.40852273 61.5276705,8.59318182 60.7140341,9.95681818 L58.8134659,9.98238636 C60.0617614,8.18409091 61.3873295,6.16875 62.7850568,3.94034091 C61.685625,3.44147727 60.7526705,2.98125 59.9896023,2.56818182 C58.7407386,5.76420455 57.2833523,8.15 55.6174432,9.73125 C55.8174432,10.4301136 55.9753977,11.3289773 56.0947159,12.4284091 L59.0901705,12.3051136 C57.841875,14.2017045 56.7509659,15.5732955 55.8174432,16.4255682 C56.0691477,17.0732955 56.2907386,17.9215909 56.4907386,18.9698864 L60.0361932,18.3732955 Z M83.8833523,17.4482955 C83.0344886,17.6488636 82.0674432,17.8232955 80.9850568,17.9727273 C81.5861932,19.7710227 81.9271023,20.8193182 82.0123295,21.1176136 C82.2077841,21.0539773 82.4083523,20.9681818 82.6083523,20.8704545 C82.9117614,20.6193182 84.5816477,20.04375 87.6282386,19.1443182 C87.6799432,19.1278409 88.0038068,19.0295455 88.6003977,18.8460227 C88.6003977,17.5465909 88.6344886,16.6306818 88.7026705,16.0977273 C88.5021023,16.1659091 88.3185795,16.2340909 88.1526705,16.2977273 L86.729375,16.7244318 L86.729375,10.8306818 C87.3475568,10.8306818 87.9697159,10.8477273 88.6003977,10.8818182 L88.6003977,8.10795455 C87.7055114,8.15852273 87.079375,8.18409091 86.729375,8.18409091 C86.729375,5.66988636 86.7634659,3.90568182 86.8276705,2.89147727 L83.7850568,2.89147727 L83.8833523,8.18409091 C83.166875,8.18409091 82.3361932,8.15852273 81.385625,8.10795455 L81.385625,10.8818182 C82.0038068,10.8647727 82.8350568,10.8477273 83.8833523,10.8306818 L83.8833523,17.4482955 Z M93.3475568,15.275 C93.3475568,17.325 93.3049432,18.6034091 93.2197159,19.11875 C93.1214205,19.6221591 92.8401705,19.9113636 92.3714205,19.9965909 C92.2219886,20.0096591 91.9799432,20.0352273 91.6475568,20.0693182 C92.1157386,21.0193182 92.4225568,21.91875 92.5719886,22.7664773 C93.2367614,22.6642045 93.8719886,22.4176136 94.4680114,22.0164773 C95.166875,21.5693182 95.5930114,20.8789773 95.7424432,19.9454545 C95.7935795,19.0465909 95.8185795,17.4482955 95.8185795,15.1517045 L95.8913068,12.7778409 L92.1242614,12.8289773 L92.1242614,10.2085227 L95.7424432,10.1829545 C96.091875,13.7920455 96.7100568,17.1414773 97.591875,20.2181818 C96.0447159,22.1318182 94.4208523,23.4142045 92.7208523,24.0664773 C93.6202841,24.8801136 94.2765341,25.6732955 94.6941477,26.4357955 C95.6611932,25.9198864 97.0589205,24.7948864 98.891875,23.0647727 C100.203807,24.9653409 101.435625,26.0607955 102.586193,26.3636364 C102.68392,26.3636364 102.77767,26.3545455 102.85892,26.3380682 C103.757784,25.8392045 104.516307,24.6715909 105.129943,22.8392045 C105.198125,22.6727273 105.27483,22.4897727 105.35608,22.29375 C104.40608,21.7909091 103.643011,21.2284091 103.059489,20.5931818 C102.893011,21.1943182 102.701534,21.6329545 102.48392,21.91875 C102.317443,22.1318182 102.160057,22.2511364 102.010625,22.2681818 C101.844716,22.2681818 101.51233,21.8846591 101.013466,21.1176136 C100.996989,21.1005682 100.894148,20.8789773 100.711193,20.4443182 C101.976534,17.6960227 102.961193,15.0664773 103.659489,12.5522727 C102.611761,12.3051136 101.610625,11.9727273 100.664034,11.5551136 C100.510625,13.2039773 100.131648,14.9170455 99.5134659,16.6982955 C99.3646023,16.3318182 99.2066477,15.6244318 99.0407386,14.5761364 C98.7378977,12.7778409 98.5719886,11.3204545 98.5378977,10.2085227 C100.237898,10.1573864 102.10892,10.1744318 104.158352,10.2551136 L104.158352,7.45965909 L98.3890341,7.53636364 C98.3890341,5.66988636 98.4310795,4.08920455 98.5163068,2.78920455 C97.5663068,2.89147727 96.5089205,2.84034091 95.341875,2.64034091 C95.4611932,4.75397727 95.5253977,6.38579545 95.541875,7.53636364 L89.0776705,7.40852273 L89.2265341,11.98125 C89.2265341,15.4755682 89.1498295,17.6960227 89.0003977,18.6460227 C88.4850568,21.1431818 87.1941477,23.05625 85.1316477,24.3903409 C86.2305114,24.9056818 87.0282386,25.5534091 87.5310795,26.3380682 C89.891875,24.1897727 91.3060795,21.7823864 91.7748295,19.11875 C91.8901705,18.1556818 92.0055114,16.8732955 92.1242614,15.275 L93.3475568,15.275 Z M98.8663068,4.28920455 C99.7140341,5.1375 100.536193,6.20284091 101.33733,7.48579545 C101.88733,6.88465909 102.594716,6.24545455 103.460057,5.56363636 C102.85892,4.74545455 101.985057,3.80795455 100.838466,2.74261364 C100.438466,3.13863636 99.7822159,3.65852273 98.8663068,4.28920455 L98.8663068,4.28920455 Z M117.616307,3.19034091 L117.616307,26.2607955 L120.714034,26.2607955 L120.63733,23.1670455 C121.003807,23.7636364 121.438466,24.6079545 121.936761,25.6857955 C123.334489,24.6375 124.366307,23.7255682 125.03108,22.9414773 C126.496989,24.3392045 127.860057,25.3869318 129.125966,26.0863636 C129.54358,25.0210227 130.075966,23.9727273 130.723693,22.9414773 C129.675398,22.575 128.934489,22.2511364 128.503807,21.9653409 C128.052102,21.7011364 127.464034,21.2198864 126.73108,20.5210227 C127.79642,18.2198864 128.669716,15.8931818 129.351534,13.5278409 L128.128807,12.15625 L120.63733,12.15625 L120.63733,5.98522727 L125.05608,5.98522727 C125.05608,7.3875 124.915739,8.18409091 124.63392,8.38465909 C124.268011,8.58465909 123.466875,8.65738636 122.235625,8.61022727 C122.836193,9.80795455 123.232216,10.8392045 123.432784,11.7039773 C125.78108,11.5039773 127.229943,10.9414773 127.779375,10.0079545 C127.928239,9.60795455 128.014034,8.24375 128.026534,5.91306818 L128.103239,3.19034091 L117.616307,3.19034091 Z M120.63733,14.8494318 L125.80608,14.8494318 C125.60608,15.8164773 125.290739,16.8005682 124.85608,17.7977273 C124.340739,16.8477273 123.901534,15.8676136 123.535057,14.8494318 C122.486761,15.36875 121.621989,15.7096591 120.935625,15.8761364 C121.587898,17.3886364 122.311761,18.9357955 123.10892,20.5210227 C122.444148,21.3181818 121.621989,21.9482955 120.63733,22.4176136 L120.63733,14.8494318 Z M116.218011,5.3125 L116.295284,3.19034091 L107.878807,3.19034091 C108.143011,12.4284091 108.061761,18.2965909 107.62767,20.79375 C107.427102,21.7607955 107.004943,22.6602273 106.35267,23.4909091 C107.154375,24.3903409 107.878807,25.3534091 108.526534,26.3892045 C109.791875,24.4369318 110.542443,22.3488636 110.776534,20.1204545 C110.823693,19.3193182 110.866307,18.4034091 110.89983,17.3715909 L113.396989,17.3715909 L113.396989,22.1659091 C113.396989,22.5153409 113.320284,22.775 113.170852,22.9414773 C112.873125,23.0903409 112.131648,23.1164773 110.950966,23.0136364 C111.44983,23.9642045 111.84983,25.0721591 112.148693,26.3380682 C114.095852,26.0693182 115.310625,25.6732955 115.791875,25.1403409 C116.060057,24.8886364 116.200966,24.3903409 116.218011,23.6403409 L116.218011,5.3125 Z M110.849261,14.7255682 L113.396989,14.7255682 L113.396989,11.8534091 L110.849261,11.8534091 L110.849261,14.7255682 Z M110.925398,9.30909091 L113.396989,9.30909091 L113.396989,5.86193182 L110.925398,5.86193182 L110.925398,9.30909091 Z M133.42142,14.5 C133.770284,15.45 133.99642,16.1659091 134.094716,16.6471591 C138.641875,15.9017045 142.15267,14.8448864 144.633352,13.4767045 C146.299261,14.4909091 147.84642,15.2238636 149.27767,15.6755682 C151.174261,16.2255682 153.224261,16.5238636 155.41858,16.575 C155.486761,15.3607955 155.661761,14.2607955 155.943011,13.2767045 C152.98108,13.4255682 150.457784,13.0846591 148.378239,12.2539773 C148.075966,12.1386364 147.760625,12.0068182 147.428239,11.8534091 C149.593011,10.2551136 151.268011,8.50852273 152.448125,6.61193182 L151.400398,4.68977273 L142.98392,4.68977273 C143.235625,4.27272727 143.491307,3.81647727 143.75892,3.31363636 C142.758352,3.14772727 141.628239,2.875 140.362898,2.49090909 C139.412898,5.38863636 137.64017,7.60056818 135.045284,9.13465909 C135.74358,9.69715909 136.49358,10.4301136 137.290739,11.3289773 C137.80608,10.9329545 138.714034,10.0892045 140.014034,8.81079545 C140.62767,9.70568182 141.351534,10.6130682 142.186761,11.5295455 C139.089034,12.8801136 136.050398,13.5619318 133.071989,13.5789773 C133.170284,13.8772727 133.289602,14.1840909 133.42142,14.5 L133.42142,14.5 Z M148.127102,7.3875 C147.129943,8.48295455 146.021989,9.39886364 144.807784,10.1318182 C143.994148,9.43295455 143.184489,8.51647727 142.386761,7.3875 L148.127102,7.3875 Z M135.841875,19.6943182 L141.487898,19.6431818 C140.920852,20.6954545 139.988466,21.5994318 138.688466,22.3659091 C137.192443,23.1164773 135.54358,23.5079545 133.744716,23.5426136 C134.396989,24.6545455 134.844716,25.6556818 135.095852,26.5380682 C139.34017,25.7875 142.370284,23.9130682 144.181648,20.9170455 L144.833352,19.6431818 L149.576534,19.6431818 C149.576534,20.99375 149.541875,21.8676136 149.478239,22.2681818 C149.410057,22.6642045 149.18392,22.95 148.800398,23.1164773 C147.900966,23.5170455 146.823125,23.60625 145.557216,23.3892045 C145.970852,24.5051136 146.248125,25.6045455 146.380511,26.6875 C148.178807,26.61875 149.567443,26.3721591 150.551534,25.9375 C151.698125,25.3869318 152.371989,24.35625 152.571989,22.8392045 C152.623125,22.2767045 152.657216,21.1517045 152.674261,19.4681818 L152.720852,16.8732955 L145.506648,16.9244318 L145.804943,14.9261364 C144.160057,14.7596591 143.07767,14.6102273 142.561761,14.4784091 C142.545284,15.3267045 142.46858,16.1403409 142.336193,16.9244318 C139.289034,16.9244318 137.12483,16.8988636 135.841875,16.8477273 L135.841875,19.6943182 L135.841875,19.6943182 Z" id="Fill-27" fill="#FEFEFE" mask="url(#mask-4)"></path>
                </g>
            </g>
        </g>
    </g>
</svg>