<?xml version="1.0" encoding="UTF-8" standalone="no"?>
<svg width="17px" height="19px" viewBox="0 0 17 19" version="1.1" xmlns="http://www.w3.org/2000/svg" xmlns:xlink="http://www.w3.org/1999/xlink">
    <!-- Generator: Sketch 46 (44423) - http://www.bohemiancoding.com/sketch -->
    <title>youfan</title>
    <desc>Created with Sketch.</desc>
    <defs></defs>
    <g id="Page-1" stroke="none" stroke-width="1" fill="none" fill-rule="evenodd">
        <g id="集团首页" transform="translate(-1435.000000, -571.000000)" fill="#FFFFFF">
            <g id="收缩-copy" transform="translate(1444.000000, 580.000000) scale(-1, 1) translate(-1444.000000, -580.000000) translate(1428.000000, 550.000000)">
                <path d="M16.0169261,21 L24.4998238,21 C24.7597119,21.0002993 24.9701836,21.4189293 24.9698823,21.9351447 C24.9697316,22.4509112 24.7594106,22.8687928 24.4998238,22.8690921 L16.0169261,22.8690921 C15.757038,22.8690921 15.5465663,22.4507615 15.5465663,21.9345461 C15.5464156,21.4184803 15.757038,21 16.0169261,21 L16.0169261,21 Z M16.0169261,29.4058258 L24.4995225,29.4058258 C24.7594106,29.4058258 24.9698823,29.824306 24.9698823,30.3403718 C24.9698823,30.8565873 24.7594106,31.2749179 24.4995225,31.2749179 L16.0169261,31.2749179 C15.7571886,31.2749179 15.5465663,30.8565873 15.5465663,30.3403718 C15.5464156,29.824306 15.757038,29.4058258 16.0169261,29.4058258 L16.0169261,29.4058258 Z M16.0169261,37.8116515 L24.4995225,37.8116515 C24.7594106,37.8116515 24.9698823,38.2302815 24.9698823,38.7461976 C24.9698823,39.2624131 24.7594106,39.6807437 24.4995225,39.6807437 L16.0169261,39.6807437 C15.7571886,39.6807437 15.5465663,39.2624131 15.5465663,38.7461976 C15.5464156,38.2302815 15.757038,37.8116515 16.0169261,37.8116515 L16.0169261,37.8116515 Z M8.37817493,29.6358702 L12.3311857,27.0202188 C12.8946532,26.6470889 13.6497599,27.0486563 13.6497599,27.7215774 L13.6497599,32.9554245 C13.6497599,33.6284952 12.8951052,34.0300627 12.3308844,33.6566334 L8.37742163,31.0384376 C7.87391672,30.7046712 7.87421804,29.9691876 8.37817493,29.6358702 L8.37817493,29.6358702 Z" id="youfan"></path>
            </g>
        </g>
    </g>
</svg>